<svg width="24" height="24" viewBox="0 0 24 24" fill="none" xmlns="http://www.w3.org/2000/svg">
<path d="M5.00002 18.2C4.80002 18.2 4.60002 18.1 4.50002 18C4.20002 17.7 4.20002 17.2 4.50002 16.9L18.5 2.90005C18.8 2.60005 19.3 2.60005 19.6 2.90005C19.9 3.20005 19.9 3.70005 19.6 4.00005L5.60002 18C5.40002 18.2 5.20002 18.2 5.00002 18.2Z" fill="#171717"/>
<path d="M15.3 18.2001H5.00001C4.60001 18.2001 4.20001 17.9001 4.20001 17.4001V7.20015C4.20001 6.80015 4.50001 6.40015 5.00001 6.40015C5.50001 6.40015 5.80001 6.70015 5.80001 7.20015V16.7001H15.3C15.7 16.7001 16.1 17.0001 16.1 17.5001C16.1 18.0001 15.7 18.2001 15.3 18.2001Z" fill="#171717"/>
<path opacity="0.4" d="M20.5 22.7999H3.50001C3.10001 22.7999 2.70001 22.5 2.70001 22C2.70001 21.5 3.00001 21.2 3.50001 21.2H20.5C20.9 21.2 21.3 21.5 21.3 22C21.3 22.5 20.9 22.7999 20.5 22.7999Z" fill="#171717"/>
</svg>
