<svg width="24" height="24" viewBox="0 0 24 24" fill="none" xmlns="http://www.w3.org/2000/svg">
<path opacity="0.4" d="M16.19 2H7.81C4.17 2 2 4.17 2 7.81V16.18C2 19.83 4.17 22 7.81 22H16.18C19.82 22 21.99 19.83 21.99 16.19V7.81C22 4.17 19.83 2 16.19 2Z" fill="#171717"/>
<path d="M17.85 13.5301C17.77 13.3501 17.63 13.2001 17.44 13.1201C17.35 13.0801 17.25 13.0601 17.15 13.0601H6.84998C6.43998 13.0601 6.09998 13.4001 6.09998 13.8101C6.09998 14.2201 6.43998 14.5601 6.84998 14.5601H15.35L13.59 16.3201C13.3 16.6101 13.3 17.0901 13.59 17.3801C13.74 17.5301 13.93 17.6001 14.12 17.6001C14.31 17.6001 14.5 17.5301 14.65 17.3801L17.69 14.3401C17.76 14.2701 17.81 14.1901 17.85 14.1001C17.92 13.9201 17.92 13.7101 17.85 13.5301Z" fill="#171717"/>
<path d="M6.14997 10.4701C6.22997 10.6501 6.36997 10.8001 6.55997 10.8801C6.64997 10.9201 6.74997 10.9401 6.84997 10.9401H17.16C17.57 10.9401 17.91 10.6001 17.91 10.1901C17.91 9.78009 17.57 9.44009 17.16 9.44009H8.65997L10.42 7.68009C10.71 7.39009 10.71 6.91009 10.42 6.62009C10.13 6.33009 9.64997 6.33009 9.35997 6.62009L6.31997 9.65009C6.24997 9.72009 6.18997 9.81009 6.14997 9.90009C6.07997 10.0801 6.07997 10.2901 6.14997 10.4701Z" fill="#171717"/>
</svg>
