<svg width="24" height="24" viewBox="0 0 24 24" fill="none" xmlns="http://www.w3.org/2000/svg">
<path d="M12 22.75C6.07 22.75 1.25 17.93 1.25 12C1.25 6.07 6.07 1.25 12 1.25C17.93 1.25 22.75 6.07 22.75 12C22.75 17.93 17.93 22.75 12 22.75ZM12 2.75C6.9 2.75 2.75 6.9 2.75 12C2.75 17.1 6.9 21.25 12 21.25C17.1 21.25 21.25 17.1 21.25 12C21.25 6.9 17.1 2.75 12 2.75Z" fill="#171717"/>
<path d="M10.74 16.2799C10.55 16.2799 10.36 16.2099 10.21 16.0599C9.91999 15.7699 9.91999 15.2899 10.21 14.9999L13.21 11.9999L10.21 8.99991C9.91999 8.70991 9.91999 8.22991 10.21 7.93991C10.5 7.64991 10.98 7.64991 11.27 7.93991L14.8 11.4699C15.09 11.7599 15.09 12.2399 14.8 12.5299L11.27 16.0599C11.12 16.2099 10.93 16.2799 10.74 16.2799Z" fill="#171717"/>
</svg>
