<svg width="24" height="24" viewBox="0 0 24 24" fill="none" xmlns="http://www.w3.org/2000/svg">
<path opacity="0.4" d="M22 10.7599C22 10.2899 21.62 9.8999 21.14 9.8999H2.86C2.38 9.8999 2 10.2799 2 10.7599C2 16.6499 6.11 20.7599 12 20.7599C17.89 20.7599 22 16.6399 22 10.7599Z" fill="#171717"/>
<path d="M12.46 15.9L15.31 13.06C15.6 12.77 15.6 12.29 15.31 12C15.02 11.71 14.54 11.71 14.25 12L12.69 13.56V3.98999C12.69 3.57999 12.35 3.23999 11.94 3.23999C11.53 3.23999 11.19 3.57999 11.19 3.98999V13.56L9.62003 12C9.33003 11.71 8.85003 11.71 8.56003 12C8.41003 12.15 8.34003 12.34 8.34003 12.53C8.34003 12.72 8.41003 12.91 8.56003 13.06L11.41 15.9C11.7 16.2 12.17 16.2 12.46 15.9Z" fill="#171717"/>
</svg>
