<svg width="24" height="24" viewBox="0 0 24 24" fill="none" xmlns="http://www.w3.org/2000/svg">
<path opacity="0.4" d="M16.19 2H7.81C4.17 2 2 4.17 2 7.81V16.18C2 19.83 4.17 22 7.81 22H16.18C19.82 22 21.99 19.83 21.99 16.19V7.81C22 4.17 19.83 2 16.19 2Z" fill="#171717"/>
<path d="M13.26 16.2799C13.07 16.2799 12.88 16.2099 12.73 16.0599L9.20001 12.5299C8.91001 12.2399 8.91001 11.7599 9.20001 11.4699L12.73 7.93991C13.02 7.64991 13.5 7.64991 13.79 7.93991C14.08 8.22991 14.08 8.70991 13.79 8.99991L10.79 11.9999L13.79 14.9999C14.08 15.2899 14.08 15.7699 13.79 16.0599C13.65 16.2099 13.46 16.2799 13.26 16.2799Z" fill="#171717"/>
</svg>
