<svg width="24" height="24" viewBox="0 0 24 24" fill="none" xmlns="http://www.w3.org/2000/svg">
<path opacity="0.4" d="M16.19 2H7.81C4.17 2 2 4.17 2 7.81V16.18C2 19.83 4.17 22 7.81 22H16.18C19.82 22 21.99 19.83 21.99 16.19V7.81C22 4.17 19.83 2 16.19 2Z" fill="#171717"/>
<path d="M10.74 16.2799C10.55 16.2799 10.36 16.2099 10.21 16.0599C9.91999 15.7699 9.91999 15.2899 10.21 14.9999L13.21 11.9999L10.21 8.99991C9.91999 8.70991 9.91999 8.22991 10.21 7.93991C10.5 7.64991 10.98 7.64991 11.27 7.93991L14.8 11.4699C15.09 11.7599 15.09 12.2399 14.8 12.5299L11.27 16.0599C11.12 16.2099 10.93 16.2799 10.74 16.2799Z" fill="#171717"/>
</svg>
