<svg width="24" height="24" viewBox="0 0 24 24" fill="none" xmlns="http://www.w3.org/2000/svg">
<path opacity="0.4" d="M16.19 2H7.82C4.17 2 2 4.17 2 7.81V16.18C2 19.82 4.17 21.99 7.81 21.99H16.18C19.82 21.99 21.99 19.82 21.99 16.18V7.81C22 4.17 19.83 2 16.19 2Z" fill="#171717"/>
<path d="M10.18 6.1001C9.77002 6.1001 9.43002 6.4401 9.43002 6.8501V15.3501L7.67001 13.5901C7.38001 13.3001 6.90002 13.3001 6.61002 13.5901C6.32002 13.8801 6.32002 14.3601 6.61002 14.6501L9.65002 17.6901C9.72002 17.7601 9.80002 17.8101 9.89002 17.8501C9.98002 17.8901 10.08 17.9101 10.18 17.9101C10.28 17.9101 10.37 17.8901 10.47 17.8501C10.65 17.7701 10.8 17.6301 10.88 17.4401C10.92 17.3501 10.94 17.2501 10.94 17.1501V6.8501C10.93 6.4301 10.6 6.1001 10.18 6.1001Z" fill="#171717"/>
<path d="M17.39 9.3601L14.35 6.3201C14.28 6.2501 14.2 6.2001 14.11 6.1601C13.93 6.0801 13.72 6.0801 13.54 6.1601C13.36 6.2401 13.21 6.3801 13.13 6.5701C13.09 6.6601 13.07 6.7601 13.07 6.8601V17.1701C13.07 17.5801 13.41 17.9201 13.82 17.9201C14.23 17.9201 14.57 17.5801 14.57 17.1701V8.6701L16.33 10.4301C16.48 10.5801 16.67 10.6501 16.86 10.6501C17.05 10.6501 17.24 10.5801 17.39 10.4301C17.68 10.1201 17.68 9.6501 17.39 9.3601Z" fill="#171717"/>
</svg>
