<svg width="24" height="24" viewBox="0 0 24 24" fill="none" xmlns="http://www.w3.org/2000/svg">
<path d="M8.01001 14.5099C8.19001 14.8099 8.41 15.09 8.66 15.34C10.5 17.18 13.49 17.18 15.34 15.34C16.09 14.59 16.52 13.6399 16.66 12.6699" stroke="#171717" stroke-width="1.5" stroke-linecap="round" stroke-linejoin="round"/>
<path d="M7.33997 11.3301C7.47997 10.3501 7.90997 9.41003 8.65997 8.66003C10.5 6.82003 13.49 6.82003 15.34 8.66003C15.6 8.92003 15.81 9.20005 15.99 9.49005" stroke="#171717" stroke-width="1.5" stroke-linecap="round" stroke-linejoin="round"/>
<path d="M7.81995 17.18V14.51H10.4899" stroke="#171717" stroke-width="1.5" stroke-linecap="round" stroke-linejoin="round"/>
<path d="M16.18 6.82007V9.49005H13.51" stroke="#171717" stroke-width="1.5" stroke-linecap="round" stroke-linejoin="round"/>
<path d="M4 6C2.75 7.67 2 9.75 2 12C2 17.52 6.48 22 12 22C17.52 22 22 17.52 22 12C22 6.48 17.52 2 12 2C10.57 2 9.2 2.29998 7.97 2.84998" stroke="#171717" stroke-width="1.5" stroke-linecap="round" stroke-linejoin="round"/>
</svg>
