<svg width="24" height="24" viewBox="0 0 24 24" fill="none" xmlns="http://www.w3.org/2000/svg">
<path opacity="0.4" d="M12 22C17.5228 22 22 17.5228 22 12C22 6.47715 17.5228 2 12 2C6.47715 2 2 6.47715 2 12C2 17.5228 6.47715 22 12 22Z" fill="#171717"/>
<path d="M16.7599 11.9301C16.3399 11.8601 15.9699 12.1601 15.9099 12.5701C15.7899 13.4401 15.3999 14.2201 14.7999 14.8201C13.4199 16.2001 11.28 16.3401 9.72995 15.2701H10.4799C10.89 15.2701 11.2299 14.9301 11.2299 14.5201C11.2299 14.1101 10.89 13.7701 10.4799 13.7701H7.80994C7.39994 13.7701 7.05994 14.1101 7.05994 14.5201V17.1901C7.05994 17.6001 7.39994 17.9401 7.80994 17.9401C8.21994 17.9401 8.55994 17.6001 8.55994 17.1901V16.2501C9.55994 17.0601 10.7699 17.4901 11.9899 17.4901C13.3899 17.4901 14.7899 16.9601 15.8599 15.8901C16.6899 15.0601 17.22 13.9901 17.39 12.7901C17.46 12.3601 17.1699 11.9801 16.7599 11.9301Z" fill="#171717"/>
<path d="M7.33993 12.0801C7.70993 12.0801 8.02992 11.8101 8.07992 11.4401C8.19992 10.5701 8.58993 9.79006 9.18993 9.19006C10.5699 7.81006 12.7099 7.67005 14.2599 8.74005H13.5099C13.0999 8.74005 12.7599 9.08005 12.7599 9.49005C12.7599 9.90005 13.0999 10.2401 13.5099 10.2401H16.1799C16.5899 10.2401 16.9299 9.90005 16.9299 9.49005V6.82007C16.9299 6.41007 16.5899 6.07007 16.1799 6.07007C15.7699 6.07007 15.4299 6.41007 15.4299 6.82007V7.76007C13.2799 6.02007 10.1299 6.13006 8.13995 8.12006C7.30995 8.95006 6.77992 10.02 6.60992 11.22C6.54992 11.63 6.83993 12.0101 7.24993 12.0701C7.26993 12.0801 7.30993 12.0801 7.33993 12.0801Z" fill="#171717"/>
</svg>
