<svg width="24" height="24" viewBox="0 0 24 24" fill="none" xmlns="http://www.w3.org/2000/svg">
<path opacity="0.4" d="M12 22C17.5228 22 22 17.5228 22 12C22 6.47715 17.5228 2 12 2C6.47715 2 2 6.47715 2 12C2 17.5228 6.47715 22 12 22Z" fill="#171717"/>
<path d="M10.74 16.2799C10.55 16.2799 10.36 16.2099 10.21 16.0599C9.91999 15.7699 9.91999 15.2899 10.21 14.9999L13.21 11.9999L10.21 8.99991C9.91999 8.70991 9.91999 8.22991 10.21 7.93991C10.5 7.64991 10.98 7.64991 11.27 7.93991L14.8 11.4699C15.09 11.7599 15.09 12.2399 14.8 12.5299L11.27 16.0599C11.12 16.2099 10.93 16.2799 10.74 16.2799Z" fill="#171717"/>
</svg>
