<svg width="24" height="24" viewBox="0 0 24 24" fill="none" xmlns="http://www.w3.org/2000/svg">
<path opacity="0.4" d="M12 22C17.5228 22 22 17.5228 22 12C22 6.47715 17.5228 2 12 2C6.47715 2 2 6.47715 2 12C2 17.5228 6.47715 22 12 22Z" fill="#171717"/>
<path d="M15.5 11.2499H10.31L12.03 9.52994C12.32 9.23994 12.32 8.75994 12.03 8.46994C11.74 8.17994 11.26 8.17994 10.97 8.46994L7.97 11.4699C7.68 11.7599 7.68 12.2399 7.97 12.5299L10.97 15.5299C11.12 15.6799 11.31 15.7499 11.5 15.7499C11.69 15.7499 11.88 15.6799 12.03 15.5299C12.32 15.2399 12.32 14.7599 12.03 14.4699L10.31 12.7499H15.5C15.91 12.7499 16.25 12.4099 16.25 11.9999C16.25 11.5899 15.91 11.2499 15.5 11.2499Z" fill="#171717"/>
</svg>
