<svg width="24" height="24" viewBox="0 0 24 24" fill="none" xmlns="http://www.w3.org/2000/svg">
<path opacity="0.4" d="M12 22C17.5228 22 22 17.5228 22 12C22 6.47715 17.5228 2 12 2C6.47715 2 2 6.47715 2 12C2 17.5228 6.47715 22 12 22Z" fill="#171717"/>
<path d="M15.53 14.0099C15.34 14.0099 15.15 13.9399 15 13.7899L12 10.7899L8.99997 13.7899C8.70997 14.0799 8.22997 14.0799 7.93997 13.7899C7.64997 13.4999 7.64997 13.0199 7.93997 12.7299L11.47 9.19992C11.76 8.90992 12.24 8.90992 12.53 9.19992L16.06 12.7299C16.35 13.0199 16.35 13.4999 16.06 13.7899C15.91 13.9399 15.72 14.0099 15.53 14.0099Z" fill="#171717"/>
</svg>
