<svg width="24" height="24" viewBox="0 0 24 24" fill="none" xmlns="http://www.w3.org/2000/svg">
<path opacity="0.4" d="M22 10.7599C22 10.2899 21.62 9.8999 21.14 9.8999H2.86C2.38 9.8999 2 10.2799 2 10.7599C2 16.6499 6.11 20.7599 12 20.7599C17.89 20.7599 22 16.6399 22 10.7599Z" fill="#171717"/>
<path d="M12.53 3.45992L15.38 6.29992C15.67 6.58992 15.67 7.06992 15.38 7.35992C15.09 7.64992 14.61 7.64992 14.32 7.35992L12.75 5.79992V15.3699C12.75 15.7799 12.41 16.1199 12 16.1199C11.59 16.1199 11.25 15.7799 11.25 15.3699V5.79992L9.69002 7.36992C9.40002 7.65992 8.92002 7.65992 8.63002 7.36992C8.48002 7.21992 8.40002 7.02992 8.40002 6.83992C8.40002 6.64992 8.47002 6.45992 8.62002 6.30992L11.47 3.46992C11.76 3.16992 12.24 3.16992 12.53 3.45992Z" fill="#171717"/>
</svg>
