<svg width="24" height="24" viewBox="0 0 24 24" fill="none" xmlns="http://www.w3.org/2000/svg">
<path opacity="0.4" d="M16.19 2H7.82C4.17 2 2 4.17 2 7.81V16.18C2 19.82 4.17 21.99 7.81 21.99H16.18C19.82 21.99 21.99 19.82 21.99 16.18V7.81C22 4.17 19.83 2 16.19 2Z" fill="#171717"/>
<path d="M13.92 8.48006H8.77L9.1 8.15006C9.39 7.86006 9.39 7.38006 9.1 7.09006C8.81 6.80006 8.33 6.80006 8.04 7.09006L6.47 8.66006C6.18 8.95006 6.18 9.43006 6.47 9.72006L8.04 11.2901C8.19 11.4401 8.38 11.5101 8.57 11.5101C8.76 11.5101 8.95 11.4401 9.1 11.2901C9.39 11.0001 9.39 10.5201 9.1 10.2301L8.84 9.97006H13.92C15.2 9.97006 16.25 11.0101 16.25 12.3001C16.25 13.5901 15.21 14.6301 13.92 14.6301H9C8.59 14.6301 8.25 14.9701 8.25 15.3801C8.25 15.7901 8.59 16.1301 9 16.1301H13.92C16.03 16.1301 17.75 14.4101 17.75 12.3001C17.75 10.1901 16.03 8.48006 13.92 8.48006Z" fill="#171717"/>
</svg>
