<svg width="24" height="24" viewBox="0 0 24 24" fill="none" xmlns="http://www.w3.org/2000/svg">
<path opacity="0.4" d="M12 22C17.5228 22 22 17.5228 22 12C22 6.47715 17.5228 2 12 2C6.47715 2 2 6.47715 2 12C2 17.5228 6.47715 22 12 22Z" fill="#171717"/>
<path d="M13.26 16.2799C13.07 16.2799 12.88 16.2099 12.73 16.0599L9.19998 12.5299C8.90998 12.2399 8.90998 11.7599 9.19998 11.4699L12.73 7.93991C13.02 7.64991 13.5 7.64991 13.79 7.93991C14.08 8.22991 14.08 8.70991 13.79 8.99991L10.79 11.9999L13.79 14.9999C14.08 15.2899 14.08 15.7699 13.79 16.0599C13.65 16.2099 13.46 16.2799 13.26 16.2799Z" fill="#171717"/>
</svg>
