<svg width="24" height="24" viewBox="0 0 24 24" fill="none" xmlns="http://www.w3.org/2000/svg">
<path opacity="0.4" d="M16.19 2H7.82001C4.17001 2 2 4.17 2 7.81V16.18C2 19.82 4.17 21.99 7.81 21.99H16.18C19.82 21.99 21.99 19.82 21.99 16.18V7.81C22 4.17 19.83 2 16.19 2Z" fill="#171717"/>
<path d="M12 6.50995C11.86 6.50995 11.71 6.52994 11.57 6.53994L11.85 6.21994C12.12 5.90994 12.09 5.42994 11.78 5.15994C11.47 4.88994 10.99 4.91994 10.72 5.22994L9.05 7.13994C9.04 7.14994 9.04 7.15995 9.03 7.16995C9.02 7.17994 9.00999 7.17994 9.00999 7.18994C8.98999 7.21994 8.98001 7.25995 8.96001 7.29995C8.94001 7.34995 8.90999 7.38995 8.89999 7.43994C8.88999 7.48994 8.89 7.52994 8.88 7.57994C8.88 7.62994 8.87 7.66994 8.87 7.71994C8.87 7.76994 8.89 7.80995 8.91 7.85995C8.92 7.90995 8.94001 7.94994 8.96001 7.98994C8.98001 8.02994 9.02 8.06994 9.05 8.10994C9.08 8.13994 9.09 8.17994 9.12 8.19994C9.13 8.20994 9.13999 8.20995 9.14999 8.21995C9.15999 8.22995 9.16 8.23994 9.17 8.23994L11.11 9.65995C11.24 9.75994 11.4 9.79995 11.55 9.79995C11.78 9.79995 12.01 9.68994 12.16 9.48994C12.4 9.15995 12.33 8.68994 12 8.43994L11.44 8.02994C11.62 8.00994 11.81 7.98994 12 7.98994C14.34 7.98994 16.25 9.89995 16.25 12.2399C16.25 14.5799 14.34 16.4899 12 16.4899C9.66 16.4899 7.75 14.5799 7.75 12.2399C7.75 11.3899 8.00001 10.5799 8.46001 9.87995C8.69001 9.53995 8.6 9.06994 8.25 8.83995C7.91 8.60995 7.44001 8.69995 7.21001 9.04995C6.58001 9.99995 6.24001 11.0999 6.24001 12.2399C6.24001 15.4099 8.82001 17.9899 11.99 17.9899C15.16 17.9899 17.74 15.4099 17.74 12.2399C17.74 9.06994 15.17 6.50995 12 6.50995Z" fill="#171717"/>
</svg>
