<svg width="24" height="24" viewBox="0 0 24 24" fill="none" xmlns="http://www.w3.org/2000/svg">
<path opacity="0.4" d="M16.19 2H7.82001C4.17001 2 2 4.17 2 7.81V16.18C2 19.82 4.17 21.99 7.81 21.99H16.18C19.82 21.99 21.99 19.82 21.99 16.18V7.81C22 4.17 19.83 2 16.19 2Z" fill="#171717"/>
<path d="M18 11.27C17.58 11.27 17.25 11.6 17.25 12.02C17.24 13.42 16.7 14.73 15.72 15.71C14.73 16.7 13.41 17.25 12.01 17.25C10.61 17.25 9.28999 16.7 8.29999 15.71C8.26999 15.68 8.25 15.65 8.22 15.62H9.04999C9.45999 15.62 9.79999 15.28 9.79999 14.87C9.79999 14.46 9.45999 14.12 9.04999 14.12H6.39999C5.98999 14.12 5.64999 14.46 5.64999 14.87V17.52C5.64999 17.93 5.98999 18.27 6.39999 18.27C6.80999 18.27 7.14999 17.93 7.14999 17.52V16.67C7.17999 16.7 7.20999 16.74 7.23999 16.78C8.50999 18.05 10.21 18.76 12.01 18.76C13.81 18.76 15.51 18.06 16.78 16.78C18.04 15.52 18.74 13.83 18.75 12.03C18.75 11.61 18.41 11.28 18 11.27Z" fill="#171717"/>
<path d="M6.00001 12.65C6.41001 12.65 6.74001 12.32 6.75001 11.91C6.77001 10.54 7.32001 9.25 8.28001 8.28C9.27001 7.29 10.59 6.74 11.99 6.74C13.39 6.74 14.71 7.29 15.7 8.28C15.73 8.31 15.75 8.34 15.78 8.37H14.95C14.54 8.37 14.2 8.71 14.2 9.12C14.2 9.53 14.54 9.87 14.95 9.87H17.6C18.01 9.87 18.35 9.53 18.35 9.12V6.48C18.35 6.07 18.01 5.73 17.6 5.73C17.19 5.73 16.85 6.07 16.85 6.48V7.34C16.82 7.31 16.79 7.27 16.76 7.23C15.49 5.96 13.79 5.25 11.99 5.25C10.19 5.25 8.49001 5.95 7.22001 7.23C5.97001 8.47 5.27001 10.13 5.25001 11.89C5.24001 12.3 5.57 12.64 5.99 12.65C6 12.65 6.00001 12.65 6.00001 12.65Z" fill="#171717"/>
</svg>
