<svg width="24" height="24" viewBox="0 0 24 24" fill="none" xmlns="http://www.w3.org/2000/svg">
<path opacity="0.4" d="M20.5 22.7999H3.50001C3.10001 22.7999 2.70001 22.5 2.70001 22C2.70001 21.5 3.00001 21.2 3.50001 21.2H20.5C20.9 21.2 21.3 21.5 21.3 22C21.3 22.5 20.9 22.7999 20.5 22.7999Z" fill="#171717"/>
<path d="M19 18.1999C18.8 18.1999 18.6 18.0999 18.5 17.9999L4.50002 3.9999C4.20002 3.6999 4.20002 3.2999 4.50002 2.9999C4.80002 2.6999 5.30002 2.6999 5.60002 2.9999L19.6 16.9999C19.9 17.2999 19.9 17.7999 19.6 18.0999C19.4 18.1999 19.2 18.1999 19 18.1999Z" fill="#171717"/>
<path d="M5.00001 14.5C4.60001 14.5 4.20001 14.2 4.20001 13.7V3.49995C4.20001 3.09995 4.50001 2.69995 5.00001 2.69995H15.3C15.7 2.69995 16.1 2.99995 16.1 3.49995C16.1 3.99995 15.8 4.29995 15.3 4.29995H5.80001V13.8C5.80001 14.2 5.40001 14.5 5.00001 14.5Z" fill="#171717"/>
</svg>
