<svg width="24" height="24" viewBox="0 0 24 24" fill="none" xmlns="http://www.w3.org/2000/svg">
<path opacity="0.4" d="M16.19 2H7.81C4.17 2 2 4.17 2 7.81V16.18C2 19.83 4.17 22 7.81 22H16.18C19.82 22 21.99 19.83 21.99 16.19V7.81C22 4.17 19.83 2 16.19 2Z" fill="#171717"/>
<path d="M12 14.9101C11.81 14.9101 11.62 14.8401 11.47 14.6901L7.94 11.1601C7.65 10.8701 7.65 10.3901 7.94 10.1001C8.23 9.81007 8.71 9.81007 9 10.1001L12 13.1001L15 10.1001C15.29 9.81007 15.77 9.81007 16.06 10.1001C16.35 10.3901 16.35 10.8701 16.06 11.1601L12.53 14.6901C12.38 14.8401 12.19 14.9101 12 14.9101Z" fill="#171717"/>
</svg>
