<svg width="24" height="24" viewBox="0 0 24 24" fill="none" xmlns="http://www.w3.org/2000/svg">
<g clip-path="url(#clip0_211_97237)">
<path d="M15.536 8.46411L6 18.0001" stroke="black" stroke-width="1.5" stroke-linecap="round" stroke-linejoin="round"/>
<path d="M6 14V18H10" stroke="black" stroke-width="1.5" stroke-linecap="round" stroke-linejoin="round"/>
<path d="M15.5849 8.41384C15.7694 8.60486 15.99 8.75722 16.2341 8.86204C16.4781 8.96686 16.7405 9.02203 17.0061 9.02434C17.2716 9.02665 17.535 8.97604 17.7808 8.87548C18.0266 8.77492 18.2499 8.62641 18.4377 8.43863C18.6254 8.25084 18.7739 8.02754 18.8745 7.78175C18.9751 7.53595 19.0257 7.27259 19.0234 7.00704C19.0211 6.74148 18.9659 6.47904 18.8611 6.23503C18.7562 5.99102 18.6039 5.77033 18.4129 5.58584C18.0357 5.22152 17.5305 5.01993 17.0061 5.02449C16.4817 5.02905 15.98 5.23938 15.6092 5.6102C15.2384 5.98102 15.0281 6.48264 15.0235 7.00704C15.019 7.53143 15.2205 8.03663 15.5849 8.41384Z" stroke="black" stroke-width="1.5" stroke-linecap="round" stroke-linejoin="round"/>
</g>
<defs>
<clipPath id="clip0_211_97237">
<rect width="24" height="24" fill="white"/>
</clipPath>
</defs>
</svg>
