<svg width="24" height="24" viewBox="0 0 24 24" fill="none" xmlns="http://www.w3.org/2000/svg">
<g clip-path="url(#clip0_211_97251)">
<path d="M8.46484 8.46387L18.0008 17.9999" stroke="black" stroke-width="1.5" stroke-linecap="round" stroke-linejoin="round"/>
<path d="M14 18H18V14" stroke="black" stroke-width="1.5" stroke-linecap="round" stroke-linejoin="round"/>
<path d="M8.41286 8.41416C8.60388 8.22967 8.75625 8.00898 8.86106 7.76497C8.96588 7.52096 9.02105 7.25852 9.02336 6.99296C9.02567 6.72741 8.97507 6.46405 8.8745 6.21825C8.77394 5.97246 8.62544 5.74916 8.43765 5.56137C8.24987 5.37359 8.02656 5.22508 7.78077 5.12452C7.53498 5.02396 7.27162 4.97335 7.00606 4.97566C6.7405 4.97797 6.47806 5.03314 6.23405 5.13796C5.99004 5.24278 5.76935 5.39514 5.58486 5.58616C5.22054 5.96337 5.01896 6.46857 5.02351 6.99296C5.02807 7.51736 5.23841 8.01898 5.60922 8.3898C5.98004 8.76062 6.48166 8.97095 7.00606 8.97551C7.53045 8.98007 8.03566 8.77848 8.41286 8.41416Z" stroke="black" stroke-width="1.5" stroke-linecap="round" stroke-linejoin="round"/>
</g>
<defs>
<clipPath id="clip0_211_97251">
<rect width="24" height="24" fill="white"/>
</clipPath>
</defs>
</svg>
