<svg width="24" height="24" viewBox="0 0 24 24" fill="none" xmlns="http://www.w3.org/2000/svg">
<g clip-path="url(#clip0_211_106214)">
<path d="M15 16.572V18.992C14.9995 19.5246 14.7876 20.0352 14.4109 20.4116C14.0343 20.7881 13.5236 20.9997 12.991 21H5.01C4.47709 21 3.96599 20.7884 3.58907 20.4116C3.21215 20.0349 3.00027 19.5239 3 18.991V11.01C3 10.4771 3.21163 9.96599 3.58836 9.58907C3.96509 9.21215 4.47609 9.00027 5.009 9H7.963" stroke="black" stroke-width="1.5" stroke-linecap="round" stroke-linejoin="round"/>
<path d="M9.167 4.51195C9.30738 3.99017 9.64903 3.5454 10.117 3.27525C10.5849 3.00509 11.1409 2.93162 11.663 3.07095L19.489 5.16795C20.0108 5.30833 20.4555 5.64999 20.7257 6.11793C20.9959 6.58588 21.0693 7.14189 20.93 7.66395L18.833 15.49C18.6926 16.0117 18.351 16.4565 17.883 16.7267C17.4151 16.9968 16.8591 17.0703 16.337 16.931L8.51 14.834C7.98822 14.6936 7.54345 14.3519 7.27329 13.884C7.00314 13.416 6.92966 12.86 7.069 12.338L9.167 4.51195Z" stroke="black" stroke-width="1.5" stroke-linecap="round" stroke-linejoin="round"/>
</g>
<defs>
<clipPath id="clip0_211_106214">
<rect width="24" height="24" fill="white"/>
</clipPath>
</defs>
</svg>
