<svg width="24" height="24" viewBox="0 0 24 24" fill="none" xmlns="http://www.w3.org/2000/svg">
<g clip-path="url(#clip0_211_103331)">
<path d="M18.421 11.5598C18.3152 11.3255 18.196 11.0974 18.064 10.8768L13.174 3.61678C12.754 2.99178 11.887 2.81378 11.238 3.21978C11.075 3.32201 10.9354 3.45725 10.828 3.61678L5.93495 10.8768C4.23995 13.7148 4.89995 17.3178 7.50195 19.4228C8.78148 20.4533 10.3771 21.0113 12.02 21.0028" stroke="black" stroke-width="1.5" stroke-linecap="round" stroke-linejoin="round"/>
<path d="M17 19C17 19.5304 17.2107 20.0391 17.5858 20.4142C17.9609 20.7893 18.4696 21 19 21C19.5304 21 20.0391 20.7893 20.4142 20.4142C20.7893 20.0391 21 19.5304 21 19C21 18.4696 20.7893 17.9609 20.4142 17.5858C20.0391 17.2107 19.5304 17 19 17C18.4696 17 17.9609 17.2107 17.5858 17.5858C17.2107 17.9609 17 18.4696 17 19Z" stroke="black" stroke-width="1.5" stroke-linecap="round" stroke-linejoin="round"/>
<path d="M19 15.5V17" stroke="black" stroke-width="1.5" stroke-linecap="round" stroke-linejoin="round"/>
<path d="M19 21V22.5" stroke="black" stroke-width="1.5" stroke-linecap="round" stroke-linejoin="round"/>
<path d="M22.0334 17.25L20.7344 18" stroke="black" stroke-width="1.5" stroke-linecap="round" stroke-linejoin="round"/>
<path d="M17.2688 20L15.9688 20.75" stroke="black" stroke-width="1.5" stroke-linecap="round" stroke-linejoin="round"/>
<path d="M15.9688 17.25L17.2688 18" stroke="black" stroke-width="1.5" stroke-linecap="round" stroke-linejoin="round"/>
<path d="M20.7344 20L22.0344 20.75" stroke="black" stroke-width="1.5" stroke-linecap="round" stroke-linejoin="round"/>
</g>
<defs>
<clipPath id="clip0_211_103331">
<rect width="24" height="24" fill="white"/>
</clipPath>
</defs>
</svg>
