<svg width="24" height="24" viewBox="0 0 24 24" fill="none" xmlns="http://www.w3.org/2000/svg">
<g clip-path="url(#clip0_211_106010)">
<path d="M9.99986 12.0564C10.1373 12.3528 10.3487 12.6087 10.6139 12.7994C11.2959 13.2584 12.1229 13.1734 12.7779 12.7794M13.8809 9.85944C13.7512 9.41222 13.5283 8.99752 13.2269 8.64264C12.9254 8.28775 12.5522 8.00072 12.1319 7.80044C11.968 7.72276 11.7985 7.65758 11.6249 7.60544M8.23986 8.23944C7.65562 8.66191 7.19141 9.22917 6.89286 9.88544C5.79786 12.3174 7.18286 15.1334 9.60286 16.1314C11.5579 16.9374 13.6999 16.4814 15.2529 15.2474M16.9979 12.9794L17.0409 12.8764C18.4009 9.53344 16.4839 5.74244 13.1449 4.46644C11.5519 3.85644 9.87486 3.86744 8.35486 4.35344M5.77586 5.76144C4.76215 6.5905 3.98073 7.66824 3.50786 8.88944C1.87786 13.1424 4.33086 17.9134 8.58986 19.4654C11.8009 20.6354 15.2659 19.8074 17.7139 17.7274M19.5829 15.5784C20.4345 14.2195 20.9225 12.6644 20.9999 11.0624" stroke="black" stroke-width="1.5" stroke-linecap="round" stroke-linejoin="round"/>
<path d="M3 3L21 21" stroke="black" stroke-width="1.5" stroke-linecap="round" stroke-linejoin="round"/>
</g>
<defs>
<clipPath id="clip0_211_106010">
<rect width="24" height="24" fill="white"/>
</clipPath>
</defs>
</svg>
