<svg width="24" height="24" viewBox="0 0 24 24" fill="none" xmlns="http://www.w3.org/2000/svg">
<g clip-path="url(#clip0_211_102181)">
<path d="M16.719 12.7039C17.6258 11.5492 18.0778 10.1021 17.9893 8.63662C17.9009 7.1711 17.2782 5.78888 16.2391 4.75164C15.2 3.7144 13.8167 3.09415 12.351 3.00832C10.8853 2.92248 9.43904 3.37703 8.28598 4.28589M6.53098 6.52589C6.02759 7.63683 5.87471 8.87479 6.09274 10.0748C6.31076 11.2748 6.88932 12.3799 7.75132 13.2428C8.61332 14.1057 9.71782 14.6853 10.9176 14.9046C12.1174 15.1238 13.3555 14.9722 14.467 14.4699" stroke="black" stroke-width="1.5" stroke-linecap="round" stroke-linejoin="round"/>
<path d="M12 15.001L15.4 20.891L16.998 17.658L17.705 17.704M18.813 14.802L17.196 12.002" stroke="black" stroke-width="1.5" stroke-linecap="round" stroke-linejoin="round"/>
<path d="M6.80234 12L3.40234 17.89L7.00034 17.657L8.59834 20.889L11.9983 15" stroke="black" stroke-width="1.5" stroke-linecap="round" stroke-linejoin="round"/>
<path d="M3 3L21 21" stroke="black" stroke-width="1.5" stroke-linecap="round" stroke-linejoin="round"/>
</g>
<defs>
<clipPath id="clip0_211_102181">
<rect width="24" height="24" fill="white"/>
</clipPath>
</defs>
</svg>
