<svg width="24" height="24" viewBox="0 0 24 24" fill="none" xmlns="http://www.w3.org/2000/svg">
<g clip-path="url(#clip0_211_102429)">
<path d="M17.7071 3.70685L20.2931 6.29285C20.4806 6.48038 20.5859 6.73468 20.5859 6.99985C20.5859 7.26501 20.4806 7.51932 20.2931 7.70685L19.7071 8.29285C19.5196 8.48038 19.4143 8.73468 19.4143 8.99985C19.4143 9.26501 19.5196 9.51932 19.7071 9.70685L20.2931 10.2928C20.4806 10.4804 20.5859 10.7347 20.5859 10.9998C20.5859 11.265 20.4806 11.5193 20.2931 11.7068L11.7071 20.2928C11.5196 20.4803 11.2653 20.5856 11.0001 20.5856C10.7349 20.5856 10.4806 20.4803 10.2931 20.2928L9.70709 19.7069C9.51957 19.5194 9.26526 19.4141 9.00009 19.4141C8.73493 19.4141 8.48062 19.5194 8.29309 19.7069L7.70709 20.2928C7.51957 20.4803 7.26526 20.5856 7.00009 20.5856C6.73493 20.5856 6.48062 20.4803 6.29309 20.2928L3.70709 17.7069C3.51962 17.5193 3.41431 17.265 3.41431 16.9998C3.41431 16.7347 3.51962 16.4804 3.70709 16.2928L4.29309 15.7068C4.48056 15.5193 4.58588 15.265 4.58588 14.9998C4.58588 14.7347 4.48056 14.4804 4.29309 14.2928L3.70709 13.7068C3.51962 13.5193 3.41431 13.265 3.41431 12.9998C3.41431 12.7347 3.51962 12.4804 3.70709 12.2928L12.2931 3.70685C12.4806 3.51938 12.7349 3.41406 13.0001 3.41406C13.2653 3.41406 13.5196 3.51938 13.7071 3.70685L14.2931 4.29285C14.4806 4.48032 14.7349 4.58564 15.0001 4.58564C15.2653 4.58564 15.5196 4.48032 15.7071 4.29285L16.2931 3.70685C16.4806 3.51938 16.7349 3.41406 17.0001 3.41406C17.2653 3.41406 17.5196 3.51938 17.7071 3.70685Z" stroke="black" stroke-width="1.5" stroke-linecap="round" stroke-linejoin="round"/>
<path d="M8 16.0008L11.2 12.8008" stroke="black" stroke-width="1.5" stroke-linecap="round" stroke-linejoin="round"/>
<path d="M12.8008 11.2L16.0008 8" stroke="black" stroke-width="1.5" stroke-linecap="round" stroke-linejoin="round"/>
<path d="M14 8L16 10" stroke="black" stroke-width="1.5" stroke-linecap="round" stroke-linejoin="round"/>
<path d="M8 14L10 16" stroke="black" stroke-width="1.5" stroke-linecap="round" stroke-linejoin="round"/>
<path d="M11 12C11 12.2652 11.1054 12.5196 11.2929 12.7071C11.4804 12.8946 11.7348 13 12 13C12.2652 13 12.5196 12.8946 12.7071 12.7071C12.8946 12.5196 13 12.2652 13 12C13 11.7348 12.8946 11.4804 12.7071 11.2929C12.5196 11.1054 12.2652 11 12 11C11.7348 11 11.4804 11.1054 11.2929 11.2929C11.1054 11.4804 11 11.7348 11 12Z" stroke="black" stroke-width="1.5" stroke-linecap="round" stroke-linejoin="round"/>
</g>
<defs>
<clipPath id="clip0_211_102429">
<rect width="24" height="24" fill="white"/>
</clipPath>
</defs>
</svg>
