<svg width="24" height="24" viewBox="0 0 24 24" fill="none" xmlns="http://www.w3.org/2000/svg">
<g clip-path="url(#clip0_211_104900)">
<path d="M9.74995 5.761L13 3L12 8L21 3L16 12H21L18.533 14.536M16.55 16.576L14.109 19.086C13.4919 19.7043 12.7566 20.192 11.9468 20.5197C11.1371 20.8475 10.2696 21.0087 9.39617 20.9937C8.52275 20.9787 7.66131 20.7877 6.86333 20.4323C6.06534 20.0769 5.34719 19.5643 4.75177 18.9251C4.15635 18.2859 3.69588 17.5332 3.39787 16.7121C3.09986 15.8909 2.97042 15.0181 3.0173 14.1458C3.06418 13.2735 3.2864 12.4196 3.67069 11.6352C4.05498 10.8507 4.59346 10.1517 5.25395 9.58L7.57595 7.608" stroke="black" stroke-width="1.5" stroke-linecap="round" stroke-linejoin="round"/>
<path d="M7 14.5C7 15.163 7.26339 15.7989 7.73223 16.2678C8.20107 16.7366 8.83696 17 9.5 17C10.163 17 10.7989 16.7366 11.2678 16.2678C11.7366 15.7989 12 15.163 12 14.5C12 13.837 11.7366 13.2011 11.2678 12.7322C10.7989 12.2634 10.163 12 9.5 12C8.83696 12 8.20107 12.2634 7.73223 12.7322C7.26339 13.2011 7 13.837 7 14.5Z" stroke="black" stroke-width="1.5" stroke-linecap="round" stroke-linejoin="round"/>
<path d="M3 3L21 21" stroke="black" stroke-width="1.5" stroke-linecap="round" stroke-linejoin="round"/>
</g>
<defs>
<clipPath id="clip0_211_104900">
<rect width="24" height="24" fill="white"/>
</clipPath>
</defs>
</svg>
