<svg width="24" height="24" viewBox="0 0 24 24" fill="none" xmlns="http://www.w3.org/2000/svg">
<g clip-path="url(#clip0_211_102108)">
<path d="M8.703 4.68559L11.029 3.30059C11.3348 3.13036 11.679 3.04102 12.029 3.04102C12.379 3.04102 12.7232 3.13036 13.029 3.30059L19.029 6.87359H19C19.3062 7.05039 19.5601 7.30522 19.7358 7.61211C19.9115 7.91901 20.0026 8.26699 20 8.62059V15.1566C20 15.4046 19.954 15.6466 19.868 15.8716M17.712 17.7086L12.971 20.7376C12.674 20.9026 12.3398 20.9891 12 20.9891C11.6602 20.9891 11.326 20.9026 11.029 20.7376L5.029 16.9046C4.71736 16.7315 4.45763 16.4783 4.27671 16.1711C4.0958 15.864 4.00026 15.5141 4 15.1576V8.62059C4.00008 8.26395 4.09553 7.91381 4.27646 7.60647C4.45739 7.29912 4.71721 7.04574 5.029 6.87259L6.186 6.18359" stroke="black" stroke-width="1.5" stroke-linecap="round" stroke-linejoin="round"/>
<path d="M11.593 7.59077C11.888 7.45777 12.23 7.47077 12.514 7.63077L15.514 9.42077H15.5C15.812 9.60177 16.003 9.93677 16 10.2978V11.9998M14.848 14.8598L12.485 16.3738C12.3366 16.4561 12.1697 16.4993 12 16.4993C11.8303 16.4993 11.6634 16.4561 11.515 16.3738L8.515 14.4518C8.35872 14.3651 8.22851 14.2381 8.13794 14.0841C8.04737 13.93 7.99974 13.7545 8 13.5758V10.2978C8 9.93377 8.197 9.59777 8.514 9.42077L9.082 9.08177" stroke="black" stroke-width="1.5" stroke-linecap="round" stroke-linejoin="round"/>
<path d="M3 3L21 21" stroke="black" stroke-width="1.5" stroke-linecap="round" stroke-linejoin="round"/>
</g>
<defs>
<clipPath id="clip0_211_102108">
<rect width="24" height="24" fill="white"/>
</clipPath>
</defs>
</svg>
