<svg width="24" height="24" viewBox="0 0 24 24" fill="none" xmlns="http://www.w3.org/2000/svg">
<g clip-path="url(#clip0_211_103384)">
<path d="M18.064 10.8768L13.174 3.61678C12.754 2.99178 11.887 2.81378 11.238 3.21978C11.075 3.32201 10.9354 3.45725 10.828 3.61678L5.93495 10.8768C4.23995 13.7148 4.89995 17.3178 7.50195 19.4228C8.68774 20.3785 10.1484 20.9294 11.67 20.9948" stroke="black" stroke-width="1.5" stroke-linecap="round" stroke-linejoin="round"/>
<path d="M15 18C15 18.7956 15.3161 19.5587 15.8787 20.1213C16.4413 20.6839 17.2044 21 18 21C18.7956 21 19.5587 20.6839 20.1213 20.1213C20.6839 19.5587 21 18.7956 21 18C21 17.2044 20.6839 16.4413 20.1213 15.8787C19.5587 15.3161 18.7956 15 18 15C17.2044 15 16.4413 15.3161 15.8787 15.8787C15.3161 16.4413 15 17.2044 15 18Z" stroke="black" stroke-width="1.5" stroke-linecap="round" stroke-linejoin="round"/>
<path d="M20.1992 20.1992L21.9992 21.9992" stroke="black" stroke-width="1.5" stroke-linecap="round" stroke-linejoin="round"/>
</g>
<defs>
<clipPath id="clip0_211_103384">
<rect width="24" height="24" fill="white"/>
</clipPath>
</defs>
</svg>
