<svg width="24" height="24" viewBox="0 0 24 24" fill="none" xmlns="http://www.w3.org/2000/svg">
<g clip-path="url(#clip0_211_106007)">
<path d="M10 12.0569C10.1374 12.3532 10.3489 12.6091 10.614 12.7999C11.674 13.5129 13.086 12.9119 13.657 11.8809C14.496 10.3679 13.635 8.51291 12.132 7.80091C10.132 6.85091 7.761 7.95491 6.892 9.88691C5.797 12.3189 7.182 15.1349 9.602 16.1329C12.533 17.3409 15.885 15.7149 17.04 12.8779C18.4 9.53491 16.483 5.74391 13.144 4.46791C9.289 2.99391 4.944 5.14791 3.508 8.88991C1.878 13.1429 4.331 17.9139 8.59 19.4659C13.368 21.2059 18.708 18.5249 20.423 13.8759C20.759 12.9735 20.9536 12.0247 21 11.0629" stroke="black" stroke-width="1.5" stroke-linecap="round" stroke-linejoin="round"/>
</g>
<defs>
<clipPath id="clip0_211_106007">
<rect width="24" height="24" fill="white"/>
</clipPath>
</defs>
</svg>
