<svg width="24" height="24" viewBox="0 0 24 24" fill="none" xmlns="http://www.w3.org/2000/svg">
<g clip-path="url(#clip0_211_105084)">
<path d="M5.63599 5.63606C6.47173 4.80032 7.46389 4.13738 8.55582 3.68509C9.64776 3.23279 10.8181 3 12 3C13.1819 3 14.3522 3.23279 15.4442 3.68509C16.5361 4.13738 17.5283 4.80032 18.364 5.63605C19.1997 6.47179 19.8627 7.46395 20.315 8.55588C20.7673 9.64782 21 10.8182 21 12.0001C21 13.182 20.7673 14.3523 20.315 15.4442C19.8627 16.5362 19.1997 17.5283 18.364 18.3641C16.6762 20.0519 14.387 21.0001 12 21.0001C9.61303 21.0001 7.32383 20.0519 5.63599 18.3641C3.94816 16.6762 2.99994 14.387 2.99994 12.0001C2.99994 9.61309 3.94816 7.32389 5.63599 5.63606Z" stroke="black" stroke-width="1.5" stroke-linecap="round" stroke-linejoin="round"/>
<path d="M15.236 11.0007L20.5 15.0007H14L12 21.0007L10 15.0007H3.5L8.776 11.0007L6.72 4.7207L12 8.5007L17.28 4.7207L15.236 11.0007Z" stroke="black" stroke-width="1.5" stroke-linecap="round" stroke-linejoin="round"/>
</g>
<defs>
<clipPath id="clip0_211_105084">
<rect width="24" height="24" fill="white"/>
</clipPath>
</defs>
</svg>
