<svg width="24" height="24" viewBox="0 0 24 24" fill="none" xmlns="http://www.w3.org/2000/svg">
<g clip-path="url(#clip0_211_104084)">
<path d="M9.22499 18.412C9.0767 18.5942 8.89 18.7413 8.67824 18.843C8.46648 18.9446 8.23488 18.9982 7.99999 19C7.53199 19 7.08599 18.786 6.77499 18.412L2.41399 13.164C2.14633 12.8351 2.00018 12.424 2.00018 12C2.00018 11.576 2.14633 11.1649 2.41399 10.836L6.77499 5.588C6.92329 5.40583 7.10998 5.25867 7.32175 5.15703C7.53351 5.05538 7.76511 5.00176 7.99999 5C8.46799 5 8.91399 5.214 9.22499 5.588L13.586 10.836C13.8537 11.1649 13.9998 11.576 13.9998 12C13.9998 12.424 13.8537 12.8351 13.586 13.164L9.22499 18.412Z" stroke="black" stroke-width="1.5" stroke-linecap="round" stroke-linejoin="round"/>
<path d="M17 5L21.586 10.836C21.8537 11.1649 21.9998 11.576 21.9998 12C21.9998 12.424 21.8537 12.8351 21.586 13.164L17 19" stroke="black" stroke-width="1.5" stroke-linecap="round" stroke-linejoin="round"/>
<path d="M13 5L17.586 10.836C17.8537 11.1649 17.9998 11.576 17.9998 12C17.9998 12.424 17.8537 12.8351 17.586 13.164L13 19" stroke="black" stroke-width="1.5" stroke-linecap="round" stroke-linejoin="round"/>
</g>
<defs>
<clipPath id="clip0_211_104084">
<rect width="24" height="24" fill="white"/>
</clipPath>
</defs>
</svg>
