<svg width="24" height="24" viewBox="0 0 24 24" fill="none" xmlns="http://www.w3.org/2000/svg">
<g clip-path="url(#clip0_211_106032)">
<path d="M3 11H11M15 11H21" stroke="black" stroke-width="1.5" stroke-linecap="round" stroke-linejoin="round"/>
<path d="M5 11V7C5 6.429 5.16 5.895 5.437 5.44M8 4H16C16.7956 4 17.5587 4.31607 18.1213 4.87868C18.6839 5.44129 19 6.20435 19 7V11" stroke="black" stroke-width="1.5" stroke-linecap="round" stroke-linejoin="round"/>
<path d="M4 17C4 17.394 4.0776 17.7841 4.22836 18.1481C4.37913 18.512 4.6001 18.8427 4.87868 19.1213C5.15726 19.3999 5.48797 19.6209 5.85195 19.7716C6.21593 19.9224 6.60603 20 7 20C7.39397 20 7.78407 19.9224 8.14805 19.7716C8.51203 19.6209 8.84274 19.3999 9.12132 19.1213C9.3999 18.8427 9.62087 18.512 9.77164 18.1481C9.9224 17.7841 10 17.394 10 17C10 16.606 9.9224 16.2159 9.77164 15.8519C9.62087 15.488 9.3999 15.1573 9.12132 14.8787C8.84274 14.6001 8.51203 14.3791 8.14805 14.2284C7.78407 14.0776 7.39397 14 7 14C6.60603 14 6.21593 14.0776 5.85195 14.2284C5.48797 14.3791 5.15726 14.6001 4.87868 14.8787C4.6001 15.1573 4.37913 15.488 4.22836 15.8519C4.0776 16.2159 4 16.606 4 17Z" stroke="black" stroke-width="1.5" stroke-linecap="round" stroke-linejoin="round"/>
<path d="M14.8808 14.8761C14.6019 15.1544 14.3806 15.485 14.2295 15.8488C14.0783 16.2127 14.0004 16.6028 14 16.9968C13.9996 17.3908 14.0769 17.781 14.2273 18.1451C14.3777 18.5093 14.5984 18.8402 14.8768 19.1191C15.1551 19.398 15.4856 19.6193 15.8495 19.7704C16.2134 19.9215 16.6034 19.9995 16.9974 19.9999C17.3914 20.0002 17.7816 19.923 18.1458 19.7726C18.5099 19.6221 18.8409 19.4014 19.1198 19.1231M19.7098 15.7091C19.4119 15.0857 18.9088 14.5836 18.2848 14.2871" stroke="black" stroke-width="1.5" stroke-linecap="round" stroke-linejoin="round"/>
<path d="M10 17H14" stroke="black" stroke-width="1.5" stroke-linecap="round" stroke-linejoin="round"/>
<path d="M3 3L21 21" stroke="black" stroke-width="1.5" stroke-linecap="round" stroke-linejoin="round"/>
</g>
<defs>
<clipPath id="clip0_211_106032">
<rect width="24" height="24" fill="white"/>
</clipPath>
</defs>
</svg>
