<svg width="24" height="24" viewBox="0 0 24 24" fill="none" xmlns="http://www.w3.org/2000/svg">
<g clip-path="url(#clip0_211_103379)">
<path d="M18.064 10.8768L13.174 3.61678C12.754 2.99178 11.887 2.81378 11.238 3.21978C11.075 3.32201 10.9354 3.45725 10.828 3.61678L5.93495 10.8768C4.23995 13.7148 4.89995 17.3178 7.50195 19.4228C9.70495 21.2048 12.761 21.4788 15.225 20.2428" stroke="black" stroke-width="1.5" stroke-linecap="round" stroke-linejoin="round"/>
<path d="M19 22V22.01" stroke="black" stroke-width="1.5" stroke-linecap="round" stroke-linejoin="round"/>
<path d="M19 18.9998C19.4483 18.9983 19.8832 18.8466 20.235 18.5687C20.5868 18.2909 20.8352 17.903 20.9406 17.4673C21.0459 17.0315 21.0019 16.5731 20.8158 16.1652C20.6297 15.7574 20.3122 15.4238 19.914 15.2178C19.5162 15.014 19.0611 14.9508 18.6228 15.0385C18.1845 15.1262 17.7888 15.3596 17.5 15.7008" stroke="black" stroke-width="1.5" stroke-linecap="round" stroke-linejoin="round"/>
</g>
<defs>
<clipPath id="clip0_211_103379">
<rect width="24" height="24" fill="white"/>
</clipPath>
</defs>
</svg>
