<svg width="24" height="24" viewBox="0 0 24 24" fill="none" xmlns="http://www.w3.org/2000/svg">
<g clip-path="url(#clip0_211_106369)">
<path d="M4.27 4.2793C3.502 5.5493 3 7.6383 3 9.9993C3 13.8653 4.343 16.9993 6 16.9993C7.657 16.9993 9 13.8653 9 9.9993C9 9.6593 8.99 9.3273 8.97 8.9993" stroke="black" stroke-width="1.5" stroke-linecap="round" stroke-linejoin="round"/>
<path d="M21 10C21 6.134 19.657 3 18 3" stroke="black" stroke-width="1.5" stroke-linecap="round" stroke-linejoin="round"/>
<path d="M7 3H18" stroke="black" stroke-width="1.5" stroke-linecap="round" stroke-linejoin="round"/>
<path d="M21 10V17M19.487 19.496L18 19L15 21L12 18L9 20V10" stroke="black" stroke-width="1.5" stroke-linecap="round" stroke-linejoin="round"/>
<path d="M6 10H6.01" stroke="black" stroke-width="1.5" stroke-linecap="round" stroke-linejoin="round"/>
<path d="M3 3L21 21" stroke="black" stroke-width="1.5" stroke-linecap="round" stroke-linejoin="round"/>
</g>
<defs>
<clipPath id="clip0_211_106369">
<rect width="24" height="24" fill="white"/>
</clipPath>
</defs>
</svg>
