<svg width="24" height="24" viewBox="0 0 24 24" fill="none" xmlns="http://www.w3.org/2000/svg">
<g clip-path="url(#clip0_211_104437)">
<path d="M9 11C9 11.7956 9.31607 12.5587 9.87868 13.1213C10.4413 13.6839 11.2044 14 12 14C12.7956 14 13.5587 13.6839 14.1213 13.1213C14.6839 12.5587 15 11.7956 15 11C15 10.2044 14.6839 9.44129 14.1213 8.87868C13.5587 8.31607 12.7956 8 12 8C11.2044 8 10.4413 8.31607 9.87868 8.87868C9.31607 9.44129 9 10.2044 9 11Z" stroke="black" stroke-width="1.5" stroke-linecap="round" stroke-linejoin="round"/>
<path d="M12.7564 21.3371C12.3917 21.4862 11.9911 21.5242 11.6049 21.4465C11.2187 21.3687 10.864 21.1786 10.5854 20.9001L6.34141 16.6571C5.28587 15.6009 4.547 14.2704 4.20839 12.816C3.86979 11.3617 3.94498 9.84165 4.42544 8.42784C4.90591 7.01403 5.77247 5.76291 6.92709 4.81604C8.0817 3.86917 9.47828 3.26435 10.9588 3.07C12.4393 2.87566 13.9447 3.09956 15.3045 3.71636C16.6644 4.33316 17.8245 5.31824 18.6536 6.56015C19.4827 7.80206 19.9476 9.25122 19.9958 10.7437C20.044 12.2361 19.6736 13.7122 18.9264 15.0051" stroke="black" stroke-width="1.5" stroke-linecap="round" stroke-linejoin="round"/>
<path d="M16 19H22" stroke="black" stroke-width="1.5" stroke-linecap="round" stroke-linejoin="round"/>
</g>
<defs>
<clipPath id="clip0_211_104437">
<rect width="24" height="24" fill="white"/>
</clipPath>
</defs>
</svg>
