<svg width="24" height="24" viewBox="0 0 24 24" fill="none" xmlns="http://www.w3.org/2000/svg">
<g clip-path="url(#clip0_211_103864)">
<path d="M13.0013 18.9997L12.0013 19.9997L4.50128 12.5717C4.00658 12.0903 3.61692 11.5117 3.35683 10.8723C3.09673 10.2329 2.97184 9.54664 2.99002 8.85662C3.00819 8.1666 3.16904 7.48782 3.46244 6.86303C3.75583 6.23823 4.17541 5.68094 4.69476 5.22627C5.21411 4.77159 5.82198 4.42938 6.48009 4.22117C7.1382 4.01296 7.83228 3.94327 8.51865 4.01649C9.20501 4.08971 9.86878 4.30425 10.4682 4.64659C11.0675 4.98894 11.5895 5.45169 12.0013 6.00569C12.7969 4.94482 13.9814 4.24348 15.2942 4.05594C16.6069 3.8684 17.9404 4.21004 19.0013 5.00569C20.0621 5.80134 20.7635 6.98583 20.951 8.29858C21.1386 9.61134 20.7969 10.9448 20.0013 12.0057" stroke="black" stroke-width="1.5" stroke-linecap="round" stroke-linejoin="round"/>
<path d="M14 16H20" stroke="black" stroke-width="1.5" stroke-linecap="round" stroke-linejoin="round"/>
</g>
<defs>
<clipPath id="clip0_211_103864">
<rect width="24" height="24" fill="white"/>
</clipPath>
</defs>
</svg>
