<svg width="24" height="24" viewBox="0 0 24 24" fill="none" xmlns="http://www.w3.org/2000/svg">
<g clip-path="url(#clip0_211_104392)">
<path d="M9 11C9 11.7956 9.31607 12.5587 9.87868 13.1213C10.4413 13.6839 11.2044 14 12 14C12.7956 14 13.5587 13.6839 14.1213 13.1213C14.6839 12.5587 15 11.7956 15 11C15 10.2044 14.6839 9.44129 14.1213 8.87868C13.5587 8.31607 12.7956 8 12 8C11.2044 8 10.4413 8.31607 9.87868 8.87868C9.31607 9.44129 9 10.2044 9 11Z" stroke="black" stroke-width="1.5" stroke-linecap="round" stroke-linejoin="round"/>
<path d="M11.8688 21.4805C11.3848 21.4498 10.9286 21.2435 10.5858 20.9005L6.34181 16.6575C5.34567 15.6609 4.63043 14.4188 4.26846 13.057C3.90649 11.6952 3.91063 10.2619 4.28046 8.90225C4.6503 7.54256 5.3727 6.30467 6.37459 5.31383C7.37647 4.32299 8.6223 3.61435 9.98601 3.25961C11.3497 2.90488 12.7829 2.91662 14.1406 3.29367C15.4984 3.67071 16.7324 4.39968 17.7179 5.40681C18.7034 6.41394 19.4054 7.66351 19.7529 9.02908C20.1004 10.3947 20.0811 11.8278 19.6968 13.1835" stroke="black" stroke-width="1.5" stroke-linecap="round" stroke-linejoin="round"/>
<path d="M15 19L17 21L21 17" stroke="black" stroke-width="1.5" stroke-linecap="round" stroke-linejoin="round"/>
</g>
<defs>
<clipPath id="clip0_211_104392">
<rect width="24" height="24" fill="white"/>
</clipPath>
</defs>
</svg>
