<svg width="24" height="24" viewBox="0 0 24 24" fill="none" xmlns="http://www.w3.org/2000/svg">
<g clip-path="url(#clip0_211_103008)">
<path d="M5 7C5 7.39397 5.18106 7.78407 5.53284 8.14805C5.88463 8.51203 6.40024 8.84274 7.05025 9.12132C7.70026 9.3999 8.47194 9.62087 9.32122 9.77164C10.1705 9.9224 11.0807 10 12 10C12.9193 10 13.8295 9.9224 14.6788 9.77164C15.5281 9.62087 16.2997 9.3999 16.9497 9.12132C17.5998 8.84274 18.1154 8.51203 18.4672 8.14805C18.8189 7.78407 19 7.39397 19 7C19 6.60603 18.8189 6.21593 18.4672 5.85195C18.1154 5.48797 17.5998 5.15726 16.9497 4.87868C16.2997 4.6001 15.5281 4.37913 14.6788 4.22836C13.8295 4.0776 12.9193 4 12 4C11.0807 4 10.1705 4.0776 9.32122 4.22836C8.47194 4.37913 7.70026 4.6001 7.05025 4.87868C6.40024 5.15726 5.88463 5.48797 5.53284 5.85195C5.18106 6.21593 5 6.60603 5 7Z" stroke="black" stroke-width="1.5" stroke-linecap="round" stroke-linejoin="round"/>
<path d="M19 7V7.5L12 20L5 7.5V7" stroke="black" stroke-width="1.5" stroke-linecap="round" stroke-linejoin="round"/>
</g>
<defs>
<clipPath id="clip0_211_103008">
<rect width="24" height="24" fill="white"/>
</clipPath>
</defs>
</svg>
