<svg width="24" height="24" viewBox="0 0 24 24" fill="none" xmlns="http://www.w3.org/2000/svg">
<g clip-path="url(#clip0_211_102705)">
<path d="M3.60508 7.1964L10.7431 4.0874C10.8609 4.03692 10.9876 4.01052 11.1157 4.00978C11.2439 4.00904 11.3709 4.03396 11.4892 4.08308C11.6076 4.13219 11.7149 4.20451 11.8049 4.29576C11.8949 4.38701 11.9656 4.49536 12.0131 4.6144L16.9371 16.5164C17.0394 16.7577 17.0429 17.0296 16.9468 17.2735C16.8506 17.5174 16.6626 17.7138 16.4231 17.8204L9.28608 20.9294C9.16824 20.98 9.04145 21.0066 8.91319 21.0074C8.78493 21.0082 8.65781 20.9833 8.53934 20.9342C8.42086 20.8851 8.31342 20.8127 8.22338 20.7214C8.13334 20.63 8.06251 20.5216 8.01508 20.4024L3.09108 8.4994C2.98873 8.25805 2.98525 7.98617 3.08138 7.74228C3.17752 7.49839 3.36558 7.303 3.60508 7.1964Z" stroke="black" stroke-width="1.5" stroke-linecap="round" stroke-linejoin="round"/>
<path d="M15 4H16C16.2652 4 16.5196 4.10536 16.7071 4.29289C16.8946 4.48043 17 4.73478 17 5V8.5" stroke="black" stroke-width="1.5" stroke-linecap="round" stroke-linejoin="round"/>
<path d="M20 6C20.264 6.112 20.52 6.217 20.768 6.315C21.0121 6.41859 21.2051 6.6149 21.3045 6.86075C21.4039 7.1066 21.4015 7.38187 21.298 7.626L19 13" stroke="black" stroke-width="1.5" stroke-linecap="round" stroke-linejoin="round"/>
</g>
<defs>
<clipPath id="clip0_211_102705">
<rect width="24" height="24" fill="white"/>
</clipPath>
</defs>
</svg>
