<svg width="24" height="24" viewBox="0 0 24 24" fill="none" xmlns="http://www.w3.org/2000/svg">
<g clip-path="url(#clip0_211_105478)">
<path d="M4 12C4 12.394 4.0776 12.7841 4.22836 13.1481C4.37913 13.512 4.6001 13.8427 4.87868 14.1213C5.15726 14.3999 5.48797 14.6209 5.85195 14.7716C6.21593 14.9224 6.60603 15 7 15C7.39397 15 7.78407 14.9224 8.14805 14.7716C8.51203 14.6209 8.84274 14.3999 9.12132 14.1213C9.3999 13.8427 9.62087 13.512 9.77164 13.1481C9.9224 12.7841 10 12.394 10 12C10 11.606 9.9224 11.2159 9.77164 10.8519C9.62087 10.488 9.3999 10.1573 9.12132 9.87868C8.84274 9.6001 8.51203 9.37913 8.14805 9.22836C7.78407 9.0776 7.39397 9 7 9C6.60603 9 6.21593 9.0776 5.85195 9.22836C5.48797 9.37913 5.15726 9.6001 4.87868 9.87868C4.6001 10.1573 4.37913 10.488 4.22836 10.8519C4.0776 11.2159 4 11.606 4 12Z" stroke="black" stroke-width="1.5" stroke-linecap="round" stroke-linejoin="round"/>
<path d="M18.57 14.5577C18.9552 14.3209 19.2818 14.0002 19.5256 13.6195C19.7693 13.2388 19.9239 12.8079 19.9777 12.359C20.0315 11.9101 19.9831 11.4549 19.8363 11.0273C19.6894 10.5998 19.4478 10.211 19.1295 9.8899C18.8113 9.56884 18.4245 9.32386 17.9983 9.17328C17.572 9.02269 17.1172 8.97039 16.6679 9.02028C16.2186 9.07017 15.7864 9.22096 15.4035 9.46138C15.0207 9.7018 14.6971 10.0256 14.457 10.4087" stroke="black" stroke-width="1.5" stroke-linecap="round" stroke-linejoin="round"/>
<path d="M7 15H15" stroke="black" stroke-width="1.5" stroke-linecap="round" stroke-linejoin="round"/>
<path d="M3 3L21 21" stroke="black" stroke-width="1.5" stroke-linecap="round" stroke-linejoin="round"/>
</g>
<defs>
<clipPath id="clip0_211_105478">
<rect width="24" height="24" fill="white"/>
</clipPath>
</defs>
</svg>
