<svg width="24" height="24" viewBox="0 0 24 24" fill="none" xmlns="http://www.w3.org/2000/svg">
<g clip-path="url(#clip0_211_104736)">
<path d="M13.16 19.9137C11.2902 20.1322 9.39673 19.8153 7.7 18.9997L3 19.9997L4.3 16.0997C1.976 12.6627 2.874 8.22772 6.4 5.72572C9.926 3.22472 14.99 3.42972 18.245 6.20572C19.629 7.38672 20.505 8.87772 20.848 10.4487" stroke="black" stroke-width="1.5" stroke-linecap="round" stroke-linejoin="round"/>
<path d="M21 15H18.5C18.1022 15 17.7206 15.158 17.4393 15.4393C17.158 15.7206 17 16.1022 17 16.5C17 16.8978 17.158 17.2794 17.4393 17.5607C17.7206 17.842 18.1022 18 18.5 18H19.5C19.8978 18 20.2794 18.158 20.5607 18.4393C20.842 18.7206 21 19.1022 21 19.5C21 19.8978 20.842 20.2794 20.5607 20.5607C20.2794 20.842 19.8978 21 19.5 21H17" stroke="black" stroke-width="1.5" stroke-linecap="round" stroke-linejoin="round"/>
<path d="M19 21V22M19 14V15" stroke="black" stroke-width="1.5" stroke-linecap="round" stroke-linejoin="round"/>
</g>
<defs>
<clipPath id="clip0_211_104736">
<rect width="24" height="24" fill="white"/>
</clipPath>
</defs>
</svg>
