<svg width="24" height="24" viewBox="0 0 24 24" fill="none" xmlns="http://www.w3.org/2000/svg">
<g clip-path="url(#clip0_211_104764)">
<path d="M12.337 19.9737C10.7352 20.0295 9.14393 19.6953 7.7 18.9997L3 19.9997L4.3 16.0997C1.976 12.6627 2.874 8.22772 6.4 5.72572C9.926 3.22472 14.99 3.42972 18.245 6.20572C19.875 7.59572 20.799 9.41572 20.981 11.2907" stroke="black" stroke-width="1.5" stroke-linecap="round" stroke-linejoin="round"/>
<path d="M21.121 20.1216C21.5406 19.7021 21.8265 19.1676 21.9423 18.5856C22.0581 18.0036 21.9988 17.4004 21.7717 16.8522C21.5447 16.3039 21.1602 15.8353 20.6668 15.5057C20.1734 15.176 19.5934 15 19 15C18.4066 15 17.8266 15.176 17.3332 15.5057C16.8398 15.8353 16.4553 16.3039 16.2283 16.8522C16.0012 17.4004 15.9419 18.0036 16.0577 18.5856C16.1735 19.1676 16.4594 19.7021 16.879 20.1216C17.297 20.5406 18.004 21.1666 19 22.0006C20.051 21.1106 20.759 20.4846 21.121 20.1216Z" stroke="black" stroke-width="1.5" stroke-linecap="round" stroke-linejoin="round"/>
<path d="M19 18V18.01" stroke="black" stroke-width="1.5" stroke-linecap="round" stroke-linejoin="round"/>
</g>
<defs>
<clipPath id="clip0_211_104764">
<rect width="24" height="24" fill="white"/>
</clipPath>
</defs>
</svg>
