<svg width="24" height="24" viewBox="0 0 24 24" fill="none" xmlns="http://www.w3.org/2000/svg">
<g clip-path="url(#clip0_211_103317)">
<path d="M18.606 12.0138C18.4616 11.6185 18.2801 11.2378 18.064 10.8768L13.174 3.61678C12.754 2.99178 11.887 2.81378 11.238 3.21978C11.075 3.32201 10.9354 3.45725 10.828 3.61678L5.93495 10.8768C4.23995 13.7148 4.89995 17.3178 7.50195 19.4228C8.86442 20.519 10.5812 21.0782 12.328 20.9948" stroke="black" stroke-width="1.5" stroke-linecap="round" stroke-linejoin="round"/>
<path d="M16 19C16 19.7956 16.3161 20.5587 16.8787 21.1213C17.4413 21.6839 18.2044 22 19 22C19.7956 22 20.5587 21.6839 21.1213 21.1213C21.6839 20.5587 22 19.7956 22 19C22 18.2044 21.6839 17.4413 21.1213 16.8787C20.5587 16.3161 19.7956 16 19 16C18.2044 16 17.4413 16.3161 16.8787 16.8787C16.3161 17.4413 16 18.2044 16 19Z" stroke="black" stroke-width="1.5" stroke-linecap="round" stroke-linejoin="round"/>
<path d="M17 21L21 17" stroke="black" stroke-width="1.5" stroke-linecap="round" stroke-linejoin="round"/>
</g>
<defs>
<clipPath id="clip0_211_103317">
<rect width="24" height="24" fill="white"/>
</clipPath>
</defs>
</svg>
