<svg width="24" height="24" viewBox="0 0 24 24" fill="none" xmlns="http://www.w3.org/2000/svg">
<g clip-path="url(#clip0_211_104472)">
<path d="M9 11C9 11.7956 9.31607 12.5587 9.87868 13.1213C10.4413 13.6839 11.2044 14 12 14C12.7956 14 13.5587 13.6839 14.1213 13.1213C14.6839 12.5587 15 11.7956 15 11C15 10.2044 14.6839 9.44129 14.1213 8.87868C13.5587 8.31607 12.7956 8 12 8C11.2044 8 10.4413 8.31607 9.87868 8.87868C9.31607 9.44129 9 10.2044 9 11Z" stroke="black" stroke-width="1.5" stroke-linecap="round" stroke-linejoin="round"/>
<path d="M12.0188 21.4855C11.753 21.4883 11.4894 21.438 11.2433 21.3375C10.9972 21.2371 10.7737 21.0885 10.5858 20.9005L6.3418 16.6575C5.35116 15.6663 4.63823 14.4324 4.27438 13.0791C3.91052 11.7259 3.90852 10.3008 4.26856 8.94652C4.6286 7.59224 5.33805 6.3563 6.3259 5.36239C7.31375 4.36849 8.54535 3.65151 9.8974 3.28321C11.2495 2.9149 12.6745 2.90821 14.03 3.26379C15.3854 3.61937 16.6237 4.32475 17.6209 5.30933C18.618 6.29391 19.339 7.52313 19.7118 8.87397C20.0845 10.2248 20.0959 11.6498 19.7448 13.0065" stroke="black" stroke-width="1.5" stroke-linecap="round" stroke-linejoin="round"/>
<path d="M16 22L21 17" stroke="black" stroke-width="1.5" stroke-linecap="round" stroke-linejoin="round"/>
<path d="M21 21.5V17H16.5" stroke="black" stroke-width="1.5" stroke-linecap="round" stroke-linejoin="round"/>
</g>
<defs>
<clipPath id="clip0_211_104472">
<rect width="24" height="24" fill="white"/>
</clipPath>
</defs>
</svg>
