<svg width="24" height="24" viewBox="0 0 24 24" fill="none" xmlns="http://www.w3.org/2000/svg">
<g clip-path="url(#clip0_211_104779)">
<path d="M11.303 19.9547C10.052 19.8694 8.829 19.5452 7.7 18.9997L3 19.9997L4.3 16.0997C1.976 12.6627 2.874 8.22772 6.4 5.72572C9.926 3.22472 14.99 3.42972 18.245 6.20572C19.975 7.68172 20.91 9.64072 21.005 11.6387" stroke="black" stroke-width="1.5" stroke-linecap="round" stroke-linejoin="round"/>
<path d="M15 18C15 18.7956 15.3161 19.5587 15.8787 20.1213C16.4413 20.6839 17.2044 21 18 21C18.7956 21 19.5587 20.6839 20.1213 20.1213C20.6839 19.5587 21 18.7956 21 18C21 17.2044 20.6839 16.4413 20.1213 15.8787C19.5587 15.3161 18.7956 15 18 15C17.2044 15 16.4413 15.3161 15.8787 15.8787C15.3161 16.4413 15 17.2044 15 18Z" stroke="black" stroke-width="1.5" stroke-linecap="round" stroke-linejoin="round"/>
<path d="M20.1992 20.1992L21.9992 21.9992" stroke="black" stroke-width="1.5" stroke-linecap="round" stroke-linejoin="round"/>
</g>
<defs>
<clipPath id="clip0_211_104779">
<rect width="24" height="24" fill="white"/>
</clipPath>
</defs>
</svg>
