<svg width="24" height="24" viewBox="0 0 24 24" fill="none" xmlns="http://www.w3.org/2000/svg">
<g clip-path="url(#clip0_211_105395)">
<path d="M10.4463 10.4316C10.0581 10.6666 9.72831 10.9866 9.48171 11.3675C9.23511 11.7484 9.07812 12.1803 9.02257 12.6307C8.96702 13.081 9.01434 13.5381 9.16099 13.9675C9.30763 14.3969 9.54978 14.7874 9.86919 15.1097C10.1886 15.432 10.577 15.6776 11.005 15.8281C11.4331 15.9786 11.8897 16.0301 12.3406 15.9785C12.7914 15.927 13.2246 15.7739 13.6077 15.5308C13.9908 15.2876 14.3138 14.9607 14.5523 14.5746" stroke="black" stroke-width="1.5" stroke-linecap="round" stroke-linejoin="round"/>
<path d="M14.2715 10.272C14.9315 8.813 15.3295 7.384 15.4695 5.986C15.6895 4.356 14.7075 3 11.9995 3C10.0595 3 8.99953 3.696 8.64453 4.69M9.34153 9.343C9.48653 9.727 9.65053 10.113 9.83253 10.5" stroke="black" stroke-width="1.5" stroke-linecap="round" stroke-linejoin="round"/>
<path d="M13.168 16.7514C14.138 18.1464 15.225 19.2744 16.425 20.1374C17.445 20.9264 18.69 20.9904 19.833 19.8494M21.312 17.3564C21.804 15.7224 21.122 14.6304 19.896 14.1274C19.076 13.7574 18.193 13.4734 17.246 13.2754" stroke="black" stroke-width="1.5" stroke-linecap="round" stroke-linejoin="round"/>
<path d="M8.6622 13C6.9692 13.143 5.4492 13.52 4.1022 14.128C2.5802 14.751 1.8962 16.281 3.2502 18.626C4.6042 20.971 6.2702 21.143 7.5712 20.138C8.7712 19.275 9.8582 18.147 10.8292 16.752" stroke="black" stroke-width="1.5" stroke-linecap="round" stroke-linejoin="round"/>
<path d="M3 3L21 21" stroke="black" stroke-width="1.5" stroke-linecap="round" stroke-linejoin="round"/>
</g>
<defs>
<clipPath id="clip0_211_105395">
<rect width="24" height="24" fill="white"/>
</clipPath>
</defs>
</svg>
