<svg width="24" height="24" viewBox="0 0 24 24" fill="none" xmlns="http://www.w3.org/2000/svg">
<g clip-path="url(#clip0_211_103494)">
<path d="M13.9227 11.4494C13.8319 11.1322 13.6639 10.8423 13.4339 10.6057C13.2038 10.3691 12.9188 10.1931 12.6042 10.0934C12.2896 9.99375 11.9552 9.97345 11.6309 10.0344C11.3065 10.0953 11.0023 10.2355 10.7453 10.4425C10.4883 10.6495 10.2866 10.9169 10.158 11.2209C10.0294 11.5248 9.97809 11.8559 10.0085 12.1845C10.039 12.5131 10.1502 12.829 10.3324 13.1042C10.5146 13.3793 10.7621 13.6051 11.0527 13.7614" stroke="black" stroke-width="1.5" stroke-linecap="round" stroke-linejoin="round"/>
<path d="M10 17.78C7.274 17.162 4.941 15.235 3 12C5.4 8 8.4 6 12 6C15.325 6 18.137 7.705 20.438 11.117" stroke="black" stroke-width="1.5" stroke-linecap="round" stroke-linejoin="round"/>
<path d="M18.0001 21.9996L21.3501 18.7156C21.5556 18.5163 21.719 18.2778 21.8307 18.0142C21.9425 17.7507 22.0003 17.4674 22.0007 17.1812C22.0012 16.8949 21.9443 16.6115 21.8334 16.3476C21.7225 16.0837 21.5599 15.8446 21.3551 15.6446C20.9373 15.236 20.3763 15.0066 19.7918 15.0055C19.2074 15.0044 18.6455 15.2316 18.2261 15.6386L18.0021 15.8586L17.7791 15.6386C17.3613 15.2303 16.8006 15.0011 16.2163 15C15.6321 14.9989 15.0705 15.2259 14.6511 15.6326C14.4456 15.8319 14.2821 16.0703 14.1703 16.3338C14.0585 16.5974 14.0006 16.8806 14 17.1669C13.9994 17.4531 14.0562 17.7366 14.167 18.0005C14.2778 18.2645 14.4404 18.5035 14.6451 18.7036L18.0001 21.9996Z" stroke="black" stroke-width="1.5" stroke-linecap="round" stroke-linejoin="round"/>
</g>
<defs>
<clipPath id="clip0_211_103494">
<rect width="24" height="24" fill="white"/>
</clipPath>
</defs>
</svg>
