<svg width="24" height="24" viewBox="0 0 24 24" fill="none" xmlns="http://www.w3.org/2000/svg">
<g clip-path="url(#clip0_211_103730)">
<path d="M8.79219 4.77538C9.85936 4.22556 11.05 3.95943 12.2497 4.00257C13.4494 4.0457 14.6179 4.39665 15.6428 5.02169C16.6677 5.64673 17.5147 6.52486 18.1023 7.5717C18.6899 8.61853 18.9984 9.7989 18.9982 10.9994V14.9994M18.8782 18.8974C18.7634 19.1773 18.5792 19.4233 18.3429 19.6121C18.1066 19.801 17.826 19.9265 17.5277 19.9767C17.2294 20.027 16.9232 20.0003 16.6381 19.8993C16.353 19.7983 16.0983 19.6262 15.8982 19.3994C15.7439 19.2019 15.5466 19.0422 15.3213 18.9324C15.0961 18.8226 14.8488 18.7655 14.5982 18.7655C14.3476 18.7655 14.1003 18.8226 13.875 18.9324C13.6498 19.0422 13.4525 19.2019 13.2982 19.3994C13.1439 19.5968 12.9466 19.7565 12.7213 19.8664C12.4961 19.9762 12.2488 20.0333 11.9982 20.0333C11.7476 20.0333 11.5003 19.9762 11.275 19.8664C11.0498 19.7565 10.8525 19.5968 10.6982 19.3994C10.5439 19.2019 10.3466 19.0422 10.1213 18.9324C9.89609 18.8226 9.64878 18.7655 9.39819 18.7655C9.14759 18.7655 8.90028 18.8226 8.67503 18.9324C8.44978 19.0422 8.25251 19.2019 8.09819 19.3994C7.84633 19.6844 7.5098 19.8812 7.13792 19.961C6.76605 20.0409 6.37839 19.9995 6.03175 19.8429C5.68512 19.6864 5.39774 19.4229 5.21174 19.0912C5.02574 18.7594 4.9509 18.3768 4.99819 17.9994V10.9994C4.99819 9.31638 5.59219 7.77238 6.58119 6.56538" stroke="black" stroke-width="1.5" stroke-linecap="round" stroke-linejoin="round"/>
<path d="M14 10H14.01" stroke="black" stroke-width="1.5" stroke-linecap="round" stroke-linejoin="round"/>
<path d="M10 14C10.5869 14.4087 11.2849 14.6277 12 14.6277C12.7151 14.6277 13.4131 14.4087 14 14" stroke="black" stroke-width="1.5" stroke-linecap="round" stroke-linejoin="round"/>
<path d="M3 3L21 21" stroke="black" stroke-width="1.5" stroke-linecap="round" stroke-linejoin="round"/>
</g>
<defs>
<clipPath id="clip0_211_103730">
<rect width="24" height="24" fill="white"/>
</clipPath>
</defs>
</svg>
