<svg width="24" height="24" viewBox="0 0 24 24" fill="none" xmlns="http://www.w3.org/2000/svg">
<g clip-path="url(#clip0_211_103081)">
<path d="M5.63856 5.63329C4.8025 6.46869 4.13917 7.46059 3.68644 8.55235C3.23372 9.64411 3.00046 10.8143 3 11.9963C2.99954 13.1782 3.23187 14.3486 3.68374 15.4407C4.1356 16.5328 4.79815 17.5252 5.63356 18.3613C6.46896 19.1973 7.46086 19.8607 8.55262 20.3134C9.64438 20.7661 10.8146 20.9994 11.9965 20.9998C13.1784 21.0003 14.3488 20.768 15.441 20.3161C16.5331 19.8642 17.5255 19.2017 18.3616 18.3663M20.0476 16.0343C20.8973 14.3429 21.1921 12.4266 20.89 10.558C20.588 8.68936 19.7044 6.96355 18.3651 5.62598C17.0257 4.2884 15.2988 3.40717 13.4298 3.10758C11.5607 2.808 9.64486 3.10533 7.95456 3.95729" stroke="black" stroke-width="1.5" stroke-linecap="round" stroke-linejoin="round"/>
<path d="M10.4997 10.5003C10.0848 10.1578 9.55816 9.98033 9.02056 10.0017C8.48296 10.0231 7.97211 10.2419 7.58572 10.6163C7.4004 10.7961 7.25307 11.0112 7.15246 11.2489C7.05184 11.4867 7 11.7422 7 12.0003C7 12.2585 7.05184 12.514 7.15246 12.7518C7.25307 12.9895 7.4004 13.2046 7.58572 13.3843C7.97222 13.7585 8.48304 13.9772 9.02057 13.9986C9.55811 14.02 10.0847 13.8426 10.4997 13.5003" stroke="black" stroke-width="1.5" stroke-linecap="round" stroke-linejoin="round"/>
<path d="M16.5004 10.4992C16.1827 10.2372 15.7976 10.07 15.3893 10.0166C14.981 9.96317 14.5658 10.0258 14.1914 10.1972" stroke="black" stroke-width="1.5" stroke-linecap="round" stroke-linejoin="round"/>
<path d="M3 3L21 21" stroke="black" stroke-width="1.5" stroke-linecap="round" stroke-linejoin="round"/>
</g>
<defs>
<clipPath id="clip0_211_103081">
<rect width="24" height="24" fill="white"/>
</clipPath>
</defs>
</svg>
