<svg width="24" height="24" viewBox="0 0 24 24" fill="none" xmlns="http://www.w3.org/2000/svg">
<g clip-path="url(#clip0_211_106389)">
<path d="M10.239 20.043L1.81704 5.983C1.64352 5.6823 1.55172 5.34141 1.55079 4.99423C1.54985 4.64706 1.63981 4.30568 1.81171 4.00405C1.98361 3.70241 2.23147 3.45103 2.53064 3.27488C2.82982 3.09874 3.16989 3.00397 3.51704 3H20.362C20.7092 3.00397 21.0493 3.09874 21.3484 3.27488C21.6476 3.45103 21.8955 3.70241 22.0674 4.00405C22.2393 4.30568 22.3292 4.64706 22.3283 4.99423C22.3274 5.34141 22.2356 5.6823 22.062 5.983L13.64 20.043C13.4627 20.335 13.2131 20.5764 12.9153 20.7439C12.6176 20.9115 12.2817 20.9995 11.94 20.9995C11.5984 20.9995 11.2625 20.9115 10.9647 20.7439C10.667 20.5764 10.4174 20.335 10.24 20.043H10.239Z" stroke="black" stroke-width="1.5" stroke-linecap="round" stroke-linejoin="round"/>
</g>
<defs>
<clipPath id="clip0_211_106389">
<rect width="24" height="24" fill="white"/>
</clipPath>
</defs>
</svg>
