<svg width="24" height="24" viewBox="0 0 24 24" fill="none" xmlns="http://www.w3.org/2000/svg">
<g clip-path="url(#clip0_211_104774)">
<path d="M15.02 19.5197C12.679 20.2557 10.02 20.1257 7.7 18.9997L3 19.9997L4.3 16.0997C1.976 12.6627 2.874 8.22772 6.4 5.72572C9.926 3.22472 14.99 3.42972 18.245 6.20572C19.894 7.61272 20.82 9.45872 20.987 11.3577" stroke="black" stroke-width="1.5" stroke-linecap="round" stroke-linejoin="round"/>
<path d="M19 22V22.01" stroke="black" stroke-width="1.5" stroke-linecap="round" stroke-linejoin="round"/>
<path d="M19 18.9998C19.4483 18.9983 19.8832 18.8466 20.235 18.5687C20.5868 18.2909 20.8352 17.903 20.9406 17.4673C21.0459 17.0315 21.0019 16.5731 20.8158 16.1652C20.6297 15.7574 20.3122 15.4238 19.914 15.2178C19.5162 15.014 19.0611 14.9508 18.6228 15.0385C18.1845 15.1262 17.7888 15.3596 17.5 15.7008" stroke="black" stroke-width="1.5" stroke-linecap="round" stroke-linejoin="round"/>
</g>
<defs>
<clipPath id="clip0_211_104774">
<rect width="24" height="24" fill="white"/>
</clipPath>
</defs>
</svg>
