<svg width="24" height="24" viewBox="0 0 24 24" fill="none" xmlns="http://www.w3.org/2000/svg">
<g clip-path="url(#clip0_211_105359)">
<path d="M10 12H10.01" stroke="black" stroke-width="1.5" stroke-linecap="round" stroke-linejoin="round"/>
<path d="M14 12H14.01" stroke="black" stroke-width="1.5" stroke-linecap="round" stroke-linejoin="round"/>
<path d="M10 16C10.5869 16.4087 11.2849 16.6277 12 16.6277C12.7151 16.6277 13.4131 16.4087 14 16" stroke="black" stroke-width="1.5" stroke-linecap="round" stroke-linejoin="round"/>
<path d="M11.0002 3.99914C13.0002 3.99914 14.5002 5.49914 14.5002 7.99914H14.6642C15.0487 8.02439 15.4222 8.13821 15.7555 8.33171C16.0888 8.5252 16.3729 8.79313 16.5855 9.11456C16.7981 9.436 16.9335 9.80223 16.9811 10.1847C17.0288 10.5671 16.9874 10.9554 16.8602 11.3191C17.4129 11.6002 17.865 12.0456 18.1542 12.5941C18.4434 13.1426 18.5555 13.7673 18.4752 14.3821C19.0392 14.7007 19.4849 15.1932 19.7458 15.7861C20.0067 16.379 20.0686 17.0404 19.9225 17.6714C19.7763 18.3024 19.4298 18.8692 18.9347 19.287C18.4397 19.7047 17.8228 19.9511 17.1762 19.9891H17.0002H7.00015C6.33716 19.9892 5.69283 19.7696 5.16784 19.3647C4.64285 18.9598 4.26678 18.3924 4.09838 17.7511C3.92999 17.1099 3.97876 16.4309 4.23707 15.8203C4.49538 15.2097 4.94868 14.7019 5.52615 14.3761C5.446 13.7614 5.55824 13.137 5.84744 12.5887C6.13664 12.0404 6.58859 11.5951 7.14115 11.3141C7.01393 10.9504 6.9725 10.5623 7.0201 10.1799C7.06769 9.79753 7.20302 9.43135 7.41553 9.10994C7.62803 8.78852 7.91195 8.52058 8.24511 8.32702C8.57828 8.13347 8.95168 8.01954 9.33615 7.99414H9.50015C11.0002 7.99414 12.0002 5.99414 11.0002 3.99414V3.99914Z" stroke="black" stroke-width="1.5" stroke-linecap="round" stroke-linejoin="round"/>
</g>
<defs>
<clipPath id="clip0_211_105359">
<rect width="24" height="24" fill="white"/>
</clipPath>
</defs>
</svg>
