<svg width="24" height="24" viewBox="0 0 24 24" fill="none" xmlns="http://www.w3.org/2000/svg">
<g clip-path="url(#clip0_211_102853)">
<path d="M9.18138 6.11746C7.88739 5.85759 6.54381 6.03164 5.35875 6.61264C4.17368 7.19364 3.21325 8.14918 2.6262 9.33126C2.03915 10.5133 1.85825 11.856 2.1115 13.1513C2.36476 14.4466 3.03804 15.6223 4.02708 16.4962C5.01612 17.3701 6.26572 17.8936 7.58234 17.9855C8.89897 18.0773 10.2092 17.7325 11.31 17.0044C12.4108 16.2763 13.2408 15.2056 13.6715 13.958C14.1022 12.7104 14.1096 11.3556 13.6924 10.1035" stroke="black" stroke-width="1.5" stroke-linecap="round" stroke-linejoin="round"/>
<path d="M14.8141 17.8836C16.1094 18.1448 17.4548 17.971 18.6413 17.3893C19.8278 16.8076 20.7891 15.8505 21.3759 14.6665C21.9627 13.4825 22.1423 12.1379 21.8867 10.8414C21.6311 9.54495 20.9547 8.36911 19.9624 7.49644C18.9701 6.62378 17.7175 6.1031 16.399 6.01524C15.0804 5.92737 13.7698 6.27724 12.6705 7.01052C11.5712 7.7438 10.7447 8.81949 10.3193 10.0706C9.89399 11.3217 9.89354 12.6782 10.3181 13.9296" stroke="black" stroke-width="1.5" stroke-linecap="round" stroke-linejoin="round"/>
</g>
<defs>
<clipPath id="clip0_211_102853">
<rect width="24" height="24" fill="white"/>
</clipPath>
</defs>
</svg>
