<svg width="24" height="24" viewBox="0 0 24 24" fill="none" xmlns="http://www.w3.org/2000/svg">
<g clip-path="url(#clip0_211_103817)">
<path d="M11.4145 10L4.03146 17.418C3.83581 17.6123 3.68053 17.8435 3.57457 18.0981C3.46861 18.3527 3.41406 18.6257 3.41406 18.9015C3.41406 19.1773 3.46861 19.4503 3.57457 19.7049C3.68053 19.9595 3.83581 20.1907 4.03146 20.385C4.42683 20.7783 4.96181 20.999 5.51946 20.999C6.07711 20.999 6.61209 20.7783 7.00746 20.385L14.4145 13" stroke="black" stroke-width="1.5" stroke-linecap="round" stroke-linejoin="round"/>
<path d="M18.121 15.2928L20.707 12.7068C20.8945 12.5193 20.9998 12.265 20.9998 11.9998C20.9998 11.7347 20.8945 11.4804 20.707 11.2928L13.121 3.70685C12.9335 3.51938 12.6792 3.41406 12.414 3.41406C12.1489 3.41406 11.8946 3.51938 11.707 3.70685L9.12103 6.29285C8.93356 6.48038 8.82825 6.73468 8.82825 6.99985C8.82825 7.26501 8.93356 7.51932 9.12103 7.70685L16.707 15.2928C16.8946 15.4803 17.1489 15.5856 17.414 15.5856C17.6792 15.5856 17.9335 15.4803 18.121 15.2928Z" stroke="black" stroke-width="1.5" stroke-linecap="round" stroke-linejoin="round"/>
</g>
<defs>
<clipPath id="clip0_211_103817">
<rect width="24" height="24" fill="white"/>
</clipPath>
</defs>
</svg>
