<svg width="24" height="24" viewBox="0 0 24 24" fill="none" xmlns="http://www.w3.org/2000/svg">
<g clip-path="url(#clip0_211_103356)">
<path d="M18.288 11.2818C18.218 11.1443 18.1432 11.0092 18.064 10.8768L13.174 3.61678C12.754 2.99178 11.887 2.81378 11.238 3.21978C11.075 3.32201 10.9354 3.45725 10.828 3.61678L5.93495 10.8768C4.23995 13.7148 4.89995 17.3178 7.50195 19.4228C8.59583 20.305 9.92641 20.8436 11.326 20.9708" stroke="black" stroke-width="1.5" stroke-linecap="round" stroke-linejoin="round"/>
<path d="M18.0001 21.9996L21.3501 18.7156C21.5556 18.5163 21.719 18.2778 21.8307 18.0142C21.9425 17.7507 22.0003 17.4674 22.0007 17.1812C22.0012 16.8949 21.9443 16.6115 21.8334 16.3476C21.7225 16.0837 21.5599 15.8446 21.3551 15.6446C20.9373 15.236 20.3763 15.0066 19.7918 15.0055C19.2074 15.0044 18.6455 15.2316 18.2261 15.6386L18.0021 15.8586L17.7791 15.6386C17.3613 15.2303 16.8006 15.0011 16.2163 15C15.6321 14.9989 15.0705 15.2259 14.6511 15.6326C14.4456 15.8319 14.2821 16.0703 14.1703 16.3338C14.0585 16.5974 14.0006 16.8806 14 17.1669C13.9994 17.4531 14.0562 17.7366 14.167 18.0005C14.2778 18.2645 14.4404 18.5035 14.6451 18.7036L18.0001 21.9996Z" stroke="black" stroke-width="1.5" stroke-linecap="round" stroke-linejoin="round"/>
</g>
<defs>
<clipPath id="clip0_211_103356">
<rect width="24" height="24" fill="white"/>
</clipPath>
</defs>
</svg>
