<svg width="24" height="24" viewBox="0 0 24 24" fill="none" xmlns="http://www.w3.org/2000/svg">
<g clip-path="url(#clip0_211_104442)">
<path d="M9 11C9 11.7956 9.31607 12.5587 9.87868 13.1213C10.4413 13.6839 11.2044 14 12 14C12.7956 14 13.5587 13.6839 14.1213 13.1213C14.6839 12.5587 15 11.7956 15 11C15 10.2044 14.6839 9.44129 14.1213 8.87868C13.5587 8.31607 12.7956 8 12 8C11.2044 8 10.4413 8.31607 9.87868 8.87868C9.31607 9.44129 9 10.2044 9 11Z" stroke="black" stroke-width="1.5" stroke-linecap="round" stroke-linejoin="round"/>
<path d="M13.4132 20.9008C13.0381 21.2755 12.5297 21.4859 11.9997 21.4859C11.4696 21.4859 10.9612 21.2755 10.5862 20.9008L6.34216 16.6578C5.34403 15.6593 4.62791 14.4145 4.26652 13.0497C3.90514 11.6849 3.91136 10.2488 4.28457 8.88721C4.65777 7.52561 5.38466 6.28703 6.39142 5.29724C7.39817 4.30745 8.64893 3.60171 10.0167 3.2517C11.3844 2.90169 12.8204 2.91987 14.1789 3.30439C15.5373 3.68891 16.7698 4.42608 17.7512 5.44104C18.7326 6.456 19.4279 7.71259 19.7665 9.0832C20.1051 10.4538 20.075 11.8896 19.6792 13.2448" stroke="black" stroke-width="1.5" stroke-linecap="round" stroke-linejoin="round"/>
<path d="M17 17V22" stroke="black" stroke-width="1.5" stroke-linecap="round" stroke-linejoin="round"/>
<path d="M21 17V22" stroke="black" stroke-width="1.5" stroke-linecap="round" stroke-linejoin="round"/>
</g>
<defs>
<clipPath id="clip0_211_104442">
<rect width="24" height="24" fill="white"/>
</clipPath>
</defs>
</svg>
