<svg width="24" height="24" viewBox="0 0 24 24" fill="none" xmlns="http://www.w3.org/2000/svg">
<g clip-path="url(#clip0_211_101806)">
<path d="M20 11.0007C19.7554 9.2409 18.9391 7.61034 17.6766 6.36018C16.4142 5.11001 14.7758 4.3096 13.0137 4.08224C11.2516 3.85487 9.46362 4.21316 7.9252 5.10193C6.38678 5.99069 5.18325 7.36062 4.5 9.00068M4 5.00068V9.00068H8" stroke="black" stroke-width="1.5" stroke-linecap="round" stroke-linejoin="round"/>
<path d="M4 13C4.28668 15.0682 5.36155 16.9457 7 18.24" stroke="black" stroke-width="1.5" stroke-linecap="round" stroke-linejoin="round"/>
<path d="M11 15H13C13.2652 15 13.5196 15.1054 13.7071 15.2929C13.8946 15.4804 14 15.7348 14 16V17C14 17.2652 13.8946 17.5196 13.7071 17.7071C13.5196 17.8946 13.2652 18 13 18H12C11.7348 18 11.4804 18.1054 11.2929 18.2929C11.1054 18.4804 11 18.7348 11 19V20C11 20.2652 11.1054 20.5196 11.2929 20.7071C11.4804 20.8946 11.7348 21 12 21H14" stroke="black" stroke-width="1.5" stroke-linecap="round" stroke-linejoin="round"/>
<path d="M17 15V17C17 17.2652 17.1054 17.5196 17.2929 17.7071C17.4804 17.8946 17.7348 18 18 18H19" stroke="black" stroke-width="1.5" stroke-linecap="round" stroke-linejoin="round"/>
<path d="M20 15V21" stroke="black" stroke-width="1.5" stroke-linecap="round" stroke-linejoin="round"/>
</g>
<defs>
<clipPath id="clip0_211_101806">
<rect width="24" height="24" fill="white"/>
</clipPath>
</defs>
</svg>
