<svg width="24" height="24" viewBox="0 0 24 24" fill="none" xmlns="http://www.w3.org/2000/svg">
<g clip-path="url(#clip0_211_104454)">
<path d="M9 11C9 11.7956 9.31607 12.5587 9.87868 13.1213C10.4413 13.6839 11.2044 14 12 14C12.7956 14 13.5587 13.6839 14.1213 13.1213C14.6839 12.5587 15 11.7956 15 11C15 10.2044 14.6839 9.44129 14.1213 8.87868C13.5587 8.31607 12.7956 8 12 8C11.2044 8 10.4413 8.31607 9.87868 8.87868C9.31607 9.44129 9 10.2044 9 11Z" stroke="black" stroke-width="1.5" stroke-linecap="round" stroke-linejoin="round"/>
<path d="M12.7931 21.3228C12.4253 21.4816 12.0183 21.5263 11.6248 21.451C11.2313 21.3758 10.8694 21.1841 10.5861 20.9008L6.34213 16.6578C5.38087 15.6962 4.68055 14.5054 4.30731 13.198C3.93408 11.8905 3.90023 10.5095 4.20898 9.18537C4.51772 7.86121 5.15887 6.63759 6.07188 5.63004C6.98489 4.6225 8.13964 3.86429 9.42708 3.42699C10.7145 2.9897 12.0922 2.88775 13.43 3.13079C14.7677 3.37382 16.0215 3.95382 17.0729 4.816C18.1242 5.67819 18.9385 6.79411 19.4388 8.05841C19.9391 9.3227 20.1089 10.6937 19.9321 12.0418" stroke="black" stroke-width="1.5" stroke-linecap="round" stroke-linejoin="round"/>
<path d="M16 19H22" stroke="black" stroke-width="1.5" stroke-linecap="round" stroke-linejoin="round"/>
<path d="M19 16V22" stroke="black" stroke-width="1.5" stroke-linecap="round" stroke-linejoin="round"/>
</g>
<defs>
<clipPath id="clip0_211_104454">
<rect width="24" height="24" fill="white"/>
</clipPath>
</defs>
</svg>
