<svg width="24" height="24" viewBox="0 0 24 24" fill="none" xmlns="http://www.w3.org/2000/svg">
<g clip-path="url(#clip0_211_103542)">
<path d="M18.8984 7C19.8029 8.50118 20.1894 10.2578 19.9984 12V13C19.9973 14.0529 20.2732 15.0875 20.7984 16" stroke="black" stroke-width="1.5" stroke-linecap="round" stroke-linejoin="round"/>
<path d="M8 11.0006C8 10.1526 8.264 9.36659 8.713 8.72059M11.113 7.09959C11.6987 6.96638 12.307 6.96681 12.8925 7.10085C13.4781 7.23489 14.0259 7.49909 14.4954 7.87384C14.9649 8.2486 15.3439 8.72428 15.6044 9.26557C15.8649 9.80687 16.0001 10.3999 16 11.0006V12.0006" stroke="black" stroke-width="1.5" stroke-linecap="round" stroke-linejoin="round"/>
<path d="M12 12V13C11.9968 15.8594 12.8693 18.6512 14.5 21" stroke="black" stroke-width="1.5" stroke-linecap="round" stroke-linejoin="round"/>
<path d="M8 15C8.2447 17.0898 8.85393 19.1206 9.8 21" stroke="black" stroke-width="1.5" stroke-linecap="round" stroke-linejoin="round"/>
<path d="M4.90042 19.0007C4.22567 16.731 3.92176 14.3673 4.00042 12.0007V11.0007C3.99531 9.12184 4.65166 7.30113 5.85442 5.8577M8.03042 4.0327C9.24458 3.33884 10.6194 2.97538 12.0178 2.97854C13.4162 2.98169 14.7894 3.35137 16.0004 4.0507" stroke="black" stroke-width="1.5" stroke-linecap="round" stroke-linejoin="round"/>
<path d="M3 3L21 21" stroke="black" stroke-width="1.5" stroke-linecap="round" stroke-linejoin="round"/>
</g>
<defs>
<clipPath id="clip0_211_103542">
<rect width="24" height="24" fill="white"/>
</clipPath>
</defs>
</svg>
