<svg width="24" height="24" viewBox="0 0 24 24" fill="none" xmlns="http://www.w3.org/2000/svg">
<g clip-path="url(#clip0_211_90004)">
<path d="M4 6C4 7.657 7.582 9 12 9C16.418 9 20 7.657 20 6C20 4.343 16.418 3 12 3C7.582 3 4 4.343 4 6Z" stroke="black" stroke-width="1.5" stroke-linecap="round" stroke-linejoin="round"/>
<path d="M4 6V18C4 19.657 7.582 21 12 21C16.418 21 20 19.657 20 18V6" stroke="black" stroke-width="1.5" stroke-linecap="round" stroke-linejoin="round"/>
<path d="M4 14.9995C4.3895 15.0077 4.77512 14.9209 5.12358 14.7467C5.47203 14.5725 5.77283 14.316 6 13.9995C6.22717 13.6831 6.52797 13.4266 6.87642 13.2524C7.22488 13.0782 7.6105 12.9914 8 12.9995C8.3895 12.9914 8.77512 13.0782 9.12358 13.2524C9.47203 13.4266 9.77283 13.6831 10 13.9995C10.2272 14.316 10.528 14.5725 10.8764 14.7467C11.2249 14.9209 11.6105 15.0077 12 14.9995C12.3895 15.0077 12.7751 14.9209 13.1236 14.7467C13.472 14.5725 13.7728 14.316 14 13.9995C14.2272 13.6831 14.528 13.4266 14.8764 13.2524C15.2249 13.0782 15.6105 12.9914 16 12.9995C16.3895 12.9914 16.7751 13.0782 17.1236 13.2524C17.472 13.4266 17.7728 13.6831 18 13.9995C18.2272 14.316 18.528 14.5725 18.8764 14.7467C19.2249 14.9209 19.6105 15.0077 20 14.9995" stroke="black" stroke-width="1.5" stroke-linecap="round" stroke-linejoin="round"/>
</g>
<defs>
<clipPath id="clip0_211_90004">
<rect width="24" height="24" fill="white"/>
</clipPath>
</defs>
</svg>
