<svg width="24" height="24" viewBox="0 0 24 24" fill="none" xmlns="http://www.w3.org/2000/svg">
<path opacity="0.4" d="M20.57 11.01C19.81 10.1 18.81 9.49 17.67 9.24C17.42 8.09 16.96 7.09 16.31 6.27C16.29 6.24 16.27 6.21 16.25 6.19C14.06 3.54 10.47 3.55 8.05004 4.92C5.98004 6.1 4.22004 8.59 5.14004 12.16C3.02004 12.68 2.04004 14.53 2.04004 16.2C2.04004 18.07 3.26004 20.18 5.99004 20.37H16.29C16.3 20.37 16.32 20.37 16.33 20.37C17.75 20.37 19.1 19.85 20.14 18.89C22.66 16.69 22.33 13.08 20.57 11.01Z" fill="#171717"/>
<path d="M21.2698 8.76C21.2698 9.78 20.7998 10.7 20.0398 11.3C19.4898 11.75 18.7798 12.02 18.0098 12.02C16.2198 12.02 14.7598 10.56 14.7598 8.77C14.7598 7.88 15.1198 7.07 15.7198 6.48V6.47C16.3098 5.88 17.1198 5.51 18.0098 5.51C19.8098 5.51 21.2698 6.97 21.2698 8.76Z" fill="#171717"/>
</svg>
