<svg width="24" height="24" viewBox="0 0 24 24" fill="none" xmlns="http://www.w3.org/2000/svg">
<path d="M20.4798 10.69L2.00977 15.72C2.11977 14.13 3.10977 12.46 5.10977 11.97C4.51977 9.64 5.01977 7.45 6.53977 5.86C8.26977 4.05 11.0298 3.33 13.4098 4.07C15.5998 4.74 17.1398 6.54 17.6898 9.04C18.7798 9.29 19.7498 9.86 20.4798 10.69Z" fill="#171717"/>
<path opacity="0.4" d="M20.17 18.74C19.13 19.69 17.77 20.22 16.35 20.22H5.97C3.23 20.02 2 17.91 2 16.03C2 15.93 2 15.83 2.01 15.72L20.48 10.69C21.05 11.3 21.48 12.05 21.74 12.91C22.4 15.08 21.8 17.31 20.17 18.74Z" fill="#171717"/>
</svg>
