<svg width="24" height="24" viewBox="0 0 24 24" fill="none" xmlns="http://www.w3.org/2000/svg">
<path opacity="0.4" d="M2 13.1L4.5 11.6C6.04 10.68 7.96 10.68 9.5 11.6C11.04 12.52 12.96 12.52 14.5 11.6C16.04 10.68 17.96 10.68 19.5 11.6L22 13.1" stroke="#171717" stroke-width="1.5" stroke-miterlimit="10" stroke-linecap="round" stroke-linejoin="round"/>
<path d="M2 3.9L4.5 5.4C6.04 6.32 7.96 6.32 9.5 5.4C11.04 4.48 12.96 4.48 14.5 5.4C16.04 6.32 17.96 6.32 19.5 5.4L22 3.9" stroke="#171717" stroke-width="1.5" stroke-miterlimit="10" stroke-linecap="round" stroke-linejoin="round"/>
<path d="M2 20.1L4.5 18.6C6.04 17.68 7.96 17.68 9.5 18.6C11.04 19.52 12.96 19.52 14.5 18.6C16.04 17.68 17.96 17.68 19.5 18.6L22 20.1" stroke="#171717" stroke-width="1.5" stroke-miterlimit="10" stroke-linecap="round" stroke-linejoin="round"/>
</svg>
