<svg width="24" height="24" viewBox="0 0 24 24" fill="none" xmlns="http://www.w3.org/2000/svg">
<path d="M9.0002 19C9.0002 19.84 9.1302 20.66 9.3702 21.42C5.5302 20.09 2.6302 16.56 2.3302 12.43C2.0302 8.04 4.5602 3.94 8.6502 2.22C9.7102 1.78 10.2502 2.1 10.4802 2.33C10.7002 2.55 11.0102 3.08 10.5702 4.09C10.1202 5.13 9.9002 6.23 9.9002 7.37C9.9102 9.41 10.7102 11.3 12.0102 12.75C10.1802 14.21 9.0002 16.47 9.0002 19Z" fill="#171717"/>
<path opacity="0.4" d="M21.21 17.72C19.23 20.41 16.09 21.99 12.74 21.99C12.58 21.99 12.42 21.98 12.26 21.97C11.26 21.93 10.29 21.74 9.37 21.42C9.13 20.66 9 19.84 9 19C9 16.47 10.18 14.21 12.01 12.75C13.48 14.4 15.59 15.47 17.92 15.57C18.55 15.6 19.18 15.55 19.8 15.44C20.92 15.24 21.37 15.66 21.53 15.93C21.7 16.2 21.88 16.79 21.21 17.72Z" fill="#171717"/>
</svg>
