<svg width="24" height="24" viewBox="0 0 24 24" fill="none" xmlns="http://www.w3.org/2000/svg">
<path d="M16.6102 20C17.9502 20.01 19.2402 19.51 20.2302 18.61C23.5002 15.75 21.7502 10.01 17.4402 9.47C15.9002 0.130002 2.43022 3.67 5.62022 12.56" stroke="#171717" stroke-width="1.5" stroke-miterlimit="10" stroke-linecap="round" stroke-linejoin="round"/>
<path d="M7.27986 12.97C6.74986 12.7 6.15986 12.56 5.56986 12.57C0.909864 12.9 0.919864 19.68 5.56986 20.01" stroke="#171717" stroke-width="1.5" stroke-miterlimit="10" stroke-linecap="round" stroke-linejoin="round"/>
<path d="M15.8198 9.89C16.3398 9.63 16.8998 9.49 17.4798 9.48" stroke="#171717" stroke-width="1.5" stroke-miterlimit="10" stroke-linecap="round" stroke-linejoin="round"/>
<path opacity="0.4" d="M9.23008 19.16H10.2301V21.49C10.2301 21.83 10.6601 22 10.8801 21.74L13.3301 18.95C13.6301 18.61 13.5001 18.33 13.0501 18.33H12.0501V16C12.0501 15.66 11.6201 15.49 11.4001 15.75L8.95008 18.54C8.65008 18.88 8.78008 19.16 9.23008 19.16Z" stroke="#171717" stroke-width="1.5" stroke-miterlimit="10" stroke-linecap="round" stroke-linejoin="round"/>
</svg>
