<svg width="24" height="24" viewBox="0 0 24 24" fill="none" xmlns="http://www.w3.org/2000/svg">
<path d="M20.6098 10.83C19.8398 9.91 18.8498 9.31 17.6998 9.05C17.4398 7.89 16.9898 6.89 16.3298 6.06C16.3098 6.03 16.2898 6 16.2698 5.98C14.0698 3.32 10.4698 3.33 8.03977 4.71C5.95977 5.9 4.18977 8.41 5.11977 11.99C2.98977 12.51 2.00977 14.37 2.00977 16.05C2.00977 17.93 3.23977 20.04 5.97977 20.24H16.3198C16.3298 20.24 16.3498 20.24 16.3598 20.24C17.7798 20.24 19.1398 19.71 20.1898 18.75C22.6998 16.53 22.3698 12.91 20.6098 10.83Z" fill="#171717"/>
<path d="M21.7602 8.74C21.7602 9.08 21.7202 9.41 21.6202 9.73C20.8902 8.88 19.9602 8.25 18.9302 7.86C18.6102 6.86 18.1502 5.97 17.5502 5.19C17.5202 5.15 17.4902 5.11 17.4502 5.06C17.6402 5.02 17.8402 5.01 18.0302 5.01C20.0902 5.01 21.7602 6.68 21.7602 8.74Z" fill="#171717"/>
</svg>
