<svg width="24" height="24" viewBox="0 0 24 24" fill="none" xmlns="http://www.w3.org/2000/svg">
<path d="M10 3.75H11.25V8.5C11.25 8.91 11.59 9.25 12 9.25C12.41 9.25 12.75 8.91 12.75 8.5V3.75H14C14.41 3.75 14.75 3.41 14.75 3C14.75 2.59 14.41 2.25 14 2.25H10C9.59 2.25 9.25 2.59 9.25 3C9.25 3.41 9.59 3.75 10 3.75Z" fill="#171717"/>
<path d="M14 20.25H12.75V15.5C12.75 15.09 12.41 14.75 12 14.75C11.59 14.75 11.25 15.09 11.25 15.5V20.25H10C9.59 20.25 9.25 20.59 9.25 21C9.25 21.41 9.59 21.75 10 21.75H14C14.41 21.75 14.75 21.41 14.75 21C14.75 20.59 14.41 20.25 14 20.25Z" fill="#171717"/>
<path d="M2.82988 9.88C2.94988 9.95 3.07988 9.98 3.19988 9.98C3.45988 9.98 3.70988 9.85 3.84988 9.6L4.47988 8.52L8.59988 10.9C8.70988 10.97 8.83988 11 8.96988 11C9.22988 11 9.47988 10.87 9.61988 10.62C9.82988 10.27 9.69988 9.81 9.34988 9.6L5.22988 7.22L5.84988 6.14C6.05988 5.78 5.92988 5.32 5.57988 5.12C5.21988 4.91 4.75988 5.03 4.55988 5.39L2.55988 8.85C2.34988 9.22 2.46988 9.67 2.82988 9.88Z" fill="#171717"/>
<path d="M21.1699 14.12C20.8099 13.91 20.3499 14.03 20.1499 14.39L19.5199 15.47L15.3999 13.1C15.0399 12.89 14.5799 13.02 14.3799 13.37C14.1699 13.73 14.2999 14.19 14.6499 14.39L18.7599 16.77L18.1399 17.85C17.9299 18.21 18.0599 18.67 18.4099 18.87C18.5299 18.94 18.6599 18.97 18.7799 18.97C19.0399 18.97 19.2899 18.84 19.4299 18.59L21.4299 15.13C21.6499 14.78 21.5299 14.33 21.1699 14.12Z" fill="#171717"/>
<path d="M18.7702 7.22L14.6502 9.6C14.2902 9.81 14.1702 10.27 14.3802 10.62C14.5202 10.86 14.7702 11 15.0302 11C15.1602 11 15.2902 10.97 15.4002 10.9L19.5102 8.52L20.1402 9.6C20.2802 9.84 20.5302 9.98 20.7902 9.98C20.9202 9.98 21.0502 9.95 21.1602 9.88C21.5202 9.67 21.6402 9.21 21.4302 8.86L19.4302 5.4C19.2202 5.04 18.7602 4.92 18.4102 5.13C18.0502 5.34 17.9302 5.8 18.1402 6.15L18.7702 7.22Z" fill="#171717"/>
<path d="M5.22988 16.78L9.33988 14.4C9.69988 14.19 9.81988 13.73 9.60988 13.38C9.39988 13.02 8.93988 12.9 8.58988 13.11L4.47988 15.49L3.84988 14.41C3.63988 14.05 3.17988 13.93 2.82988 14.14C2.46988 14.35 2.34988 14.81 2.55988 15.16L4.55988 18.62C4.69988 18.86 4.94988 19 5.20988 19C5.33988 19 5.46988 18.97 5.57988 18.9C5.93988 18.69 6.05988 18.23 5.84988 17.88L5.22988 16.78Z" fill="#171717"/>
<path d="M15.5 12C15.5 12.64 15.33 13.23 15.03 13.75C14.42 14.8 13.29 15.5 12 15.5C10.71 15.5 9.58 14.8 8.97 13.75C8.67 13.23 8.5 12.64 8.5 12C8.5 11.36 8.67 10.77 8.97 10.25C9.58 9.2 10.71 8.5 12 8.5C13.29 8.5 14.42 9.2 15.03 10.25C15.33 10.77 15.5 11.36 15.5 12Z" fill="#171717"/>
</svg>
