<svg width="24" height="24" viewBox="0 0 24 24" fill="none" xmlns="http://www.w3.org/2000/svg">
<path d="M16.6502 20.75C16.6402 20.75 16.6202 20.75 16.6102 20.75C16.2002 20.75 15.8602 20.41 15.8702 19.99C15.8702 19.58 16.2102 19.25 16.6202 19.25C16.6302 19.25 16.6502 19.25 16.6602 19.25C17.8002 19.25 18.8902 18.83 19.7302 18.05C21.2802 16.69 21.3902 14.75 20.9702 13.38C20.5502 12.01 19.3902 10.46 17.3602 10.2C17.0302 10.16 16.7702 9.91 16.7102 9.58C16.3102 7.19 15.0202 5.54 13.0802 4.94C11.0602 4.32 8.73022 4.93 7.27022 6.46C5.85022 7.95 5.52022 10.02 6.34022 12.31C6.48022 12.7 6.28021 13.13 5.89021 13.27C5.50021 13.41 5.07021 13.21 4.93021 12.82C3.92021 10.01 4.38022 7.32 6.19021 5.43C8.04022 3.5 10.9802 2.73 13.5302 3.52C15.8602 4.24 17.5102 6.16 18.1002 8.82C20.1402 9.28 21.7702 10.82 22.4202 12.95C23.1302 15.27 22.4802 17.65 20.7502 19.17C19.6102 20.19 18.1602 20.75 16.6502 20.75Z" fill="#171717"/>
<path d="M5.57008 20.75C5.55008 20.75 5.53008 20.75 5.52008 20.75C2.64008 20.55 1.33008 18.29 1.33008 16.28C1.33008 14.27 2.64008 12.02 5.52008 11.81C6.26008 11.8 6.99008 11.97 7.63008 12.29C8.00008 12.48 8.14008 12.93 7.96008 13.3C7.77008 13.67 7.32008 13.81 6.95008 13.63C6.53008 13.41 6.05008 13.32 5.59008 13.31C3.70008 13.45 2.84008 14.9 2.84008 16.28C2.84008 17.66 3.70008 19.11 5.64008 19.25C6.05008 19.28 6.36008 19.64 6.33008 20.05C6.29008 20.45 5.96008 20.75 5.57008 20.75Z" fill="#171717"/>
<path d="M15.8201 10.64C15.5501 10.64 15.2801 10.49 15.1501 10.22C14.9601 9.85 15.1101 9.4 15.4901 9.21C16.1001 8.9 16.7901 8.73 17.4701 8.72C17.8501 8.74 18.2301 9.04 18.2301 9.46C18.2401 9.87 17.9101 10.22 17.4901 10.22C17.0301 10.23 16.5701 10.34 16.1501 10.55C16.0501 10.62 15.9301 10.64 15.8201 10.64Z" fill="#171717"/>
<path d="M7.97016 22.75C7.78016 22.75 7.59016 22.68 7.44016 22.53C7.15016 22.24 7.15016 21.76 7.44016 21.47L9.44016 19.47C9.73016 19.18 10.2102 19.18 10.5002 19.47C10.7902 19.76 10.7902 20.24 10.5002 20.53L8.50016 22.53C8.36016 22.68 8.17016 22.75 7.97016 22.75Z" fill="#171717"/>
<path d="M11.9702 22.75C11.7802 22.75 11.5902 22.68 11.4402 22.53C11.1502 22.24 11.1502 21.76 11.4402 21.47L13.4402 19.47C13.7302 19.18 14.2102 19.18 14.5002 19.47C14.7902 19.76 14.7902 20.24 14.5002 20.53L12.5002 22.53C12.3602 22.68 12.1702 22.75 11.9702 22.75Z" fill="#171717"/>
<path d="M11.9702 18.75C11.7802 18.75 11.5902 18.68 11.4402 18.53C11.1502 18.24 11.1502 17.76 11.4402 17.47L13.4402 15.47C13.7302 15.18 14.2102 15.18 14.5002 15.47C14.7902 15.76 14.7902 16.24 14.5002 16.53L12.5002 18.53C12.3602 18.68 12.1702 18.75 11.9702 18.75Z" fill="#171717"/>
<path d="M7.97016 18.75C7.78016 18.75 7.59016 18.68 7.44016 18.53C7.15016 18.24 7.15016 17.76 7.44016 17.47L9.44016 15.47C9.73016 15.18 10.2102 15.18 10.5002 15.47C10.7902 15.76 10.7902 16.24 10.5002 16.53L8.50016 18.53C8.36016 18.68 8.17016 18.75 7.97016 18.75Z" fill="#171717"/>
</svg>
