<svg width="24" height="24" viewBox="0 0 24 24" fill="none" xmlns="http://www.w3.org/2000/svg">
<g clip-path="url(#clip0_211_101326)">
<path d="M9.1716 14.8306C8.80016 14.4591 8.50551 14.0181 8.30449 13.5328C8.10347 13.0475 8 12.5274 8 12.0021C8 11.4768 8.10347 10.9566 8.30449 10.4713C8.50551 9.98597 8.80016 9.545 9.1716 9.17356C9.54305 8.80211 9.98401 8.50747 10.4693 8.30644C10.9546 8.10542 11.4748 8.00195 12.0001 8.00195C12.5254 8.00195 13.0456 8.10542 13.5309 8.30644C14.0162 8.50747 14.4572 8.80211 14.8286 9.17356" stroke="black" stroke-width="1.5" stroke-linecap="round" stroke-linejoin="round"/>
<path d="M11.2926 12.707L11.4666 12.954C12.4558 14.2915 13.8616 15.2622 15.4628 15.7133C17.064 16.1644 18.7697 16.0704 20.3116 15.446C19.7442 16.8115 18.849 18.0162 17.7052 18.9534C16.5615 19.8907 15.2045 20.5317 13.7541 20.8198C12.3037 21.1078 10.8047 21.0341 9.38958 20.6051C7.97447 20.1761 6.68687 19.405 5.64062 18.36" stroke="black" stroke-width="1.5" stroke-linecap="round" stroke-linejoin="round"/>
<path d="M3 12H4" stroke="black" stroke-width="1.5" stroke-linecap="round" stroke-linejoin="round"/>
<path d="M12 3V4" stroke="black" stroke-width="1.5" stroke-linecap="round" stroke-linejoin="round"/>
<path d="M5.60156 5.59961L6.30156 6.29961" stroke="black" stroke-width="1.5" stroke-linecap="round" stroke-linejoin="round"/>
<path d="M3 21L21 3" stroke="black" stroke-width="1.5" stroke-linecap="round" stroke-linejoin="round"/>
</g>
<defs>
<clipPath id="clip0_211_101326">
<rect width="24" height="24" fill="white"/>
</clipPath>
</defs>
</svg>
