<svg width="24" height="24" viewBox="0 0 24 24" fill="none" xmlns="http://www.w3.org/2000/svg">
<path d="M12.4997 22.0003H4.07973C2.91973 22.0003 1.96973 21.0703 1.96973 19.9303V5.09035C1.96973 2.47035 3.91973 1.28035 6.30973 2.45035L10.7497 4.63035C11.7097 5.10035 12.4997 6.35035 12.4997 7.41035V22.0003Z" stroke="#171717" stroke-width="1.5" stroke-linecap="round" stroke-linejoin="round"/>
<path d="M21.9695 15.0603V18.8403C21.9695 21.0003 20.9695 22.0003 18.8095 22.0003H12.4995V10.4203L12.9695 10.5203L17.4695 11.5303L19.4995 11.9803C20.8195 12.2703 21.8995 12.9503 21.9595 14.8703C21.9695 14.9303 21.9695 14.9903 21.9695 15.0603Z" stroke="#171717" stroke-width="1.5" stroke-linecap="round" stroke-linejoin="round"/>
<path opacity="0.4" d="M5.49951 9.00035H8.96951" stroke="#171717" stroke-width="1.5" stroke-linecap="round" stroke-linejoin="round"/>
<path opacity="0.4" d="M5.49951 13.0004H8.96951" stroke="#171717" stroke-width="1.5" stroke-linecap="round" stroke-linejoin="round"/>
<path d="M17.4697 11.5304V14.7504C17.4697 15.9904 16.4597 17.0004 15.2197 17.0004C13.9797 17.0004 12.9697 15.9904 12.9697 14.7504V10.5204L17.4697 11.5304Z" stroke="#171717" stroke-width="1.5" stroke-linecap="round" stroke-linejoin="round"/>
<path d="M21.9597 14.8703C21.8997 16.0503 20.9197 17.0003 19.7197 17.0003C18.4797 17.0003 17.4697 15.9904 17.4697 14.7503V11.5303L19.4997 11.9803C20.8197 12.2703 21.8997 12.9503 21.9597 14.8703Z" stroke="#171717" stroke-width="1.5" stroke-linecap="round" stroke-linejoin="round"/>
</svg>
