<svg width="24" height="24" viewBox="0 0 24 24" fill="none" xmlns="http://www.w3.org/2000/svg">
<path d="M18.94 3.5H5.06C4.65 3.5 4.31 3.16 4.31 2.75C4.31 2.34 4.65 2 5.06 2H18.94C19.35 2 19.69 2.34 19.69 2.75C19.69 3.16 19.35 3.5 18.94 3.5Z" fill="#171717"/>
<path d="M18.94 22H5.06C4.65 22 4.31 21.66 4.31 21.25C4.31 20.84 4.65 20.5 5.06 20.5H18.94C19.35 20.5 19.69 20.84 19.69 21.25C19.69 21.66 19.35 22 18.94 22Z" fill="#171717"/>
<path opacity="0.4" d="M2.75 7.59998V16.4C2.75 18.06 4.09 19.4 5.75 19.4H18.25C19.91 19.4 21.25 18.06 21.25 16.4V7.59998C21.25 5.93998 19.91 4.59998 18.25 4.59998H5.75C4.09 4.59998 2.75 5.93998 2.75 7.59998Z" fill="#171717"/>
</svg>
