<svg width="24" height="24" viewBox="0 0 24 24" fill="none" xmlns="http://www.w3.org/2000/svg">
<path d="M21.33 14.67C20.28 13.62 19.45 13.96 18.73 14.67L14.58 18.82C14.42 18.98 14.27 19.29 14.23 19.51L14 21.0999C13.92 21.6699 14.32 22.08 14.89 21.99L16.48 21.76C16.7 21.73 17.01 21.5699 17.17 21.4099L21.32 17.26C22.05 16.55 22.38 15.72 21.33 14.67Z" fill="#171717"/>
<path d="M8.39001 2.16992V8.61993H1.92999V7.93994C1.92999 4.32994 4.08 2.17993 7.69 2.17993H8.39001V2.16992Z" fill="#171717"/>
<path d="M21.77 7.92993C21.77 8.30993 21.46 8.60992 21.09 8.60992H15.34V2.15991H16.01C19.19 2.16991 21.77 4.74993 21.77 7.92993Z" fill="#171717"/>
<path d="M8.39001 15.5499V21.3099C8.39001 21.6899 8.08002 21.9899 7.71002 21.9899H7.70001C4.52001 21.9899 1.94 19.4099 1.94 16.2299V15.5499H8.39001Z" fill="#171717"/>
<path opacity="0.4" d="M8.40002 8.60986H1.94V15.5499H8.40002V8.60986Z" fill="#171717"/>
<path d="M15.33 8.60986V14.5499C15.33 15.0999 14.88 15.5499 14.33 15.5499H8.39001V8.60986H15.33Z" fill="#171717"/>
<path opacity="0.4" d="M15.33 2.16992H8.39001V8.61993H15.33V2.16992Z" fill="#171717"/>
</svg>
