<svg width="24" height="24" viewBox="0 0 24 24" fill="none" xmlns="http://www.w3.org/2000/svg">
<path opacity="0.4" d="M13.94 4.82996H6.83C5.73 4.82996 4.83 5.72996 4.83 6.82996V13.94C4.83 16.83 7.17 19.17 10.06 19.17H17.17C18.27 19.17 19.17 18.27 19.17 17.17V10.06C19.17 7.16996 16.83 4.82996 13.94 4.82996Z" fill="#171717"/>
<path d="M5.53 2C5.11 2 4.78 2.34 4.78 2.75V4.78H2.75C2.34 4.78 2 5.11 2 5.53C2 5.95 2.34 6.28 2.75 6.28H5.53C5.94 6.28 6.28 5.94 6.28 5.53V2.75C6.28 2.34 5.94 2 5.53 2Z" fill="#171717"/>
<path d="M21.25 17.72H18.47C18.06 17.72 17.72 18.06 17.72 18.47V21.25C17.72 21.66 18.06 22 18.47 22C18.88 22 19.22 21.66 19.22 21.25V19.22H21.25C21.66 19.22 22 18.88 22 18.47C22 18.06 21.66 17.72 21.25 17.72Z" fill="#171717"/>
</svg>
