<svg width="24" height="24" viewBox="0 0 24 24" fill="none" xmlns="http://www.w3.org/2000/svg">
<path opacity="0.4" d="M15 2H9C7.34 2 6 3.34 6 5V19C6 20.66 7.34 22 9 22H15C16.66 22 18 20.66 18 19V5C18 3.34 16.66 2 15 2Z" fill="#171717"/>
<path d="M18.67 5.32996H18.33C18.21 5.32996 18.1 5.32996 17.98 5.33996C17.99 5.38996 18 5.43996 18 5.49996V6.99996V17V18.5C18 18.56 17.99 18.61 17.98 18.66C18.09 18.67 18.2 18.67 18.33 18.67H18.67C21.33 18.67 22 18 22 15.33V8.66996C22 5.99996 21.33 5.32996 18.67 5.32996Z" fill="#171717"/>
<path d="M6 18.5V17V6.99996V5.49996C6 5.43996 6.01 5.38996 6.02 5.33996C5.9 5.32996 5.79 5.32996 5.67 5.32996H5.33C2.67 5.32996 2 5.99996 2 8.66996V15.33C2 18 2.67 18.67 5.33 18.67H5.67C5.79 18.67 5.9 18.67 6.02 18.66C6.01 18.61 6 18.56 6 18.5Z" fill="#171717"/>
</svg>
