<svg width="24" height="24" viewBox="0 0 24 24" fill="none" xmlns="http://www.w3.org/2000/svg">
<path d="M8.39001 2.16992V8.61993H1.92999V7.93994C1.92999 4.32994 4.08 2.17993 7.69 2.17993H8.39001V2.16992Z" fill="#171717"/>
<path d="M21.77 7.92993C21.77 8.30993 21.46 8.60992 21.09 8.60992H15.34V2.15991H16.01C19.19 2.16991 21.77 4.74993 21.77 7.92993Z" fill="#171717"/>
<path d="M8.39001 15.5499V21.3099C8.39001 21.6899 8.07999 21.9899 7.70999 21.9899H7.70001C4.52001 21.9899 1.94 19.4099 1.94 16.2299V15.5499H8.39001Z" fill="#171717"/>
<path opacity="0.4" d="M8.39999 8.60986H1.94V15.5499H8.39999V8.60986Z" fill="#171717"/>
<path d="M15.33 8.60986V14.8699C15.33 15.2499 15.02 15.5499 14.65 15.5499H8.39001V8.60986H15.33Z" fill="#171717"/>
<path opacity="0.4" d="M15.33 2.16992H8.39001V8.61993H15.33V2.16992Z" fill="#171717"/>
<path opacity="0.4" d="M19.8 20.7L17.9 22.6099C17.38 23.1299 16.52 23.1299 15.98 22.6099L14.4 21.02C13.88 20.49 13.88 19.6399 14.4 19.0999L16.31 17.21L19.8 20.7Z" fill="#171717"/>
<path d="M22.61 17.9L19.8 20.7L16.31 17.21L19.11 14.39C19.64 13.87 20.5 13.87 21.03 14.39L22.61 15.98C23.13 16.51 23.13 17.38 22.61 17.9Z" fill="#171717"/>
</svg>
