<svg width="24" height="24" viewBox="0 0 24 24" fill="none" xmlns="http://www.w3.org/2000/svg">
<path opacity="0.4" d="M2 9V15C2 16.66 3.34 18 5 18H19C20.66 18 22 16.66 22 15V9C22 7.34 20.66 6 19 6H5C3.34 6 2 7.34 2 9Z" fill="#171717"/>
<path d="M5.32996 5.33V5.67C5.32996 5.79 5.32996 5.9 5.33996 6.02C5.38996 6.01 5.43996 6 5.49996 6H6.99996H17H18.5C18.56 6 18.61 6.01 18.66 6.02C18.67 5.91 18.67 5.8 18.67 5.67V5.33C18.67 2.67 18 2 15.33 2H8.66996C5.99996 2 5.32996 2.67 5.32996 5.33Z" fill="#171717"/>
<path d="M18.5 18H17H6.99996H5.49996C5.43996 18 5.38996 17.99 5.33996 17.98C5.32996 18.09 5.32996 18.2 5.32996 18.33V18.67C5.32996 21.33 5.99996 22 8.66996 22H15.33C18 22 18.67 21.33 18.67 18.67V18.33C18.67 18.21 18.67 18.1 18.66 17.98C18.61 17.99 18.56 18 18.5 18Z" fill="#171717"/>
</svg>
