<svg width="24" height="24" viewBox="0 0 24 24" fill="none" xmlns="http://www.w3.org/2000/svg">
<path d="M21.53 17.31V17.15C21.53 15.22 20.55 14.25 18.63 14.25C16.71 14.25 15.73 15.23 15.73 17.15V17.31C14.68 17.57 14.26 18.29 14.26 19.73V20.47C14.26 22.32 14.95 23 16.79 23H20.47C22.32 23 23 22.31 23 20.47V19.73C23 18.3 22.58 17.57 21.53 17.31ZM18.62 15.63C19.91 15.63 20.14 16.12 20.14 17.15V17.2H17.1V17.15C17.1 16.12 17.33 15.63 18.62 15.63Z" fill="#171717"/>
<path d="M8.39001 2.16992V8.61993H1.92999V7.93994C1.92999 4.32994 4.08 2.17993 7.69 2.17993H8.39001V2.16992Z" fill="#171717"/>
<path d="M21.77 7.92993C21.77 8.30993 21.46 8.60992 21.09 8.60992H15.34V2.15991H16.01C19.19 2.16991 21.77 4.74993 21.77 7.92993Z" fill="#171717"/>
<path d="M8.39001 15.5499V21.3099C8.39001 21.6899 8.07999 21.9899 7.70999 21.9899H7.70001C4.52001 21.9899 1.94 19.4099 1.94 16.2299V15.5499H8.39001Z" fill="#171717"/>
<path opacity="0.4" d="M8.39999 8.60986H1.94V15.5499H8.39999V8.60986Z" fill="#171717"/>
<path d="M15.33 8.60986V14.5499C15.33 15.0999 14.88 15.5499 14.33 15.5499H8.39001V8.60986H15.33Z" fill="#171717"/>
<path opacity="0.4" d="M15.33 2.16992H8.39001V8.61993H15.33V2.16992Z" fill="#171717"/>
</svg>
