<svg width="24" height="24" viewBox="0 0 24 24" fill="none" xmlns="http://www.w3.org/2000/svg">
<g clip-path="url(#clip0_211_88328)">
<path d="M15.0001 14.9996H14.0001C13.554 14.9924 13.1182 15.1346 12.7622 15.4036C12.4062 15.6725 12.1504 16.0528 12.0354 16.484C11.9204 16.9151 11.9529 17.3723 12.1277 17.7828C12.3025 18.1934 12.6096 18.5336 13.0001 18.7496C13.1998 18.9338 13.3367 19.176 13.3916 19.442C13.4466 19.7081 13.4168 19.9847 13.3065 20.2329C13.1961 20.4812 13.0108 20.6887 12.7765 20.8262C12.5421 20.9637 12.2706 21.0243 12.0001 20.9996C10.221 20.9996 8.48183 20.4723 7.00227 19.4844C5.5227 18.4964 4.36912 17.0922 3.68726 15.4489C3.0054 13.8057 2.82585 11.9973 3.17129 10.252C3.51673 8.50682 4.37167 6.90313 5.62809 5.64355" stroke="black" stroke-width="1.5" stroke-linecap="round" stroke-linejoin="round"/>
<path d="M8 4C9.236 3.377 10.569 3 12 3C16.97 3 21 6.582 21 11C21 12.06 20.526 13.078 19.682 13.828C19.3448 14.1261 18.9649 14.3722 18.555 14.558" stroke="black" stroke-width="1.5" stroke-linecap="round" stroke-linejoin="round"/>
<path d="M7.5 10.5C7.5 10.7652 7.60536 11.0196 7.79289 11.2071C7.98043 11.3946 8.23478 11.5 8.5 11.5C8.76522 11.5 9.01957 11.3946 9.20711 11.2071C9.39464 11.0196 9.5 10.7652 9.5 10.5C9.5 10.2348 9.39464 9.98043 9.20711 9.79289C9.01957 9.60536 8.76522 9.5 8.5 9.5C8.23478 9.5 7.98043 9.60536 7.79289 9.79289C7.60536 9.98043 7.5 10.2348 7.5 10.5Z" stroke="black" stroke-width="1.5" stroke-linecap="round" stroke-linejoin="round"/>
<path d="M11.5 7.5C11.5 7.76522 11.6054 8.01957 11.7929 8.20711C11.9804 8.39464 12.2348 8.5 12.5 8.5C12.7652 8.5 13.0196 8.39464 13.2071 8.20711C13.3946 8.01957 13.5 7.76522 13.5 7.5C13.5 7.23478 13.3946 6.98043 13.2071 6.79289C13.0196 6.60536 12.7652 6.5 12.5 6.5C12.2348 6.5 11.9804 6.60536 11.7929 6.79289C11.6054 6.98043 11.5 7.23478 11.5 7.5Z" stroke="black" stroke-width="1.5" stroke-linecap="round" stroke-linejoin="round"/>
<path d="M15.5 10.5C15.5 10.7652 15.6054 11.0196 15.7929 11.2071C15.9804 11.3946 16.2348 11.5 16.5 11.5C16.7652 11.5 17.0196 11.3946 17.2071 11.2071C17.3946 11.0196 17.5 10.7652 17.5 10.5C17.5 10.2348 17.3946 9.98043 17.2071 9.79289C17.0196 9.60536 16.7652 9.5 16.5 9.5C16.2348 9.5 15.9804 9.60536 15.7929 9.79289C15.6054 9.98043 15.5 10.2348 15.5 10.5Z" stroke="black" stroke-width="1.5" stroke-linecap="round" stroke-linejoin="round"/>
<path d="M3 3L21 21" stroke="black" stroke-width="1.5" stroke-linecap="round" stroke-linejoin="round"/>
</g>
<defs>
<clipPath id="clip0_211_88328">
<rect width="24" height="24" fill="white"/>
</clipPath>
</defs>
</svg>
