<svg width="24" height="24" viewBox="0 0 24 24" fill="none" xmlns="http://www.w3.org/2000/svg">
<g clip-path="url(#clip0_211_88386)">
<path d="M4.43038 4.44238C4.04489 4.67905 3.71791 4.99983 3.47391 5.38071C3.2299 5.7616 3.07519 6.19273 3.02133 6.64186C2.96748 7.09098 3.01589 7.54647 3.16294 7.97424C3.30999 8.40201 3.55187 8.791 3.87048 9.11209C4.18909 9.43318 4.57619 9.67806 5.00281 9.82842C5.42943 9.97877 5.88453 10.0307 6.33405 9.98034C6.78358 9.92997 7.2159 9.7786 7.59867 9.53756C7.98143 9.29651 8.30473 8.97203 8.54438 8.58838" stroke="black" stroke-width="1.5" stroke-linecap="round" stroke-linejoin="round"/>
<path d="M3 17C3 17.7956 3.31607 18.5587 3.87868 19.1213C4.44129 19.6839 5.20435 20 6 20C6.79565 20 7.55871 19.6839 8.12132 19.1213C8.68393 18.5587 9 17.7956 9 17C9 16.2044 8.68393 15.4413 8.12132 14.8787C7.55871 14.3161 6.79565 14 6 14C5.20435 14 4.44129 14.3161 3.87868 14.8787C3.31607 15.4413 3 16.2044 3 17Z" stroke="black" stroke-width="1.5" stroke-linecap="round" stroke-linejoin="round"/>
<path d="M8.60156 15.4L12.0016 12M14.0016 10L19.0016 5" stroke="black" stroke-width="1.5" stroke-linecap="round" stroke-linejoin="round"/>
<path d="M3 3L21 21" stroke="black" stroke-width="1.5" stroke-linecap="round" stroke-linejoin="round"/>
</g>
<defs>
<clipPath id="clip0_211_88386">
<rect width="24" height="24" fill="white"/>
</clipPath>
</defs>
</svg>
