<svg width="24" height="24" viewBox="0 0 24 24" fill="none" xmlns="http://www.w3.org/2000/svg">
<g clip-path="url(#clip0_211_87920)">
<path d="M6.79809 11C6.2722 11.9122 5.99561 12.9467 5.99609 13.9996C5.99658 15.0525 6.27413 16.0867 6.80087 16.9984C7.3276 17.9101 8.08497 18.6671 8.99689 19.1934C9.90882 19.7197 10.9432 19.9968 11.9961 19.9968C13.049 19.9968 14.0834 19.7197 14.9953 19.1934C15.9072 18.6671 16.6646 17.9101 17.1913 16.9984C17.7181 16.0867 17.9956 15.0525 17.9961 13.9996C17.9966 12.9467 17.72 11.9122 17.1941 11L11.9971 3L6.79709 11H6.79809Z" stroke="black" stroke-width="1.5" stroke-linecap="round" stroke-linejoin="round"/>
<path d="M6 14H18" stroke="black" stroke-width="1.5" stroke-linecap="round" stroke-linejoin="round"/>
<path d="M7.30469 17.695L10.9997 14" stroke="black" stroke-width="1.5" stroke-linecap="round" stroke-linejoin="round"/>
<path d="M10.2617 19.74L16.0017 14" stroke="black" stroke-width="1.5" stroke-linecap="round" stroke-linejoin="round"/>
</g>
<defs>
<clipPath id="clip0_211_87920">
<rect width="24" height="24" fill="white"/>
</clipPath>
</defs>
</svg>
