<svg width="24" height="24" viewBox="0 0 24 24" fill="none" xmlns="http://www.w3.org/2000/svg">
<g clip-path="url(#clip0_211_87974)">
<path d="M10.507 10.4981L9 12.0001V15.0001H12L13.493 13.5021M15.493 11.4921L20.383 6.58511C20.7768 6.19126 20.9981 5.65709 20.9981 5.10011C20.9981 4.54312 20.7768 4.00895 20.383 3.61511C19.9892 3.22126 19.455 3 18.898 3C18.341 3 17.8068 3.22126 17.413 3.61511L12.5 8.51111" stroke="black" stroke-width="1.5" stroke-linecap="round" stroke-linejoin="round"/>
<path d="M16 5L19 8" stroke="black" stroke-width="1.5" stroke-linecap="round" stroke-linejoin="round"/>
<path d="M7.4757 7.4707C5.95188 8.05986 4.68213 9.16346 3.88641 10.5903C3.09069 12.0172 2.81912 13.6775 3.11874 15.2835C3.41837 16.8895 4.27031 18.3402 5.527 19.3841C6.78369 20.4281 8.36595 20.9996 9.9997 20.9997C11.4125 21 12.7923 20.5729 13.9578 19.7743C15.1233 18.9758 16.0199 17.8433 16.5297 16.5257" stroke="black" stroke-width="1.5" stroke-linecap="round" stroke-linejoin="round"/>
<path d="M3 3L21 21" stroke="black" stroke-width="1.5" stroke-linecap="round" stroke-linejoin="round"/>
</g>
<defs>
<clipPath id="clip0_211_87974">
<rect width="24" height="24" fill="white"/>
</clipPath>
</defs>
</svg>
