<svg width="24" height="24" viewBox="0 0 24 24" fill="none" xmlns="http://www.w3.org/2000/svg">
<g clip-path="url(#clip0_211_87400)">
<path d="M12 3V8M12 12V20" stroke="black" stroke-width="1.5" stroke-linecap="round" stroke-linejoin="round"/>
<path d="M5.64091 5.63058C3.95175 7.31723 3.00178 9.60581 3 11.9929C2.99822 14.3799 3.94477 16.6699 5.63141 18.3591C7.31806 20.0482 9.60664 20.9982 11.9937 21C14.3808 21.0018 16.6707 20.0552 18.3599 18.3686M20.0399 16.0506C20.893 14.3604 21.1914 12.4443 20.8926 10.5748C20.5938 8.70524 19.7131 6.97755 18.3757 5.63749C17.0383 4.29743 15.3123 3.41325 13.4434 3.11075C11.5745 2.80825 9.65775 3.10283 7.96591 3.95258" stroke="black" stroke-width="1.5" stroke-linecap="round" stroke-linejoin="round"/>
<path d="M16 12H21" stroke="black" stroke-width="1.5" stroke-linecap="round" stroke-linejoin="round"/>
<path d="M13 9H20" stroke="black" stroke-width="1.5" stroke-linecap="round" stroke-linejoin="round"/>
<path d="M12 6H18" stroke="black" stroke-width="1.5" stroke-linecap="round" stroke-linejoin="round"/>
<path d="M12 18H18" stroke="black" stroke-width="1.5" stroke-linecap="round" stroke-linejoin="round"/>
<path d="M12 15H15M19 15H20" stroke="black" stroke-width="1.5" stroke-linecap="round" stroke-linejoin="round"/>
<path d="M3 3L21 21" stroke="black" stroke-width="1.5" stroke-linecap="round" stroke-linejoin="round"/>
</g>
<defs>
<clipPath id="clip0_211_87400">
<rect width="24" height="24" fill="white"/>
</clipPath>
</defs>
</svg>
