<svg width="24" height="24" viewBox="0 0 24 24" fill="none" xmlns="http://www.w3.org/2000/svg">
<g clip-path="url(#clip0_211_88308)">
<path d="M19.42 19.41C19.2339 19.5972 19.0127 19.7457 18.769 19.8469C18.5253 19.9482 18.2639 20.0002 18 20H6C5.46957 20 4.96086 19.7893 4.58579 19.4142C4.21071 19.0391 4 18.5304 4 18V6C4 5.446 4.225 4.945 4.588 4.583M8 4H18C18.5304 4 19.0391 4.21071 19.4142 4.58579C19.7893 4.96086 20 5.46957 20 6V16" stroke="black" stroke-width="1.5" stroke-linecap="round" stroke-linejoin="round"/>
<path d="M9.88691 9.8722C9.60478 10.1501 9.38047 10.4811 9.22691 10.8462C9.07335 11.2112 8.99358 11.603 8.99221 11.999C8.99083 12.395 9.06788 12.7874 9.2189 13.1535C9.36992 13.5196 9.59193 13.8522 9.87212 14.132C10.1523 14.4119 10.4851 14.6335 10.8514 14.7841C11.2177 14.9347 11.6101 15.0113 12.0061 15.0094C12.4022 15.0076 12.7939 14.9273 13.1587 14.7733C13.5236 14.6194 13.8543 14.3947 14.1319 14.1122M14.7139 10.7162C14.4148 10.0865 13.9066 9.58007 13.2759 9.2832" stroke="black" stroke-width="1.5" stroke-linecap="round" stroke-linejoin="round"/>
<path d="M3 3L21 21" stroke="black" stroke-width="1.5" stroke-linecap="round" stroke-linejoin="round"/>
</g>
<defs>
<clipPath id="clip0_211_88308">
<rect width="24" height="24" fill="white"/>
</clipPath>
</defs>
</svg>
