<svg width="24" height="24" viewBox="0 0 24 24" fill="none" xmlns="http://www.w3.org/2000/svg">
<g clip-path="url(#clip0_211_88071)">
<path d="M18.3641 18.3641C17.5283 19.1998 16.5362 19.8627 15.4442 20.315C14.3523 20.7673 13.182 21.0001 12.0001 21.0001C10.8182 21.0001 9.64782 20.7673 8.55588 20.315C7.46395 19.8627 6.47179 19.1998 5.63605 18.3641C4.80032 17.5283 4.13738 16.5362 3.68509 15.4442C3.23279 14.3523 3 13.182 3 12.0001C3 10.8182 3.23279 9.64782 3.68509 8.55588C4.13738 7.46395 4.80032 6.47179 5.63606 5.63606C7.32389 3.94822 9.61309 3 12.0001 3C14.387 3 16.6762 3.94822 18.3641 5.63606C20.0519 7.32389 21.0001 9.61309 21.0001 12.0001C21.0001 14.387 20.0519 16.6762 18.3641 18.3641Z" stroke="black" stroke-width="1.5" stroke-linecap="round" stroke-linejoin="round"/>
<path d="M16.2422 7.75684C16.7994 8.314 17.2415 8.97548 17.5431 9.7035C17.8447 10.4315 17.9999 11.2118 17.9999 11.9998C17.9999 12.7879 17.8447 13.5682 17.5431 14.2962C17.2415 15.0242 16.7994 15.6857 16.2422 16.2428" stroke="black" stroke-width="1.5" stroke-linecap="round" stroke-linejoin="round"/>
</g>
<defs>
<clipPath id="clip0_211_88071">
<rect width="24" height="24" fill="white"/>
</clipPath>
</defs>
</svg>
