<svg width="24" height="24" viewBox="0 0 24 24" fill="none" xmlns="http://www.w3.org/2000/svg">
<path opacity="0.4" d="M19.24 5.58H18.84L15.46 2.2C15.19 1.93 14.75 1.93 14.47 2.2C14.2 2.47 14.2 2.91 14.47 3.19L16.86 5.58H7.14L9.53 3.19C9.8 2.92 9.8 2.48 9.53 2.2C9.26 1.93 8.82 1.93 8.54 2.2L5.17 5.58H4.77C3.87 5.58 2 5.58 2 8.14C2 9.11 2.2 9.75 2.62 10.17C2.86 10.42 3.15 10.55 3.46 10.62C3.75 10.69 4.06 10.7 4.36 10.7H19.64C19.95 10.7 20.24 10.68 20.52 10.62C21.36 10.42 22 9.82 22 8.14C22 5.58 20.13 5.58 19.24 5.58Z" fill="#171717"/>
<path d="M19.65 10.7H4.35996C4.06996 10.7 3.74996 10.69 3.45996 10.61L4.71996 18.3C4.99996 20.02 5.74996 22 9.07996 22H14.69C18.06 22 18.66 20.31 19.02 18.42L20.53 10.61C20.25 10.68 19.95 10.7 19.65 10.7ZM12 18.5C9.65996 18.5 7.74996 16.59 7.74996 14.25C7.74996 13.84 8.08996 13.5 8.49996 13.5C8.90996 13.5 9.24996 13.84 9.24996 14.25C9.24996 15.77 10.48 17 12 17C13.52 17 14.75 15.77 14.75 14.25C14.75 13.84 15.09 13.5 15.5 13.5C15.91 13.5 16.25 13.84 16.25 14.25C16.25 16.59 14.34 18.5 12 18.5Z" fill="#171717"/>
</svg>
