<svg width="24" height="24" viewBox="0 0 24 24" fill="none" xmlns="http://www.w3.org/2000/svg">
<path d="M7.80023 22.15C5.15023 22.15 2.99023 20 2.99023 17.34V14.5C2.99023 13.83 3.65023 13.38 4.28023 13.6C4.54023 13.69 4.80023 13.75 5.07023 13.79C5.19023 13.81 5.31023 13.83 5.43023 13.83C5.58023 13.85 5.74023 13.86 5.89023 13.86C7.00023 13.86 8.10023 13.45 8.97023 12.74C9.80023 13.45 10.8702 13.86 12.0102 13.86C13.1502 13.86 14.2102 13.47 15.0402 12.75C15.9002 13.45 16.9802 13.86 18.0802 13.86C18.2502 13.86 18.4302 13.85 18.5902 13.83C18.7102 13.82 18.8102 13.81 18.9202 13.79C19.2202 13.75 19.4902 13.67 19.7602 13.58C20.3802 13.37 21.0302 13.83 21.0302 14.48V17.34C21.0302 19.99 18.8802 22.15 16.2202 22.15H7.80023Z" fill="#171717"/>
<path d="M21.9799 8.59001L21.6999 5.93001C21.2999 3.03001 19.9799 1.85001 17.1699 1.85001H6.81985C3.99985 1.85001 2.68985 3.03001 2.27985 5.96001L2.01985 8.60001C1.91985 9.63001 2.19985 10.63 2.80985 11.41C3.53985 12.36 4.65985 12.9 5.90985 12.9C7.11985 12.9 8.27985 12.29 9.01985 11.32C9.66985 12.29 10.7799 12.9 12.0199 12.9C13.2599 12.9 14.3499 12.32 15.0099 11.36C15.7499 12.31 16.8999 12.9 18.0899 12.9C19.3699 12.9 20.5199 12.33 21.2399 11.33C21.8199 10.56 22.0799 9.59001 21.9799 8.59001ZM13.4999 7.73001H10.4999C10.0899 7.73001 9.74985 7.40001 9.74985 6.98001C9.74985 6.57001 10.0899 6.23001 10.4999 6.23001H13.4999C13.9099 6.23001 14.2499 6.57001 14.2499 6.98001C14.2499 7.40001 13.9099 7.73001 13.4999 7.73001Z" fill="#171717"/>
</svg>
