<svg width="24" height="24" viewBox="0 0 24 24" fill="none" xmlns="http://www.w3.org/2000/svg">
<path opacity="0.4" d="M16.1899 8.86001C15.7999 8.86001 15.4899 8.55001 15.4899 8.16001V6.88001C15.4899 5.90001 15.0699 4.96001 14.3499 4.30001C13.6099 3.63001 12.6599 3.32001 11.6599 3.41001C9.97986 3.57001 8.50986 5.28001 8.50986 7.06001V7.96001C8.50986 8.35001 8.19986 8.66001 7.80986 8.66001C7.41986 8.66001 7.10986 8.35001 7.10986 7.96001V7.06001C7.10986 4.56001 9.12986 2.25001 11.5199 2.02001C12.9099 1.89001 14.2499 2.33001 15.2799 3.27001C16.2999 4.19001 16.8799 5.51001 16.8799 6.88001V8.16001C16.8799 8.55001 16.5699 8.86001 16.1899 8.86001Z" fill="#171717"/>
<path d="M19.9602 8.96C19.1202 8.03 17.7402 7.58 15.7202 7.58H8.28023C6.26023 7.58 4.88023 8.03 4.04023 8.96C3.07023 10.04 3.10023 11.48 3.21023 12.48L3.91023 18.05C4.12023 20 4.91023 22 9.21023 22H14.7902C19.0902 22 19.8802 20 20.0902 18.06L20.7902 12.47C20.9002 11.48 20.9202 10.04 19.9602 8.96ZM8.42023 13.15H8.41023C7.86023 13.15 7.41023 12.7 7.41023 12.15C7.41023 11.6 7.86023 11.15 8.41023 11.15C8.97023 11.15 9.42023 11.6 9.42023 12.15C9.42023 12.7 8.97023 13.15 8.42023 13.15ZM15.4202 13.15H15.4102C14.8602 13.15 14.4102 12.7 14.4102 12.15C14.4102 11.6 14.8602 11.15 15.4102 11.15C15.9702 11.15 16.4202 11.6 16.4202 12.15C16.4202 12.7 15.9702 13.15 15.4202 13.15Z" fill="#171717"/>
</svg>
