<svg width="24" height="24" viewBox="0 0 24 24" fill="none" xmlns="http://www.w3.org/2000/svg">
<path d="M19.9602 8.95999C19.2902 8.21999 18.2802 7.78999 16.8802 7.63999V6.87999C16.8802 5.50999 16.3002 4.18999 15.2802 3.26999C14.2502 2.32999 12.9102 1.88999 11.5202 2.01999C9.13023 2.24999 7.12023 4.55999 7.12023 7.05999V7.63999C5.72023 7.78999 4.71023 8.21999 4.04023 8.95999C3.07023 10.04 3.10023 11.48 3.21023 12.48L3.91023 18.05C4.12023 20 4.91023 22 9.21023 22H14.7902C19.0902 22 19.8802 20 20.0902 18.06L20.7902 12.47C20.9002 11.48 20.9302 10.04 19.9602 8.95999ZM11.6602 3.40999C12.6602 3.31999 13.6102 3.62999 14.3502 4.29999C15.0802 4.95999 15.4902 5.89999 15.4902 6.87999V7.57999H8.51023V7.05999C8.51023 5.27999 9.98023 3.56999 11.6602 3.40999ZM12.0002 18.58C9.91023 18.58 8.21023 16.88 8.21023 14.79C8.21023 12.7 9.91023 11 12.0002 11C14.0902 11 15.7902 12.7 15.7902 14.79C15.7902 16.88 14.0902 18.58 12.0002 18.58Z" fill="#171717"/>
<path d="M10.9999 16.58C10.7499 16.58 10.4999 16.45 10.3599 16.22C10.1499 15.87 10.2599 15.4 10.6199 15.19L11.5099 14.66V13.58C11.5099 13.17 11.8499 12.83 12.2599 12.83C12.6699 12.83 12.9999 13.16 12.9999 13.58V15.08C12.9999 15.34 12.8599 15.59 12.6399 15.72L11.3899 16.47C11.2699 16.54 11.1299 16.58 10.9999 16.58Z" fill="#171717"/>
</svg>
