<svg width="24" height="24" viewBox="0 0 24 24" fill="none" xmlns="http://www.w3.org/2000/svg">
<path opacity="0.4" d="M16.1899 8.86001C15.7999 8.86001 15.4899 8.55001 15.4899 8.16001V6.88001C15.4899 5.90001 15.0699 4.96001 14.3499 4.30001C13.6099 3.63001 12.6599 3.32001 11.6599 3.41001C9.97986 3.57001 8.50986 5.28001 8.50986 7.06001V7.96001C8.50986 8.35001 8.19986 8.66001 7.80986 8.66001C7.41986 8.66001 7.10986 8.35001 7.10986 7.96001V7.06001C7.10986 4.56001 9.12986 2.25001 11.5199 2.02001C12.9099 1.89001 14.2499 2.33001 15.2799 3.27001C16.2999 4.19001 16.8799 5.51001 16.8799 6.88001V8.16001C16.8799 8.55001 16.5699 8.86001 16.1899 8.86001Z" fill="#171717"/>
<path d="M19.9602 8.96C19.1202 8.03 17.7402 7.58 15.7202 7.58H8.28023C6.26023 7.58 4.88023 8.03 4.04023 8.96C3.07023 10.04 3.10023 11.48 3.21023 12.48L3.91023 18.05C4.12023 20 4.91023 22 9.21023 22H14.7902C19.0902 22 19.8802 20 20.0902 18.06L20.7902 12.47C20.9002 11.48 20.9302 10.04 19.9602 8.96ZM12.0002 18.58C9.91023 18.58 8.21023 16.88 8.21023 14.79C8.21023 12.7 9.91023 11 12.0002 11C14.0902 11 15.7902 12.7 15.7902 14.79C15.7902 16.88 14.0902 18.58 12.0002 18.58Z" fill="#171717"/>
<path opacity="0.4" d="M15.79 14.79C15.79 16.88 14.09 18.58 12 18.58C9.90996 18.58 8.20996 16.88 8.20996 14.79C8.20996 12.7 9.90996 11 12 11C14.09 11 15.79 12.7 15.79 14.79Z" fill="#171717"/>
<path d="M10.9999 16.58C10.7499 16.58 10.4999 16.45 10.3599 16.22C10.1499 15.87 10.2599 15.4 10.6199 15.19L11.5099 14.66V13.58C11.5099 13.17 11.8499 12.83 12.2599 12.83C12.6699 12.83 12.9999 13.16 12.9999 13.58V15.08C12.9999 15.34 12.8599 15.59 12.6399 15.72L11.3899 16.47C11.2699 16.54 11.1299 16.58 10.9999 16.58Z" fill="#171717"/>
</svg>
