<svg width="24" height="24" viewBox="0 0 24 24" fill="none" xmlns="http://www.w3.org/2000/svg">
<path d="M19.24 5.58H18.84L15.46 2.2C15.19 1.93 14.75 1.93 14.47 2.2C14.2 2.47 14.2 2.91 14.47 3.19L16.86 5.58H7.14L9.53 3.19C9.8 2.92 9.8 2.48 9.53 2.2C9.26 1.93 8.82 1.93 8.54 2.2L5.17 5.58H4.77C3.87 5.58 2 5.58 2 8.14C2 9.11 2.2 9.75 2.62 10.17C2.86 10.42 3.15 10.55 3.46 10.62C3.75 10.69 4.06 10.7 4.36 10.7H19.64C19.95 10.7 20.24 10.68 20.52 10.62C21.36 10.42 22 9.82 22 8.14C22 5.58 20.13 5.58 19.24 5.58Z" fill="#171717"/>
<path d="M19.0902 12H4.91019C4.29019 12 3.82019 12.55 3.92019 13.16L4.76019 18.3C5.04019 20.02 5.79019 22 9.12019 22H14.7302C18.1002 22 18.7002 20.31 19.0602 18.42L20.0702 13.19C20.1902 12.57 19.7202 12 19.0902 12ZM13.9202 18.89C13.7802 19.04 13.5902 19.11 13.3902 19.11C13.2002 19.11 13.0102 19.04 12.8602 18.89L12.0202 18.04L11.1402 18.92C10.9902 19.07 10.8002 19.14 10.6102 19.14C10.4102 19.14 10.2202 19.07 10.0802 18.92C9.78019 18.63 9.78019 18.16 10.0802 17.86L10.9602 16.98L10.1102 16.14C9.81019 15.84 9.81019 15.37 10.1102 15.08C10.4002 14.78 10.8702 14.78 11.1702 15.08L12.0202 15.92L12.8302 15.11C13.1302 14.81 13.6002 14.81 13.8902 15.11C14.1902 15.4 14.1902 15.87 13.8902 16.17L13.0802 16.98L13.9202 17.83C14.2202 18.13 14.2202 18.6 13.9202 18.89Z" fill="#171717"/>
</svg>
