<svg width="24" height="24" viewBox="0 0 24 24" fill="none" xmlns="http://www.w3.org/2000/svg">
<path opacity="0.4" d="M16.1899 8.86001C15.7999 8.86001 15.4899 8.55001 15.4899 8.16001V6.88001C15.4899 5.90001 15.0699 4.96001 14.3499 4.30001C13.6099 3.63001 12.6599 3.32001 11.6599 3.41001C9.97986 3.57001 8.50986 5.28001 8.50986 7.06001V7.96001C8.50986 8.35001 8.19986 8.66001 7.80986 8.66001C7.41986 8.66001 7.10986 8.35001 7.10986 7.96001V7.06001C7.10986 4.56001 9.12986 2.25001 11.5199 2.02001C12.9099 1.89001 14.2499 2.33001 15.2799 3.27001C16.2999 4.19001 16.8799 5.51001 16.8799 6.88001V8.16001C16.8799 8.55001 16.5699 8.86001 16.1899 8.86001Z" fill="#171717"/>
<path d="M19.9602 8.96C19.1202 8.03 17.7402 7.58 15.7202 7.58H8.28023C6.26023 7.58 4.88023 8.03 4.04023 8.96C3.07023 10.04 3.10023 11.48 3.21023 12.48L3.91023 18.05C4.12023 20 4.91023 22 9.21023 22H14.7902C19.0902 22 19.8802 20 20.0902 18.06L20.7902 12.47C20.9002 11.48 20.9302 10.04 19.9602 8.96ZM12.0002 18.58C9.91023 18.58 8.21023 16.88 8.21023 14.79C8.21023 12.7 9.91023 11 12.0002 11C14.0902 11 15.7902 12.7 15.7902 14.79C15.7902 16.88 14.0902 18.58 12.0002 18.58Z" fill="#171717"/>
<path opacity="0.4" d="M12 18.58C14.0931 18.58 15.79 16.8832 15.79 14.79C15.79 12.6968 14.0931 11 12 11C9.9068 11 8.20996 12.6968 8.20996 14.79C8.20996 16.8832 9.9068 18.58 12 18.58Z" fill="#171717"/>
<path d="M11.4299 16.64C11.2399 16.64 11.0499 16.57 10.8999 16.42L9.90988 15.43C9.61988 15.14 9.61988 14.66 9.90988 14.37C10.1999 14.08 10.6799 14.08 10.9699 14.37L11.4499 14.85L13.0499 13.37C13.3499 13.09 13.8299 13.11 14.1099 13.41C14.3899 13.71 14.3699 14.19 14.0699 14.47L11.9399 16.44C11.7899 16.57 11.6099 16.64 11.4299 16.64Z" fill="#171717"/>
</svg>
