<svg width="24" height="24" viewBox="0 0 24 24" fill="none" xmlns="http://www.w3.org/2000/svg">
<path opacity="0.4" d="M21.05 11.71V17.7C21.05 20.46 18.81 22.7 16.05 22.7H7.31006C7.08006 22.7 6.85007 22.68 6.63007 22.65C7.00007 22.49 7.33007 22.27 7.63007 22C7.67007 21.97 7.70004 21.94 7.73004 21.9C8.00004 21.67 8.23004 21.38 8.42004 21.06C8.79004 20.46 9.00006 19.75 9.00006 19C9.00006 17.95 8.59005 17 7.93005 16.28C7.83005 16.17 7.72004 16.06 7.60004 15.97C6.90004 15.36 6.00006 15 5.00006 15C4.29006 15 3.62004 15.19 3.04004 15.52C2.85004 15.62 2.67006 15.74 2.50006 15.88C2.43006 15.93 2.37006 15.99 2.31006 16.05V11.78C3.07006 12.6 4.15007 13.07 5.32007 13.07C6.58007 13.07 7.79005 12.44 8.55005 11.43C9.23005 12.44 10.3901 13.07 11.6801 13.07C12.9601 13.07 14.1 12.47 14.79 11.47C15.56 12.46 16.7501 13.07 17.9901 13.07C19.2001 13.07 20.3 12.58 21.05 11.71Z" fill="#171717"/>
<path d="M14.67 1.57001H8.67002L7.93003 8.92999C7.87003 9.60999 7.97001 10.25 8.22001 10.83C8.80001 12.19 10.16 13.07 11.68 13.07C13.22 13.07 14.5501 12.21 15.1501 10.84C15.3301 10.41 15.44 9.91002 15.45 9.40002V9.21002L14.67 1.57001Z" fill="#171717"/>
<path opacity="0.6" d="M22.0402 8.59003L21.7602 5.81C21.3402 2.79 19.9702 1.56 17.0402 1.56H13.2002L13.9402 9.06C13.9502 9.16 13.9602 9.27002 13.9602 9.46002C14.0202 9.98002 14.1802 10.46 14.4202 10.89C15.1402 12.21 16.5402 13.06 18.0002 13.06C19.3302 13.06 20.5302 12.47 21.2802 11.43C21.8702 10.64 22.1402 9.63003 22.0402 8.59003Z" fill="#171717"/>
<path opacity="0.6" d="M6.26983 1.57001C3.32983 1.57001 1.96978 2.79998 1.53978 5.84998L1.26983 8.59998C1.16983 9.66998 1.45983 10.71 2.08983 11.52C2.84983 12.51 4.01981 13.07 5.31981 13.07C6.77981 13.07 8.17982 12.22 8.88982 10.92C9.14982 10.47 9.3198 9.94997 9.3698 9.40997L10.1498 1.58002H6.26983V1.57001Z" fill="#171717"/>
<path d="M7.92999 16.28C7.82999 16.17 7.71998 16.06 7.59998 15.97C6.89998 15.36 6 15 5 15C4.29 15 3.61998 15.19 3.03998 15.52C2.84998 15.62 2.67 15.74 2.5 15.88C1.58 16.61 1 17.74 1 19C1 19.75 1.21002 20.46 1.58002 21.06C1.67002 21.22 1.78002 21.37 1.90002 21.51C1.92002 21.54 1.94997 21.56 1.96997 21.59C2.68997 22.45 3.78 23 5 23C6.01 23 6.93001 22.63 7.63 22C7.67 21.97 7.69998 21.94 7.72998 21.9C7.99998 21.67 8.22998 21.38 8.41998 21.06C8.78998 20.46 9 19.75 9 19C9 17.95 8.58999 17 7.92999 16.28ZM6.5 19.73H5.75V20.51C5.75 20.92 5.41 21.26 5 21.26C4.59 21.26 4.25 20.92 4.25 20.51V19.73H3.5C3.09 19.73 2.75 19.39 2.75 18.98C2.75 18.57 3.09 18.23 3.5 18.23H4.25V17.52C4.25 17.11 4.59 16.77 5 16.77C5.41 16.77 5.75 17.11 5.75 17.52V18.23H6.5C6.91 18.23 7.25 18.57 7.25 18.98C7.25 19.39 6.91 19.73 6.5 19.73Z" fill="#171717"/>
</svg>
