<svg width="24" height="24" viewBox="0 0 24 24" fill="none" xmlns="http://www.w3.org/2000/svg">
<path d="M13.3898 18.11C13.1998 18.11 13.0098 18.04 12.8598 17.89L10.0998 15.13C9.80982 14.84 9.80982 14.36 10.0998 14.07C10.3898 13.78 10.8698 13.78 11.1598 14.07L13.9198 16.83C14.2098 17.12 14.2098 17.6 13.9198 17.89C13.7798 18.04 13.5898 18.11 13.3898 18.11Z" fill="#171717"/>
<path d="M10.6098 18.14C10.4198 18.14 10.2298 18.07 10.0798 17.92C9.7898 17.63 9.7898 17.15 10.0798 16.86L12.8398 14.1C13.1298 13.81 13.6098 13.81 13.8998 14.1C14.1898 14.39 14.1898 14.87 13.8998 15.16L11.1398 17.92C10.9898 18.07 10.7998 18.14 10.6098 18.14Z" fill="#171717"/>
<path d="M5.18988 6.38C4.99988 6.38 4.79988 6.3 4.65988 6.16C4.36988 5.87 4.36988 5.39 4.65988 5.1L8.28988 1.47C8.57988 1.18 9.05988 1.18 9.34988 1.47C9.63988 1.76 9.63988 2.24 9.34988 2.53L5.71988 6.16C5.56988 6.3 5.37988 6.38 5.18988 6.38Z" fill="#171717"/>
<path d="M18.8101 6.38C18.6201 6.38 18.4301 6.31 18.2801 6.16L14.6501 2.53C14.3601 2.24 14.3601 1.76 14.6501 1.47C14.9401 1.18 15.4201 1.18 15.7101 1.47L19.3401 5.1C19.6301 5.39 19.6301 5.87 19.3401 6.16C19.2001 6.3 19.0001 6.38 18.8101 6.38Z" fill="#171717"/>
<path d="M20.21 10.6C20.14 10.6 20.07 10.6 20 10.6H19.77H4C3.3 10.61 2.5 10.61 1.92 10.03C1.46 9.58001 1.25 8.88001 1.25 7.85001C1.25 5.10001 3.26 5.10001 4.22 5.10001H19.78C20.74 5.10001 22.75 5.10001 22.75 7.85001C22.75 8.89001 22.54 9.58001 22.08 10.03C21.56 10.55 20.86 10.6 20.21 10.6ZM4.22 9.10001H20.01C20.46 9.11001 20.88 9.11001 21.02 8.97001C21.09 8.90001 21.24 8.66001 21.24 7.85001C21.24 6.72001 20.96 6.60001 19.77 6.60001H4.22C3.03 6.60001 2.75 6.72001 2.75 7.85001C2.75 8.66001 2.91 8.90001 2.97 8.97001C3.11 9.10001 3.54 9.10001 3.98 9.10001H4.22Z" fill="#171717"/>
<path d="M14.8902 22.75H8.86024C5.28024 22.75 4.48024 20.62 4.17024 18.77L2.76024 10.12C2.69024 9.71 2.97024 9.33 3.38024 9.26C3.79024 9.19 4.17024 9.47 4.24024 9.88L5.65024 18.52C5.94024 20.29 6.54024 21.25 8.86024 21.25H14.8902C17.4602 21.25 17.7502 20.35 18.0802 18.61L19.7602 9.86C19.8402 9.45 20.2302 9.18 20.6402 9.27C21.0502 9.35 21.3102 9.74 21.2302 10.15L19.5502 18.9C19.1602 20.93 18.5102 22.75 14.8902 22.75Z" fill="#171717"/>
</svg>
