<svg width="24" height="24" viewBox="0 0 24 24" fill="none" xmlns="http://www.w3.org/2000/svg">
<g clip-path="url(#clip0_211_80951)">
<path d="M4 19C4 19.5304 4.21071 20.0391 4.58579 20.4142C4.96086 20.7893 5.46957 21 6 21C6.53043 21 7.03914 20.7893 7.41421 20.4142C7.78929 20.0391 8 19.5304 8 19C8 18.4696 7.78929 17.9609 7.41421 17.5858C7.03914 17.2107 6.53043 17 6 17C5.46957 17 4.96086 17.2107 4.58579 17.5858C4.21071 17.9609 4 18.4696 4 19Z" stroke="black" stroke-width="1.5" stroke-linecap="round" stroke-linejoin="round"/>
<path d="M15 19C15 19.5304 15.2107 20.0391 15.5858 20.4142C15.9609 20.7893 16.4696 21 17 21C17.5304 21 18.0391 20.7893 18.4142 20.4142C18.7893 20.0391 19 19.5304 19 19C19 18.4696 18.7893 17.9609 18.4142 17.5858C18.0391 17.2107 17.5304 17 17 17C16.4696 17 15.9609 17.2107 15.5858 17.5858C15.2107 17.9609 15 18.4696 15 19Z" stroke="black" stroke-width="1.5" stroke-linecap="round" stroke-linejoin="round"/>
<path d="M17 17H6V3H4" stroke="black" stroke-width="1.5" stroke-linecap="round" stroke-linejoin="round"/>
<path d="M20 6L19 13H6" stroke="black" stroke-width="1.5" stroke-linecap="round" stroke-linejoin="round"/>
<path d="M10 10L16 4" stroke="black" stroke-width="1.5" stroke-linecap="round" stroke-linejoin="round"/>
<path d="M10 4.5C10 4.63261 10.0527 4.75979 10.1464 4.85355C10.2402 4.94732 10.3674 5 10.5 5C10.6326 5 10.7598 4.94732 10.8536 4.85355C10.9473 4.75979 11 4.63261 11 4.5C11 4.36739 10.9473 4.24021 10.8536 4.14645C10.7598 4.05268 10.6326 4 10.5 4C10.3674 4 10.2402 4.05268 10.1464 4.14645C10.0527 4.24021 10 4.36739 10 4.5Z" stroke="black" stroke-width="1.5" stroke-linecap="round" stroke-linejoin="round"/>
<path d="M15 9.5C15 9.63261 15.0527 9.75979 15.1464 9.85355C15.2402 9.94732 15.3674 10 15.5 10C15.6326 10 15.7598 9.94732 15.8536 9.85355C15.9473 9.75979 16 9.63261 16 9.5C16 9.36739 15.9473 9.24021 15.8536 9.14645C15.7598 9.05268 15.6326 9 15.5 9C15.3674 9 15.2402 9.05268 15.1464 9.14645C15.0527 9.24021 15 9.36739 15 9.5Z" stroke="black" stroke-width="1.5" stroke-linecap="round" stroke-linejoin="round"/>
</g>
<defs>
<clipPath id="clip0_211_80951">
<rect width="24" height="24" fill="white"/>
</clipPath>
</defs>
</svg>
