<svg width="24" height="24" viewBox="0 0 24 24" fill="none" xmlns="http://www.w3.org/2000/svg">
<g clip-path="url(#clip0_211_80988)">
<path d="M7.79243 7.79297C7.61027 7.98157 7.50948 8.23417 7.51176 8.49637C7.51403 8.75857 7.6192 9.00938 7.80461 9.19479C7.99002 9.3802 8.24083 9.48536 8.50303 9.48764C8.76523 9.48992 9.01783 9.38913 9.20643 9.20697" stroke="black" stroke-width="1.5" stroke-linecap="round" stroke-linejoin="round"/>
<path d="M4.88 4.87695C4.60055 5.15529 4.37892 5.48617 4.22789 5.85053C4.07686 6.21489 3.99941 6.60553 4 6.99995V10.859C4 11.396 4.213 11.911 4.593 12.291L12.709 20.407C12.897 20.595 13.1203 20.7442 13.366 20.846C13.6117 20.9478 13.8751 21.0002 14.141 21.0002C14.407 21.0002 14.6703 20.9478 14.916 20.846C15.1617 20.7442 15.385 20.595 15.573 20.407L17.989 17.991M19.989 15.991L20.405 15.575C20.5931 15.3869 20.7423 15.1637 20.844 14.918C20.9458 14.6723 20.9982 14.4089 20.9982 14.143C20.9982 13.877 20.9458 13.6137 20.844 13.3679C20.7423 13.1222 20.5931 12.899 20.405 12.711L12.288 4.59495C11.9084 4.21545 11.3937 4.00216 10.857 4.00195H7.998" stroke="black" stroke-width="1.5" stroke-linecap="round" stroke-linejoin="round"/>
<path d="M3 3L21 21" stroke="black" stroke-width="1.5" stroke-linecap="round" stroke-linejoin="round"/>
</g>
<defs>
<clipPath id="clip0_211_80988">
<rect width="24" height="24" fill="white"/>
</clipPath>
</defs>
</svg>
