<svg width="24" height="24" viewBox="0 0 24 24" fill="none" xmlns="http://www.w3.org/2000/svg">
<g clip-path="url(#clip0_211_80997)">
<path d="M6 6H5.025C4.48794 6 3.97287 6.21335 3.59311 6.59311C3.21335 6.97287 3 7.48794 3 8.025V10.859C3 11.396 3.213 11.911 3.593 12.291L9.709 18.407C9.89704 18.5951 10.1203 18.7443 10.366 18.846C10.6117 18.9478 10.875 19.0002 11.141 19.0002C11.407 19.0002 11.6703 18.9478 11.916 18.846C12.1617 18.7443 12.385 18.5951 12.573 18.407L15.407 15.573C15.435 15.545 15.462 15.517 15.487 15.488" stroke="black" stroke-width="1.5" stroke-linecap="round" stroke-linejoin="round"/>
<path d="M17.573 18.407L17.991 17.989M19.991 15.989L20.41 15.57C20.5981 15.3819 20.7473 15.1587 20.8491 14.913C20.9509 14.6673 21.0032 14.4039 21.0032 14.138C21.0032 13.872 20.9509 13.6087 20.8491 13.363C20.7473 13.1173 20.5981 12.894 20.41 12.706L13.293 5.58997" stroke="black" stroke-width="1.5" stroke-linecap="round" stroke-linejoin="round"/>
<path d="M5.99828 9H5.98828" stroke="black" stroke-width="1.5" stroke-linecap="round" stroke-linejoin="round"/>
<path d="M3 3L21 21" stroke="black" stroke-width="1.5" stroke-linecap="round" stroke-linejoin="round"/>
</g>
<defs>
<clipPath id="clip0_211_80997">
<rect width="24" height="24" fill="white"/>
</clipPath>
</defs>
</svg>
