<svg width="24" height="24" viewBox="0 0 24 24" fill="none" xmlns="http://www.w3.org/2000/svg">
<g clip-path="url(#clip0_211_80919)">
<path d="M9 15L12 12M14 10L15 9" stroke="black" stroke-width="1.5" stroke-linecap="round" stroke-linejoin="round"/>
<path d="M9.14691 9.14453C9.07558 9.2139 9.02666 9.30304 9.00646 9.40047C8.98626 9.49789 8.99571 9.59913 9.03359 9.69114C9.07147 9.78315 9.13604 9.8617 9.21898 9.91666C9.30191 9.97163 9.39941 10.0005 9.49891 9.99953C9.62965 9.99978 9.75529 9.9488 9.84891 9.85753" stroke="black" stroke-width="1.5" stroke-linecap="round" stroke-linejoin="round"/>
<path d="M14.1469 14.1445C14.0756 14.2139 14.0267 14.303 14.0065 14.4005C13.9863 14.4979 13.9957 14.5991 14.0336 14.6911C14.0715 14.7831 14.136 14.8617 14.219 14.9167C14.3019 14.9716 14.3994 15.0005 14.4989 14.9995C14.6297 14.9998 14.7553 14.9488 14.8489 14.8575" stroke="black" stroke-width="1.5" stroke-linecap="round" stroke-linejoin="round"/>
<path d="M5.64091 5.63058C3.95175 7.31723 3.00178 9.60581 3 11.9929C2.99822 14.3799 3.94477 16.6699 5.63141 18.3591C7.31806 20.0482 9.60664 20.9982 11.9937 21C14.3808 21.0018 16.6707 20.0552 18.3599 18.3686M20.0399 16.0506C20.893 14.3604 21.1914 12.4443 20.8926 10.5748C20.5938 8.70524 19.7131 6.97755 18.3757 5.63749C17.0383 4.29743 15.3123 3.41325 13.4434 3.11075C11.5745 2.80825 9.65775 3.10283 7.96591 3.95258" stroke="black" stroke-width="1.5" stroke-linecap="round" stroke-linejoin="round"/>
<path d="M3 3L21 21" stroke="black" stroke-width="1.5" stroke-linecap="round" stroke-linejoin="round"/>
</g>
<defs>
<clipPath id="clip0_211_80919">
<rect width="24" height="24" fill="white"/>
</clipPath>
</defs>
</svg>
