<svg width="24" height="24" viewBox="0 0 24 24" fill="none" xmlns="http://www.w3.org/2000/svg">
<g clip-path="url(#clip0_211_80872)">
<path d="M14.8 9.00003C14.6189 8.6858 14.3557 8.42674 14.0386 8.25059C13.7215 8.07444 13.3625 7.98783 13 8.00003H12M9.18002 9.17103C9.04126 9.47569 8.9812 9.8103 9.00532 10.1442C9.02945 10.4781 9.13701 10.8006 9.31813 11.0821C9.49926 11.3637 9.74815 11.5952 10.042 11.7556C10.3359 11.916 10.6653 12 11 12H12M14.824 14.822C14.6657 15.1732 14.4094 15.4711 14.0858 15.6801C13.7622 15.8891 13.3852 16.0002 13 16H11C10.6375 16.0122 10.2785 15.9256 9.96144 15.7495C9.64437 15.5733 9.38118 15.3143 9.20002 15" stroke="black" stroke-width="1.5" stroke-linecap="round" stroke-linejoin="round"/>
<path d="M20.0435 16.0446C20.8956 14.3535 21.1925 12.4367 20.892 10.5671C20.5915 8.69741 19.709 6.97017 18.37 5.63117C17.031 4.29216 15.3037 3.40962 13.4341 3.10915C11.5645 2.80868 9.64767 3.10558 7.95654 3.95761M5.63854 5.63461C4.79148 6.46766 4.11774 7.46018 3.65617 8.55492C3.19461 9.64966 2.95437 10.825 2.9493 12.013C2.94423 13.2011 3.17444 14.3784 3.62664 15.477C4.07884 16.5756 4.74409 17.5739 5.58401 18.4141C6.42393 19.2544 7.4219 19.92 8.52036 20.3726C9.61883 20.8253 10.796 21.0559 11.9841 21.0513C13.1721 21.0467 14.3475 20.807 15.4424 20.3458C16.5374 19.8847 17.5302 19.2113 18.3635 18.3646" stroke="black" stroke-width="1.5" stroke-linecap="round" stroke-linejoin="round"/>
<path d="M12 6V8M12 16V18" stroke="black" stroke-width="1.5" stroke-linecap="round" stroke-linejoin="round"/>
<path d="M3 3L21 21" stroke="black" stroke-width="1.5" stroke-linecap="round" stroke-linejoin="round"/>
</g>
<defs>
<clipPath id="clip0_211_80872">
<rect width="24" height="24" fill="white"/>
</clipPath>
</defs>
</svg>
