<svg width="24" height="24" viewBox="0 0 24 24" fill="none" xmlns="http://www.w3.org/2000/svg">
<g clip-path="url(#clip0_211_81003)">
<path d="M7.859 6H5.025C4.48794 6 3.97287 6.21335 3.59311 6.59311C3.21335 6.97287 3 7.48794 3 8.025V10.859C3 11.396 3.213 11.911 3.593 12.291L9.709 18.407C9.89704 18.5951 10.1203 18.7443 10.366 18.846C10.6117 18.9478 10.875 19.0002 11.141 19.0002C11.407 19.0002 11.6703 18.9478 11.916 18.846C12.1617 18.7443 12.385 18.5951 12.573 18.407L15.407 15.573C15.5951 15.385 15.7443 15.1617 15.846 14.916C15.9478 14.6703 16.0002 14.407 16.0002 14.141C16.0002 13.875 15.9478 13.6117 15.846 13.366C15.7443 13.1203 15.5951 12.897 15.407 12.709L9.29 6.593C8.91044 6.2135 8.39574 6.00021 7.859 6Z" stroke="black" stroke-width="1.5" stroke-linecap="round" stroke-linejoin="round"/>
<path d="M17.5721 18.4068L20.4061 15.5728C20.5941 15.3847 20.7433 15.1615 20.8451 14.9158C20.9469 14.6701 20.9993 14.4067 20.9993 14.1408C20.9993 13.8748 20.9469 13.6115 20.8451 13.3658C20.7433 13.1201 20.5941 12.8968 20.4061 12.7088L13.2891 5.59277" stroke="black" stroke-width="1.5" stroke-linecap="round" stroke-linejoin="round"/>
<path d="M5.99828 9H5.98828" stroke="black" stroke-width="1.5" stroke-linecap="round" stroke-linejoin="round"/>
</g>
<defs>
<clipPath id="clip0_211_81003">
<rect width="24" height="24" fill="white"/>
</clipPath>
</defs>
</svg>
