<svg width="24" height="24" viewBox="0 0 24 24" fill="none" xmlns="http://www.w3.org/2000/svg">
<path d="M22 8C22 4 20 2 16 2H8C4 2 2 4 2 8V21C2 21.55 2.45 22 3 22H16C20 22 22 20 22 16V12" stroke="#171717" stroke-width="1.5" stroke-linecap="round" stroke-linejoin="round"/>
<path d="M15.5098 11.7401L16.1598 11.0901C16.1998 11.0501 16.2398 11.0101 16.2798 10.9601C17.0898 10.1001 17.4098 9.09011 16.1598 7.84011C14.8398 6.52011 13.7998 6.95011 12.9098 7.84011L7.71979 13.0301C7.51979 13.2301 7.3298 13.6201 7.2898 13.9001L7.0098 15.8801C6.9098 16.6001 7.40979 17.1001 8.12979 17.0001L10.1098 16.7201C10.3898 16.6801 10.7798 16.4901 10.9798 16.2901L12.9198 14.3501" stroke="#171717" stroke-width="1.5" stroke-miterlimit="10" stroke-linecap="round" stroke-linejoin="round"/>
<path d="M12.1699 8.58008C12.6099 10.1501 13.8399 11.3901 15.4199 11.8301" stroke="#171717" stroke-width="1.5" stroke-miterlimit="10" stroke-linecap="round" stroke-linejoin="round"/>
</svg>
