<svg width="24" height="24" viewBox="0 0 24 24" fill="none" xmlns="http://www.w3.org/2000/svg">
<path d="M3.37 20.1C2.43 18.97 2 17.31 2 15V9C2 4 4 2 9 2H15C17.19 2 18.8 2.38 19.92 3.23" stroke="#171717" stroke-width="1.5" stroke-linecap="round" stroke-linejoin="round"/>
<path d="M21.97 7.99023C21.99 8.31023 22 8.65023 22 9.00023V15.0002C22 20.0002 20 22.0002 15 22.0002H8.99999C8.25999 22.0002 7.57999 21.9602 6.95999 21.8602" stroke="#171717" stroke-width="1.5" stroke-linecap="round" stroke-linejoin="round"/>
<path d="M8 10C9.10457 10 10 9.10457 10 8C10 6.89543 9.10457 6 8 6C6.89543 6 6 6.89543 6 8C6 9.10457 6.89543 10 8 10Z" stroke="#171717" stroke-width="1.5" stroke-linecap="round" stroke-linejoin="round"/>
<path d="M22 2L2 22" stroke="#171717" stroke-width="1.5" stroke-linecap="round" stroke-linejoin="round"/>
<path d="M11.43 16.4502C11.73 16.7502 12.22 16.7502 12.52 16.4502L17.55 11.4102C18.33 10.6302 19.59 10.6302 20.37 11.4102L22 13.0502" stroke="#171717" stroke-width="1.5" stroke-linecap="round" stroke-linejoin="round"/>
</svg>
