<svg width="24" height="24" viewBox="0 0 24 24" fill="none" xmlns="http://www.w3.org/2000/svg">
<path opacity="0.4" d="M6.76005 22H17.24C20 22 21.1 20.31 21.23 18.25L21.75 9.99C21.89 7.83 20.17 6 18 6C17.39 6 16.83 5.65 16.55 5.11L15.83 3.66C15.37 2.75 14.17 2 13.15 2H10.86C9.83005 2 8.63005 2.75 8.17005 3.66L7.45005 5.11C7.17004 5.65 6.61005 6 6.00005 6C3.83005 6 2.11005 7.83 2.25005 9.99L2.77005 18.25C2.89005 20.31 4.00005 22 6.76005 22Z" fill="#171717"/>
<path d="M13.5 8.75H10.5C10.09 8.75 9.75 8.41 9.75 8C9.75 7.59 10.09 7.25 10.5 7.25H13.5C13.91 7.25 14.25 7.59 14.25 8C14.25 8.41 13.91 8.75 13.5 8.75Z" fill="#171717"/>
<path d="M12 18.1301C13.8667 18.1301 15.38 16.6168 15.38 14.7501C15.38 12.8834 13.8667 11.3701 12 11.3701C10.1333 11.3701 8.62 12.8834 8.62 14.7501C8.62 16.6168 10.1333 18.1301 12 18.1301Z" fill="#171717"/>
</svg>
