<svg width="24" height="24" viewBox="0 0 24 24" fill="none" xmlns="http://www.w3.org/2000/svg">
<path opacity="0.4" d="M2.57999 9.41999C2.49999 9.41999 2.40999 9.41001 2.32999 9.38001C1.93999 9.24001 1.74 8.80999 1.87 8.41999C2.54 6.53999 3.7 4.89002 5.25 3.64002C5.57 3.38002 6.03999 3.43 6.29999 3.75C6.55999 4.07 6.51 4.54 6.19 4.81C4.86 5.88 3.86001 7.29999 3.29001 8.91999C3.18001 9.22999 2.88999 9.41999 2.57999 9.41999Z" fill="#171717"/>
<path opacity="0.4" d="M2.57999 16.08C2.26999 16.08 1.98 15.89 1.87 15.58C1.46 14.41 1.25 13.21 1.25 12C1.25 11.59 1.59 11.25 2 11.25C2.41 11.25 2.75 11.59 2.75 12C2.75 13.04 2.93001 14.08 3.29001 15.08C3.43001 15.47 3.21999 15.9 2.82999 16.04C2.74999 16.07 2.65999 16.08 2.57999 16.08Z" fill="#171717"/>
<path opacity="0.4" d="M12 22.7501C10.94 22.7501 9.88998 22.5901 8.86998 22.2801C8.46998 22.1601 8.24998 21.7401 8.36998 21.3401C8.48998 20.9401 8.90999 20.7201 9.30999 20.8401C10.18 21.1101 11.09 21.24 12 21.24C17.1 21.24 21.25 17.09 21.25 11.99C21.25 11.47 21.2 10.93 21.1 10.36C21.03 9.95004 21.3 9.56004 21.71 9.49004C22.11 9.42004 22.51 9.69003 22.58 10.1C22.7 10.76 22.76 11.3801 22.76 12.0001C22.75 17.9301 17.93 22.7501 12 22.7501Z" fill="#171717"/>
<path opacity="0.4" d="M5.71998 20.5001C5.54998 20.5001 5.38997 20.4501 5.24997 20.3301C4.67997 19.8701 4.21996 19.43 3.82996 18.98C3.55996 18.67 3.59998 18.19 3.90998 17.92C4.22998 17.65 4.69998 17.6901 4.96998 18.0001C5.29998 18.3801 5.69998 18.76 6.18998 19.16C6.50998 19.42 6.55996 19.8901 6.29996 20.2101C6.15996 20.4001 5.93998 20.5001 5.71998 20.5001Z" fill="#171717"/>
<path opacity="0.4" d="M20.24 7.09003C20 7.09003 19.77 6.98001 19.62 6.76001C17.89 4.24001 15.04 2.73999 12 2.73999C11.09 2.73999 10.18 2.87001 9.31004 3.14001C8.92004 3.26001 8.50003 3.04001 8.37003 2.64001C8.24003 2.24001 8.47003 1.82001 8.87003 1.70001C9.89003 1.39001 10.94 1.22998 12 1.22998C15.54 1.22998 18.85 2.98002 20.86 5.90002C21.09 6.24002 21.0101 6.71 20.6701 6.94C20.5401 7.05 20.39 7.09003 20.24 7.09003Z" fill="#171717"/>
<path d="M16.03 6.49996C15.7 6.24996 15.1 5.99997 14.14 6.25997L10.95 7.11996C10.03 7.37996 9.42999 8.15996 9.42999 9.11996V10.76V13.34C9.16999 13.24 8.89 13.18 8.59 13.18C7.3 13.18 6.25 14.23 6.25 15.52C6.25 16.81 7.3 17.86 8.59 17.86C9.87 17.86 10.9 16.83 10.92 15.56C10.92 15.55 10.93 15.54 10.93 15.52V11.33L15.25 10.15V12.28C14.99 12.18 14.71 12.12 14.41 12.12C13.12 12.12 12.07 13.17 12.07 14.46C12.07 15.75 13.12 16.8 14.41 16.8C15.7 16.8 16.75 15.75 16.75 14.46V9.16995V8.24996C16.75 7.44996 16.51 6.85996 16.03 6.49996ZM8.59 16.36C8.13 16.36 7.75 15.98 7.75 15.52C7.75 15.06 8.13 14.68 8.59 14.68C9.05 14.68 9.42999 15.06 9.42999 15.52C9.42999 15.98 9.05 16.36 8.59 16.36ZM14.41 15.3C13.95 15.3 13.57 14.92 13.57 14.46C13.57 14 13.95 13.62 14.41 13.62C14.87 13.62 15.25 14 15.25 14.46C15.25 14.92 14.87 15.3 14.41 15.3Z" fill="#171717"/>
</svg>
