<svg width="24" height="24" viewBox="0 0 24 24" fill="none" xmlns="http://www.w3.org/2000/svg">
<path opacity="0.4" d="M19.26 2.86995L14.84 1.39995C13.92 1.08995 12.99 1.19995 12.31 1.69995C11.62 2.19995 11.23 3.03995 11.23 4.00995V7.77995L18.11 10.07C18.45 10.19 18.8 10.24 19.13 10.24C19.69 10.24 20.21 10.08 20.64 9.76995C21.33 9.26995 21.72 8.42995 21.72 7.45995V6.27995C21.72 4.84995 20.62 3.31995 19.26 2.86995Z" fill="#171717"/>
<path d="M12.72 8.27002V18C12.72 20.62 10.59 22.75 7.96997 22.75C5.34997 22.75 3.21997 20.62 3.21997 18C3.21997 15.38 5.34997 13.25 7.96997 13.25C9.22997 13.25 10.37 13.75 11.22 14.55V7.77002L12.72 8.27002Z" fill="#171717"/>
</svg>
