<svg width="24" height="24" viewBox="0 0 24 24" fill="none" xmlns="http://www.w3.org/2000/svg">
<path opacity="0.4" d="M20.46 3.54L3.54 20.46C2.54 19.46 2 18.01 2 16.19V7.81C2 4.17 4.17 2 7.81 2H16.19C18.01 2 19.46 2.54 20.46 3.54Z" fill="#171717"/>
<path opacity="0.4" d="M22 7.80989V13.8999L20.37 12.4999C19.59 11.8299 18.33 11.8299 17.55 12.4999L13.39 16.0699C12.68 16.6799 11.56 16.7399 10.78 16.2199L21.61 5.38989C21.75 5.76989 21.85 6.16989 21.91 6.59989C21.97 6.97989 22 7.38989 22 7.80989Z" fill="#171717"/>
<path d="M22 13.9001V16.1901C22 19.8301 19.83 22.0001 16.19 22.0001H7.81001C7.39001 22.0001 6.98001 21.9701 6.60001 21.9101C6.17001 21.8501 5.77001 21.7501 5.39001 21.6101L10.78 16.2201C11.56 16.7401 12.68 16.6801 13.39 16.0701L17.55 12.5001C18.33 11.8301 19.59 11.8301 20.37 12.5001L22 13.9001Z" fill="#171717"/>
<path d="M21.77 2.22988C21.47 1.92988 20.98 1.92988 20.68 2.22988L2.23 20.6899C1.93 20.9899 1.93 21.4799 2.23 21.7799C2.38 21.9199 2.57 21.9999 2.77 21.9999C2.97 21.9999 3.16 21.9199 3.31 21.7699L21.77 3.30988C22.08 3.00988 22.08 2.52988 21.77 2.22988Z" fill="#171717"/>
<path d="M8 10.3801C9.31443 10.3801 10.38 9.31456 10.38 8.00012C10.38 6.68568 9.31443 5.62012 8 5.62012C6.68556 5.62012 5.62 6.68568 5.62 8.00012C5.62 9.31456 6.68556 10.3801 8 10.3801Z" fill="#171717"/>
</svg>
