<svg width="24" height="24" viewBox="0 0 24 24" fill="none" xmlns="http://www.w3.org/2000/svg">
<path d="M19.0701 19.0702C22.9801 15.1602 22.9801 8.83018 19.0701 4.93018" stroke="#171717" stroke-width="1.5" stroke-linecap="round" stroke-linejoin="round"/>
<path d="M4.93006 4.93018C1.02006 8.84018 1.02006 15.1702 4.93006 19.0702" stroke="#171717" stroke-width="1.5" stroke-linecap="round" stroke-linejoin="round"/>
<path d="M8.69995 21.4102C9.76995 21.7802 10.8799 21.9602 11.9999 21.9602C13.1199 21.9502 14.2299 21.7802 15.2999 21.4102" stroke="#171717" stroke-width="1.5" stroke-linecap="round" stroke-linejoin="round"/>
<path d="M8.69995 2.59009C9.76995 2.22009 10.8799 2.04004 11.9999 2.04004C13.1199 2.04004 14.2299 2.22009 15.2999 2.59009" stroke="#171717" stroke-width="1.5" stroke-linecap="round" stroke-linejoin="round"/>
<path d="M8.73999 12.0001V10.3302C8.73999 8.25016 10.21 7.40014 12.01 8.44014L13.46 9.28017L14.91 10.1201C16.71 11.1601 16.71 12.8602 14.91 13.9002L13.46 14.7401L12.01 15.5802C10.21 16.6202 8.73999 15.7701 8.73999 13.6901V12.0001Z" stroke="#171717" stroke-width="1.5" stroke-miterlimit="10" stroke-linecap="round" stroke-linejoin="round"/>
</svg>
