<svg width="24" height="24" viewBox="0 0 24 24" fill="none" xmlns="http://www.w3.org/2000/svg">
<path d="M2 9C2 4 4 2 9 2H15C17.19 2 18.8 2.38 19.92 3.23" stroke="#171717" stroke-width="1.5" stroke-linecap="round" stroke-linejoin="round"/>
<path d="M3.37 20.1C2.43 18.97 2 17.31 2 15V12.97" stroke="#171717" stroke-width="1.5" stroke-linecap="round" stroke-linejoin="round"/>
<path d="M21.97 7.98999C21.99 8.30999 22 8.64999 22 8.99999V15C22 20 20 22 15 22H8.99999C8.25999 22 7.57999 21.96 6.95999 21.86" stroke="#171717" stroke-width="1.5" stroke-linecap="round" stroke-linejoin="round"/>
<path d="M8 6C6.9 6 6 6.9 6 8C6 9.1 6.9 10 8 10C9.1 10 10 9.1 10 8" stroke="#171717" stroke-width="1.5" stroke-linecap="round" stroke-linejoin="round"/>
<path d="M22 2L2 22" stroke="#171717" stroke-width="1.5" stroke-linecap="round" stroke-linejoin="round"/>
<path d="M11.43 16.45C11.73 16.75 12.22 16.75 12.52 16.45L17.55 11.41C18.33 10.63 19.59 10.63 20.37 11.41L22 13.05" stroke="#171717" stroke-width="1.5" stroke-linecap="round" stroke-linejoin="round"/>
</svg>
