<svg width="24" height="24" viewBox="0 0 24 24" fill="none" xmlns="http://www.w3.org/2000/svg">
<path d="M7 2.05005V21.9501C3.85 21.6601 2 19.5501 2 16.1901V7.81006C2 4.45006 3.85 2.34005 7 2.05005Z" fill="#171717"/>
<path opacity="0.4" d="M22 7.81V16.19C22 19.83 19.83 22 16.19 22H7.81C7.53 22 7.26 21.99 7 21.95V2.04999C7.26 2.00999 7.53 2 7.81 2H16.19C19.83 2 22 4.17 22 7.81Z" fill="#171717"/>
<path d="M18.49 6.8C18.17 6.55 17.59 6.31001 16.67 6.56001L13.69 7.38002C12.8 7.61002 12.22 8.36 12.22 9.3V11.05V13.21C11.99 13.13 11.74 13.07 11.48 13.07C10.24 13.07 9.23999 14.08 9.23999 15.31C9.23999 16.54 10.25 17.55 11.48 17.55C12.7 17.55 13.7 16.56 13.72 15.35C13.72 15.34 13.73 15.33 13.73 15.32V11.62L17.7 10.54V12.22C17.47 12.14 17.22 12.08 16.95 12.08C15.71 12.08 14.71 13.09 14.71 14.32C14.71 15.56 15.72 16.56 16.95 16.56C18.17 16.56 19.17 15.57 19.19 14.35C19.19 14.34 19.2 14.33 19.2 14.31V9.55V8.47999C19.18 7.71999 18.95 7.16 18.49 6.8ZM11.47 16.05C11.06 16.05 10.73 15.72 10.73 15.31C10.73 14.9 11.06 14.57 11.47 14.57C11.88 14.57 12.21 14.9 12.21 15.31C12.21 15.72 11.87 16.05 11.47 16.05ZM16.93 15.05C16.52 15.05 16.19 14.72 16.19 14.31C16.19 13.9 16.52 13.57 16.93 13.57C17.34 13.57 17.67 13.9 17.67 14.31C17.67 14.72 17.34 15.05 16.93 15.05Z" fill="#171717"/>
</svg>
