<svg width="24" height="24" viewBox="0 0 24 24" fill="none" xmlns="http://www.w3.org/2000/svg">
<path d="M9 10C10.1046 10 11 9.10457 11 8C11 6.89543 10.1046 6 9 6C7.89543 6 7 6.89543 7 8C7 9.10457 7.89543 10 9 10Z" stroke="#171717" stroke-width="1.5" stroke-linecap="round" stroke-linejoin="round"/>
<path d="M13 2H9C4 2 2 4 2 9V15C2 20 4 22 9 22H15C20 22 22 20 22 15V10" stroke="#171717" stroke-width="1.5" stroke-linecap="round" stroke-linejoin="round"/>
<path d="M19.14 2.59015L15.51 6.22015C15.37 6.36015 15.23 6.63015 15.21 6.83015L15.01 8.22015C14.94 8.72015 15.29 9.07015 15.79 9.00015L17.18 8.80015C17.37 8.77015 17.65 8.64015 17.79 8.50015L21.42 4.87015C22.05 4.24015 22.34 3.52015 21.42 2.60015C20.49 1.66015 19.77 1.96015 19.14 2.59015Z" stroke="#171717" stroke-width="1.5" stroke-miterlimit="10" stroke-linecap="round" stroke-linejoin="round"/>
<path d="M18.62 3.10986C18.93 4.20986 19.79 5.06986 20.89 5.37986" stroke="#171717" stroke-width="1.5" stroke-miterlimit="10" stroke-linecap="round" stroke-linejoin="round"/>
<path d="M2.66998 18.9501L7.59998 15.6401C8.38998 15.1101 9.52998 15.1701 10.24 15.7801L10.57 16.0701C11.35 16.7401 12.61 16.7401 13.39 16.0701L17.55 12.5001C18.33 11.8301 19.59 11.8301 20.37 12.5001L22 13.9001" stroke="#171717" stroke-width="1.5" stroke-linecap="round" stroke-linejoin="round"/>
</svg>
