<svg width="24" height="24" viewBox="0 0 24 24" fill="none" xmlns="http://www.w3.org/2000/svg">
<path d="M21.68 16.9601L18.55 9.65013C17.49 7.17013 15.54 7.07013 14.23 9.43013L12.34 12.8401C11.38 14.5701 9.58999 14.7201 8.34999 13.1701L8.12999 12.8901C6.83999 11.2701 5.01999 11.4701 4.08999 13.3201L2.36999 16.7701C1.15999 19.1701 2.90999 22.0001 5.58999 22.0001H18.35C20.95 22.0001 22.7 19.3501 21.68 16.9601Z" stroke="#171717" stroke-width="1.5" stroke-linecap="round" stroke-linejoin="round"/>
<path d="M6.96997 8C8.62682 8 9.96997 6.65685 9.96997 5C9.96997 3.34315 8.62682 2 6.96997 2C5.31312 2 3.96997 3.34315 3.96997 5C3.96997 6.65685 5.31312 8 6.96997 8Z" stroke="#171717" stroke-width="1.5" stroke-linecap="round" stroke-linejoin="round"/>
</svg>
