<svg width="24" height="24" viewBox="0 0 24 24" fill="none" xmlns="http://www.w3.org/2000/svg">
<path d="M14.43 16.92H12.14C11.73 16.92 11.39 16.58 11.39 16.17C11.39 15.76 11.73 15.42 12.14 15.42H14.43C14.86 15.42 15.21 15.0701 15.21 14.6401C15.21 14.2101 14.86 13.86 14.43 13.86H12.14C11.9 13.86 11.67 13.74 11.53 13.55C11.39 13.36 11.35 13.1001 11.43 12.8701L12.19 10.5801C12.29 10.2701 12.58 10.0701 12.9 10.0701H15.96C16.37 10.0701 16.71 10.4101 16.71 10.8201C16.71 11.2301 16.37 11.5701 15.96 11.5701H13.44L13.18 12.36H14.43C15.69 12.36 16.71 13.3801 16.71 14.6401C16.71 15.9001 15.68 16.92 14.43 16.92Z" fill="#171717"/>
<path d="M9.54004 16.9201C9.13004 16.9201 8.79004 16.5801 8.79004 16.1701V12.7801L8.60003 13.0001C8.32003 13.3101 7.85004 13.3301 7.54004 13.0601C7.23004 12.7801 7.21004 12.3101 7.48004 12.0001L8.98004 10.3301C9.19004 10.1001 9.52006 10.0201 9.81006 10.1301C10.1001 10.2401 10.29 10.5201 10.29 10.8301V16.1801C10.29 16.5901 9.96004 16.9201 9.54004 16.9201Z" fill="#171717"/>
<path opacity="0.4" d="M12.0001 3.47994C11.9201 3.47994 11.8401 3.48995 11.7601 3.48995L12.5801 2.46993C12.8401 2.14993 12.7901 1.66994 12.4601 1.41994C12.1301 1.16994 11.67 1.20994 11.41 1.53994L9.43005 4.00997C9.42005 4.01997 9.42003 4.03995 9.41003 4.04995C9.38003 4.08995 9.36009 4.13996 9.34009 4.18996C9.32009 4.22996 9.30004 4.26997 9.29004 4.31997C9.28004 4.36997 9.28009 4.40998 9.28009 4.45998C9.28009 4.50998 9.28009 4.55994 9.28009 4.60994C9.28009 4.62994 9.28009 4.63993 9.28009 4.65993C9.29009 4.68993 9.31007 4.71996 9.32007 4.74996C9.34007 4.79996 9.36007 4.83997 9.38007 4.88997C9.41007 4.92997 9.44004 4.96996 9.48004 4.99996C9.50004 5.01996 9.52004 5.04997 9.54004 5.07997C9.55004 5.08997 9.57008 5.08993 9.58008 5.09993C9.61008 5.11993 9.64004 5.12998 9.67004 5.14998C9.72004 5.17998 9.78008 5.19998 9.83008 5.20998C9.86008 5.21998 9.89005 5.21994 9.93005 5.22994C9.96005 5.22994 9.98007 5.23995 10.0101 5.23995C10.0401 5.23995 10.0601 5.22993 10.0801 5.21993C10.1101 5.21993 10.14 5.22993 10.17 5.21993C10.81 5.06993 11.41 4.99996 11.98 4.99996C16.47 4.99996 20.1201 8.64997 20.1201 13.14C20.1201 17.63 16.47 21.28 11.98 21.28C7.49004 21.28 3.84009 17.63 3.84009 13.14C3.84009 11.4 4.41005 9.71999 5.49005 8.27999C5.74005 7.94999 5.67009 7.47994 5.34009 7.22994C5.01009 6.97994 4.54004 7.04996 4.29004 7.37996C3.01004 9.07996 2.34009 11.07 2.34009 13.14C2.34009 18.45 6.66004 22.78 11.98 22.78C17.3 22.78 21.6201 18.46 21.6201 13.14C21.6201 7.81997 17.3101 3.47994 12.0001 3.47994Z" fill="#171717"/>
</svg>
