<svg width="24" height="24" viewBox="0 0 24 24" fill="none" xmlns="http://www.w3.org/2000/svg">
<path d="M14.91 14.1201C16.71 13.0801 16.71 11.3801 14.91 10.3401L13.46 9.50011L12.01 8.66011C10.21 7.62011 8.73999 8.47011 8.73999 10.5501V12.2201V13.8901C8.73999 15.5501 9.67999 16.4301 10.98 16.1801" stroke="#171717" stroke-width="1.5" stroke-miterlimit="10" stroke-linecap="round" stroke-linejoin="round"/>
<path d="M4 6C2.75 7.67 2 9.75 2 12C2 17.52 6.48 22 12 22C17.52 22 22 17.52 22 12C22 6.48 17.52 2 12 2C10.57 2 9.2 2.3 7.97 2.85" stroke="#171717" stroke-width="1.5" stroke-linecap="round" stroke-linejoin="round"/>
</svg>
