<svg width="24" height="24" viewBox="0 0 24 24" fill="none" xmlns="http://www.w3.org/2000/svg">
<path d="M14.43 16.92H12.14C11.73 16.92 11.39 16.58 11.39 16.17C11.39 15.76 11.73 15.42 12.14 15.42H14.43C14.86 15.42 15.21 15.0701 15.21 14.6401C15.21 14.2101 14.86 13.86 14.43 13.86H12.14C11.9 13.86 11.67 13.74 11.53 13.55C11.39 13.36 11.35 13.1001 11.43 12.8701L12.19 10.5801C12.29 10.2701 12.58 10.0701 12.9 10.0701H15.96C16.37 10.0701 16.71 10.4101 16.71 10.8201C16.71 11.2301 16.37 11.5701 15.96 11.5701H13.44L13.18 12.36H14.43C15.69 12.36 16.71 13.3801 16.71 14.6401C16.71 15.9001 15.68 16.92 14.43 16.92Z" fill="#171717"/>
<path d="M9.53998 16.9201C9.12998 16.9201 8.78998 16.5801 8.78998 16.1701V12.7801L8.59997 13.0001C8.31997 13.3101 7.84998 13.3301 7.53998 13.0601C7.22998 12.7801 7.20998 12.3101 7.47998 12.0001L8.97998 10.3301C9.18998 10.1001 9.52 10.0201 9.81 10.1301C10.1 10.2401 10.29 10.5201 10.29 10.8301V16.1801C10.29 16.5901 9.95998 16.9201 9.53998 16.9201Z" fill="#171717"/>
<path opacity="0.4" d="M19.69 7.34997C19.44 7.01997 18.97 6.95 18.64 7.2C18.31 7.45 18.24 7.91999 18.49 8.24999C19.57 9.68999 20.14 11.37 20.14 13.11C20.14 17.6 16.49 21.25 12 21.25C7.51 21.25 3.85999 17.6 3.85999 13.11C3.85999 8.61998 7.51 4.96996 12 4.96996C12.58 4.96996 13.17 5.03999 13.81 5.18999C13.84 5.19999 13.87 5.18999 13.9 5.18999C13.93 5.18999 13.95 5.21001 13.97 5.21001C14 5.21001 14.02 5.2 14.05 5.2C14.08 5.2 14.11 5.18998 14.15 5.17998C14.21 5.16998 14.26 5.13999 14.31 5.11999C14.34 5.09999 14.37 5.09 14.4 5.07C14.41 5.06 14.43 5.05998 14.44 5.04998C14.47 5.02998 14.48 4.99997 14.5 4.97997C14.54 4.93997 14.57 4.90998 14.6 4.85998C14.63 4.81998 14.64 4.76996 14.66 4.71996C14.67 4.68996 14.69 4.66 14.7 4.63C14.7 4.61 14.7 4.60001 14.7 4.58001C14.71 4.53001 14.71 4.47998 14.7 4.42998C14.7 4.37998 14.7 4.33997 14.69 4.28997C14.68 4.24997 14.66 4.20996 14.64 4.15996C14.62 4.10996 14.6 4.06001 14.57 4.02001C14.56 4.01001 14.56 3.98997 14.55 3.97997L12.57 1.51C12.31 1.19 11.84 1.13001 11.52 1.39001C11.2 1.65001 11.15 2.11999 11.4 2.43999L12.22 3.46001C12.14 3.46001 12.06 3.45 11.98 3.45C6.66998 3.45 2.34003 7.77002 2.34003 13.09C2.34003 18.41 6.65998 22.73 11.98 22.73C17.3 22.73 21.62 18.41 21.62 13.09C21.64 11.04 20.96 9.04997 19.69 7.34997Z" fill="#171717"/>
</svg>
