<svg width="24" height="24" viewBox="0 0 24 24" fill="none" xmlns="http://www.w3.org/2000/svg">
<path d="M17.5 17.8301H15.65C15.24 17.8301 14.9 17.4901 14.9 17.0801C14.9 16.6701 15.24 16.3301 15.65 16.3301H17.5C17.91 16.3301 18.25 16.6701 18.25 17.0801C18.25 17.4901 17.91 17.8301 17.5 17.8301Z" fill="#171717"/>
<path d="M12.97 17.8301H6.5C6.09 17.8301 5.75 17.4901 5.75 17.0801C5.75 16.6701 6.09 16.3301 6.5 16.3301H12.97C13.38 16.3301 13.72 16.6701 13.72 17.0801C13.72 17.4901 13.39 17.8301 12.97 17.8301Z" fill="#171717"/>
<path d="M17.5 14.0701H11.97C11.56 14.0701 11.22 13.7301 11.22 13.3201C11.22 12.9101 11.56 12.5701 11.97 12.5701H17.5C17.91 12.5701 18.25 12.9101 18.25 13.3201C18.25 13.7301 17.91 14.0701 17.5 14.0701Z" fill="#171717"/>
<path d="M9.27 14.0701H6.5C6.09 14.0701 5.75 13.7301 5.75 13.3201C5.75 12.9101 6.09 12.5701 6.5 12.5701H9.27C9.68 12.5701 10.02 12.9101 10.02 13.3201C10.02 13.7301 9.68 14.0701 9.27 14.0701Z" fill="#171717"/>
<path opacity="0.4" d="M16.19 2H7.81C4.17 2 2 4.17 2 7.81V16.18C2 19.83 4.17 22 7.81 22H16.18C19.82 22 21.99 19.83 21.99 16.19V7.81C22 4.17 19.83 2 16.19 2Z" fill="#171717"/>
</svg>
