<svg width="24" height="24" viewBox="0 0 24 24" fill="none" xmlns="http://www.w3.org/2000/svg">
<path d="M4.10997 16.98C4.01997 17.3 3.96997 17.65 3.96997 18C3.96997 20.21 5.75997 22 7.96997 22C10.18 22 11.97 20.21 11.97 18C11.97 15.79 10.18 14 7.96997 14C7.61997 14 7.26997 14.05 6.94997 14.13" stroke="#171717" stroke-width="1.5" stroke-linecap="round" stroke-linejoin="round"/>
<path d="M11.97 18V4" stroke="#171717" stroke-width="1.5" stroke-linecap="round" stroke-linejoin="round"/>
<path d="M14.61 2.11L19.03 3.58C20.1 3.94 20.98 5.15 20.98 6.28V7.45C20.98 8.98 19.8 9.83 18.35 9.35L13.93 7.88C12.86 7.52 11.98 6.31 11.98 5.18V4C11.97 2.48 13.16 1.62 14.61 2.11Z" stroke="#171717" stroke-width="1.5" stroke-linecap="round" stroke-linejoin="round"/>
</svg>
