<svg width="24" height="24" viewBox="0 0 24 24" fill="none" xmlns="http://www.w3.org/2000/svg">
<path opacity="0.4" d="M22 3.75H2C1.59 3.75 1.25 3.41 1.25 3C1.25 2.59 1.59 2.25 2 2.25H22C22.41 2.25 22.75 2.59 22.75 3C22.75 3.41 22.41 3.75 22 3.75Z" fill="#171717"/>
<path opacity="0.4" d="M11 9.75H2C1.59 9.75 1.25 9.41 1.25 9C1.25 8.59 1.59 8.25 2 8.25H11C11.41 8.25 11.75 8.59 11.75 9C11.75 9.41 11.41 9.75 11 9.75Z" fill="#171717"/>
<path opacity="0.4" d="M8 15.75H2C1.59 15.75 1.25 15.41 1.25 15C1.25 14.59 1.59 14.25 2 14.25H8C8.41 14.25 8.75 14.59 8.75 15C8.75 15.41 8.41 15.75 8 15.75Z" fill="#171717"/>
<path opacity="0.4" d="M6 21.75H2C1.59 21.75 1.25 21.41 1.25 21C1.25 20.59 1.59 20.25 2 20.25H6C6.41 20.25 6.75 20.59 6.75 21C6.75 21.41 6.41 21.75 6 21.75Z" fill="#171717"/>
<path d="M21.86 7.67994C21.27 7.22994 20.46 7.13997 19.51 7.39997L15.16 8.57997C13.99 8.89997 13.27 9.84994 13.27 11.0499V13.5999V17.28C12.85 17.04 12.36 16.89 11.84 16.89C10.23 16.89 8.90997 18.2 8.90997 19.82C8.90997 21.43 10.22 22.7499 11.84 22.7499C13.46 22.7499 14.77 21.44 14.77 19.82V14.1699L21.25 12.4V15.83C20.83 15.59 20.34 15.44 19.82 15.44C18.21 15.44 16.89 16.7499 16.89 18.3699C16.89 19.9799 18.2 21.2999 19.82 21.2999C21.44 21.2999 22.75 19.9899 22.75 18.3699V11.4199V9.86994C22.75 8.85994 22.45 8.11994 21.86 7.67994ZM11.84 21.2499C11.05 21.2499 10.41 20.61 10.41 19.82C10.41 19.03 11.05 18.39 11.84 18.39C12.63 18.39 13.27 19.03 13.27 19.82C13.27 20.61 12.63 21.2499 11.84 21.2499ZM19.82 19.7999C19.03 19.7999 18.39 19.1599 18.39 18.3699C18.39 17.5799 19.03 16.94 19.82 16.94C20.61 16.94 21.25 17.5799 21.25 18.3699C21.25 19.1599 20.61 19.7999 19.82 19.7999Z" fill="#171717"/>
</svg>
