<svg width="24" height="24" viewBox="0 0 24 24" fill="none" xmlns="http://www.w3.org/2000/svg">
<path d="M6.28003 22.75C4.15003 22.75 2.41003 21.01 2.41003 18.88C2.41003 16.75 4.15003 15.01 6.28003 15.01C8.41003 15.01 10.15 16.75 10.15 18.88C10.15 21.01 8.41003 22.75 6.28003 22.75ZM6.28003 16.51C4.97003 16.51 3.91003 17.57 3.91003 18.88C3.91003 20.19 4.97003 21.25 6.28003 21.25C7.59003 21.25 8.65003 20.19 8.65003 18.88C8.65003 17.57 7.59003 16.51 6.28003 16.51Z" fill="#171717"/>
<path d="M9.40002 19.6299C8.99002 19.6299 8.65002 19.2899 8.65002 18.8799V6.29989C8.65002 4.71989 9.60002 3.47989 11.12 3.06989L17.36 1.36989C18.63 1.01989 19.7 1.14989 20.45 1.72989C21.21 2.30989 21.59 3.27989 21.59 4.60989V16.8099C21.59 17.2199 21.25 17.5599 20.84 17.5599C20.43 17.5599 20.09 17.2199 20.09 16.8099V4.59989C20.09 4.01989 19.99 3.25989 19.54 2.91989C19.05 2.53989 18.21 2.68989 17.75 2.81989L11.51 4.51989C10.64 4.75989 10.15 5.40989 10.15 6.30989V18.8899C10.15 19.2899 9.81002 19.6299 9.40002 19.6299Z" fill="#171717"/>
<path d="M17.72 20.6699C15.59 20.6699 13.85 18.9299 13.85 16.7999C13.85 14.6699 15.59 12.9299 17.72 12.9299C19.85 12.9299 21.59 14.6699 21.59 16.7999C21.59 18.9299 19.85 20.6699 17.72 20.6699ZM17.72 14.4299C16.41 14.4299 15.35 15.4899 15.35 16.7999C15.35 18.1099 16.41 19.1699 17.72 19.1699C19.03 19.1699 20.09 18.1099 20.09 16.7999C20.09 15.4899 19.03 14.4299 17.72 14.4299Z" fill="#171717"/>
<path d="M9.40005 10.27C9.07005 10.27 8.77005 10.05 8.68005 9.72003C8.57005 9.32003 8.80005 8.90003 9.20005 8.79003L20.64 5.67003C21.04 5.56003 21.45 5.80003 21.56 6.20003C21.67 6.60003 21.43 7.01003 21.03 7.12003L9.60005 10.24C9.53005 10.26 9.46005 10.27 9.40005 10.27Z" fill="#171717"/>
</svg>
