<svg width="24" height="24" viewBox="0 0 24 24" fill="none" xmlns="http://www.w3.org/2000/svg">
<path d="M22 8.33994V15.6599C22 17.1599 20.37 18.0999 19.07 17.3499L15.9 15.5299L12.73 13.7C12.53 13.58 12.37 13.45 12.24 13.29V10.73C12.37 10.57 12.53 10.44 12.73 10.32L15.9 8.48993L19.07 6.66996C20.37 5.89996 22 6.83994 22 8.33994Z" stroke="#171717" stroke-width="1.5" stroke-linecap="round" stroke-linejoin="round"/>
<path d="M9.32 6.65007C10.62 5.90007 12.25 6.84007 12.25 8.34007V15.6601C12.25 17.1601 10.62 18.1001 9.32 17.3501L6.14999 15.5301L2.98 13.7001C1.68 12.9501 1.68 11.0801 2.98 10.3201L5.39001 8.93007" stroke="#171717" stroke-width="1.5" stroke-linecap="round" stroke-linejoin="round"/>
</svg>
