<svg width="24" height="24" viewBox="0 0 24 24" fill="none" xmlns="http://www.w3.org/2000/svg">
<path d="M2.92004 8.58003C2.92004 7.46003 3.52002 6.41999 4.49002 5.84999L10.43 2.42C11.4 1.86 12.6 1.86 13.58 2.42L19.52 5.84999C20.49 6.40999 21.09 7.45003 21.09 8.58003V15.42C21.09 16.54 20.49 17.58 19.52 18.15L13.58 21.58C12.61 22.14 11.41 22.14 10.43 21.58L4.49002 18.15C3.52002 17.59 2.92004 16.55 2.92004 15.42V12.66" stroke="#171717" stroke-width="1.5" stroke-linecap="round" stroke-linejoin="round"/>
<path d="M9.75 11.9999V10.7999C9.75 9.25989 10.84 8.62993 12.17 9.39993L13.21 9.9999L14.25 10.5999C15.58 11.3699 15.58 12.6299 14.25 13.3999L13.21 13.9999L12.17 14.5999C10.84 15.3699 9.75 14.7399 9.75 13.1999V11.9999Z" stroke="#171717" stroke-width="1.5" stroke-miterlimit="10" stroke-linecap="round" stroke-linejoin="round"/>
</svg>
