<svg width="24" height="24" viewBox="0 0 24 24" fill="none" xmlns="http://www.w3.org/2000/svg">
<path d="M6.28003 22C8.00316 22 9.40003 20.6031 9.40003 18.88C9.40003 17.1569 8.00316 15.76 6.28003 15.76C4.55691 15.76 3.16003 17.1569 3.16003 18.88C3.16003 20.6031 4.55691 22 6.28003 22Z" stroke="#171717" stroke-width="1.5" stroke-linecap="round" stroke-linejoin="round"/>
<path d="M17.72 19.9199C19.4431 19.9199 20.84 18.5231 20.84 16.7999C20.84 15.0768 19.4431 13.6799 17.72 13.6799C15.9968 13.6799 14.6 15.0768 14.6 16.7999C14.6 18.5231 15.9968 19.9199 17.72 19.9199Z" stroke="#171717" stroke-width="1.5" stroke-linecap="round" stroke-linejoin="round"/>
<g opacity="0.4">
<path d="M20.8404 16.8003V4.60034C20.8404 2.00034 19.2104 1.64034 17.5604 2.09034L11.3204 3.79034C10.1804 4.10034 9.40039 5.00034 9.40039 6.30034V8.47034V9.93034V18.8703" stroke="#171717" stroke-width="1.5" stroke-linecap="round" stroke-linejoin="round"/>
<path d="M9.40039 9.52039L20.8404 6.40039" stroke="#171717" stroke-width="1.5" stroke-linecap="round" stroke-linejoin="round"/>
</g>
</svg>
