<svg width="24" height="24" viewBox="0 0 24 24" fill="none" xmlns="http://www.w3.org/2000/svg">
<path d="M21.68 16.9599L18.55 9.64988C17.49 7.16988 15.54 7.06988 14.23 9.42988L12.34 12.8399C11.38 14.5699 9.58999 14.7199 8.34999 13.1699L8.12999 12.8899C6.83999 11.2699 5.01999 11.4699 4.08999 13.3199L2.36999 16.7699C1.15999 19.1699 2.90999 21.9999 5.58999 21.9999H18.35C20.95 21.9999 22.7 19.3499 21.68 16.9599Z" stroke="#171717" stroke-width="1.5" stroke-linecap="round" stroke-linejoin="round"/>
<path opacity="0.4" d="M6.96997 8C8.62682 8 9.96997 6.65685 9.96997 5C9.96997 3.34315 8.62682 2 6.96997 2C5.31312 2 3.96997 3.34315 3.96997 5C3.96997 6.65685 5.31312 8 6.96997 8Z" stroke="#171717" stroke-width="1.5" stroke-linecap="round" stroke-linejoin="round"/>
</svg>
