<svg width="24" height="24" viewBox="0 0 24 24" fill="none" xmlns="http://www.w3.org/2000/svg">
<path d="M19.33 16.75C19.17 16.75 19.02 16.7 18.88 16.6C18.55 16.35 18.48 15.88 18.73 15.55C20.3 13.46 20.3 10.54 18.73 8.45003C18.48 8.12003 18.55 7.65003 18.88 7.40003C19.21 7.15003 19.68 7.22003 19.93 7.55003C21.9 10.17 21.9 13.83 19.93 16.45C19.79 16.65 19.56 16.75 19.33 16.75Z" fill="#171717"/>
<path opacity="0.4" d="M17.08 7.40997V16.59C17.08 18.31 16.46 19.6 15.35 20.22C14.9 20.47 14.4 20.59 13.88 20.59C13.08 20.59 12.22 20.32 11.34 19.77L8.41999 17.94C8.21999 17.82 7.98999 17.75 7.75999 17.75H6.82999V6.24997H7.75999C7.98999 6.24997 8.21999 6.17997 8.41999 6.05997L11.34 4.22997C12.8 3.31997 14.23 3.15997 15.35 3.77997C16.46 4.39997 17.08 5.68997 17.08 7.40997Z" fill="#171717"/>
<path d="M6.82999 6.25V17.75H6.32999C3.90999 17.75 2.57999 16.42 2.57999 14V10C2.57999 7.58 3.90999 6.25 6.32999 6.25H6.82999Z" fill="#171717"/>
</svg>
