<svg width="24" height="24" viewBox="0 0 24 24" fill="none" xmlns="http://www.w3.org/2000/svg">
<path d="M22.53 13.4202L21.08 11.9702L22.48 10.5702C22.77 10.2802 22.77 9.80018 22.48 9.51018C22.19 9.22018 21.71 9.22018 21.42 9.51018L20.02 10.9102L18.57 9.46018C18.28 9.17018 17.8 9.17018 17.51 9.46018C17.22 9.75018 17.22 10.2302 17.51 10.5202L18.96 11.9702L17.47 13.4602C17.18 13.7502 17.18 14.2302 17.47 14.5202C17.62 14.6702 17.81 14.7402 18 14.7402C18.19 14.7402 18.38 14.6702 18.53 14.5202L20.02 13.0302L21.47 14.4802C21.62 14.6302 21.81 14.7002 22 14.7002C22.19 14.7002 22.38 14.6302 22.53 14.4802C22.82 14.1902 22.82 13.7202 22.53 13.4202Z" fill="#171717"/>
<path d="M14.02 3.78021C12.9 3.16021 11.47 3.32021 10.01 4.23021L7.09 6.06021C6.89 6.18021 6.66 6.25021 6.43 6.25021H5.5H5C2.58 6.25021 1.25 7.58021 1.25 10.0002V14.0002C1.25 16.4202 2.58 17.7502 5 17.7502H5.5H6.43C6.66 17.7502 6.89 17.8202 7.09 17.9402L10.01 19.7702C10.89 20.3202 11.75 20.5902 12.55 20.5902C13.07 20.5902 13.57 20.4702 14.02 20.2202C15.13 19.6002 15.75 18.3102 15.75 16.5902V7.41021C15.75 5.69021 15.13 4.40021 14.02 3.78021Z" fill="#171717"/>
</svg>
