<svg width="24" height="24" viewBox="0 0 24 24" fill="none" xmlns="http://www.w3.org/2000/svg">
<path d="M19.63 7.23991C19.93 7.70991 19.77 8.33991 19.29 8.62991L18.7 8.97991L5.59004 16.8399C5.11004 17.1299 4.48003 16.9699 4.20003 16.4799C3.20003 14.7399 2.75004 12.6199 3.14004 10.3999C3.80004 6.62991 6.90003 3.62991 10.69 3.08991C14.44 2.55991 17.83 4.35991 19.63 7.23991Z" fill="#171717"/>
<path d="M20.89 13.4301C20.21 17.6801 16.45 20.9301 12.14 21.0001C10.24 21.0301 8.48003 20.4801 7.02003 19.4901C6.40003 19.0801 6.42003 18.1601 7.06003 17.7801L19.47 10.4901C20.12 10.1101 20.92 10.5501 20.98 11.3001C21.03 12.0001 21 12.7101 20.89 13.4301Z" fill="#171717"/>
</svg>
