<svg width="24" height="24" viewBox="0 0 24 24" fill="none" xmlns="http://www.w3.org/2000/svg">
<path d="M13.88 20.5901C13.09 20.5901 12.22 20.3101 11.35 19.7601L8.42999 17.9301C8.22999 17.8101 7.99999 17.7401 7.76999 17.7401H6.32999C3.90999 17.7401 2.57999 16.4101 2.57999 13.9901V9.99011C2.57999 7.57011 3.90999 6.24011 6.32999 6.24011H7.75999C7.98999 6.24011 8.21999 6.17011 8.41999 6.05011L11.34 4.22011C12.8 3.31011 14.22 3.14011 15.34 3.76011C16.46 4.38011 17.07 5.67011 17.07 7.40011V16.5701C17.07 18.2901 16.45 19.5901 15.34 20.2101C14.9 20.4701 14.41 20.5901 13.88 20.5901ZM6.32999 7.75011C4.74999 7.75011 4.07999 8.42011 4.07999 10.0001V14.0001C4.07999 15.5801 4.74999 16.2501 6.32999 16.2501H7.75999C8.27999 16.2501 8.77999 16.3901 9.21999 16.6701L12.14 18.5001C13.11 19.1001 14.01 19.2601 14.62 18.9201C15.23 18.5801 15.58 17.7301 15.58 16.6001V7.41011C15.58 6.27011 15.23 5.42011 14.62 5.09011C14.01 4.75011 13.11 4.90011 12.14 5.51011L9.21999 7.33011C8.77999 7.61011 8.27999 7.75011 7.75999 7.75011H6.32999Z" fill="#171717"/>
<path d="M19.33 16.7498C19.17 16.7498 19.02 16.6998 18.88 16.5998C18.55 16.3498 18.48 15.8798 18.73 15.5498C20.3 13.4598 20.3 10.5398 18.73 8.44978C18.48 8.11978 18.55 7.64978 18.88 7.39978C19.21 7.14978 19.68 7.21978 19.93 7.54978C21.9 10.1698 21.9 13.8298 19.93 16.4498C19.79 16.6498 19.56 16.7498 19.33 16.7498Z" fill="#171717"/>
</svg>
