<svg width="24" height="24" viewBox="0 0 24 24" fill="none" xmlns="http://www.w3.org/2000/svg">
<path d="M9.54004 16.6701C9.13004 16.6701 8.79004 16.3301 8.79004 15.9201V12.5301L8.60003 12.7401C8.32003 13.0501 7.85004 13.0701 7.54004 12.8001C7.23004 12.5201 7.21004 12.0501 7.48004 11.7401L8.98004 10.0701C9.19004 9.84008 9.52003 9.76007 9.81003 9.87007C10.1 9.98007 10.29 10.2601 10.29 10.5701V15.9201C10.29 16.3401 9.96004 16.6701 9.54004 16.6701Z" fill="#171717"/>
<path opacity="0.4" d="M12 3.47998C11.92 3.47998 11.84 3.48999 11.76 3.48999L12.58 2.46997C12.84 2.14997 12.79 1.66998 12.46 1.41998C12.14 1.15998 11.67 1.20998 11.41 1.53998L9.42996 4.01001C9.41996 4.02001 9.41997 4.03999 9.40997 4.04999C9.37997 4.08999 9.35997 4.14 9.33997 4.19C9.31997 4.23 9.29998 4.27001 9.28998 4.32001C9.27998 4.37001 9.27997 4.41002 9.27997 4.46002C9.27997 4.51002 9.27997 4.55999 9.27997 4.60999C9.27997 4.62999 9.27997 4.63997 9.27997 4.65997C9.28997 4.68997 9.30998 4.72 9.31998 4.75C9.33998 4.8 9.34997 4.84001 9.37997 4.88001C9.40997 4.92001 9.43998 4.96 9.47998 5C9.49998 5.02 9.50998 5.05001 9.53998 5.07001C9.54998 5.08001 9.56996 5.08003 9.57996 5.09003C9.60996 5.11003 9.63996 5.13002 9.67996 5.14002C9.72996 5.17002 9.77996 5.19001 9.82996 5.20001C9.85996 5.21001 9.89996 5.20997 9.92996 5.21997C9.95996 5.21997 9.97998 5.22998 10.01 5.22998C10.03 5.22998 10.06 5.22002 10.08 5.21002C10.11 5.21002 10.14 5.21002 10.18 5.21002C10.82 5.06002 11.42 4.98999 11.99 4.98999C16.48 4.98999 20.13 8.64001 20.13 13.13C20.13 17.62 16.48 21.27 11.99 21.27C7.49996 21.27 3.84998 17.62 3.84998 13.13C3.84998 11.39 4.41997 9.71002 5.49997 8.27002C5.74997 7.94002 5.67998 7.46997 5.34998 7.21997C5.01998 6.96997 4.54996 7.04 4.29996 7.37C3.01996 9.07 2.34998 11.06 2.34998 13.13C2.34998 18.44 6.66996 22.77 11.99 22.77C17.31 22.77 21.63 18.45 21.63 13.13C21.63 7.81 17.31 3.47998 12 3.47998Z" fill="#171717"/>
<path d="M14 16.67C12.48 16.67 11.25 15.44 11.25 13.92V12.5701C11.25 11.0501 12.48 9.82007 14 9.82007C15.52 9.82007 16.75 11.0501 16.75 12.5701V13.92C16.75 15.44 15.52 16.67 14 16.67ZM14 11.3301C13.31 11.3301 12.75 11.8901 12.75 12.5801V13.9301C12.75 14.6201 13.31 15.1801 14 15.1801C14.69 15.1801 15.25 14.6201 15.25 13.9301V12.5801C15.25 11.8901 14.69 11.3301 14 11.3301Z" fill="#171717"/>
</svg>
