<svg width="24" height="24" viewBox="0 0 24 24" fill="none" xmlns="http://www.w3.org/2000/svg">
<path opacity="0.4" d="M19.48 7.09006C19.22 6.77006 18.75 6.72001 18.43 6.98001C18.11 7.24001 18.06 7.71006 18.32 8.03006C19.45 9.43006 20.08 11.09 20.14 12.83C20.3 17.31 16.78 21.09 12.29 21.24C7.81 21.4 4.03002 17.88 3.88002 13.39C3.73002 8.90004 7.24 5.13001 11.73 4.98001C12.3 4.96001 12.9 5.01004 13.55 5.14004C13.59 5.15004 13.63 5.14004 13.67 5.14004C13.77 5.19004 13.89 5.22 14 5.22C14.17 5.22 14.33 5.17002 14.47 5.05002C14.79 4.79002 14.84 4.32003 14.59 4.00003L12.61 1.53006C12.35 1.21006 11.88 1.15 11.56 1.41C11.24 1.67 11.19 2.14005 11.44 2.46005L12.27 3.49002C12.08 3.48002 11.88 3.47001 11.69 3.48001C6.38002 3.66001 2.21004 8.14004 2.40004 13.45C2.59004 18.76 7.06001 22.93 12.37 22.74C17.68 22.55 21.85 18.08 21.66 12.77C21.56 10.71 20.82 8.74006 19.48 7.09006Z" fill="#171717"/>
<path d="M12.38 16.92H10.09C9.68004 16.92 9.34004 16.58 9.34004 16.17C9.34004 15.76 9.68004 15.42 10.09 15.42H12.38C12.81 15.42 13.16 15.0701 13.16 14.6401C13.16 14.2101 12.81 13.86 12.38 13.86H10.09C9.85004 13.86 9.61999 13.74 9.47999 13.55C9.33999 13.36 9.30001 13.1001 9.38001 12.8701L10.14 10.5801C10.24 10.2701 10.53 10.0701 10.85 10.0701H13.91C14.32 10.0701 14.66 10.4101 14.66 10.8201C14.66 11.2301 14.32 11.5701 13.91 11.5701H11.39L11.13 12.36H12.38C13.64 12.36 14.66 13.3801 14.66 14.6401C14.66 15.9001 13.64 16.92 12.38 16.92Z" fill="#171717"/>
</svg>
