<svg width="24" height="24" viewBox="0 0 24 24" fill="none" xmlns="http://www.w3.org/2000/svg">
<path d="M21.69 2.71002C21.61 2.53002 21.47 2.37999 21.28 2.29999C21.19 2.25999 21.09 2.23999 20.99 2.23999H16.99C16.58 2.23999 16.24 2.57999 16.24 2.98999C16.24 3.39999 16.58 3.73999 16.99 3.73999H19.18L14.46 8.46002C14.17 8.75002 14.17 9.23002 14.46 9.52002C14.61 9.67002 14.8 9.73999 14.99 9.73999C15.18 9.73999 15.37 9.67002 15.52 9.52002L20.24 4.79999V7C20.24 7.41 20.58 7.75 20.99 7.75C21.4 7.75 21.74 7.41 21.74 7V3C21.75 2.9 21.73 2.81002 21.69 2.71002Z" fill="#171717"/>
<path d="M8.46997 14.4699L3.75 19.1899V16.9999C3.75 16.5899 3.41 16.2499 3 16.2499C2.59 16.2499 2.25 16.5899 2.25 16.9999V20.9999C2.25 21.0999 2.27 21.1899 2.31 21.2899C2.39 21.4699 2.52997 21.6199 2.71997 21.6999C2.80997 21.7399 2.91001 21.7599 3.01001 21.7599H7.01001C7.42001 21.7599 7.76001 21.4199 7.76001 21.0099C7.76001 20.5999 7.42001 20.2599 7.01001 20.2599H4.82001L9.53998 15.5399C9.82998 15.2499 9.82998 14.7699 9.53998 14.4799C9.24998 14.1899 8.75997 14.1799 8.46997 14.4699Z" fill="#171717"/>
<path opacity="0.4" d="M2.20001 14.75C1.85001 14.75 1.53997 14.5 1.46997 14.15C1.32997 13.45 1.25 12.72 1.25 12C1.25 6.07 6.07 1.25 12 1.25C12.73 1.25 13.46 1.31997 14.17 1.46997C14.58 1.54997 14.84 1.94998 14.76 2.34998C14.68 2.75998 14.27 3.01 13.88 2.94C13.27 2.82 12.64 2.75 12.01 2.75C6.91001 2.75 2.76001 6.9 2.76001 12C2.76001 12.62 2.82001 13.25 2.95001 13.85C3.03001 14.26 2.76999 14.65 2.35999 14.73C2.29999 14.75 2.25001 14.75 2.20001 14.75Z" fill="#171717"/>
<path opacity="0.4" d="M12 22.75C11.27 22.75 10.54 22.6801 9.82999 22.5301C9.41999 22.4501 9.15997 22.0501 9.23997 21.6501C9.31997 21.2401 9.72997 20.99 10.12 21.06C10.73 21.18 11.36 21.25 11.99 21.25C17.09 21.25 21.24 17.1 21.24 12C21.24 11.38 21.18 10.7601 21.06 10.1501C20.98 9.74006 21.24 9.35006 21.65 9.27006C22.06 9.19006 22.45 9.45003 22.53 9.86003C22.67 10.56 22.74 11.28 22.74 12C22.75 17.93 17.93 22.75 12 22.75Z" fill="#171717"/>
</svg>
