<svg width="24" height="24" viewBox="0 0 24 24" fill="none" xmlns="http://www.w3.org/2000/svg">
<path d="M22.53 13.4199L21.08 11.9699L22.48 10.5699C22.77 10.2799 22.77 9.79993 22.48 9.50993C22.19 9.21993 21.71 9.21993 21.42 9.50993L20.02 10.9099L18.57 9.45993C18.28 9.16993 17.8 9.16993 17.51 9.45993C17.22 9.74993 17.22 10.2299 17.51 10.5199L18.96 11.9699L17.47 13.4599C17.18 13.7499 17.18 14.2299 17.47 14.5199C17.62 14.6699 17.81 14.7399 18 14.7399C18.19 14.7399 18.38 14.6699 18.53 14.5199L20.02 13.0299L21.47 14.4799C21.62 14.6299 21.81 14.6999 22 14.6999C22.19 14.6999 22.38 14.6299 22.53 14.4799C22.82 14.1899 22.82 13.7199 22.53 13.4199Z" fill="#171717"/>
<path opacity="0.4" d="M15.75 7.40997V16.59C15.75 18.31 15.13 19.6 14.02 20.22C13.57 20.47 13.07 20.59 12.55 20.59C11.75 20.59 10.89 20.32 10.01 19.77L7.09 17.94C6.89 17.82 6.66 17.75 6.43 17.75H5.5V6.24997H6.43C6.66 6.24997 6.89 6.17997 7.09 6.05997L10.01 4.22997C11.47 3.31997 12.9 3.15997 14.02 3.77997C15.13 4.39997 15.75 5.68997 15.75 7.40997Z" fill="#171717"/>
<path d="M5.5 6.25V17.75H5C2.58 17.75 1.25 16.42 1.25 14V10C1.25 7.58 2.58 6.25 5 6.25H5.5Z" fill="#171717"/>
</svg>
