<svg width="24" height="24" viewBox="0 0 24 24" fill="none" xmlns="http://www.w3.org/2000/svg">
<path opacity="0.4" d="M19.69 7.3499C19.44 7.0199 18.97 6.94994 18.64 7.19994C18.31 7.44994 18.24 7.91992 18.49 8.24992C19.57 9.68992 20.14 11.3699 20.14 13.1099C20.14 17.5999 16.49 21.2499 12 21.2499C7.50997 21.2499 3.85995 17.5999 3.85995 13.1099C3.85995 8.61991 7.50997 4.96989 12 4.96989C12.58 4.96989 13.17 5.03993 13.81 5.18993C13.84 5.19993 13.87 5.18993 13.91 5.18993C13.93 5.18993 13.96 5.20995 13.98 5.20995C14.01 5.20995 14.03 5.19994 14.06 5.19994C14.1 5.19994 14.13 5.18992 14.16 5.17992C14.21 5.16992 14.26 5.14992 14.31 5.11992C14.34 5.09992 14.38 5.08993 14.41 5.06993C14.42 5.05993 14.44 5.05991 14.45 5.04991C14.48 5.02991 14.49 4.9999 14.51 4.9799C14.55 4.9399 14.58 4.90991 14.61 4.85991C14.64 4.81991 14.65 4.7699 14.67 4.7299C14.68 4.6999 14.7 4.66994 14.71 4.63994C14.71 4.61994 14.71 4.60995 14.71 4.58995C14.72 4.53995 14.72 4.48993 14.71 4.43993C14.71 4.38993 14.71 4.34991 14.7 4.29991C14.69 4.25991 14.67 4.21991 14.65 4.16991C14.63 4.11991 14.61 4.06995 14.58 4.02995C14.57 4.01995 14.57 3.99991 14.56 3.98991L12.58 1.51994C12.32 1.19994 11.85 1.14995 11.53 1.39995C11.21 1.65995 11.16 2.12994 11.41 2.44994L12.23 3.46989C12.15 3.46989 12.07 3.45995 11.99 3.45995C6.67996 3.45995 2.34998 7.7799 2.34998 13.0999C2.34998 18.4199 6.66996 22.7399 11.99 22.7399C17.31 22.7399 21.63 18.4199 21.63 13.0999C21.64 11.0399 20.96 9.0499 19.69 7.3499Z" fill="#171717"/>
<path d="M9.54004 16.6701C9.13004 16.6701 8.79004 16.3301 8.79004 15.9201V12.5301L8.60003 12.7401C8.32003 13.0501 7.85004 13.0701 7.54004 12.8001C7.23004 12.5201 7.21004 12.0501 7.48004 11.7401L8.98004 10.0701C9.19004 9.84008 9.52003 9.76007 9.81003 9.87007C10.1 9.98007 10.29 10.2601 10.29 10.5701V15.9201C10.29 16.3401 9.96004 16.6701 9.54004 16.6701Z" fill="#171717"/>
<path d="M14 16.67C12.48 16.67 11.25 15.44 11.25 13.92V12.5701C11.25 11.0501 12.48 9.82007 14 9.82007C15.52 9.82007 16.75 11.0501 16.75 12.5701V13.92C16.75 15.44 15.52 16.67 14 16.67ZM14 11.3301C13.31 11.3301 12.75 11.8901 12.75 12.5801V13.9301C12.75 14.6201 13.31 15.1801 14 15.1801C14.69 15.1801 15.25 14.6201 15.25 13.9301V12.5801C15.25 11.8901 14.69 11.3301 14 11.3301Z" fill="#171717"/>
</svg>
