<svg width="24" height="24" viewBox="0 0 24 24" fill="none" xmlns="http://www.w3.org/2000/svg">
<path d="M22.79 21.76L22.07 21.04C22.44 20.48 22.66 19.8 22.66 19.08C22.66 17.1 21.06 15.5 19.08 15.5C17.1 15.5 15.5 17.1 15.5 19.08C15.5 21.06 17.1 22.66 19.08 22.66C19.81 22.66 20.48 22.44 21.04 22.07L21.76 22.79C21.9 22.93 22.09 23 22.27 23C22.46 23 22.64 22.93 22.78 22.79C23.07 22.5 23.07 22.04 22.79 21.76Z" fill="#171717"/>
<path opacity="0.4" d="M16.19 2H7.82001C4.18001 2 2.00999 4.17 2.00999 7.81V16.18C2.00999 19.82 4.18001 21.99 7.82001 21.99H16.19C19.83 21.99 22 19.82 22 16.18V7.81C22 4.17 19.83 2 16.19 2Z" fill="#171717"/>
<path d="M13.78 5.3C13.46 5.05 12.88 4.81001 11.96 5.06001L8.98 5.88002C8.09 6.11002 7.50999 6.86 7.50999 7.8V9.55V11.71C7.27999 11.63 7.03 11.57 6.77 11.57C5.53 11.57 4.53 12.58 4.53 13.81C4.53 15.04 5.54 16.05 6.77 16.05C7.99 16.05 8.98999 15.06 9.00999 13.85C9.00999 13.84 9.02 13.83 9.02 13.82V10.12L12.99 9.03999V10.72C12.76 10.64 12.51 10.58 12.24 10.58C11 10.58 10 11.59 10 12.82C10 14.06 11.01 15.06 12.24 15.06C13.46 15.06 14.46 14.07 14.48 12.85C14.48 12.84 14.49 12.83 14.49 12.81V8.05V6.97999C14.48 6.21999 14.24 5.65 13.78 5.3ZM6.75999 14.55C6.34999 14.55 6.02 14.22 6.02 13.81C6.02 13.4 6.34999 13.07 6.75999 13.07C7.16999 13.07 7.5 13.4 7.5 13.81C7.5 14.22 7.16999 14.55 6.75999 14.55ZM12.23 13.55C11.82 13.55 11.49 13.22 11.49 12.81C11.49 12.4 11.82 12.07 12.23 12.07C12.64 12.07 12.97 12.4 12.97 12.81C12.97 13.22 12.64 13.55 12.23 13.55Z" fill="#171717"/>
</svg>
