<svg width="24" height="24" viewBox="0 0 24 24" fill="none" xmlns="http://www.w3.org/2000/svg">
<g clip-path="url(#clip0_211_62797)">
<path d="M3 19H3.01" stroke="black" stroke-width="1.5" stroke-linecap="round" stroke-linejoin="round"/>
<path d="M7 19C7 17.9391 6.57857 16.9217 5.82843 16.1716C5.07828 15.4214 4.06087 15 3 15" stroke="black" stroke-width="1.5" stroke-linecap="round" stroke-linejoin="round"/>
<path d="M11 19C11 16.8783 10.1571 14.8434 8.65685 13.3431C7.15656 11.8429 5.12173 11 3 11" stroke="black" stroke-width="1.5" stroke-linecap="round" stroke-linejoin="round"/>
<path d="M15.0001 19H18.0001C18.2966 19.0001 18.5915 18.9563 18.8751 18.87M20.8751 16.87C20.9601 16.5885 21.0032 16.296 21.0031 16.002V8.00195C21.0031 7.2063 20.6871 6.44324 20.1244 5.88063C19.5618 5.31802 18.7988 5.00195 18.0031 5.00195H9.00313M5.13812 5.13795C4.6929 5.27686 4.28619 5.51766 3.95029 5.84123C3.61439 6.1648 3.35857 6.56223 3.20312 7.00195" stroke="black" stroke-width="1.5" stroke-linecap="round" stroke-linejoin="round"/>
<path d="M3 3L21 21" stroke="black" stroke-width="1.5" stroke-linecap="round" stroke-linejoin="round"/>
</g>
<defs>
<clipPath id="clip0_211_62797">
<rect width="24" height="24" fill="white"/>
</clipPath>
</defs>
</svg>
