<svg width="24" height="24" viewBox="0 0 24 24" fill="none" xmlns="http://www.w3.org/2000/svg">
<g clip-path="url(#clip0_211_62876)">
<path d="M3 17C3 17.7956 3.31607 18.5587 3.87868 19.1213C4.44129 19.6839 5.20435 20 6 20C6.79565 20 7.55871 19.6839 8.12132 19.1213C8.68393 18.5587 9 17.7956 9 17C9 16.2044 8.68393 15.4413 8.12132 14.8787C7.55871 14.3161 6.79565 14 6 14C5.20435 14 4.44129 14.3161 3.87868 14.8787C3.31607 15.4413 3 16.2044 3 17Z" stroke="black" stroke-width="1.5" stroke-linecap="round" stroke-linejoin="round"/>
<path d="M14.4186 14.4502C14.0339 14.6888 13.7081 15.0115 13.4658 15.3939C13.2235 15.7764 13.0709 16.2087 13.0195 16.6585C12.968 17.1083 13.019 17.5639 13.1686 17.9912C13.3183 18.4185 13.5627 18.8063 13.8836 19.1257C14.2044 19.4451 14.5934 19.6878 15.0214 19.8354C15.4494 19.9831 15.9052 20.032 16.3548 19.9785C16.8043 19.9249 17.236 19.7704 17.6173 19.5263C17.9986 19.2822 18.3197 18.955 18.5566 18.5692" stroke="black" stroke-width="1.5" stroke-linecap="round" stroke-linejoin="round"/>
<path d="M9 17V9M9 5V4H19V15" stroke="black" stroke-width="1.5" stroke-linecap="round" stroke-linejoin="round"/>
<path d="M12 8H19" stroke="black" stroke-width="1.5" stroke-linecap="round" stroke-linejoin="round"/>
<path d="M3 3L21 21" stroke="black" stroke-width="1.5" stroke-linecap="round" stroke-linejoin="round"/>
</g>
<defs>
<clipPath id="clip0_211_62876">
<rect width="24" height="24" fill="white"/>
</clipPath>
</defs>
</svg>
