<svg width="24" height="24" viewBox="0 0 24 24" fill="none" xmlns="http://www.w3.org/2000/svg">
<g clip-path="url(#clip0_211_62810)">
<path d="M3 3L21 21" stroke="black" stroke-width="1.5" stroke-linecap="round" stroke-linejoin="round"/>
<path d="M4 15C4 14.4696 4.21071 13.9609 4.58579 13.5858C4.96086 13.2107 5.46957 13 6 13H7C7.53043 13 8.03914 13.2107 8.41421 13.5858C8.78929 13.9609 9 14.4696 9 15V18C9 18.5304 8.78929 19.0391 8.41421 19.4142C8.03914 19.7893 7.53043 20 7 20H6C5.46957 20 4.96086 19.7893 4.58579 19.4142C4.21071 19.0391 4 18.5304 4 18V15Z" stroke="black" stroke-width="1.5" stroke-linecap="round" stroke-linejoin="round"/>
<path d="M17 13H18C18.5304 13 19.0391 13.2107 19.4142 13.5858C19.7893 13.9609 20 14.4696 20 15V16M19.411 19.417C19.05 19.777 18.551 20 18 20H17C16.4696 20 15.9609 19.7893 15.5858 19.4142C15.2107 19.0391 15 18.5304 15 18V15" stroke="black" stroke-width="1.5" stroke-linecap="round" stroke-linejoin="round"/>
<path d="M4 14.9995V11.9995C4 9.78954 4.896 7.78954 6.344 6.34154M8.713 4.70354C9.93158 4.15436 11.2683 3.91925 12.6012 4.01969C13.934 4.12013 15.2204 4.55292 16.3429 5.27852C17.4654 6.00411 18.3883 6.9994 19.0271 8.17346C19.6659 9.34752 20.0004 10.6629 20 11.9995V14.9995" stroke="black" stroke-width="1.5" stroke-linecap="round" stroke-linejoin="round"/>
</g>
<defs>
<clipPath id="clip0_211_62810">
<rect width="24" height="24" fill="white"/>
</clipPath>
</defs>
</svg>
