<svg width="48" height="48" viewBox="0 0 48 48" fill="none" xmlns="http://www.w3.org/2000/svg">
<path d="M0 24C0 10.7452 10.7452 0 24 0C37.2548 0 48 10.7452 48 24C48 37.2548 37.2548 48 24 48C10.7452 48 0 37.2548 0 24Z" fill="white"/>
<path fill-rule="evenodd" clip-rule="evenodd" d="M18.4229 20.968C17.8288 21.8231 17.5318 22.8529 17.5318 24.059H17.5282C17.5282 25.5784 17.9603 26.754 18.8244 27.5821C19.6885 28.4102 20.7938 28.8242 22.1368 28.8242C23.0099 28.8242 23.7444 28.7378 24.3384 28.5614C25.28 28.2985 26.2395 27.6361 27.2188 26.5703C27.289 26.6585 27.4114 26.8278 27.5879 27.0834C27.7607 27.3372 27.8867 27.5047 27.9659 27.5947C28.0433 27.6811 28.1747 27.8215 28.3584 28.0123C28.542 28.2049 28.7544 28.4066 28.9992 28.6154C29.2963 28.7378 29.5501 28.7198 29.7589 28.5614C29.8813 28.457 30.6662 27.7783 32.1172 26.5181C32.2576 26.4137 32.326 26.2913 32.326 26.1527C32.326 26.0303 32.2738 25.8898 32.1694 25.7332L31.5682 24.9339C31.4457 24.7683 31.3161 24.4983 31.1901 24.1202C31.0569 23.7476 30.9921 23.3335 30.9921 22.8781V16.5413C30.9921 16.4729 30.9849 16.2496 30.9669 15.8752C30.9489 15.5007 30.9237 15.2541 30.8877 15.1407C30.8553 15.0273 30.8013 14.8221 30.7292 14.5286C30.6608 14.2298 30.5852 14.003 30.4952 13.8445C30.4106 13.6861 30.29 13.5097 30.1406 13.3081C29.9912 13.1083 29.8309 12.9192 29.6581 12.7446C28.5384 11.7149 26.9848 11.2 24.9955 11.2H24.3421C22.7903 11.2864 21.4311 11.7059 20.2699 12.4566C19.1106 13.2073 18.3815 14.3594 18.0845 15.913C18.0665 15.9832 18.0575 16.0426 18.0575 16.0966C18.0575 16.3415 18.2069 16.4981 18.5021 16.5701L21.5139 16.9373C21.7929 16.8851 21.9676 16.6835 22.0396 16.3343C22.1602 15.7762 22.4302 15.3387 22.8497 15.0237C23.2691 14.7069 23.7678 14.5268 24.3439 14.4728H24.5473C25.334 14.4728 25.91 14.7357 26.2755 15.2613C26.5185 15.643 26.6445 16.3955 26.6445 17.5116V17.9563C25.5788 18.0427 24.8083 18.1111 24.3402 18.1651C22.9613 18.3397 21.8001 18.6277 20.8586 19.0292C19.8271 19.4666 19.017 20.1129 18.4229 20.968ZM22.5454 25.1716C22.2052 24.7575 22.036 24.2138 22.036 23.5334L22.0342 23.5352C22.0342 22.0338 22.8011 21.0652 24.3384 20.6296C24.8605 20.491 25.6292 20.419 26.6427 20.419V21.0724C26.6427 21.6305 26.6391 22.0338 26.6301 22.2786C26.6211 22.5234 26.5689 22.8421 26.4735 23.2327C26.3763 23.6252 26.2323 23.987 26.0415 24.3201C25.64 25.0707 25.0711 25.5406 24.3403 25.7332C24.3042 25.7332 24.2376 25.7422 24.1422 25.7602C24.045 25.7764 23.973 25.7836 23.919 25.7836C23.3429 25.7836 22.8875 25.5802 22.5454 25.1716Z" fill="#221F1F"/>
<path d="M33.0318 31.9656C33.0678 31.8936 33.1218 31.8252 33.1884 31.755C33.6258 31.4597 34.0453 31.2581 34.4485 31.1537C35.1092 30.9809 35.7555 30.8837 36.3838 30.8657C36.5584 30.8477 36.7258 30.8585 36.8806 30.8927C37.6673 30.9647 38.1408 31.0943 38.2956 31.2887C38.3676 31.3913 38.4 31.548 38.4 31.7568V31.9404C38.4 32.5525 38.2344 33.2726 37.9032 34.1007C37.5701 34.9288 37.1075 35.5985 36.517 36.1043C36.427 36.1763 36.3496 36.2087 36.2794 36.2087C36.2434 36.2087 36.2074 36.1997 36.175 36.1835C36.0669 36.1295 36.0435 36.0341 36.0957 35.8955C36.7438 34.3761 37.0643 33.3212 37.0643 32.7271C37.0643 32.5345 37.0283 32.3941 36.9599 32.3076C36.7852 32.1006 36.2974 31.9944 35.4927 31.9944C35.1974 31.9944 34.8482 32.0124 34.4485 32.0484C34.0093 32.1024 33.6078 32.1528 33.2424 32.205C33.1344 32.205 33.0678 32.187 33.0318 32.151C32.9958 32.115 32.9886 32.0826 33.0066 32.0466C33.0066 32.0286 33.0138 32.0034 33.0318 31.9692V31.9656Z" fill="#FF9900"/>
<path d="M9.65398 31.5209C9.74039 31.3805 9.87901 31.3715 10.0716 31.4939C14.4354 34.025 19.1844 35.2924 24.3168 35.2924C27.7372 35.2924 31.1163 34.6533 34.4521 33.3787L34.8301 33.2221C34.9958 33.1501 35.1128 33.0997 35.183 33.0655C35.4458 32.9611 35.651 33.0115 35.8005 33.2221C35.9481 33.431 35.8995 33.6236 35.6564 33.7982C35.3414 34.025 34.9399 34.2879 34.4503 34.5831C32.9507 35.4742 31.2747 36.1637 29.4241 36.6534C27.5752 37.1394 25.7696 37.386 24.0054 37.386C21.2816 37.386 18.7073 36.909 16.2824 35.9585C13.8521 35.0079 11.681 33.6668 9.7602 31.9386C9.65398 31.854 9.59998 31.7639 9.59998 31.6775C9.59998 31.6235 9.61798 31.5731 9.65398 31.5209Z" fill="#FF9900"/>
</svg>
