<svg width="48" height="48" viewBox="0 0 48 48" fill="none" xmlns="http://www.w3.org/2000/svg">
<path d="M14.6782 20.1697L23.9997 10.8486L33.3261 20.1746L38.7501 14.7507L23.9997 0L9.25427 14.7458L14.6782 20.1697Z" fill="#F3BA2F"/>
<path d="M10.8479 23.9988L5.42407 18.575L-6.33442e-06 23.9991L5.42381 29.4229L10.8479 23.9988Z" fill="#F3BA2F"/>
<path d="M14.6782 27.8296L23.9997 37.1508L33.3258 27.8251L38.7527 33.2459L38.7501 33.249L23.9997 47.9993L9.25392 33.2539L9.24634 33.2463L14.6782 27.8296Z" fill="#F3BA2F"/>
<path d="M42.5759 29.4254L48 24.0013L42.5762 18.5775L37.1521 24.0016L42.5759 29.4254Z" fill="#F3BA2F"/>
<path d="M29.5013 23.9968H29.5036L23.9997 18.4929L19.9323 22.5604H19.9319L19.4648 23.0278L18.5007 23.9919L18.4932 23.9995L18.5007 24.0074L23.9997 29.5064L29.5036 24.0025L29.5063 23.9995L29.5013 23.9968Z" fill="#F3BA2F"/>
</svg>
