<svg width="48" height="48" viewBox="0 0 48 48" fill="none" xmlns="http://www.w3.org/2000/svg">
<path d="M45.7936 16.1169C44.7826 13.6844 42.732 11.058 41.1261 10.2278C42.2712 12.4453 43.0661 14.8268 43.4823 17.2876L43.4866 17.3266C40.8559 10.7711 36.3968 8.12365 32.7528 2.36657C32.5685 2.07541 32.3842 1.78365 32.2047 1.47569C32.1021 1.29979 32.0198 1.14131 31.9484 0.995432C31.7973 0.702807 31.6808 0.393552 31.6014 0.0739382C31.6015 0.0591896 31.5962 0.044918 31.5864 0.0338457C31.5767 0.0227735 31.5632 0.0156756 31.5486 0.0139061C31.5342 0.00997238 31.5191 0.00997238 31.5047 0.0139061C31.5017 0.0139061 31.4969 0.019309 31.4933 0.0205096C31.4897 0.0217103 31.4819 0.0271132 31.4765 0.0295145L31.4855 0.0139061C25.6414 3.43574 23.6573 9.76913 23.4772 12.9388C21.1426 13.0989 18.9103 13.9589 17.0718 15.4067C16.8801 15.2443 16.6797 15.0924 16.4715 14.9517C15.9414 13.0961 15.9188 11.1322 16.406 9.26486C14.2598 10.3045 12.3528 11.7784 10.8057 13.5932H10.7948C9.87275 12.4244 9.93759 8.57029 9.99041 7.76526C9.71763 7.87489 9.45723 8.01313 9.2136 8.17768C8.39958 8.75863 7.6386 9.41053 6.93958 10.1257C6.14301 10.9333 5.41547 11.8063 4.76462 12.7353V12.7389V12.7347C3.26893 14.8548 2.20797 17.2502 1.64294 19.7825L1.61173 19.9362C1.5679 20.1409 1.41002 21.1662 1.38301 21.389C1.38301 21.4064 1.3794 21.4226 1.3776 21.44C1.17394 22.4986 1.04774 23.5706 1 24.6475V24.7676C1.01028 30.5898 3.20293 36.1966 7.14511 40.4813C11.0873 44.7659 16.4925 47.4169 22.2937 47.911C28.095 48.4051 33.8707 46.7064 38.4807 43.1502C43.0907 39.594 46.2 34.4387 47.1947 28.7021C47.2338 28.4019 47.2656 28.1047 47.3004 27.8016C47.7796 23.8406 47.2608 19.8227 45.7912 16.1133L45.7936 16.1169ZM18.9772 34.3307C19.0859 34.3829 19.1879 34.4393 19.2996 34.4892L19.3158 34.4994C19.2029 34.4453 19.0901 34.3891 18.9772 34.3307ZM43.4872 17.3332V17.311L43.4914 17.3356L43.4872 17.3332Z" fill="url(#paint0_linear_210_1254)"/>
<path d="M45.7938 16.1175C44.7829 13.685 42.7322 11.0586 41.1263 10.2284C42.2714 12.4459 43.0662 14.8274 43.4825 17.2882V17.3104L43.4868 17.335C45.2804 22.4672 45.021 28.094 42.7628 33.0394C40.0961 38.7611 33.6439 44.6256 23.5405 44.3375C12.6266 44.0283 3.00948 35.927 1.21452 25.3193C0.887342 23.6462 1.21452 22.7979 1.37901 21.4382C1.15464 22.4944 1.02942 23.5692 1.005 24.6487V24.7688C1.01529 30.591 3.20794 36.1979 7.15011 40.4825C11.0923 44.7671 16.4975 47.4181 22.2988 47.9122C28.1 48.4063 33.8757 46.7076 38.4857 43.1514C43.0957 39.5952 46.205 34.4399 47.1997 28.7033C47.2388 28.4031 47.2706 28.106 47.3054 27.8028C47.7846 23.8418 47.2658 19.8239 45.7962 16.1145L45.7938 16.1175Z" fill="url(#paint1_radial_210_1254)"/>
<path d="M45.7938 16.1175C44.7829 13.685 42.7322 11.0586 41.1263 10.2284C42.2714 12.4459 43.0662 14.8274 43.4825 17.2882V17.3104L43.4868 17.335C45.2804 22.4672 45.021 28.094 42.7628 33.0394C40.0961 38.7611 33.6439 44.6256 23.5405 44.3375C12.6266 44.0283 3.00948 35.927 1.21452 25.3193C0.887342 23.6462 1.21452 22.7979 1.37901 21.4382C1.15464 22.4944 1.02942 23.5692 1.005 24.6487V24.7688C1.01529 30.591 3.20794 36.1979 7.15011 40.4825C11.0923 44.7671 16.4975 47.4181 22.2988 47.9122C28.1 48.4063 33.8757 46.7076 38.4857 43.1514C43.0957 39.5952 46.205 34.4399 47.1997 28.7033C47.2388 28.4031 47.2706 28.106 47.3054 27.8028C47.7846 23.8418 47.2658 19.8239 45.7962 16.1145L45.7938 16.1175Z" fill="url(#paint2_radial_210_1254)"/>
<path d="M34.4836 18.849C34.5341 18.8844 34.5809 18.9198 34.6283 18.9553C34.0439 17.9189 33.3163 16.9701 32.4672 16.1368C25.2333 8.90289 30.5719 0.456364 31.4718 0.0241324L31.4808 0.0109253C25.6367 3.43276 23.6526 9.76615 23.4725 12.9358C23.7439 12.9172 24.0128 12.8944 24.2902 12.8944C26.3636 12.8984 28.399 13.4514 30.1894 14.4971C31.9798 15.5427 33.4614 17.0439 34.4836 18.8478V18.849Z" fill="url(#paint3_radial_210_1254)"/>
<path d="M24.3022 20.2957C24.2638 20.8744 22.2191 22.8704 21.5041 22.8704C14.8885 22.8704 13.814 26.8728 13.814 26.8728C14.1069 30.243 16.4554 33.0201 19.2943 34.4849C19.424 34.5521 19.5554 34.6127 19.6869 34.6722C19.9146 34.773 20.1424 34.8663 20.3701 34.9519C21.3444 35.2967 22.3649 35.4936 23.3975 35.536C34.9957 36.0799 37.2409 21.6686 28.8718 17.4844C30.846 17.2275 32.8453 17.7129 34.4818 18.8465C33.4596 17.0425 31.978 15.5414 30.1876 14.4957C28.3972 13.4501 26.3618 12.8971 24.2884 12.8931C24.0122 12.8931 23.7421 12.9159 23.4707 12.9345C21.1361 13.0946 18.9038 13.9546 17.0653 15.4024C17.4201 15.7026 17.8205 16.1036 18.664 16.9351C20.2428 18.4905 24.292 20.1018 24.301 20.2909L24.3022 20.2957Z" fill="url(#paint4_radial_210_1254)"/>
<path d="M24.3022 20.2957C24.2638 20.8744 22.2191 22.8704 21.5041 22.8704C14.8885 22.8704 13.814 26.8728 13.814 26.8728C14.1069 30.243 16.4554 33.0201 19.2943 34.4849C19.424 34.5521 19.5554 34.6127 19.6869 34.6722C19.9146 34.773 20.1424 34.8663 20.3701 34.9519C21.3444 35.2967 22.3649 35.4936 23.3975 35.536C34.9957 36.0799 37.2409 21.6686 28.8718 17.4844C30.846 17.2275 32.8453 17.7129 34.4818 18.8465C33.4596 17.0425 31.978 15.5414 30.1876 14.4957C28.3972 13.4501 26.3618 12.8971 24.2884 12.8931C24.0122 12.8931 23.7421 12.9159 23.4707 12.9345C21.1361 13.0946 18.9038 13.9546 17.0653 15.4024C17.4201 15.7026 17.8205 16.1036 18.664 16.9351C20.2428 18.4905 24.292 20.1018 24.301 20.2909L24.3022 20.2957Z" fill="url(#paint5_radial_210_1254)"/>
<path d="M15.9816 14.6346C16.1701 14.7546 16.3256 14.8591 16.4619 14.9534C15.9318 13.0977 15.9092 11.1339 16.3964 9.26651C14.2502 10.3061 12.3432 11.78 10.796 13.5948C10.9095 13.5918 14.2845 13.5312 15.9816 14.6346Z" fill="url(#paint6_radial_210_1254)"/>
<path d="M1.21033 25.3205C3.0059 35.9282 12.6224 44.0325 23.5363 44.3387C33.6397 44.6244 40.0932 38.7593 42.7586 33.0406C45.0168 28.0952 45.2762 22.4684 43.4826 17.3362V17.314C43.4826 17.2966 43.479 17.2864 43.4826 17.2918L43.4868 17.3308C44.3122 22.7199 41.5711 27.9385 37.2854 31.4744L37.2722 31.5044C28.9218 38.3061 20.9315 35.607 19.3166 34.506C19.2038 34.452 19.0909 34.3958 18.9781 34.3373C14.11 32.0105 12.0984 27.5777 12.5306 23.7717C11.375 23.7887 10.2393 23.4703 9.26109 22.855C8.28285 22.2396 7.50404 21.3538 7.01905 20.3048C8.29701 19.522 9.75415 19.0794 11.2516 19.0193C12.7491 18.9592 14.237 19.2835 15.5736 19.9614C18.3287 21.212 21.4636 21.3352 24.3083 20.3048C24.2993 20.1157 20.2501 18.5038 18.6713 16.949C17.8278 16.1176 17.4274 15.7172 17.0726 15.4164C16.8809 15.254 16.6805 15.1021 16.4723 14.9614C16.3342 14.8671 16.1788 14.765 15.9921 14.6426C14.2949 13.5392 10.9199 13.5998 10.8083 13.6028H10.7975C9.87537 12.434 9.94021 8.57993 9.99304 7.7749C9.72025 7.88453 9.45986 8.02278 9.21622 8.18732C8.4022 8.76828 7.64123 9.42017 6.9422 10.1354C6.14278 10.9407 5.41223 11.8116 4.75823 12.739V12.7426V12.7384C3.26255 14.8585 2.20158 17.2538 1.63656 19.7861C1.62516 19.8336 0.798514 23.4475 1.20613 25.3217L1.21033 25.3205Z" fill="url(#paint7_radial_210_1254)"/>
<path d="M32.4665 16.1354C33.3159 16.9697 34.0434 17.9195 34.6276 18.9569C34.7555 19.0536 34.875 19.1496 34.9764 19.2427C40.2514 24.1053 37.4876 30.9789 37.2816 31.4652C41.5667 27.9347 44.3054 22.7125 43.483 17.3216C40.8512 10.7601 36.3872 8.11269 32.7492 2.35561C32.5649 2.06445 32.3806 1.7727 32.2011 1.46473C32.0985 1.28884 32.0162 1.13035 31.9448 0.984476C31.7937 0.691851 31.6772 0.382596 31.5978 0.0629824C31.5979 0.0482338 31.5926 0.0339622 31.5828 0.0228899C31.5731 0.0118177 31.5596 0.00471977 31.545 0.00295028C31.5306 -0.000983427 31.5155 -0.000983427 31.5012 0.00295028C31.4981 0.00295028 31.4933 0.00835317 31.4897 0.00955382C31.4861 0.0107545 31.4783 0.0161574 31.4729 0.0185586C30.5731 0.445387 25.2356 8.89731 32.4695 16.1252L32.4665 16.1354Z" fill="url(#paint8_radial_210_1254)"/>
<path d="M34.9758 19.2453C34.8743 19.1523 34.7549 19.0562 34.627 18.9596C34.5796 18.9241 34.5328 18.8887 34.4823 18.8533C32.8458 17.7197 30.8465 17.2343 28.8723 17.4912C37.2408 21.6754 34.9956 36.0831 23.398 35.5428C22.3654 35.5004 21.3449 35.3035 20.3706 34.9587C20.1429 34.8735 19.9151 34.7802 19.6874 34.679C19.5559 34.6189 19.4245 34.5589 19.2948 34.4917L19.311 34.5019C20.9283 35.6059 28.9162 38.3031 37.2666 31.5003L37.2798 31.4703C37.4881 30.984 40.252 24.1103 34.9746 19.2477L34.9758 19.2453Z" fill="url(#paint9_radial_210_1254)"/>
<path d="M13.8145 26.8692C13.8145 26.8692 14.8884 22.8669 21.5046 22.8669C22.2196 22.8669 24.2661 20.8708 24.3027 20.2921C21.458 21.3225 18.3231 21.1993 15.568 19.9487C14.2314 19.2708 12.7435 18.9465 11.246 19.0066C9.74853 19.0667 8.29139 19.5092 7.01343 20.2921C7.49843 21.3411 8.27723 22.2269 9.25547 22.8422C10.2337 23.4576 11.3694 23.776 12.525 23.759C12.0939 27.5632 14.105 31.9954 18.9724 34.3246C19.0811 34.3768 19.1831 34.4333 19.2948 34.4831C16.4535 33.0153 14.1074 30.2394 13.8145 26.871V26.8692Z" fill="url(#paint10_radial_210_1254)"/>
<path d="M45.7935 16.1169C44.7826 13.6844 42.7319 11.058 41.126 10.2278C42.2711 12.4453 43.066 14.8268 43.4823 17.2876L43.4865 17.3266C40.8558 10.7711 36.3967 8.12365 32.7527 2.36657C32.5684 2.07541 32.3841 1.78365 32.2046 1.47569C32.102 1.29979 32.0197 1.14131 31.9483 0.995432C31.7972 0.702807 31.6807 0.393552 31.6013 0.0739382C31.6014 0.0591896 31.5961 0.044918 31.5863 0.0338457C31.5766 0.0227735 31.5631 0.0156756 31.5485 0.0139061C31.5341 0.00997238 31.519 0.00997238 31.5046 0.0139061C31.5016 0.0139061 31.4968 0.019309 31.4932 0.0205096C31.4896 0.0217103 31.4818 0.0271132 31.4764 0.0295145L31.4854 0.0139061C25.6413 3.43574 23.6572 9.76913 23.4771 12.9388C23.7485 12.9202 24.0174 12.8974 24.2948 12.8974C26.3682 12.9014 28.4036 13.4544 30.194 14.5001C31.9844 15.5457 33.466 17.0468 34.4882 18.8508C32.8517 17.7172 30.8524 17.2318 28.8782 17.4887C37.2467 21.6729 35.0015 36.0806 23.4039 35.5403C22.3713 35.4979 21.3508 35.301 20.3765 34.9562C20.1488 34.871 19.921 34.7777 19.6933 34.6765C19.5618 34.6164 19.4304 34.5564 19.3007 34.4892L19.3169 34.4994C19.204 34.4453 19.0912 34.3891 18.9783 34.3307C19.087 34.3829 19.189 34.4393 19.3007 34.4892C16.4594 33.0208 14.1133 30.2449 13.8204 26.8771C13.8204 26.8771 14.8943 22.8747 21.5105 22.8747C22.2255 22.8747 24.272 20.8787 24.3086 20.3C24.2996 20.1109 20.2504 18.499 18.6716 16.9442C17.8281 16.1127 17.4277 15.7123 17.0729 15.4116C16.8812 15.2491 16.6808 15.0972 16.4726 14.9565C15.9425 13.1009 15.9199 11.137 16.4071 9.26966C14.2609 10.3093 12.3539 11.7832 10.8068 13.598H10.7959C9.87385 12.4292 9.93869 8.57509 9.99151 7.77006C9.71873 7.87969 9.45833 8.01794 9.2147 8.18248C8.40068 8.76344 7.6397 9.41533 6.94068 10.1305C6.1441 10.9381 5.41657 11.8111 4.76571 12.7401V12.7437V12.7395C3.27003 14.8596 2.20906 17.255 1.64404 19.7873L1.61283 19.941C1.569 20.1457 1.3727 21.1854 1.34448 21.4088C1.16493 22.4821 1.05026 23.5652 1.0011 24.6523V24.7724C1.01138 30.5946 3.20403 36.2014 7.1462 40.4861C11.0884 44.7707 16.4936 47.4217 22.2948 47.9158C28.0961 48.4099 33.8718 46.7112 38.4818 43.155C43.0918 39.5988 46.2011 34.4435 47.1958 28.7069C47.2349 28.4067 47.2667 28.1095 47.3015 27.8064C47.7807 23.8454 47.2619 19.8275 45.7923 16.1181L45.7935 16.1169ZM43.4853 17.3122L43.4895 17.3368L43.4853 17.3122Z" fill="url(#paint11_linear_210_1254)"/>
<defs>
<linearGradient id="paint0_linear_210_1254" x1="42.7139" y1="7.44584" x2="4.08746" y2="44.7138" gradientUnits="userSpaceOnUse">
<stop offset="0.048" stop-color="#FFF44F"/>
<stop offset="0.111" stop-color="#FFE847"/>
<stop offset="0.225" stop-color="#FFC830"/>
<stop offset="0.368" stop-color="#FF980E"/>
<stop offset="0.401" stop-color="#FF8B16"/>
<stop offset="0.462" stop-color="#FF672A"/>
<stop offset="0.534" stop-color="#FF3647"/>
<stop offset="0.705" stop-color="#E31587"/>
</linearGradient>
<radialGradient id="paint1_radial_210_1254" cx="0" cy="0" r="1" gradientUnits="userSpaceOnUse" gradientTransform="translate(41.2193 5.41381) scale(48.506 48.506)">
<stop offset="0.129" stop-color="#FFBD4F"/>
<stop offset="0.186" stop-color="#FFAC31"/>
<stop offset="0.247" stop-color="#FF9D17"/>
<stop offset="0.283" stop-color="#FF980E"/>
<stop offset="0.403" stop-color="#FF563B"/>
<stop offset="0.467" stop-color="#FF3750"/>
<stop offset="0.71" stop-color="#F5156C"/>
<stop offset="0.782" stop-color="#EB0878"/>
<stop offset="0.86" stop-color="#E50080"/>
</radialGradient>
<radialGradient id="paint2_radial_210_1254" cx="0" cy="0" r="1" gradientUnits="userSpaceOnUse" gradientTransform="translate(23.2097 25.2244) scale(48.506 48.506)">
<stop offset="0.3" stop-color="#960E18"/>
<stop offset="0.351" stop-color="#B11927" stop-opacity="0.74"/>
<stop offset="0.435" stop-color="#DB293D" stop-opacity="0.343"/>
<stop offset="0.497" stop-color="#F5334B" stop-opacity="0.094"/>
<stop offset="0.53" stop-color="#FF3750" stop-opacity="0"/>
</radialGradient>
<radialGradient id="paint3_radial_210_1254" cx="0" cy="0" r="1" gradientUnits="userSpaceOnUse" gradientTransform="translate(29.2128 -5.39197) scale(35.1368 35.1368)">
<stop offset="0.132" stop-color="#FFF44F"/>
<stop offset="0.252" stop-color="#FFDC3E"/>
<stop offset="0.506" stop-color="#FF9D12"/>
<stop offset="0.526" stop-color="#FF980E"/>
</radialGradient>
<radialGradient id="paint4_radial_210_1254" cx="0" cy="0" r="1" gradientUnits="userSpaceOnUse" gradientTransform="translate(17.8067 37.8311) scale(23.0944)">
<stop offset="0.353" stop-color="#3A8EE6"/>
<stop offset="0.472" stop-color="#5C79F0"/>
<stop offset="0.669" stop-color="#9059FF"/>
<stop offset="1" stop-color="#C139E6"/>
</radialGradient>
<radialGradient id="paint5_radial_210_1254" cx="0" cy="0" r="1" gradientTransform="matrix(11.9037 -2.87794 3.3678 13.9366 25.5557 21.0605)" gradientUnits="userSpaceOnUse">
<stop offset="0.206" stop-color="#9059FF" stop-opacity="0"/>
<stop offset="0.278" stop-color="#8C4FF3" stop-opacity="0.064"/>
<stop offset="0.747" stop-color="#7716A8" stop-opacity="0.45"/>
<stop offset="0.975" stop-color="#6E008B" stop-opacity="0.6"/>
</radialGradient>
<radialGradient id="paint6_radial_210_1254" cx="0" cy="0" r="1" gradientUnits="userSpaceOnUse" gradientTransform="translate(22.6091 3.61268) scale(16.6169 16.6169)">
<stop stop-color="#FFE226"/>
<stop offset="0.121" stop-color="#FFDB27"/>
<stop offset="0.295" stop-color="#FFC82A"/>
<stop offset="0.502" stop-color="#FFA930"/>
<stop offset="0.732" stop-color="#FF7E37"/>
<stop offset="0.792" stop-color="#FF7139"/>
</radialGradient>
<radialGradient id="paint7_radial_210_1254" cx="0" cy="0" r="1" gradientUnits="userSpaceOnUse" gradientTransform="translate(35.8165 -7.19292) scale(70.898 70.898)">
<stop offset="0.113" stop-color="#FFF44F"/>
<stop offset="0.456" stop-color="#FF980E"/>
<stop offset="0.622" stop-color="#FF5634"/>
<stop offset="0.716" stop-color="#FF3647"/>
<stop offset="0.904" stop-color="#E31587"/>
</radialGradient>
<radialGradient id="paint8_radial_210_1254" cx="0" cy="0" r="1" gradientTransform="matrix(5.45242 51.6682 -33.9089 3.58302 29.9235 -3.2622)" gradientUnits="userSpaceOnUse">
<stop stop-color="#FFF44F"/>
<stop offset="0.06" stop-color="#FFE847"/>
<stop offset="0.168" stop-color="#FFC830"/>
<stop offset="0.304" stop-color="#FF980E"/>
<stop offset="0.356" stop-color="#FF8B16"/>
<stop offset="0.455" stop-color="#FF672A"/>
<stop offset="0.57" stop-color="#FF3647"/>
<stop offset="0.737" stop-color="#E31587"/>
</radialGradient>
<radialGradient id="paint9_radial_210_1254" cx="0" cy="0" r="1" gradientUnits="userSpaceOnUse" gradientTransform="translate(22.6092 9.61616) scale(44.2557 44.2557)">
<stop offset="0.137" stop-color="#FFF44F"/>
<stop offset="0.48" stop-color="#FF980E"/>
<stop offset="0.592" stop-color="#FF5634"/>
<stop offset="0.655" stop-color="#FF3647"/>
<stop offset="0.904" stop-color="#E31587"/>
</radialGradient>
<radialGradient id="paint10_radial_210_1254" cx="0" cy="0" r="1" gradientUnits="userSpaceOnUse" gradientTransform="translate(34.0153 12.0173) scale(48.4399 48.4399)">
<stop offset="0.094" stop-color="#FFF44F"/>
<stop offset="0.231" stop-color="#FFE141"/>
<stop offset="0.509" stop-color="#FFAF1E"/>
<stop offset="0.626" stop-color="#FF980E"/>
</radialGradient>
<linearGradient id="paint11_linear_210_1254" x1="42.2456" y1="7.24773" x2="9.38399" y2="40.1153" gradientUnits="userSpaceOnUse">
<stop offset="0.167" stop-color="#FFF44F" stop-opacity="0.8"/>
<stop offset="0.266" stop-color="#FFF44F" stop-opacity="0.634"/>
<stop offset="0.489" stop-color="#FFF44F" stop-opacity="0.217"/>
<stop offset="0.6" stop-color="#FFF44F" stop-opacity="0"/>
</linearGradient>
</defs>
</svg>
