<svg width="48" height="48" viewBox="0 0 48 48" fill="none" xmlns="http://www.w3.org/2000/svg">
<path d="M0 24C0 10.7452 10.7452 0 24 0C37.2548 0 48 10.7452 48 24C48 37.2548 37.2548 48 24 48C10.7452 48 0 37.2548 0 24Z" fill="white"/>
<path fill-rule="evenodd" clip-rule="evenodd" d="M17.6437 11.2H31.3393C33.3435 11.2 33.8885 12.3556 33.4666 14.5244C32.904 17.3332 31.0932 26.222 30.9349 26.8442C30.7415 27.5908 30.4075 28.8175 28.6494 28.8175H24.5355C24.4651 28.8175 24.4124 28.8175 24.3069 28.9419C24.2014 29.0664 17.6964 36.7285 17.6964 36.7285C17.1339 37.2973 16.3427 37.2084 16.0438 37.084C15.745 36.9596 15.2 36.6396 15.2 35.5552V13.5467C15.2 12.64 15.7625 11.2 17.6437 11.2ZM29.9152 17.9555L30.5306 14.9511C30.6361 14.4533 30.2493 14.0622 29.8625 14.0622H18.7689C18.3645 14.0622 18.0305 14.4 18.0305 14.8088V32.213C18.0305 32.2664 18.0657 32.2841 18.1008 32.2308C18.1008 32.2308 22.1444 27.1109 22.6015 26.542C23.0586 25.9731 23.2169 25.9554 23.9904 25.9376H27.6824C28.1044 25.9376 28.3857 25.5998 28.4208 25.3331C28.4736 25.0843 28.9483 22.7376 29.0362 22.2754C29.1241 21.831 28.7725 21.4221 28.3505 21.4221H23.8322C23.2344 21.4221 22.7422 20.9243 22.7422 20.3199V19.6621C22.7422 19.0577 23.2344 18.5599 23.8322 18.5599H29.1768C29.546 18.5599 29.8449 18.2755 29.9152 17.9555Z" fill="#FA4778"/>
</svg>
