<svg width="49" height="48" viewBox="0 0 49 48" fill="none" xmlns="http://www.w3.org/2000/svg">
<path d="M17.7858 9.50904L17.789 9.50594C20.4175 7.59135 23.6536 6.46183 27.1541 6.46183C29.1105 6.46183 30.9709 6.76613 32.6989 7.41652C32.811 7.457 32.9594 7.48247 33.0268 7.48247C33.44 7.48247 33.7433 7.1989 33.7458 6.79731C33.7468 6.52436 33.6114 6.29679 33.4364 6.13534C28.8589 1.92057 23.9964 0.180176 23.9964 0.180176C13.1446 4.5195 5.16481 15.0133 4.9361 27.0061C4.83799 30.4176 5.65276 33.897 7.48458 37.0697C8.57117 38.9526 9.93168 40.5804 11.4842 41.9306C8.51289 40.608 5.91804 38.3703 4.16703 35.3396C3.18852 33.6444 2.52067 31.8818 2.21964 30.0616C2.19972 29.9446 2.14862 29.8025 2.11418 29.7451C1.90865 29.3875 1.51065 29.2653 1.16195 29.4664C0.923766 29.5999 0.795777 29.8324 0.744517 30.0632C-0.618286 36.1346 0.306683 41.2167 0.306683 41.2167C9.62396 48.5496 22.9541 50.1538 33.5311 44.0498C38.5063 41.1758 41.6985 36.3988 42.7142 31.1699L42.7176 31.1766C43.0608 34.4117 42.419 37.7756 40.6695 40.8097C39.6916 42.5033 38.4986 43.9624 37.0726 45.1363C36.9801 45.2124 36.8836 45.3278 36.85 45.3851C36.6438 45.7417 36.7377 46.1473 37.0841 46.3499C37.3208 46.4887 37.5844 46.4831 37.8105 46.4108C43.751 44.5562 47.6884 41.2153 47.6884 41.2153C49.3522 29.6824 44.2868 17.5587 34.0754 11.3479C29.2804 8.36973 23.2882 7.60539 17.7858 9.50904ZM39.509 23.9967C39.6621 24.7619 39.7473 25.5484 39.7473 26.3482C39.7473 33.8738 32.6966 39.9716 23.9972 39.9716C15.2973 39.9716 8.24663 33.8736 8.24663 26.3482C8.24663 25.5484 8.33086 24.7619 8.48481 23.9967C11.7539 20.6444 17.4766 18.4167 23.9971 18.4167C30.5164 18.4167 36.2397 20.6444 39.509 23.9967Z" fill="black"/>
<path d="M21.0878 20.6642C22.2988 21.0894 23.1679 22.2423 23.1679 23.5992C23.1679 25.3174 21.7777 26.7076 20.0597 26.7076C18.7027 26.7076 17.5492 25.8403 17.1253 24.6266C16.7352 25.5472 16.535 26.5371 16.5368 27.537C16.5368 31.6595 19.8775 34.9966 23.9974 34.9966C28.1181 34.9966 31.4577 31.6595 31.4577 27.537C31.4577 23.4162 28.1171 20.0755 23.9974 20.0755C22.9979 20.0749 22.0085 20.2751 21.0878 20.6642Z" fill="black"/>
</svg>
