<svg width="48" height="48" viewBox="0 0 48 48" fill="none" xmlns="http://www.w3.org/2000/svg">
<path d="M0 24C0 10.7452 10.7452 0 24 0C37.2548 0 48 10.7452 48 24C48 37.2548 37.2548 48 24 48C10.7452 48 0 37.2548 0 24Z" fill="white"/>
<path fill-rule="evenodd" clip-rule="evenodd" d="M16.5853 17.3752C16.0461 17.3752 15.5607 16.881 15.5607 16.3318C15.5607 15.0687 18.6883 14.1352 22.2473 14.1352C22.5708 14.1352 22.7865 14.1352 22.7865 13.8606C22.7865 13.3663 21.708 13.2016 21.708 12.3778C21.708 11.4992 22.7326 10.95 24.0267 10.95C25.3209 10.95 26.3455 11.4992 26.3455 12.3778C26.3455 13.2016 25.267 13.3114 25.267 13.8606C25.267 14.0253 25.4288 14.1352 25.8062 14.1352C29.3652 14.1352 32.5467 15.0138 32.5467 16.3318C32.5467 16.881 32.1153 17.3752 31.5221 17.3752H16.5853ZM32.7084 22.3726C34.0026 23.1964 34.4879 24.6791 34.2722 26.052L32.7624 34.3444C32.4388 35.9919 31.0368 37.2 29.3652 37.2H24.0807H18.7962C17.1245 37.2 15.7225 35.9919 15.399 34.3444L13.8891 26.052C13.6734 24.734 14.2127 23.2513 15.5068 22.4275C16.2618 21.8784 16.4235 20.9448 15.5068 20.6153C14.2127 20.121 14.4823 18.5285 15.7764 18.5285H23.6493C24.8895 18.5285 26.3994 19.462 26.3994 22.4824C26.3994 25.5028 24.9974 25.2283 24.9974 27.37C24.9974 28.3036 25.7523 29.2921 26.669 29.4019C28.2328 29.5666 29.1495 28.9626 29.1495 26.7659C29.1495 24.5143 27.8553 23.4709 27.8553 21.6038C27.8553 19.3522 29.2573 18.4735 30.174 18.4735H32.4388C33.733 18.4735 34.0026 20.0661 32.7084 20.5604C31.7917 20.9448 31.9535 21.8784 32.7084 22.3726Z" fill="#16A5F3"/>
</svg>
