<svg width="48" height="48" viewBox="0 0 48 48" fill="none" xmlns="http://www.w3.org/2000/svg">
<path d="M0 24C0 10.7452 10.7452 0 24 0C37.2548 0 48 10.7452 48 24C48 37.2548 37.2548 48 24 48C10.7452 48 0 37.2548 0 24Z" fill="#E94543"/>
<path d="M35.1941 19.9872C30.3101 20.0504 29.4917 18.1456 29.2829 17.2504C29.0325 16.1744 29.1133 16.496 28.4661 13.2048C27.7365 8.45598 24.8677 9.54558 24.8677 9.54558C22.6773 9.91198 19.4605 13.0024 18.7309 14.0976C17.6357 15.1944 17.4549 16.2504 14.3485 14.804C8.38129 11.5136 8.87649 17.5208 8.87649 17.5208C9.55009 22.0632 11.1189 24.0416 12.7789 25.6312C11.7957 29.8144 12.0421 32.428 12.6261 34.9816C13.7381 39.8376 16.7597 37.628 17.7981 36.8672C18.8357 36.1048 21.1517 33.6856 21.1517 33.6856C21.1517 33.6856 22.4213 35.3208 25.6669 37.2656C31.4797 40.7488 32.7029 37.704 32.5645 35.212C32.4517 33.1808 31.4013 28.9456 31.4013 28.9456C35.0917 28.2152 37.1093 25.7544 37.1093 25.7544C42.5525 20.2184 35.1941 19.9872 35.1941 19.9872Z" fill="#A32025"/>
<path d="M34.8948 19.2563C30.054 19.3187 29.2428 17.4307 29.0364 16.5435C28.7876 15.4771 28.8684 15.7955 28.226 12.5339C27.5028 7.82751 24.6596 8.9067 24.6596 8.9067C22.4876 9.2699 19.3004 12.3331 18.5772 13.4187C17.4916 14.5059 17.3116 15.5523 14.2332 14.1195C8.31882 10.8571 8.81002 16.8123 8.81002 16.8123C9.47802 21.3139 11.0324 23.2755 12.678 24.8507C11.7028 28.9971 11.946 31.5883 12.526 34.1187C13.6284 38.9315 16.6228 36.7411 17.6516 35.9875C18.6804 35.2323 20.9772 32.8339 20.9772 32.8339C20.9772 32.8339 22.2348 34.4547 25.4516 36.3819C31.2132 39.8347 32.426 36.8163 32.2884 34.3475C32.1772 32.3339 31.1356 28.1355 31.1356 28.1355C34.794 27.4123 36.7924 24.9731 36.7924 24.9731C42.1884 19.4851 34.8948 19.2563 34.8948 19.2563Z" fill="#F5D53A"/>
<path d="M15.6901 23.795C15.6901 23.795 16.5429 27.5158 20.1653 28.8638C23.7093 30.183 27.6461 26.6494 27.6461 26.6494C27.6461 26.6494 24.3045 31.6006 19.7053 29.9726C16.1509 28.7142 15.6901 23.795 15.6901 23.795Z" fill="#764921"/>
<path d="M22.9823 20.1891C22.4047 22.3483 20.8775 23.8155 19.5719 23.4659C18.2663 23.1163 17.6767 21.0827 18.2551 18.9235C18.8319 16.7651 20.3599 15.2971 21.6655 15.6467C22.9711 15.9971 23.5615 18.0299 22.9823 20.1891Z" fill="white"/>
<path d="M27.5862 21.3478C27.0078 23.507 25.4814 24.9742 24.1758 24.6246C22.8694 24.275 22.2798 22.2414 22.8582 20.0822C23.4358 17.9238 24.963 16.4558 26.2686 16.8054C27.5742 17.1558 28.1646 19.1886 27.5862 21.3478Z" fill="white"/>
<path d="M27.2964 19.7356C27.1164 20.8324 26.4524 21.6364 25.8132 21.5316C25.174 21.4276 24.8004 20.454 24.9796 19.3564C25.1588 18.2596 25.822 17.4556 26.462 17.5604C27.102 17.6652 27.4756 18.638 27.2964 19.7356Z" fill="#313638"/>
<path d="M22.5909 18.7602C22.4117 19.857 21.7477 20.661 21.1077 20.557C20.4685 20.4522 20.0949 19.4786 20.2741 18.3818C20.4533 17.285 21.1173 16.4802 21.7565 16.585C22.3965 16.6898 22.7709 17.6626 22.5909 18.7602Z" fill="#313638"/>
<path d="M22.3878 18.2048C22.3878 18.5072 22.1734 18.7536 21.9094 18.7536C21.6462 18.7536 21.4326 18.5072 21.4326 18.2048C21.4326 17.9016 21.6462 17.656 21.9094 17.656C22.1734 17.656 22.3878 17.9016 22.3878 18.2048Z" fill="white"/>
<path d="M27.0933 19.1196C27.0933 19.4228 26.8789 19.6684 26.6157 19.6684C26.3517 19.6684 26.1381 19.4228 26.1381 19.1196C26.1381 18.8172 26.3517 18.5708 26.6157 18.5708C26.8789 18.5708 27.0933 18.8172 27.0933 19.1196Z" fill="white"/>
<path d="M16.7323 20.7505C16.7323 21.8529 15.8995 22.7473 14.8731 22.7473C13.8459 22.7473 13.0139 21.8529 13.0139 20.7505C13.0139 19.6473 13.8459 18.7537 14.8731 18.7537C15.8995 18.7537 16.7323 19.6473 16.7323 20.7505Z" fill="#EF7B1D"/>
<path d="M31.7315 24.4849C31.7315 25.5873 30.8987 26.4817 29.8723 26.4817C28.8451 26.4817 28.0131 25.5873 28.0131 24.4849C28.0131 23.3817 28.8451 22.4881 29.8723 22.4881C30.8987 22.4881 31.7315 23.3817 31.7315 24.4849Z" fill="#EF7B1D"/>
</svg>
