<svg width="48" height="48" viewBox="0 0 48 48" fill="none" xmlns="http://www.w3.org/2000/svg">
<path d="M24 48C37.2548 48 48 37.2548 48 24C48 10.7452 37.2548 0 24 0C10.7452 0 0 10.7452 0 24C0 37.2548 10.7452 48 24 48Z" fill="#2BDE73"/>
<path d="M21.3976 20.179L25.7991 13.8021C26.6312 12.6007 27.7054 12 29.0225 12C30.0969 12 31.0264 12.3811 31.8125 13.1436C32.5978 13.906 32.9905 14.8187 32.9905 15.8815C32.9905 16.6671 32.783 17.3604 32.3669 17.9611L28.3984 23.7315L33.2506 29.8832C33.7359 30.4955 33.9784 31.2119 33.9784 32.032C33.9784 33.1182 33.5975 34.0506 32.8348 34.8304C32.0723 35.6105 31.1476 36 30.0622 36C28.8721 36 27.9655 35.6134 27.3414 34.8391L21.3976 27.4225V31.5123C21.3976 32.6793 21.1956 33.5858 20.7911 34.2328C20.0518 35.4109 18.9774 36 17.5682 36C16.2858 36 15.2919 35.5668 14.5876 34.7005C13.929 33.9033 13.6 32.846 13.6 31.5297V16.3667C13.6 15.119 13.9345 14.0912 14.6049 13.2824C15.3095 12.4277 16.2798 12 17.5159 12C18.6944 12 19.6762 12.4277 20.4619 13.2824C20.9008 13.7558 21.178 14.2353 21.2935 14.7206C21.3629 15.0212 21.3976 15.5811 21.3976 16.4014V20.179Z" fill="white"/>
</svg>
