<svg width="48" height="48" viewBox="0 0 48 48" fill="none" xmlns="http://www.w3.org/2000/svg">
<path d="M24 48C37.2548 48 48 37.2548 48 24C48 10.7452 37.2548 0 24 0C10.7452 0 0 10.7452 0 24C0 37.2548 10.7452 48 24 48Z" fill="white"/>
<path fill-rule="evenodd" clip-rule="evenodd" d="M37.1758 30.1802L37.1732 30.1896C37.086 30.5087 34.9282 38.4024 26.8247 38.4C19.7074 38.3978 16.334 32.139 16.334 32.139C15.8153 32.1682 15.3148 32.0849 14.8531 31.9133C12.765 31.1372 11.7631 28.7203 12.4836 26.6926L11.3359 25.8053C6.89033 22.3791 19.4839 6.7005 23.9373 10.2482C23.9598 10.2662 25.0003 11.1135 25.0003 11.1135C26.5993 10.1311 28.1829 9.60006 29.4701 9.60001C30.3842 9.59989 31.1488 9.86765 31.6636 10.4317C32.8195 11.6979 32.4041 14.1157 30.8257 16.5637C31.1652 16.8897 31.4466 17.3329 31.6474 17.7728C32.1492 18.1645 32.4744 18.76 32.636 19.5824C32.736 20.0904 32.7919 20.7181 32.8412 21.2717C32.8807 21.7148 32.916 22.1104 32.9662 22.3593C33.0726 22.4079 33.1411 22.4387 33.191 22.4612C33.238 22.4824 33.2686 22.4961 33.299 22.5104C33.3556 22.537 33.4115 22.5652 33.5716 22.6462C33.5992 22.6601 33.6299 22.6757 33.6643 22.693C34.1375 22.9323 34.7137 23.2236 35.3505 23.8435C36.4823 24.1304 36.9145 25.3479 36.2522 26.1788C36.2345 26.2011 36.1545 26.297 36.0717 26.3924C36.0747 26.4004 36.0824 26.4156 36.0937 26.4381C36.1565 26.5627 36.3325 26.9118 36.4652 27.5254C36.9342 27.6375 37.3079 27.9296 37.5039 28.3533C37.843 29.1825 37.1758 30.1802 37.1758 30.1802ZM33.9119 36.3343V36.6754H34.041V36.3343H34.1731V36.2267H33.7816V36.3343H33.9119ZM34.2126 36.6754V36.2267H34.3966L34.4773 36.4849L34.5568 36.2267H34.7409V36.6754H34.6232V36.3506L34.527 36.6754H34.4265L34.3303 36.3514V36.6754H34.2126Z" fill="#5B453E"/>
<path fill-rule="evenodd" clip-rule="evenodd" d="M36.4524 29.6976C36.3502 30.0801 35.8494 31.9548 33.8448 33.5358C31.0605 35.732 27.4022 35.5097 26.0206 34.279C25.2825 33.586 24.963 32.5949 24.963 32.5949C24.963 32.5949 24.8794 33.1534 24.8651 33.3728C24.3083 32.4223 24.3554 31.2614 24.3554 31.2614C24.3554 31.2614 24.0584 31.8173 23.9225 32.1287C23.5127 31.0818 23.7244 30.0008 23.7244 30.0008L23.4002 30.4859C23.4002 30.4859 23.2482 29.301 23.6214 28.3141C24.0203 27.2594 24.7937 26.4934 24.9466 26.3979C24.3598 26.2106 23.6837 25.6739 23.6826 25.673C23.6826 25.673 23.9514 25.6908 24.1383 25.6477C24.1383 25.6477 22.9519 24.7946 22.7439 23.4893C22.9157 23.7025 23.2764 23.9433 23.2764 23.9433C23.1596 23.6017 23.089 22.8417 23.1981 22.0938L23.1985 22.093C23.4229 20.6641 24.5961 19.7337 25.9249 19.7453C26.1788 19.7476 26.4177 19.759 26.6457 19.77C27.6877 19.8199 28.5006 19.8589 29.4737 18.9582C29.4874 18.9455 29.5009 18.9329 29.5143 18.9204C29.747 18.7043 29.9442 18.5211 30.2773 18.447C30.2839 18.4455 30.2922 18.4431 30.3024 18.4401C30.3501 18.4262 30.4401 18.4 30.5957 18.4C30.787 18.4 30.9713 18.4432 31.1399 18.5439C31.7832 18.9282 31.9218 19.9306 31.991 20.6656C32.1472 22.3318 32.1693 22.7983 32.4138 23.0375C32.5694 23.1896 32.815 23.2498 33.2423 23.4684C33.2929 23.4942 33.3441 23.5198 33.3959 23.5458C33.8812 23.7893 34.4207 24.0599 35.0264 24.7109C35.0298 24.7145 35.0346 24.7167 35.0395 24.7168C35.605 24.7304 35.8964 25.1773 35.6355 25.5026C33.7382 27.777 31.0882 28.8661 28.1349 28.9572C28.0404 28.9596 27.8546 28.964 27.7749 28.9659C27.7517 28.9664 27.7375 28.9667 27.7371 28.9668C26.5443 29.003 26.1559 30.5519 26.9044 31.4835C27.3774 32.0722 28.2872 32.2657 29.0361 32.2686L29.0467 32.2648C32.2757 32.3305 35.5196 30.037 36.0799 28.7722C36.084 28.7631 36.1182 28.6825 36.1182 28.6825C36.1182 28.6825 36.0884 28.7176 36.0524 28.7473C36.0506 28.7484 36.0421 28.7563 36.027 28.7701C35.721 29.0507 32.7181 31.8042 29.0212 31.7002C29.0212 31.7002 28.6033 31.6915 28.2099 31.5995C27.691 31.4784 27.2968 31.2496 27.1459 30.7304C27.1011 30.6354 27.0754 30.3064 27.1349 30.085C27.2972 29.5399 27.569 29.5351 27.9894 29.5277C28.0524 29.5266 28.1186 29.5255 28.1883 29.5224H28.1884C30.1011 29.4585 31.6445 28.9758 32.8012 28.4245C34.0347 27.8367 34.9747 27.0793 35.3134 26.697C35.7527 27.4395 35.7501 28.3928 35.7501 28.3928C35.7501 28.3928 35.9224 28.3324 36.1505 28.3324C36.8674 28.3325 37.0149 28.9761 36.4722 29.6294C36.4689 29.636 36.4626 29.6593 36.4524 29.6976ZM18.6308 26.1978C18.6308 26.1978 18.5415 26.5687 18.3644 27.0205C18.1943 25.5743 17.5897 25.2683 17.5897 25.2683C17.2393 25.1054 16.852 25.0149 16.4448 25.0149C14.8736 25.0149 13.6 26.3609 13.6 28.0212C13.6 29.6814 14.8736 31.0274 16.4448 31.0274C18.2144 31.0274 19.5577 29.3361 19.245 27.4885C19.245 27.4885 19.0646 27.9112 18.8965 28.1357C18.9372 27.4743 18.8335 26.82 18.6308 26.1978Z" fill="#F2D8B4"/>
<path d="M12.7006 25.6C12.6893 25.5971 11.6199 24.836 11.4678 24.5853C10.5681 23.1128 12.1334 20.0882 13.2473 18.369C16 14.12 20.5819 10.7668 22.663 11.2456L24.8001 12.3155C23.9703 12.7889 23.1677 13.3704 22.687 13.7571L22.2322 14.127C22.2322 14.127 20.9043 14.9941 20.2438 15.5407C17.5962 17.7319 14.9893 21.1239 14.0225 24.3982C14.0225 24.3981 13.2282 24.7805 12.7006 25.6Z" fill="#207EAC"/>
<path d="M23.2 11.2495C21.0787 10.73 16.4084 14.3679 13.6024 18.9777C13.6016 18.979 13.6008 18.9804 13.6 18.9817L13.6113 18.983L15.8471 20.8C18.302 16.7774 21.3874 14.7033 21.4744 14.6423L21.1199 12.1803L21.784 11.852L23.1168 12.2976L23.0148 11.8379L23.2 11.2495Z" fill="#4FB1D3"/>
<path d="M26.4 11.847L23.9722 13.4734L23.8023 13.6L21.6494 11.9247L21.6 11.6079L22.3485 11.2666C22.387 11.2784 23.7915 11.7116 23.8508 11.7299L23.8759 10.8416L23.9446 10.64L24.6022 10.4C24.6031 10.4006 26.3975 11.845 26.4 11.847Z" fill="#FACD55"/>
<path d="M29.0699 10.4C27.6984 10.4 26.1586 11.1606 24.9774 11.9084C24.8117 12.0112 24.6473 12.1187 24.4863 12.2284L23.8682 11.6821L24.0927 12.5047C24.0079 12.5661 23.925 12.6274 23.8439 12.6883L22.5669 12.2772L23.4119 13.023C23.2189 13.1772 23.0466 13.3215 22.9036 13.4465L20.8773 11.6823L20.9845 12.473L22.4573 13.8411C22.4573 13.8411 21.154 14.7663 20.5058 15.3496C17.9073 17.6873 15.3488 21.3065 14.4 24.8L14.4539 24.768C14.4613 24.7637 14.4687 24.7602 14.476 24.7559C14.5024 24.741 14.5287 24.7267 14.5551 24.7126C14.572 24.7037 14.5889 24.6946 14.6058 24.686C14.6329 24.6723 14.6601 24.6595 14.6873 24.6469C14.7033 24.6394 14.7194 24.6316 14.7355 24.6245C14.7649 24.6115 14.7943 24.5997 14.8237 24.588C14.8373 24.5825 14.8509 24.5766 14.8645 24.5715C14.9073 24.5553 14.95 24.5404 14.9926 24.527C15.6376 24.3241 16.5152 24.1936 17.5425 24.6536C18.0584 23.2816 18.6748 21.8857 19.6462 20.5444C20.4337 19.4569 21.1908 18.486 22.0995 17.952C23.82 16.2479 28.4572 14.4408 29.9428 16.0072C30.2941 15.4013 30.5989 14.8277 30.8501 14.1087C31.47 12.3797 31.4813 10.4 29.0699 10.4Z" fill="#131B23"/>
<path d="M24.0001 12L23.4963 11.2L23.2001 11.5986L23.3774 11.9119L24.0001 12Z" fill="#131B23"/>
<path fill-rule="evenodd" clip-rule="evenodd" d="M28.6589 10.4C27.9059 10.479 27.1207 10.753 26.3882 11.0997C23.9153 12.2906 22.1893 14.0473 21.9823 14.258C21.9734 14.2671 21.9673 14.2733 21.9641 14.2765C21.7587 14.4788 21.5539 14.6883 21.3508 14.904C20.7465 15.5455 20.1562 16.2403 19.603 16.9546C18.6249 18.2177 18.2179 18.8072 17.6 20.0078C17.5999 20.0079 17.6041 20.0028 17.6123 19.9926C17.8353 19.7185 21.0081 15.8179 21.82 14.991C23.3649 13.4174 25.8936 11.665 25.9199 11.6494C26.9996 10.9709 27.911 10.5728 28.6589 10.4ZM34.7743 26.2385C35.1999 26.9744 35.1973 27.9193 35.1973 27.9193C35.2047 28.1904 35.196 28.34 35.1812 28.5497C34.318 29.2981 31.7444 31.2855 28.678 31.1971C28.678 31.1971 28.2731 31.1886 27.8919 31.0974C27.392 30.978 27.0115 30.753 26.8635 30.2444L26.8611 30.2361L26.8609 30.2355C26.8586 30.2303 26.8395 30.1844 26.8273 30.0858L26.8268 30.0819L26.8264 30.0782C26.8236 30.0536 26.8213 30.0274 26.8197 30.0001L26.8192 29.9905L26.819 29.9874C26.8168 29.9438 26.8163 29.8938 26.8181 29.837C26.8189 29.8171 26.8201 29.7972 26.8216 29.7774L26.8219 29.7774L26.8221 29.7712C26.8273 29.7098 26.8364 29.6499 26.8505 29.5964C27.0077 29.0561 27.271 29.0513 27.6784 29.044C27.7394 29.0429 27.8036 29.0418 27.8711 29.0388H27.8712C29.7243 28.9754 31.2197 28.4969 32.3403 27.9506C33.5354 27.3681 34.4461 26.6175 34.7743 26.2385Z" fill="#FFFFFE"/>
<path fill-rule="evenodd" clip-rule="evenodd" d="M31.6061 21.489C31.7405 22.9221 31.7725 23.2624 32.0565 23.4644C32.0643 23.472 32.0723 23.4785 32.0804 23.4838C31.8897 23.5395 31.719 23.5918 31.5676 23.6397C31.2888 23.2616 30.9015 22.9081 30.1055 22.9656C29.0505 23.0561 28.2122 23.9992 28.364 24.9358C27.8627 25.1887 27.3958 25.4509 26.9615 25.7179C26.2451 25.7947 25.3723 26.0421 24.6025 26.6866C24.0223 26.5038 23.3538 25.98 23.3526 25.9791C23.3526 25.9791 23.6184 25.9965 23.8032 25.9545C23.8032 25.9545 23.7904 25.9453 23.7673 25.9276C23.7663 25.9264 23.7651 25.9251 23.7637 25.924C23.748 25.9117 23.7319 25.8994 23.7156 25.887C23.4396 25.6652 22.5959 24.9098 22.4244 23.8477C22.5943 24.0558 22.9509 24.2908 22.9509 24.2908C22.9466 24.2786 22.9425 24.2658 22.9384 24.2525L22.939 24.2501C22.9392 24.2489 22.9393 24.2476 22.9393 24.2463C22.9393 24.2463 22.8898 24.1052 22.8551 23.8331C22.8455 23.7566 22.8377 23.6752 22.8318 23.5899C22.8281 23.5325 22.8252 23.4715 22.8235 23.4067C22.8671 22.8699 23.004 22.4188 23.3451 21.9921C23.8424 21.3699 24.5248 21.1171 25.3122 21.1293C25.5289 21.132 25.7479 21.1544 25.9762 21.1777C26.1953 21.2001 26.4231 21.2233 26.6655 21.2309C27.3417 21.2521 27.9931 21.1406 28.6785 20.8333C29.3557 20.5135 29.7386 20.1444 30.1393 19.5714C30.2805 19.4169 30.5296 19.1907 30.7499 19.2003C30.896 19.2003 30.9974 19.272 31.0695 19.3345C31.4183 19.8011 31.5148 20.5273 31.5686 21.0919C31.5818 21.2307 31.594 21.361 31.6055 21.4833L31.6059 21.4874L31.6061 21.489ZM29.5473 24.2533C29.71 23.7336 30.4483 23.4837 30.894 23.7977C30.6948 23.9125 30.6335 24.2453 30.755 24.4383C30.5031 24.4337 30.2441 24.5323 30.062 24.7069C30.0789 24.4595 29.8052 24.2662 29.5473 24.2533ZM32.2388 34.4C32.6372 34.1924 33.0275 33.9447 33.4019 33.6532C35.3839 32.1104 35.8792 30.281 35.9804 29.9073L35.9804 29.9073L35.9805 29.9072L35.9805 29.9069L35.9806 29.9068C35.9906 29.8696 35.9968 29.847 36.0001 29.8406C35.0825 31.016 33.8822 31.9501 32.5979 32.5967C31.5418 33.1287 30.7518 33.3138 30.7518 33.3138C30.7518 33.3138 31.3173 34.053 32.2388 34.4ZM26.2175 30.14C26.3579 29.6223 26.7544 29.2121 27.3622 29.1939L27.4001 29.193L27.4027 29.1929C27.4831 29.1911 27.6633 29.1869 27.7556 29.1846C30.676 29.0956 33.2964 28.0327 35.1726 25.8129C35.4306 25.4953 35.1424 25.0592 34.5833 25.0459H34.5753C34.5269 25.0966 34.4989 25.1686 34.4621 25.2631C34.4269 25.3534 34.3838 25.4641 34.3074 25.5963C33.7367 26.5786 32.9473 27.0277 31.8948 27.5489C30.1838 28.3928 28.9095 28.5811 27.9898 28.717C27.1748 28.8374 26.6382 28.9167 26.3227 29.3745C26.1275 29.6613 26.1238 29.9817 26.2175 30.14ZM32.4373 29.7722C32.4293 29.7723 32.421 29.7741 32.4077 29.777C32.3661 29.7866 32.2737 29.8164 32.14 29.8597C31.252 30.1469 28.539 31.0242 26.7373 30.4635C26.728 30.5759 26.731 30.812 26.7774 30.9146L26.7776 30.9152C27.0912 30.9775 27.4881 31.0173 27.9488 31.0173C30.6767 31.0173 32.6427 29.7885 32.4373 29.7722ZM17.178 29.5182L17.1756 29.5198C15.8937 29.6135 14.7084 27.9904 15.4082 27.0955C15.504 27.024 15.586 26.9829 15.6185 26.9667C15.6241 26.9638 15.6283 26.9617 15.6307 26.9604C15.6495 26.9505 15.6686 26.9425 15.6885 26.9342C15.7023 26.9285 15.7165 26.9226 15.7311 26.9158C15.7451 26.91 15.7612 26.9051 15.779 26.9001C15.8358 26.8843 15.848 26.8798 15.8605 26.8762C15.873 26.8727 15.8857 26.8701 15.9431 26.858H15.943C16.5656 26.7273 17.0048 27.0003 17.196 27.2687C17.284 27.3922 17.303 27.4851 17.3167 27.5524C17.3212 27.5743 17.3251 27.5935 17.3307 27.6102L17.3308 27.611C17.1817 27.405 16.9892 27.3598 16.9892 27.3598C16.8269 27.2958 16.515 27.3936 16.4947 27.7415C16.4853 27.8753 16.5255 28.0253 16.6411 28.1571L16.6419 28.1581C16.6461 28.1627 16.6503 28.1674 16.6546 28.1721C16.6586 28.1764 16.6627 28.1807 16.6667 28.1848C16.7614 28.2821 16.874 28.3528 16.9815 28.4204C17.166 28.5364 17.3355 28.6429 17.3743 28.8578C17.4137 29.0942 17.3441 29.3413 17.178 29.5182Z" fill="#E2B986"/>
<path fill-rule="evenodd" clip-rule="evenodd" d="M29.8605 15.8486C28.8288 15.042 25.8177 15.2704 22.8032 17.2572C21.4229 18.1669 20.4108 19.1619 19.6306 20.1957C19.6306 20.1957 20.8349 17.8677 23.4811 16.328C23.2966 16.2978 22.8629 16.3506 22.7384 16.3657C22.7299 16.3667 22.7228 16.3676 22.7174 16.3683C23.1981 15.9478 24.0912 15.6671 24.7083 15.5395C24.5277 15.4226 24.0975 15.3931 23.884 15.3874C23.8258 15.3858 23.8219 15.386 23.7631 15.3885C23.7581 15.3887 23.7528 15.3889 23.747 15.3892C24.3274 15.0591 25.4037 14.8655 26.382 15.0404C26.2591 14.8745 25.9802 14.7534 25.7847 14.6945C25.7677 14.6893 25.6909 14.6699 25.6909 14.6699C25.6909 14.6699 25.7563 14.6542 25.7646 14.6525C26.354 14.5371 27.0425 14.6618 27.5871 14.8841C27.5252 14.7382 27.3741 14.5682 27.2605 14.4606C27.2489 14.4496 27.181 14.4 27.181 14.4C27.7508 14.5201 28.2968 14.7728 28.7077 15.0598C28.6518 14.95 28.5137 14.7653 28.4181 14.6645C28.9626 14.8229 29.5738 15.2177 29.8358 15.7836C29.8418 15.7957 29.8569 15.8377 29.8602 15.8469L29.8606 15.8482L29.8605 15.8486ZM27.4439 23.403C27.5027 23.4904 27.5184 23.5564 27.4947 23.5839C27.4521 23.6345 27.3107 23.578 27.1006 23.494L27.0282 23.4651C26.3887 23.2225 25.9175 23.1856 25.0833 23.5066L25.0167 23.5326C24.8408 23.6013 24.7151 23.6504 24.6511 23.6408C24.5341 23.6231 24.6474 23.4053 24.903 23.1941C25.4174 22.7768 26.1239 22.6473 26.7276 22.8758C26.9919 22.9747 27.2886 23.1721 27.4439 23.403ZM27.3172 24.0682C27.1419 23.932 26.819 23.8407 26.4838 23.8986C26.4314 23.9068 26.382 23.9211 26.3338 23.9351L26.3338 23.9351L26.3338 23.9351L26.3338 23.9351L26.3338 23.9351L26.3338 23.9351C26.3172 23.9399 26.3008 23.9447 26.2845 23.9492C26.261 23.955 26.2386 23.9635 26.2168 23.9728C26.0782 24.0322 25.9582 24.0962 25.8418 24.2096C25.7082 24.3409 25.6702 24.4628 25.7088 24.4928C25.7419 24.5196 25.8163 24.4885 25.9294 24.4412L25.9294 24.4412L25.9821 24.4192C26.4608 24.2169 26.7996 24.2115 27.1223 24.2344L27.1453 24.236C27.2882 24.2458 27.3833 24.2524 27.4063 24.2114C27.4234 24.1822 27.3924 24.1266 27.3172 24.0682ZM17.009 26.5648L17.0089 26.5647C16.7473 26.3502 16.3765 26.2486 15.9457 26.3415H15.9458L15.9379 26.3432C15.8874 26.3541 15.8754 26.3567 15.8636 26.3601L15.8514 26.3639L15.8514 26.3639C15.84 26.3675 15.8221 26.3732 15.7824 26.3845C15.7647 26.3896 15.7486 26.3946 15.7347 26.4005C15.7203 26.4074 15.7063 26.4134 15.6926 26.4192C15.6727 26.4278 15.6535 26.436 15.6348 26.4461L15.6228 26.4524C15.5676 26.4807 15.3669 26.5838 15.2007 26.7905C15.1119 26.9025 15.0436 27.0271 14.9938 27.1553C14.9039 27.392 14.8702 27.6514 14.8799 27.9007C14.8931 28.241 14.9821 28.4453 15.0154 28.5217L15.0154 28.5217L15.0154 28.5217C15.0194 28.5308 15.0226 28.5381 15.0247 28.5436C15.1098 28.7295 14.9105 28.7677 14.7287 28.5679L14.7283 28.5674C14.5829 28.4109 14.4897 28.1725 14.4442 27.9607V27.9606C14.4173 27.8348 14.4 27.6935 14.4 27.5416C14.4 27.3653 14.4233 27.1745 14.4816 26.9769L14.4816 26.9766L14.4817 26.9765C14.6393 26.4573 14.9937 26.0653 15.5321 25.8518C15.5663 25.8382 15.6044 25.828 15.64 25.8186L15.64 25.8185L15.6401 25.8185L15.6401 25.8185L15.6402 25.8185C15.6563 25.8142 15.6718 25.8101 15.6864 25.8058L15.6859 25.8059C15.7766 25.7784 16.1013 25.7115 16.4315 25.7638C16.6226 25.7939 16.7964 25.8582 16.9461 25.943C17.0956 26.0277 17.2213 26.1328 17.3168 26.2456L17.3172 26.2461C17.4733 26.4265 17.591 26.6811 17.5701 26.9076L17.57 26.9082C17.5622 27.0024 17.5212 27.1374 17.4377 27.1724C17.4066 27.1853 17.3755 27.1785 17.3537 27.1567C17.3293 27.1324 17.3224 27.0977 17.3131 27.051C17.2995 26.9822 17.2806 26.8873 17.1929 26.761C17.148 26.6963 17.0877 26.6285 17.0091 26.5649L17.009 26.5648ZM16.917 27.4106C16.8574 27.3627 16.8298 27.3218 16.8134 27.2588C16.7891 27.1441 16.8017 27.0775 16.8982 27.0086C16.9191 26.994 16.9388 26.9816 16.9564 26.9705C17.0013 26.9423 17.0322 26.9228 17.0324 26.8995C17.0357 26.838 16.7873 26.7747 16.6137 26.9485C16.4695 27.1047 16.424 27.4304 16.654 27.6842C16.7509 27.7904 16.868 27.866 16.9796 27.9379C17.1632 28.0563 17.3318 28.165 17.3704 28.3847C17.3786 28.4348 17.3846 28.4905 17.3803 28.5456C17.3811 28.6021 17.3646 28.6807 17.3604 28.7008L17.3594 28.7054C17.2824 29.0467 16.9639 29.3723 16.4387 29.2893L16.4159 29.2859C16.3321 29.2733 16.2778 29.2651 16.2606 29.2901C16.2201 29.3474 16.4452 29.6092 16.8572 29.5997C17.2603 29.591 17.6603 29.2841 17.7885 28.8228L17.7894 28.8195C17.7953 28.7976 17.828 28.6774 17.8309 28.5688C17.8381 28.482 17.8319 28.3928 17.816 28.2993C17.7376 27.8569 17.3949 27.6771 17.1367 27.5416C17.0492 27.4957 16.9714 27.4549 16.917 27.4106ZM30.6165 23.5381C30.6506 23.3159 30.8074 23.1564 30.9667 23.1816C31.126 23.2069 31.2275 23.4075 31.1934 23.6296C31.1593 23.8518 31.0025 24.0114 30.8433 23.9861C30.6839 23.9608 30.5824 23.7602 30.6165 23.5381ZM29.2163 23.8296C29.1287 23.9921 29.2354 24.2229 29.4545 24.3449C29.6736 24.467 29.9222 24.4343 30.0098 24.2718C30.0973 24.1093 29.9907 23.8786 29.7716 23.7565C29.5524 23.6344 29.3038 23.6672 29.2163 23.8296Z" fill="#916D53"/>
<path d="M29.6002 22.2625C29.597 22.0425 29.6227 21.679 29.7758 21.6114C29.776 21.6113 29.7759 21.6113 29.7761 21.6112C30.0377 21.4885 30.3841 22.3951 30.4 23.2C30.1933 23.0599 29.9504 23.0005 29.7006 23.0298C29.6378 22.7707 29.6077 22.5265 29.6002 22.2625Z" fill="#5B453E"/>
</svg>
