<svg width="49" height="48" viewBox="0 0 49 48" fill="none" xmlns="http://www.w3.org/2000/svg">
<path d="M46.1094 2L27.38 15.9106L30.8435 7.70353L46.1094 2Z" fill="#E2761B" stroke="#E2761B" stroke-linecap="round" stroke-linejoin="round"/>
<path d="M2.8717 2L21.4505 16.0424L18.1564 7.70353L2.8717 2Z" fill="#E4761B" stroke="#E4761B" stroke-linecap="round" stroke-linejoin="round"/>
<path d="M39.3706 34.2447L34.3823 41.887L45.0553 44.8235L48.1235 34.4141L39.3706 34.2447Z" fill="#E4761B" stroke="#E4761B" stroke-linecap="round" stroke-linejoin="round"/>
<path d="M0.895264 34.4141L3.94467 44.8235L14.6176 41.887L9.62938 34.2447L0.895264 34.4141Z" fill="#E4761B" stroke="#E4761B" stroke-linecap="round" stroke-linejoin="round"/>
<path d="M14.0153 21.3318L11.0411 25.8306L21.6388 26.3012L21.2623 14.913L14.0153 21.3318Z" fill="#E4761B" stroke="#E4761B" stroke-linecap="round" stroke-linejoin="round"/>
<path d="M34.9659 21.3317L27.6247 14.7811L27.38 26.3011L37.9588 25.8305L34.9659 21.3317Z" fill="#E4761B" stroke="#E4761B" stroke-linecap="round" stroke-linejoin="round"/>
<path d="M14.6176 41.8871L20.9799 38.7812L15.4834 34.4894L14.6176 41.8871Z" fill="#E4761B" stroke="#E4761B" stroke-linecap="round" stroke-linejoin="round"/>
<path d="M28.0011 38.7812L34.3823 41.8871L33.4976 34.4894L28.0011 38.7812Z" fill="#E4761B" stroke="#E4761B" stroke-linecap="round" stroke-linejoin="round"/>
<path d="M34.3824 41.8871L28.0012 38.7812L28.5095 42.9412L28.453 44.6918L34.3824 41.8871Z" fill="#D7C1B3" stroke="#D7C1B3" stroke-linecap="round" stroke-linejoin="round"/>
<path d="M14.6177 41.887L20.5471 44.6917L20.5094 42.9411L20.98 38.7811L14.6177 41.887Z" fill="#D7C1B3" stroke="#D7C1B3" stroke-linecap="round" stroke-linejoin="round"/>
<path d="M20.6411 31.7412L15.3329 30.1788L19.0788 28.4659L20.6411 31.7412Z" fill="#233447" stroke="#233447" stroke-linecap="round" stroke-linejoin="round"/>
<path d="M28.34 31.7412L29.9023 28.4659L33.667 30.1788L28.34 31.7412Z" fill="#233447" stroke="#233447" stroke-linecap="round" stroke-linejoin="round"/>
<path d="M14.6176 41.8872L15.5212 34.2449L9.62939 34.4143L14.6176 41.8872Z" fill="#CD6116" stroke="#CD6116" stroke-linecap="round" stroke-linejoin="round"/>
<path d="M33.4788 34.2449L34.3823 41.8872L39.3705 34.4143L33.4788 34.2449Z" fill="#CD6116" stroke="#CD6116" stroke-linecap="round" stroke-linejoin="round"/>
<path d="M37.9588 25.8307L27.38 26.3013L28.3588 31.7413L29.9212 28.466L33.6859 30.1789L37.9588 25.8307Z" fill="#CD6116" stroke="#CD6116" stroke-linecap="round" stroke-linejoin="round"/>
<path d="M15.3329 30.1789L19.0976 28.466L20.6411 31.7413L21.6388 26.3013L11.0411 25.8307L15.3329 30.1789Z" fill="#CD6116" stroke="#CD6116" stroke-linecap="round" stroke-linejoin="round"/>
<path d="M11.0411 25.8306L15.4835 34.4895L15.3329 30.1789L11.0411 25.8306Z" fill="#E4751F" stroke="#E4751F" stroke-linecap="round" stroke-linejoin="round"/>
<path d="M33.6858 30.1789L33.4976 34.4895L37.9587 25.8307L33.6858 30.1789Z" fill="#E4751F" stroke="#E4751F" stroke-linecap="round" stroke-linejoin="round"/>
<path d="M21.6388 26.3013L20.6411 31.7413L21.8835 38.1601L22.1658 29.7083L21.6388 26.3013Z" fill="#E4751F" stroke="#E4751F" stroke-linecap="round" stroke-linejoin="round"/>
<path d="M27.3799 26.3013L26.8717 29.6895L27.0976 38.1601L28.3588 31.7413L27.3799 26.3013Z" fill="#E4751F" stroke="#E4751F" stroke-linecap="round" stroke-linejoin="round"/>
<path d="M28.3588 31.7412L27.0977 38.16L28.0012 38.7812L33.4977 34.4894L33.6859 30.1788L28.3588 31.7412Z" fill="#F6851B" stroke="#F6851B" stroke-linecap="round" stroke-linejoin="round"/>
<path d="M15.3329 30.1788L15.4835 34.4894L20.9799 38.7812L21.8835 38.16L20.6411 31.7412L15.3329 30.1788Z" fill="#F6851B" stroke="#F6851B" stroke-linecap="round" stroke-linejoin="round"/>
<path d="M28.453 44.6917L28.5094 42.9411L28.0389 42.527H20.9424L20.5094 42.9411L20.5471 44.6917L14.6177 41.887L16.6883 43.5811L20.8859 46.4988H28.0953L32.3118 43.5811L34.3824 41.887L28.453 44.6917Z" fill="#C0AD9E" stroke="#C0AD9E" stroke-linecap="round" stroke-linejoin="round"/>
<path d="M28.0012 38.7812L27.0976 38.16H21.8835L20.98 38.7812L20.5094 42.9412L20.9423 42.5271H28.0388L28.5094 42.9412L28.0012 38.7812Z" fill="#161616" stroke="#161616" stroke-linecap="round" stroke-linejoin="round"/>
<path d="M46.9 16.8141L48.5 9.13412L46.1095 2L28.0012 15.44L34.9659 21.3318L44.8106 24.2118L46.9942 21.6706L46.053 20.9929L47.5589 19.6188L46.3918 18.7153L47.8977 17.5671L46.9 16.8141Z" fill="#763D16" stroke="#763D16" stroke-linecap="round" stroke-linejoin="round"/>
<path d="M0.5 9.13412L2.1 16.8141L1.08353 17.5671L2.58941 18.7153L1.44118 19.6188L2.94706 20.9929L2.00588 21.6706L4.17059 24.2118L14.0153 21.3318L20.98 15.44L2.87177 2L0.5 9.13412Z" fill="#763D16" stroke="#763D16" stroke-linecap="round" stroke-linejoin="round"/>
<path d="M44.8106 24.2118L34.9659 21.3318L37.9589 25.8306L33.4977 34.4894L39.3706 34.4141H48.1236L44.8106 24.2118Z" fill="#F6851B" stroke="#F6851B" stroke-linecap="round" stroke-linejoin="round"/>
<path d="M14.0153 21.3318L4.17056 24.2118L0.895264 34.4141H9.62938L15.4835 34.4894L11.0411 25.8306L14.0153 21.3318Z" fill="#F6851B" stroke="#F6851B" stroke-linecap="round" stroke-linejoin="round"/>
<path d="M27.38 26.3011L28.0012 15.44L30.8624 7.70349H18.1565L20.98 15.44L21.6388 26.3011L21.8647 29.727L21.8836 38.16H27.0977L27.1353 29.727L27.38 26.3011Z" fill="#F6851B" stroke="#F6851B" stroke-linecap="round" stroke-linejoin="round"/>
</svg>
