<svg width="48" height="48" viewBox="0 0 48 48" fill="none" xmlns="http://www.w3.org/2000/svg">
<path d="M45.9539 2H13.209C12.0789 2 11.1628 2.91609 11.1628 4.04614V13.1628L30.1396 18.7442L48 13.1628V4.04614C48 2.91609 47.0839 2 45.9539 2Z" fill="#41A5EE"/>
<path d="M48 13.1628H11.1628V24.3256L30.1396 27.6744L48 24.3256V13.1628Z" fill="#2B7CD3"/>
<path d="M11.1628 24.3256V35.4883L29.0233 37.7209L48 35.4883V24.3256H11.1628Z" fill="#185ABD"/>
<path d="M13.209 46.6511H45.9539C47.084 46.6511 48.0001 45.735 48.0001 44.605V35.4883H11.1628V44.605C11.1628 45.735 12.0789 46.6511 13.209 46.6511Z" fill="#103F91"/>
<path opacity="0.1" d="M24.7446 10.9302H11.1628V38.8372H24.7446C25.8731 38.8335 26.7871 37.9196 26.7907 36.7911V12.9764C26.7871 11.8479 25.8731 10.9339 24.7446 10.9302Z" fill="black"/>
<path opacity="0.2" d="M23.6283 12.0465H11.1628V39.9535H23.6283C24.7568 39.9498 25.6708 39.0359 25.6745 37.9073V14.0927C25.6708 12.9641 24.7568 12.0502 23.6283 12.0465Z" fill="black"/>
<path opacity="0.2" d="M23.6283 12.0465H11.1628V37.7209H23.6283C24.7568 37.7172 25.6708 36.8033 25.6745 35.6748V14.0927C25.6708 12.9641 24.7568 12.0502 23.6283 12.0465Z" fill="black"/>
<path opacity="0.2" d="M22.512 12.0465H11.1628V37.7209H22.512C23.6406 37.7172 24.5545 36.8033 24.5582 35.6748V14.0927C24.5545 12.9641 23.6406 12.0502 22.512 12.0465Z" fill="black"/>
<path d="M2.04614 12.0465H22.512C23.642 12.0465 24.5581 12.9626 24.5581 14.0927V34.5585C24.5581 35.6886 23.642 36.6047 22.512 36.6047H2.04614C0.916088 36.6047 0 35.6886 0 34.5585V14.0927C0 12.9626 0.916088 12.0465 2.04614 12.0465Z" fill="url(#paint0_linear_210_1186)"/>
<path d="M8.39665 27.7392C8.43684 28.0551 8.46363 28.3297 8.4759 28.5652H8.52277C8.54063 28.3419 8.57783 28.0729 8.6344 27.7581C8.69096 27.4433 8.74194 27.1773 8.78733 26.96L10.9395 17.6748H13.7224L15.955 26.8205C16.0847 27.3891 16.1775 27.9656 16.2329 28.5462H16.2698C16.3114 27.9837 16.3889 27.4244 16.502 26.8718L18.2824 17.6703H20.8153L17.6874 30.9764H14.7282L12.6073 22.1644C12.5459 21.9111 12.4755 21.5795 12.3985 21.1721C12.3215 20.7646 12.2735 20.4666 12.2545 20.279H12.2177C12.1931 20.4956 12.1451 20.8171 12.0737 21.2435C12.0022 21.6699 11.9449 21.9855 11.9017 22.1901L9.90805 30.9741H6.89857L3.75403 17.6748H6.33262L8.2716 26.9789C8.31516 27.1698 8.35646 27.4243 8.39665 27.7392Z" fill="white"/>
<defs>
<linearGradient id="paint0_linear_210_1186" x1="4.26624" y1="10.4477" x2="20.2919" y2="38.2034" gradientUnits="userSpaceOnUse">
<stop stop-color="#2368C4"/>
<stop offset="0.5" stop-color="#1A5DBE"/>
<stop offset="1" stop-color="#1146AC"/>
</linearGradient>
</defs>
</svg>
