<svg width="48" height="48" viewBox="0 0 48 48" fill="none" xmlns="http://www.w3.org/2000/svg">
<path d="M47.9999 25.4418C48.0025 25.0665 47.8086 24.7172 47.4886 24.5209H47.4831L47.4629 24.5097L30.8304 14.6642C30.7586 14.6156 30.684 14.5713 30.6071 14.5313C29.9649 14.2 29.2021 14.2 28.5599 14.5313C28.483 14.5713 28.4084 14.6156 28.3366 14.6642L11.7041 24.5097L11.684 24.5209C11.1757 24.837 11.0198 25.5054 11.336 26.0137C11.4291 26.1635 11.5574 26.2883 11.7097 26.3773L28.3422 36.2228C28.4143 36.2709 28.4888 36.3153 28.5655 36.3557C29.2077 36.687 29.9706 36.687 30.6128 36.3557C30.6894 36.3153 30.7639 36.271 30.836 36.2228L47.4686 26.3773C47.8008 26.1835 48.0037 25.8265 47.9999 25.4418Z" fill="#0A2767"/>
<path d="M13.6431 18.8681H24.5581V28.8733H13.6431V18.8681ZM45.7674 8.69767V4.12092C45.7936 2.97663 44.8879 2.02742 43.7436 2H15.4192C14.2749 2.02742 13.3691 2.97663 13.3953 4.12092V8.69767L30.1395 13.1628L45.7674 8.69767Z" fill="#0364B8"/>
<path d="M13.3954 8.69766H24.5582V18.7442H13.3954V8.69766Z" fill="#0078D4"/>
<path d="M35.7209 8.69766H24.5581V18.7442L35.7209 28.7907H45.7674V18.7442L35.7209 8.69766Z" fill="#28A8EA"/>
<path d="M24.5581 18.7442H35.7209V28.7907H24.5581V18.7442Z" fill="#0078D4"/>
<path d="M24.5581 28.7907H35.7209V38.8372H24.5581V28.7907Z" fill="#0364B8"/>
<path d="M13.6432 28.8733H24.5582V37.9687H13.6432V28.8733Z" fill="#14447D"/>
<path d="M35.7209 28.7907H45.7674V38.8372H35.7209V28.7907Z" fill="#0078D4"/>
<path d="M47.4886 26.3159L47.4674 26.3271L30.8349 35.6815C30.7623 35.7261 30.6887 35.7685 30.6116 35.8065C30.3291 35.941 30.0223 36.0169 29.7097 36.0297L28.801 35.4984C28.7242 35.4598 28.6497 35.417 28.5778 35.37L11.722 25.7499H11.7142L11.1627 25.4418V44.3784C11.1713 45.6418 12.2022 46.6592 13.4656 46.6511H45.7327C45.7517 46.6511 45.7685 46.6422 45.7885 46.6422C46.0554 46.6251 46.3185 46.5702 46.5699 46.4792C46.6786 46.4332 46.7835 46.3787 46.8836 46.3162C46.9584 46.2738 47.0868 46.1812 47.0868 46.1812C47.6586 45.7581 47.9971 45.0898 47.9999 44.3784V25.4418C47.9995 25.804 47.8042 26.138 47.4886 26.3159Z" fill="url(#paint0_linear_210_656)"/>
<path opacity="0.5" d="M47.1069 25.3671V26.528L29.7153 38.5023L11.7098 25.7578C11.7098 25.7516 11.7048 25.7466 11.6986 25.7466L10.0465 24.7531V23.9159L10.7274 23.9047L12.1674 24.7308L12.2009 24.7419L12.3237 24.8201C12.3237 24.8201 29.2465 34.4759 29.2911 34.4982L29.9386 34.8777C29.9944 34.8554 30.0502 34.8331 30.1172 34.8108C30.1507 34.7884 46.9171 25.3559 46.9171 25.3559L47.1069 25.3671Z" fill="#0A2767"/>
<path d="M47.4887 26.3159L47.4675 26.3282L30.835 35.6826C30.7624 35.7272 30.6888 35.7696 30.6117 35.8076C29.9658 36.1231 29.2104 36.1231 28.5645 35.8076C28.488 35.7697 28.4135 35.728 28.3412 35.6826L11.7087 26.3282L11.6886 26.3159C11.3675 26.1418 11.1662 25.8071 11.1628 25.4418V44.3784C11.1708 45.6416 12.2013 46.6591 13.4645 46.6511C13.4645 46.6511 13.4646 46.6511 13.4646 46.6511H45.6982C46.9614 46.6592 47.992 45.6417 48 44.3785C48 44.3785 48 44.3784 48 44.3784V25.4418C47.9996 25.804 47.8043 26.138 47.4887 26.3159Z" fill="#1490DF"/>
<path opacity="0.1" d="M31.0772 35.5441L30.8283 35.6837C30.7562 35.7296 30.6816 35.7717 30.605 35.8098C30.3308 35.9444 30.0326 36.0233 29.7277 36.042L36.0558 43.5255L47.0947 46.1856C47.3972 45.9571 47.6378 45.6567 47.7946 45.3116L31.0772 35.5441Z" fill="black"/>
<path opacity="0.05" d="M32.2047 34.9101L30.8283 35.6837C30.7562 35.7296 30.6816 35.7718 30.605 35.8098C30.3308 35.9445 30.0326 36.0234 29.7277 36.042L32.6925 44.2165L47.0981 46.1823C47.6656 45.7562 47.9997 45.088 48 44.3784V44.1339L32.2047 34.9101Z" fill="black"/>
<path d="M13.4959 46.6511H45.6949C46.1904 46.6536 46.6736 46.4971 47.0735 46.2046L28.8 35.5006C28.7232 35.4621 28.6487 35.4192 28.5768 35.3723L11.721 25.7522H11.7132L11.1628 25.4418V44.3136C11.1616 45.6034 12.2061 46.6499 13.4959 46.6511C13.4958 46.6511 13.4958 46.6511 13.4959 46.6511Z" fill="#28A8EA"/>
<path opacity="0.1" d="M26.7906 12.9764V36.7866C26.7886 37.6214 26.281 38.3718 25.5069 38.6843C25.2671 38.7873 25.0088 38.8405 24.7478 38.8406H11.1627V12.0465H13.3953V10.9302H24.7478C25.8755 10.9345 26.7882 11.8486 26.7906 12.9764Z" fill="black"/>
<path opacity="0.2" d="M25.6744 14.0926V37.9028C25.6772 38.1725 25.62 38.4394 25.5069 38.6842C25.1969 39.4483 24.4562 39.9497 23.6316 39.9534H11.1627V12.0465H23.6316C23.9555 12.0433 24.2747 12.1241 24.5581 12.2809C25.2423 12.6257 25.6741 13.3264 25.6744 14.0926Z" fill="black"/>
<path opacity="0.2" d="M25.6744 14.0926V35.6703C25.6689 36.7975 24.7587 37.7111 23.6316 37.7209H11.1627V12.0465H23.6315C23.9555 12.0433 24.2747 12.1241 24.5581 12.2809C25.2423 12.6257 25.6741 13.3264 25.6744 14.0926Z" fill="black"/>
<path opacity="0.2" d="M24.5581 14.0926V35.6703C24.5569 36.7993 23.6442 37.7154 22.5153 37.7209H11.1627V12.0465H22.5153C23.6441 12.0471 24.5587 12.9627 24.558 14.0915C24.5581 14.0919 24.5581 14.0923 24.5581 14.0926Z" fill="black"/>
<path d="M2.04613 12.0465H22.512C23.642 12.0465 24.5581 12.9626 24.5581 14.0926V34.5585C24.5581 35.6885 23.642 36.6046 22.512 36.6046H2.04613C0.916073 36.6046 0 35.6885 0 34.5585V14.0926C0 12.9626 0.916099 12.0465 2.04613 12.0465Z" fill="url(#paint1_linear_210_656)"/>
<path d="M6.3951 20.6285C6.8994 19.554 7.7134 18.6548 8.7326 18.0465C9.86129 17.4003 11.1464 17.0782 12.4465 17.1155C13.6514 17.0894 14.8403 17.3948 15.8835 17.9985C16.8642 18.5834 17.6542 19.4404 18.1573 20.4655C18.7053 21.595 18.9784 22.8381 18.9544 24.0934C18.9809 25.4052 18.6999 26.705 18.1339 27.8887C17.6187 28.9504 16.8038 29.838 15.7897 30.4416C14.7064 31.0638 13.4733 31.3773 12.2243 31.3481C10.9937 31.3778 9.77848 31.0689 8.71139 30.455C7.72213 29.8694 6.92231 29.0114 6.40739 27.9836C5.85616 26.8703 5.57982 25.6412 5.60144 24.3992C5.57848 23.0986 5.84979 21.8095 6.3951 20.6285ZM8.88663 26.6898C9.15551 27.3691 9.61147 27.9582 10.2016 28.3888C10.8027 28.8089 11.5224 29.0257 12.2555 29.0072C13.0363 29.0381 13.8058 28.814 14.4479 28.3687C15.0306 27.9395 15.4746 27.3488 15.7249 26.6697C16.0048 25.9114 16.1429 25.1081 16.1324 24.2999C16.141 23.4839 16.0112 22.6724 15.7484 21.8999C15.5162 21.2024 15.0866 20.5874 14.5115 20.1295C13.8856 19.6631 13.1181 19.4266 12.3381 19.4597C11.5892 19.4403 10.8533 19.6588 10.2362 20.0837C9.63609 20.5161 9.17147 21.1105 8.89667 21.7972C8.28706 23.3713 8.28389 25.1157 8.88773 26.6921L8.88663 26.6898Z" fill="white"/>
<path d="M35.7209 8.69766H45.7674V18.7442H35.7209V8.69766Z" fill="#50D9FF"/>
<defs>
<linearGradient id="paint0_linear_210_656" x1="29.5813" y1="25.4418" x2="29.5813" y2="46.6512" gradientUnits="userSpaceOnUse">
<stop stop-color="#35B8F1"/>
<stop offset="1" stop-color="#28A8EA"/>
</linearGradient>
<linearGradient id="paint1_linear_210_656" x1="4.26624" y1="10.4477" x2="20.2919" y2="38.2034" gradientUnits="userSpaceOnUse">
<stop stop-color="#1784D9"/>
<stop offset="0.5" stop-color="#107AD5"/>
<stop offset="1" stop-color="#0A63C9"/>
</linearGradient>
</defs>
</svg>
