<svg width="48" height="48" viewBox="0 0 48 48" fill="none" xmlns="http://www.w3.org/2000/svg">
<path d="M0 24C0 10.7452 10.7452 0 24 0C37.2548 0 48 10.7452 48 24C48 37.2548 37.2548 48 24 48C10.7452 48 0 37.2548 0 24Z" fill="white"/>
<path d="M18.2257 14.4L18.2241 21.2824C18.2241 21.2824 18.4097 24.1584 20.0841 26.6432C21.6705 28.9968 23.1921 29.8888 23.9865 30.2168C25.4753 28.528 26.3793 26.3112 26.3793 23.8832C26.3793 19.0744 22.8409 15.0928 18.2257 14.4Z" fill="#0661A7"/>
<path d="M18.4464 29.9199C17.0104 28.1535 16.6424 26.4407 16.6424 26.4407C16.6424 26.4407 16.3112 28.2263 15.1696 29.7359C14.4528 30.6847 12.9936 31.8215 12.2848 32.3487C13.628 33.0655 15.1608 33.4719 16.7896 33.4719C18.396 33.4719 19.9096 33.0751 21.24 32.3767C20.4128 31.7311 18.9792 30.5759 18.4464 29.9199Z" fill="#0661A7"/>
<path d="M15.08 21.4344L15.0776 14.448C10.5976 15.256 7.19995 19.1712 7.19995 23.8832C7.19995 26.2856 8.08635 28.4816 9.54715 30.164C10.3264 29.6848 11.9824 28.5512 13.0528 26.9848C14.7104 24.564 15.08 21.4344 15.08 21.4344Z" fill="#0661A7"/>
<path d="M32.6644 14.4531L32.6636 21.3355C32.6636 21.3355 32.8484 24.2115 34.5236 26.6963C36.1092 29.0499 37.6308 29.9419 38.4252 30.2699C39.914 28.5803 40.818 26.3643 40.818 23.9355C40.818 19.1267 37.2796 15.1459 32.6644 14.4531Z" fill="#0661A7"/>
<path d="M32.8851 29.973C31.4499 28.2058 31.0819 26.4938 31.0819 26.4938C31.0819 26.4938 30.7507 28.2794 29.6083 29.789C28.8915 30.737 27.4323 31.8746 26.7235 32.4018C28.0675 33.1178 29.6003 33.525 31.2283 33.525C32.8347 33.525 34.3483 33.1282 35.6795 32.429C34.8515 31.7834 33.4187 30.6282 32.8851 29.973Z" fill="#0661A7"/>
<path d="M29.519 21.4875L29.5158 14.5011C25.0366 15.3091 21.639 19.2235 21.639 23.9355C21.639 26.3387 22.5246 28.5339 23.9862 30.2171C24.7654 29.7379 26.4206 28.6035 27.4918 27.0379C29.1486 24.6171 29.519 21.4875 29.519 21.4875Z" fill="#0661A7"/>
<path d="M21.6769 23.9035C21.6769 26.3155 22.5233 28.5259 23.9865 30.2171C25.4489 28.5259 26.3761 26.3155 26.3761 23.9035C26.3761 21.4923 25.4889 19.2891 24.0265 17.5979C22.5633 19.2891 21.6769 21.4923 21.6769 23.9035Z" fill="#CE392C"/>
</svg>
