<svg width="48" height="48" viewBox="0 0 48 48" fill="none" xmlns="http://www.w3.org/2000/svg">
<path fill-rule="evenodd" clip-rule="evenodd" d="M24 48C10.7452 48 0 37.2548 0 24C0 10.7452 10.7452 0 24 0C37.2548 0 48 10.7452 48 24C48 37.2548 37.2548 48 24 48ZM29.4884 12.8H18.8993L13.8232 15.0884L9.6 19.7796L24.2043 39.2L38.8085 19.7796L34.5957 15.0468L29.4884 12.8Z" fill="black"/>
<path fill-rule="evenodd" clip-rule="evenodd" d="M26.3222 35.961L33.0777 24.8442L35.9171 22.4502L26.3222 35.961Z" fill="black"/>
<path fill-rule="evenodd" clip-rule="evenodd" d="M17.2542 25.4695H30.9431L24.2043 37.8894L17.2542 25.4695Z" fill="black"/>
<path fill-rule="evenodd" clip-rule="evenodd" d="M12.4815 22.4502L15.3209 24.8442L22.0763 35.961L12.4815 22.4502Z" fill="black"/>
<path fill-rule="evenodd" clip-rule="evenodd" d="M14.0629 16.2534L18.4208 18.4378L15.3002 23.2643L10.8071 19.9056L14.0629 16.2534Z" fill="black"/>
<path fill-rule="evenodd" clip-rule="evenodd" d="M19.8452 13.5605H28.6421L32.973 15.4705L28.6235 17.365H19.8267L15.521 15.472L19.8452 13.5605Z" fill="black"/>
<path fill-rule="evenodd" clip-rule="evenodd" d="M31.2775 23.8884H16.8605L19.7298 18.7915L28.3234 18.8123L31.2775 23.8884Z" fill="black"/>
<path fill-rule="evenodd" clip-rule="evenodd" d="M37.5915 19.9056L32.973 23.3616L29.6887 18.4404L34.3357 16.2534L37.5915 19.9056Z" fill="black"/>
</svg>
