<svg width="24" height="24" viewBox="0 0 24 24" fill="none" xmlns="http://www.w3.org/2000/svg">
<path d="M9.05 4.95L6 8L8 10L12 6L16 10L18 8L12 2" stroke="#171717" stroke-width="1.5" stroke-miterlimit="10" stroke-linecap="round" stroke-linejoin="round"/>
<path d="M12 22L6 16L8 14L12 18L16 14L18 16L12 22Z" stroke="#171717" stroke-width="1.5" stroke-miterlimit="10" stroke-linecap="round" stroke-linejoin="round"/>
<path d="M19.7491 9.7524L17.5005 12.001L19.7491 14.2496L21.9976 12.001L19.7491 9.7524Z" stroke="#171717" stroke-width="1.5" stroke-miterlimit="10" stroke-linecap="round" stroke-linejoin="round"/>
<path d="M4.24906 9.75216L2.00049 12.0007L4.24907 14.2493L6.49764 12.0007L4.24906 9.75216Z" stroke="#171717" stroke-width="1.5" stroke-miterlimit="10" stroke-linecap="round" stroke-linejoin="round"/>
<path d="M11.9988 9.52613L9.52393 12.001L11.9988 14.4758L14.4736 12.001L11.9988 9.52613Z" stroke="#171717" stroke-width="1.5" stroke-miterlimit="10" stroke-linecap="round" stroke-linejoin="round"/>
</svg>
