<svg width="24" height="24" viewBox="0 0 24 24" fill="none" xmlns="http://www.w3.org/2000/svg">
<path d="M11.7499 9.42999L8.49992 15L7.86991 16.09L5.39991 20.31C5.21991 20.63 4.75992 20.64 4.55992 20.33L1.17991 15.28C1.06991 15.11 1.06991 14.89 1.17991 14.72L4.84993 9.22C4.93993 9.08 5.09991 9 5.26991 9H11.4999L11.7499 9.42999Z" stroke="#171717" stroke-width="1.5" stroke-miterlimit="10" stroke-linecap="round" stroke-linejoin="round"/>
<path opacity="0.4" d="M8.50003 15H14.13C14.52 15 14.76 14.58 14.56 14.25L11.75 9.42999L11.5 9L8.44003 3.75C8.24003 3.42 8.48003 3 8.87003 3H15.71C15.89 3 16.06 3.09 16.14 3.25L22.84 14.73C22.94 14.9 22.93 15.1 22.83 15.26L19.15 20.78C19.06 20.92 18.9 21 18.73 21H12.27C12.1 21 11.94 20.92 11.85 20.78L8.71002 16.07L8.27002 15.4L8.50003 15Z" stroke="#171717" stroke-width="1.5" stroke-miterlimit="10"/>
</svg>
