<svg width="24" height="24" viewBox="0 0 24 24" fill="none" xmlns="http://www.w3.org/2000/svg">
<path d="M15.0195 2.23006C13.0195 1.92006 10.9796 1.92006 8.97957 2.23006C8.15957 2.36006 7.55956 3.06005 7.55956 3.88005V7.56005H3.87956C3.05956 7.56005 2.35957 8.16006 2.22957 8.98006C1.91957 10.9801 1.91957 13.02 2.22957 15.02C2.35957 15.84 3.05956 16.4401 3.87956 16.4401H5.55956C5.83956 16.4401 6.05956 16.22 6.05956 15.9401V14.22C6.05956 12.17 7.72956 10.5 9.77956 10.5H14.2196C14.6196 10.5 14.9396 10.18 14.9396 9.78005V6.56005C14.9396 6.28005 15.1596 6.06005 15.4396 6.06005H15.9396C16.2196 6.06005 16.4396 5.84005 16.4396 5.56005V3.88005C16.4396 3.06005 15.8395 2.36006 15.0195 2.23006ZM10.3295 5.58003C9.91955 5.58003 9.52956 5.19005 9.52956 4.78005C9.52956 4.36005 9.91955 3.97005 10.3295 3.97005C10.5295 3.97005 10.7496 4.06006 10.8896 4.20006C11.0396 4.34006 11.1396 4.57005 11.1396 4.78005C11.1396 5.19005 10.7495 5.58003 10.3295 5.58003Z" fill="#171717"/>
<path d="M21.7696 8.98007C21.6396 8.16007 20.9396 7.56006 20.1196 7.56006H16.9396C16.6596 7.56006 16.4396 7.78006 16.4396 8.06006V9.78006C16.4396 11.0001 15.4496 12.0001 14.2196 12.0001H9.77957C8.54957 12.0001 7.55957 12.9901 7.55957 14.2201V20.1201C7.55957 20.9401 8.15958 21.64 8.97958 21.7701C10.9796 22.0801 13.0196 22.0801 15.0196 21.7701C15.8396 21.64 16.4396 20.9401 16.4396 20.1201V16.4401H20.1196C20.9396 16.4401 21.6396 15.84 21.7696 15.0201C22.0796 13.0201 22.0796 10.9801 21.7696 8.98007ZM13.6696 20.0301C13.2596 20.0301 12.8596 19.6401 12.8596 19.2201C12.8596 18.8001 13.2496 18.4101 13.6696 18.4101C13.8596 18.4101 14.0896 18.5001 14.2296 18.6301C14.3796 18.7701 14.4796 19.0101 14.4796 19.2101C14.4696 19.6401 14.0796 20.0301 13.6696 20.0301Z" fill="#171717"/>
</svg>
