<svg width="24" height="24" viewBox="0 0 24 24" fill="none" xmlns="http://www.w3.org/2000/svg">
<path d="M3.1802 15.03C2.8302 15.03 2.5802 15.38 2.7102 15.7C4.1802 19.4 7.7902 22 12.0002 22C16.2202 22 19.8302 19.38 21.3002 15.67C21.4302 15.35 21.1702 15 20.8302 15H17.5002C17.2202 15 17.0002 14.78 17.0002 14.5V11.76C17.0002 10.84 15.8502 10.41 15.2502 11.11L12.3802 14.54C12.1802 14.78 11.8102 14.78 11.6102 14.54L8.7402 11.11C8.1502 10.41 7.0002 10.84 7.0002 11.76V14.5C7.0002 14.78 6.7802 15 6.5002 15L3.1802 15.03Z" fill="#171717"/>
<path d="M22 12.1402C22 12.4502 21.98 12.7602 21.94 13.0602C21.91 13.3102 21.69 13.5002 21.43 13.5002H19C18.72 13.5002 18.5 13.2802 18.5 13.0002V11.9002C18.5 10.8902 17.96 9.91021 17.04 9.49021C16.01 9.02021 14.84 9.28022 14.1 10.1502L12.38 12.2002C12.18 12.4402 11.81 12.4402 11.61 12.2002L9.88 10.1302C9.16 9.28021 8 9.02021 6.96 9.49021C6.04 9.91021 5.5 10.8902 5.5 11.9002V12.8802C5.5 13.3002 5.28 13.5202 5 13.5202L2.56 13.5302C2.31 13.5302 2.08 13.3402 2.05 13.0902C2.02 12.7302 2 12.3702 2 12.0002C2 5.95022 7.39 1.14021 13.63 2.13021C18.46 2.89021 22.07 7.24021 22 12.1402Z" fill="#171717"/>
</svg>
