<svg width="24" height="24" viewBox="0 0 24 24" fill="none" xmlns="http://www.w3.org/2000/svg">
<path d="M14.5402 2.26001C13.5102 2.26001 12.6802 3.09 12.6802 4.12V8.76001C12.6802 9.79001 13.5102 10.62 14.5402 10.62C15.5702 10.62 16.4002 9.79001 16.4002 8.76001V4.12C16.4002 3.09 15.5702 2.26001 14.5402 2.26001Z" stroke="#171717" stroke-width="1.5" stroke-miterlimit="10" stroke-linecap="round" stroke-linejoin="round"/>
<path d="M18.6201 10.62H20.1901C21.0601 10.62 21.7601 9.91996 21.7601 9.04996C21.7601 8.17996 21.0601 7.47998 20.1901 7.47998C19.3201 7.47998 18.6201 8.17996 18.6201 9.04996V10.62Z" stroke="#171717" stroke-width="1.5" stroke-miterlimit="10" stroke-linecap="round" stroke-linejoin="round"/>
<path d="M3.86 7.37012C2.83 7.37012 2 8.20013 2 9.23013C2 10.2601 2.83 11.0901 3.86 11.0901H8.5C9.53 11.0901 10.36 10.2601 10.36 9.23013C10.36 8.20013 9.53 7.37012 8.5 7.37012H7.75" stroke="#171717" stroke-width="1.5" stroke-miterlimit="10" stroke-linecap="round" stroke-linejoin="round"/>
<path d="M10.3602 5.13V3.56C10.3602 2.69 9.66021 1.98999 8.79021 1.98999C7.92021 1.98999 7.22021 2.69 7.22021 3.56C7.22021 4.43 7.92021 5.13 8.79021 5.13H10.3602Z" stroke="#171717" stroke-width="1.5" stroke-miterlimit="10" stroke-linecap="round" stroke-linejoin="round"/>
<path d="M9.42981 21.7699C10.4598 21.7699 11.2898 20.9399 11.2898 19.9099V15.2699C11.2898 14.2399 10.4598 13.4099 9.42981 13.4099C8.39981 13.4099 7.56982 14.2399 7.56982 15.2699V19.9099C7.56982 20.9299 8.39981 21.7699 9.42981 21.7699Z" stroke="#171717" stroke-width="1.5" stroke-miterlimit="10" stroke-linecap="round" stroke-linejoin="round"/>
<path d="M5.36021 13.4099H3.79021C2.92021 13.4099 2.22021 14.1099 2.22021 14.9799C2.22021 15.8499 2.92021 16.5499 3.79021 16.5499C4.66021 16.5499 5.36021 15.8499 5.36021 14.9799V13.4099Z" stroke="#171717" stroke-width="1.5" stroke-miterlimit="10" stroke-linecap="round" stroke-linejoin="round"/>
<path d="M21.9699 14.7999C21.9699 13.7699 21.1399 12.9399 20.1099 12.9399H15.4699C14.4399 12.9399 13.6099 13.7699 13.6099 14.7999C13.6099 15.8299 14.4399 16.6599 15.4699 16.6599H20.1099C21.1399 16.6599 21.9699 15.8299 21.9699 14.7999Z" stroke="#171717" stroke-width="1.5" stroke-miterlimit="10" stroke-linecap="round" stroke-linejoin="round"/>
<path d="M13.6099 18.8401V20.4101C13.6099 21.2801 14.3099 21.9801 15.1799 21.9801C16.0499 21.9801 16.7499 21.2801 16.7499 20.4101C16.7499 19.5401 16.0499 18.8401 15.1799 18.8401H13.6099Z" stroke="#171717" stroke-width="1.5" stroke-miterlimit="10" stroke-linecap="round" stroke-linejoin="round"/>
</svg>
