<svg width="24" height="24" viewBox="0 0 24 24" fill="none" xmlns="http://www.w3.org/2000/svg">
<path opacity="0.4" d="M5.68024 18.44V20.29C5.68024 21.06 6.50023 21.54 7.17023 21.16L9.03027 20.11C9.97027 20.38 10.9602 20.52 11.9902 20.52C17.5102 20.52 21.9902 16.37 21.9902 11.26C21.9902 6.14999 17.5102 2 11.9902 2C6.47023 2 1.99023 6.14999 1.99023 11.26C2.00023 14.15 3.44024 16.74 5.68024 18.44Z" fill="#171717"/>
<path d="M11.0201 9.55993L8.48003 12.5799C8.17003 12.9499 8.51003 13.4999 8.98003 13.3899L10.99 12.8999C11.12 12.8699 11.25 12.8899 11.36 12.9499L12.37 13.5399C12.58 13.6599 12.8501 13.6199 13.0001 13.4299L15.5001 10.4399C15.8101 10.0699 15.46 9.50993 14.99 9.63993L13.17 10.1099C13.05 10.1399 12.9201 10.1299 12.8101 10.0699L11.6301 9.44993C11.4301 9.32993 11.1701 9.37993 11.0201 9.55993Z" fill="#171717"/>
</svg>
