<svg width="24" height="24" viewBox="0 0 24 24" fill="none" xmlns="http://www.w3.org/2000/svg">
<path opacity="0.4" d="M12 22C17.5228 22 22 17.5228 22 12C22 6.47715 17.5228 2 12 2C6.47715 2 2 6.47715 2 12C2 17.5228 6.47715 22 12 22Z" fill="#171717"/>
<path d="M12.0001 11.8801C13.3146 11.8801 14.3801 10.8146 14.3801 9.50012C14.3801 8.18568 13.3146 7.12012 12.0001 7.12012C10.6857 7.12012 9.62012 8.18568 9.62012 9.50012C9.62012 10.8146 10.6857 11.8801 12.0001 11.8801Z" fill="#171717"/>
<path d="M14.5898 16.03L13.3898 14.52C13.7198 14.43 14.0498 14.31 14.3598 14.16C14.7198 13.96 14.8498 13.52 14.6598 13.16C14.4698 12.8 14.0198 12.66 13.6598 12.84C12.6198 13.36 11.3798 13.36 10.3398 12.84C9.96981 12.65 9.5198 12.8 9.3298 13.17C9.1398 13.54 9.28976 13.99 9.65976 14.18C9.95976 14.33 10.2798 14.45 10.5998 14.53L9.40976 16.04C9.14976 16.37 9.20981 16.84 9.52981 17.09C9.85981 17.35 10.3298 17.29 10.5798 16.97L11.9898 15.19L13.3998 16.97C13.5498 17.16 13.7698 17.25 13.9898 17.25C14.1498 17.25 14.3198 17.2 14.4498 17.09C14.7898 16.83 14.8398 16.36 14.5898 16.03Z" fill="#171717"/>
</svg>
