<svg width="24" height="24" viewBox="0 0 24 24" fill="none" xmlns="http://www.w3.org/2000/svg">
<path d="M20.8904 10.5298C20.4804 10.5298 20.1404 10.1898 20.1404 9.77983V6.90983L12.0004 2.83982L3.86035 6.90983V9.77983C3.86035 10.1898 3.52035 10.5298 3.11035 10.5298C2.70035 10.5298 2.36035 10.1898 2.36035 9.77983V6.44982C2.36035 6.16982 2.5204 5.90983 2.7804 5.77983L11.6703 1.33982C11.8803 1.22982 12.1304 1.22982 12.3404 1.33982L21.2303 5.77983C21.4803 5.90983 21.6504 6.16982 21.6504 6.44982V9.77983C21.6404 10.1898 21.3004 10.5298 20.8904 10.5298Z" fill="#171717"/>
<path d="M12.0004 22.75C11.8804 22.75 11.7703 22.72 11.6703 22.67L2.7804 18.23C2.5304 18.1 2.36035 17.84 2.36035 17.56V14.23C2.36035 13.82 2.70035 13.48 3.11035 13.48C3.52035 13.48 3.86035 13.82 3.86035 14.23V17.1L12.0004 21.17L20.1404 17.1V14.23C20.1404 13.82 20.4804 13.48 20.8904 13.48C21.3004 13.48 21.6404 13.82 21.6404 14.23V17.56C21.6404 17.84 21.4803 18.1 21.2203 18.23L12.3304 22.67C12.2304 22.72 12.1204 22.75 12.0004 22.75Z" fill="#171717"/>
<path d="M16.4396 12.0001C16.4396 9.55006 14.4496 7.56006 11.9996 7.56006C9.54957 7.56006 7.55957 9.55006 7.55957 12.0001C7.55957 14.2001 9.16959 16.0201 11.2696 16.3701C11.2696 16.4001 11.2596 16.4201 11.2596 16.4401V22.0001C11.2596 22.4101 11.5996 22.7501 12.0096 22.7501C12.4196 22.7501 12.7596 22.4101 12.7596 22.0001V16.4401C12.7596 16.4101 12.7496 16.3901 12.7496 16.3701C14.8396 16.0201 16.4396 14.2001 16.4396 12.0001Z" fill="#171717"/>
</svg>
