<svg width="24" height="24" viewBox="0 0 24 24" fill="none" xmlns="http://www.w3.org/2000/svg">
<path d="M12.6399 8.47021C13.4399 8.68021 14.0899 9.33022 14.2899 10.1302C14.5699 11.2302 14.0799 12.2502 13.2399 12.7702V14.7502C13.2399 15.4402 12.6799 16.0002 11.9899 16.0002C11.2999 16.0002 10.7399 15.4402 10.7399 14.7502V12.7702C10.0599 12.3502 9.60986 11.6002 9.60986 10.7502" stroke="#171717" stroke-width="1.5" stroke-miterlimit="10" stroke-linecap="round" stroke-linejoin="round"/>
<path d="M21.55 9.03C20.28 4.96 16.49 2 12 2C7.89 2 4.36001 4.48 2.82001 8.02C2.29001 9.24 2 10.58 2 12C2 17.52 6.48 22 12 22C16.47 22 20.26 19.06 21.54 15.01" stroke="#171717" stroke-width="1.5" stroke-miterlimit="10" stroke-linecap="round" stroke-linejoin="round"/>
</svg>
