<svg width="24" height="24" viewBox="0 0 24 24" fill="none" xmlns="http://www.w3.org/2000/svg">
<path d="M10.8001 3.3998L7.20007 7.6998C7.10007 7.8998 7.00007 8.1998 6.90007 8.3998L5.20007 16.9998C5.10007 17.5998 5.40007 18.2998 5.90007 18.5998L11.2001 21.5998C11.6001 21.7998 12.3001 21.7998 12.7001 21.5998L18.0001 18.5998C18.5001 18.2998 18.8001 17.5998 18.7001 16.9998L17.0001 8.3998C17.0001 8.1998 16.8001 7.8998 16.7001 7.6998L13.1001 3.3998C12.5001 2.5998 11.5001 2.5998 10.8001 3.3998Z" stroke="#171717" stroke-width="1.5" stroke-miterlimit="10" stroke-linecap="round" stroke-linejoin="round"/>
<path d="M16.8 8.5L12.5 20.7C12.3 21.1 11.7 21.1 11.6 20.7L7.19995 8.5" stroke="#171717" stroke-width="1.5" stroke-miterlimit="10" stroke-linecap="round" stroke-linejoin="round"/>
</svg>
