<svg width="24" height="24" viewBox="0 0 24 24" fill="none" xmlns="http://www.w3.org/2000/svg">
<path d="M17.1504 10C17.7027 10 18.1504 9.55228 18.1504 9C18.1504 8.44772 17.7027 8 17.1504 8C16.5981 8 16.1504 8.44772 16.1504 9C16.1504 9.55228 16.5981 10 17.1504 10Z" fill="#171717"/>
<path d="M17.1504 16C17.7027 16 18.1504 15.5523 18.1504 15C18.1504 14.4477 17.7027 14 17.1504 14C16.5981 14 16.1504 14.4477 16.1504 15C16.1504 15.5523 16.5981 16 17.1504 16Z" fill="#171717"/>
<path d="M19.75 13C20.3023 13 20.75 12.5523 20.75 12C20.75 11.4477 20.3023 11 19.75 11C19.1977 11 18.75 11.4477 18.75 12C18.75 12.5523 19.1977 13 19.75 13Z" fill="#171717"/>
<path d="M6.80029 10C7.35258 10 7.80029 9.55228 7.80029 9C7.80029 8.44772 7.35258 8 6.80029 8C6.24801 8 5.80029 8.44772 5.80029 9C5.80029 9.55228 6.24801 10 6.80029 10Z" fill="#171717"/>
<path d="M6.80029 16C7.35258 16 7.80029 15.5523 7.80029 15C7.80029 14.4477 7.35258 14 6.80029 14C6.24801 14 5.80029 14.4477 5.80029 15C5.80029 15.5523 6.24801 16 6.80029 16Z" fill="#171717"/>
<path d="M4.2002 13C4.75248 13 5.2002 12.5523 5.2002 12C5.2002 11.4477 4.75248 11 4.2002 11C3.64791 11 3.2002 11.4477 3.2002 12C3.2002 12.5523 3.64791 13 4.2002 13Z" fill="#171717"/>
<path d="M15.9004 6.2002C16.4527 6.2002 16.9004 5.75248 16.9004 5.2002C16.9004 4.64791 16.4527 4.2002 15.9004 4.2002C15.3481 4.2002 14.9004 4.64791 14.9004 5.2002C14.9004 5.75248 15.3481 6.2002 15.9004 6.2002Z" fill="#171717"/>
<path d="M8.1001 6.2002C8.65238 6.2002 9.1001 5.75248 9.1001 5.2002C9.1001 4.64791 8.65238 4.2002 8.1001 4.2002C7.54781 4.2002 7.1001 4.64791 7.1001 5.2002C7.1001 5.75248 7.54781 6.2002 8.1001 6.2002Z" fill="#171717"/>
<path d="M12.0503 7C12.6026 7 13.0503 6.55228 13.0503 6C13.0503 5.44772 12.6026 5 12.0503 5C11.498 5 11.0503 5.44772 11.0503 6C11.0503 6.55228 11.498 7 12.0503 7Z" fill="#171717"/>
<path d="M15.9004 20C16.4527 20 16.9004 19.5523 16.9004 19C16.9004 18.4477 16.4527 18 15.9004 18C15.3481 18 14.9004 18.4477 14.9004 19C14.9004 19.5523 15.3481 20 15.9004 20Z" fill="#171717"/>
<path d="M8.1001 20C8.65238 20 9.1001 19.5523 9.1001 19C9.1001 18.4477 8.65238 18 8.1001 18C7.54781 18 7.1001 18.4477 7.1001 19C7.1001 19.5523 7.54781 20 8.1001 20Z" fill="#171717"/>
<path d="M12.0503 19.2002C12.6026 19.2002 13.0503 18.7525 13.0503 18.2002C13.0503 17.6479 12.6026 17.2002 12.0503 17.2002C11.498 17.2002 11.0503 17.6479 11.0503 18.2002C11.0503 18.7525 11.498 19.2002 12.0503 19.2002Z" fill="#171717"/>
<path d="M13.75 10.25C14.4404 10.25 15 9.69036 15 9C15 8.30964 14.4404 7.75 13.75 7.75C13.0596 7.75 12.5 8.30964 12.5 9C12.5 9.69036 13.0596 10.25 13.75 10.25Z" fill="#171717"/>
<path d="M10.25 10.25C10.9404 10.25 11.5 9.69036 11.5 9C11.5 8.30964 10.9404 7.75 10.25 7.75C9.55964 7.75 9 8.30964 9 9C9 9.69036 9.55964 10.25 10.25 10.25Z" fill="#171717"/>
<path d="M15.5 13.25C16.1904 13.25 16.75 12.6904 16.75 12C16.75 11.3096 16.1904 10.75 15.5 10.75C14.8096 10.75 14.25 11.3096 14.25 12C14.25 12.6904 14.8096 13.25 15.5 13.25Z" fill="#171717"/>
<path d="M8.5 13.25C9.19036 13.25 9.75 12.6904 9.75 12C9.75 11.3096 9.19036 10.75 8.5 10.75C7.80964 10.75 7.25 11.3096 7.25 12C7.25 12.6904 7.80964 13.25 8.5 13.25Z" fill="#171717"/>
<path d="M10.25 16.25C10.9404 16.25 11.5 15.6904 11.5 15C11.5 14.3096 10.9404 13.75 10.25 13.75C9.55964 13.75 9 14.3096 9 15C9 15.6904 9.55964 16.25 10.25 16.25Z" fill="#171717"/>
<path d="M13.75 16.25C14.4404 16.25 15 15.6904 15 15C15 14.3096 14.4404 13.75 13.75 13.75C13.0596 13.75 12.5 14.3096 12.5 15C12.5 15.6904 13.0596 16.25 13.75 16.25Z" fill="#171717"/>
<path d="M12.0001 3.32982C11.5101 3.32982 11.1201 2.93982 11.1201 2.44982C11.1201 1.95982 11.5101 1.56982 12.0001 1.56982C12.4901 1.56982 12.8801 1.95982 12.8801 2.44982C12.8801 2.93982 12.4901 3.32982 12.0001 3.32982Z" fill="#171717"/>
<path d="M17.2502 3.6001C16.8302 3.6001 16.4902 3.2601 16.4902 2.8501C16.4902 2.4401 16.8302 2.1001 17.2402 2.1001C17.6502 2.1001 18.0002 2.4401 18.0002 2.8501C18.0002 3.2601 17.6702 3.6001 17.2502 3.6001Z" fill="#171717"/>
<path d="M6.75 3.6001C6.34 3.6001 6 3.2601 6 2.8501C6 2.4401 6.33 2.1001 6.75 2.1001H6.76001C7.17001 2.1001 7.51001 2.4401 7.51001 2.8501C7.51001 3.2601 7.17 3.6001 6.75 3.6001Z" fill="#171717"/>
<path d="M12.0001 22.3801C11.5101 22.3801 11.1201 21.9901 11.1201 21.5001C11.1201 21.0101 11.5101 20.6201 12.0001 20.6201C12.4901 20.6201 12.8801 21.0101 12.8801 21.5001C12.8801 21.9901 12.4901 22.3801 12.0001 22.3801Z" fill="#171717"/>
<path d="M17.2502 21.8501C16.8302 21.8501 16.4902 21.5101 16.4902 21.1001C16.4902 20.6901 16.8302 20.3501 17.2402 20.3501C17.6502 20.3501 18.0002 20.6901 18.0002 21.1001C18.0002 21.5101 17.6702 21.8501 17.2502 21.8501Z" fill="#171717"/>
<path d="M6.75 21.8501C6.34 21.8501 6 21.5101 6 21.1001C6 20.6901 6.33 20.3501 6.75 20.3501H6.76001C7.17001 20.3501 7.51001 20.6901 7.51001 21.1001C7.51001 21.5101 7.17 21.8501 6.75 21.8501Z" fill="#171717"/>
<path d="M1.5499 12.8801C1.0699 12.8801 0.669922 12.4901 0.669922 12.0101V12.0001C0.669922 11.5201 1.0599 11.1201 1.5499 11.1201C2.0399 11.1201 2.4299 11.5101 2.4299 12.0001C2.4299 12.4901 2.0299 12.8801 1.5499 12.8801Z" fill="#171717"/>
<path d="M3.75 17.7502C3.34 17.7502 3 17.4202 3 17.0002V16.9902C3 16.5802 3.34 16.2402 3.75 16.2402C4.16 16.2402 4.5 16.5802 4.5 16.9902C4.5 17.4002 4.16 17.7502 3.75 17.7502Z" fill="#171717"/>
<path d="M3.75 7.75977C3.34 7.75977 3 7.41977 3 7.00977C3 6.59977 3.34 6.25977 3.75 6.25977C4.16 6.25977 4.5 6.58977 4.5 6.99977V7.00977C4.5 7.41977 4.16 7.75977 3.75 7.75977Z" fill="#171717"/>
<path d="M22.5001 12.8801C22.0201 12.8801 21.6201 12.4901 21.6201 12.0101V12.0001C21.6201 11.5201 22.0101 11.1201 22.5001 11.1201C22.9901 11.1201 23.3801 11.5101 23.3801 12.0001C23.3801 12.4901 22.9801 12.8801 22.5001 12.8801Z" fill="#171717"/>
<path d="M20.2998 17.7502C19.8898 17.7502 19.5498 17.4202 19.5498 17.0002V16.9902C19.5498 16.5802 19.8898 16.2402 20.2998 16.2402C20.7098 16.2402 21.0498 16.5802 21.0498 16.9902C21.0498 17.4002 20.7098 17.7502 20.2998 17.7502Z" fill="#171717"/>
<path d="M20.2998 7.75977C19.8898 7.75977 19.5498 7.41977 19.5498 7.00977C19.5498 6.59977 19.8898 6.25977 20.2998 6.25977C20.7098 6.25977 21.0498 6.58977 21.0498 7.00977V7.01977C21.0498 7.41977 20.7098 7.75977 20.2998 7.75977Z" fill="#171717"/>
</svg>
