<svg width="24" height="24" viewBox="0 0 24 24" fill="none" xmlns="http://www.w3.org/2000/svg">
<path d="M19 9.8699V16.7299C19 17.5099 18.55 18.2099 17.85 18.5399L11.35 21.5999C10.81 21.8499 10.19 21.8499 9.64999 21.5999L3.14999 18.5399C2.44999 18.2099 2 17.5099 2 16.7299V9.2699C2 8.4899 2.44999 7.7899 3.14999 7.4599L9.64999 4.3999C10.19 4.1499 10.81 4.1499 11.35 4.3999L14.02 5.65991C14 5.76991 14 5.88991 14 5.99991C14 8.20991 15.79 9.99991 18 9.99991C18.35 9.99991 18.68 9.9599 19 9.8699Z" stroke="#171717" stroke-width="1.5" stroke-miterlimit="10" stroke-linejoin="round"/>
<path opacity="0.4" d="M7 10.5V13.5C7 14.6 7.9 15.5 9 15.5C10.1 15.5 11 14.6 11 13.5V10.5" stroke="#171717" stroke-width="1.5" stroke-miterlimit="10" stroke-linecap="round"/>
<path opacity="0.4" d="M14 10.5V15.44" stroke="#171717" stroke-width="1.5" stroke-miterlimit="10" stroke-linecap="round"/>
<path d="M22 6C22 7.86 20.73 9.43 19 9.87C18.68 9.96 18.35 10 18 10C15.79 10 14 8.21 14 6C14 5.89 14 5.77 14.02 5.66C14.19 3.61 15.9 2 18 2C20.21 2 22 3.79 22 6Z" stroke="#171717" stroke-width="1.5" stroke-miterlimit="10"/>
<path d="M19.0901 5.91006C19.3301 5.70006 19.4602 5.42005 19.4602 5.08005C19.4602 4.31005 18.8802 3.80005 18.0002 3.80005C17.1202 3.80005 16.5401 4.32005 16.5401 5.08005C16.5401 5.41005 16.6702 5.70006 16.9102 5.91006C16.5902 6.15006 16.4102 6.50008 16.4102 6.89008C16.4102 7.70008 17.0201 8.20007 18.0101 8.20007C19.0001 8.20007 19.6102 7.70008 19.6102 6.89008C19.6002 6.49008 19.4201 6.14006 19.0901 5.91006ZM18.0002 5.51007C17.7302 5.51007 17.5602 5.36007 17.5602 5.13007C17.5602 4.85007 17.7902 4.76007 18.0002 4.76007C18.2102 4.76007 18.4402 4.86007 18.4402 5.13007C18.4402 5.36007 18.2702 5.51007 18.0002 5.51007ZM18.0002 6.34006C18.2802 6.34006 18.5802 6.46007 18.5802 6.79007C18.5802 7.08007 18.3602 7.25006 18.0002 7.25006C17.6402 7.25006 17.4202 7.08007 17.4202 6.79007C17.4202 6.38007 17.8602 6.34006 18.0002 6.34006Z" fill="#171717"/>
</svg>
