<svg width="24" height="24" viewBox="0 0 24 24" fill="none" xmlns="http://www.w3.org/2000/svg">
<path d="M7.59961 7.6001V3.9001C7.59961 3.1001 8.19961 2.4001 8.99961 2.2001C10.9996 1.9001 12.9996 1.9001 14.9996 2.2001C15.7996 2.3001 16.3996 3.0001 16.3996 3.9001V9.8001C16.3996 11.0001 15.3996 12.0001 14.1996 12.0001H9.79961C8.59961 12.0001 7.59961 13.0001 7.59961 14.2001V20.1001C7.59961 20.9001 8.19961 21.6001 8.99961 21.8001C10.9996 22.1001 12.9996 22.1001 14.9996 21.8001C15.7996 21.7001 16.3996 21.0001 16.3996 20.1001V16.4001" stroke="#171717" stroke-width="1.5" stroke-linecap="round" stroke-linejoin="round"/>
<path d="M16.4 7.6001H20.1C20.9 7.6001 21.6 8.2001 21.8 9.0001C22.1 11.0001 22.1 13.0001 21.8 15.0001C21.7 15.8001 21 16.4001 20.1 16.4001H12" stroke="#171717" stroke-width="1.5" stroke-linecap="round" stroke-linejoin="round"/>
<path d="M11.9996 7.6001H3.89961C3.09961 7.6001 2.39961 8.2001 2.19961 9.0001C1.89961 11.0001 1.89961 13.0001 2.19961 15.0001C2.29961 15.8001 2.99961 16.4001 3.89961 16.4001H7.59961" stroke="#171717" stroke-width="1.5" stroke-linecap="round" stroke-linejoin="round"/>
<path d="M10 4.8501V4.8501" stroke="#171717" stroke-width="1.5" stroke-linecap="round" stroke-linejoin="round"/>
<path d="M14 19.1499V19.1499" stroke="#171717" stroke-width="1.5" stroke-linecap="round" stroke-linejoin="round"/>
</svg>
