<svg width="24" height="24" viewBox="0 0 24 24" fill="none" xmlns="http://www.w3.org/2000/svg">
<path d="M6.06033 15.58L11.6703 5.96995C11.8303 5.68995 12.2303 5.66995 12.4203 5.92995L13.9803 8.01995C14.4303 8.61995 14.4603 9.42995 14.0703 10.07L10.7303 15.42C10.4003 15.95 9.82034 16.27 9.19034 16.27H6.45035C6.10035 16.26 5.88033 15.88 6.06033 15.58Z" fill="#171717"/>
<path d="M15.2401 12.3698L13.3201 15.5698C13.1401 15.8698 13.3601 16.2598 13.7101 16.2598H17.5501C17.9001 16.2598 18.1201 15.8798 17.9401 15.5698L16.0201 12.3698C15.8501 12.0798 15.4201 12.0798 15.2401 12.3698Z" fill="#171717"/>
<path opacity="0.4" d="M12 22C17.5228 22 22 17.5228 22 12C22 6.47715 17.5228 2 12 2C6.47715 2 2 6.47715 2 12C2 17.5228 6.47715 22 12 22Z" fill="#171717"/>
</svg>
