<svg width="24" height="24" viewBox="0 0 24 24" fill="none" xmlns="http://www.w3.org/2000/svg">
<path d="M7.56006 7.56008V3.89009C7.56006 3.06009 8.17007 2.37007 8.98007 2.24007C10.9801 1.93007 13.0201 1.93007 15.0201 2.24007C15.8401 2.37007 16.4401 3.07009 16.4401 3.89009V9.78008C16.4401 11.0101 15.4501 12.0001 14.2201 12.0001H9.78006C8.55006 12.0001 7.56006 12.9901 7.56006 14.2201V20.1101C7.56006 20.9401 8.17007 21.6301 8.98007 21.7601C10.9801 22.0701 13.0201 22.0701 15.0201 21.7601C15.8401 21.6301 16.4401 20.9301 16.4401 20.1101V16.4401" stroke="#171717" stroke-width="1.5" stroke-linecap="round" stroke-linejoin="round"/>
<path d="M16.44 7.56006H20.11C20.94 7.56006 21.63 8.17007 21.76 8.98007C22.07 10.9801 22.07 13.0201 21.76 15.0201C21.63 15.8401 20.93 16.4401 20.11 16.4401H12" stroke="#171717" stroke-width="1.5" stroke-linecap="round" stroke-linejoin="round"/>
<path d="M2.02002 12.98C2.05002 13.66 2.12004 14.34 2.23004 15.02C2.36004 15.84 3.06004 16.44 3.88004 16.44H7.55002" stroke="#171717" stroke-width="1.5" stroke-linecap="round" stroke-linejoin="round"/>
<path d="M12 7.56006H3.87997C3.04997 7.56006 2.35998 8.17007 2.22998 8.98007" stroke="#171717" stroke-width="1.5" stroke-linecap="round" stroke-linejoin="round"/>
<path d="M10.39 4.77997C10.39 4.80997 10.37 4.83997 10.33 4.83997C10.29 4.83997 10.27 4.81997 10.27 4.77997C10.27 4.74997 10.29 4.71997 10.33 4.71997C10.34 4.71997 10.36 4.72996 10.37 4.73996C10.38 4.74996 10.39 4.75997 10.39 4.77997Z" stroke="#171717" stroke-width="1.5" stroke-linecap="round" stroke-linejoin="round"/>
<path d="M13.7201 19.2199C13.7201 19.2499 13.7001 19.2799 13.6601 19.2799C13.6301 19.2799 13.6001 19.2599 13.6001 19.2199C13.6001 19.1899 13.6201 19.1599 13.6601 19.1599C13.6701 19.1599 13.6901 19.1699 13.7001 19.1799C13.7201 19.1899 13.7201 19.2099 13.7201 19.2199Z" stroke="#171717" stroke-width="1.5" stroke-linecap="round" stroke-linejoin="round"/>
</svg>
