<svg width="24" height="24" viewBox="0 0 24 24" fill="none" xmlns="http://www.w3.org/2000/svg">
<path opacity="0.4" d="M12 22C17.5228 22 22 17.5228 22 12C22 6.47715 17.5228 2 12 2C6.47715 2 2 6.47715 2 12C2 17.5228 6.47715 22 12 22Z" fill="#171717"/>
<path d="M7.50003 11.2503H16.5C16.91 11.2503 17.25 10.9103 17.25 10.5003C17.25 10.0903 16.91 9.7503 16.5 9.7503H13.45L15.44 6.9303C15.68 6.5903 15.6 6.1203 15.26 5.8903C14.92 5.6503 14.45 5.7303 14.22 6.0703L11.92 9.3303L9.62003 6.0703C9.38003 5.7303 8.91002 5.6503 8.58002 5.8903C8.24002 6.1303 8.16002 6.6003 8.40002 6.9303L10.39 9.7503H7.52002C7.11002 9.7503 6.77002 10.0903 6.77002 10.5003C6.77002 10.9103 7.09003 11.2503 7.50003 11.2503Z" fill="#171717"/>
<path d="M16.5 12.7505H7.5C7.09 12.7505 6.75 13.0905 6.75 13.5005C6.75 13.9105 7.09 14.2505 7.5 14.2505H10.37L8.38 17.0705C8.14 17.4105 8.22 17.8805 8.56 18.1105C8.69 18.2005 8.83999 18.2505 8.98999 18.2505C9.22999 18.2505 9.46001 18.1405 9.60001 17.9305L11.9 14.6705L14.2 17.9305C14.35 18.1405 14.58 18.2505 14.81 18.2505C14.96 18.2505 15.11 18.2105 15.24 18.1105C15.58 17.8705 15.66 17.4005 15.42 17.0705L13.43 14.2505H16.48C16.89 14.2505 17.23 13.9105 17.23 13.5005C17.23 13.0905 16.91 12.7505 16.5 12.7505Z" fill="#171717"/>
</svg>
