<svg width="24" height="24" viewBox="0 0 24 24" fill="none" xmlns="http://www.w3.org/2000/svg">
<path d="M7.55957 7.56008V3.89009C7.55957 3.06009 8.16958 2.37007 8.97958 2.24007C10.9796 1.93007 13.0196 1.93007 15.0196 2.24007C15.8396 2.37007 16.4396 3.07009 16.4396 3.89009V9.78008C16.4396 11.0101 15.4496 12.0001 14.2196 12.0001H9.77957C8.54957 12.0001 7.55957 12.9901 7.55957 14.2201V20.1101C7.55957 20.9401 8.16958 21.6301 8.97958 21.7601C10.9796 22.0701 13.0196 22.0701 15.0196 21.7601C15.8396 21.6301 16.4396 20.9301 16.4396 20.1101V16.4401" stroke="#171717" stroke-width="1.5" stroke-linecap="round" stroke-linejoin="round"/>
<path d="M16.44 7.56006H20.11C20.94 7.56006 21.63 8.17007 21.76 8.98007C22.07 10.9801 22.07 13.0201 21.76 15.0201C21.63 15.8401 20.93 16.4401 20.11 16.4401H12" stroke="#171717" stroke-width="1.5" stroke-linecap="round" stroke-linejoin="round"/>
<path d="M2.01953 12.98C2.04953 13.66 2.11955 14.34 2.22955 15.02C2.35955 15.84 3.05955 16.44 3.87955 16.44H7.54953" stroke="#171717" stroke-width="1.5" stroke-linecap="round" stroke-linejoin="round"/>
<path d="M12.0005 7.56006H3.88046C3.05046 7.56006 2.36047 8.17007 2.23047 8.98007" stroke="#171717" stroke-width="1.5" stroke-linecap="round" stroke-linejoin="round"/>
<path d="M10.3896 4.77997C10.3896 4.80997 10.3695 4.83997 10.3295 4.83997C10.2895 4.83997 10.2695 4.81997 10.2695 4.77997C10.2695 4.74997 10.2895 4.71997 10.3295 4.71997C10.3395 4.71997 10.3595 4.72996 10.3695 4.73996C10.3795 4.74996 10.3896 4.75997 10.3896 4.77997Z" stroke="#171717" stroke-width="1.5" stroke-linecap="round" stroke-linejoin="round"/>
<path d="M13.7196 19.2199C13.7196 19.2499 13.6996 19.2799 13.6596 19.2799C13.6296 19.2799 13.5996 19.2599 13.5996 19.2199C13.5996 19.1899 13.6196 19.1599 13.6596 19.1599C13.6696 19.1599 13.6896 19.1699 13.6996 19.1799C13.7196 19.1899 13.7196 19.2099 13.7196 19.2199Z" stroke="#171717" stroke-width="1.5" stroke-linecap="round" stroke-linejoin="round"/>
</svg>
