<svg width="24" height="24" viewBox="0 0 24 24" fill="none" xmlns="http://www.w3.org/2000/svg">
<path opacity="0.4" d="M12 22C17.5228 22 22 17.5228 22 12C22 6.47715 17.5228 2 12 2C6.47715 2 2 6.47715 2 12C2 17.5228 6.47715 22 12 22Z" fill="#171717"/>
<path d="M7.49954 11.2501H16.4995C16.9095 11.2501 17.2495 10.9101 17.2495 10.5001C17.2495 10.0901 16.9095 9.75005 16.4995 9.75005H13.4496L15.4395 6.93005C15.6795 6.59005 15.5996 6.12005 15.2596 5.89005C14.9196 5.65005 14.4495 5.73005 14.2195 6.07005L11.9196 9.33005L9.61954 6.07005C9.37954 5.73005 8.90953 5.65005 8.57953 5.89005C8.23953 6.13005 8.15954 6.60005 8.39954 6.93005L10.3896 9.75005H7.51953C7.10953 9.75005 6.76953 10.0901 6.76953 10.5001C6.76953 10.9101 7.08954 11.2501 7.49954 11.2501Z" fill="#171717"/>
<path d="M16.5 12.75H7.5C7.09 12.75 6.75 13.09 6.75 13.5C6.75 13.91 7.09 14.25 7.5 14.25H10.37L8.38 17.07C8.14 17.41 8.22 17.88 8.56 18.11C8.69 18.2 8.83999 18.25 8.98999 18.25C9.22999 18.25 9.46001 18.14 9.60001 17.93L11.9 14.67L14.2 17.93C14.35 18.14 14.58 18.25 14.81 18.25C14.96 18.25 15.11 18.21 15.24 18.11C15.58 17.87 15.66 17.4 15.42 17.07L13.43 14.25H16.48C16.89 14.25 17.23 13.91 17.23 13.5C17.23 13.09 16.91 12.75 16.5 12.75Z" fill="#171717"/>
</svg>
