<svg width="24" height="24" viewBox="0 0 24 24" fill="none" xmlns="http://www.w3.org/2000/svg">
<path opacity="0.4" d="M6.05984 15.5802L11.6698 5.9702C11.8298 5.6902 12.2298 5.67019 12.4198 5.93019L13.9798 8.02019C14.4298 8.62019 14.4599 9.43019 14.0699 10.0702L10.7298 15.4202C10.3998 15.9502 9.81985 16.2702 9.18985 16.2702H6.44986C6.09986 16.2602 5.87984 15.8802 6.05984 15.5802Z" stroke="#171717" stroke-width="1.5" stroke-miterlimit="10" stroke-linecap="round" stroke-linejoin="round"/>
<path opacity="0.4" d="M15.2401 12.3698L13.3201 15.5698C13.1401 15.8698 13.3601 16.2598 13.7101 16.2598H17.5501C17.9001 16.2598 18.1201 15.8798 17.9401 15.5698L16.0201 12.3698C15.8501 12.0798 15.4201 12.0798 15.2401 12.3698Z" stroke="#171717" stroke-width="1.5" stroke-miterlimit="10" stroke-linecap="round" stroke-linejoin="round"/>
<path d="M12 22C17.5228 22 22 17.5228 22 12C22 6.47715 17.5228 2 12 2C6.47715 2 2 6.47715 2 12C2 17.5228 6.47715 22 12 22Z" stroke="#171717" stroke-width="1.5" stroke-miterlimit="10"/>
</svg>
