<svg width="24" height="24" viewBox="0 0 24 24" fill="none" xmlns="http://www.w3.org/2000/svg">
<path d="M16.8999 16.9C19.5999 14.2 19.5999 9.7 16.8999 7" stroke="#171717" stroke-width="1.5" stroke-miterlimit="10" stroke-linecap="round" stroke-linejoin="round"/>
<path d="M7.1002 7.1001C4.4002 9.8001 4.4002 14.3001 7.1002 17.0001" stroke="#171717" stroke-width="1.5" stroke-miterlimit="10" stroke-linecap="round" stroke-linejoin="round"/>
<path d="M9.7002 13.5998C9.7002 14.4998 10.4002 15.1998 11.3002 15.1998H13.0002C13.7002 15.1998 14.4002 14.5998 14.4002 13.7998C14.4002 12.8998 14.0002 12.5998 13.5002 12.3998L10.7002 11.3998C10.0002 11.2998 9.7002 10.9998 9.7002 10.1998C9.7002 9.3998 10.3002 8.7998 11.1002 8.7998H12.9002C13.8002 8.7998 14.5002 9.4998 14.5002 10.3998" stroke="#171717" stroke-width="1.5" stroke-linecap="round" stroke-linejoin="round"/>
<path d="M12 7.7998V16.1998" stroke="#171717" stroke-width="1.5" stroke-linecap="round" stroke-linejoin="round"/>
<path d="M12 22C17.5228 22 22 17.5228 22 12C22 6.47715 17.5228 2 12 2C6.47715 2 2 6.47715 2 12C2 17.5228 6.47715 22 12 22Z" stroke="#171717" stroke-width="1.5" stroke-miterlimit="10" stroke-linecap="round" stroke-linejoin="round"/>
</svg>
