<svg width="24" height="24" viewBox="0 0 24 24" fill="none" xmlns="http://www.w3.org/2000/svg">
<path d="M16.3296 15.28C15.3396 16.59 13.7596 17.43 11.9996 17.43C8.99957 17.43 6.55957 15.0001 6.55957 11.9901C6.55957 8.98005 8.98957 6.55005 11.9996 6.55005C13.2296 6.55005 14.3596 6.96005 15.2696 7.64005" stroke="#171717" stroke-width="1.5" stroke-miterlimit="10" stroke-linecap="round" stroke-linejoin="round"/>
<path d="M17.42 11.34C18.0662 11.34 18.59 10.8162 18.59 10.17C18.59 9.52382 18.0662 9 17.42 9C16.7738 9 16.25 9.52382 16.25 10.17C16.25 10.8162 16.7738 11.34 17.42 11.34Z" stroke="#171717" stroke-width="1.5" stroke-miterlimit="10" stroke-linecap="round" stroke-linejoin="round"/>
<path d="M4 6C2.75 7.67 2 9.75 2 12C2 17.52 6.48 22 12 22C17.52 22 22 17.52 22 12C22 6.48 17.52 2 12 2C10.57 2 9.2 2.30001 7.97 2.85001" stroke="#171717" stroke-width="1.5" stroke-linecap="round" stroke-linejoin="round"/>
</svg>
