<svg width="24" height="24" viewBox="0 0 24 24" fill="none" xmlns="http://www.w3.org/2000/svg">
<path d="M15.0697 17.8798L14.0597 20.0998C13.7997 20.6598 13.4197 21.1498 12.9097 21.4898C12.3897 21.8398 11.7097 21.8698 11.1697 21.5298C9.52969 20.4898 5.94974 17.8198 3.77974 13.1898C3.69974 13.0298 3.9197 12.8698 4.0597 12.9698C4.6297 13.3698 5.23968 13.6498 5.90968 13.8098C6.31968 13.8998 6.73972 13.9398 7.13972 13.9398C8.99972 13.9398 10.6797 12.9898 11.7997 12.1698C12.1297 11.9298 12.5697 11.8798 12.9097 12.0898C14.0297 12.7898 14.7797 13.6298 15.1497 14.5798C15.7897 16.2598 15.0897 17.8098 15.0697 17.8798Z" fill="#171717"/>
<path d="M16.8502 18.0502C16.7702 18.1402 16.6102 18.0402 16.6502 17.9302C17.0902 16.4702 17.6602 12.6202 12.5602 10.1802C12.2502 10.0302 12.0202 9.75016 11.9802 9.41016C11.3602 3.85016 16.1502 2.85015 16.1502 2.85015C16.5402 2.77015 16.9502 2.77015 17.3302 2.88015C18.4102 3.17015 19.5102 3.57016 20.6202 4.11016C21.5702 4.57016 22.1202 5.57016 21.9802 6.62016C21.6502 9.10016 20.5502 13.8802 16.8502 18.0502Z" fill="#171717"/>
<path d="M10.56 10.21L10.5901 10.41C10.6601 10.79 10.5 11.18 10.18 11.38C8.03003 12.73 4.51002 13.75 2.36002 7.83998C2.16002 7.29998 2.04003 6.89999 2.00003 6.31999C1.95003 5.55999 2.38003 4.68999 3.06003 4.36999C4.82003 3.54999 8.54006 2.11999 13.0301 2.24999C13.2301 2.25999 13.3 2.51999 13.14 2.62999C11.41 3.94999 9.92003 6.32999 10.56 10.21Z" fill="#171717"/>
</svg>
