<svg width="24" height="24" viewBox="0 0 24 24" fill="none" xmlns="http://www.w3.org/2000/svg">
<path d="M16.7699 4.32001L16.1399 3.25C16.0499 3.1 15.8899 3 15.7099 3H8.86991C8.47991 3 8.23992 3.42 8.43992 3.75L11.4999 9H5.26991C5.09991 9 4.94993 9.08 4.84993 9.22L1.17991 14.72C1.06991 14.89 1.06991 15.11 1.17991 15.27L4.54991 20.33C4.75991 20.64 5.20991 20.62 5.39991 20.3L7.8599 16.08C8.0499 15.76 8.49991 15.75 8.70991 16.05L11.8499 20.76C11.9399 20.9 12.0999 20.98 12.2699 20.98H18.7299C18.8999 20.98 19.0499 20.9 19.1499 20.76L22.8299 15.24C22.9399 15.08 22.9399 14.88 22.8499 14.71L19.2699 8.57001L16.7699 4.32001ZM8.49992 15L11.7499 9.42999L14.5599 14.25C14.7499 14.58 14.5099 15 14.1299 15H8.49992Z" stroke="#171717" stroke-width="1.5" stroke-miterlimit="10" stroke-linecap="round"/>
</svg>
