<svg width="24" height="24" viewBox="0 0 24 24" fill="none" xmlns="http://www.w3.org/2000/svg">
<path opacity="0.13" d="M10.8698 14L12.7998 17.33L10.8799 20.66H6.99985L5.08984 17.35L7.02985 14H10.8698Z" fill="#171717"/>
<path d="M10.5401 14.0801H7.12008C6.94008 14.0801 6.78009 14.1801 6.69009 14.3301L4.9801 17.2901C4.8901 17.4401 4.8901 17.6401 4.9801 17.7901L6.69009 20.7501C6.78009 20.9001 6.94008 21.0001 7.12008 21.0001H10.5401C10.7201 21.0001 10.8801 20.9001 10.9701 20.7501L12.6801 17.7901C12.7701 17.6401 12.7701 17.4401 12.6801 17.2901L10.9701 14.3301C10.8801 14.1701 10.7201 14.0801 10.5401 14.0801Z" fill="#171717"/>
<path d="M22.2401 11.7402C22.3301 11.9002 22.3301 12.1002 22.2401 12.2602L17.3102 20.7902C17.2402 20.9202 17.1002 21.0002 16.9502 21.0002C16.6302 21.0002 16.4302 20.6502 16.5902 20.3802L19.8802 14.6802C19.9702 14.5202 19.9702 14.3202 19.8802 14.1602L15.4802 6.54024C15.3902 6.38024 15.2202 6.28024 15.0302 6.28024H6.22016C6.03016 6.28024 5.87014 6.38024 5.77014 6.54024L2.50016 12.2202C2.33016 12.5202 1.90016 12.5202 1.72016 12.2202C1.64016 12.0802 1.64016 11.9102 1.72016 11.7702L6.64017 3.25024C6.72017 3.09024 6.90015 2.99023 7.09015 2.99023H16.8802C17.0702 2.99023 17.2301 3.09024 17.3301 3.25024L22.2401 11.7402Z" fill="#171717"/>
<path d="M18.09 14.6801L14.59 20.7401C14.5 20.9001 14.33 21.0001 14.14 21.0001H13.54C13.14 21.0001 12.89 20.5701 13.09 20.2201L14.49 17.8001C14.58 17.6401 14.58 17.4401 14.49 17.2801L11.89 12.7801C11.79 12.6201 11.61 12.5201 11.42 12.5201H6.22003C6.03003 12.5201 5.87001 12.6201 5.77001 12.7801L4.37002 15.2001C4.17002 15.5501 3.67003 15.5501 3.47003 15.2001L3.17004 14.6901C3.08004 14.5301 3.08004 14.3301 3.17004 14.1701L6.66003 8.1101C6.75003 7.9501 6.92001 7.8501 7.11001 7.8501H14.1C14.29 7.8501 14.45 7.9501 14.55 8.1101L18.05 14.1701C18.17 14.3201 18.17 14.5301 18.09 14.6801Z" fill="#171717"/>
</svg>
