<svg width="24" height="24" viewBox="0 0 24 24" fill="none" xmlns="http://www.w3.org/2000/svg">
<path d="M19.0002 7C19.0002 7.18 18.9902 7.34999 18.9702 7.51999C18.8502 8.96999 18.2102 10.28 17.2402 11.24C16.1602 12.33 14.6602 13 13.0002 13H9.87021C9.37021 13 8.95022 13.37 8.88022 13.86L8.12021 19.14C8.06021 19.53 7.78022 19.85 7.41022 19.95C7.32022 19.99 7.23022 20 7.13022 20H5.1802C4.5602 20 4.09021 19.45 4.19021 18.84L6.5802 4.51001C6.8202 3.06001 8.07022 2 9.54022 2H14.0002C16.7602 2 19.0002 4.24 19.0002 7Z" fill="#171717"/>
<path d="M20.9997 10.9999C20.9997 12.3799 20.4397 13.6299 19.5397 14.5399C18.6297 15.4399 17.3797 15.9999 15.9997 15.9999H13.8497C13.3597 15.9999 12.9397 16.3499 12.8597 16.8399L12.1398 21.1599C12.0598 21.6499 11.6397 21.9999 11.1497 21.9999H8.21974C8.03974 21.9999 7.87973 21.9599 7.73973 21.8799C7.51973 21.7599 7.65973 21.4699 7.89973 21.3699C8.79973 21.0799 9.45975 20.3099 9.59975 19.3499L10.2397 14.9299C10.2797 14.6799 10.4898 14.4999 10.7298 14.4999H12.9997C15.0097 14.4999 16.8997 13.7199 18.2997 12.3099C19.1297 11.4899 19.7497 10.4799 20.1097 9.38992C20.1897 9.13992 20.5197 9.08991 20.6297 9.31991C20.8697 9.83991 20.9997 10.3999 20.9997 10.9999Z" fill="#171717"/>
</svg>
