<svg width="24" height="24" viewBox="0 0 24 24" fill="none" xmlns="http://www.w3.org/2000/svg">
<path d="M10.4499 3.05006L6.71991 7.71006C5.86991 8.77006 6.16991 10.1301 7.37991 10.7301L11.1099 12.6001C11.5999 12.8401 12.3999 12.8401 12.8899 12.6001L16.6199 10.7301C17.8299 10.1201 18.1299 8.76006 17.2799 7.71006L13.5499 3.05006C12.6999 1.98006 11.2999 1.98006 10.4499 3.05006Z" stroke="#171717" stroke-width="1.5" stroke-miterlimit="10" stroke-linecap="round" stroke-linejoin="round"/>
<path d="M12 2.30005V7.56005" stroke="#171717" stroke-width="1.5" stroke-miterlimit="10" stroke-linecap="round" stroke-linejoin="round"/>
<path d="M7.7998 10.7101L11.9998 7.56006L16.1998 10.7101" stroke="#171717" stroke-width="1.5" stroke-miterlimit="10" stroke-linecap="round" stroke-linejoin="round"/>
<path opacity="0.4" d="M8.77011 14.4299L10.3801 15.1499C11.4101 15.6099 12.5901 15.6099 13.6301 15.1499L15.2401 14.4299C16.6801 13.7899 18.0101 15.5299 17.0101 16.7499L13.5501 20.9799C12.7001 22.0199 11.3101 22.0199 10.4501 20.9799L7.00011 16.7499C5.99011 15.5299 7.32011 13.7899 8.77011 14.4299Z" stroke="#171717" stroke-width="1.5" stroke-miterlimit="10" stroke-linecap="round" stroke-linejoin="round"/>
</svg>
