<svg width="24" height="24" viewBox="0 0 24 24" fill="none" xmlns="http://www.w3.org/2000/svg">
<path d="M19.0001 9.9V16.8C19.0001 17.6 18.6001 18.3 17.9001 18.6L11.4001 21.7C10.9001 21.9 10.2001 21.9 9.7001 21.7L3.2001 18.6C2.5001 18.3 2.1001 17.6 2.1001 16.8V9.3C2.1001 8.5 2.5001 7.8 3.2001 7.5L9.7001 4.4C10.2001 4.2 10.9001 4.2 11.4001 4.4L14.0001 5.7C14.0001 5.8 14.0001 5.9 14.0001 6C14.0001 8.2 15.8001 10 18.0001 10C18.4001 10 18.7001 10 19.0001 9.9Z" stroke="#171717" stroke-width="1.5" stroke-miterlimit="10" stroke-linejoin="round"/>
<path d="M7 10.5V13.5C7 14.6 7.9 15.5 9 15.5C10.1 15.5 11 14.6 11 13.5V10.5" stroke="#171717" stroke-width="1.5" stroke-miterlimit="10" stroke-linecap="round"/>
<path d="M14 10.5V15.4" stroke="#171717" stroke-width="1.5" stroke-miterlimit="10" stroke-linecap="round"/>
<path d="M22 6C22 7.9 20.7 9.4 19 9.9C18.7 10 18.4 10 18 10C15.8 10 14 8.2 14 6C14 5.9 14 5.8 14 5.7C14.2 3.7 15.9 2 18 2C20.2 2 22 3.8 22 6Z" stroke="#171717" stroke-width="1.5" stroke-miterlimit="10"/>
<path d="M19.0999 5.8998C19.2999 5.6998 19.4999 5.3998 19.4999 5.0998C19.4999 4.2998 18.8999 3.7998 17.9999 3.7998C17.0999 3.7998 16.4999 4.2998 16.4999 5.0998C16.4999 5.3998 16.5999 5.6998 16.8999 5.8998C16.5999 6.0998 16.3999 6.4998 16.3999 6.8998C16.3999 7.6998 16.9999 8.1998 17.9999 8.1998C18.9999 8.1998 19.5999 7.6998 19.5999 6.8998C19.5999 6.4998 19.3999 6.0998 19.0999 5.8998ZM17.9999 5.4998C17.6999 5.4998 17.5999 5.3998 17.5999 5.0998C17.5999 4.7998 17.7999 4.6998 17.9999 4.6998C18.1999 4.6998 18.3999 4.7998 18.3999 5.0998C18.3999 5.3998 18.2999 5.4998 17.9999 5.4998ZM17.9999 6.2998C18.2999 6.2998 18.5999 6.3998 18.5999 6.7998C18.5999 7.0998 18.3999 7.2998 17.9999 7.2998C17.5999 7.2998 17.3999 7.0998 17.3999 6.7998C17.3999 6.3998 17.8999 6.2998 17.9999 6.2998Z" fill="#171717"/>
</svg>
