<svg width="24" height="24" viewBox="0 0 24 24" fill="none" xmlns="http://www.w3.org/2000/svg">
<path d="M16.5 11.25H7.5C7.09 11.25 6.75 10.91 6.75 10.5C6.75 10.09 7.09 9.75 7.5 9.75H16.5C16.91 9.75 17.25 10.09 17.25 10.5C17.25 10.91 16.91 11.25 16.5 11.25Z" fill="#171717"/>
<path d="M11.8198 11.2498C11.5798 11.2498 11.3498 11.1398 11.2098 10.9298L8.38981 6.9298C8.14981 6.5898 8.2298 6.11981 8.5698 5.88981C8.9098 5.64981 9.37978 5.72981 9.60978 6.06981L12.4298 10.0698C12.6698 10.4098 12.5898 10.8798 12.2498 11.1098C12.1198 11.2098 11.9698 11.2498 11.8198 11.2498Z" fill="#171717"/>
<path d="M11.9998 11.2498C11.8498 11.2498 11.6998 11.2098 11.5698 11.1098C11.2298 10.8698 11.1498 10.3998 11.3898 10.0698L14.2098 6.06981C14.4498 5.72981 14.9198 5.64981 15.2498 5.88981C15.5898 6.12981 15.6698 6.5998 15.4298 6.9298L12.6098 10.9298C12.4698 11.1398 12.2298 11.2498 11.9998 11.2498Z" fill="#171717"/>
<path d="M16.5 14.25H7.5C7.09 14.25 6.75 13.91 6.75 13.5C6.75 13.09 7.09 12.75 7.5 12.75H16.5C16.91 12.75 17.25 13.09 17.25 13.5C17.25 13.91 16.91 14.25 16.5 14.25Z" fill="#171717"/>
<path d="M8.9998 18.2498C8.8498 18.2498 8.6998 18.2098 8.5698 18.1098C8.2298 17.8698 8.14981 17.3998 8.38981 17.0698L11.2098 13.0698C11.4498 12.7298 11.9198 12.6498 12.2498 12.8898C12.5898 13.1298 12.6698 13.5998 12.4298 13.9298L9.60978 17.9298C9.46978 18.1398 9.2298 18.2498 8.9998 18.2498Z" fill="#171717"/>
<path d="M14.8198 18.2498C14.5798 18.2498 14.3498 18.1398 14.2098 17.9298L11.3898 13.9298C11.1498 13.5898 11.2298 13.1198 11.5698 12.8898C11.9098 12.6498 12.3798 12.7298 12.6098 13.0698L15.4298 17.0698C15.6698 17.4098 15.5898 17.8798 15.2498 18.1098C15.1198 18.2098 14.9698 18.2498 14.8198 18.2498Z" fill="#171717"/>
<path d="M12 22.75C6.07 22.75 1.25 17.93 1.25 12C1.25 6.07 6.07 1.25 12 1.25C17.93 1.25 22.75 6.07 22.75 12C22.75 17.93 17.93 22.75 12 22.75ZM12 2.75C6.9 2.75 2.75 6.9 2.75 12C2.75 17.1 6.9 21.25 12 21.25C17.1 21.25 21.25 17.1 21.25 12C21.25 6.9 17.1 2.75 12 2.75Z" fill="#171717"/>
</svg>
