<svg width="24" height="24" viewBox="0 0 24 24" fill="none" xmlns="http://www.w3.org/2000/svg">
<path d="M11.3102 13.9399C13.1769 13.9399 14.6902 12.4267 14.6902 10.5599C14.6902 8.69321 13.1769 7.17993 11.3102 7.17993C9.44346 7.17993 7.93018 8.69321 7.93018 10.5599C7.93018 12.4267 9.44346 13.9399 11.3102 13.9399Z" stroke="#171717" stroke-width="1.5" stroke-miterlimit="10"/>
<path d="M15.0601 14.8101L12.0601 17.8101" stroke="#171717" stroke-width="1.5" stroke-miterlimit="10" stroke-linecap="round" stroke-linejoin="round"/>
<path d="M4 6C2.75 7.67 2 9.75 2 12C2 17.52 6.48 22 12 22C17.52 22 22 17.52 22 12C22 6.48 17.52 2 12 2C10.57 2 9.2 2.3 7.97 2.85" stroke="#171717" stroke-width="1.5" stroke-linecap="round" stroke-linejoin="round"/>
</svg>
