<svg width="24" height="24" viewBox="0 0 24 24" fill="none" xmlns="http://www.w3.org/2000/svg">
<path opacity="0.4" d="M7.55957 7.56008V3.89009C7.55957 3.06009 8.16958 2.37007 8.97958 2.24007C10.9796 1.93007 13.0196 1.93007 15.0196 2.24007C15.8396 2.37007 16.4396 3.07009 16.4396 3.89009V9.78008C16.4396 11.0101 15.4496 12.0001 14.2196 12.0001H9.77957C8.54957 12.0001 7.55957 12.9901 7.55957 14.2201V20.1101C7.55957 20.9401 8.16958 21.6301 8.97958 21.7601C10.9796 22.0701 13.0196 22.0701 15.0196 21.7601C15.8396 21.6301 16.4396 20.9301 16.4396 20.1101V16.4401" stroke="#171717" stroke-width="1.5" stroke-linecap="round" stroke-linejoin="round"/>
<path d="M16.44 7.56006H20.11C20.94 7.56006 21.63 8.17007 21.76 8.98007C22.07 10.9801 22.07 13.0201 21.76 15.0201C21.63 15.8401 20.93 16.4401 20.11 16.4401H12" stroke="#171717" stroke-width="1.5" stroke-linecap="round" stroke-linejoin="round"/>
<path d="M11.9996 7.56006H3.87956C3.04956 7.56006 2.35957 8.17007 2.22957 8.98007C1.91957 10.9801 1.91957 13.0201 2.22957 15.0201C2.35957 15.8401 3.05956 16.4401 3.87956 16.4401H7.54955" stroke="#171717" stroke-width="1.5" stroke-linecap="round" stroke-linejoin="round"/>
<path opacity="0.4" d="M10 4.8501V4.8501" stroke="#171717" stroke-width="1.5" stroke-linecap="round" stroke-linejoin="round"/>
<path opacity="0.4" d="M14 19.1499V19.1499" stroke="#171717" stroke-width="1.5" stroke-linecap="round" stroke-linejoin="round"/>
</svg>
