<svg width="24" height="24" viewBox="0 0 24 24" fill="none" xmlns="http://www.w3.org/2000/svg">
<path d="M14.5001 2.2998C13.5001 2.2998 12.6001 3.0998 12.6001 4.1998V8.7998C12.6001 9.7998 13.4001 10.6998 14.5001 10.6998C15.5001 10.6998 16.4001 9.8998 16.4001 8.7998V4.0998C16.4001 3.0998 15.6001 2.2998 14.5001 2.2998Z" stroke="#171717" stroke-width="1.5" stroke-miterlimit="10" stroke-linecap="round" stroke-linejoin="round"/>
<path d="M18.6001 10.5999H20.2001C21.1001 10.5999 21.8001 9.8999 21.8001 8.9999C21.8001 8.0999 21.1001 7.3999 20.2001 7.3999C19.3001 7.3999 18.6001 8.0999 18.6001 8.9999V10.5999Z" stroke="#171717" stroke-width="1.5" stroke-miterlimit="10" stroke-linecap="round" stroke-linejoin="round"/>
<path d="M2 9.1998C2 10.1998 2.8 11.0998 3.9 11.0998H8.5C9.5 11.0998 10.4 10.2998 10.4 9.1998C10.4 8.1998 9.6 7.2998 8.5 7.2998H3.9C2.8 7.3998 2 8.1998 2 9.1998Z" stroke="#171717" stroke-width="1.5" stroke-miterlimit="10" stroke-linecap="round" stroke-linejoin="round"/>
<path d="M10.4002 5.1V3.6C10.4002 2.7 9.7002 2 8.8002 2C7.9002 2 7.2002 2.7 7.2002 3.6C7.2002 4.5 7.9002 5.2 8.8002 5.2H10.4002V5.1Z" stroke="#171717" stroke-width="1.5" stroke-miterlimit="10" stroke-linecap="round" stroke-linejoin="round"/>
<path d="M9.4 21.7999C10.4 21.7999 11.3 20.9999 11.3 19.8999V15.2999C11.3 14.2999 10.5 13.3999 9.4 13.3999C8.4 13.3999 7.5 14.1999 7.5 15.2999V19.8999C7.6 20.8999 8.4 21.7999 9.4 21.7999Z" stroke="#171717" stroke-width="1.5" stroke-miterlimit="10" stroke-linecap="round" stroke-linejoin="round"/>
<path d="M5.4002 13.3999H3.8002C2.9002 13.3999 2.2002 14.0999 2.2002 14.9999C2.2002 15.8999 2.9002 16.5999 3.8002 16.5999C4.7002 16.5999 5.4002 15.8999 5.4002 14.9999V13.3999Z" stroke="#171717" stroke-width="1.5" stroke-miterlimit="10" stroke-linecap="round" stroke-linejoin="round"/>
<path d="M22.0001 14.7999C22.0001 13.7999 21.2001 12.8999 20.1001 12.8999H15.5001C14.5001 12.8999 13.6001 13.6999 13.6001 14.7999C13.6001 15.7999 14.4001 16.6999 15.5001 16.6999H20.1001C21.1001 16.6999 22.0001 15.7999 22.0001 14.7999Z" stroke="#171717" stroke-width="1.5" stroke-miterlimit="10" stroke-linecap="round" stroke-linejoin="round"/>
<path d="M13.6001 18.7998V20.3998C13.6001 21.2998 14.3001 21.9998 15.2001 21.9998C16.1001 21.9998 16.8001 21.2998 16.8001 20.3998C16.8001 19.4998 16.1001 18.7998 15.2001 18.7998H13.6001Z" stroke="#171717" stroke-width="1.5" stroke-miterlimit="10" stroke-linecap="round" stroke-linejoin="round"/>
</svg>
