<svg width="24" height="24" viewBox="0 0 24 24" fill="none" xmlns="http://www.w3.org/2000/svg">
<path d="M11.3999 2.35002L6.25986 7.50002C6.05986 7.70002 6.05986 8.01002 6.25986 8.21002L7.98986 9.94002C8.18986 10.14 8.49986 10.14 8.69986 9.94002L13.8499 4.79002C14.0499 4.59002 14.0499 4.28002 13.8499 4.08002L12.1199 2.35002C11.9099 2.16002 11.5999 2.16002 11.3999 2.35002Z" fill="#171717"/>
<path opacity="0.4" d="M15.2999 6.25992L6.25986 15.2999C6.05986 15.4999 6.05986 15.8099 6.25986 16.0099L7.98986 17.7399C8.18986 17.9399 8.49986 17.9399 8.69986 17.7399L17.7499 8.68992C17.9499 8.48992 17.9499 8.17992 17.7499 7.97992L16.0199 6.24992C15.8199 6.05992 15.4999 6.05992 15.2999 6.25992Z" fill="#171717"/>
<path d="M19.2098 10.16L10.1598 19.21C9.95977 19.41 9.95977 19.72 10.1598 19.92L11.8898 21.65C12.0898 21.85 12.3998 21.85 12.5998 21.65L21.6498 12.6C21.8498 12.4 21.8498 12.09 21.6498 11.89L19.9198 10.16C19.7198 9.96001 19.3998 9.96001 19.2098 10.16Z" fill="#171717"/>
<path opacity="0.4" d="M4.08996 13.84L2.35996 12.11C2.15996 11.91 2.15996 11.6 2.35996 11.4L4.08996 9.67002C4.28996 9.47002 4.59996 9.47002 4.79996 9.67002L6.52996 11.4C6.72996 11.6 6.72996 11.91 6.52996 12.11L4.79996 13.84C4.59996 14.04 4.27996 14.04 4.08996 13.84Z" fill="#171717"/>
</svg>
