<svg width="24" height="24" viewBox="0 0 24 24" fill="none" xmlns="http://www.w3.org/2000/svg">
<path opacity="0.4" d="M12 22C17.5228 22 22 17.5228 22 12C22 6.47715 17.5228 2 12 2C6.47715 2 2 6.47715 2 12C2 17.5228 6.47715 22 12 22Z" fill="#171717"/>
<path d="M12.7799 6.35986C13.4399 6.35986 13.9199 6.97986 13.7499 7.61986L11.9599 14.2999H14.9899C15.6099 14.2999 16.0899 14.8599 15.9699 15.4799L15.8199 16.3199C15.7299 16.7999 15.3199 17.1399 14.8399 17.1399H9.29989C8.63989 17.1399 8.15989 16.4999 8.33989 15.8699L10.9499 6.72986C11.0099 6.51986 11.2099 6.36986 11.4299 6.36986H12.7799V6.35986Z" fill="#171717"/>
<path d="M7.31965 13.27C6.96965 13.27 6.65964 13.02 6.58964 12.67C6.50964 12.26 6.76964 11.87 7.17964 11.79L14.8796 10.25C15.2796 10.17 15.6797 10.43 15.7597 10.84C15.8397 11.25 15.5797 11.64 15.1697 11.72L7.46964 13.26C7.41964 13.27 7.36965 13.27 7.31965 13.27Z" fill="#171717"/>
</svg>
