<svg width="24" height="24" viewBox="0 0 24 24" fill="none" xmlns="http://www.w3.org/2000/svg">
<path d="M16.98 8.09006L16.81 8.52006L12.09 21.7501H11.91L7.18002 8.50006L7.02002 8.10006C7.08002 7.95006 7.16002 7.81006 7.24002 7.71006L10.85 3.38006C11.48 2.62006 12.52 2.62006 13.15 3.38006L16.76 7.71006C16.84 7.80006 16.92 7.95006 16.98 8.09006Z" fill="#171717"/>
<path opacity="0.4" d="M11.9101 21.7501C11.6701 21.7401 11.4401 21.6801 11.2601 21.5701L5.94009 18.5401C5.42009 18.2401 5.10009 17.5201 5.21009 16.9401L6.93009 8.3701C6.95009 8.2901 6.98009 8.2001 7.02009 8.1001L7.18009 8.5001L11.9101 21.7501Z" fill="#171717"/>
<path opacity="0.4" d="M18.0601 18.5398L12.7401 21.5698C12.5601 21.6798 12.3301 21.7398 12.0901 21.7498L16.8101 8.51984L16.9801 8.08984C17.0201 8.18984 17.0501 8.28984 17.0701 8.36984L18.7901 16.9398C18.9001 17.5198 18.5801 18.2398 18.0601 18.5398Z" fill="#171717"/>
</svg>
