<svg width="24" height="24" viewBox="0 0 24 24" fill="none" xmlns="http://www.w3.org/2000/svg">
<path d="M11.3999 2.4L6.2999 7.5C6.0999 7.7 6.0999 8 6.2999 8.2L7.9999 9.9C8.1999 10.1 8.4999 10.1 8.6999 9.9L13.7999 4.8C13.9999 4.6 13.9999 4.3 13.7999 4.1L12.0999 2.4C11.8999 2.2 11.5999 2.2 11.3999 2.4Z" stroke="#171717" stroke-width="1.5" stroke-miterlimit="10" stroke-linecap="round" stroke-linejoin="round"/>
<path d="M15.2999 6.2999L6.2999 15.2999C6.0999 15.4999 6.0999 15.7999 6.2999 15.9999L7.9999 17.6999C8.1999 17.8999 8.4999 17.8999 8.6999 17.6999L17.6999 8.6999C17.8999 8.4999 17.8999 8.1999 17.6999 7.9999L15.9999 6.2999C15.7999 6.0999 15.4999 6.0999 15.2999 6.2999Z" stroke="#171717" stroke-width="1.5" stroke-miterlimit="10" stroke-linecap="round" stroke-linejoin="round"/>
<path d="M19.2 10.1998L10.2 19.1998C10 19.3998 10 19.6998 10.2 19.8998L11.9 21.5998C12.1 21.7998 12.4 21.7998 12.6 21.5998L21.6 12.5998C21.8 12.3998 21.8 12.0998 21.6 11.8998L19.9 10.1998C19.7 9.9998 19.4 9.9998 19.2 10.1998Z" stroke="#171717" stroke-width="1.5" stroke-miterlimit="10" stroke-linecap="round" stroke-linejoin="round"/>
<path d="M4.1 13.7998L2.4 12.0998C2.2 11.8998 2.2 11.5998 2.4 11.3998L4.1 9.6998C4.3 9.4998 4.6 9.4998 4.8 9.6998L6.5 11.3998C6.7 11.5998 6.7 11.8998 6.5 12.0998L4.8 13.7998C4.6 13.9998 4.3 13.9998 4.1 13.7998Z" stroke="#171717" stroke-width="1.5" stroke-miterlimit="10" stroke-linecap="round" stroke-linejoin="round"/>
</svg>
