<svg width="24" height="24" viewBox="0 0 24 24" fill="none" xmlns="http://www.w3.org/2000/svg">
<path d="M12.6404 8.46997C13.4404 8.67997 14.0903 9.32997 14.2903 10.13C14.5703 11.23 14.0804 12.25 13.2404 12.77V14.75C13.2404 15.44 12.6804 16 11.9904 16C11.3004 16 10.7404 15.44 10.7404 14.75V12.77C10.0604 12.35 9.61035 11.6 9.61035 10.75" stroke="#171717" stroke-width="1.5" stroke-miterlimit="10" stroke-linecap="round" stroke-linejoin="round"/>
<path d="M21.55 9.03C20.28 4.96 16.49 2 12 2C7.89 2 4.36001 4.48 2.82001 8.02C2.29001 9.24 2 10.58 2 12C2 17.52 6.48 22 12 22C16.47 22 20.26 19.06 21.54 15.01" stroke="#171717" stroke-width="1.5" stroke-miterlimit="10" stroke-linecap="round" stroke-linejoin="round"/>
</svg>
