<svg width="24" height="24" viewBox="0 0 24 24" fill="none" xmlns="http://www.w3.org/2000/svg">
<path d="M11.2999 14.0002C13.1777 14.0002 14.6999 12.478 14.6999 10.6002C14.6999 8.72243 13.1777 7.2002 11.2999 7.2002C9.42213 7.2002 7.8999 8.72243 7.8999 10.6002C7.8999 12.478 9.42213 14.0002 11.2999 14.0002Z" stroke="#171717" stroke-width="1.5" stroke-miterlimit="10"/>
<path d="M15.1001 14.7998L12.1001 17.7998" stroke="#171717" stroke-width="1.5" stroke-miterlimit="10" stroke-linecap="round" stroke-linejoin="round"/>
<path d="M12 22C17.5228 22 22 17.5228 22 12C22 6.47715 17.5228 2 12 2C6.47715 2 2 6.47715 2 12C2 17.5228 6.47715 22 12 22Z" stroke="#171717" stroke-width="1.5" stroke-miterlimit="10" stroke-linecap="round" stroke-linejoin="round"/>
<path d="M16.5 7.3125V7.3125" stroke="#171717" stroke-width="1.5" stroke-linecap="round" stroke-linejoin="round"/>
</svg>
