<svg width="24" height="24" viewBox="0 0 24 24" fill="none" xmlns="http://www.w3.org/2000/svg">
<path d="M16.98 8.09006L16.81 8.52006L12.09 21.7501H11.91L7.18002 8.50006L7.02002 8.10006C7.08002 7.95006 7.16002 7.81006 7.24002 7.71006L10.85 3.38006C11.48 2.62006 12.52 2.62006 13.15 3.38006L16.76 7.71006C16.84 7.80006 16.92 7.95006 16.98 8.09006Z" fill="#171717"/>
<path opacity="0.4" d="M11.9101 21.7501C11.6701 21.7401 11.4401 21.6801 11.2601 21.5701L5.94009 18.5401C5.42009 18.2401 5.10009 17.5201 5.21009 16.9401L6.93009 8.3701C6.95009 8.2901 6.98009 8.2001 7.02009 8.1001L7.18009 8.5001L11.9101 21.7501Z" fill="#171717"/>
<path opacity="0.4" d="M18.0598 18.5401L12.7398 21.5701C12.5598 21.6801 12.3298 21.7401 12.0898 21.7501L16.8098 8.52009L16.9798 8.09009C17.0198 8.19009 17.0498 8.29009 17.0698 8.37009L18.7898 16.9401C18.8998 17.5201 18.5798 18.2401 18.0598 18.5401Z" fill="#171717"/>
</svg>
