<svg width="24" height="24" viewBox="0 0 24 24" fill="none" xmlns="http://www.w3.org/2000/svg">
<path opacity="0.4" d="M7.56006 7.56008V3.89009C7.56006 3.06009 8.17007 2.37007 8.98007 2.24007C10.9801 1.93007 13.0201 1.93007 15.0201 2.24007C15.8401 2.37007 16.4401 3.07009 16.4401 3.89009V9.78008C16.4401 11.0101 15.4501 12.0001 14.2201 12.0001H9.78006C8.55006 12.0001 7.56006 12.9901 7.56006 14.2201V20.1101C7.56006 20.9401 8.17007 21.6301 8.98007 21.7601C10.9801 22.0701 13.0201 22.0701 15.0201 21.7601C15.8401 21.6301 16.4401 20.9301 16.4401 20.1101V16.4401" stroke="#171717" stroke-width="1.5" stroke-linecap="round" stroke-linejoin="round"/>
<path d="M16.44 7.56006H20.11C20.94 7.56006 21.63 8.17007 21.76 8.98007C22.07 10.9801 22.07 13.0201 21.76 15.0201C21.63 15.8401 20.93 16.4401 20.11 16.4401H12" stroke="#171717" stroke-width="1.5" stroke-linecap="round" stroke-linejoin="round"/>
<path d="M12 7.56006H3.88005C3.05005 7.56006 2.36006 8.17007 2.23006 8.98007C1.92006 10.9801 1.92006 13.0201 2.23006 15.0201C2.36006 15.8401 3.06005 16.4401 3.88005 16.4401H7.55004" stroke="#171717" stroke-width="1.5" stroke-linecap="round" stroke-linejoin="round"/>
<path opacity="0.4" d="M10 4.8501V4.8501" stroke="#171717" stroke-width="1.5" stroke-linecap="round" stroke-linejoin="round"/>
<path opacity="0.4" d="M14 19.1499V19.1499" stroke="#171717" stroke-width="1.5" stroke-linecap="round" stroke-linejoin="round"/>
</svg>
