<svg width="24" height="24" viewBox="0 0 24 24" fill="none" xmlns="http://www.w3.org/2000/svg">
<path d="M5.94062 16.77L4.28065 19.59C4.16065 19.8 3.85059 19.8 3.72059 19.59L2.03065 16.77C1.90065 16.55 2.06062 16.28 2.31062 16.28H5.66059C5.91059 16.28 6.06062 16.56 5.94062 16.77Z" fill="#171717"/>
<path d="M11.6904 8.40991L7.7404 14.8799C7.6504 15.0299 7.49041 15.1099 7.32041 15.1099H2.25041C1.87041 15.1099 1.63041 14.7099 1.82041 14.3899L8.28043 3.72992C8.47043 3.41992 8.94041 3.40992 9.13041 3.72992L11.6904 7.93991C11.7804 8.07991 11.7804 8.25991 11.6904 8.40991Z" fill="#171717"/>
<path d="M13.72 14.4899H10.24C10.04 14.4899 9.91006 14.2699 10.0101 14.0899L11.7501 11.14C11.8501 10.97 12.1001 10.97 12.2001 11.14L13.9401 14.0899C14.0501 14.2699 13.92 14.4899 13.72 14.4899Z" fill="#171717"/>
<path d="M13.6604 3.39999L12.2105 5.87C12.1105 6.04 11.8504 6.04 11.7504 5.87L10.3004 3.39999C10.2004 3.21999 10.3205 3 10.5305 3H13.4304C13.6404 3 13.7604 3.21999 13.6604 3.39999Z" fill="#171717"/>
<path d="M22.1705 14.3699C22.3705 14.6999 22.1205 15.1199 21.7405 15.1199H16.8705C16.7005 15.1199 16.5505 15.0299 16.4605 14.8899L12.6505 8.41992C12.5605 8.26992 12.5605 8.08991 12.6505 7.93991L15.1205 3.72992C15.3005 3.41992 15.7605 3.40992 15.9405 3.72992C17.1605 5.83992 20.8905 12.1799 22.1705 14.3699Z" fill="#171717"/>
<path d="M21.9307 16.77C21.3807 17.7 20.7907 18.7 20.2507 19.61C20.1207 19.83 19.8107 19.82 19.6807 19.6L18.0207 16.77C17.8907 16.55 18.0507 16.27 18.3107 16.27H21.6407C21.9007 16.28 22.0607 16.55 21.9307 16.77Z" fill="#171717"/>
<path d="M18.0207 20.9999H5.94068C5.58068 20.9999 5.36065 20.6099 5.54065 20.2999L7.87067 16.3399C7.95067 16.1999 8.10069 16.1099 8.27069 16.1099H15.6907C15.8507 16.1099 16.0107 16.1999 16.0907 16.3399L18.4207 20.2999C18.6007 20.6099 18.3807 20.9999 18.0207 20.9999Z" fill="#171717"/>
</svg>
