<svg width="24" height="24" viewBox="0 0 24 24" fill="none" xmlns="http://www.w3.org/2000/svg">
<path d="M5 11.6999V15.9699C5 16.6199 5.31003 17.2199 5.84003 17.5999L10.84 21.1699C11.54 21.6699 12.47 21.6699 13.16 21.1699L18.16 17.5999C18.69 17.2199 19 16.6199 19 15.9699V7.15987C19 6.43987 18.62 5.77986 17.99 5.41986L12.99 2.55986C12.38 2.20986 11.62 2.20986 11.01 2.55986L6.01001 5.41986C5.39001 5.77986 5 6.43987 5 7.15987" stroke="#171717" stroke-width="1.5" stroke-miterlimit="10" stroke-linecap="round" stroke-linejoin="round"/>
<path d="M12 3L10 12L11.85 21.23" stroke="#171717" stroke-width="1.5" stroke-miterlimit="10" stroke-linecap="round" stroke-linejoin="round"/>
<path d="M18.16 16.9098L10 11.9998L18.54 7.25977" stroke="#171717" stroke-width="1.5" stroke-miterlimit="10" stroke-linecap="round" stroke-linejoin="round"/>
</svg>
