<svg width="24" height="24" viewBox="0 0 24 24" fill="none" xmlns="http://www.w3.org/2000/svg">
<path opacity="0.4" d="M17.5002 11.4901C17.3902 11.5801 17.2802 11.6501 17.1502 11.7101L16.0602 12.2601L12.9902 13.7901C12.4402 14.0701 11.5502 14.0701 11.0102 13.7901L7.94015 12.2601L6.85015 11.7101C6.73015 11.6401 6.62015 11.5801 6.50015 11.4901C5.44015 10.7501 5.25015 9.40011 6.10015 8.33011L10.2702 3.13011C10.5302 2.81011 10.8402 2.57011 11.1602 2.43011C11.7002 2.17011 12.3002 2.17011 12.8302 2.43011C13.1502 2.57011 13.4702 2.81011 13.7202 3.13011L17.8902 8.33011C18.7502 9.41011 18.5602 10.7601 17.5002 11.4901Z" fill="#171717"/>
<path d="M17.5 11.4901C17.39 11.5801 17.28 11.6501 17.15 11.7101L16.06 12.2601L12 9.21012L7.94 12.2701L6.85 11.7201C6.73 11.6501 6.62 11.5901 6.5 11.5001C6.54 11.3101 6.64 11.1401 6.81 11.0201L11.16 7.75012V2.44012C11.7 2.18012 12.3 2.18012 12.83 2.44012V7.75012L17.18 11.0201C17.35 11.1401 17.45 11.3001 17.5 11.4901Z" fill="#171717"/>
<path d="M8.77011 14.4299L10.3801 15.1499C11.4101 15.6099 12.5901 15.6099 13.6301 15.1499L15.2401 14.4299C16.6801 13.7899 18.0101 15.5299 17.0101 16.7499L13.5501 20.9799C12.7001 22.0199 11.3101 22.0199 10.4501 20.9799L7.00011 16.7499C5.99011 15.5299 7.32011 13.7899 8.77011 14.4299Z" fill="#171717"/>
</svg>
