<svg width="24" height="24" viewBox="0 0 24 24" fill="none" xmlns="http://www.w3.org/2000/svg">
<path d="M10.7998 3.3998L7.19982 7.6998C7.09982 7.8998 6.99982 8.1998 6.89982 8.3998L5.19982 16.9998C5.09982 17.5998 5.39982 18.2998 5.89982 18.5998L11.1998 21.5998C11.5998 21.7998 12.2998 21.7998 12.6998 21.5998L17.9998 18.5998C18.4998 18.2998 18.7998 17.5998 18.6998 16.9998L16.9998 8.3998C16.9998 8.1998 16.7998 7.8998 16.6998 7.6998L13.0998 3.3998C12.4998 2.5998 11.4998 2.5998 10.7998 3.3998Z" stroke="#171717" stroke-width="1.5" stroke-miterlimit="10" stroke-linecap="round" stroke-linejoin="round"/>
<path d="M16.8002 8.5L12.5002 20.7C12.3002 21.1 11.7002 21.1 11.6002 20.7L7.2002 8.5" stroke="#171717" stroke-width="1.5" stroke-miterlimit="10" stroke-linecap="round" stroke-linejoin="round"/>
</svg>
