<svg width="24" height="24" viewBox="0 0 24 24" fill="none" xmlns="http://www.w3.org/2000/svg">
<path opacity="0.4" d="M12 22C17.5228 22 22 17.5228 22 12C22 6.47715 17.5228 2 12 2C6.47715 2 2 6.47715 2 12C2 17.5228 6.47715 22 12 22Z" fill="#171717"/>
<path d="M14.4999 10.7499L14.0899 10.9599H14.0799L9.3999 13.3799L10.4699 10.0399L13.5499 8.6499L14.4999 10.7499Z" fill="#171717"/>
<path d="M13.55 8.65L10.47 10.04L12 5.25L13.55 8.65Z" fill="#171717"/>
<path d="M10.47 10.04L9.39999 13.38L6 12.25L8.17999 11.16L10 10.25L10.47 10.04Z" fill="#171717"/>
<path d="M17.9999 12.25L13.4999 14.75L13.1899 14.65L13.0999 14.62L9.3999 13.38L14.0799 10.96H14.0899L17.9999 12.25Z" fill="#171717"/>
<path d="M13.1899 14.6499L12.9999 15.2499L11.9999 18.2499L9.49991 13.5699L9.3999 13.3799L13.0999 14.6199L13.1899 14.6499Z" fill="#171717"/>
</svg>
