<svg width="24" height="24" viewBox="0 0 24 24" fill="none" xmlns="http://www.w3.org/2000/svg">
<path d="M17.8196 8.70003C18.5296 8.31003 19.3996 8.82004 19.3896 9.63004L19.3496 15.05C19.3396 15.87 18.4496 16.37 17.7496 15.95L13.0696 13.15C12.3696 12.73 12.3896 11.71 13.0996 11.32L17.8196 8.70003Z" fill="#171717"/>
<path d="M19.2495 6.28016C19.3995 6.66016 19.1695 7.05017 18.8095 7.25017L13.1795 10.3602C12.3795 10.8002 11.4396 10.0902 11.6396 9.21017L12.8595 3.68016C13.0095 2.98016 13.7995 2.64017 14.4195 2.99017L18.3396 5.23016C18.7696 5.48016 19.0795 5.85016 19.2495 6.28016Z" fill="#171717"/>
<path d="M12.0096 2.67019L9.93964 11.9702C9.90964 12.1102 9.90964 12.2602 9.93964 12.4102L11.6696 21.0902C11.7896 21.6902 11.2797 22.2602 10.7797 21.8902L5.48962 18.1202C4.92962 17.7202 4.59961 17.0802 4.59961 16.4002V7.09019C4.59961 6.33019 4.99962 5.63019 5.66962 5.25019L10.9597 2.2402C11.1097 2.1502 11.2696 2.09018 11.4296 2.04018C11.8096 1.91018 12.0896 2.29019 12.0096 2.67019Z" fill="#171717"/>
<path d="M17.6299 16.8102C18.2799 17.2002 18.3199 18.1302 17.7099 18.5702L14.2399 21.0902C13.6199 21.5402 12.7299 21.2002 12.5799 20.4402L11.5599 15.2402C11.3799 14.3402 12.3499 13.6602 13.1399 14.1302L17.6299 16.8102Z" fill="#171717"/>
</svg>
