<svg width="24" height="24" viewBox="0 0 24 24" fill="none" xmlns="http://www.w3.org/2000/svg">
<path fill-rule="evenodd" clip-rule="evenodd" d="M15.8797 20.9201C15.9097 21.0801 15.8197 21.2501 15.6697 21.3101C14.5297 21.7601 13.2997 22.0001 12.0097 22.0001C9.80974 22.0001 7.75974 21.2901 6.10974 20.0701C5.96974 19.9701 5.92974 19.7701 6.01974 19.6201C6.56974 18.6401 8.71974 15.4901 13.4697 13.7301C13.6497 13.6601 13.8497 13.7501 13.9097 13.9301C15.1097 17.1201 15.6697 19.8201 15.8797 20.9201Z" fill="#171717"/>
<path fill-rule="evenodd" clip-rule="evenodd" d="M21.8196 13.89C21.3596 16.35 19.9796 18.49 18.0496 19.95C17.8396 20.11 17.5396 19.99 17.4896 19.74C17.2796 18.66 16.7696 16.33 15.7896 13.56C15.7196 13.35 15.8596 13.12 16.0796 13.09C18.5696 12.79 20.7496 13.27 21.5696 13.49C21.7396 13.55 21.8496 13.72 21.8196 13.89Z" fill="#171717"/>
<path opacity="0.4" fill-rule="evenodd" clip-rule="evenodd" d="M21.5902 11.8199C20.5702 11.6399 17.9702 11.2599 15.3102 11.5499C15.1502 11.5699 15.0102 11.4799 14.9402 11.3299C14.9002 11.2399 14.8702 11.1499 14.8302 11.0599C14.6702 10.6899 14.5002 10.3099 14.3302 9.9399C14.2402 9.7599 14.3302 9.5399 14.5102 9.4599C17.3102 8.2499 18.8702 6.6899 19.4802 5.9899C19.6302 5.8199 19.8902 5.8299 20.0302 6.0099C21.1802 7.5399 21.8902 9.4099 22.0002 11.4299C22.0102 11.6799 21.8102 11.8599 21.5902 11.8199Z" fill="#171717"/>
<path fill-rule="evenodd" clip-rule="evenodd" d="M18.4397 4.79C17.9197 5.42 16.4597 6.92 13.6897 8.02C13.5297 8.09 13.3397 8.02 13.2497 7.86C11.9697 5.54 10.6097 3.59 9.97967 2.71C9.82967 2.49 9.94967 2.2 10.2097 2.15C10.7897 2.05 11.3897 2 12.0097 2C14.4297 2 16.6597 2.86 18.3897 4.3C18.5397 4.42 18.5597 4.64 18.4397 4.79Z" fill="#171717"/>
<path fill-rule="evenodd" clip-rule="evenodd" d="M11.0198 8.83992C7.22976 9.78992 3.87976 9.91992 2.65976 9.93992C2.42976 9.93992 2.25976 9.71992 2.31976 9.49992C3.03976 6.69992 4.95976 4.35992 7.48976 3.06992C7.63976 2.98992 7.82976 3.03992 7.92976 3.17992C8.44976 3.89992 9.85976 5.92992 11.2398 8.31992C11.3498 8.51992 11.2498 8.77992 11.0198 8.83992Z" fill="#171717"/>
<path opacity="0.4" fill-rule="evenodd" clip-rule="evenodd" d="M12.92 11.6001C13.01 11.7901 12.9 12.0201 12.7 12.0901C8.27 13.5201 5.62 17.0701 4.82 18.2901C4.69 18.4901 4.41 18.5001 4.26 18.3201C2.85 16.6001 2 14.6301 2 12.2301V12.0501C2 11.8501 2.16 11.6901 2.36 11.7001C3.62 11.7501 7.73 11.5801 12 10.3501C12.16 10.3001 12.34 10.3801 12.41 10.5301C12.59 10.8901 12.76 11.2401 12.92 11.6001Z" fill="#171717"/>
</svg>
