<svg width="24" height="24" viewBox="0 0 24 24" fill="none" xmlns="http://www.w3.org/2000/svg">
<path d="M10.4499 3.05006L6.71991 7.71006C5.86991 8.77006 6.16991 10.1301 7.37991 10.7301L11.1099 12.6001C11.5999 12.8401 12.3999 12.8401 12.8899 12.6001L16.6199 10.7301C17.8299 10.1201 18.1299 8.76006 17.2799 7.71006L13.5499 3.05006C12.6999 1.98006 11.2999 1.98006 10.4499 3.05006Z" stroke="#171717" stroke-width="1.5" stroke-miterlimit="10" stroke-linecap="round" stroke-linejoin="round"/>
<path d="M12 2.2998V7.5598" stroke="#171717" stroke-width="1.5" stroke-miterlimit="10" stroke-linecap="round" stroke-linejoin="round"/>
<path d="M7.80005 10.7101L12 7.56006L16.2 10.7101" stroke="#171717" stroke-width="1.5" stroke-miterlimit="10" stroke-linecap="round" stroke-linejoin="round"/>
<path d="M7.79996 17.7301L6.99996 16.7501C5.99996 15.5301 7.32996 13.7901 8.76996 14.4301L10.38 15.1501C11.41 15.6101 12.59 15.6101 13.63 15.1501L15.24 14.4301C16.68 13.7901 18.01 15.5301 17.01 16.7501L13.55 20.9801C12.7 22.0201 11.31 22.0201 10.45 20.9801" stroke="#171717" stroke-width="1.5" stroke-miterlimit="10" stroke-linecap="round" stroke-linejoin="round"/>
</svg>
