<svg width="24" height="24" viewBox="0 0 24 24" fill="none" xmlns="http://www.w3.org/2000/svg">
<path d="M20.66 8.04004C20.66 8.27004 20.6 8.51004 20.45 8.70004L11.07 20.64C10.73 21.07 10.33 21.22 9.98999 21.1L9.99999 21L11 10L20.04 8.19004L20.66 8.04004Z" fill="#171717"/>
<path opacity="0.4" d="M20.66 8.0398L20.04 8.1898L11 9.9998L16.95 4.0498C17.07 4.0998 17.17 4.1698 17.24 4.2398L20.37 7.3698C20.55 7.5498 20.65 7.7898 20.66 8.0398Z" fill="#171717"/>
<path d="M16.9499 4.05019L10.9999 10.0002L3.00991 2.90019L2.65991 2.56019V2.55019C2.85991 2.29019 3.21991 2.16019 3.69991 2.23019L16.6599 3.96019C16.7499 3.97019 16.8499 4.00019 16.9499 4.05019Z" fill="#171717"/>
<path opacity="0.4" d="M10.9999 10.0001L9.99991 21.0001L9.98991 21.1001C9.73991 21.0101 9.50991 20.7701 9.35991 20.3901L2.63991 3.59006C2.46991 3.17006 2.48991 2.81006 2.65991 2.56006L3.00991 2.90006L10.9999 10.0001Z" fill="#171717"/>
</svg>
