<svg width="24" height="24" viewBox="0 0 24 24" fill="none" xmlns="http://www.w3.org/2000/svg">
<path d="M8.51993 5.15001L11.1899 7.82002C11.6399 8.27002 12.3599 8.27002 12.8099 7.82002L15.4799 5.15001C16.1999 4.43001 15.6899 3.20001 14.6699 3.20001H9.31992C8.30992 3.19001 7.79993 4.43001 8.51993 5.15001Z" stroke="#171717" stroke-width="1.5" stroke-miterlimit="10" stroke-linecap="round" stroke-linejoin="round"/>
<path d="M8.51993 18.85L11.1899 16.18C11.6399 15.73 12.3599 15.73 12.8099 16.18L15.4799 18.85C16.1999 19.57 15.6899 20.8 14.6699 20.8H9.31992C8.30992 20.81 7.79993 19.57 8.51993 18.85Z" stroke="#171717" stroke-width="1.5" stroke-miterlimit="10" stroke-linecap="round" stroke-linejoin="round"/>
<path opacity="0.4" d="M2.15994 11.45L4.36996 7.97002C4.71996 7.42002 5.48998 7.34002 5.94998 7.80002L9.42996 11.28C9.82996 11.68 9.82996 12.32 9.42996 12.72L5.94998 16.2C5.48998 16.66 4.71996 16.58 4.36996 16.03L2.15994 12.55C1.94994 12.21 1.94994 11.79 2.15994 11.45Z" stroke="#171717" stroke-width="1.5" stroke-miterlimit="10" stroke-linecap="round" stroke-linejoin="round"/>
<path opacity="0.4" d="M21.84 11.45L19.63 7.97002C19.28 7.42002 18.51 7.34002 18.05 7.80002L14.57 11.28C14.17 11.68 14.17 12.32 14.57 12.72L18.05 16.2C18.51 16.66 19.28 16.58 19.63 16.03L21.84 12.55C22.05 12.21 22.05 11.79 21.84 11.45Z" stroke="#171717" stroke-width="1.5" stroke-miterlimit="10" stroke-linecap="round" stroke-linejoin="round"/>
</svg>
