<svg width="24" height="24" viewBox="0 0 24 24" fill="none" xmlns="http://www.w3.org/2000/svg">
<path fill-rule="evenodd" clip-rule="evenodd" d="M17.2999 15.3002C16.9999 15.5002 16.8 15.5002 16.6 15.6002C16.4 15.6002 16.3 15.7002 16.2 15.8002C16 15.8002 16 16.0002 16 16.1002C16 16.2002 16 16.3002 15.9 16.4002C15.8 16.5002 15.6 16.5002 15.4 16.5002C15.1 16.5002 14.7 16.5002 14.3 16.7002C14.1 16.8002 13.8999 16.9002 13.6999 17.0002C13.2999 17.3002 12.9 17.5002 12.1 17.5002C11.3 17.5002 10.8999 17.2002 10.4999 17.0002C10.2999 16.9002 10.0999 16.7002 9.89995 16.7002C9.49995 16.6002 9.09995 16.5002 8.79995 16.5002C8.59995 16.5002 8.39995 16.5002 8.29995 16.4002C7.99995 16.3002 7.99995 16.2002 7.99995 16.1002C7.99995 16.0002 7.99995 15.8002 7.79995 15.8002C7.69995 15.7002 7.49995 15.7002 7.39995 15.6002C7.19995 15.5002 6.99995 15.5002 6.69995 15.3002C6.39995 15.1002 6.59995 15.0002 6.69995 14.9002C8.59995 14.0002 8.89995 12.5002 8.89995 12.4002C8.89995 12.3002 8.89995 12.2002 8.79995 12.1002C8.69995 12.0002 8.39995 11.8002 8.09995 11.7002C7.99995 11.6002 7.89995 11.6002 7.79995 11.5002C7.49995 11.3002 7.39995 11.1002 7.49995 10.9002C7.59995 10.7002 7.69995 10.7002 7.89995 10.7002C7.99995 10.7002 7.99995 10.7002 8.09995 10.7002C8.29995 10.7002 8.49995 10.8002 8.59995 10.9002C8.69995 10.9002 8.79995 11.0002 8.89995 11.0002C8.89995 11.0002 8.89995 11.0002 8.99995 11.0002C9.09995 11.0002 9.09995 11.0002 9.09995 10.8002V10.7002C9.09995 10.4002 8.99995 9.7002 9.09995 9.2002C9.19995 8.4002 9.39995 7.9002 9.79995 7.6002C9.99995 7.4002 10.7 6.7002 12.1 6.7002C13.5 6.7002 14.1999 7.5002 14.3999 7.6002C14.6999 8.0002 15 8.4002 15.1 9.2002C15.2 9.8002 15.1 10.4002 15.1 10.8002C15.1 10.9002 15.1 11.0002 15.2 11.0002C15.2 11.0002 15.2 11.0002 15.3 11.0002C15.4 11.0002 15.5 10.9002 15.6 10.9002C15.8 10.8002 15.9 10.8002 16.1 10.7002C16.1 10.7002 16.1999 10.7002 16.2999 10.7002C16.4999 10.7002 16.6 10.8002 16.7 10.9002C16.8 11.1002 16.7 11.3002 16.4 11.5002C16.3 11.5002 16.2 11.6002 16.1 11.7002C15.9 11.9002 15.5 12.1002 15.4 12.1002C15.3 12.2002 15.3 12.3002 15.3 12.4002C15.3 12.5002 15.6 13.9002 17.5 14.9002C17.5 15.0002 17.6999 15.1002 17.2999 15.3002Z" stroke="#171717" stroke-width="1.5" stroke-miterlimit="10" stroke-linejoin="round"/>
<path d="M12 22C17.5228 22 22 17.5228 22 12C22 6.47715 17.5228 2 12 2C6.47715 2 2 6.47715 2 12C2 17.5228 6.47715 22 12 22Z" stroke="#171717" stroke-width="1.5" stroke-miterlimit="10" stroke-linejoin="round"/>
</svg>
