<svg width="24" height="24" viewBox="0 0 24 24" fill="none" xmlns="http://www.w3.org/2000/svg">
<path opacity="0.4" d="M11.3102 13.9402C13.1769 13.9402 14.6902 12.4269 14.6902 10.5602C14.6902 8.69345 13.1769 7.18018 11.3102 7.18018C9.44346 7.18018 7.93018 8.69345 7.93018 10.5602C7.93018 12.4269 9.44346 13.9402 11.3102 13.9402Z" stroke="#171717" stroke-width="1.5" stroke-miterlimit="10"/>
<path opacity="0.4" d="M15.0601 14.8101L12.0601 17.8101" stroke="#171717" stroke-width="1.5" stroke-miterlimit="10" stroke-linecap="round" stroke-linejoin="round"/>
<path opacity="0.4" d="M17.5 9.3125V9.3125" stroke="#171717" stroke-width="1.5" stroke-linecap="round" stroke-linejoin="round"/>
<path d="M12 22C17.5228 22 22 17.5228 22 12C22 6.47715 17.5228 2 12 2C6.47715 2 2 6.47715 2 12C2 17.5228 6.47715 22 12 22Z" stroke="#171717" stroke-width="1.5" stroke-miterlimit="10" stroke-linecap="round" stroke-linejoin="round"/>
</svg>
