<svg width="24" height="24" viewBox="0 0 24 24" fill="none" xmlns="http://www.w3.org/2000/svg">
<path d="M11.9998 2H8.6998C6.7998 2 5.2998 3.5 5.2998 5.3C5.2998 7.1 6.7998 8.6 8.5998 8.6H11.9998V2Z" stroke="#171717" stroke-width="1.5" stroke-miterlimit="10"/>
<path d="M11.9999 8.7002H8.6999C6.8999 8.7002 5.3999 10.2002 5.3999 12.0002C5.3999 13.8002 6.8999 15.3002 8.6999 15.3002H11.9999V8.7002Z" stroke="#171717" stroke-width="1.5" stroke-miterlimit="10"/>
<path d="M11.9999 15.2998H8.6999C6.8999 15.2998 5.3999 16.7998 5.3999 18.5998C5.3999 20.3998 6.8999 21.8998 8.6999 21.8998C10.4999 21.8998 11.9999 20.3998 11.9999 18.5998V15.2998Z" stroke="#171717" stroke-width="1.5" stroke-miterlimit="10"/>
<path d="M12 2H15.3C17.1 2 18.6 3.5 18.6 5.3C18.6 7.1 17.1 8.6 15.3 8.6H12V2Z" stroke="#171717" stroke-width="1.5" stroke-miterlimit="10"/>
<path d="M15.3 8.7002C17.1 8.7002 18.6 10.2002 18.6 12.0002C18.6 13.8002 17.1 15.3002 15.3 15.3002C13.5 15.3002 12 13.8002 12 12.0002C12 10.2002 13.5 8.7002 15.3 8.7002Z" stroke="#171717" stroke-width="1.5" stroke-miterlimit="10"/>
</svg>
