<svg width="24" height="24" viewBox="0 0 24 24" fill="none" xmlns="http://www.w3.org/2000/svg">
<path d="M11.4001 2.35002L6.26011 7.50002C6.06011 7.70002 6.06011 8.01002 6.26011 8.21002L7.99011 9.94002C8.19011 10.14 8.50011 10.14 8.70011 9.94002L13.8501 4.79002C14.0501 4.59002 14.0501 4.28002 13.8501 4.08002L12.1201 2.35002C11.9101 2.16002 11.6001 2.16002 11.4001 2.35002Z" fill="#171717"/>
<path opacity="0.4" d="M15.3001 6.26016L6.26011 15.3002C6.06011 15.5002 6.06011 15.8102 6.26011 16.0102L7.99011 17.7402C8.19011 17.9402 8.50011 17.9402 8.70011 17.7402L17.7501 8.69016C17.9501 8.49016 17.9501 8.18016 17.7501 7.98016L16.0201 6.25016C15.8201 6.06016 15.5001 6.06016 15.3001 6.26016Z" fill="#171717"/>
<path d="M19.21 10.1598L10.16 19.2098C9.96001 19.4098 9.96001 19.7198 10.16 19.9198L11.89 21.6498C12.09 21.8498 12.4 21.8498 12.6 21.6498L21.65 12.5998C21.85 12.3998 21.85 12.0898 21.65 11.8898L19.92 10.1598C19.72 9.95977 19.4 9.95977 19.21 10.1598Z" fill="#171717"/>
<path opacity="0.4" d="M4.08996 13.84L2.35996 12.11C2.15996 11.91 2.15996 11.6 2.35996 11.4L4.08996 9.67002C4.28996 9.47002 4.59996 9.47002 4.79996 9.67002L6.52996 11.4C6.72996 11.6 6.72996 11.91 6.52996 12.11L4.79996 13.84C4.59996 14.04 4.27996 14.04 4.08996 13.84Z" fill="#171717"/>
</svg>
