<svg width="24" height="24" viewBox="0 0 24 24" fill="none" xmlns="http://www.w3.org/2000/svg">
<path opacity="0.4" d="M16.19 2H7.81C4.17 2 2 4.17 2 7.81V16.18C2 19.82 4.17 21.99 7.81 21.99H16.18C19.82 21.99 21.99 19.82 21.99 16.18V7.81C22 4.17 19.83 2 16.19 2Z" fill="#171717"/>
<path d="M10.8905 7.8001C10.7905 7.5101 10.5205 7.30009 10.2105 7.29009C9.89047 7.27009 9.61047 7.45009 9.49047 7.73009L5.96047 15.6601C5.79047 16.0401 5.96047 16.4801 6.34047 16.6501C6.72047 16.8201 7.16047 16.6501 7.33047 16.2701L8.31047 14.0701H11.3905L12.1005 16.2001C12.2005 16.5101 12.5005 16.7101 12.8105 16.7101C12.8905 16.7101 12.9705 16.7001 13.0505 16.6701C13.4405 16.5401 13.6505 16.1101 13.5205 15.7201L10.8905 7.8001ZM8.98047 12.5701L10.0805 10.1001L10.9005 12.5701H8.98047Z" fill="#171717"/>
<path d="M16.3506 9.92993C15.9406 9.92993 15.6006 10.2699 15.6006 10.6799V15.9699C15.6006 16.3799 15.9406 16.7199 16.3506 16.7199C16.7606 16.7199 17.1006 16.3799 17.1006 15.9699V10.6799C17.1006 10.2599 16.7606 9.92993 16.3506 9.92993Z" fill="#171717"/>
<path d="M17.2706 7.65C17.2206 7.53 17.1506 7.42 17.0506 7.33C16.7806 7.05 16.3306 6.96 15.9606 7.11C15.8406 7.16 15.7306 7.23 15.6406 7.33C15.5506 7.42 15.4806 7.53 15.4206 7.65C15.3706 7.77 15.3506 7.9 15.3506 8.03C15.3506 8.17 15.3706 8.29 15.4206 8.42C15.4706 8.54 15.5506 8.65001 15.6406 8.74001C15.8306 8.93001 16.0806 9.03 16.3506 9.03C16.4806 9.03 16.6106 9.01001 16.7306 8.96001C16.8506 8.91001 16.9606 8.83001 17.0506 8.74001C17.1506 8.65001 17.2206 8.54 17.2706 8.42C17.3206 8.3 17.3506 8.17 17.3506 8.03C17.3506 7.9 17.3206 7.77 17.2706 7.65Z" fill="#171717"/>
</svg>
