<svg width="48" height="48" viewBox="0 0 48 48" fill="none" xmlns="http://www.w3.org/2000/svg">
<path d="M24 48C37.2548 48 48 37.2548 48 24C48 10.7452 37.2548 0 24 0C10.7452 0 0 10.7452 0 24C0 37.2548 10.7452 48 24 48Z" fill="white"/>
<path fill-rule="evenodd" clip-rule="evenodd" d="M14.3526 16.8H14.4121C14.7019 17.1325 15.016 17.4407 15.331 17.7499L15.331 17.7499C15.5085 17.9241 15.6862 18.0985 15.8601 18.2778L19.1424 21.5601V21.6195C18.3506 22.4077 17.5606 23.1996 16.7705 23.9915C15.9751 24.7888 15.1796 25.5861 14.3823 26.3796C13.584 25.585 12.7876 24.7886 11.9912 23.9921C11.1947 23.1957 10.3983 22.3992 9.59998 21.6047C9.65569 21.4985 9.74568 21.4164 9.83494 21.335L9.83495 21.335C9.87681 21.2968 9.9185 21.2588 9.95643 21.2185C10.5416 20.6273 11.1304 20.0398 11.719 19.4524L11.719 19.4524C12.6017 18.5715 13.4838 17.6911 14.3526 16.8ZM28.7899 21.4988C29.2513 21.0486 29.7058 20.5916 30.1603 20.1345C30.4787 19.8143 30.7971 19.4941 31.1179 19.1763C31.399 18.8926 31.682 18.6117 31.9648 18.3309L31.9651 18.3307L31.9652 18.3306C32.4743 17.8252 32.983 17.3203 33.4794 16.8H33.5388C33.7278 17.0268 33.9379 17.2326 34.148 17.4384C34.268 17.556 34.3881 17.6736 34.5042 17.7951L35.7029 18.9938L38.1058 21.3967C38.1226 21.4156 38.1424 21.4338 38.1626 21.4525C38.2139 21.5 38.2682 21.5502 38.2841 21.6195C37.5044 22.3776 36.7369 23.1496 35.969 23.922L35.969 23.9221L35.9689 23.9221C35.1497 24.7462 34.3299 25.5708 33.4943 26.3796L28.9272 21.8126C28.9049 21.788 28.8805 21.7654 28.8563 21.743L28.8563 21.743C28.8322 21.7207 28.8083 21.6986 28.7869 21.6749C28.7664 21.6966 28.7443 21.7171 28.7223 21.7375C28.7061 21.7525 28.69 21.7675 28.6746 21.7829C27.91 22.5438 27.1473 23.3066 26.3845 24.0694L26.3842 24.0697C25.6135 24.8403 24.8429 25.6109 24.0704 26.3796C23.3575 25.6766 22.6505 24.9677 21.9435 24.2589L21.9434 24.2588C21.0597 23.3728 20.1759 22.4867 19.2806 21.6121C20.1037 20.7537 20.9495 19.912 21.7951 19.0704L21.7952 19.0703C22.5518 18.3173 23.3083 17.5645 24.0482 16.8H24.1076C24.1523 16.8668 24.1967 16.9262 24.2561 16.9857C24.8714 17.595 25.4831 18.2078 26.095 18.821C26.9889 19.7165 27.8832 20.6126 28.7899 21.4988ZM20.8933 29.6223C20.3702 30.1446 19.8473 30.6667 19.3252 31.1888C19.3178 31.2036 19.3104 31.2222 19.3029 31.2408C19.2955 31.2593 19.2881 31.2779 19.2806 31.2928C20.0922 32.0931 20.8952 32.8976 21.6994 33.7032C21.9622 33.9665 22.2252 34.2299 22.4886 34.4934C22.7085 34.704 22.9233 34.9223 23.1382 35.1409C23.4387 35.4464 23.7396 35.7523 24.0556 36.038C24.2826 35.8376 24.5016 35.6132 24.7207 35.3888C24.867 35.239 25.0133 35.0891 25.1619 34.9464C25.7367 34.3753 26.3115 33.8005 26.8863 33.2258C27.4552 32.6569 28.024 32.0881 28.5928 31.523C28.6212 31.4894 28.6532 31.4595 28.685 31.4297C28.7448 31.3737 28.804 31.3183 28.8378 31.2408C27.2486 29.6739 25.6743 28.0921 24.1 26.5104L24.0333 26.4807C22.9885 27.5305 21.9404 28.5769 20.8933 29.6223Z" fill="black"/>
</svg>
