<svg width="48" height="48" viewBox="0 0 48 48" fill="none" xmlns="http://www.w3.org/2000/svg">
<path d="M0 24C0 10.7452 10.7452 0 24 0C37.2548 0 48 10.7452 48 24C48 37.2548 37.2548 48 24 48C10.7452 48 0 37.2548 0 24Z" fill="white"/>
<path d="M25.9312 9.77376L25.0024 13.3697C26.3181 10.8299 28.4077 8.91884 30.8071 7.23384C29.0528 9.22045 27.4534 11.2072 26.473 13.1938C28.1242 10.9305 30.3428 9.67323 32.8452 8.84334C29.5171 11.7353 26.8755 14.8386 24.8631 17.9568L23.2637 17.278C23.5472 14.7883 24.5122 12.2384 25.9312 9.77376Z" fill="#ABCD03"/>
<path d="M21.6597 16.6168L24.7041 17.8479C24.7041 18.6025 24.6412 20.904 25.1252 21.5829C30.1883 27.939 29.3365 40.6799 24.0996 41.0067C16.1248 41.0067 13.0834 35.726 13.0834 30.8724C13.0834 26.4464 18.5268 23.5042 21.7776 20.8889C22.6031 20.1848 22.4597 18.6287 21.6597 16.6168Z" fill="#FFFCDB"/>
<path d="M24.705 17.8036L25.8021 18.3492C25.699 19.0531 25.8537 20.6125 26.5758 21.0147C29.7751 22.951 32.7934 25.0634 33.9802 27.1758C38.2113 34.6195 31.0133 41.5097 24.7958 40.8559C28.1755 38.4165 29.1559 33.4123 27.8917 27.9552C27.3758 25.8176 26.5758 23.8813 25.1568 21.6934C24.5421 20.6195 24.7567 19.2876 24.705 17.8036Z" fill="#7D4698"/>
<path d="M24.1768 17.6198L26.447 17.9216C25.7762 20.0843 27.7629 21.593 28.4078 21.9453C29.8525 22.7249 31.2457 23.5296 32.3551 24.5103C34.4449 26.3711 35.6316 28.9865 35.6316 31.7527C35.6316 34.4937 34.3416 37.1342 32.1745 38.8945C30.1364 40.5543 27.3244 41.2584 24.5897 41.2584C22.887 41.2584 21.3648 41.1831 19.7138 40.6548C15.9473 39.4226 13.1351 36.2793 12.9029 32.5069C12.6964 29.5647 13.3672 27.3266 15.7151 24.9879C16.9275 23.7557 19.3785 22.3474 21.0555 21.2158C21.8812 20.6624 22.7583 19.1032 21.0812 16.1611L21.4167 15.9096L23.902 17.5322L21.8038 16.6892C21.9844 16.9407 22.4746 18.0724 22.5779 18.3993C22.8101 19.3297 22.7069 20.2352 22.5005 20.6374C21.4428 22.4984 19.6369 23.0013 18.3212 24.0575C15.9992 25.9183 13.4709 27.4021 13.7547 32.5069C13.8837 35.0216 15.8961 38.0897 18.9143 39.5231C20.6171 40.328 22.5779 40.6548 24.5644 40.7553C26.3444 40.8308 29.75 39.7997 31.6074 38.2909C33.5939 36.6816 34.7033 34.2422 34.7033 31.7527C34.7033 29.2379 33.6714 26.8489 31.7364 25.1639C30.627 24.1832 28.7954 23.0013 27.6603 22.3725C26.5252 21.7438 25.1062 19.9835 25.5705 18.2987L24.1768 17.6198Z" fill="black"/>
<path d="M23.4803 21.3417C23.2482 22.4986 22.9901 24.5858 21.9582 25.3654C21.5195 25.667 21.0809 25.969 20.6166 26.2706C18.7591 27.503 16.9015 28.6595 16.0503 31.627C15.8697 32.2558 16.0246 32.9347 16.1795 33.5633C16.6438 35.3739 17.9595 37.3355 18.9915 38.4924C18.9915 38.5426 19.1979 38.6684 19.1979 38.7187C20.0493 39.6995 20.3074 39.9761 23.5321 40.68L23.4547 41.0323C21.5197 40.5294 19.9203 40.0768 18.914 38.945C18.914 38.9199 18.7334 38.7437 18.7334 38.7437C17.6499 37.5365 16.334 35.5249 15.844 33.6388C15.6634 32.8842 15.5087 32.3061 15.715 31.5263C16.592 28.4584 18.5013 27.2513 20.4362 25.9688C20.8748 25.6922 21.3907 25.4405 21.8035 25.1137C22.6031 24.5355 23.0415 22.775 23.4803 21.3417Z" fill="black"/>
<path d="M24.3053 26.1195C24.3312 27.4272 24.2002 28.0832 24.5355 29.0139C24.7418 29.567 25.4389 30.3215 25.6453 31.0508C25.9291 32.0317 26.2381 33.1129 26.212 33.7668C26.212 34.5214 26.1636 35.929 25.8283 37.4379C25.5726 38.6847 24.9833 39.7546 23.9924 40.361C22.9774 40.1573 21.7856 39.8095 21.0822 39.2217C19.7149 38.065 18.5039 36.1308 18.349 34.4458C18.2202 33.0627 19.5339 31.023 21.3655 29.9921C22.9134 29.1119 23.2734 28.1088 23.6087 26.4993C23.1444 27.9075 22.7083 29.0881 21.212 29.8425C19.045 30.9489 17.933 32.8063 18.0361 34.5666C18.1908 36.8298 19.1207 38.3633 20.9523 39.5957C21.7262 40.1238 23.1721 40.6819 24.0751 40.8329V40.7178C24.7598 40.5928 25.6464 39.4965 26.0881 38.0133C26.4751 36.6806 26.6277 34.9748 26.6016 33.8934C26.5758 33.2647 26.2913 31.9033 25.7752 30.671C25.4915 29.9922 25.0556 29.3133 24.7717 28.8355C24.4624 28.3573 24.4602 27.3265 24.3053 26.1195Z" fill="black"/>
<path d="M24.1517 31.0508C24.1774 31.931 24.5401 33.0587 24.6948 34.2156C24.824 35.0707 24.7679 35.9296 24.7421 36.6841C24.7166 37.5575 24.4181 39.1224 24.0101 39.8834C23.6253 39.7114 23.4749 39.5153 23.2249 39.1987C22.9155 38.7711 22.7053 38.3436 22.4989 37.8407C22.3441 37.4634 22.1633 37.0316 22.0856 36.5288C21.9825 35.7744 22.0114 34.5942 22.8885 33.387C23.5593 32.4314 23.713 32.3587 23.9451 31.2522C23.6353 32.2329 23.4044 32.3329 22.6818 33.1626C21.8822 34.068 21.7491 35.4015 21.7491 36.4827C21.7491 36.9355 21.9344 37.4379 22.1151 37.9155C22.3214 38.4186 22.4985 38.9194 22.7822 39.2965C23.2087 39.908 23.7547 40.2557 24.0219 40.3207C24.0236 40.3211 24.026 40.3204 24.0278 40.3207C24.0335 40.322 24.04 40.3254 24.0455 40.3265V40.2977C24.546 39.7537 24.8472 39.2133 24.9487 38.6693C25.0777 38.0154 25.1073 37.3602 25.1848 36.5805C25.262 35.9267 25.206 35.046 25.0254 34.1408C24.7675 33.0091 24.3323 31.8553 24.1517 31.0508L24.1517 31.0508Z" fill="black"/>
<path d="M24.2283 20.2855C24.2542 21.593 24.3573 24.0326 24.7185 24.9881C24.8217 25.3149 25.7762 26.7484 26.4468 28.4835C26.9113 29.6906 27.0144 30.7971 27.0919 31.1239C27.4015 32.5574 27.0144 34.9716 26.4984 37.26C26.2405 38.4922 25.3633 40.0262 24.3572 40.6298L24.1509 40.9818C24.7185 40.9566 26.1115 39.6239 26.6017 37.9641C27.4274 35.1476 27.7627 33.8399 27.3758 30.7216C27.3242 30.4196 27.1952 29.3889 26.705 28.2822C25.9827 26.5972 24.9507 24.9879 24.8219 24.6609C24.5895 24.133 24.2799 21.8446 24.2283 20.2855Z" fill="black"/>
<path d="M24.7124 18.4971C24.6359 19.8409 24.6154 20.3358 24.8733 21.3165C25.157 22.3979 26.6019 23.9569 27.1953 25.7425C28.3304 29.1625 28.0467 33.6388 27.221 37.1342C26.9115 38.3662 25.4408 40.1519 23.9703 40.7301L25.0539 40.9816C25.6472 40.9564 27.1692 39.5734 27.7627 37.9891C28.7171 35.4995 28.8978 32.5322 28.5108 29.4139C28.4849 29.1121 27.9688 26.4214 27.4788 25.2897C26.7821 23.6049 25.5437 22.0959 25.4149 21.7693C25.1829 21.2159 24.6731 20.0672 24.7124 18.4971Z" fill="black"/>
<rect x="23.8922" y="17.5513" width="0.8" height="23.2042" fill="black"/>
</svg>
