<svg width="48" height="49" viewBox="0 0 48 49" fill="none" xmlns="http://www.w3.org/2000/svg">
<path d="M24.0532 0C22.9282 0 21.7994 0.22125 20.7794 0.7725C19.6957 1.35562 18.8069 2.28937 18.2613 3.39187C17.7138 4.49437 17.5 5.67187 17.4663 6.96937C17.4044 9.43312 17.5225 12.0169 17.7082 14.3587C17.7569 15.0712 17.8469 15.4875 17.755 16.2206C17.4513 17.7769 16.09 18.8231 15.3625 20.19C14.5619 21.6975 14.2244 23.4019 13.6207 24.9994C13.0675 26.46 12.2913 27.8306 11.7682 29.3025C11.035 31.3594 10.8157 33.6206 11.2994 35.7506C11.6688 37.3744 12.4394 38.8969 13.4782 40.2C13.3282 40.47 13.1819 40.7456 13.0282 41.0137C12.5463 41.8444 11.9575 42.6337 11.6838 43.5544C11.5469 44.0137 11.4925 44.505 11.5807 44.9775C11.6688 45.45 11.9088 45.9019 12.2838 46.2019C12.5294 46.3969 12.8275 46.5244 13.1332 46.5956C13.4388 46.665 13.7557 46.6819 14.0707 46.6762C15.265 46.65 16.4238 46.2881 17.5788 45.9844C18.265 45.8044 18.955 45.645 19.6469 45.5006C22.1107 44.9962 24.8594 45.1987 27.145 45.5287C27.9194 45.6469 28.6882 45.7987 29.4494 45.9844C30.6419 46.2731 31.8288 46.6406 33.055 46.6762C33.3775 46.6856 33.7038 46.6706 34.0188 46.6012C34.3338 46.53 34.6394 46.4025 34.8907 46.2019C35.2675 45.9019 35.5075 45.4481 35.5957 44.9756C35.6838 44.5031 35.6294 44.01 35.4907 43.5487C35.2132 42.6262 34.6188 41.8406 34.1275 41.0137C33.9325 40.6856 33.7525 40.3519 33.5594 40.0237C35.0407 38.3606 36.2332 36.4369 36.9232 34.3237C37.675 32.0175 37.8138 29.5331 37.4969 27.1275C37.18 24.7219 36.4169 22.3894 35.4138 20.1806C34.1538 17.4131 33.0944 16.4119 32.3257 13.98C31.4969 11.3512 32.1813 8.24062 31.5644 5.8575C31.345 5.0475 30.9944 4.27312 30.5425 3.56437C30.0138 2.73375 29.3425 1.99125 28.5457 1.41375C27.2744 0.49125 25.6769 0 24.0532 0V0Z" fill="#020204"/>
<path d="M19.5869 13.875C19.4181 14.0869 19.3094 14.3419 19.2419 14.6044C19.1763 14.8669 19.1519 15.1388 19.1406 15.4106C19.12 15.9525 19.1538 16.5038 19.0094 17.0269C18.8556 17.5856 18.5125 18.0713 18.1769 18.5419C17.5938 19.3594 17.005 20.1994 16.7181 21.1613C16.5438 21.7425 16.4856 22.3594 16.5475 22.965C15.8969 23.9213 15.3325 24.9394 14.8638 25.9988C14.155 27.6056 13.6694 29.3156 13.4988 31.0631C13.2888 33.2025 13.5625 35.4038 14.4081 37.38C15.0175 38.8106 15.9288 40.1175 17.1044 41.1375C17.7006 41.655 18.3644 42.0956 19.0731 42.4444C21.5313 43.6538 24.5688 43.6556 26.9856 42.3675C28.2494 41.6944 29.3163 40.71 30.3438 39.7144C30.9625 39.1144 31.5794 38.4994 32.0519 37.7794C32.9613 36.39 33.2781 34.7025 33.475 33.0544C33.8181 30.1744 33.8294 27.1294 32.5656 24.5175C32.1306 23.6175 31.5513 22.7888 30.8556 22.0706C30.6719 20.8144 30.3063 19.5825 29.7756 18.4294C29.3913 17.595 28.9244 16.8019 28.5681 15.9581C28.4219 15.6113 28.2944 15.255 28.1331 14.9156C27.97 14.5763 27.7713 14.25 27.4975 13.9894C27.22 13.7231 26.8731 13.5338 26.5075 13.4138C26.1419 13.2919 25.7556 13.2375 25.3713 13.2188C24.6006 13.1794 23.83 13.2806 23.0594 13.2488C22.4463 13.2244 21.835 13.1175 21.2219 13.1531C20.9163 13.1719 20.6106 13.2263 20.3256 13.3425C20.0406 13.4569 19.7781 13.635 19.5869 13.875Z" fill="#FDFDFB"/>
<g opacity="0.25" filter="url(#filter0_f_210_290)">
<path d="M16.8757 21.5962C17.0388 21.8418 16.7726 22.6912 20.5995 22.1475C20.5995 22.1475 19.9263 22.2206 19.2645 22.3743C18.2351 22.7193 17.3388 23.1037 16.6451 23.6137C15.9607 24.12 15.4582 24.7781 14.8301 25.3425C14.8301 25.3425 15.8482 23.4825 16.1013 22.9218C16.3563 22.3612 16.0601 22.3875 16.2607 21.5625C16.4613 20.7375 16.9526 19.9443 16.9526 19.9443C16.9526 19.9443 16.5513 21.1106 16.8757 21.5962Z" fill="url(#paint0_radial_210_290)"/>
</g>
<g opacity="0.42" filter="url(#filter1_f_210_290)">
<path d="M29.1775 21.3731C28.3975 21.9169 27.94 21.8531 26.995 21.9581C26.0481 22.065 23.4888 22.0256 23.4888 22.0256C23.4888 22.0256 23.8581 22.02 24.6813 22.1719C25.5025 22.3256 27.1769 22.4719 28.12 22.83C29.065 23.19 29.4081 23.2931 29.9819 23.655C30.7975 24.1706 31.3975 24.9788 32.1775 25.545C32.1775 25.545 32.215 24.795 31.9 24.2344C31.585 23.6738 30.7375 22.7906 30.4881 21.9656C30.2406 21.1406 30.1206 19.5206 30.1206 19.5206C30.1206 19.5206 29.9556 20.8313 29.1775 21.3731Z" fill="url(#paint1_radial_210_290)"/>
</g>
<g opacity="0.2" filter="url(#filter2_f_210_290)">
<path d="M21.8444 20.2143C21.8144 20.4487 21.7769 20.683 21.7319 20.9155C21.7094 21.0299 21.6831 21.1443 21.6419 21.253C21.5988 21.3618 21.5369 21.4668 21.4506 21.5437C21.3738 21.613 21.2819 21.6599 21.1881 21.703C20.8244 21.868 20.4363 21.9787 20.0406 22.0293C20.1981 22.0405 20.3556 22.0555 20.515 22.0724C20.6144 22.0837 20.7138 22.0949 20.8094 22.1193C20.9069 22.1455 21.0025 22.183 21.0831 22.2412C21.1713 22.3068 21.2406 22.3949 21.2931 22.4924C21.3963 22.6837 21.43 22.9049 21.4488 23.1243C21.4731 23.4018 21.475 23.683 21.4544 23.9605C21.4731 23.7749 21.5125 23.5893 21.5706 23.413C21.6775 23.0905 21.8463 22.7905 22.075 22.5412C22.1669 22.4437 22.2663 22.3518 22.375 22.2749C22.7106 22.0387 23.1381 21.9355 23.545 21.9918C23.1306 22.0087 22.7125 21.8793 22.3825 21.6299C22.2138 21.5024 22.0675 21.3449 21.9663 21.1612C21.8088 20.8762 21.7638 20.5293 21.8444 20.2143Z" fill="url(#paint2_radial_210_290)"/>
</g>
<g opacity="0.11" filter="url(#filter3_f_210_290)">
<path d="M20.847 25.7138C20.6482 26.4694 20.5113 27.2419 20.4401 28.0219C20.337 29.1226 20.3613 30.2307 20.3013 31.3351C20.2526 32.2707 20.142 33.2176 20.3051 34.1419C20.382 34.5826 20.5207 35.0119 20.7176 35.4132C20.7476 35.2594 20.772 35.1057 20.7851 34.9501C20.8545 34.2001 20.7288 33.4482 20.6857 32.6982C20.6107 31.3819 20.7926 30.0657 20.8676 28.7494C20.9238 27.7388 20.9182 26.7244 20.847 25.7138Z" fill="black"/>
</g>
<g opacity="0.75" filter="url(#filter4_f_210_290)">
<path d="M34.015 24.6056C34.2082 24.5756 35.3913 25.5825 35.23 25.9575C35.0688 26.3306 34.7632 26.1056 34.5457 26.1075C34.3282 26.1112 33.7338 26.3812 33.6344 26.2106C33.5332 26.04 33.8969 25.6425 34.0863 25.3087C34.24 25.0406 33.8238 24.6356 34.015 24.6056Z" fill="#7C7C7C"/>
</g>
<g filter="url(#filter5_f_210_290)">
<path d="M26.7851 2.08504C26.3707 2.37754 26.5507 2.74317 26.7288 3.10879C26.9069 3.47629 26.3369 4.53192 26.3313 4.57692C26.3257 4.62192 27.4526 4.04254 27.7601 3.66379C28.1238 3.21942 29.0407 4.26754 28.9901 4.10817C28.9919 3.82317 27.1994 1.79442 26.7851 2.08504Z" fill="#7C7C7C"/>
</g>
<g filter="url(#filter6_f_210_290)">
<path d="M29.9257 14.3682C29.577 14.6869 30.0907 15.165 30.3326 15.7257C30.4845 16.0744 30.9026 16.5675 31.3076 16.4888C31.6132 16.4288 31.8007 15.99 31.7726 15.6825C31.7163 15.0863 31.2138 14.9457 30.8482 14.7413C30.5595 14.58 30.1714 14.145 29.9257 14.3682Z" fill="#838384"/>
</g>
<path d="M15.9963 18.9207C14.8526 20.2182 13.6769 21.4763 13.0319 22.8807C12.7113 23.5932 12.5613 24.3675 12.3419 25.1175C12.0944 25.9688 11.7569 26.7938 11.3782 27.5963C11.0276 28.3369 10.6413 29.0607 10.2569 29.7825C9.97568 30.3094 9.69068 30.8457 9.59318 31.4344C9.5163 31.8994 9.55943 32.3794 9.67943 32.835C9.79755 33.2907 9.98693 33.7257 10.2026 34.1438C11.1176 35.9344 12.4919 37.4757 14.1194 38.6569C14.8582 39.1913 15.6476 39.6544 16.4782 40.035C16.9282 40.2394 17.4007 40.4232 17.8957 40.4307C18.1432 40.4363 18.3926 40.395 18.6194 40.2957C18.8444 40.1963 19.0469 40.0369 19.1819 39.8288C19.3469 39.5738 19.4032 39.2569 19.3694 38.955C19.3357 38.6532 19.2176 38.3644 19.0601 38.1057C18.6738 37.4719 18.0644 37.0125 17.4776 36.5588C16.2101 35.5782 14.9857 34.5413 13.8119 33.45C13.4819 33.1407 13.1501 32.8238 12.9194 32.4338C12.6944 32.055 12.5726 31.6238 12.4901 31.1907C12.2632 30.0038 12.3213 28.755 12.7244 27.615C12.8838 27.1688 13.0919 26.7432 13.2944 26.3157C13.6432 25.575 13.9732 24.8194 14.4326 24.1407C15.0044 23.295 15.7694 22.5788 16.2344 21.6713C16.6282 20.9044 16.7876 20.0438 16.9394 19.1963C17.0594 18.5325 17.2863 17.8838 17.4026 17.22C17.1757 17.6513 16.4444 18.3582 15.9963 18.9207Z" fill="#020204"/>
<g opacity="0.95" filter="url(#filter7_f_210_290)">
<path d="M14.6801 23.6438C14.3051 23.9888 13.9807 24.3882 13.7182 24.8269C13.287 25.5469 13.0338 26.3569 12.7188 27.1351C12.4863 27.7144 12.2145 28.2976 12.1826 28.9219C12.1657 29.2426 12.2126 29.5632 12.2238 29.8838C12.2351 30.2044 12.2051 30.5382 12.0476 30.8176C11.9163 31.0519 11.697 31.2357 11.4438 31.3257C11.787 31.4401 12.0907 31.6613 12.3063 31.9501C12.4863 32.1938 12.6026 32.4769 12.7582 32.7338C12.8857 32.9438 13.0413 33.1388 13.2345 33.2907C13.4257 33.4444 13.6563 33.5532 13.8982 33.5832C14.2338 33.6263 14.5826 33.5157 14.8301 33.2869C14.5188 30.3713 14.8038 27.3957 15.6626 24.5926C15.717 24.4163 15.7732 24.2382 15.7882 24.0544C15.8013 23.8688 15.7657 23.6738 15.6532 23.5276C15.5951 23.4488 15.5145 23.3869 15.4226 23.3476C15.3326 23.3101 15.2313 23.2951 15.1338 23.3082C15.0363 23.3194 14.9407 23.3569 14.862 23.4151C14.7832 23.4751 14.7195 23.5538 14.6801 23.6438Z" fill="#7C7C7C"/>
</g>
<path d="M34.5175 23.835C35.5 24.6263 36.1244 25.8206 36.3176 27.0675C36.4676 28.0388 36.3701 29.0381 36.1507 29.9963C35.9313 30.9563 35.5938 31.8825 35.2563 32.8088C35.1232 33.1763 34.9882 33.5494 34.9357 33.9375C34.8813 34.3275 34.9151 34.7381 35.1026 35.0831C35.3182 35.4788 35.7194 35.7506 36.1507 35.8781C36.5763 36.0056 37.0357 36.0019 37.4669 35.895C37.8982 35.7881 38.6238 35.6494 38.9744 35.3756C39.8651 34.6838 40.0769 33.4819 40.2888 32.4281C40.5082 31.3275 40.4013 30.1744 40.2082 29.0625C39.9438 27.5456 39.4994 26.0644 38.9351 24.6338C38.5188 23.58 37.9863 22.575 37.3526 21.6413C36.7301 20.7244 35.8488 20.01 35.1963 19.1138C34.9694 18.8025 34.6975 18.48 34.4763 18.165C33.9963 17.4863 34.1051 17.6138 33.8069 17.1731C33.5913 16.8544 33.2501 16.7456 32.8919 16.6069C32.5319 16.4681 32.1307 16.4269 31.7594 16.53C31.2719 16.6669 30.8726 17.0531 30.6607 17.5125C30.4488 17.9738 30.4113 18.5025 30.4938 19.0031C30.6007 19.6481 30.8951 20.2481 31.2288 20.8106C31.6038 21.4463 32.0388 22.0594 32.6069 22.5319C33.1994 23.025 33.9157 23.3513 34.5175 23.835Z" fill="#020204"/>
<g filter="url(#filter8_f_210_290)">
<path d="M32.2039 22.3106C32.2826 22.3856 32.3651 22.4625 32.4495 22.5337C33.0532 23.0269 33.3739 23.58 33.987 24.0637C34.9882 24.855 36.0026 26.22 36.1995 27.4669C36.3532 28.44 36.1507 28.9687 35.9032 30.1144C35.6557 31.2619 34.9545 32.8856 34.5739 33.9919C34.4239 34.4325 34.8814 34.2506 34.8214 34.7156C34.7914 34.9444 34.7876 35.175 34.8157 35.4037C34.8195 35.3606 34.8214 35.3137 34.827 35.2706C34.9001 34.6369 35.0932 34.0275 35.3051 33.4294C35.712 32.28 36.1789 31.1512 36.5014 29.97C36.8239 28.7906 36.7882 27.9412 36.6195 26.9269C36.4076 25.65 35.6651 24.4725 34.6151 23.6944C33.8707 23.145 32.9951 22.7925 32.2039 22.3106Z" fill="#838384"/>
</g>
<path d="M10.5588 32.8744C10.8175 32.7675 11.1081 32.7469 11.3819 32.7975C11.6575 32.8481 11.9181 32.9681 12.1488 33.1238C12.6119 33.4388 12.955 33.8963 13.2831 34.35C14.0387 35.3888 14.7644 36.45 15.4244 37.5525C15.9587 38.4488 16.4481 39.3731 17.0669 40.2113C17.47 40.7606 17.9237 41.2688 18.3287 41.8144C18.7337 42.3619 19.0919 42.9544 19.2719 43.6106C19.5062 44.4638 19.4144 45.4031 19.0094 46.1888C18.7244 46.7419 18.2856 47.2163 17.7531 47.5369C17.2206 47.8575 16.66 48 16.0375 48C15.0494 48 14.0837 47.4694 13.165 47.1038C11.2938 46.3575 9.26125 46.125 7.33188 45.5438C6.73938 45.3656 6.15625 45.1538 5.56 44.9906C5.29375 44.9175 5.02562 44.8538 4.77438 44.7394C4.52312 44.6269 4.28875 44.4563 4.15 44.22C4.04313 44.0363 4 43.8206 4 43.6088C4 43.395 4.0525 43.185 4.12562 42.9863C4.27 42.5869 4.50437 42.225 4.66188 41.8294C4.91875 41.1844 4.96562 40.4738 4.93 39.78C4.89625 39.0881 4.78375 38.4 4.73687 37.7081C4.71438 37.3988 4.70688 37.0856 4.76688 36.78C4.825 36.4763 4.95625 36.1781 5.17937 35.9644C5.38563 35.7656 5.6575 35.6475 5.93875 35.5894C6.21813 35.5313 6.50688 35.5294 6.79188 35.535C7.07687 35.5406 7.36375 35.5575 7.64875 35.5331C7.93375 35.5106 8.22062 35.4469 8.46812 35.3044C8.70437 35.1694 8.8975 34.9688 9.05687 34.7494C9.21625 34.53 9.34562 34.29 9.47875 34.0519C9.61 33.8156 9.74687 33.5794 9.92125 33.3694C10.0938 33.1594 10.3075 32.9775 10.5588 32.8744Z" fill="url(#paint3_linear_210_290)"/>
<g filter="url(#filter9_f_210_290)">
<path d="M10.9675 33.3188C11.2019 33.225 11.4681 33.2138 11.7138 33.27C11.9613 33.3263 12.1919 33.4463 12.3906 33.6019C12.7919 33.9113 13.0694 34.3463 13.3375 34.7757C13.9788 35.8144 14.605 36.8663 15.1975 37.9369C15.6475 38.745 16.075 39.5682 16.6263 40.3088C16.9919 40.8 17.41 41.2519 17.7831 41.7375C18.1563 42.2232 18.4881 42.7519 18.6531 43.3425C18.8669 44.1019 18.7806 44.9438 18.4131 45.6413C18.1469 46.1438 17.7419 46.5713 17.2506 46.8563C16.7613 47.1413 16.1875 47.2838 15.6213 47.2575C14.7175 47.2163 13.8906 46.7644 13.0394 46.4588C11.4063 45.8663 9.63813 45.7857 7.96188 45.3244C7.36188 45.1613 6.77688 44.9438 6.17501 44.7919C5.90688 44.7244 5.63501 44.6682 5.38188 44.5613C5.12876 44.4544 4.89063 44.2894 4.75188 44.0513C4.65063 43.8732 4.60938 43.665 4.61501 43.4607C4.62251 43.2563 4.67313 43.0538 4.74626 42.8625C4.89251 42.48 5.12126 42.135 5.26751 41.7525C5.49063 41.175 5.51876 40.5394 5.47751 39.9225C5.43626 39.3057 5.32751 38.6925 5.29001 38.0757C5.27501 37.7982 5.27126 37.5188 5.32751 37.2488C5.38376 36.9769 5.50188 36.7144 5.69876 36.5194C5.91251 36.3075 6.20501 36.1932 6.50313 36.1463C6.79938 36.1013 7.10126 36.1219 7.39938 36.1482C7.69938 36.1744 7.99938 36.2082 8.29938 36.1913C8.59938 36.1725 8.90313 36.0994 9.15063 35.9307C9.37563 35.7788 9.54438 35.5557 9.67376 35.3175C9.80313 35.0794 9.89501 34.8225 9.99438 34.5713C10.0919 34.3182 10.1988 34.0669 10.3525 33.8419C10.5063 33.6188 10.7144 33.4219 10.9675 33.3188Z" fill="#D99A03"/>
</g>
<g filter="url(#filter10_f_210_290)">
<path d="M10.7481 32.7319C10.9768 32.6194 11.245 32.5969 11.4943 32.6475C11.7437 32.6981 11.9762 32.82 12.1731 32.9794C12.565 33.2981 12.8162 33.7538 13.0487 34.2C13.5812 35.2238 14.08 36.27 14.7175 37.2356C15.1825 37.935 15.7168 38.5856 16.1856 39.2831C16.8212 40.2263 17.3387 41.265 17.5525 42.3769C17.695 43.1269 17.6912 43.935 17.3312 44.6081C17.0931 45.0525 16.7087 45.4163 16.2531 45.6431C15.7993 45.8719 15.2762 45.9638 14.7681 45.9188C13.9675 45.8494 13.2418 45.4556 12.4881 45.18C11.1512 44.6944 9.70559 44.5763 8.32934 44.2088C7.74997 44.055 7.17997 43.8544 6.59309 43.7325C6.33247 43.6781 6.06809 43.6388 5.82059 43.545C5.57309 43.4513 5.33872 43.2956 5.21122 43.0669C5.12309 42.9056 5.09309 42.7181 5.10622 42.5344C5.11934 42.3525 5.17372 42.1744 5.24497 42.0038C5.38934 41.6663 5.60122 41.355 5.71184 41.0063C5.87684 40.4906 5.80934 39.9338 5.68559 39.4069C5.56372 38.8819 5.38559 38.3663 5.33122 37.83C5.30684 37.5919 5.30684 37.3481 5.36309 37.1138C5.41747 36.8794 5.52809 36.6544 5.70247 36.4875C5.92747 36.2719 6.24247 36.1631 6.55747 36.1331C6.87059 36.1031 7.18559 36.1444 7.49684 36.1894C7.80809 36.2344 8.12309 36.2831 8.43622 36.2681C8.75122 36.255 9.07184 36.1725 9.31747 35.9794C9.56122 35.7881 9.71497 35.505 9.80309 35.2125C9.89122 34.9181 9.91934 34.6125 9.95497 34.3088C9.99059 34.005 10.0356 33.6975 10.1537 33.4144C10.2718 33.1313 10.4706 32.8706 10.7481 32.7319Z" fill="#F5BD0C"/>
</g>
<g filter="url(#filter11_f_210_290)">
<path d="M13.6 35.2894C14.0219 36.0507 14.2787 36.9244 14.6969 37.6932C15.0812 38.4001 15.5181 39.1276 15.9081 39.7782C16.0825 40.0688 16.4875 40.5151 16.8962 41.2069C17.2675 41.8332 17.6425 42.7088 17.8525 43.0032C17.7325 42.6582 17.485 41.7338 17.1887 41.0757C16.9131 40.4607 16.5906 40.1101 16.3937 39.7782C16.0037 39.1276 15.5819 38.5407 15.1806 37.9201C14.6275 37.0632 14.2056 36.1051 13.6 35.2894Z" fill="url(#paint4_linear_210_290)"/>
</g>
<g opacity="0.2" filter="url(#filter12_f_210_290)">
<path d="M41.2563 40.4269C41.1813 40.6763 41.065 40.9182 40.9169 41.1394C40.5888 41.625 40.1106 41.9925 39.6344 42.33C38.8225 42.9057 37.975 43.4344 37.2175 44.0888C36.7113 44.5275 36.2481 45.0207 35.8206 45.5382C35.455 45.9807 35.11 46.4457 34.6919 46.8394C34.27 47.2369 33.775 47.5594 33.2406 47.7338C32.59 47.9457 31.9038 47.9363 31.2775 47.775C30.8388 47.6625 30.4094 47.4675 30.1375 47.1132C29.8656 46.7588 29.7775 46.2807 29.7456 45.8119C29.6894 44.9832 29.7888 44.1375 29.8788 43.2957C29.9538 42.5963 30.0231 41.8969 30.0513 41.1994C30.1019 39.93 30.0175 38.6738 29.8469 37.44C29.8169 37.2319 29.7869 37.0238 29.8038 36.8119C29.8206 36.5982 29.8919 36.3769 30.0419 36.2119C30.1806 36.06 30.3738 35.97 30.565 35.9269C30.7563 35.8819 30.9513 35.88 31.1444 35.8744C31.6 35.8632 32.0556 35.835 32.5038 35.8763C32.7869 35.9007 33.0644 35.9532 33.3456 35.9794C33.8163 36.0244 34.3056 36.0019 34.7781 35.8632C35.2863 35.7132 35.77 35.4338 36.2875 35.3569C36.4994 35.325 36.7113 35.3288 36.9175 35.3588C37.1275 35.3869 37.3375 35.445 37.4988 35.5744C37.6225 35.6719 37.7125 35.805 37.7819 35.9475C37.8869 36.1613 37.9506 36.3957 37.9881 36.6375C38.02 36.8513 38.0331 37.0707 38.0875 37.2769C38.1775 37.6163 38.3838 37.905 38.6294 38.1394C38.8769 38.3738 39.1638 38.5594 39.4525 38.7432C39.7394 38.925 40.0281 39.105 40.3338 39.255C40.4781 39.3263 40.6263 39.39 40.7631 39.4707C40.9019 39.5532 41.0294 39.6525 41.1213 39.7838C41.245 39.9619 41.2938 40.1963 41.2563 40.4269Z" fill="url(#paint5_linear_210_290)"/>
</g>
<path d="M44.0257 41.7975C43.6019 42.3 43.0132 42.6319 42.4263 42.9319C41.4269 43.44 40.39 43.8881 39.4507 44.5012C38.8207 44.9119 38.2394 45.3937 37.6957 45.9131C37.2307 46.3575 36.79 46.8319 36.2688 47.2087C35.7419 47.5894 35.1344 47.865 34.4913 47.9606C34.3132 47.9869 34.135 48 33.955 48C33.3475 48 32.74 47.8537 32.1813 47.61C31.675 47.3906 31.1875 47.0737 30.895 46.605C30.6025 46.1325 30.535 45.5569 30.535 45C30.5332 44.0194 30.715 43.0481 30.8857 42.0806C31.0282 41.2762 31.1632 40.4719 31.2513 39.66C31.4107 38.1862 31.4088 36.6956 31.3038 35.2144C31.285 34.9669 31.2644 34.7175 31.3019 34.4719C31.3394 34.2262 31.4407 33.9806 31.6282 33.8194C31.8025 33.6694 32.035 33.6019 32.2657 33.5906C32.4944 33.5775 32.7232 33.6131 32.95 33.6469C33.4844 33.7256 34.0244 33.7856 34.5475 33.9244C34.8775 34.0106 35.2 34.1269 35.5282 34.2169C36.0794 34.365 36.655 34.4362 37.2194 34.3706C37.8288 34.2994 38.4213 34.0706 39.0344 34.0856C39.2857 34.0912 39.535 34.1381 39.775 34.215C40.0188 34.2919 40.2607 34.4025 40.4407 34.5862C40.5775 34.725 40.6732 34.8994 40.7444 35.0812C40.8513 35.3512 40.9094 35.64 40.9338 35.9287C40.9544 36.1856 40.9507 36.4462 40.9994 36.6994C41.08 37.1137 41.2994 37.4944 41.5694 37.8187C41.8413 38.145 42.1657 38.4206 42.49 38.6925C42.8144 38.9644 43.1388 39.2344 43.4875 39.4725C43.6507 39.585 43.8194 39.69 43.975 39.8119C44.1307 39.9356 44.2732 40.0781 44.3707 40.2506C44.455 40.4025 44.5 40.5731 44.5 40.7475C44.5 40.845 44.4869 40.9425 44.4569 41.04C44.3725 41.3081 44.2169 41.5687 44.0257 41.7975Z" fill="url(#paint6_linear_210_290)"/>
<g filter="url(#filter13_f_210_290)">
<path d="M43.9769 40.5226C43.8775 40.772 43.7369 41.0063 43.5606 41.2107C43.1725 41.6645 42.6363 41.9626 42.1019 42.2307C41.1869 42.6882 40.2419 43.0895 39.3831 43.6407C38.8094 44.0101 38.2769 44.4432 37.78 44.912C37.3563 45.3113 36.9531 45.7388 36.4769 46.0763C35.995 46.4195 35.44 46.6651 34.855 46.7513C34.1425 46.8563 33.4075 46.7213 32.7456 46.4382C32.2844 46.2395 31.8381 45.9582 31.57 45.5326C31.3038 45.1088 31.2419 44.5913 31.2419 44.0907C31.2381 43.2076 31.405 42.3338 31.5625 41.4657C31.6938 40.7438 31.8175 40.0201 31.8963 39.2907C32.0388 37.9632 32.0331 36.6245 31.9431 35.2932C31.9281 35.0701 31.9113 34.8451 31.945 34.6238C31.9788 34.4026 32.0706 34.1832 32.2394 34.037C32.3988 33.9001 32.6125 33.8401 32.8225 33.8307C33.0306 33.8195 33.2388 33.8532 33.4469 33.8832C33.9363 33.9545 34.4275 34.0088 34.9056 34.1326C35.2075 34.2113 35.5019 34.3163 35.8019 34.3951C36.3044 34.5301 36.8313 34.5938 37.3469 34.5338C37.9038 34.4701 38.4438 34.2638 39.0025 34.277C39.2331 34.2826 39.46 34.3257 39.6794 34.3932C39.9025 34.4626 40.1238 34.562 40.2888 34.727C40.4125 34.8526 40.4969 35.0101 40.5663 35.1732C40.6656 35.4151 40.7331 35.6738 40.7369 35.9363C40.7425 36.2101 40.6844 36.4838 40.72 36.7557C40.75 36.9751 40.8438 37.1832 40.9638 37.3707C41.0819 37.5582 41.2263 37.7288 41.3706 37.8976C41.6481 38.2257 41.9256 38.5595 42.2744 38.8107C42.67 39.0976 43.1406 39.2663 43.5494 39.5326C43.6713 39.6132 43.7894 39.7032 43.8756 39.8213C44.0219 40.0201 44.0594 40.2901 43.9769 40.5226Z" fill="#CD8907"/>
</g>
<g filter="url(#filter14_f_210_290)">
<path d="M43.9206 40.2395C43.8081 40.4926 43.6637 40.727 43.4931 40.9351C43.0956 41.4189 42.5575 41.7507 41.9931 41.9645C41.0612 42.317 40.045 42.3639 39.1319 42.7651C38.575 43.0089 38.0725 43.3764 37.5644 43.7251C37.1556 44.0045 36.7356 44.2764 36.2856 44.4714C35.7756 44.6945 35.2356 44.8182 34.6919 44.9064C34.3469 44.9607 33.9962 45.002 33.6475 44.9832C33.2987 44.9645 32.95 44.882 32.6406 44.7039C32.4081 44.5689 32.1981 44.3757 32.0725 44.1226C31.9356 43.8432 31.9112 43.5151 31.9131 43.1964C31.9225 42.3526 32.1044 41.5164 32.0987 40.6707C32.0931 39.9339 31.9469 39.2082 31.9056 38.4732C31.825 37.0595 32.1287 35.6232 31.8606 34.2376C31.8194 34.0145 31.7612 33.7932 31.7631 33.5664C31.765 33.4539 31.7819 33.3395 31.8212 33.2345C31.8625 33.1314 31.9262 33.0357 32.0106 32.9682C32.0837 32.9139 32.1681 32.8801 32.2562 32.8632C32.3425 32.8482 32.4325 32.852 32.5206 32.8651C32.695 32.8932 32.8619 32.9607 33.0325 33.0114C33.52 33.1576 34.0356 33.1539 34.5325 33.2645C34.8437 33.332 35.1437 33.4464 35.4531 33.5289C35.9687 33.6714 36.5087 33.7314 37.0394 33.6695C37.6094 33.602 38.1662 33.3957 38.74 33.4107C38.9762 33.4164 39.2087 33.4595 39.4356 33.527C39.6625 33.5945 39.8894 33.6901 40.0619 33.8645C40.1837 33.9901 40.2737 34.1495 40.345 34.3145C40.4519 34.5564 40.525 34.8189 40.5231 35.0851C40.5212 35.2239 40.5006 35.3607 40.4875 35.4995C40.4762 35.6382 40.4725 35.7789 40.5044 35.912C40.5381 36.047 40.6075 36.1689 40.6862 36.2795C40.765 36.3901 40.855 36.4895 40.9375 36.5982C41.1662 36.9001 41.3312 37.2526 41.5094 37.592C41.6875 37.9314 41.8881 38.267 42.1712 38.5126C42.5556 38.8445 43.0525 38.9776 43.4819 39.242C43.6075 39.3189 43.7275 39.4089 43.8156 39.5326C43.8869 39.6301 43.9337 39.7482 43.9525 39.872C43.9694 39.9939 43.9581 40.1232 43.9206 40.2395Z" fill="#F5C021"/>
</g>
<g filter="url(#filter15_f_210_290)">
<path d="M31.765 34.0463C32.2937 33.9038 32.7437 34.305 33.1281 34.6069C33.3756 34.8188 33.7356 34.7663 34.0394 34.7757C34.5437 34.7588 35.0444 34.86 35.5487 34.7982C36.5425 34.7138 37.5156 34.47 38.5131 34.4288C38.9894 34.3988 39.5256 34.3707 39.9362 34.6482C40.1031 34.7644 40.3487 35.2538 40.5119 35.07C40.4444 34.5563 40.0637 34.0594 39.5537 33.9225C39.1525 33.8588 38.7475 33.9694 38.3425 33.9338C37.1444 33.9057 35.9519 33.6825 34.75 33.7463C33.9137 33.7538 33.0794 33.7144 32.2431 33.6825C31.915 33.615 31.7987 33.9057 31.6206 34.0182C31.6675 34.0538 31.6844 34.065 31.765 34.0463Z" fill="url(#paint7_linear_210_290)"/>
</g>
<g opacity="0.35" filter="url(#filter16_f_210_290)">
<path d="M38.7794 35.177C38.6894 34.9989 38.5244 34.8657 38.3388 34.7889C38.155 34.712 37.9525 34.6857 37.7519 34.6876C37.3525 34.6914 36.955 34.7945 36.5556 34.7607C36.22 34.7307 35.9013 34.6051 35.5731 34.5245C35.2338 34.442 34.8738 34.4101 34.5381 34.502C34.1781 34.5995 33.8613 34.8414 33.6625 35.1564C33.4863 35.4339 33.4038 35.762 33.3775 36.0901C33.3513 36.4182 33.3794 36.7464 33.4131 37.0745C33.4356 37.3107 33.4638 37.547 33.52 37.7776C33.5781 38.0082 33.6663 38.2332 33.805 38.4264C34.0056 38.7039 34.3038 38.9026 34.6244 39.0207C35.1494 39.2139 35.7456 39.2045 36.2613 38.9926C37.1763 38.5951 37.9506 37.8826 38.4213 37.0051C38.5919 36.6901 38.7231 36.3545 38.8075 36.0095C38.8413 35.8707 38.8675 35.7301 38.8675 35.5876C38.8694 35.447 38.845 35.3026 38.7794 35.177Z" fill="url(#paint8_radial_210_290)"/>
</g>
<g opacity="0.35" filter="url(#filter17_f_210_290)">
<path d="M38.7794 34.667C38.6894 34.5376 38.5244 34.442 38.3388 34.3858C38.155 34.3295 37.9525 34.3126 37.7519 34.3126C37.3525 34.3164 36.955 34.3914 36.5556 34.3651C36.22 34.3445 35.9013 34.2526 35.5731 34.1964C35.2338 34.1364 34.8738 34.112 34.5381 34.1795C34.1781 34.2489 33.8613 34.4233 33.6625 34.652C33.4863 34.8526 33.4038 35.0908 33.3775 35.327C33.3513 35.5633 33.3794 35.8014 33.4131 36.0376C33.4356 36.2083 33.4638 36.3808 33.52 36.5476C33.5781 36.7145 33.6663 36.8776 33.805 37.0164C34.0056 37.217 34.3038 37.3595 34.6244 37.4458C35.1494 37.5864 35.7456 37.5789 36.2613 37.4251C37.1763 37.1383 37.9506 36.6226 38.4213 35.9889C38.5919 35.7601 38.7231 35.5183 38.8075 35.2689C38.8413 35.1676 38.8675 35.0664 38.8675 34.9651C38.8694 34.862 38.845 34.757 38.7794 34.667Z" fill="url(#paint9_radial_210_290)"/>
</g>
<path d="M39.5407 33.51C39.4751 33.3319 39.3588 33.1744 39.2182 33.0469C39.0776 32.9194 38.9107 32.8219 38.7363 32.7469C38.3876 32.5988 38.0069 32.5425 37.6319 32.4731C37.2813 32.4075 36.9307 32.3269 36.5782 32.2669C36.2107 32.205 35.8319 32.1638 35.4682 32.2463C35.1513 32.3175 34.8569 32.4825 34.6169 32.7019C34.3769 32.9213 34.1894 33.195 34.0544 33.4913C33.8163 34.0144 33.7413 34.6013 33.7863 35.1731C33.8201 35.5988 33.9288 36.0375 34.2082 36.3581C34.4351 36.6188 34.7557 36.7819 35.0857 36.8794C35.6557 37.0481 36.2763 37.0388 36.8407 36.855C37.7726 36.5419 38.5976 35.9213 39.1563 35.1131C39.3401 34.845 39.4976 34.5544 39.5688 34.2394C39.6232 33.9994 39.6251 33.7406 39.5407 33.51Z" fill="#020204"/>
<g filter="url(#filter18_f_210_290)">
<path d="M35.6669 32.0757C35.5788 32.0813 35.4925 32.0907 35.4044 32.1075C34.8438 32.2069 34.33 32.5613 34.0413 33.0507C33.8369 33.3975 33.745 33.8063 33.7731 34.2075C33.7863 33.9263 33.8594 33.6507 33.9963 33.405C34.2269 32.9869 34.6469 32.6719 35.1175 32.5857C35.4063 32.5332 35.7044 32.565 35.995 32.6007C36.2763 32.6363 36.5575 32.6738 36.8331 32.7319C37.2606 32.8257 37.6825 32.9682 38.0406 33.2175C38.1231 33.2757 38.2019 33.3413 38.2675 33.42C38.3331 33.4969 38.3838 33.5869 38.4044 33.6863C38.4325 33.8325 38.3913 33.9863 38.3181 34.1157C38.245 34.2469 38.1456 34.3594 38.0406 34.4644C37.9544 34.5507 37.8644 34.6313 37.7725 34.7119C38.1869 34.6313 38.605 34.5188 38.95 34.2788C39.0944 34.1757 39.2275 34.0538 39.3138 33.9C39.4 33.7444 39.4356 33.5569 39.3944 33.3844C39.3644 33.2682 39.3006 33.1613 39.2219 33.0713C39.1431 32.9813 39.0475 32.9082 38.95 32.8388C38.5169 32.535 38.0106 32.3419 37.4856 32.2782C37.1481 32.2163 36.8088 32.1638 36.4694 32.1225C36.205 32.0888 35.9331 32.0607 35.6669 32.0757Z" fill="url(#paint10_radial_210_290)"/>
</g>
<g filter="url(#filter19_f_210_290)">
<path d="M35.6669 32.0757C35.5788 32.0813 35.4925 32.0907 35.4044 32.1075C34.8438 32.2069 34.33 32.5613 34.0413 33.0507C33.8369 33.3975 33.745 33.8063 33.7731 34.2075C33.7863 33.9263 33.8594 33.6507 33.9963 33.405C34.2269 32.9869 34.6469 32.6719 35.1175 32.5857C35.4063 32.5332 35.7044 32.565 35.995 32.6007C36.2763 32.6363 36.5575 32.6738 36.8331 32.7319C37.2606 32.8257 37.6825 32.9682 38.0406 33.2175C38.1231 33.2757 38.2019 33.3413 38.2675 33.42C38.3331 33.4969 38.3838 33.5869 38.4044 33.6863C38.4325 33.8325 38.3913 33.9863 38.3181 34.1157C38.245 34.2469 38.1456 34.3594 38.0406 34.4644C37.9544 34.5507 37.8644 34.6313 37.7725 34.7119C38.1869 34.6313 38.605 34.5188 38.95 34.2788C39.0944 34.1757 39.2275 34.0538 39.3138 33.9C39.4 33.7444 39.4356 33.5569 39.3944 33.3844C39.3644 33.2682 39.3006 33.1613 39.2219 33.0713C39.1431 32.9813 39.0475 32.9082 38.95 32.8388C38.5169 32.535 38.0106 32.3419 37.4856 32.2782C37.1481 32.2163 36.8088 32.1638 36.4694 32.1225C36.205 32.0888 35.9331 32.0607 35.6669 32.0757Z" fill="url(#paint11_linear_210_290)"/>
</g>
<path d="M19.8344 7.17755C19.5476 7.19255 19.2719 7.32567 19.0619 7.52255C18.8501 7.71942 18.7019 7.97817 18.6101 8.25005C18.4282 8.79755 18.4694 9.39005 18.5107 9.96567C18.5482 10.485 18.5876 11.0157 18.7826 11.4994C18.8801 11.7432 19.0169 11.97 19.1988 12.1575C19.3807 12.3432 19.6113 12.4875 19.8644 12.5494C20.1007 12.6094 20.3557 12.5982 20.5882 12.525C20.8226 12.45 21.0344 12.3169 21.2107 12.1463C21.4657 11.8969 21.6363 11.5707 21.7357 11.2275C21.8351 10.8844 21.8632 10.5244 21.8576 10.1663C21.8501 9.72005 21.7919 9.27192 21.6532 8.84817C21.5126 8.42442 21.2894 8.02317 20.9782 7.70255C20.8282 7.54692 20.6557 7.41192 20.4626 7.3163C20.2676 7.22067 20.0501 7.1663 19.8344 7.17755Z" fill="url(#paint12_radial_210_290)"/>
<path d="M19.1407 9.5607C19.0807 9.92445 19.0788 10.3051 19.2025 10.6501C19.285 10.8788 19.4219 11.0869 19.5869 11.2651C19.6938 11.3813 19.8175 11.4863 19.96 11.5557C20.1044 11.6251 20.2694 11.6532 20.425 11.6157C20.5675 11.5801 20.6913 11.4882 20.7832 11.3738C20.875 11.2594 20.9369 11.1226 20.98 10.9819C21.1094 10.5676 21.0888 10.1157 20.9594 9.70132C20.8675 9.39945 20.7119 9.10882 20.4719 8.90632C20.3557 8.80882 20.2207 8.73195 20.0744 8.6982C19.9282 8.66257 19.7688 8.67195 19.6319 8.73382C19.48 8.8032 19.3619 8.93445 19.285 9.08257C19.2082 9.2307 19.1688 9.3957 19.1407 9.5607Z" fill="#020204"/>
<g filter="url(#filter20_f_210_290)">
<path d="M19.9075 9.29826C19.9469 9.40138 20.0781 9.43888 20.1513 9.52138C20.2206 9.60013 20.2938 9.68451 20.3331 9.78388C20.4063 9.97326 20.26 10.2545 20.4138 10.3895C20.4606 10.4308 20.5581 10.4326 20.605 10.3895C20.7906 10.2208 20.7494 9.88138 20.6763 9.64138C20.6088 9.42576 20.4456 9.21951 20.2431 9.11638C20.1494 9.06763 20.0088 9.02826 19.9281 9.09576C19.8775 9.14076 19.8831 9.23451 19.9075 9.29826Z" fill="url(#paint13_linear_210_290)"/>
</g>
<path d="M19.2138 8.33634C19.6488 8.07759 20.1757 8.01759 20.68 8.06446C21.1825 8.11321 21.6682 8.25946 22.1557 8.39259C22.5138 8.49009 22.8757 8.58009 23.2113 8.73759C23.545 8.89509 23.8563 9.12759 24.0419 9.45009C24.0719 9.50071 24.0963 9.55509 24.1282 9.60571C24.16 9.65634 24.1975 9.70321 24.2444 9.73884C24.2913 9.77446 24.3513 9.79884 24.4094 9.79509C24.4394 9.79321 24.4694 9.78571 24.4938 9.77071C24.52 9.75571 24.5425 9.73321 24.5557 9.70696C24.5707 9.67696 24.5763 9.64134 24.5744 9.60759C24.5725 9.57384 24.565 9.54009 24.5557 9.50634C24.4338 9.06196 24.145 8.68509 23.9275 8.27821C23.7963 8.03446 23.6875 7.77946 23.5563 7.53571C23.1007 6.70134 22.3525 6.04696 21.5032 5.62134C20.6538 5.19571 19.705 4.99134 18.7563 4.93696C17.6575 4.87134 16.5569 5.00259 15.4732 5.19384C15.0025 5.27634 14.5244 5.37384 14.11 5.60821C13.9019 5.72446 13.7107 5.87446 13.5625 6.06196C13.4125 6.24759 13.3075 6.47071 13.2719 6.70696C13.24 6.93571 13.2738 7.17009 13.3544 7.38571C13.4332 7.60134 13.5569 7.79821 13.7032 7.97634C13.9919 8.33446 14.365 8.61196 14.7082 8.91946C15.0513 9.22509 15.3682 9.56446 15.7525 9.81759C15.9438 9.94509 16.1519 10.0501 16.3732 10.112C16.5944 10.1738 16.8307 10.1907 17.0557 10.1438C17.2882 10.097 17.5057 9.98259 17.695 9.83634C17.8844 9.69196 18.0475 9.51759 18.2032 9.33759C18.5144 8.97571 18.805 8.58009 19.2138 8.33634Z" fill="url(#paint14_radial_210_290)"/>
<g filter="url(#filter21_f_210_290)">
<path d="M21.0194 6.85693C21.4244 7.23568 21.7244 7.70443 21.9287 8.19943C21.8387 7.65381 21.6981 7.21318 21.3419 6.85693C21.1244 6.65256 20.875 6.47256 20.5956 6.34693C20.3481 6.23631 20.0762 6.16693 19.9187 6.16506C19.7631 6.16131 19.7256 6.16506 19.6937 6.16693C19.66 6.16881 19.6356 6.16881 19.7369 6.18193C19.8381 6.19318 20.065 6.25506 20.3087 6.36381C20.5525 6.47256 20.8 6.65256 21.0194 6.85693Z" fill="url(#paint15_linear_210_290)"/>
</g>
<path d="M24.9269 7.17746C24.4788 7.48684 24.1019 7.91621 23.9182 8.42996C23.6857 9.07684 23.7738 9.80059 23.9988 10.4493C24.2276 11.115 24.6119 11.7487 25.1913 12.1481C25.4801 12.3487 25.8157 12.4856 26.1644 12.5268C26.5151 12.5681 26.8769 12.51 27.1901 12.3487C27.5688 12.15 27.8594 11.8031 28.0394 11.415C28.2194 11.025 28.2963 10.5956 28.3207 10.1662C28.3507 9.62246 28.2982 9.06746 28.1182 8.55184C27.9232 7.99121 27.5707 7.47371 27.0719 7.15121C26.8244 6.98996 26.5413 6.87934 26.2469 6.83809C25.9526 6.79684 25.6488 6.82871 25.3713 6.93559C25.2138 6.99746 25.0676 7.08184 24.9269 7.17746Z" fill="url(#paint16_radial_210_290)"/>
<path d="M25.9638 8.53504C25.7951 8.54629 25.6301 8.60442 25.4857 8.69442C25.3432 8.78442 25.2213 8.90629 25.1257 9.04692C24.9326 9.32629 24.8482 9.66754 24.8351 10.0069C24.8257 10.26 24.8538 10.5169 24.9382 10.7569C25.0226 10.9969 25.1632 11.22 25.3601 11.3813C25.5607 11.5482 25.8138 11.6475 26.0745 11.6607C26.3351 11.6719 26.5976 11.5969 26.8113 11.4488C26.982 11.3307 27.1188 11.1675 27.2163 10.9838C27.3138 10.8019 27.3738 10.5994 27.4001 10.3932C27.447 10.0313 27.3945 9.65254 27.2257 9.32629C27.0588 9.00004 26.7738 8.73192 26.4307 8.60629C26.2807 8.55192 26.1213 8.52379 25.9638 8.53504Z" fill="#020204"/>
<g filter="url(#filter22_f_210_290)">
<path d="M27.0082 10.005C27.1957 9.81748 26.8751 9.3206 26.6238 9.11623C26.442 8.96998 25.9151 8.81435 25.9376 8.9756C25.9601 9.13498 26.1982 9.34123 26.3557 9.49873C26.5526 9.69186 26.9182 10.095 27.0082 10.005Z" fill="url(#paint17_linear_210_290)"/>
</g>
<path d="M23.23 8.8144C23.6163 8.49377 24.0644 8.25002 24.5425 8.1019C25.5269 7.79815 26.6425 7.91815 27.5125 8.47127C27.8125 8.66065 28.0807 8.8969 28.36 9.11815C28.6375 9.33752 28.9338 9.54377 29.2694 9.6619C29.4513 9.72565 29.6444 9.76315 29.8357 9.74252C30.0082 9.72565 30.175 9.66002 30.3175 9.56252C30.46 9.46315 30.58 9.3319 30.67 9.18377C30.85 8.88752 30.9082 8.52752 30.8763 8.18252C30.8144 7.49065 30.4244 6.88127 30.0982 6.26815C29.995 6.0769 29.8976 5.8819 29.7738 5.70377C29.3969 5.1544 28.7932 4.79252 28.1613 4.58065C27.5294 4.36877 26.8619 4.2919 26.2 4.2094C25.9038 4.1719 25.6057 4.13252 25.3113 4.16815C24.9719 4.2094 24.6532 4.34627 24.3213 4.43065C24.1638 4.4719 24.0044 4.50002 23.8488 4.54502C23.6932 4.59002 23.5394 4.6519 23.4119 4.75315C23.2282 4.90127 23.1119 5.1244 23.0613 5.35502C23.0107 5.58752 23.0219 5.82752 23.0594 6.0619C23.1325 6.53065 23.3088 6.98627 23.2919 7.46065C23.2807 7.78502 23.1775 8.10565 23.1907 8.43002C23.1944 8.52565 23.2132 8.72065 23.23 8.8144Z" fill="url(#paint18_linear_210_290)"/>
<g filter="url(#filter23_f_210_290)">
<path d="M26.4869 5.84625C26.41 5.94375 26.3406 6.04875 26.2863 6.165C26.6331 6.24 26.9631 6.3825 27.2594 6.57938C27.8331 6.96 28.2681 7.515 28.5738 8.13375C28.645 8.055 28.7088 7.97063 28.765 7.87688C28.4575 7.23188 28.015 6.64875 27.4225 6.255C27.1375 6.0675 26.8206 5.92313 26.4869 5.84625Z" fill="url(#paint19_linear_210_290)"/>
</g>
<g filter="url(#filter24_f_210_290)">
<path d="M19.2101 16.7493C19.4857 17.5481 20.0388 18.2287 20.6951 18.7593C20.9126 18.9374 21.1432 19.1006 21.4001 19.2149C21.6551 19.3312 21.9382 19.3968 22.2176 19.3724C22.4913 19.3499 22.7519 19.2412 22.9919 19.1062C23.2319 18.9712 23.4532 18.8081 23.6857 18.6618C24.0832 18.4087 24.5088 18.2043 24.9232 17.9793C25.4201 17.7074 25.9038 17.3981 26.3219 17.0156C26.5151 16.8412 26.6932 16.6499 26.9051 16.4999C27.1169 16.3481 27.3719 16.2393 27.6307 16.2581C27.8257 16.2712 28.0076 16.3537 28.1988 16.3949C28.2944 16.4156 28.3919 16.4249 28.4894 16.4099C28.5851 16.3949 28.6788 16.3556 28.7463 16.2843C28.8288 16.1981 28.8663 16.0743 28.8607 15.9543C28.8569 15.8362 28.8157 15.7199 28.7594 15.6149C28.6488 15.4031 28.4801 15.2212 28.4051 14.9943C28.3376 14.7918 28.3507 14.5743 28.3563 14.3624C28.3619 14.1487 28.3582 13.9274 28.2607 13.7381C28.1857 13.5956 28.0601 13.4812 27.9176 13.4062C27.7751 13.3293 27.6138 13.2899 27.4526 13.2749C27.1301 13.2449 26.8076 13.3087 26.4832 13.3256C26.0557 13.3499 25.6244 13.2974 25.1951 13.3218C24.6607 13.3556 24.1357 13.5093 23.5994 13.5112C22.9882 13.5131 22.3769 13.3124 21.7732 13.4081C21.5126 13.4493 21.2651 13.5431 21.0176 13.6256C20.7682 13.7099 20.5113 13.7831 20.2488 13.7793C19.9507 13.7737 19.6619 13.6706 19.3638 13.6499C19.2157 13.6387 19.0638 13.6499 18.9232 13.7024C18.7844 13.7549 18.6588 13.8506 18.5894 13.9837C18.5501 14.0587 18.5313 14.1449 18.5276 14.2293C18.5238 14.3156 18.5351 14.3999 18.5557 14.4843C18.5969 14.6493 18.6738 14.8049 18.7357 14.9624C18.9607 15.5381 19.0094 16.1662 19.2101 16.7493Z" fill="black" fill-opacity="0.258824"/>
</g>
<g opacity="0.3" filter="url(#filter25_f_210_290)">
<path d="M18.4432 14.4749C18.9776 14.8049 19.4576 15.2118 19.8607 15.673C20.2338 16.1024 20.5507 16.5899 21.0401 16.9068C21.3832 17.1318 21.7976 17.2574 22.2176 17.2968C22.7107 17.3418 23.2094 17.2687 23.6857 17.1393C24.1263 17.0212 24.5519 16.8524 24.9419 16.6312C25.6863 16.2093 26.3069 15.5905 27.1263 15.313C27.3044 15.2512 27.4901 15.208 27.6626 15.133C27.8351 15.0599 27.9982 14.9474 28.0807 14.7899C28.1594 14.6362 28.1557 14.4618 28.1819 14.2949C28.2101 14.1149 28.2719 13.9424 28.3057 13.7643C28.3394 13.5862 28.3432 13.3968 28.2607 13.2337C28.1913 13.0987 28.0657 12.9918 27.9213 12.9224C27.7769 12.8549 27.6138 12.8249 27.4507 12.8174C27.1282 12.8024 26.8076 12.8793 26.4832 12.9055C26.0557 12.9412 25.6244 12.8905 25.1951 12.9037C24.6607 12.9187 24.1338 13.0293 23.5994 13.0537C22.9901 13.0799 22.3826 12.9899 21.7732 12.9712C21.5088 12.9618 21.2426 12.9655 20.9838 13.0087C20.7232 13.0499 20.4682 13.1305 20.2488 13.2655C20.0351 13.3949 19.8607 13.573 19.6657 13.7249C19.5682 13.8018 19.4632 13.8712 19.3507 13.9255C19.2363 13.978 19.1107 14.0155 18.9832 14.0212C18.9176 14.023 18.8501 14.0193 18.7863 14.0287C18.6757 14.0437 18.5744 14.1018 18.5107 14.1843C18.4469 14.2687 18.4226 14.3755 18.4432 14.4749Z" fill="black"/>
</g>
<path d="M21.1863 10.9743C21.4732 10.6537 21.6682 10.2618 21.942 9.93185C22.0788 9.76685 22.2382 9.61497 22.4238 9.5081C22.6095 9.40122 22.827 9.34122 23.0407 9.35997C23.2788 9.3806 23.502 9.49872 23.6763 9.66185C23.8507 9.82497 23.9801 10.0312 24.0832 10.2468C24.1826 10.455 24.2613 10.6743 24.4038 10.8543C24.5557 11.0456 24.7676 11.175 24.9607 11.3268C25.0563 11.4018 25.1501 11.4825 25.2251 11.5781C25.302 11.6737 25.3601 11.7843 25.3863 11.9043C25.4107 12.0262 25.3976 12.1537 25.3563 12.27C25.3132 12.3862 25.242 12.4912 25.152 12.5775C24.9738 12.75 24.7301 12.8437 24.4845 12.8775C23.9932 12.9468 23.4963 12.8006 22.9995 12.8137C22.4988 12.8287 22.0076 13.005 21.5051 12.9881C21.2557 12.9787 21.0007 12.9168 20.7945 12.7743C20.6913 12.7012 20.6013 12.6093 20.5357 12.5025C20.472 12.3956 20.4326 12.2718 20.427 12.1462C20.4232 12.0262 20.4513 11.9062 20.5001 11.7975C20.547 11.6868 20.6145 11.5875 20.6895 11.4937C20.8413 11.3081 21.027 11.1543 21.1863 10.9743Z" fill="url(#paint20_radial_210_290)"/>
<path d="M18.4639 14.0718C18.4751 14.1206 18.492 14.1656 18.5164 14.2087C18.5595 14.2799 18.6232 14.3381 18.6907 14.3868C18.7582 14.4374 18.8314 14.4787 18.9026 14.5218C19.2795 14.7599 19.587 15.0918 19.8607 15.4443C20.2264 15.9168 20.5507 16.4399 21.0401 16.7831C21.3851 17.0268 21.7976 17.1637 22.2176 17.2068C22.7107 17.2556 23.2095 17.1768 23.6857 17.0362C24.1264 16.9068 24.552 16.7249 24.942 16.4831C25.6864 16.0256 26.307 15.3543 27.1264 15.0524C27.3045 14.9868 27.4901 14.9399 27.6626 14.8593C27.8351 14.7768 27.9982 14.6568 28.0807 14.4843C28.1595 14.3193 28.1557 14.1281 28.182 13.9462C28.2101 13.7531 28.272 13.5656 28.3057 13.3724C28.3395 13.1793 28.3432 12.9731 28.2607 12.7949C28.1914 12.6487 28.0657 12.5324 27.9214 12.4593C27.777 12.3843 27.6139 12.3506 27.4507 12.3431C27.1282 12.3281 26.8076 12.4106 26.4832 12.4406C26.0557 12.4799 25.6245 12.4237 25.1951 12.4368C24.6607 12.4537 24.1339 12.5737 23.5995 12.5999C22.9901 12.6281 22.3826 12.5343 21.7732 12.5099C21.5089 12.4987 21.2426 12.5024 20.982 12.5474C20.7214 12.5906 20.4664 12.6806 20.2489 12.8306C20.037 12.9768 19.8682 13.1756 19.6732 13.3443C19.5757 13.4287 19.4707 13.5056 19.3545 13.5618C19.2401 13.6181 19.1126 13.6537 18.9832 13.6499C18.9176 13.6481 18.8482 13.6387 18.7864 13.6574C18.747 13.6706 18.7114 13.6949 18.6814 13.7231C18.6514 13.7531 18.627 13.7868 18.6045 13.8206C18.5501 13.8993 18.5032 13.9837 18.4639 14.0718Z" fill="url(#paint21_radial_210_290)"/>
<g filter="url(#filter26_f_210_290)">
<path d="M20.8564 14.73C20.7945 14.9868 20.832 15.2681 20.9614 15.5006C21.0889 15.7331 21.3064 15.9131 21.5595 15.9975C21.8783 16.1043 22.2383 16.0518 22.5364 15.8962C22.7108 15.8062 22.8683 15.6787 22.9676 15.51C23.0183 15.4275 23.0539 15.3337 23.067 15.2362C23.0783 15.1406 23.0708 15.0393 23.037 14.9475C22.9995 14.8481 22.932 14.76 22.8514 14.6906C22.7689 14.6212 22.6733 14.5706 22.5701 14.5368C22.3676 14.4693 22.0508 14.4131 21.837 14.4093C21.4583 14.4018 20.9183 14.4731 20.8564 14.73Z" fill="#D9B30D"/>
</g>
<g filter="url(#filter27_f_210_290)">
<path d="M19.8081 12.7237C19.5906 12.8512 19.3825 12.9918 19.1781 13.1362C19.0712 13.213 18.9625 13.2937 18.9062 13.4118C18.8668 13.4943 18.8575 13.588 18.8556 13.6799C18.8556 13.7737 18.8612 13.8655 18.8481 13.9574C18.8406 14.0193 18.8237 14.0812 18.8218 14.143C18.82 14.1749 18.8218 14.2068 18.8293 14.2368C18.8387 14.2668 18.8537 14.2968 18.8743 14.3193C18.9025 14.3493 18.94 14.368 18.9793 14.3793C19.0187 14.3905 19.0581 14.3962 19.0993 14.4055C19.2887 14.4505 19.4537 14.5668 19.5981 14.698C19.7425 14.8274 19.8737 14.9755 20.0256 15.0974C20.4343 15.4312 20.9762 15.5699 21.505 15.5774C22.0337 15.5868 22.5568 15.4762 23.0725 15.3599C23.4775 15.268 23.8825 15.1743 24.2706 15.0299C24.8706 14.8087 25.4256 14.4749 25.9056 14.0568C26.125 13.8674 26.3293 13.6593 26.575 13.5055C26.7906 13.3687 27.0325 13.2787 27.2537 13.1493C27.2743 13.138 27.2931 13.1249 27.31 13.1118C27.3287 13.0968 27.3437 13.078 27.355 13.0593C27.3718 13.0237 27.3718 12.9805 27.3606 12.943C27.3493 12.9055 27.3268 12.8718 27.3025 12.8399C27.2743 12.8062 27.2443 12.7762 27.2106 12.7462C26.98 12.5493 26.6687 12.478 26.365 12.4537C26.0631 12.4312 25.7575 12.448 25.4593 12.3974C25.1781 12.3505 24.9118 12.2455 24.64 12.1593C24.355 12.0674 24.0643 11.9962 23.77 11.9474C23.0743 11.833 22.36 11.8555 21.6718 11.998C21.0175 12.1349 20.3837 12.3824 19.8081 12.7237Z" fill="#604405"/>
</g>
<path d="M19.7388 11.9905C19.4275 12.2005 19.1463 12.4574 18.9081 12.748C18.7731 12.9149 18.6494 13.0968 18.5819 13.2993C18.5275 13.4605 18.5088 13.6293 18.475 13.7961C18.4619 13.858 18.4469 13.9199 18.4488 13.9836C18.4488 14.0136 18.4525 14.0455 18.4619 14.0774C18.4713 14.1074 18.4881 14.1355 18.5088 14.158C18.5463 14.1955 18.5969 14.2161 18.6475 14.2274C18.7 14.2368 18.7525 14.2386 18.805 14.2443C19.0394 14.2724 19.255 14.3849 19.45 14.5199C19.645 14.653 19.825 14.8105 20.0256 14.9361C20.4663 15.2155 20.9931 15.3393 21.5163 15.3599C22.0375 15.3805 22.5588 15.3018 23.0725 15.1986C23.4794 15.118 23.8844 15.0205 24.2706 14.8686C24.8631 14.6343 25.3975 14.2761 25.9056 13.8955C26.1381 13.723 26.3669 13.5449 26.575 13.3443C26.6444 13.2749 26.7138 13.2055 26.7888 13.1418C26.8638 13.0799 26.9481 13.0255 27.0419 12.9955C27.1844 12.9505 27.3381 12.9636 27.4863 12.988C27.5969 13.0068 27.7075 13.0311 27.82 13.0274C27.8763 13.0236 27.9325 13.0143 27.985 12.9936C28.0375 12.973 28.0863 12.9411 28.1219 12.8961C28.1688 12.8399 28.1931 12.7649 28.1931 12.6918C28.1931 12.6168 28.1706 12.5436 28.1331 12.4799C28.0581 12.3524 27.9288 12.2661 27.7938 12.2061C27.6081 12.1236 27.4075 12.0843 27.2106 12.0355C26.605 11.8893 26.0163 11.6736 25.4594 11.3961C25.1819 11.2593 24.9119 11.1074 24.64 10.9611C24.3588 10.8111 24.0738 10.6668 23.77 10.573C23.0875 10.3668 22.345 10.4343 21.6719 10.6686C20.9256 10.9274 20.2506 11.3886 19.7388 11.9905Z" fill="url(#paint22_linear_210_290)"/>
<g filter="url(#filter28_f_210_290)">
<path d="M24.5219 12.1405C24.4844 12.0955 24.4319 12.0617 24.3756 12.0449C24.3194 12.028 24.2594 12.028 24.2013 12.0374C24.085 12.058 23.98 12.1199 23.8825 12.1874C23.6069 12.3767 23.3631 12.6111 23.1494 12.8699C22.8681 13.213 22.6356 13.6086 22.5569 14.0455C22.5438 14.1186 22.5363 14.1955 22.5438 14.2686C22.5531 14.3436 22.5813 14.4167 22.6356 14.4692C22.6806 14.5161 22.7444 14.5442 22.8081 14.5536C22.8738 14.563 22.9413 14.5536 23.0031 14.533C23.1269 14.4917 23.23 14.4036 23.3294 14.3174C23.8675 13.8336 24.355 13.2561 24.55 12.5586C24.5688 12.4892 24.5856 12.418 24.5856 12.3449C24.5856 12.2717 24.5669 12.1986 24.5219 12.1405Z" fill="#F6DA4A"/>
</g>
<g opacity="0.8" filter="url(#filter29_f_210_290)">
<path d="M21.385 11.0737C21.2407 11.0268 21.0044 11.28 21.0813 11.4093C21.1019 11.445 21.1675 11.49 21.2125 11.4656C21.2782 11.43 21.3325 11.2987 21.4038 11.2481C21.4507 11.2143 21.4413 11.0906 21.385 11.0737Z" fill="url(#paint23_radial_210_290)"/>
</g>
<g opacity="0.8" filter="url(#filter30_f_210_290)">
<path d="M23.23 11.1413C23.2675 11.2613 23.4606 11.2406 23.5731 11.2988C23.6706 11.3494 23.7494 11.46 23.86 11.4638C23.965 11.4656 24.13 11.4263 24.1431 11.3213C24.16 11.1844 23.9594 11.0963 23.83 11.0456C23.6631 10.9819 23.4494 10.9481 23.2937 11.0344C23.2581 11.055 23.2187 11.1019 23.23 11.1413Z" fill="url(#paint24_radial_210_290)"/>
</g>
<g filter="url(#filter31_f_210_290)">
<path d="M28.2382 12.9656C28.2208 13.1171 28.1556 13.2623 28.0568 13.3692C27.9579 13.4761 27.8337 13.536 27.7114 13.5356C27.5891 13.5356 27.4787 13.4757 27.4041 13.3688C27.3296 13.2619 27.2972 13.1169 27.3139 12.9656C27.3223 12.8904 27.3426 12.8159 27.3737 12.7464C27.4047 12.677 27.4459 12.6139 27.4949 12.5608C27.5438 12.5076 27.5996 12.4655 27.6589 12.4369C27.7183 12.4082 27.7801 12.3935 27.8407 12.3937C27.9014 12.3936 27.9598 12.4084 28.0126 12.4371C28.0655 12.4658 28.1117 12.5079 28.1486 12.561C28.1855 12.6141 28.2124 12.6772 28.2278 12.7466C28.2432 12.816 28.2467 12.8904 28.2382 12.9656Z" fill="url(#paint25_linear_210_290)"/>
</g>
<defs>
<filter id="filter0_f_210_290" x="14.5901" y="19.7043" width="6.24941" height="5.87813" filterUnits="userSpaceOnUse" color-interpolation-filters="sRGB">
<feFlood flood-opacity="0" result="BackgroundImageFix"/>
<feBlend mode="normal" in="SourceGraphic" in2="BackgroundImageFix" result="shape"/>
<feGaussianBlur stdDeviation="0.12" result="effect1_foregroundBlur_210_290"/>
</filter>
<filter id="filter1_f_210_290" x="23.1213" y="19.1531" width="9.42519" height="6.75935" filterUnits="userSpaceOnUse" color-interpolation-filters="sRGB">
<feFlood flood-opacity="0" result="BackgroundImageFix"/>
<feBlend mode="normal" in="SourceGraphic" in2="BackgroundImageFix" result="shape"/>
<feGaussianBlur stdDeviation="0.18375" result="effect1_foregroundBlur_210_290"/>
</filter>
<filter id="filter2_f_210_290" x="19.7856" y="19.9593" width="4.01439" height="4.25628" filterUnits="userSpaceOnUse" color-interpolation-filters="sRGB">
<feFlood flood-opacity="0" result="BackgroundImageFix"/>
<feBlend mode="normal" in="SourceGraphic" in2="BackgroundImageFix" result="shape"/>
<feGaussianBlur stdDeviation="0.1275" result="effect1_foregroundBlur_210_290"/>
</filter>
<filter id="filter3_f_210_290" x="19.7505" y="25.2451" width="1.6239" height="10.6369" filterUnits="userSpaceOnUse" color-interpolation-filters="sRGB">
<feFlood flood-opacity="0" result="BackgroundImageFix"/>
<feBlend mode="normal" in="SourceGraphic" in2="BackgroundImageFix" result="shape"/>
<feGaussianBlur stdDeviation="0.234375" result="effect1_foregroundBlur_210_290"/>
</filter>
<filter id="filter4_f_210_290" x="32.9494" y="23.9374" width="2.96317" height="2.99711" filterUnits="userSpaceOnUse" color-interpolation-filters="sRGB">
<feFlood flood-opacity="0" result="BackgroundImageFix"/>
<feBlend mode="normal" in="SourceGraphic" in2="BackgroundImageFix" result="shape"/>
<feGaussianBlur stdDeviation="0.33375" result="effect1_foregroundBlur_210_290"/>
</filter>
<filter id="filter5_f_210_290" x="25.6825" y="1.40789" width="3.95827" height="3.82027" filterUnits="userSpaceOnUse" color-interpolation-filters="sRGB">
<feFlood flood-opacity="0" result="BackgroundImageFix"/>
<feBlend mode="normal" in="SourceGraphic" in2="BackgroundImageFix" result="shape"/>
<feGaussianBlur stdDeviation="0.324375" result="effect1_foregroundBlur_210_290"/>
</filter>
<filter id="filter6_f_210_290" x="29.5155" y="14.0133" width="2.55241" height="2.77641" filterUnits="userSpaceOnUse" color-interpolation-filters="sRGB">
<feFlood flood-opacity="0" result="BackgroundImageFix"/>
<feBlend mode="normal" in="SourceGraphic" in2="BackgroundImageFix" result="shape"/>
<feGaussianBlur stdDeviation="0.14625" result="effect1_foregroundBlur_210_290"/>
</filter>
<filter id="filter7_f_210_290" x="11.0763" y="22.936" width="5.08192" height="11.0238" filterUnits="userSpaceOnUse" color-interpolation-filters="sRGB">
<feFlood flood-opacity="0" result="BackgroundImageFix"/>
<feBlend mode="normal" in="SourceGraphic" in2="BackgroundImageFix" result="shape"/>
<feGaussianBlur stdDeviation="0.18375" result="effect1_foregroundBlur_210_290"/>
</filter>
<filter id="filter8_f_210_290" x="31.7576" y="21.8644" width="5.43461" height="13.9856" filterUnits="userSpaceOnUse" color-interpolation-filters="sRGB">
<feFlood flood-opacity="0" result="BackgroundImageFix"/>
<feBlend mode="normal" in="SourceGraphic" in2="BackgroundImageFix" result="shape"/>
<feGaussianBlur stdDeviation="0.223125" result="effect1_foregroundBlur_210_290"/>
</filter>
<filter id="filter9_f_210_290" x="3.347" y="31.9684" width="16.6887" height="16.5597" filterUnits="userSpaceOnUse" color-interpolation-filters="sRGB">
<feFlood flood-opacity="0" result="BackgroundImageFix"/>
<feBlend mode="normal" in="SourceGraphic" in2="BackgroundImageFix" result="shape"/>
<feGaussianBlur stdDeviation="0.63375" result="effect1_foregroundBlur_210_290"/>
</filter>
<filter id="filter10_f_210_290" x="4.31577" y="31.8344" width="14.1117" height="14.883" filterUnits="userSpaceOnUse" color-interpolation-filters="sRGB">
<feFlood flood-opacity="0" result="BackgroundImageFix"/>
<feBlend mode="normal" in="SourceGraphic" in2="BackgroundImageFix" result="shape"/>
<feGaussianBlur stdDeviation="0.39375" result="effect1_foregroundBlur_210_290"/>
</filter>
<filter id="filter11_f_210_290" x="13.48" y="35.1694" width="4.49244" height="7.95375" filterUnits="userSpaceOnUse" color-interpolation-filters="sRGB">
<feFlood flood-opacity="0" result="BackgroundImageFix"/>
<feBlend mode="normal" in="SourceGraphic" in2="BackgroundImageFix" result="shape"/>
<feGaussianBlur stdDeviation="0.06" result="effect1_foregroundBlur_210_290"/>
</filter>
<filter id="filter12_f_210_290" x="28.998" y="34.6033" width="13.0018" height="14.0225" filterUnits="userSpaceOnUse" color-interpolation-filters="sRGB">
<feFlood flood-opacity="0" result="BackgroundImageFix"/>
<feBlend mode="normal" in="SourceGraphic" in2="BackgroundImageFix" result="shape"/>
<feGaussianBlur stdDeviation="0.365625" result="effect1_foregroundBlur_210_290"/>
</filter>
<filter id="filter13_f_210_290" x="29.6968" y="32.2835" width="15.8681" height="16.0483" filterUnits="userSpaceOnUse" color-interpolation-filters="sRGB">
<feFlood flood-opacity="0" result="BackgroundImageFix"/>
<feBlend mode="normal" in="SourceGraphic" in2="BackgroundImageFix" result="shape"/>
<feGaussianBlur stdDeviation="0.7725" result="effect1_foregroundBlur_210_290"/>
</filter>
<filter id="filter14_f_210_290" x="30.5931" y="31.6835" width="14.537" height="14.4743" filterUnits="userSpaceOnUse" color-interpolation-filters="sRGB">
<feFlood flood-opacity="0" result="BackgroundImageFix"/>
<feBlend mode="normal" in="SourceGraphic" in2="BackgroundImageFix" result="shape"/>
<feGaussianBlur stdDeviation="0.585" result="effect1_foregroundBlur_210_290"/>
</filter>
<filter id="filter15_f_210_290" x="31.4669" y="33.5187" width="9.19874" height="1.74585" filterUnits="userSpaceOnUse" color-interpolation-filters="sRGB">
<feFlood flood-opacity="0" result="BackgroundImageFix"/>
<feBlend mode="normal" in="SourceGraphic" in2="BackgroundImageFix" result="shape"/>
<feGaussianBlur stdDeviation="0.076875" result="effect1_foregroundBlur_210_290"/>
</filter>
<filter id="filter16_f_210_290" x="32.4484" y="33.5275" width="7.33799" height="6.55009" filterUnits="userSpaceOnUse" color-interpolation-filters="sRGB">
<feFlood flood-opacity="0" result="BackgroundImageFix"/>
<feBlend mode="normal" in="SourceGraphic" in2="BackgroundImageFix" result="shape"/>
<feGaussianBlur stdDeviation="0.459375" result="effect1_foregroundBlur_210_290"/>
</filter>
<filter id="filter17_f_210_290" x="32.9472" y="33.7189" width="6.34049" height="4.24717" filterUnits="userSpaceOnUse" color-interpolation-filters="sRGB">
<feFlood flood-opacity="0" result="BackgroundImageFix"/>
<feBlend mode="normal" in="SourceGraphic" in2="BackgroundImageFix" result="shape"/>
<feGaussianBlur stdDeviation="0.21" result="effect1_foregroundBlur_210_290"/>
</filter>
<filter id="filter18_f_210_290" x="33.4382" y="31.7415" width="6.30331" height="3.30038" filterUnits="userSpaceOnUse" color-interpolation-filters="sRGB">
<feFlood flood-opacity="0" result="BackgroundImageFix"/>
<feBlend mode="normal" in="SourceGraphic" in2="BackgroundImageFix" result="shape"/>
<feGaussianBlur stdDeviation="0.165" result="effect1_foregroundBlur_210_290"/>
</filter>
<filter id="filter19_f_210_290" x="33.4382" y="31.7415" width="6.30331" height="3.30038" filterUnits="userSpaceOnUse" color-interpolation-filters="sRGB">
<feFlood flood-opacity="0" result="BackgroundImageFix"/>
<feBlend mode="normal" in="SourceGraphic" in2="BackgroundImageFix" result="shape"/>
<feGaussianBlur stdDeviation="0.165" result="effect1_foregroundBlur_210_290"/>
</filter>
<filter id="filter20_f_210_290" x="19.7244" y="8.89475" width="1.17863" height="1.69139" filterUnits="userSpaceOnUse" color-interpolation-filters="sRGB">
<feFlood flood-opacity="0" result="BackgroundImageFix"/>
<feBlend mode="normal" in="SourceGraphic" in2="BackgroundImageFix" result="shape"/>
<feGaussianBlur stdDeviation="0.0825" result="effect1_foregroundBlur_210_290"/>
</filter>
<filter id="filter21_f_210_290" x="19.6194" y="6.11845" width="2.35428" height="2.12595" filterUnits="userSpaceOnUse" color-interpolation-filters="sRGB">
<feFlood flood-opacity="0" result="BackgroundImageFix"/>
<feBlend mode="normal" in="SourceGraphic" in2="BackgroundImageFix" result="shape"/>
<feGaussianBlur stdDeviation="0.0225" result="effect1_foregroundBlur_210_290"/>
</filter>
<filter id="filter22_f_210_290" x="25.7681" y="8.73848" width="1.46506" height="1.44816" filterUnits="userSpaceOnUse" color-interpolation-filters="sRGB">
<feFlood flood-opacity="0" result="BackgroundImageFix"/>
<feBlend mode="normal" in="SourceGraphic" in2="BackgroundImageFix" result="shape"/>
<feGaussianBlur stdDeviation="0.084375" result="effect1_foregroundBlur_210_290"/>
</filter>
<filter id="filter23_f_210_290" x="26.2375" y="5.7975" width="2.57626" height="2.38498" filterUnits="userSpaceOnUse" color-interpolation-filters="sRGB">
<feFlood flood-opacity="0" result="BackgroundImageFix"/>
<feBlend mode="normal" in="SourceGraphic" in2="BackgroundImageFix" result="shape"/>
<feGaussianBlur stdDeviation="0.024375" result="effect1_foregroundBlur_210_290"/>
</filter>
<filter id="filter24_f_210_290" x="17.8706" y="12.6108" width="11.6469" height="7.42297" filterUnits="userSpaceOnUse" color-interpolation-filters="sRGB">
<feFlood flood-opacity="0" result="BackgroundImageFix"/>
<feBlend mode="normal" in="SourceGraphic" in2="BackgroundImageFix" result="shape"/>
<feGaussianBlur stdDeviation="0.328125" result="effect1_foregroundBlur_210_290"/>
</filter>
<filter id="filter25_f_210_290" x="18.136" y="12.5155" width="10.4922" height="5.09463" filterUnits="userSpaceOnUse" color-interpolation-filters="sRGB">
<feFlood flood-opacity="0" result="BackgroundImageFix"/>
<feBlend mode="normal" in="SourceGraphic" in2="BackgroundImageFix" result="shape"/>
<feGaussianBlur stdDeviation="0.15" result="effect1_foregroundBlur_210_290"/>
</filter>
<filter id="filter26_f_210_290" x="20.5385" y="14.1201" width="2.82213" height="2.22221" filterUnits="userSpaceOnUse" color-interpolation-filters="sRGB">
<feFlood flood-opacity="0" result="BackgroundImageFix"/>
<feBlend mode="normal" in="SourceGraphic" in2="BackgroundImageFix" result="shape"/>
<feGaussianBlur stdDeviation="0.144375" result="effect1_foregroundBlur_210_290"/>
</filter>
<filter id="filter27_f_210_290" x="18.5774" y="11.6307" width="9.03474" height="4.19099" filterUnits="userSpaceOnUse" color-interpolation-filters="sRGB">
<feFlood flood-opacity="0" result="BackgroundImageFix"/>
<feBlend mode="normal" in="SourceGraphic" in2="BackgroundImageFix" result="shape"/>
<feGaussianBlur stdDeviation="0.121875" result="effect1_foregroundBlur_210_290"/>
</filter>
<filter id="filter28_f_210_290" x="22.267" y="11.7573" width="2.5923" height="3.07368" filterUnits="userSpaceOnUse" color-interpolation-filters="sRGB">
<feFlood flood-opacity="0" result="BackgroundImageFix"/>
<feBlend mode="normal" in="SourceGraphic" in2="BackgroundImageFix" result="shape"/>
<feGaussianBlur stdDeviation="0.136875" result="effect1_foregroundBlur_210_290"/>
</filter>
<filter id="filter29_f_210_290" x="21.0288" y="11.0305" width="0.442554" height="0.479541" filterUnits="userSpaceOnUse" color-interpolation-filters="sRGB">
<feFlood flood-opacity="0" result="BackgroundImageFix"/>
<feBlend mode="normal" in="SourceGraphic" in2="BackgroundImageFix" result="shape"/>
<feGaussianBlur stdDeviation="0.01875" result="effect1_foregroundBlur_210_290"/>
</filter>
<filter id="filter30_f_210_290" x="23.1905" y="10.945" width="0.991138" height="0.556323" filterUnits="userSpaceOnUse" color-interpolation-filters="sRGB">
<feFlood flood-opacity="0" result="BackgroundImageFix"/>
<feBlend mode="normal" in="SourceGraphic" in2="BackgroundImageFix" result="shape"/>
<feGaussianBlur stdDeviation="0.01875" result="effect1_foregroundBlur_210_290"/>
</filter>
<filter id="filter31_f_210_290" x="27.2233" y="12.3074" width="1.10573" height="1.31441" filterUnits="userSpaceOnUse" color-interpolation-filters="sRGB">
<feFlood flood-opacity="0" result="BackgroundImageFix"/>
<feBlend mode="normal" in="SourceGraphic" in2="BackgroundImageFix" result="shape"/>
<feGaussianBlur stdDeviation="0.043125" result="effect1_foregroundBlur_210_290"/>
</filter>
<radialGradient id="paint0_radial_210_290" cx="0" cy="0" r="1" gradientUnits="userSpaceOnUse" gradientTransform="translate(15.4713 22.7231) scale(3.5625 3.375)">
<stop/>
<stop offset="1" stop-opacity="0.25"/>
</radialGradient>
<radialGradient id="paint1_radial_210_290" cx="0" cy="0" r="1" gradientUnits="userSpaceOnUse" gradientTransform="translate(27.5763 24.675) scale(4.425 3.375)">
<stop/>
<stop offset="1" stop-opacity="0.25"/>
</radialGradient>
<radialGradient id="paint2_radial_210_290" cx="0" cy="0" r="1" gradientUnits="userSpaceOnUse" gradientTransform="translate(21.6644 23.9005) scale(1.75312 1.875)">
<stop/>
<stop offset="1" stop-opacity="0.25"/>
</radialGradient>
<linearGradient id="paint3_linear_210_290" x1="8.34625" y1="36.1894" x2="16.0581" y2="49.1288" gradientUnits="userSpaceOnUse">
<stop stop-color="#B98309"/>
<stop offset="1" stop-color="#382605"/>
</linearGradient>
<linearGradient id="paint4_linear_210_290" x1="16.0881" y1="39.5307" x2="18.5144" y2="44.1019" gradientUnits="userSpaceOnUse">
<stop stop-color="#EBC40C"/>
<stop offset="1" stop-color="#EBC40C" stop-opacity="0"/>
</linearGradient>
<linearGradient id="paint5_linear_210_290" x1="31.5494" y1="39.7425" x2="32.1625" y2="44.1994" gradientUnits="userSpaceOnUse">
<stop/>
<stop offset="1" stop-opacity="0"/>
</linearGradient>
<linearGradient id="paint6_linear_210_290" x1="32.4063" y1="47.4412" x2="40.1763" y2="34.845" gradientUnits="userSpaceOnUse">
<stop stop-color="#3E2A06"/>
<stop offset="1" stop-color="#AD780A"/>
</linearGradient>
<linearGradient id="paint7_linear_210_290" x1="34.5269" y1="33.8757" x2="34.2981" y2="35.9325" gradientUnits="userSpaceOnUse">
<stop stop-color="#F3CD0C"/>
<stop offset="1" stop-color="#F3CD0C" stop-opacity="0"/>
</linearGradient>
<radialGradient id="paint8_radial_210_290" cx="0" cy="0" r="1" gradientUnits="userSpaceOnUse" gradientTransform="translate(35.8206 36.4745) rotate(15) scale(3.68625 3.87)">
<stop stop-color="#110800"/>
<stop offset="0.59" stop-color="#A65A00" stop-opacity="0.8"/>
<stop offset="1" stop-color="#FF921E" stop-opacity="0"/>
</radialGradient>
<radialGradient id="paint9_radial_210_290" cx="0" cy="0" r="1" gradientUnits="userSpaceOnUse" gradientTransform="translate(35.8206 35.6045) rotate(-2.42) scale(3.70125 2.78625)">
<stop stop-color="#110800"/>
<stop offset="0.59" stop-color="#A65A00" stop-opacity="0.8"/>
<stop offset="1" stop-color="#FF921E" stop-opacity="0"/>
</radialGradient>
<radialGradient id="paint10_radial_210_290" cx="0" cy="0" r="1" gradientUnits="userSpaceOnUse" gradientTransform="translate(38.6219 33.1163) rotate(23.5) scale(1.30313 0.601875)">
<stop stop-color="#7C7C7C"/>
<stop offset="1" stop-color="#7C7C7C" stop-opacity="0.33"/>
</radialGradient>
<linearGradient id="paint11_linear_210_290" x1="35.0669" y1="32.5463" x2="35.5506" y2="32.5257" gradientUnits="userSpaceOnUse">
<stop stop-color="#7C7C7C"/>
<stop offset="1" stop-color="#7C7C7C" stop-opacity="0.33"/>
</linearGradient>
<radialGradient id="paint12_radial_210_290" cx="0" cy="0" r="1" gradientUnits="userSpaceOnUse" gradientTransform="translate(20.2169 9.63942) rotate(-0.6) scale(1.92 2.94)">
<stop stop-color="#FEFEFC"/>
<stop offset="0.75" stop-color="#FEFEFC"/>
<stop offset="1" stop-color="#D4D4D4"/>
</radialGradient>
<linearGradient id="paint13_linear_210_290" x1="19.8044" y1="8.74513" x2="20.7475" y2="10.4308" gradientUnits="userSpaceOnUse">
<stop stop-color="#757574" stop-opacity="0"/>
<stop offset="0.25" stop-color="#757574"/>
<stop offset="0.5" stop-color="#757574"/>
<stop offset="1" stop-color="#757574" stop-opacity="0"/>
</linearGradient>
<radialGradient id="paint14_radial_210_290" cx="0" cy="0" r="1" gradientUnits="userSpaceOnUse" gradientTransform="translate(19.9169 8.20134) rotate(-9.35) scale(1.17187 1.08187)">
<stop stop-color="#C8C8C8"/>
<stop offset="1" stop-color="#797978"/>
</radialGradient>
<linearGradient id="paint15_linear_210_290" x1="19.6731" y1="6.09568" x2="21.715" y2="8.18068" gradientUnits="userSpaceOnUse">
<stop stop-color="#646464" stop-opacity="0"/>
<stop offset="0.31" stop-color="#646464" stop-opacity="0.58"/>
<stop offset="0.47" stop-color="#646464"/>
<stop offset="0.73" stop-color="#646464" stop-opacity="0.26"/>
<stop offset="1" stop-color="#646464" stop-opacity="0"/>
</linearGradient>
<radialGradient id="paint16_radial_210_290" cx="0" cy="0" r="1" gradientUnits="userSpaceOnUse" gradientTransform="translate(26.1363 9.63934) rotate(-1.8) scale(2.5575 2.94)">
<stop stop-color="#FEFEFC"/>
<stop offset="0.75" stop-color="#FEFEFC"/>
<stop offset="1" stop-color="#D4D4D4"/>
</radialGradient>
<linearGradient id="paint17_linear_210_290" x1="26.1007" y1="8.85935" x2="27.1863" y2="10.1456" gradientUnits="userSpaceOnUse">
<stop stop-color="#949494" stop-opacity="0.39"/>
<stop offset="0.5" stop-color="#949494"/>
<stop offset="1" stop-color="#949494" stop-opacity="0.39"/>
</linearGradient>
<linearGradient id="paint18_linear_210_290" x1="25.1688" y1="6.79315" x2="28.6225" y2="8.8144" gradientUnits="userSpaceOnUse">
<stop stop-color="#747474"/>
<stop offset="0.13" stop-color="#8C8C8C"/>
<stop offset="0.25" stop-color="#A4A4A4"/>
<stop offset="0.5" stop-color="#D4D4D4"/>
<stop offset="0.62" stop-color="#D4D4D4"/>
<stop offset="1" stop-color="#7C7C7C"/>
</linearGradient>
<linearGradient id="paint19_linear_210_290" x1="26.3425" y1="5.9175" x2="28.6413" y2="8.08875" gradientUnits="userSpaceOnUse">
<stop stop-color="#646464" stop-opacity="0"/>
<stop offset="0.31" stop-color="#646464" stop-opacity="0.58"/>
<stop offset="0.47" stop-color="#646464"/>
<stop offset="0.73" stop-color="#646464" stop-opacity="0.26"/>
<stop offset="1" stop-color="#646464" stop-opacity="0"/>
</linearGradient>
<radialGradient id="paint20_radial_210_290" cx="0" cy="0" r="1" gradientUnits="userSpaceOnUse" gradientTransform="translate(22.3076 11.2725) rotate(-36) scale(2.145 1.94625)">
<stop stop-color="#020204"/>
<stop offset="0.73" stop-color="#020204"/>
<stop offset="1" stop-color="#5C5C5C"/>
</radialGradient>
<radialGradient id="paint21_radial_210_290" cx="0" cy="0" r="1" gradientUnits="userSpaceOnUse" gradientTransform="translate(24.582 13.2393) rotate(-22.4) scale(5.09062 3.57562)">
<stop stop-color="#D2940A"/>
<stop offset="0.75" stop-color="#D89C08"/>
<stop offset="0.87" stop-color="#B67E07"/>
<stop offset="1" stop-color="#946106"/>
</radialGradient>
<linearGradient id="paint22_linear_210_290" x1="18.6419" y1="12.9861" x2="27.7694" y2="12.9149" gradientUnits="userSpaceOnUse">
<stop stop-color="#AD780A"/>
<stop offset="0.12" stop-color="#D89E08"/>
<stop offset="0.25" stop-color="#EDB80B"/>
<stop offset="0.39" stop-color="#EBC80D"/>
<stop offset="0.53" stop-color="#F5D838"/>
<stop offset="0.77" stop-color="#F6D811"/>
<stop offset="1" stop-color="#F5CD31"/>
</linearGradient>
<radialGradient id="paint23_radial_210_290" cx="0" cy="0" r="1" gradientUnits="userSpaceOnUse" gradientTransform="translate(21.2707 11.2275) scale(0.2475 0.26625)">
<stop stop-color="#3A2903"/>
<stop offset="0.55" stop-color="#735208"/>
<stop offset="1" stop-color="#AC8C04"/>
</radialGradient>
<radialGradient id="paint24_radial_210_290" cx="0" cy="0" r="1" gradientUnits="userSpaceOnUse" gradientTransform="translate(23.6219 11.1938) scale(0.52125 0.30375)">
<stop stop-color="#3A2903"/>
<stop offset="0.55" stop-color="#735208"/>
<stop offset="1" stop-color="#AC8C04"/>
</radialGradient>
<linearGradient id="paint25_linear_210_290" x1="27.7639" y1="12.6543" x2="27.7639" y2="13.3293" gradientUnits="userSpaceOnUse">
<stop stop-color="#F5CE2D"/>
<stop offset="1" stop-color="#D79B08"/>
</linearGradient>
</defs>
</svg>
