<svg width="24" height="24" viewBox="0 0 24 24" fill="none" xmlns="http://www.w3.org/2000/svg">
<g clip-path="url(#clip0_211_93234)">
<path d="M20.84 12C20.84 14.05 21.825 15.225 20.8 17C19.774 18.775 18.263 18.51 16.486 19.534C14.71 20.56 14.184 22 12.133 22C10.082 22 9.55701 20.559 7.78001 19.534C6.00401 18.51 4.49201 18.775 3.46601 17C2.44101 15.225 3.42601 14.05 3.42601 12C3.42601 9.95 2.44101 8.775 3.46601 7C4.49201 5.225 6.00301 5.49 7.78001 4.466C9.55601 3.44 10.082 2 12.133 2C14.184 2 14.71 3.441 16.486 4.466C18.262 5.49 19.774 5.225 20.799 7C21.825 8.775 20.84 9.95 20.84 12Z" stroke="black" stroke-width="1.5" stroke-linecap="round" stroke-linejoin="round"/>
</g>
<defs>
<clipPath id="clip0_211_93234">
<rect width="24" height="24" fill="white"/>
</clipPath>
</defs>
</svg>
