<svg width="24" height="24" viewBox="0 0 24 24" fill="none" xmlns="http://www.w3.org/2000/svg">
<g clip-path="url(#clip0_211_93008)">
<path d="M14.0009 11C14.0009 11 20.0549 9.95 20.0009 6.5C19.9629 4.176 17.5159 3.31 16.9849 5C16.9849 5 16.4829 3 14.9749 3C13.4669 3 11.9909 6 14.0009 11Z" stroke="black" stroke-width="1.5" stroke-linecap="round" stroke-linejoin="round"/>
<path d="M13.9787 11C13.9787 11 20.0537 9.95 19.9987 6.5C19.9607 4.176 17.5057 3.31 16.9737 5C16.9737 5 16.4687 3 14.9567 3C13.4437 3 11.9567 6 13.9797 11H13.9787Z" stroke="black" stroke-width="1.5" stroke-linecap="round" stroke-linejoin="round"/>
<path d="M13 13.9797L13.062 14.2887L13.143 14.6387L13.218 14.9287L13.31 15.2567L13.42 15.6147L13.481 15.8027L13.62 16.1947C14.26 17.9247 15.461 20.0317 17.5 19.9997C19.824 19.9617 20.69 17.5067 19 16.9747L19.148 16.9297L19.313 16.8717C19.3458 16.8591 19.3785 16.8461 19.411 16.8327L19.633 16.7347C20.219 16.4547 21 15.9027 21 14.9577C21 13.4447 18 11.9577 13 13.9807V13.9797Z" stroke="black" stroke-width="1.5" stroke-linecap="round" stroke-linejoin="round"/>
<path d="M10.0204 13L9.71136 13.062L9.36136 13.143L9.07136 13.218L8.74336 13.31L8.38536 13.42L8.19736 13.481L7.80536 13.62C6.07536 14.26 3.96836 15.46 4.00036 17.5C4.03836 19.824 6.49336 20.69 7.02536 19L7.07036 19.148L7.12836 19.313L7.16736 19.411L7.26536 19.633C7.54536 20.219 8.09736 21 9.04236 21C10.5554 21 12.0424 18 10.0194 13H10.0204Z" stroke="black" stroke-width="1.5" stroke-linecap="round" stroke-linejoin="round"/>
<path d="M11 10.0203L10.938 9.71134L10.857 9.36134L10.782 9.07134L10.69 8.74334L10.58 8.38534L10.452 8.00334L10.304 7.60434C9.646 5.91734 8.46 3.97034 6.5 4.00034C4.176 4.03834 3.31 6.49334 5 7.02534L4.852 7.07034L4.688 7.12834C4.6545 7.14091 4.62116 7.15391 4.588 7.16734L4.368 7.26534C3.78 7.54534 3 8.09734 3 9.04234C3 10.5553 6 12.0423 11 10.0193V10.0203Z" stroke="black" stroke-width="1.5" stroke-linecap="round" stroke-linejoin="round"/>
</g>
<defs>
<clipPath id="clip0_211_93008">
<rect width="24" height="24" fill="white"/>
</clipPath>
</defs>
</svg>
