<svg width="24" height="24" viewBox="0 0 24 24" fill="none" xmlns="http://www.w3.org/2000/svg">
<g clip-path="url(#clip0_211_94714)">
<path d="M15 15.5L3.524 9.28401C3.36544 9.19819 3.23303 9.0711 3.14079 8.91619C3.04855 8.76128 2.9999 8.58431 3 8.40401V4.35001C3.00004 4.11257 3.06271 3.87933 3.18168 3.67384C3.30065 3.46835 3.47171 3.29787 3.67761 3.17961C3.8835 3.06135 4.11695 2.99948 4.35439 3.00025C4.59184 3.00102 4.82488 3.06441 5.03 3.18401L15 9.00001V19.65C15 19.8875 14.9373 20.1207 14.8183 20.3262C14.6994 20.5317 14.5283 20.7021 14.3224 20.8204C14.1165 20.9387 13.883 21.0005 13.6456 20.9998C13.4082 20.999 13.1751 20.9356 12.97 20.816L9.496 18.789C9.34517 18.701 9.22002 18.575 9.133 18.4236C9.04598 18.2722 9.00012 18.1006 9 17.926V6.00001" stroke="black" stroke-width="1.5" stroke-linecap="round" stroke-linejoin="round"/>
<path d="M15 15.5L20.504 12.29C20.655 12.2019 20.7802 12.0758 20.8673 11.9242C20.9543 11.7726 21.0001 11.6008 21 11.426V7.85001C21 7.61257 20.9373 7.37933 20.8183 7.17384C20.6994 6.96835 20.5283 6.79787 20.3224 6.67961C20.1165 6.56135 19.8831 6.49948 19.6456 6.50025C19.4082 6.50102 19.1751 6.56441 18.97 6.68401L15 9.00001" stroke="black" stroke-width="1.5" stroke-linecap="round" stroke-linejoin="round"/>
</g>
<defs>
<clipPath id="clip0_211_94714">
<rect width="24" height="24" fill="white"/>
</clipPath>
</defs>
</svg>
