<svg width="24" height="24" viewBox="0 0 24 24" fill="none" xmlns="http://www.w3.org/2000/svg">
<g clip-path="url(#clip0_211_94246)">
<path d="M19.875 6.26959C20.2187 6.46505 20.5041 6.74856 20.7018 7.09095C20.8995 7.43333 21.0025 7.82222 21 8.21759V15.5016C21 16.3106 20.557 17.0566 19.842 17.4496L13.092 21.7196C12.7574 21.9033 12.3818 21.9996 12 21.9996C11.6182 21.9996 11.2426 21.9033 10.908 21.7196L4.158 17.4496C3.80817 17.2584 3.51612 16.9768 3.31241 16.6341C3.1087 16.2914 3.0008 15.9003 3 15.5016V8.21659C3 7.40759 3.443 6.66259 4.158 6.26959L10.908 2.28959C11.2525 2.09963 11.6396 2 12.033 2C12.4264 2 12.8135 2.09963 13.158 2.28959L19.908 6.26959H19.875Z" stroke="black" stroke-width="1.5" stroke-linecap="round" stroke-linejoin="round"/>
<path d="M15.5 9.4304C15.6532 9.51884 15.7802 9.64633 15.868 9.79988C15.9559 9.95342 16.0014 10.1275 16 10.3044V13.5724C15.9999 13.7508 15.9521 13.9259 15.8616 14.0796C15.771 14.2332 15.641 14.3599 15.485 14.4464L12.485 16.3634C12.3366 16.4457 12.1697 16.4889 12 16.4889C11.8303 16.4889 11.6634 16.4457 11.515 16.3634L8.515 14.4464C8.35916 14.36 8.22924 14.2335 8.1387 14.08C8.04815 13.9265 8.00027 13.7516 8 13.5734V10.3044C7.99999 10.1261 8.04764 9.95109 8.13801 9.79742C8.22839 9.64375 8.3582 9.51704 8.514 9.4304L11.514 7.6444C11.825 7.4714 12.204 7.4714 12.514 7.6444L15.514 9.4314L15.5 9.4304Z" stroke="black" stroke-width="1.5" stroke-linecap="round" stroke-linejoin="round"/>
<path d="M12 21V12L4.5 7.5" stroke="black" stroke-width="1.5" stroke-linecap="round" stroke-linejoin="round"/>
<path d="M12 12L19.5 7.5" stroke="black" stroke-width="1.5" stroke-linecap="round" stroke-linejoin="round"/>
<path d="M12 3V7.5" stroke="black" stroke-width="1.5" stroke-linecap="round" stroke-linejoin="round"/>
<path d="M19.5 16L16 14" stroke="black" stroke-width="1.5" stroke-linecap="round" stroke-linejoin="round"/>
<path d="M8 14L4.5 16" stroke="black" stroke-width="1.5" stroke-linecap="round" stroke-linejoin="round"/>
</g>
<defs>
<clipPath id="clip0_211_94246">
<rect width="24" height="24" fill="white"/>
</clipPath>
</defs>
</svg>
