<svg width="24" height="24" viewBox="0 0 24 24" fill="none" xmlns="http://www.w3.org/2000/svg">
<g clip-path="url(#clip0_211_93659)">
<path d="M17.73 19.875C17.5345 20.2187 17.251 20.5041 16.9086 20.7018C16.5663 20.8995 16.1774 21.0025 15.782 21H8.49899C8.10044 20.9993 7.70939 20.8915 7.36684 20.6878C7.02429 20.484 6.74284 20.1919 6.552 19.842L2.28 13.092C2.09626 12.7574 1.99994 12.3818 1.99994 12C1.99994 11.6182 2.09626 11.2426 2.28 10.908L6.552 4.158C6.74301 3.80846 7.02436 3.51661 7.36666 3.31292C7.70896 3.10923 8.09967 3.00116 8.498 3H15.783C16.592 3 17.337 3.443 17.73 4.158L21.71 10.908C21.9 11.2525 21.9996 11.6396 21.9996 12.033C21.9996 12.4264 21.9 12.8135 21.71 13.158L17.73 19.908V19.875Z" stroke="black" stroke-width="1.5" stroke-linecap="round" stroke-linejoin="round"/>
<path d="M8 11.5C8 12.4283 8.36875 13.3185 9.02513 13.9749C9.6815 14.6313 10.5717 15 11.5 15C12.4283 15 13.3185 14.6313 13.9749 13.9749C14.6313 13.3185 15 12.4283 15 11.5C15 10.5717 14.6313 9.6815 13.9749 9.02513C13.3185 8.36875 12.4283 8 11.5 8C10.5717 8 9.6815 8.36875 9.02513 9.02513C8.36875 9.6815 8 10.5717 8 11.5Z" stroke="black" stroke-width="1.5" stroke-linecap="round" stroke-linejoin="round"/>
<path d="M14 14L16 16" stroke="black" stroke-width="1.5" stroke-linecap="round" stroke-linejoin="round"/>
</g>
<defs>
<clipPath id="clip0_211_93659">
<rect width="24" height="24" fill="white"/>
</clipPath>
</defs>
</svg>
