<svg width="24" height="24" viewBox="0 0 24 24" fill="none" xmlns="http://www.w3.org/2000/svg">
<g clip-path="url(#clip0_211_94152)">
<path d="M17.4621 6.51786C16.9718 5.43944 16.1733 4.53028 15.1671 3.90496C14.161 3.27965 12.9922 2.96618 11.8082 3.00404C10.6242 3.04191 9.47786 3.42943 8.51373 4.11775C7.54959 4.80608 6.81079 5.7644 6.39044 6.87195C5.97008 7.97949 5.88699 9.18669 6.15164 10.3414C6.41629 11.4961 7.01682 12.5466 7.87756 13.3605C8.7383 14.1744 9.82072 14.7154 10.9884 14.9151C12.1561 15.1148 13.3567 14.9644 14.4391 14.4829" stroke="black" stroke-width="1.5" stroke-linecap="round" stroke-linejoin="round"/>
<path d="M17.4831 17.464C18.5615 16.9738 19.4707 16.1752 20.096 15.1691C20.7213 14.1629 21.0348 12.9942 20.9969 11.8102C20.9591 10.6261 20.5716 9.47982 19.8832 8.51568C19.1949 7.55154 18.2366 6.81274 17.129 6.39239C16.0215 5.97204 14.8143 5.88895 13.6596 6.15359C12.5049 6.41824 11.4544 7.01878 10.6405 7.87952C9.82655 8.74025 9.28563 9.82267 9.0859 10.9903C8.88617 12.158 9.03656 13.3587 9.51813 14.441" stroke="black" stroke-width="1.5" stroke-linecap="round" stroke-linejoin="round"/>
<path d="M6.53906 17.4818C7.02924 18.5602 7.82769 19.4694 8.83377 20.0948C9.83985 20.7202 11.0085 21.0337 12.1926 20.996C13.3766 20.9582 14.5229 20.5708 15.4871 19.8826C16.4513 19.1944 17.1902 18.2362 17.6106 17.1287C18.0311 16.0212 18.1143 14.814 17.8498 13.6593C17.5853 12.5046 16.9849 11.4541 16.1243 10.64C15.2637 9.82601 14.1814 9.28496 13.0137 9.08506C11.8461 8.88517 10.6454 9.03539 9.56306 9.51678" stroke="black" stroke-width="1.5" stroke-linecap="round" stroke-linejoin="round"/>
<path d="M6.51725 6.54004C5.43881 7.03022 4.52961 7.82867 3.90424 8.83475C3.27886 9.84083 2.96529 11.0095 3.00305 12.1935C3.04081 13.3775 3.42821 14.5239 4.11643 15.4881C4.80465 16.4522 5.76288 17.1911 6.87036 17.6116C7.97783 18.0321 9.185 18.1153 10.3397 17.8508C11.4944 17.5863 12.545 16.9859 13.359 16.1253C14.173 15.2647 14.7141 14.1823 14.914 13.0147C15.1139 11.8471 14.9636 10.6464 14.4822 9.56404" stroke="black" stroke-width="1.5" stroke-linecap="round" stroke-linejoin="round"/>
</g>
<defs>
<clipPath id="clip0_211_94152">
<rect width="24" height="24" fill="white"/>
</clipPath>
</defs>
</svg>
