<svg width="24" height="24" viewBox="0 0 24 24" fill="none" xmlns="http://www.w3.org/2000/svg">
<g clip-path="url(#clip0_211_94333)">
<path d="M11.2188 19.3844C11.5046 20.154 12.0517 20.7987 12.7647 21.2058C13.4776 21.6129 14.3109 21.7565 15.119 21.6116C15.9271 21.4666 16.6585 21.0422 17.1855 20.4127C17.7124 19.7831 18.0013 18.9884 18.0017 18.1674V13.0004L12.0017 9.65039" stroke="black" stroke-width="1.5" stroke-linecap="round" stroke-linejoin="round"/>
<path d="M5.21554 15.0138C4.69151 15.6461 4.40644 16.4425 4.41019 17.2638C4.41395 18.085 4.70628 18.8788 5.23608 19.5063C5.76587 20.1338 6.4994 20.5551 7.30838 20.6965C8.11736 20.8379 8.95031 20.6904 9.66154 20.2798L14.0015 17.7458V10.7998" stroke="black" stroke-width="1.5" stroke-linecap="round" stroke-linejoin="round"/>
<path d="M5.99933 7.62976C4.60833 7.39376 3.21233 8.02476 2.46533 9.31876C2.00478 10.1166 1.87996 11.0646 2.11831 11.9544C2.35666 12.8443 2.93866 13.603 3.73633 14.0638L7.99933 16.5778L13.9993 13.2298" stroke="black" stroke-width="1.5" stroke-linecap="round" stroke-linejoin="round"/>
<path d="M12.783 4.61595C12.4972 3.84632 11.95 3.20161 11.2371 2.79451C10.5241 2.3874 9.6908 2.24379 8.88273 2.38877C8.07465 2.53376 7.34322 2.95812 6.81629 3.58768C6.28935 4.21724 6.00042 5.01197 6 5.83295V10.8999L12 14.3499" stroke="black" stroke-width="1.5" stroke-linecap="round" stroke-linejoin="round"/>
<path d="M18.786 8.98596C19.31 8.35364 19.5951 7.55722 19.5913 6.73598C19.5876 5.91474 19.2953 5.12096 18.7655 4.49346C18.2357 3.86595 17.5021 3.44466 16.6932 3.30326C15.8842 3.16187 15.0512 3.30937 14.34 3.71996L10 6.25396V13.2" stroke="black" stroke-width="1.5" stroke-linecap="round" stroke-linejoin="round"/>
<path d="M18 16.3015C19.391 16.5375 20.787 15.9065 21.534 14.6125C21.9945 13.8147 22.1194 12.8667 21.881 11.9768C21.6427 11.087 21.0607 10.3283 20.263 9.86752L15.955 7.35352L10 10.7735" stroke="black" stroke-width="1.5" stroke-linecap="round" stroke-linejoin="round"/>
</g>
<defs>
<clipPath id="clip0_211_94333">
<rect width="24" height="24" fill="white"/>
</clipPath>
</defs>
</svg>
