<svg width="24" height="24" viewBox="0 0 24 24" fill="none" xmlns="http://www.w3.org/2000/svg">
<g clip-path="url(#clip0_211_94741)">
<path d="M15.588 15.537L12.035 12L4.29302 20.18C3.50202 21.03 4.44602 22.36 5.53102 21.91L15.147 17.814C15.3578 17.7244 15.5434 17.5844 15.6874 17.4063C15.8314 17.2282 15.9294 17.0175 15.9729 16.7926C16.0164 16.5677 16.0039 16.3356 15.9366 16.1166C15.8693 15.8977 15.7493 15.6987 15.587 15.537H15.588Z" stroke="black" stroke-width="1.5" stroke-linecap="round" stroke-linejoin="round"/>
<path d="M8.41027 8.46357L11.9633 11.9996L19.7053 3.81957C20.4963 2.96957 19.5523 1.63957 18.4673 2.08957L8.85127 6.18757C8.64047 6.27714 8.45491 6.41714 8.3109 6.59524C8.16689 6.77335 8.06885 6.98411 8.02539 7.20899C7.98194 7.43387 7.9944 7.66599 8.06169 7.88492C8.12897 8.10386 8.24902 8.30291 8.41127 8.46457L8.41027 8.46357Z" stroke="black" stroke-width="1.5" stroke-linecap="round" stroke-linejoin="round"/>
</g>
<defs>
<clipPath id="clip0_211_94741">
<rect width="24" height="24" fill="white"/>
</clipPath>
</defs>
</svg>
