<svg width="24" height="24" viewBox="0 0 24 24" fill="none" xmlns="http://www.w3.org/2000/svg">
<g clip-path="url(#clip0_211_93543)">
<path d="M7.83203 12.278L12.277 7.83301" stroke="black" stroke-width="1.5" stroke-linecap="round" stroke-linejoin="round"/>
<path d="M10.0547 14.5003L12.2777 12.2783" stroke="black" stroke-width="1.5" stroke-linecap="round" stroke-linejoin="round"/>
<path d="M12.2773 16.722L12.8323 16.167" stroke="black" stroke-width="1.5" stroke-linecap="round" stroke-linejoin="round"/>
<path d="M19.8271 14.8281C20.577 14.078 20.9983 13.0608 20.9983 12.0001C20.9983 10.9395 20.577 9.92223 19.8271 9.17212L14.8271 4.17212C14.077 3.42224 13.0598 3.00098 11.9991 3.00098C10.9385 3.00098 9.92126 3.42224 9.17115 4.17212L4.17115 9.17212C3.42126 9.92223 3 10.9395 3 12.0001C3 13.0608 3.42126 14.078 4.17115 14.8281L10.3421 21.0001H13.6561L19.8271 14.8281Z" stroke="black" stroke-width="1.5" stroke-linecap="round" stroke-linejoin="round"/>
</g>
<defs>
<clipPath id="clip0_211_93543">
<rect width="24" height="24" fill="white"/>
</clipPath>
</defs>
</svg>
