<svg width="24" height="24" viewBox="0 0 24 24" fill="none" xmlns="http://www.w3.org/2000/svg">
<g clip-path="url(#clip0_211_94446)">
<path d="M6.357 9C3.72 9.68 2 10.845 2 12.175C2 14.282 6.405 16 11.85 16C12.59 16 13.11 15.961 13.8 15.903" stroke="black" stroke-width="1.5" stroke-linecap="round" stroke-linejoin="round"/>
<path d="M9.83614 15.9002C9.42314 15.3042 9.03014 14.7672 8.65614 14.1002C5.90514 9.20022 5.16814 4.33022 7.02614 3.22722C8.17614 2.53022 10.0731 3.48022 12.0001 5.48122" stroke="black" stroke-width="1.5" stroke-linecap="round" stroke-linejoin="round"/>
<path d="M6.42873 15.387C5.72673 18.075 5.86873 20.103 6.98873 20.782C8.77173 21.862 12.3757 18.824 15.0317 13.978C15.3917 13.308 15.7147 12.649 15.9997 12" stroke="black" stroke-width="1.5" stroke-linecap="round" stroke-linejoin="round"/>
<path d="M12 18.5196C13.928 20.5196 15.817 21.4696 16.978 20.7726C18.828 19.6706 18.099 14.8006 15.345 9.89961C14.961 9.22261 14.568 8.69561 14.165 8.09961" stroke="black" stroke-width="1.5" stroke-linecap="round" stroke-linejoin="round"/>
<path d="M17.6592 15C20.2712 14.313 21.9992 13.15 21.9992 11.824C21.9992 9.714 17.5912 8 12.1542 8C11.4072 8 10.8882 8.029 10.1992 8.087" stroke="black" stroke-width="1.5" stroke-linecap="round" stroke-linejoin="round"/>
<path d="M8 12C8.285 11.34 8.607 10.692 8.968 10.022C11.615 5.178 15.221 2.132 17.014 3.221C18.124 3.9 18.276 5.927 17.574 8.614" stroke="black" stroke-width="1.5" stroke-linecap="round" stroke-linejoin="round"/>
<path d="M12.2583 12.0147H12.2483C12.2383 12.1447 12.1283 12.2547 11.9883 12.2547C11.9213 12.2514 11.8582 12.2227 11.8117 12.1743C11.7652 12.126 11.739 12.0618 11.7383 11.9947C11.7383 11.8547 11.8483 11.7447 11.9783 11.7447H11.9683C12.0983 11.7347 12.2183 11.8547 12.2183 11.9847" stroke="black" stroke-width="1.5" stroke-linecap="round" stroke-linejoin="round"/>
</g>
<defs>
<clipPath id="clip0_211_94446">
<rect width="24" height="24" fill="white"/>
</clipPath>
</defs>
</svg>
