<svg width="24" height="24" viewBox="0 0 24 24" fill="none" xmlns="http://www.w3.org/2000/svg">
<g clip-path="url(#clip0_211_94976)">
<path d="M17.7812 17.0304L14.3682 17.2654H14.3452C13.2282 17.3554 12.1312 17.6004 11.0882 17.9904L8.89124 18.7844C8.42473 18.9529 7.92841 19.0231 7.43348 18.9905C6.93854 18.958 6.45568 18.8235 6.01524 18.5954C5.5834 18.3746 5.20479 18.0625 4.9057 17.6807C4.60661 17.2989 4.3942 16.8565 4.28324 16.3844L3.07924 11.0914C2.98253 10.6643 2.97425 10.2219 3.05491 9.7914C3.13557 9.36094 3.30345 8.95154 3.54824 8.58839C4.05645 7.83868 4.8378 7.31754 5.72524 7.13639L15.5682 5.07639C17.4382 4.68439 19.2842 5.82039 19.6922 7.61339L20.9192 13.0054C21.0249 13.4725 21.025 13.9572 20.9195 14.4244C20.8139 14.8915 20.6055 15.3291 20.3092 15.7054C20.0041 16.0908 19.6214 16.4078 19.1859 16.6357C18.7504 16.8636 18.2718 16.9974 17.7812 17.0284V17.0304Z" stroke="black" stroke-width="1.5" stroke-linecap="round" stroke-linejoin="round"/>
<path d="M10 10L10.972 14L15 11L10 10Z" stroke="black" stroke-width="1.5" stroke-linecap="round" stroke-linejoin="round"/>
</g>
<defs>
<clipPath id="clip0_211_94976">
<rect width="24" height="24" fill="white"/>
</clipPath>
</defs>
</svg>
