<svg width="24" height="24" viewBox="0 0 24 24" fill="none" xmlns="http://www.w3.org/2000/svg">
<g clip-path="url(#clip0_211_94844)">
<path d="M13.79 4.337L16.891 13.642C17.221 14.627 16.778 15.712 15.871 16.141C14.659 16.707 13.3376 17.0004 12 17.0004C10.6624 17.0004 9.34098 16.707 8.129 16.141C7.222 15.713 6.779 14.627 7.109 13.642L10.209 4.337C10.476 3.537 11.194 3 12 3C12.807 3 13.525 3.537 13.79 4.337Z" stroke="black" stroke-width="1.5" stroke-linecap="round" stroke-linejoin="round"/>
<path d="M7 14H5.571C5.13646 14 4.71373 14.1415 4.36677 14.4031C4.01981 14.6647 3.7675 15.0322 3.648 15.45L3.077 17.45C2.99185 17.7477 2.97698 18.0611 3.03356 18.3655C3.09014 18.6699 3.21662 18.957 3.40305 19.2042C3.58947 19.4514 3.83074 19.652 4.10786 19.7901C4.38498 19.9281 4.69038 20 5 20H18.998C19.3076 20 19.613 19.9281 19.8901 19.7901C20.1673 19.652 20.4085 19.4514 20.5949 19.2042C20.7814 18.957 20.9079 18.6699 20.9644 18.3655C21.021 18.0611 21.0061 17.7477 20.921 17.45L20.349 15.45C20.2295 15.0322 19.9772 14.6647 19.6302 14.4031C19.2833 14.1415 18.8605 14 18.426 14H17" stroke="black" stroke-width="1.5" stroke-linecap="round" stroke-linejoin="round"/>
</g>
<defs>
<clipPath id="clip0_211_94844">
<rect width="24" height="24" fill="white"/>
</clipPath>
</defs>
</svg>
