<svg width="24" height="24" viewBox="0 0 24 24" fill="none" xmlns="http://www.w3.org/2000/svg">
<g clip-path="url(#clip0_211_94676)">
<path d="M20.548 15.828C21.878 11.702 19.164 6.30703 14.501 3.00003C14.366 2.90403 16.891 9.70403 15.809 12.124C13.656 10.67 11.053 8.63003 8.001 6.00003L7.501 8.00003L4.001 7.00003C8.361 11.748 11.214 14.695 12.561 15.841C7.903 17.93 1.911 14.863 2.001 15C3.017 16.545 8.001 21 13.001 21C15.001 21 16.789 20.498 17.743 19.611C17.748 19.606 18.175 19.165 19.121 19.441C19.625 19.589 20.584 20.108 22.001 21V19.493C22.001 18.116 21.486 16.823 20.548 15.828Z" stroke="black" stroke-width="1.5" stroke-linecap="round" stroke-linejoin="round"/>
</g>
<defs>
<clipPath id="clip0_211_94676">
<rect width="24" height="24" fill="white"/>
</clipPath>
</defs>
</svg>
