<svg width="24" height="24" viewBox="0 0 24 24" fill="none" xmlns="http://www.w3.org/2000/svg">
<g clip-path="url(#clip0_211_94534)">
<path d="M11.999 2.99991C13.4078 2.9996 14.797 3.33003 16.0549 3.96462C17.3127 4.59921 18.404 5.52023 19.2409 6.65355C20.0778 7.78687 20.6369 9.10084 20.8733 10.4897C21.1097 11.8786 21.0168 13.3035 20.602 14.6499C20.9781 15.483 21.0915 16.4109 20.9273 17.3101C20.763 18.2093 20.3289 19.0371 19.6825 19.6835C19.0362 20.3298 18.2083 20.764 17.3091 20.9282C16.41 21.0925 15.4821 20.979 14.649 20.6029C13.0847 21.0854 11.4185 21.1322 9.82972 20.7382C8.2409 20.3441 6.78963 19.5242 5.63213 18.3667C4.47463 17.2092 3.65474 15.758 3.26072 14.1691C2.86669 12.5803 2.91345 10.9141 3.39596 9.34991C3.01953 8.51676 2.9058 7.58872 3.0699 6.68934C3.234 5.78995 3.66816 4.96188 4.31457 4.31536C4.96098 3.66884 5.78897 3.23455 6.68833 3.0703C7.58769 2.90604 8.51575 3.01962 9.34896 3.39591C10.2075 3.13223 11.1008 2.99875 11.999 2.99991Z" stroke="black" stroke-width="1.5" stroke-linecap="round" stroke-linejoin="round"/>
<path d="M8 14.5C8.5 16.5 10.358 17 12 17C14.905 17 16 15.813 16 14.5C16 12.997 14.073 12 12 12C9.927 12 8 11 8 9.5C8 8.187 9.095 7 12 7C13.642 7 15.5 7.5 16 9.5" stroke="black" stroke-width="1.5" stroke-linecap="round" stroke-linejoin="round"/>
</g>
<defs>
<clipPath id="clip0_211_94534">
<rect width="24" height="24" fill="white"/>
</clipPath>
</defs>
</svg>
