<svg width="24" height="24" viewBox="0 0 24 24" fill="none" xmlns="http://www.w3.org/2000/svg">
<g clip-path="url(#clip0_211_93720)">
<path d="M5.30859 7.26533L10.6936 4.23633" stroke="black" stroke-width="1.5" stroke-linecap="round" stroke-linejoin="round"/>
<path d="M13.3086 4.23535L18.6926 7.26535" stroke="black" stroke-width="1.5" stroke-linecap="round" stroke-linejoin="round"/>
<path d="M20 9.5V14.5" stroke="black" stroke-width="1.5" stroke-linecap="round" stroke-linejoin="round"/>
<path d="M18.6936 16.7363L13.3086 19.7653" stroke="black" stroke-width="1.5" stroke-linecap="round" stroke-linejoin="round"/>
<path d="M10.6926 19.7654L5.30859 16.7354" stroke="black" stroke-width="1.5" stroke-linecap="round" stroke-linejoin="round"/>
<path d="M4 14.5V9.5" stroke="black" stroke-width="1.5" stroke-linecap="round" stroke-linejoin="round"/>
<path d="M12.7734 4.78613L18.8944 14.9881" stroke="black" stroke-width="1.5" stroke-linecap="round" stroke-linejoin="round"/>
<path d="M18.5 16H5.5" stroke="black" stroke-width="1.5" stroke-linecap="round" stroke-linejoin="round"/>
<path d="M5.10547 14.9881L11.2275 4.78711" stroke="black" stroke-width="1.5" stroke-linecap="round" stroke-linejoin="round"/>
<path d="M10.5 3.5C10.5 3.89782 10.658 4.27936 10.9393 4.56066C11.2206 4.84196 11.6022 5 12 5C12.3978 5 12.7794 4.84196 13.0607 4.56066C13.342 4.27936 13.5 3.89782 13.5 3.5C13.5 3.10218 13.342 2.72064 13.0607 2.43934C12.7794 2.15804 12.3978 2 12 2C11.6022 2 11.2206 2.15804 10.9393 2.43934C10.658 2.72064 10.5 3.10218 10.5 3.5Z" stroke="black" stroke-width="1.5" stroke-linecap="round" stroke-linejoin="round"/>
<path d="M10.5 20.5C10.5 20.8978 10.658 21.2794 10.9393 21.5607C11.2206 21.842 11.6022 22 12 22C12.3978 22 12.7794 21.842 13.0607 21.5607C13.342 21.2794 13.5 20.8978 13.5 20.5C13.5 20.1022 13.342 19.7206 13.0607 19.4393C12.7794 19.158 12.3978 19 12 19C11.6022 19 11.2206 19.158 10.9393 19.4393C10.658 19.7206 10.5 20.1022 10.5 20.5Z" stroke="black" stroke-width="1.5" stroke-linecap="round" stroke-linejoin="round"/>
<path d="M2.5 8C2.5 8.39782 2.65804 8.77936 2.93934 9.06066C3.22064 9.34196 3.60218 9.5 4 9.5C4.39782 9.5 4.77936 9.34196 5.06066 9.06066C5.34196 8.77936 5.5 8.39782 5.5 8C5.5 7.60218 5.34196 7.22064 5.06066 6.93934C4.77936 6.65804 4.39782 6.5 4 6.5C3.60218 6.5 3.22064 6.65804 2.93934 6.93934C2.65804 7.22064 2.5 7.60218 2.5 8Z" stroke="black" stroke-width="1.5" stroke-linecap="round" stroke-linejoin="round"/>
<path d="M2.5 16C2.5 16.3978 2.65804 16.7794 2.93934 17.0607C3.22064 17.342 3.60218 17.5 4 17.5C4.39782 17.5 4.77936 17.342 5.06066 17.0607C5.34196 16.7794 5.5 16.3978 5.5 16C5.5 15.6022 5.34196 15.2206 5.06066 14.9393C4.77936 14.658 4.39782 14.5 4 14.5C3.60218 14.5 3.22064 14.658 2.93934 14.9393C2.65804 15.2206 2.5 15.6022 2.5 16Z" stroke="black" stroke-width="1.5" stroke-linecap="round" stroke-linejoin="round"/>
<path d="M18.5 16C18.5 16.3978 18.658 16.7794 18.9393 17.0607C19.2206 17.342 19.6022 17.5 20 17.5C20.3978 17.5 20.7794 17.342 21.0607 17.0607C21.342 16.7794 21.5 16.3978 21.5 16C21.5 15.6022 21.342 15.2206 21.0607 14.9393C20.7794 14.658 20.3978 14.5 20 14.5C19.6022 14.5 19.2206 14.658 18.9393 14.9393C18.658 15.2206 18.5 15.6022 18.5 16Z" stroke="black" stroke-width="1.5" stroke-linecap="round" stroke-linejoin="round"/>
<path d="M18.5 8C18.5 8.39782 18.658 8.77936 18.9393 9.06066C19.2206 9.34196 19.6022 9.5 20 9.5C20.3978 9.5 20.7794 9.34196 21.0607 9.06066C21.342 8.77936 21.5 8.39782 21.5 8C21.5 7.60218 21.342 7.22064 21.0607 6.93934C20.7794 6.65804 20.3978 6.5 20 6.5C19.6022 6.5 19.2206 6.65804 18.9393 6.93934C18.658 7.22064 18.5 7.60218 18.5 8Z" stroke="black" stroke-width="1.5" stroke-linecap="round" stroke-linejoin="round"/>
</g>
<defs>
<clipPath id="clip0_211_93720">
<rect width="24" height="24" fill="white"/>
</clipPath>
</defs>
</svg>
