<svg width="24" height="24" viewBox="0 0 24 24" fill="none" xmlns="http://www.w3.org/2000/svg">
<g clip-path="url(#clip0_211_94212)">
<path d="M21 12C21 13.1819 20.7672 14.3522 20.3149 15.4442C19.8626 16.5361 19.1997 17.5282 18.364 18.364C17.5282 19.1997 16.5361 19.8626 15.4442 20.3149C14.3522 20.7672 13.1819 21 12 21C10.8181 21 9.64778 20.7672 8.55585 20.3149C7.46392 19.8626 6.47177 19.1997 5.63604 18.364C4.80031 17.5282 4.13738 16.5361 3.68508 15.4442C3.23279 14.3522 3 13.1819 3 12C3 9.61305 3.94821 7.32387 5.63604 5.63604C7.32387 3.94821 9.61305 3 12 3C14.3869 3 16.6761 3.94821 18.364 5.63604C20.0518 7.32387 21 9.61305 21 12Z" stroke="black" stroke-width="1.5" stroke-linecap="round" stroke-linejoin="round"/>
<path d="M8 11.5029C7.65909 11.7586 7.38919 12.0972 7.21594 12.4865C7.04269 12.8759 6.97183 13.303 7.0101 13.7274C7.04837 14.1519 7.1945 14.5595 7.4346 14.9115C7.6747 15.2636 8.00081 15.5484 8.38197 15.739C8.76312 15.9296 9.18666 16.0196 9.61237 16.0004C10.0381 15.9812 10.4518 15.8536 10.8143 15.6296C11.1768 15.4055 11.476 15.0925 11.6836 14.7203C11.8911 14.3481 12 13.9291 12 13.5029V10.5029C12 10.0768 12.1089 9.65772 12.3164 9.28552C12.524 8.91332 12.8232 8.60034 13.1857 8.3763C13.5482 8.15227 13.9619 8.02461 14.3876 8.00546C14.8133 7.9863 15.2369 8.07629 15.618 8.26686C15.9992 8.45744 16.3253 8.74228 16.5654 9.09434C16.8055 9.4464 16.9516 9.854 16.9899 10.2784C17.0282 10.7028 16.9573 11.13 16.7841 11.5193C16.6108 11.9087 16.3409 12.2472 16 12.5029" stroke="black" stroke-width="1.5" stroke-linecap="round" stroke-linejoin="round"/>
</g>
<defs>
<clipPath id="clip0_211_94212">
<rect width="24" height="24" fill="white"/>
</clipPath>
</defs>
</svg>
