<svg width="24" height="24" viewBox="0 0 24 24" fill="none" xmlns="http://www.w3.org/2000/svg">
<g clip-path="url(#clip0_211_93148)">
<path d="M6.88503 7L4.34903 11.907C2.32803 15.752 1.85003 20.682 8.17003 21H14.978C19.838 20.793 22.967 18.025 19.585 11.907L16.597 7" stroke="black" stroke-width="1.5" stroke-linecap="round" stroke-linejoin="round"/>
<path d="M15.0763 4H9.94032L13.6183 12.768M13.6183 12.768C14.1653 13.908 14.4653 14.59 13.7803 15.444C13.7273 15.537 12.4483 17.351 10.7273 16.939C9.90232 16.752 9.34332 16.013 9.40732 15.199C9.44732 14.289 10.0273 13.482 10.8953 13.125C11.7428 12.7224 12.6956 12.5981 13.6183 12.768Z" stroke="black" stroke-width="1.5" stroke-linecap="round" stroke-linejoin="round"/>
</g>
<defs>
<clipPath id="clip0_211_93148">
<rect width="24" height="24" fill="white"/>
</clipPath>
</defs>
</svg>
