<svg width="48" height="48" viewBox="0 0 48 48" fill="none" xmlns="http://www.w3.org/2000/svg">
<path d="M17.0571 11.9579V21.7063C17.0571 23.2832 16.7663 24.4301 16.0391 25.1469C15.4573 25.8637 14.2938 26.2937 12.8394 26.2937C11.3849 26.2937 10.3669 26.007 9.63965 25.2902C9.05788 24.5734 8.62156 23.4266 8.62156 21.7063V11.9579H3.24023V21.7063C3.24023 24.5734 3.822 26.7238 4.98553 28.3008C5.13097 28.4441 5.27641 28.7308 5.56729 28.8742C7.16715 30.4511 9.4942 31.1679 12.8394 31.1679C16.0391 31.1679 18.5116 30.4511 19.966 28.8742C20.1114 28.7308 20.2569 28.4441 20.5477 28.3008C21.7113 26.7238 22.293 24.5734 22.293 21.7063V11.9579H17.0571Z" fill="url(#paint0_linear_210_707)"/>
<path fill-rule="evenodd" clip-rule="evenodd" d="M25.7836 11.9579V36.3288V36.4722H31.3103V31.3113V29.4476C31.3103 29.1403 31.2686 28.833 31.2298 28.5478C31.1962 28.3008 31.1649 28.0703 31.1649 27.8707C31.8921 29.0175 32.7647 29.8777 33.7828 30.4511C34.8009 31.0246 36.1099 31.3113 37.5643 31.3113C40.0368 31.3113 42.073 30.4511 43.5274 28.5875C45.1272 26.7238 45.8545 24.2867 45.8545 21.2762C45.8545 18.1223 44.9818 15.6852 43.5274 13.9649C42.073 12.2446 39.8914 11.3845 37.2734 11.3845C35.819 11.3845 34.6555 11.6712 33.6374 12.2446C32.6193 12.818 31.7467 13.6782 31.0195 14.9684V11.9579H25.7836ZM32.183 25.0035C31.3103 24.1434 30.874 22.8531 30.874 21.1328C30.874 19.4125 31.1649 18.1223 32.183 17.1188C33.0556 16.1153 34.2192 15.6852 35.6736 15.6852C37.128 15.6852 38.2915 16.1153 39.1642 17.1188C40.0368 18.1223 40.4731 19.4125 40.4731 21.1328C40.4731 22.7098 40.0368 24 39.1642 25.0035C38.2915 26.007 37.128 26.4371 35.6736 26.4371C34.2192 26.4371 33.0556 26.007 32.183 25.0035Z" fill="url(#paint1_linear_210_707)"/>
<path d="M20.8386 36.1855C20.6931 36.0421 20.5477 35.7554 20.2568 35.612C18.657 34.0351 16.3299 33.3183 12.9847 33.3183C9.78504 33.3183 7.31254 34.0351 5.85813 35.612C5.71269 35.7554 5.56725 36.0421 5.27637 36.1855H20.8386Z" fill="#3A3A3A"/>
<defs>
<linearGradient id="paint0_linear_210_707" x1="8.61501" y1="47.7743" x2="53.7061" y2="30.9915" gradientUnits="userSpaceOnUse">
<stop stop-color="#6A11CB"/>
<stop offset="1" stop-color="#2575FC"/>
</linearGradient>
<linearGradient id="paint1_linear_210_707" x1="11.5135" y1="60.1807" x2="56.2964" y2="49.3356" gradientUnits="userSpaceOnUse">
<stop stop-color="#6A11CB"/>
<stop offset="1" stop-color="#2575FC"/>
</linearGradient>
</defs>
</svg>
