<svg width="48" height="48" viewBox="0 0 48 48" fill="none" xmlns="http://www.w3.org/2000/svg">
<path d="M24 48C37.2548 48 48 37.2548 48 24C48 10.7452 37.2548 0 24 0C10.7452 0 0 10.7452 0 24C0 37.2548 10.7452 48 24 48Z" fill="white"/>
<path d="M9.62197 23.2346C9.92337 15.7332 17.0229 9.14268 24.5645 9.62491C32.5883 9.933 39.5137 18.0506 37.9665 26.0744C36.6739 26.061 35.3879 25.5855 34.6847 24.4402C32.816 21.6204 31.9587 18.2783 30.2575 15.3648C29.0385 15.559 27.8263 15.7935 26.6207 16.0614C27.0828 19.3365 29.139 22.0759 29.8958 25.2573C29.5476 28.0368 26.0514 29.5974 23.6402 28.3047C21.6376 27.5345 20.8138 25.3979 20.1172 23.5494C19.4475 21.6204 18.6906 19.7183 17.6726 17.9434C16.1254 17.9099 14.5314 17.9568 13.1316 18.707C14.3907 25.1568 17.9204 30.9034 19.3805 37.2997C13.5535 35.4377 9.2536 29.383 9.62197 23.2346Z" fill="#00853E"/>
<path d="M27.9401 31.2517C29.4404 30.448 30.5589 29.1218 31.8382 28.0301C33.6399 28.4655 35.475 28.7267 37.3236 28.8472C35.2741 33.5557 30.9809 37.2059 25.8973 38.1838C24.531 36.1879 23.667 33.9174 22.9973 31.6067C24.6449 31.6 26.3595 31.8143 27.9401 31.2517Z" fill="#00853E"/>
</svg>
