<svg width="24" height="24" viewBox="0 0 24 24" fill="none" xmlns="http://www.w3.org/2000/svg">
<path opacity="0.4" d="M16.19 2H7.82001C4.18001 2 2.01001 4.17 2.01001 7.81V16.18C2.01001 19.82 4.18001 21.99 7.82001 21.99H16.19C19.83 21.99 22 19.82 22 16.18V7.81C22 4.17 19.83 2 16.19 2Z" fill="#171717"/>
<path d="M12.0801 19C11.8501 19 11.6701 18.94 11.5701 18.89C11.3401 18.78 10.8001 18.43 10.8001 17.45V14.06L7.90008 16.7101C7.60008 16.9901 7.12009 16.97 6.84009 16.66C6.56009 16.35 6.5801 15.88 6.8901 15.6L10.8001 12.02V11.94L6.8901 8.40004C6.5801 8.12004 6.56009 7.65004 6.84009 7.34004C7.12009 7.03004 7.59008 7.01004 7.90008 7.29004L10.8001 9.94005V6.55005C10.8001 5.57005 11.3401 5.21004 11.5701 5.11004C11.8001 5.00004 12.4201 4.82004 13.1701 5.45004L15.5801 7.46005C15.9101 7.73005 16.1001 8.12004 16.1101 8.53004C16.1201 8.94004 15.9501 9.34005 15.6401 9.63005L13.0501 12L15.6401 14.37C15.9501 14.66 16.1301 15.06 16.1201 15.47C16.1101 15.88 15.9201 16.27 15.5901 16.54L13.1801 18.55C12.7501 18.9 12.3701 19 12.0801 19ZM12.3001 13.3V17.3201L14.6101 15.39L12.3001 13.3ZM12.3001 6.68004V10.64L14.6101 8.52005L12.3001 6.68004Z" fill="#171717"/>
<path d="M6.62 13.38C5.86 13.38 5.23999 12.76 5.23999 12C5.23999 11.24 5.86 10.62 6.62 10.62C7.38 10.62 8 11.24 8 12C8 12.76 7.38 13.38 6.62 13.38ZM6.62 11.88C6.55 11.88 6.5 11.94 6.5 12C6.5 12.14 6.75 12.14 6.75 12C6.75 11.93 6.69 11.88 6.62 11.88Z" fill="#171717"/>
<path d="M17.38 13.38C16.62 13.38 16 12.76 16 12C16 11.24 16.62 10.62 17.38 10.62C18.14 10.62 18.76 11.24 18.76 12C18.76 12.76 18.13 13.38 17.38 13.38ZM17.38 11.88C17.31 11.88 17.26 11.94 17.26 12C17.26 12.14 17.51 12.14 17.51 12C17.5 11.93 17.44 11.88 17.38 11.88Z" fill="#171717"/>
</svg>
