<svg width="24" height="24" viewBox="0 0 24 24" fill="none" xmlns="http://www.w3.org/2000/svg">
<path d="M12.55 12.9201C10.91 13.3101 9.47999 11.8801 9.86999 10.2401C10.06 9.47008 10.69 8.84011 11.46 8.65011C12.81 8.32011 14.03 9.25009 14.19 10.5001" stroke="#171717" stroke-width="1.5" stroke-linecap="round" stroke-linejoin="round"/>
<path d="M7.63995 3.15002C4.98995 4.66002 3.20996 7.51998 3.20996 10.79C3.20996 13.33 4.28996 15.62 6.01996 17.22" stroke="#171717" stroke-width="1.5" stroke-linecap="round" stroke-linejoin="round"/>
<path d="M18.01 17.19C19.72 15.59 20.79 13.32 20.79 10.79C20.79 5.92998 16.85 2 12 2" stroke="#171717" stroke-width="1.5" stroke-linecap="round" stroke-linejoin="round"/>
<path d="M8.00002 14.55C7.08002 13.57 6.51001 12.25 6.51001 10.79C6.51001 7.76004 8.97002 5.30005 12 5.30005C15.03 5.30005 17.49 7.76004 17.49 10.79C17.49 12.25 16.92 13.56 16 14.55" stroke="#171717" stroke-width="1.5" stroke-linecap="round" stroke-linejoin="round"/>
<path d="M10.3 16.66L8.85998 18.4501C7.71998 19.8801 8.72997 21.99 10.56 21.99H13.43C15.26 21.99 16.28 19.8701 15.13 18.4501L13.69 16.66C12.83 15.57 11.17 15.57 10.3 16.66Z" stroke="#171717" stroke-width="1.5" stroke-linecap="round" stroke-linejoin="round"/>
</svg>
