<svg width="24" height="24" viewBox="0 0 24 24" fill="none" xmlns="http://www.w3.org/2000/svg">
<path d="M16 12.69V18.08C16 20.42 14.44 21.97 12.11 21.97H5.89C3.56 21.97 2 20.42 2 18.08V10.31C2 7.97004 3.56 6.42004 5.89 6.42004H9.72C10.75 6.42004 11.74 6.83004 12.47 7.56004L14.86 9.94004C15.59 10.67 16 11.66 16 12.69Z" fill="#171717"/>
<path d="M22 8.24997V13.64C22 15.97 20.44 17.53 18.11 17.53H17V12.69C17 11.4 16.48 10.14 15.57 9.22997L13.18 6.84997C12.27 5.93997 11.01 5.41997 9.72002 5.41997H8.02002C8.20002 3.33997 9.71002 1.96997 11.89 1.96997H15.72C16.75 1.96997 17.74 2.37997 18.47 3.10997L20.86 5.49997C21.59 6.22997 22 7.21997 22 8.24997Z" fill="#171717"/>
</svg>
