<svg width="24" height="24" viewBox="0 0 24 24" fill="none" xmlns="http://www.w3.org/2000/svg">
<path d="M2.02007 12.22C1.91007 6.60003 6.35008 2.05005 11.9701 2.05005C17.5901 2.05005 22.0201 6.60005 22.0201 12.11V18.2701C22.0201 20.2201 20.4001 21.8401 18.4501 21.8401C16.5001 21.8401 14.8801 20.2201 14.8801 18.2701V15.4601C14.8801 14.4901 15.6401 13.6201 16.7201 13.6201C17.6901 13.6201 18.5601 14.3801 18.5601 15.4601V18.4901" stroke="#171717" stroke-width="1.5" stroke-linecap="round" stroke-linejoin="round"/>
<path d="M5.48004 18.49V15.57C5.48004 14.6 6.24004 13.73 7.32004 13.73C8.29004 13.73 9.16003 14.49 9.16003 15.57V18.38C9.16003 20.33 7.54003 21.95 5.59003 21.95C3.64003 21.95 2.02002 20.32 2.02002 18.38V16.01" stroke="#171717" stroke-width="1.5" stroke-linecap="round" stroke-linejoin="round"/>
<path d="M11.54 8.19L11.08 7.27002C10.97 7.06002 10.67 7.05001 10.56 7.26001L9.71997 8.80999C9.61997 8.99999 9.41998 9.11999 9.19998 9.11999H8.46997" stroke="#171717" stroke-width="1.5" stroke-linecap="round" stroke-linejoin="round"/>
<path d="M15.5299 9.12H14.7199C14.4999 9.12 14.2899 9.25 14.1899 9.44L13.4399 10.94C13.3299 11.16 13.0199 11.16 12.9099 10.94" stroke="#171717" stroke-width="1.5" stroke-linecap="round" stroke-linejoin="round"/>
</svg>
