<svg width="24" height="24" viewBox="0 0 24 24" fill="none" xmlns="http://www.w3.org/2000/svg">
<path opacity="0.4" d="M20.27 17.19C19.27 18.1 17.98 18.6 16.63 18.59H16.54C16.84 17.97 17 17.27 17 16.53C17 13.77 14.76 11.53 12 11.53C9.24003 11.53 7.00003 13.77 7.00003 16.53C7.00003 17.27 7.16003 17.97 7.46003 18.59H5.54003C0.860029 18.26 0.860029 11.45 5.54003 11.12H5.59003C2.38003 2.19002 15.92 -1.37998 17.47 8.00002C21.8 8.55002 23.55 14.32 20.27 17.19Z" fill="#171717"/>
<path d="M12 11.53C9.24 11.53 7 13.77 7 16.53C7 17.27 7.16 17.97 7.46 18.59C7.54 18.77 7.63 18.94 7.73 19.1C8.59 20.55 10.18 21.53 12 21.53C13.82 21.53 15.41 20.55 16.27 19.1C16.37 18.94 16.46 18.77 16.54 18.59C16.84 17.97 17 17.27 17 16.53C17 13.77 14.76 11.53 12 11.53ZM13.5 18.14C13.35 18.29 13.16 18.36 12.97 18.36C12.78 18.36 12.59 18.29 12.44 18.14L11.91 17.61L11.36 18.16C11.21 18.31 11.02 18.38 10.83 18.38C10.64 18.38 10.45 18.31 10.3 18.16C10.01 17.87 10.01 17.39 10.3 17.1L10.85 16.55L10.32 16.02C10.03 15.73 10.03 15.25 10.32 14.96C10.61 14.67 11.09 14.67 11.38 14.96L11.91 15.49L12.41 14.99C12.7 14.7 13.18 14.7 13.47 14.99C13.76 15.28 13.76 15.76 13.47 16.05L12.97 16.55L13.5 17.08C13.79 17.38 13.79 17.85 13.5 18.14Z" fill="#171717"/>
</svg>
