<svg width="24" height="24" viewBox="0 0 24 24" fill="none" xmlns="http://www.w3.org/2000/svg">
<path d="M8.58997 15.56L15.21 9.49002C15.49 9.24002 15.48 8.84004 15.19 8.60004L13.13 6.88004C12.59 6.43004 12.16 6.64003 12.16 7.34003V16.67C12.16 17.37 12.6 17.57 13.13 17.13L15.19 15.41C15.48 15.17 15.49 14.77 15.21 14.52L8.58997 8.45005" stroke="#171717" stroke-width="1.5" stroke-miterlimit="10" stroke-linecap="round" stroke-linejoin="round"/>
<path d="M4 6C2.75 7.67 2 9.75 2 12C2 17.52 6.48 22 12 22C17.52 22 22 17.52 22 12C22 6.48 17.52 2 12 2C10.57 2 9.2 2.30001 7.97 2.85001" stroke="#171717" stroke-width="1.5" stroke-linecap="round" stroke-linejoin="round"/>
</svg>
