<svg width="24" height="24" viewBox="0 0 24 24" fill="none" xmlns="http://www.w3.org/2000/svg">
<path opacity="0.4" d="M15 22H9C6 22 4 20 4 17V7C4 4 6 2 9 2H15C18 2 20 4 20 7V17C20 20 18 22 15 22Z" fill="#171717"/>
<path d="M12.6 18.11C12.38 18.11 12.21 18.05 12.11 18.01C11.89 17.91 11.3901 17.58 11.3901 16.67V14L9.09004 16.11C8.79004 16.39 8.31004 16.37 8.03004 16.06C7.75004 15.75 7.77003 15.28 8.08003 15L11.36 11.99L8.08003 8.97999C7.77003 8.69999 7.75004 8.23 8.03004 7.92C8.31004 7.62 8.79004 7.58998 9.09004 7.86998L11.3901 9.97999V7.31999C11.3901 6.41999 11.89 6.08999 12.11 5.97999C12.32 5.87999 12.9 5.69998 13.6 6.27998L15.66 7.99998C15.96 8.24998 16.14 8.61998 16.15 8.99998C16.16 9.37998 16 9.75997 15.71 10.02L13.58 11.97L15.71 13.92C16 14.19 16.16 14.56 16.15 14.94C16.14 15.32 15.96 15.69 15.66 15.94L13.6 17.66C13.22 18.02 12.87 18.11 12.6 18.11ZM12.9 13.41V16.33L14.5701 14.94L12.9 13.41ZM12.9 7.67V10.59L14.5701 9.05998L12.9 7.67Z" fill="#171717"/>
</svg>
