<svg width="24" height="24" viewBox="0 0 24 24" fill="none" xmlns="http://www.w3.org/2000/svg">
<path opacity="0.4" d="M20.2701 17.19C19.2701 18.1 17.9801 18.6 16.6301 18.59H16.54C16.84 17.97 17.0001 17.27 17.0001 16.53C17.0001 13.77 14.7601 11.53 12.0001 11.53C9.24005 11.53 7.00005 13.77 7.00005 16.53C7.00005 17.27 7.16007 17.97 7.46007 18.59H5.54003C0.860029 18.26 0.860029 11.45 5.54003 11.12H5.59008C2.38008 2.19002 15.92 -1.37998 17.47 8.00002C21.8 8.55002 23.5501 14.32 20.2701 17.19Z" fill="#171717"/>
<path d="M12 11.53C9.24 11.53 7 13.77 7 16.53C7 17.27 7.16002 17.97 7.46002 18.59C7.54002 18.77 7.62998 18.94 7.72998 19.1C8.58998 20.55 10.18 21.53 12 21.53C13.82 21.53 15.41 20.55 16.27 19.1C16.37 18.94 16.46 18.77 16.54 18.59C16.84 17.97 17 17.27 17 16.53C17 13.77 14.76 11.53 12 11.53ZM14.07 16.1L11.94 18.07C11.8 18.2 11.61 18.27 11.43 18.27C11.24 18.27 11.05 18.2 10.9 18.05L9.90997 17.06C9.61997 16.77 9.61997 16.29 9.90997 16C10.2 15.71 10.68 15.71 10.97 16L11.45 16.48L13.05 15C13.36 14.72 13.83 14.74 14.11 15.04C14.39 15.34 14.37 15.81 14.07 16.1Z" fill="#171717"/>
</svg>
