<svg width="24" height="24" viewBox="0 0 24 24" fill="none" xmlns="http://www.w3.org/2000/svg">
<path d="M13.18 11.86C12.78 11.86 12.42 11.64 12.25 11.28L10.8 8.39L10.38 9.16997C10.15 9.59997 9.68998 9.86998 9.19998 9.86998H8.46997C8.05997 9.86998 7.71997 9.52998 7.71997 9.11998C7.71997 8.70998 8.05997 8.36998 8.46997 8.36998H9.10995L9.89996 6.90996C10.09 6.56996 10.47 6.33997 10.83 6.35997C11.22 6.35997 11.57 6.58998 11.75 6.92998L13.18 9.78997L13.52 9.09996C13.75 8.63996 14.2 8.35997 14.72 8.35997H15.53C15.94 8.35997 16.28 8.69997 16.28 9.10997C16.28 9.51997 15.94 9.85997 15.53 9.85997H14.82L14.11 11.27C13.93 11.64 13.58 11.86 13.18 11.86Z" fill="#171717"/>
<path opacity="0.4" d="M2.75006 18.6501C2.34006 18.6501 2.00006 18.3101 2.00006 17.9001V12.2001C1.95006 9.49007 2.96006 6.93007 4.84006 5.01007C6.72006 3.10007 9.24007 2.05005 11.9501 2.05005C17.4901 2.05005 22.0001 6.56004 22.0001 12.1V17.8C22.0001 18.21 21.6601 18.55 21.2501 18.55C20.8401 18.55 20.5001 18.21 20.5001 17.8V12.1C20.5001 7.39004 16.6701 3.55005 11.9501 3.55005C9.64007 3.55005 7.50007 4.44006 5.91007 6.06006C4.31007 7.69006 3.46006 9.86005 3.50006 12.1801V17.8901C3.50006 18.3101 3.17006 18.6501 2.75006 18.6501Z" fill="#171717"/>
<path d="M5.94 12.4501H5.81C3.71 12.4501 2 14.1601 2 16.2601V18.1401C2 20.2401 3.71 21.9501 5.81 21.9501H5.94C8.04 21.9501 9.75 20.2401 9.75 18.1401V16.2601C9.75 14.1601 8.04 12.4501 5.94 12.4501Z" fill="#171717"/>
<path d="M18.19 12.4501H18.06C15.96 12.4501 14.25 14.1601 14.25 16.2601V18.1401C14.25 20.2401 15.96 21.9501 18.06 21.9501H18.19C20.29 21.9501 22 20.2401 22 18.1401V16.2601C22 14.1601 20.29 12.4501 18.19 12.4501Z" fill="#171717"/>
</svg>
