<svg width="24" height="24" viewBox="0 0 24 24" fill="none" xmlns="http://www.w3.org/2000/svg">
<path d="M14.8399 10.9L20.4999 7.10996C21.0699 6.72996 21.2199 5.94996 20.8399 5.38996L19.0199 2.67996C18.6399 2.10996 17.8599 1.95996 17.2999 2.33996L11.6399 6.12996L14.8399 10.9Z" fill="#171717"/>
<path d="M14.5199 10.42L12.7599 11.6L10.0899 13.39L9.73993 13.62L9.57993 13.38L7.33993 10.04L7.17993 9.79998L11.9599 6.59998L14.5199 10.42Z" fill="#171717"/>
<path d="M5.6401 16.02L9.5901 13.38L7.3501 10.04L3.4001 12.68C2.9401 12.99 2.8201 13.61 3.1301 14.07L4.2601 15.75C4.5601 16.21 5.1801 16.33 5.6401 16.02Z" fill="#171717"/>
<path d="M16.5599 21.81C16.4599 21.85 16.3499 21.88 16.2499 21.88C15.9599 21.88 15.6899 21.71 15.5599 21.43L11.8299 13.19L8.0499 21.44C7.9199 21.71 7.6499 21.88 7.3599 21.88C7.2599 21.88 7.1499 21.85 7.0499 21.81C6.6799 21.63 6.5099 21.19 6.6799 20.81L10.0899 13.39L12.7599 11.6L16.9299 20.82C17.0999 21.19 16.9299 21.64 16.5599 21.81Z" fill="#171717"/>
</svg>
