<svg width="24" height="24" viewBox="0 0 24 24" fill="none" xmlns="http://www.w3.org/2000/svg">
<path opacity="0.4" d="M12 22C17.5228 22 22 17.5228 22 12C22 6.47715 17.5228 2 12 2C6.47715 2 2 6.47715 2 12C2 17.5228 6.47715 22 12 22Z" fill="#171717"/>
<path fill-rule="evenodd" clip-rule="evenodd" d="M12.1187 6.00228C12.6994 5.72439 13.2668 6.01782 13.6101 6.30389L15.6682 8.02226C15.6687 8.02268 15.6692 8.02311 15.6697 8.02353C16.3051 8.55082 16.3364 9.4853 15.7138 10.0456L13.5768 12.005L15.7138 13.9645C16.3364 14.5248 16.3051 15.4593 15.6697 15.9866C15.6692 15.987 15.6687 15.9874 15.6682 15.9879L13.6107 17.7058L13.609 17.7071C13.2658 17.9921 12.7037 18.2762 12.1283 18.0068C11.5514 17.7368 11.41 17.1211 11.41 16.6701V13.9919L9.09684 16.1128C8.79154 16.3928 8.31711 16.3722 8.03717 16.0669C7.75724 15.7616 7.7778 15.2872 8.0831 15.0073L11.3573 12.005L8.0831 9.00286C7.7778 8.72293 7.75724 8.2485 8.03717 7.9432C8.31711 7.63789 8.79154 7.61733 9.09684 7.89727L11.41 10.0182V7.34005C11.41 6.8971 11.544 6.27733 12.1187 6.00228ZM12.91 13.4287L14.5699 14.9507L12.91 16.3367V13.4287ZM12.91 10.5814V7.67343L14.5699 9.05938L12.91 10.5814Z" fill="#171717"/>
</svg>
