<svg width="24" height="24" viewBox="0 0 24 24" fill="none" xmlns="http://www.w3.org/2000/svg">
<path d="M17 22.75H7C6.59 22.75 6.25 22.41 6.25 22C6.25 21.59 6.59 21.25 7 21.25H17C17.41 21.25 17.75 21.59 17.75 22C17.75 22.41 17.41 22.75 17 22.75Z" fill="#171717"/>
<path opacity="0.4" d="M18 19H6C3.79 19 2 17.21 2 15V6C2 3.79 3.79 2 6 2H18C20.21 2 22 3.79 22 6V15C22 17.21 20.21 19 18 19Z" fill="#171717"/>
<path d="M17.2601 9.07007H13.5801C13.1701 9.07007 12.8301 8.73007 12.8301 8.32007C12.8301 7.91007 13.1701 7.57007 13.5801 7.57007H17.2601C17.6701 7.57007 18.0101 7.91007 18.0101 8.32007C18.0101 8.73007 17.6801 9.07007 17.2601 9.07007Z" fill="#171717"/>
<path d="M10 9.32007C9.45 9.32007 9 8.87007 9 8.32007C9 7.77007 9.44 7.32007 10 7.32007C10.55 7.32007 11 7.77007 11 8.32007C11 8.87007 10.56 9.32007 10 9.32007Z" fill="#171717"/>
<path d="M6.8501 9.32007C6.3001 9.32007 5.8501 8.87007 5.8501 8.32007C5.8501 7.77007 6.2901 7.32007 6.8501 7.32007H6.86009C7.41009 7.32007 7.86009 7.77007 7.86009 8.32007C7.86009 8.87007 7.4001 9.32007 6.8501 9.32007Z" fill="#171717"/>
<path d="M17.26 14.86H6.74998C6.33998 14.86 5.98999 14.52 5.98999 14.11C5.98999 13.7 6.31998 13.36 6.72998 13.36H17.26C17.67 13.36 18.01 13.7 18.01 14.11C18.01 14.52 17.68 14.86 17.26 14.86Z" fill="#171717"/>
</svg>
