<svg width="24" height="24" viewBox="0 0 24 24" fill="none" xmlns="http://www.w3.org/2000/svg">
<g clip-path="url(#clip0_211_84164)">
<path d="M3 15C3 14.4696 3.21071 13.9609 3.58579 13.5858C3.96086 13.2107 4.46957 13 5 13H19C19.5304 13 20.0391 13.2107 20.4142 13.5858C20.7893 13.9609 21 14.4696 21 15V19C21 19.5304 20.7893 20.0391 20.4142 20.4142C20.0391 20.7893 19.5304 21 19 21H5C4.46957 21 3.96086 20.7893 3.58579 20.4142C3.21071 20.0391 3 19.5304 3 19V15Z" stroke="black" stroke-width="1.5" stroke-linecap="round" stroke-linejoin="round"/>
<path d="M17 17V17.01" stroke="black" stroke-width="1.5" stroke-linecap="round" stroke-linejoin="round"/>
<path d="M13 17V17.01" stroke="black" stroke-width="1.5" stroke-linecap="round" stroke-linejoin="round"/>
<path d="M15 13V11" stroke="black" stroke-width="1.5" stroke-linecap="round" stroke-linejoin="round"/>
<path d="M11.75 8.74994C12.1203 8.23379 12.6083 7.81327 13.1734 7.52318C13.7386 7.23309 14.3647 7.08179 15 7.08179C15.6353 7.08179 16.2614 7.23309 16.8266 7.52318C17.3917 7.81327 17.8797 8.23379 18.25 8.74994" stroke="black" stroke-width="1.5" stroke-linecap="round" stroke-linejoin="round"/>
<path d="M8.5 6.50037C9.24067 5.46807 10.2166 4.62702 11.3469 4.04685C12.4772 3.46667 13.7295 3.16406 15 3.16406C16.2705 3.16406 17.5228 3.46667 18.6531 4.04685C19.7834 4.62702 20.7593 5.46807 21.5 6.50037" stroke="black" stroke-width="1.5" stroke-linecap="round" stroke-linejoin="round"/>
</g>
<defs>
<clipPath id="clip0_211_84164">
<rect width="24" height="24" fill="white"/>
</clipPath>
</defs>
</svg>
