<svg width="24" height="24" viewBox="0 0 24 24" fill="none" xmlns="http://www.w3.org/2000/svg">
<g clip-path="url(#clip0_211_83917)">
<path d="M20.0441 16.0395C20.8942 14.349 21.1899 12.4335 20.8891 10.5652C20.5882 8.69701 19.7062 6.97115 18.3683 5.63293C17.0304 4.29472 15.3047 3.41224 13.4366 3.11093C11.5685 2.80962 9.65286 3.10481 7.96209 3.95454M5.62909 5.64254C4.37238 6.902 3.51717 8.50568 3.1715 10.251C2.82583 11.9963 3.00521 13.8049 3.68699 15.4483C4.36877 17.0917 5.52234 18.4961 7.00197 19.4842C8.4816 20.4722 10.2209 20.9996 12.0001 20.9995C14.4911 20.9995 16.7301 19.9995 18.3601 18.3685" stroke="black" stroke-width="1.5" stroke-linecap="round" stroke-linejoin="round"/>
<path d="M11.2992 11.2881C11.11 11.474 11.0024 11.7275 11 11.9927C10.9977 12.258 11.1008 12.5134 11.2867 12.7026C11.4727 12.8918 11.7261 12.9994 11.9914 13.0018C12.2567 13.0041 12.512 12.901 12.7012 12.7151" stroke="black" stroke-width="1.5" stroke-linecap="round" stroke-linejoin="round"/>
<path d="M7 12C7 10.62 7.559 9.371 8.462 8.466M11.069 7.086C11.371 7.03 11.682 7 12 7" stroke="black" stroke-width="1.5" stroke-linecap="round" stroke-linejoin="round"/>
<path d="M12 17C12.6604 17.0008 13.3144 16.8704 13.924 16.6164C14.5336 16.3623 15.0867 15.9896 15.551 15.52M16.913 12.933C16.97 12.631 17 12.319 17 12" stroke="black" stroke-width="1.5" stroke-linecap="round" stroke-linejoin="round"/>
<path d="M3 3L21 21" stroke="black" stroke-width="1.5" stroke-linecap="round" stroke-linejoin="round"/>
</g>
<defs>
<clipPath id="clip0_211_83917">
<rect width="24" height="24" fill="white"/>
</clipPath>
</defs>
</svg>
