<svg width="24" height="24" viewBox="0 0 24 24" fill="none" xmlns="http://www.w3.org/2000/svg">
<g clip-path="url(#clip0_211_84086)">
<path d="M6.99847 12L11.9985 17L10.4985 18.5C10.1721 18.8371 9.78198 19.1059 9.35072 19.2907C8.91947 19.4755 8.45575 19.5727 7.98658 19.5765C7.51741 19.5803 7.05217 19.4907 6.61798 19.3129C6.18378 19.1351 5.78931 18.8727 5.45755 18.5409C5.12578 18.2092 4.86336 17.8147 4.68557 17.3805C4.50778 16.9463 4.41818 16.4811 4.42199 16.0119C4.4258 15.5427 4.52294 15.079 4.70776 14.6477C4.89257 14.2165 5.16136 13.8263 5.49847 13.5L6.99847 12Z" stroke="black" stroke-width="1.5" stroke-linecap="round" stroke-linejoin="round"/>
<path d="M17 12.0004L12 7.00042L13.5 5.50042C13.8263 5.16332 14.2165 4.89453 14.6477 4.70971C15.079 4.5249 15.5427 4.42775 16.0119 4.42394C16.4811 4.42014 16.9463 4.50974 17.3805 4.68752C17.8147 4.86531 18.2092 5.12773 18.5409 5.4595C18.8727 5.79126 19.1351 6.18574 19.3129 6.61993C19.4907 7.05413 19.5803 7.51936 19.5765 7.98853C19.5727 8.4577 19.4755 8.92143 19.2907 9.35268C19.1059 9.78393 18.8371 10.1741 18.5 10.5004L17 12.0004Z" stroke="black" stroke-width="1.5" stroke-linecap="round" stroke-linejoin="round"/>
<path d="M3 21L5.5 18.5" stroke="black" stroke-width="1.5" stroke-linecap="round" stroke-linejoin="round"/>
<path d="M18.5 5.5L21 3" stroke="black" stroke-width="1.5" stroke-linecap="round" stroke-linejoin="round"/>
<path d="M10 11L8 13" stroke="black" stroke-width="1.5" stroke-linecap="round" stroke-linejoin="round"/>
<path d="M13 14L11 16" stroke="black" stroke-width="1.5" stroke-linecap="round" stroke-linejoin="round"/>
</g>
<defs>
<clipPath id="clip0_211_84086">
<rect width="24" height="24" fill="white"/>
</clipPath>
</defs>
</svg>
