<svg width="24" height="24" viewBox="0 0 24 24" fill="none" xmlns="http://www.w3.org/2000/svg">
<g clip-path="url(#clip0_211_85055)">
<path d="M12.5 21H6C5.73478 21 5.48043 20.8946 5.29289 20.7071C5.10536 20.5196 5 20.2652 5 20V4C5 3.73478 5.10536 3.48043 5.29289 3.29289C5.48043 3.10536 5.73478 3 6 3H18C18.2652 3 18.5196 3.10536 18.7071 3.29289C18.8946 3.48043 19 3.73478 19 4V11" stroke="black" stroke-width="1.5" stroke-linecap="round" stroke-linejoin="round"/>
<path d="M12 16C11.7348 16 11.4804 16.1054 11.2929 16.2929C11.1054 16.4804 11 16.7348 11 17C11 17.2652 11.1054 17.5196 11.2929 17.7071C11.4804 17.8946 11.7348 18 12 18" stroke="black" stroke-width="1.5" stroke-linecap="round" stroke-linejoin="round"/>
<path d="M21.121 20.1207C21.5406 19.7011 21.8265 19.1666 21.9423 18.5846C22.0581 18.0027 21.9988 17.3994 21.7717 16.8512C21.5447 16.303 21.1602 15.8344 20.6668 15.5047C20.1734 15.175 19.5934 14.999 19 14.999C18.4066 14.999 17.8266 15.175 17.3332 15.5047C16.8398 15.8344 16.4553 16.303 16.2283 16.8512C16.0012 17.3994 15.9419 18.0027 16.0577 18.5846C16.1735 19.1666 16.4594 19.7011 16.879 20.1207C17.297 20.5397 18.004 21.1657 19 21.9997C20.051 21.1097 20.759 20.4837 21.121 20.1207Z" stroke="black" stroke-width="1.5" stroke-linecap="round" stroke-linejoin="round"/>
<path d="M19 18V18.01" stroke="black" stroke-width="1.5" stroke-linecap="round" stroke-linejoin="round"/>
</g>
<defs>
<clipPath id="clip0_211_85055">
<rect width="24" height="24" fill="white"/>
</clipPath>
</defs>
</svg>
