<svg width="24" height="24" viewBox="0 0 24 24" fill="none" xmlns="http://www.w3.org/2000/svg">
<g clip-path="url(#clip0_211_71238)">
<path d="M6.141 4.16331L18.141 5.87731C18.3794 5.91126 18.5975 6.03009 18.7553 6.21195C18.9131 6.39382 19 6.62652 19 6.86731V17.1333C19 17.3741 18.9131 17.6068 18.7553 17.7887C18.5975 17.9705 18.3794 18.0894 18.141 18.1233L6.141 19.8373C5.9992 19.8575 5.85471 19.847 5.71731 19.8065C5.57992 19.766 5.45283 19.6965 5.34464 19.6026C5.23645 19.5087 5.14969 19.3927 5.09023 19.2624C5.03077 19.1321 5 18.9905 5 18.8473V5.15331C5 5.01008 5.03077 4.86851 5.09023 4.7382C5.14969 4.60789 5.23645 4.49187 5.34464 4.398C5.45283 4.30413 5.57992 4.2346 5.71731 4.19411C5.85471 4.15362 5.9992 4.14311 6.141 4.16331Z" stroke="black" stroke-width="1.5" stroke-linecap="round" stroke-linejoin="round"/>
</g>
<defs>
<clipPath id="clip0_211_71238">
<rect width="24" height="24" fill="white"/>
</clipPath>
</defs>
</svg>
