<svg width="24" height="24" viewBox="0 0 24 24" fill="none" xmlns="http://www.w3.org/2000/svg">
<g clip-path="url(#clip0_211_71234)">
<path d="M8.86971 4.85685L10.8057 3.39985C11.1516 3.14092 11.5721 3.00098 12.0042 3.00098C12.4363 3.00098 12.8568 3.14092 13.2027 3.39985L20.2347 8.63685C20.5739 8.8893 20.8244 9.24277 20.9502 9.64649C21.076 10.0502 21.0706 10.4834 20.9347 10.8839L19.4127 15.3689M18.3857 18.3979L17.9617 19.6479C17.8275 20.0438 17.5727 20.3877 17.2329 20.6312C16.8932 20.8748 16.4857 21.0058 16.0677 21.0059H7.94771C7.52682 21.006 7.11661 20.8734 6.77547 20.6269C6.43433 20.3804 6.17966 20.0325 6.04771 19.6329L3.15171 10.8679C3.02054 10.4708 3.01714 10.0426 3.14199 9.64346C3.26683 9.24434 3.51364 8.8944 3.84771 8.64285L6.58371 6.58285" stroke="black" stroke-width="1.5" stroke-linecap="round" stroke-linejoin="round"/>
<path d="M3 3L21 21" stroke="black" stroke-width="1.5" stroke-linecap="round" stroke-linejoin="round"/>
</g>
<defs>
<clipPath id="clip0_211_71234">
<rect width="24" height="24" fill="white"/>
</clipPath>
</defs>
</svg>
