<svg width="24" height="24" viewBox="0 0 24 24" fill="none" xmlns="http://www.w3.org/2000/svg">
<g clip-path="url(#clip0_211_71057)">
<path d="M18.4033 5.50839L20.9413 15.6664C21.0532 16.1106 21.0085 16.5797 20.8146 16.9947C20.6208 17.4097 20.2897 17.7451 19.8773 17.9444L12.8413 21.3104C12.5788 21.4363 12.2914 21.5016 12.0003 21.5016C11.7092 21.5016 11.4218 21.4363 11.1593 21.3104L4.1243 17.9454C3.71188 17.7461 3.38082 17.4107 3.18698 16.9957C2.99314 16.5807 2.9484 16.1115 3.0603 15.6674L5.5993 5.50839C5.6717 5.21744 5.80923 4.94673 6.00151 4.71668C6.19379 4.48664 6.43581 4.30326 6.7093 4.18039L11.2053 2.17039C11.4555 2.0587 11.7263 2.00098 12.0003 2.00098C12.2743 2.00098 12.5451 2.0587 12.7953 2.17039L17.2913 4.18039C17.8453 4.42639 18.2543 4.91639 18.4033 5.50839Z" stroke="black" stroke-width="1.5" stroke-linecap="round" stroke-linejoin="round"/>
<path d="M18 4.82034L12.802 7.14434C12.55 7.25698 12.277 7.3152 12.001 7.3152C11.725 7.3152 11.452 7.25698 11.2 7.14434L6 4.81934" stroke="black" stroke-width="1.5" stroke-linecap="round" stroke-linejoin="round"/>
<path d="M12 7.32031V21.5003" stroke="black" stroke-width="1.5" stroke-linecap="round" stroke-linejoin="round"/>
</g>
<defs>
<clipPath id="clip0_211_71057">
<rect width="24" height="24" fill="white"/>
</clipPath>
</defs>
</svg>
