<svg width="24" height="24" viewBox="0 0 24 24" fill="none" xmlns="http://www.w3.org/2000/svg">
<g clip-path="url(#clip0_211_71241)">
<path d="M8.511 4.50201L18.141 5.87701C18.3794 5.91097 18.5975 6.02979 18.7553 6.21166C18.9131 6.39353 19 6.62623 19 6.86701V15M18.141 18.123L6.141 19.837C5.9992 19.8572 5.85471 19.8467 5.71731 19.8062C5.57992 19.7657 5.45283 19.6962 5.34464 19.6023C5.23645 19.5085 5.14969 19.3924 5.09023 19.2621C5.03077 19.1318 5 18.9902 5 18.847V5.15301C5.00019 5.10717 5.00353 5.0614 5.01 5.01601" stroke="black" stroke-width="1.5" stroke-linecap="round" stroke-linejoin="round"/>
<path d="M3 3L21 21" stroke="black" stroke-width="1.5" stroke-linecap="round" stroke-linejoin="round"/>
</g>
<defs>
<clipPath id="clip0_211_71241">
<rect width="24" height="24" fill="white"/>
</clipPath>
</defs>
</svg>
