<svg width="24" height="24" viewBox="0 0 24 24" fill="none" xmlns="http://www.w3.org/2000/svg">
<g clip-path="url(#clip0_211_71109)">
<path d="M8.693 4.68962L11.029 3.29962C11.3348 3.12939 11.679 3.04004 12.029 3.04004C12.379 3.04004 12.7232 3.12939 13.029 3.29962L19.029 6.87262H19C19.3062 7.04941 19.5601 7.30424 19.7358 7.61114C19.9115 7.91803 20.0026 8.26601 20 8.61962V15.1556C20 15.4016 19.955 15.6406 19.87 15.8626M17.71 17.7096L12.971 20.7366C12.674 20.9016 12.3398 20.9881 12 20.9881C11.6602 20.9881 11.326 20.9016 11.029 20.7366L5.029 16.9036C4.71736 16.7305 4.45763 16.4773 4.27671 16.1702C4.0958 15.863 4.00026 15.5131 4 15.1566V8.61962C4.00008 8.26297 4.09553 7.91283 4.27646 7.60549C4.45739 7.29814 4.71721 7.04477 5.029 6.87162L6.183 6.18462" stroke="black" stroke-width="1.5" stroke-linecap="round" stroke-linejoin="round"/>
<path d="M3 3L21 21" stroke="black" stroke-width="1.5" stroke-linecap="round" stroke-linejoin="round"/>
</g>
<defs>
<clipPath id="clip0_211_71109">
<rect width="24" height="24" fill="white"/>
</clipPath>
</defs>
</svg>
