<svg width="24" height="24" viewBox="0 0 24 24" fill="none" xmlns="http://www.w3.org/2000/svg">
<g clip-path="url(#clip0_211_71200)">
<path d="M9.103 2H14.897C15.2911 1.99995 15.6814 2.07756 16.0455 2.22838C16.4096 2.3792 16.7404 2.60029 17.019 2.879L21.12 6.98C21.399 7.25867 21.6204 7.58961 21.7714 7.95389C21.9223 8.31818 22 8.70866 22 9.103V14.897C22 15.2911 21.9224 15.6814 21.7716 16.0455C21.6208 16.4096 21.3997 16.7404 21.121 17.019L17.02 21.12C16.7414 21.3987 16.4106 21.6198 16.0465 21.7706C15.6824 21.9214 15.2921 21.999 14.898 21.999H9.103C8.7089 21.999 8.31865 21.9214 7.95455 21.7706C7.59045 21.6198 7.25963 21.3987 6.981 21.12L2.88 17.02C2.60099 16.7413 2.37965 16.4104 2.22865 16.0461C2.07765 15.6818 1.99995 15.2913 2 14.897V9.103C1.99995 8.7089 2.07756 8.31865 2.22838 7.95455C2.3792 7.59045 2.60029 7.25963 2.879 6.981L6.98 2.88C7.25867 2.60099 7.58961 2.37965 7.95389 2.22865C8.31818 2.07765 8.70866 1.99995 9.103 2Z" stroke="black" stroke-width="1.5" stroke-linecap="round" stroke-linejoin="round"/>
</g>
<defs>
<clipPath id="clip0_211_71200">
<rect width="24" height="24" fill="white"/>
</clipPath>
</defs>
</svg>
