<svg width="24" height="24" viewBox="0 0 24 24" fill="none" xmlns="http://www.w3.org/2000/svg">
<g clip-path="url(#clip0_211_71331)">
<path d="M13.4459 2.59999L21.4009 10.554C21.7844 10.9375 21.9999 11.4576 21.9999 12C21.9999 12.5423 21.7844 13.0625 21.4009 13.446L13.4459 21.401C13.0624 21.7845 12.5423 21.9999 11.9999 21.9999C11.4576 21.9999 10.9374 21.7845 10.5539 21.401L2.59893 13.446C2.21544 13.0625 2 12.5423 2 12C2 11.4576 2.21544 10.9375 2.59893 10.554L10.5539 2.59899C10.9374 2.2155 11.4576 2.00006 11.9999 2.00006C12.5423 2.00006 13.0624 2.2165 13.4459 2.59999Z" stroke="black" stroke-width="1.5" stroke-linecap="round" stroke-linejoin="round"/>
</g>
<defs>
<clipPath id="clip0_211_71331">
<rect width="24" height="24" fill="white"/>
</clipPath>
</defs>
</svg>
