<svg width="24" height="24" viewBox="0 0 24 24" fill="none" xmlns="http://www.w3.org/2000/svg">
<g clip-path="url(#clip0_211_71288)">
<path d="M21 12.5005V8.99148C20.9994 8.64255 20.9066 8.29997 20.731 7.99845C20.5554 7.69694 20.3032 7.44718 20 7.27448L16 5.26647C15.6954 5.09249 15.3508 5.00098 15 5.00098C14.6492 5.00098 14.3046 5.09249 14 5.26647L4 10.2735C3.381 10.6285 3 11.2835 3 11.9915V17.0095C3 17.7185 3.381 18.3725 4 18.7265L8 20.7345C8.30456 20.9085 8.64925 21 9 21C9.35075 21 9.69544 20.9085 10 20.7345L12.062 19.7025" stroke="black" stroke-width="1.5" stroke-linecap="round" stroke-linejoin="round"/>
<path d="M9 21V13.5" stroke="black" stroke-width="1.5" stroke-linecap="round" stroke-linejoin="round"/>
<path d="M9 13.5L20.5 8" stroke="black" stroke-width="1.5" stroke-linecap="round" stroke-linejoin="round"/>
<path d="M3.5 11L9 13.5" stroke="black" stroke-width="1.5" stroke-linecap="round" stroke-linejoin="round"/>
<path d="M16 19H22" stroke="black" stroke-width="1.5" stroke-linecap="round" stroke-linejoin="round"/>
<path d="M19 16V22" stroke="black" stroke-width="1.5" stroke-linecap="round" stroke-linejoin="round"/>
</g>
<defs>
<clipPath id="clip0_211_71288">
<rect width="24" height="24" fill="white"/>
</clipPath>
</defs>
</svg>
