<svg width="24" height="24" viewBox="0 0 24 24" fill="none" xmlns="http://www.w3.org/2000/svg">
<g clip-path="url(#clip0_211_71344)">
<path d="M4.99921 18.9995H18.9992M20.9852 16.9855C20.9834 16.7332 20.9339 16.4835 20.8392 16.2495L13.7392 3.99953C13.5663 3.68693 13.3127 3.42636 13.005 3.24491C12.6972 3.06347 12.3465 2.96777 11.9892 2.96777C11.632 2.96777 11.2812 3.06347 10.9735 3.24491C10.6657 3.42636 10.4122 3.68693 10.2392 3.99953L9.41421 5.42353M7.94721 7.95353L3.13921 16.2495C3.01915 16.5451 2.97155 16.8651 3.00036 17.1828C3.02918 17.5006 3.13359 17.8068 3.30486 18.0759C3.47614 18.3451 3.70932 18.5694 3.98494 18.73C4.26056 18.8907 4.57061 18.9831 4.88921 18.9995" stroke="black" stroke-width="1.5" stroke-linecap="round" stroke-linejoin="round"/>
<path d="M3 3L21 21" stroke="black" stroke-width="1.5" stroke-linecap="round" stroke-linejoin="round"/>
</g>
<defs>
<clipPath id="clip0_211_71344">
<rect width="24" height="24" fill="white"/>
</clipPath>
</defs>
</svg>
