<svg width="24" height="24" viewBox="0 0 24 24" fill="none" xmlns="http://www.w3.org/2000/svg">
<g clip-path="url(#clip0_211_71062)">
<path d="M7.7203 3.72839L11.2043 2.17039C11.4545 2.0587 11.7253 2.00098 11.9993 2.00098C12.2733 2.00098 12.5441 2.0587 12.7943 2.17039L17.2903 4.18039C17.8443 4.42639 18.2533 4.91639 18.4023 5.50839L20.9403 15.6664C21.0433 16.0784 21.0103 16.4984 20.8653 16.8724M18.5663 18.5714L12.8413 21.3094C12.5788 21.4353 12.2914 21.5006 12.0003 21.5006C11.7092 21.5006 11.4218 21.4353 11.1593 21.3094L4.1243 17.9444C3.71188 17.7451 3.38082 17.4097 3.18698 16.9947C2.99314 16.5797 2.9484 16.1106 3.0603 15.6664L5.5803 5.58639" stroke="black" stroke-width="1.5" stroke-linecap="round" stroke-linejoin="round"/>
<path d="M17.9992 4.82031L12.8012 7.14431C12.5492 7.25695 12.2763 7.31517 12.0002 7.31517C11.7242 7.31517 11.4512 7.25695 11.1992 7.14431" stroke="black" stroke-width="1.5" stroke-linecap="round" stroke-linejoin="round"/>
<path d="M12 7.32031V8.00031M12 12.0003V21.5003" stroke="black" stroke-width="1.5" stroke-linecap="round" stroke-linejoin="round"/>
<path d="M3 3L21 21" stroke="black" stroke-width="1.5" stroke-linecap="round" stroke-linejoin="round"/>
</g>
<defs>
<clipPath id="clip0_211_71062">
<rect width="24" height="24" fill="white"/>
</clipPath>
</defs>
</svg>
