<svg width="24" height="24" viewBox="0 0 24 24" fill="none" xmlns="http://www.w3.org/2000/svg">
<g clip-path="url(#clip0_211_71054)">
<path d="M10.831 20.413L5.456 13.503C4.848 12.72 4.848 11.28 5.456 10.503L10.831 3.59199C10.9666 3.40974 11.1429 3.26171 11.3459 3.15973C11.5488 3.05775 11.7728 3.00464 12 3.00464C12.2272 3.00464 12.4512 3.05775 12.6541 3.15973C12.8571 3.26171 13.0334 3.40974 13.169 3.59199L18.544 10.502C19.152 11.285 19.152 12.725 18.544 13.502L13.169 20.413C13.0334 20.5952 12.8571 20.7433 12.6541 20.8452C12.4512 20.9472 12.2272 21.0003 12 21.0003C11.7728 21.0003 11.5488 20.9472 11.3459 20.8452C11.1429 20.7433 10.9666 20.5952 10.831 20.413Z" stroke="black" stroke-width="1.5" stroke-linecap="round" stroke-linejoin="round"/>
</g>
<defs>
<clipPath id="clip0_211_71054">
<rect width="24" height="24" fill="white"/>
</clipPath>
</defs>
</svg>
