<svg width="24" height="24" viewBox="0 0 24 24" fill="none" xmlns="http://www.w3.org/2000/svg">
<g clip-path="url(#clip0_211_71231)">
<path d="M13.2017 3.39385L20.2347 8.63085C20.5739 8.8833 20.8244 9.23677 20.9502 9.64049C21.076 10.0442 21.0706 10.4774 20.9347 10.8779L17.9617 19.6419C17.8275 20.0377 17.5727 20.3817 17.2329 20.6252C16.8932 20.8688 16.4857 20.9998 16.0677 20.9999H7.94771C7.52682 21 7.11661 20.8674 6.77547 20.6209C6.43433 20.3744 6.17966 20.0265 6.04771 19.6269L3.15171 10.8619C3.02054 10.4648 3.01714 10.0366 3.14199 9.63746C3.26683 9.23834 3.51364 8.8884 3.84771 8.63685L10.8057 3.39985C11.1516 3.14092 11.5721 3.00098 12.0042 3.00098C12.4363 3.00098 12.8568 3.14092 13.2027 3.39985L13.2017 3.39385Z" stroke="black" stroke-width="1.5" stroke-linecap="round" stroke-linejoin="round"/>
</g>
<defs>
<clipPath id="clip0_211_71231">
<rect width="24" height="24" fill="white"/>
</clipPath>
</defs>
</svg>
