<svg width="24" height="24" viewBox="0 0 24 24" fill="none" xmlns="http://www.w3.org/2000/svg">
<g clip-path="url(#clip0_211_71086)">
<path d="M14.0185 18.0003L12.0015 20.0003L4.50148 12.5723C3.98367 12.0685 3.5812 11.4585 3.32177 10.7842C3.06234 10.1099 2.95211 9.3874 2.99868 8.66643C3.04525 7.94547 3.24751 7.24316 3.59153 6.60785C3.93555 5.97255 4.41316 5.41935 4.99148 4.98633M8.00148 3.98633C8.77923 3.98842 9.54577 4.17192 10.2402 4.52224C10.9345 4.87256 11.5376 5.38003 12.0015 6.00433C12.7838 4.96286 13.9416 4.26777 15.2285 4.06698C16.5155 3.86619 17.83 4.17554 18.8924 4.92921C19.9547 5.68287 20.681 6.82136 20.9168 8.10239C21.1525 9.38342 20.879 10.7059 20.1545 11.7883" stroke="black" stroke-width="1.5" stroke-linecap="round" stroke-linejoin="round"/>
<path d="M11.8137 11.8136C11.2936 12.3385 11.0013 13.0472 11 13.7861C10.9987 14.525 11.2885 15.2347 11.8067 15.7616L15.9887 19.9996L17.9987 17.9786M19.9757 15.9886L20.1867 15.7766C20.7057 15.2507 20.9968 14.5415 20.9968 13.8026C20.9968 13.0636 20.7057 12.3544 20.1867 11.8286C19.9316 11.5692 19.6276 11.3631 19.2922 11.2222C18.9569 11.0814 18.5969 11.0085 18.2331 11.0078C17.8694 11.0072 17.5091 11.0788 17.1733 11.2185C16.8374 11.3581 16.5326 11.5631 16.2767 11.8216L15.9937 11.9996" stroke="black" stroke-width="1.5" stroke-linecap="round" stroke-linejoin="round"/>
<path d="M3 3L21 21" stroke="black" stroke-width="1.5" stroke-linecap="round" stroke-linejoin="round"/>
</g>
<defs>
<clipPath id="clip0_211_71086">
<rect width="24" height="24" fill="white"/>
</clipPath>
</defs>
</svg>
