<svg width="24" height="24" viewBox="0 0 24 24" fill="none" xmlns="http://www.w3.org/2000/svg">
<g clip-path="url(#clip0_211_71068)">
<path d="M12.8413 21.3094C12.5788 21.4353 12.2914 21.5006 12.0003 21.5006C11.7092 21.5006 11.4218 21.4353 11.1593 21.3094L4.1243 17.9444C3.71188 17.7451 3.38082 17.4097 3.18698 16.9947C2.99314 16.5797 2.9484 16.1106 3.0603 15.6664L5.5983 5.50839C5.6707 5.21744 5.80823 4.94673 6.00051 4.71668C6.19279 4.48664 6.43481 4.30326 6.7083 4.18039L11.2043 2.17039C11.4545 2.0587 11.7253 2.00098 11.9993 2.00098C12.2733 2.00098 12.5441 2.0587 12.7943 2.17039L17.2903 4.18039C17.8443 4.42639 18.2533 4.91639 18.4023 5.50839L20.0723 12.1914" stroke="black" stroke-width="1.5" stroke-linecap="round" stroke-linejoin="round"/>
<path d="M18 4.82034L12.802 7.14434C12.55 7.25698 12.277 7.3152 12.001 7.3152C11.725 7.3152 11.452 7.25698 11.2 7.14434L6 4.81934" stroke="black" stroke-width="1.5" stroke-linecap="round" stroke-linejoin="round"/>
<path d="M12 7.32031V21.5003" stroke="black" stroke-width="1.5" stroke-linecap="round" stroke-linejoin="round"/>
<path d="M16 19H22" stroke="black" stroke-width="1.5" stroke-linecap="round" stroke-linejoin="round"/>
<path d="M19 16V22" stroke="black" stroke-width="1.5" stroke-linecap="round" stroke-linejoin="round"/>
</g>
<defs>
<clipPath id="clip0_211_71068">
<rect width="24" height="24" fill="white"/>
</clipPath>
</defs>
</svg>
