<svg width="24" height="24" viewBox="0 0 24 24" fill="none" xmlns="http://www.w3.org/2000/svg">
<path d="M9 11V10C9 8.34 9.5 7 12 7C14.5 7 15 8.34 15 10V11" stroke="#171717" stroke-width="1.5" stroke-linecap="round" stroke-linejoin="round"/>
<path d="M11.9999 14.5999C12.3312 14.5999 12.5999 14.3313 12.5999 13.9999C12.5999 13.6685 12.3312 13.3999 11.9999 13.3999C11.6685 13.3999 11.3999 13.6685 11.3999 13.9999C11.3999 14.3313 11.6685 14.5999 11.9999 14.5999Z" stroke="#171717" stroke-width="1.5" stroke-linecap="round" stroke-linejoin="round"/>
<path d="M14.5 17H9.5C7.5 17 7 16.5 7 14.5V13.5C7 11.5 7.5 11 9.5 11H14.5C16.5 11 17 11.5 17 13.5V14.5C17 16.5 16.5 17 14.5 17Z" stroke="#171717" stroke-width="1.5" stroke-linecap="round" stroke-linejoin="round"/>
<path d="M4 6C2.75 7.67 2 9.75 2 12C2 17.52 6.48 22 12 22C17.52 22 22 17.52 22 12C22 6.48 17.52 2 12 2C10.57 2 9.19997 2.30001 7.96997 2.85001" stroke="#171717" stroke-width="1.5" stroke-linecap="round" stroke-linejoin="round"/>
</svg>
