<svg width="24" height="24" viewBox="0 0 24 24" fill="none" xmlns="http://www.w3.org/2000/svg">
<path d="M19.3598 4.64009L5.8298 18.1701L4.7298 17.3501C4.0798 16.8601 3.5498 15.8001 3.5498 14.9801V6.89009C3.5498 5.76009 4.4098 4.52009 5.4598 4.12009L10.9598 2.06009C11.5298 1.85009 12.4698 1.85009 13.0398 2.06009L18.5398 4.12009C18.8298 4.23009 19.1098 4.41009 19.3598 4.64009Z" fill="#171717"/>
<path d="M20.45 14.9801C20.45 15.8001 19.92 16.8601 19.27 17.3501L13.77 21.4601C12.79 22.1801 11.21 22.1801 10.23 21.4601L8.46999 20.1501C7.97999 19.7901 7.92999 19.0701 8.35999 18.6401L18.74 8.26008C19.37 7.63008 20.45 8.08008 20.45 8.97008V14.9801Z" fill="#171717"/>
<path d="M21.7699 2.22988C21.4699 1.92988 20.9799 1.92988 20.6799 2.22988L2.22988 20.6899C1.92988 20.9899 1.92988 21.4799 2.22988 21.7799C2.37988 21.9199 2.56988 21.9999 2.76988 21.9999C2.96988 21.9999 3.15988 21.9199 3.30988 21.7699L21.7699 3.30988C22.0799 3.00988 22.0799 2.52988 21.7699 2.22988Z" fill="#171717"/>
</svg>
