<svg width="24" height="24" viewBox="0 0 24 24" fill="none" xmlns="http://www.w3.org/2000/svg">
<path opacity="0.4" d="M10.9598 2.06008L5.4598 4.12008C4.4098 4.52008 3.5498 5.76008 3.5498 6.89008V14.9901C3.5498 15.8001 4.0798 16.8701 4.7298 17.3501L10.2298 21.4601C11.1998 22.1901 12.7898 22.1901 13.7598 21.4601L19.2598 17.3501C19.9098 16.8601 20.4398 15.8001 20.4398 14.9901V6.89008C20.4398 5.77008 19.5798 4.52008 18.5298 4.13008L13.0298 2.07008C12.4698 1.85008 11.5298 1.85008 10.9598 2.06008Z" fill="#171717"/>
<path d="M14.6798 12.9099L13.0898 11.3199L14.6398 9.76989C14.9298 9.47989 14.9298 8.99989 14.6398 8.70989C14.3498 8.41989 13.8698 8.41989 13.5798 8.70989L12.0298 10.2599L10.4398 8.66989C10.1498 8.37989 9.6698 8.37989 9.3798 8.66989C9.0898 8.95989 9.0898 9.43989 9.3798 9.72989L10.9698 11.3199L9.3298 12.9599C9.0398 13.2499 9.0398 13.7299 9.3298 14.0199C9.4798 14.1699 9.6698 14.2399 9.8598 14.2399C10.0498 14.2399 10.2398 14.1699 10.3898 14.0199L12.0298 12.3799L13.6198 13.9699C13.7698 14.1199 13.9598 14.1899 14.1498 14.1899C14.3398 14.1899 14.5298 14.1199 14.6798 13.9699C14.9698 13.6699 14.9698 13.1999 14.6798 12.9099Z" fill="#171717"/>
</svg>
