<svg width="24" height="24" viewBox="0 0 24 24" fill="none" xmlns="http://www.w3.org/2000/svg">
<path d="M18.5398 4.12009L13.0398 2.06009C12.4698 1.85009 11.5398 1.85009 10.9698 2.06009L5.4698 4.12009C4.4098 4.52009 3.5498 5.76009 3.5498 6.89009V14.9901C3.5498 15.8001 4.0798 16.8701 4.7298 17.3501L10.2298 21.4601C11.1998 22.1901 12.7898 22.1901 13.7598 21.4601L19.2598 17.3501C19.9098 16.8601 20.4398 15.8001 20.4398 14.9901V6.89009C20.4498 5.76009 19.5898 4.52009 18.5398 4.12009ZM14.6798 13.9701C14.5298 14.1201 14.3398 14.1901 14.1498 14.1901C13.9598 14.1901 13.7698 14.1201 13.6198 13.9701L12.0298 12.3801L10.3898 14.0201C10.2398 14.1701 10.0498 14.2401 9.8598 14.2401C9.6698 14.2401 9.4798 14.1701 9.3298 14.0201C9.0398 13.7301 9.0398 13.2501 9.3298 12.9601L10.9698 11.3201L9.3698 9.72009C9.0798 9.43009 9.0798 8.95009 9.3698 8.66009C9.6598 8.37009 10.1398 8.37009 10.4298 8.66009L12.0198 10.2501L13.5698 8.70009C13.8598 8.41009 14.3398 8.41009 14.6298 8.70009C14.9198 8.99009 14.9198 9.47009 14.6298 9.76009L13.0798 11.3101L14.6698 12.9001C14.9698 13.2001 14.9698 13.6701 14.6798 13.9701Z" fill="#171717"/>
</svg>
