<svg width="24" height="24" viewBox="0 0 24 24" fill="none" xmlns="http://www.w3.org/2000/svg">
<path d="M12.0001 14.3801C13.3146 14.3801 14.3801 13.3146 14.3801 12.0001C14.3801 10.6857 13.3146 9.62012 12.0001 9.62012C10.6857 9.62012 9.62012 10.6857 9.62012 12.0001C9.62012 13.3146 10.6857 14.3801 12.0001 14.3801Z" fill="#171717"/>
<path opacity="0.4" d="M19.9998 18.75C19.8398 18.75 19.6898 18.7 19.5498 18.6C19.2198 18.35 19.1498 17.88 19.3998 17.55C20.6098 15.94 21.2498 14.02 21.2498 12C21.2498 9.98004 20.6098 8.06005 19.3998 6.45005C19.1498 6.12005 19.2198 5.65003 19.5498 5.40003C19.8798 5.15003 20.3498 5.22002 20.5998 5.55002C22.0098 7.42002 22.7498 9.65004 22.7498 12C22.7498 14.35 22.0098 16.58 20.5998 18.45C20.4498 18.65 20.2298 18.75 19.9998 18.75Z" fill="#171717"/>
<path opacity="0.4" d="M4 18.75C3.77 18.75 3.54999 18.65 3.39999 18.45C1.98999 16.58 1.25 14.35 1.25 12C1.25 9.65004 1.98999 7.42002 3.39999 5.55002C3.64999 5.22002 4.12001 5.15003 4.45001 5.40003C4.78001 5.65003 4.85001 6.12005 4.60001 6.45005C3.39001 8.06005 2.75 9.98004 2.75 12C2.75 14.02 3.39001 15.94 4.60001 17.55C4.85001 17.88 4.78001 18.35 4.45001 18.6C4.32001 18.7 4.16 18.75 4 18.75Z" fill="#171717"/>
<path opacity="0.4" d="M16.8001 16.3499C16.6401 16.3499 16.4901 16.2999 16.3501 16.1999C16.0201 15.9499 15.9501 15.4799 16.2001 15.1499C16.8901 14.2399 17.2501 13.1499 17.2501 11.9999C17.2501 10.8499 16.8901 9.75994 16.2001 8.84994C15.9501 8.51994 16.0201 8.04992 16.3501 7.79992C16.6801 7.54992 17.1501 7.61995 17.4001 7.94995C18.2801 9.12995 18.7501 10.5299 18.7501 11.9999C18.7501 13.4699 18.2801 14.8799 17.4001 16.0499C17.2501 16.2499 17.0301 16.3499 16.8001 16.3499Z" fill="#171717"/>
<path opacity="0.4" d="M7.20001 16.3499C6.97001 16.3499 6.75001 16.2499 6.60001 16.0499C5.72001 14.8699 5.25 13.4699 5.25 11.9999C5.25 10.5299 5.72001 9.11995 6.60001 7.94995C6.85001 7.61995 7.31999 7.54992 7.64999 7.79992C7.97999 8.04992 8.04999 8.51994 7.79999 8.84994C7.10999 9.75994 6.75 10.8499 6.75 11.9999C6.75 13.1499 7.10999 14.2399 7.79999 15.1499C8.04999 15.4799 7.97999 15.9499 7.64999 16.1999C7.51999 16.2999 7.36001 16.3499 7.20001 16.3499Z" fill="#171717"/>
</svg>
