<svg width="24" height="24" viewBox="0 0 24 24" fill="none" xmlns="http://www.w3.org/2000/svg">
<path d="M20.4098 6.95994V8.78994C20.4098 9.42994 20.1098 10.0299 19.5898 10.3999L8.58984 18.4599C7.87984 18.9799 6.90984 18.9799 6.20984 18.4499L4.76984 17.3699C4.11984 16.8799 3.58984 15.8199 3.58984 15.0099V6.95994C3.58984 5.83994 4.44984 4.59994 5.49984 4.20994L10.9698 2.15994C11.5398 1.94994 12.4598 1.94994 13.0298 2.15994L18.4998 4.20994C19.5498 4.59994 20.4098 5.83994 20.4098 6.95994Z" fill="#171717"/>
<path d="M18.8201 12.3399C19.4801 11.8599 20.4101 12.3299 20.4101 13.1499V15.0299C20.4101 15.8399 19.8801 16.8899 19.2301 17.3799L13.7601 21.4699C13.2801 21.8199 12.6401 21.9999 12.0001 21.9999C11.3601 21.9999 10.7201 21.8199 10.2401 21.4599L9.41011 20.8399C8.87011 20.4399 8.87011 19.6299 9.42011 19.2299L18.8201 12.3399Z" fill="#171717"/>
</svg>
