<svg width="24" height="24" viewBox="0 0 24 24" fill="none" xmlns="http://www.w3.org/2000/svg">
<path d="M12.9901 2.14996C15.3701 1.68996 17.9401 2.37996 19.7901 4.21996C22.7401 7.16996 22.7401 11.98 19.7901 14.92C17.7301 16.97 14.7801 17.6 12.1901 16.79L7.48015 21.49C7.14015 21.84 6.47015 22.05 5.99015 21.98L3.81015 21.68C3.09015 21.58 2.42015 20.9 2.31015 20.18L2.01015 18C1.94015 17.52 2.17015 16.85 2.50015 16.51L3.62015 15.39L7.19015 11.82C6.39015 9.21996 7.01015 6.26996 9.07015 4.21996" stroke="#171717" stroke-width="1.5" stroke-miterlimit="10" stroke-linecap="round" stroke-linejoin="round"/>
<path d="M6.89014 17.49L9.19014 19.79" stroke="#171717" stroke-width="1.5" stroke-miterlimit="10" stroke-linecap="round" stroke-linejoin="round"/>
<path d="M14.5 11C15.3284 11 16 10.3284 16 9.5C16 8.67157 15.3284 8 14.5 8C13.6716 8 13 8.67157 13 9.5C13 10.3284 13.6716 11 14.5 11Z" stroke="#171717" stroke-width="1.5" stroke-linecap="round" stroke-linejoin="round"/>
</svg>
