<svg width="24" height="24" viewBox="0 0 24 24" fill="none" xmlns="http://www.w3.org/2000/svg">
<g clip-path="url(#clip0_211_62282)">
<path d="M19.0216 6.85831C19.3286 7.03553 19.5829 7.29115 19.7586 7.599C19.9343 7.90685 20.0251 8.25587 20.0216 8.61031V15.1653C20.0216 15.8933 19.6266 16.5653 18.9896 16.9183L12.9726 20.7623C12.6748 20.9284 12.3395 21.0155 11.9986 21.0155C11.6576 21.0155 11.3223 20.9284 11.0246 20.7623L5.00856 16.9183C4.69562 16.7452 4.43481 16.4914 4.2533 16.1833C4.07179 15.8751 3.97623 15.5239 3.97656 15.1663V8.61031C3.97656 7.88231 4.37156 7.21031 5.00856 6.85731L11.0256 3.27531C11.3315 3.10563 11.6757 3.0166 12.0256 3.0166C12.3754 3.0166 12.7196 3.10563 13.0256 3.27531L19.0426 6.85831H19.0136H19.0216Z" stroke="black" stroke-width="1.5" stroke-linecap="round" stroke-linejoin="round"/>
<path d="M10 8H14L12 16" stroke="black" stroke-width="1.5" stroke-linecap="round" stroke-linejoin="round"/>
</g>
<defs>
<clipPath id="clip0_211_62282">
<rect width="24" height="24" fill="white"/>
</clipPath>
</defs>
</svg>
