<svg width="24" height="24" viewBox="0 0 24 24" fill="none" xmlns="http://www.w3.org/2000/svg">
<path opacity="0.4" d="M16.19 2H7.81C4.17 2 2 4.17 2 7.81V16.18C2 19.83 4.17 22 7.81 22H16.18C19.82 22 21.99 19.83 21.99 16.19V7.81C22 4.17 19.83 2 16.19 2Z" fill="#171717"/>
<path d="M7.32999 15.24C7.16999 15.24 7.00999 15.19 6.86999 15.08C6.53999 14.83 6.47999 14.36 6.72999 14.03L9.10999 10.94C9.39999 10.57 9.80999 10.33 10.28 10.27C10.74 10.21 11.21 10.34 11.58 10.63L13.41 12.07C13.48 12.13 13.55 12.13 13.6 12.12C13.64 12.12 13.71 12.1 13.77 12.02L16.08 9.04001C16.33 8.71001 16.81 8.65001 17.13 8.91001C17.46 9.16001 17.52 9.63001 17.26 9.96001L14.95 12.94C14.66 13.31 14.25 13.55 13.78 13.6C13.31 13.66 12.85 13.53 12.48 13.24L10.65 11.8C10.58 11.74 10.5 11.74 10.46 11.75C10.42 11.75 10.35 11.77 10.29 11.85L7.90999 14.94C7.77999 15.14 7.55999 15.24 7.32999 15.24Z" fill="#171717"/>
</svg>
