<svg width="24" height="24" viewBox="0 0 24 24" fill="none" xmlns="http://www.w3.org/2000/svg">
<path opacity="0.4" d="M20.04 6.81994L14.28 2.78994C12.71 1.68994 10.3 1.74994 8.78999 2.91994L3.77999 6.82994C2.77999 7.60994 1.98999 9.20994 1.98999 10.4699V17.3699C1.98999 19.9199 4.05999 21.9999 6.60999 21.9999H17.39C19.94 21.9999 22.01 19.9299 22.01 17.3799V10.5999C22.01 9.24994 21.14 7.58994 20.04 6.81994Z" fill="#171717"/>
<path d="M16.83 11.2698C16.76 11.0998 16.62 10.9598 16.45 10.8898C16.36 10.8498 16.27 10.8398 16.18 10.8398H14.32C13.93 10.8398 13.62 11.1498 13.62 11.5398C13.62 11.9298 13.93 12.2398 14.32 12.2398H14.5L12.39 14.3498L11.37 12.8298C11.25 12.6598 11.07 12.5398 10.86 12.5198C10.64 12.4998 10.45 12.5698 10.3 12.7198L7.31999 15.6998C7.04999 15.9698 7.04999 16.4098 7.31999 16.6898C7.45999 16.8298 7.62999 16.8898 7.80999 16.8898C7.98999 16.8898 8.16999 16.8198 8.29999 16.6898L10.68 14.3098L11.7 15.8298C11.82 15.9998 12 16.1198 12.21 16.1398C12.43 16.1598 12.62 16.0898 12.77 15.9398L15.49 13.2198V13.3998C15.49 13.7898 15.8 14.0998 16.19 14.0998C16.58 14.0998 16.89 13.7898 16.89 13.3998V11.5398C16.88 11.4398 16.87 11.3498 16.83 11.2698Z" fill="#171717"/>
</svg>
