<svg width="24" height="24" viewBox="0 0 24 24" fill="none" xmlns="http://www.w3.org/2000/svg">
<path opacity="0.4" d="M16.19 2H7.81C4.17 2 2 4.17 2 7.81V16.18C2 19.83 4.17 22 7.81 22H16.18C19.82 22 21.99 19.83 21.99 16.19V7.81C22 4.17 19.83 2 16.19 2Z" fill="#171717"/>
<path d="M16.8801 12.47C16.8801 12.08 16.5701 11.77 16.1801 11.77C15.7901 11.77 15.4801 12.08 15.4801 12.47V12.65L12.7601 9.93004C12.6101 9.78004 12.4101 9.71004 12.2001 9.73004C11.9901 9.75004 11.8001 9.86004 11.6901 10.04L10.6701 11.56L8.31005 9.18004C8.04005 8.91004 7.60005 8.91004 7.32005 9.18004C7.05005 9.45004 7.05005 9.89004 7.32005 10.17L10.3001 13.15C10.4501 13.3 10.6501 13.37 10.8601 13.35C11.0701 13.33 11.2601 13.22 11.3701 13.04L12.3901 11.52L14.5001 13.63H14.3201C13.9301 13.63 13.6201 13.94 13.6201 14.33C13.6201 14.72 13.9301 15.03 14.3201 15.03H16.1801C16.2701 15.03 16.3601 15.01 16.4501 14.98C16.6201 14.91 16.7601 14.77 16.8301 14.6C16.8701 14.51 16.8801 14.42 16.8801 14.33V12.47Z" fill="#171717"/>
</svg>
