<svg width="24" height="24" viewBox="0 0 24 24" fill="none" xmlns="http://www.w3.org/2000/svg">
<path opacity="0.4" d="M22 7.81V15.16C21.71 15.02 21.39 14.92 21.03 14.86L20.72 14.81L20.46 14.27C19.91 13.15 19.01 12.5 18 12.5C16.99 12.5 16.09 13.15 15.54 14.27L15.27 14.81L14.97 14.86C13.78 15.06 12.92 15.72 12.61 16.66C12.31 17.61 12.62 18.65 13.47 19.51L13.78 19.82L13.75 19.94C13.55 20.83 13.63 21.51 13.82 22H7.81C4.17 22 2 19.83 2 16.19V7.81C2 4.17 4.17 2 7.81 2H16.19C19.83 2 22 4.17 22 7.81Z" fill="#171717"/>
<path d="M19.1199 14.9399L19.4399 15.5899C19.5999 15.9099 20.0099 16.2099 20.3499 16.2699L20.7799 16.3399C22.0899 16.5599 22.3899 17.5199 21.4599 18.4599L21.0599 18.8599C20.7899 19.1299 20.6499 19.6499 20.7299 20.0299L20.7799 20.2699C21.1399 21.8499 20.2999 22.4599 18.9299 21.6299L18.6399 21.4499C18.2899 21.2399 17.7099 21.2399 17.3599 21.4499L17.0699 21.6299C15.6899 22.4599 14.8599 21.8499 15.2199 20.2699L15.2699 20.0299C15.3499 19.6599 15.2099 19.1299 14.9399 18.8599L14.5399 18.4599C13.6099 17.5099 13.9099 16.5599 15.2199 16.3399L15.6499 16.2699C15.9999 16.2099 16.3999 15.9099 16.5599 15.5899L16.8799 14.9399C17.4999 13.6899 18.4999 13.6899 19.1199 14.9399Z" fill="#171717"/>
<path fill-rule="evenodd" clip-rule="evenodd" d="M16.1294 7.91728C16.4568 8.17106 16.5164 8.64217 16.2627 8.96954L13.9482 11.9552C13.3533 12.7076 12.2565 12.8448 11.4913 12.2535L11.4861 12.2495L9.65952 10.8121C9.54667 10.7264 9.38927 10.7478 9.30358 10.8583C9.3035 10.8584 9.30366 10.8582 9.30358 10.8583L6.92405 13.9477C6.6713 14.2759 6.20037 14.337 5.87222 14.0842C5.54406 13.8315 5.48293 13.3606 5.73569 13.0324L8.11641 9.94146C8.71032 9.17287 9.81153 9.03396 10.5785 9.62658L10.5837 9.63062L12.4103 11.0679C12.5243 11.1546 12.685 11.1322 12.7701 11.0267L15.0771 8.05055C15.3309 7.72318 15.802 7.66351 16.1294 7.91728Z" fill="#171717"/>
</svg>
