<svg width="24" height="24" viewBox="0 0 24 24" fill="none" xmlns="http://www.w3.org/2000/svg">
<path opacity="0.4" d="M20.03 6.81994L14.28 2.78994C12.71 1.68994 10.31 1.74994 8.8 2.91994L3.79 6.82994C2.78 7.60994 2 9.20994 2 10.4699V17.3699C2 19.9199 4.07 21.9999 6.61 21.9999H17.38C19.92 21.9999 21.99 19.9299 21.99 17.3799V10.5999C22 9.24994 21.13 7.58994 20.03 6.81994Z" fill="#171717"/>
<path d="M13.4 8.51001H10.6C8.67999 8.51001 7.10999 10.07 7.10999 12V14.79C7.10999 16.71 8.67999 18.28 10.6 18.28H13.39C15.31 18.28 16.88 16.72 16.88 14.79V12C16.88 10.08 15.32 8.51001 13.4 8.51001ZM15.49 12V12.7H12.7V9.91001H13.4C14.55 9.91001 15.49 10.85 15.49 12ZM10.6 9.91001H11.3V12.7H8.50999V12C8.50999 10.85 9.44999 9.91001 10.6 9.91001ZM8.50999 14.79V14.09H11.3V16.88H10.6C9.44999 16.88 8.50999 15.94 8.50999 14.79ZM13.4 16.88H12.7V14.09H15.49V14.79C15.49 15.94 14.55 16.88 13.4 16.88Z" fill="#171717"/>
</svg>
