<svg width="24" height="24" viewBox="0 0 24 24" fill="none" xmlns="http://www.w3.org/2000/svg">
<path opacity="0.4" d="M16.19 2H7.81C4.17 2 2 4.17 2 7.81V16.18C2 19.83 4.17 22 7.81 22H16.18C19.82 22 21.99 19.83 21.99 16.19V7.81C22 4.17 19.83 2 16.19 2Z" fill="#171717"/>
<path d="M13.86 6.6499H10.14C8.22002 6.6499 6.65002 8.2099 6.65002 10.1399V13.8599C6.65002 15.7799 8.22002 17.3499 10.14 17.3499H13.86C15.78 17.3499 17.35 15.7899 17.35 13.8599V10.1399C17.35 8.2199 15.78 6.6499 13.86 6.6499ZM15.95 10.1399V11.2999H12.7V8.0499H13.86C15.01 8.0499 15.95 8.9899 15.95 10.1399ZM10.14 8.0499H11.3V11.3099H8.05002V10.1499C8.05002 8.9899 8.99002 8.0499 10.14 8.0499ZM8.05002 13.8599V12.6999H11.31V15.9599H10.15C8.99002 15.9499 8.05002 15.0099 8.05002 13.8599ZM13.86 15.9499H12.7V12.6999H15.96V13.8599C15.95 15.0099 15.01 15.9499 13.86 15.9499Z" fill="#171717"/>
</svg>
