<svg width="24" height="24" viewBox="0 0 24 24" fill="none" xmlns="http://www.w3.org/2000/svg">
<path opacity="0.4" d="M20.04 6.81994L14.28 2.78994C12.71 1.68994 10.3 1.74994 8.78999 2.91994L3.77999 6.82994C2.77999 7.60994 1.98999 9.20994 1.98999 10.4699V17.3699C1.98999 19.9199 4.05999 21.9999 6.60999 21.9999H17.39C19.94 21.9999 22.01 19.9299 22.01 17.3799V10.5999C22.01 9.24994 21.14 7.58994 20.04 6.81994Z" fill="#171717"/>
<path d="M16.88 14.3299C16.88 13.9399 16.57 13.6299 16.18 13.6299C15.79 13.6299 15.48 13.9399 15.48 14.3299V14.5099L12.76 11.7899C12.61 11.6399 12.41 11.5699 12.2 11.5899C11.99 11.6099 11.8 11.7199 11.69 11.8999L10.67 13.4199L8.29003 11.0399C8.02003 10.7699 7.58003 10.7699 7.30003 11.0399C7.03003 11.3099 7.03003 11.7499 7.30003 12.0299L10.28 15.0099C10.43 15.1599 10.63 15.2299 10.84 15.2099C11.05 15.1899 11.24 15.0799 11.35 14.8999L12.37 13.3799L14.48 15.4899H14.3C13.91 15.4899 13.6 15.7999 13.6 16.1899C13.6 16.5799 13.91 16.8899 14.3 16.8899H16.16C16.25 16.8899 16.34 16.8699 16.43 16.8399C16.6 16.7699 16.74 16.6299 16.81 16.4599C16.85 16.3699 16.86 16.2799 16.86 16.1899V14.3299H16.88Z" fill="#171717"/>
</svg>
