<svg width="24" height="24" viewBox="0 0 24 24" fill="none" xmlns="http://www.w3.org/2000/svg">
<path d="M12 18.75C11.59 18.75 11.25 18.41 11.25 18V17C11.25 16.59 11.59 16.25 12 16.25C12.41 16.25 12.75 16.59 12.75 17V18C12.75 18.41 12.41 18.75 12 18.75Z" fill="#171717"/>
<path d="M12 22.75C11.59 22.75 11.25 22.41 11.25 22V21C11.25 20.59 11.59 20.25 12 20.25C12.41 20.25 12.75 20.59 12.75 21V22C12.75 22.41 12.41 22.75 12 22.75Z" fill="#171717"/>
<path d="M2.00009 22.7501C1.94009 22.7501 1.8801 22.7401 1.8201 22.7301C1.4201 22.6301 1.1701 22.2201 1.2701 21.8201L2.2701 17.8201C2.3701 17.4201 2.77009 17.1701 3.18009 17.2701C3.58009 17.3701 3.83009 17.7801 3.73009 18.1801L2.73009 22.1801C2.64009 22.5201 2.34009 22.7501 2.00009 22.7501Z" fill="#171717"/>
<path d="M21.9999 22.7499C21.6599 22.7499 21.3599 22.5199 21.2699 22.1799L20.2699 18.1799C20.1699 17.7799 20.4099 17.3699 20.8199 17.2699C21.2199 17.1699 21.6299 17.4099 21.7299 17.8199L22.7299 21.8199C22.8299 22.2199 22.5899 22.6299 22.1799 22.7299C22.1199 22.7399 22.0599 22.7499 21.9999 22.7499Z" fill="#171717"/>
<path opacity="0.4" d="M19.26 9.52008C19.15 8.34008 18.84 7.09009 16.55 7.09009H7.44999C5.15999 7.09009 4.85 8.35008 4.74 9.52008L4.33999 13.86C4.28999 14.4 4.46999 14.94 4.83999 15.35C5.21999 15.76 5.76 16.0001 6.32 16.0001H7.66C8.81 16.0001 9.02999 15.3401 9.17999 14.9001L9.32 14.47C9.48 13.98 9.51999 13.86 10.17 13.86H13.82C14.46 13.86 14.48 13.93 14.67 14.47L14.81 14.9001C14.96 15.3401 15.18 16.0001 16.33 16.0001H17.67C18.23 16.0001 18.77 15.76 19.15 15.35C19.52 14.95 19.7 14.4 19.65 13.86L19.26 9.52008Z" fill="#171717"/>
<path d="M18.42 4.94H17.7101C17.7001 4.94 17.7 4.94 17.7 4.94L17.43 3.65002C17.17 2.40002 16.64 1.25 14.51 1.25H12.54H11.47H9.50005C7.37005 1.25 6.84005 2.40002 6.58005 3.65002L6.31004 4.94C6.30004 4.94 6.30005 4.94 6.30005 4.94H5.59004C5.29004 4.94 5.05005 5.17998 5.05005 5.47998C5.05005 5.77998 5.29004 6.02002 5.59004 6.02002H6.10005L5.80005 7.45001C6.19005 7.23001 6.72005 7.09003 7.46005 7.09003H16.56C17.3 7.09003 17.84 7.23001 18.22 7.45001L17.92 6.02002H18.43C18.73 6.02002 18.97 5.77998 18.97 5.47998C18.96 5.17998 18.72 4.94 18.42 4.94Z" fill="#171717"/>
<path d="M9.85994 11.0099H7.71994C7.41994 11.0099 7.17993 10.7699 7.17993 10.4699C7.17993 10.1699 7.41994 9.92993 7.71994 9.92993H9.85994C10.1599 9.92993 10.3999 10.1699 10.3999 10.4699C10.3899 10.7699 10.1499 11.0099 9.85994 11.0099Z" fill="#171717"/>
<path d="M16.2801 11.0099H14.1401C13.8401 11.0099 13.6001 10.7699 13.6001 10.4699C13.6001 10.1699 13.8401 9.92993 14.1401 9.92993H16.2801C16.5801 9.92993 16.8201 10.1699 16.8201 10.4699C16.8201 10.7699 16.5801 11.0099 16.2801 11.0099Z" fill="#171717"/>
</svg>
