<svg width="24" height="24" viewBox="0 0 24 24" fill="none" xmlns="http://www.w3.org/2000/svg">
<path d="M9.96006 14.0401V12.9301C9.96006 12.5001 9.64006 12.2901 9.25006 12.4601L4.24006 14.6201C3.45006 14.9601 2.81006 14.5401 2.81006 13.6901V12.3701C2.81006 11.6901 3.32006 10.9001 3.95006 10.6401L9.65006 8.19006C9.81006 8.11006 9.95006 7.90006 9.95006 7.72006V4.66006C9.95006 3.70006 10.6601 2.55006 11.5101 2.11006C11.8101 1.96006 12.1701 1.96006 12.4701 2.11006C13.3301 2.55006 14.0401 3.69006 14.0401 4.65006V7.71006C14.0401 7.89006 14.1801 8.10006 14.3401 8.18006L15.3801 8.62006L9.96006 14.0401Z" fill="#171717"/>
<path opacity="0.4" d="M21.1899 12.37V13.69C21.1899 14.54 20.5499 14.96 19.7599 14.62L14.7499 12.46C14.3499 12.3 14.0399 12.5 14.0399 12.93V15.84C14.0399 16.07 14.1699 16.4 14.3399 16.56L16.6599 18.89C16.8999 19.13 17.0099 19.61 16.8999 19.94L16.4499 21.3C16.2499 21.89 15.5799 22.16 15.0299 21.89L12.6499 19.89C12.2899 19.58 11.6999 19.58 11.3399 19.89L8.95992 21.89C8.40992 22.17 7.73992 21.89 7.55992 21.3L7.10992 19.94C6.99992 19.6 7.10992 19.13 7.34992 18.89L9.66992 16.56C9.82992 16.4 9.95992 16.07 9.95992 15.84V14.04L15.3799 8.62L20.0499 10.63C20.6799 10.9 21.1899 11.69 21.1899 12.37Z" fill="#171717"/>
</svg>
