<svg width="24" height="24" viewBox="0 0 24 24" fill="none" xmlns="http://www.w3.org/2000/svg">
<path d="M18.7101 9.49C18.6101 9.49 18.5101 9.47 18.4101 9.43C18.0301 9.26 17.8601 8.82001 18.0201 8.44001C18.2101 8.01001 18.1001 7.37999 17.7501 6.85999C17.4001 6.32999 16.8701 5.98 16.3801 6C15.9401 6 15.6301 5.67001 15.6201 5.26001C15.6201 4.84001 15.9501 4.51 16.3601 4.5C17.3901 4.48 18.3601 5.07002 18.9901 6.02002C19.6301 6.98002 19.7801 8.13003 19.3901 9.03003C19.2801 9.32003 19.0001 9.49 18.7101 9.49Z" fill="#171717"/>
<path d="M21.8199 10.4801C21.7499 10.4801 21.6899 10.4701 21.6199 10.4501C21.2199 10.3401 20.9899 9.93011 21.0999 9.53011C21.4799 8.17011 21.1599 6.55009 20.2499 5.19009C19.3399 3.83009 17.9599 2.92008 16.5499 2.75008C16.1399 2.70008 15.8499 2.33007 15.8999 1.92007C15.9499 1.51007 16.3299 1.2101 16.7299 1.2701C18.5599 1.4901 20.3399 2.65008 21.4899 4.37008C22.6399 6.09008 23.0299 8.1701 22.5399 9.9501C22.4499 10.2601 22.1499 10.4801 21.8199 10.4801Z" fill="#171717"/>
<path opacity="0.4" d="M17.52 15.8401C17.41 14.6201 17.08 13.3101 14.7 13.3101H5.23004C2.85004 13.3101 2.53005 14.6201 2.41005 15.8401L1.99005 20.36C1.94005 20.92 2.13004 21.49 2.51004 21.91C2.90004 22.34 3.46005 22.5901 4.05005 22.5901H5.44004C6.64005 22.5901 6.87005 21.9001 7.02005 21.4501L7.17004 21.0101C7.34004 20.5001 7.38005 20.3701 8.05005 20.3701H11.85C12.51 20.3701 12.54 20.4401 12.73 21.0101L12.88 21.4601C13.03 21.9101 13.26 22.6 14.46 22.6H15.85C16.44 22.6 17 22.35 17.39 21.92C17.77 21.5 17.96 20.9301 17.91 20.3701L17.52 15.8401Z" fill="#171717"/>
<path d="M16.65 11.09H15.91C15.9 11.09 15.9 11.09 15.89 11.09L15.61 9.73999C15.34 8.43999 14.79 7.25 12.58 7.25H10.53H9.41998H7.36998C5.15998 7.25 4.59998 8.43999 4.33998 9.73999L4.05998 11.09C4.04998 11.09 4.04998 11.09 4.03998 11.09H3.29999C2.98999 11.09 2.73999 11.34 2.73999 11.65C2.73999 11.96 2.98999 12.21 3.29999 12.21H3.82999L3.51999 13.69C3.91999 13.46 4.47998 13.32 5.24998 13.32H14.72C15.49 13.32 16.05 13.46 16.45 13.69L16.14 12.21H16.67C16.98 12.21 17.23 11.96 17.23 11.65C17.21 11.34 16.96 11.09 16.65 11.09Z" fill="#171717"/>
<path d="M7.74995 17.39H5.51996C5.20996 17.39 4.95996 17.14 4.95996 16.83C4.95996 16.52 5.20996 16.27 5.51996 16.27H7.74995C8.05995 16.27 8.30995 16.52 8.30995 16.83C8.29995 17.14 8.05995 17.39 7.74995 17.39Z" fill="#171717"/>
<path d="M14.4301 17.39H12.2001C11.8901 17.39 11.6401 17.14 11.6401 16.83C11.6401 16.52 11.8901 16.27 12.2001 16.27H14.4301C14.7401 16.27 14.9901 16.52 14.9901 16.83C14.9801 17.14 14.7301 17.39 14.4301 17.39Z" fill="#171717"/>
</svg>
