<svg width="24" height="24" viewBox="0 0 24 24" fill="none" xmlns="http://www.w3.org/2000/svg">
<g clip-path="url(#clip0_211_100242)">
<path d="M15.7345 15.7324C15.5015 15.9648 15.3167 16.2409 15.1906 16.5449C15.0646 16.8489 14.9998 17.1748 15 17.5038C15.0002 17.8329 15.0653 18.1587 15.1917 18.4626C15.3181 18.7664 15.5032 19.0423 15.7365 19.2744C15.9697 19.5066 16.2465 19.6903 16.551 19.8153C16.8554 19.9402 17.1815 20.0038 17.5106 20.0024C17.8397 20.001 18.1652 19.9346 18.4686 19.8071C18.772 19.6797 19.0472 19.4935 19.2785 19.2594" stroke="black" stroke-width="1.5" stroke-linecap="round" stroke-linejoin="round"/>
<path d="M6 8V19C6.00019 19.2107 6.06691 19.4159 6.19063 19.5864C6.31436 19.7569 6.48877 19.884 6.68899 19.9495C6.8892 20.015 7.105 20.0156 7.30558 19.9513C7.50617 19.8869 7.6813 19.7608 7.806 19.591L11.5 14.5V14.555" stroke="black" stroke-width="1.5" stroke-linecap="round" stroke-linejoin="round"/>
<path d="M5.99891 8H7.99891M11.9989 8H20.9989L17.9989 14.01M14.6799 14.703L10.4039 14.253C9.67962 14.1769 8.98985 13.9045 8.40901 13.4651C7.82817 13.0258 7.3783 12.4362 7.10791 11.76L4.25491 4.63C4.18093 4.44425 4.05297 4.28494 3.88755 4.17264C3.72213 4.06034 3.52684 4.00021 3.32691 4H2.00391" stroke="black" stroke-width="1.5" stroke-linecap="round" stroke-linejoin="round"/>
<path d="M3 3L21 21" stroke="black" stroke-width="1.5" stroke-linecap="round" stroke-linejoin="round"/>
</g>
<defs>
<clipPath id="clip0_211_100242">
<rect width="24" height="24" fill="white"/>
</clipPath>
</defs>
</svg>
