<svg width="24" height="24" viewBox="0 0 24 24" fill="none" xmlns="http://www.w3.org/2000/svg">
<g clip-path="url(#clip0_211_100185)">
<path d="M14 14H10V10" stroke="black" stroke-width="1.5" stroke-linecap="round" stroke-linejoin="round"/>
<path d="M10 10L6.5 6.5" stroke="black" stroke-width="1.5" stroke-linecap="round" stroke-linejoin="round"/>
<path d="M9.95888 5.94906C9.8425 5.21802 9.49753 4.54264 8.97347 4.01984C8.44941 3.49704 7.7732 3.15369 7.04188 3.03906M4.02188 4.02806C3.56334 4.48781 3.24173 5.06606 3.09302 5.69813C2.94431 6.33021 2.97437 6.99119 3.17983 7.60716C3.38529 8.22313 3.75806 8.7698 4.25644 9.18603C4.75482 9.60226 5.35916 9.87165 6.00188 9.96406" stroke="black" stroke-width="1.5" stroke-linecap="round" stroke-linejoin="round"/>
<path d="M14 10L17.5 6.5" stroke="black" stroke-width="1.5" stroke-linecap="round" stroke-linejoin="round"/>
<path d="M18.0012 9.96576C18.6439 9.8726 19.248 9.60246 19.7459 9.18556C20.2439 8.76867 20.616 8.22146 20.8207 7.60514C21.0254 6.98882 21.0546 6.32771 20.905 5.69575C20.7554 5.06379 20.4329 4.48592 19.9736 4.02677C19.5144 3.56762 18.9364 3.2453 18.3044 3.09587C17.6724 2.94644 17.0113 2.97579 16.3951 3.18064C15.7788 3.38549 15.2317 3.75776 14.8149 4.2558C14.3981 4.75385 14.1282 5.35803 14.0352 6.00076" stroke="black" stroke-width="1.5" stroke-linecap="round" stroke-linejoin="round"/>
<path d="M14 14L17.5 17.5" stroke="black" stroke-width="1.5" stroke-linecap="round" stroke-linejoin="round"/>
<path d="M14.0352 18C14.1276 18.6427 14.397 19.2471 14.8132 19.7455C15.2294 20.2438 15.7761 20.6166 16.3921 20.8221C17.008 21.0275 17.669 21.0576 18.3011 20.9089C18.9332 20.7602 19.5114 20.4386 19.9712 19.98M20.9582 16.954C20.8423 16.2223 20.4974 15.5461 19.9731 15.0227C19.4488 14.4993 18.7721 14.1556 18.0402 14.041" stroke="black" stroke-width="1.5" stroke-linecap="round" stroke-linejoin="round"/>
<path d="M10 14L6.5 17.5" stroke="black" stroke-width="1.5" stroke-linecap="round" stroke-linejoin="round"/>
<path d="M6.00184 14.0352C5.35913 14.1283 4.75502 14.3985 4.25708 14.8153C3.75914 15.2322 3.38701 15.7795 3.18231 16.3958C2.97762 17.0121 2.94843 17.6732 3.09802 18.3052C3.24761 18.9371 3.57008 19.515 4.02934 19.9741C4.48861 20.4333 5.06657 20.7556 5.69856 20.905C6.33056 21.0545 6.99166 21.0251 7.60793 20.8203C8.2242 20.6154 8.77131 20.2432 9.18808 19.7451C9.60485 19.2471 9.87484 18.6429 9.96783 18.0002" stroke="black" stroke-width="1.5" stroke-linecap="round" stroke-linejoin="round"/>
<path d="M3 3L21 21" stroke="black" stroke-width="1.5" stroke-linecap="round" stroke-linejoin="round"/>
</g>
<defs>
<clipPath id="clip0_211_100185">
<rect width="24" height="24" fill="white"/>
</clipPath>
</defs>
</svg>
