<svg width="24" height="24" viewBox="0 0 24 24" fill="none" xmlns="http://www.w3.org/2000/svg">
<g clip-path="url(#clip0_211_71878)">
<path d="M10 15.0004L15.586 9.4154C15.3534 9.18288 15.1817 8.89658 15.0862 8.58187C14.9907 8.26716 14.9743 7.93374 15.0384 7.61116C15.1025 7.28858 15.2451 6.98678 15.4537 6.7325C15.6623 6.47822 15.9304 6.27931 16.2342 6.15339C16.5381 6.02746 16.8683 5.9784 17.1956 6.01056C17.5229 6.04272 17.8372 6.1551 18.1107 6.33776C18.3842 6.52041 18.6085 6.76769 18.7636 7.05771C18.9187 7.34772 18.9999 7.67151 19 8.0004C19.329 8.00017 19.6529 8.08109 19.9432 8.23599C20.2334 8.39089 20.4809 8.61499 20.6638 8.88844C20.8467 9.16188 20.9593 9.47622 20.9917 9.80359C21.0241 10.131 20.9752 10.4613 20.8494 10.7653C20.7236 11.0692 20.5247 11.3375 20.2705 11.5462C20.0162 11.7549 19.7144 11.8977 19.3917 11.9619C19.0691 12.0261 18.7356 12.0098 18.4208 11.9143C18.106 11.8187 17.8196 11.6471 17.587 11.4144L14 15.0004" stroke="black" stroke-width="1.5" stroke-linecap="round" stroke-linejoin="round"/>
<path d="M12.0014 13.0004L8.41543 9.4154C8.64802 9.18288 8.81969 8.89658 8.91521 8.58187C9.01073 8.26716 9.02717 7.93374 8.96307 7.61116C8.89897 7.28858 8.7563 6.98678 8.5477 6.7325C8.33911 6.47822 8.07103 6.27931 7.7672 6.15339C7.46337 6.02746 7.13318 5.9784 6.80586 6.01056C6.47855 6.04272 6.16421 6.1551 5.89071 6.33776C5.6172 6.52041 5.39295 6.76769 5.23784 7.05771C5.08272 7.34772 5.00152 7.67151 5.00143 8.0004C4.67245 8.00017 4.3485 8.08109 4.05827 8.23599C3.76805 8.39089 3.52052 8.61499 3.33761 8.88844C3.15471 9.16188 3.04208 9.47622 3.00971 9.80359C2.97733 10.131 3.02622 10.4613 3.15203 10.7653C3.27783 11.0692 3.47668 11.3375 3.73095 11.5462C3.98521 11.7549 4.28704 11.8977 4.60969 11.9619C4.93234 12.0261 5.26585 12.0098 5.58065 11.9143C5.89546 11.8187 6.18184 11.6471 6.41443 11.4144L10.0014 15.0004" stroke="black" stroke-width="1.5" stroke-linecap="round" stroke-linejoin="round"/>
<path d="M3 20H21C20.825 18.329 20.954 16.655 19 15H5C3.667 16 3 17.667 3 20Z" stroke="black" stroke-width="1.5" stroke-linecap="round" stroke-linejoin="round"/>
</g>
<defs>
<clipPath id="clip0_211_71878">
<rect width="24" height="24" fill="white"/>
</clipPath>
</defs>
</svg>
