<svg width="24" height="24" viewBox="0 0 24 24" fill="none" xmlns="http://www.w3.org/2000/svg">
<g clip-path="url(#clip0_211_71821)">
<path d="M3.00109 21C3.00109 21 12.8351 17.511 15.6851 14.66C16.5261 13.8186 16.9985 12.6777 16.9985 11.488C16.9985 10.2984 16.5261 9.15745 15.6851 8.31603C15.2688 7.89944 14.7744 7.56896 14.2303 7.34348C13.6862 7.11801 13.1031 7.00195 12.5141 7.00195C11.9251 7.00195 11.3419 7.11801 10.7978 7.34348C10.2537 7.56896 9.75942 7.89944 9.34309 8.31603C6.48309 11.177 2.99609 21.005 2.99609 21.005L3.00109 21Z" stroke="black" stroke-width="1.5" stroke-linecap="round" stroke-linejoin="round"/>
<path d="M9 13L7.5 11.5" stroke="black" stroke-width="1.5" stroke-linecap="round" stroke-linejoin="round"/>
<path d="M16 14L14 12" stroke="black" stroke-width="1.5" stroke-linecap="round" stroke-linejoin="round"/>
<path d="M22 8C22 8 20.86 6 19 6C17.594 6 16 8 16 8C16 8 17.14 10 19 10C20.86 10 22 8 22 8Z" stroke="black" stroke-width="1.5" stroke-linecap="round" stroke-linejoin="round"/>
<path d="M16 2C16 2 14 3.14 14 5C14 6.86 16 8 16 8C16 8 18 6.423 18 5C18 3.14 16 2 16 2Z" stroke="black" stroke-width="1.5" stroke-linecap="round" stroke-linejoin="round"/>
</g>
<defs>
<clipPath id="clip0_211_71821">
<rect width="24" height="24" fill="white"/>
</clipPath>
</defs>
</svg>
