<svg width="24" height="24" viewBox="0 0 24 24" fill="none" xmlns="http://www.w3.org/2000/svg">
<g clip-path="url(#clip0_211_71857)">
<path d="M8 13V13.01" stroke="black" stroke-width="1.5" stroke-linecap="round" stroke-linejoin="round"/>
<path d="M12 17V17.01" stroke="black" stroke-width="1.5" stroke-linecap="round" stroke-linejoin="round"/>
<path d="M12 12V12.01" stroke="black" stroke-width="1.5" stroke-linecap="round" stroke-linejoin="round"/>
<path d="M16 14V14.01" stroke="black" stroke-width="1.5" stroke-linecap="round" stroke-linejoin="round"/>
<path d="M11 8V8.01" stroke="black" stroke-width="1.5" stroke-linecap="round" stroke-linejoin="round"/>
<path d="M13.1464 3.47639L15.8134 4.58039C15.2849 5.27581 14.9985 6.12513 14.998 6.99863C14.9975 7.87212 15.2829 8.72177 15.8107 9.41778C16.3385 10.1138 17.0796 10.6179 17.9209 10.8531C18.7621 11.0883 19.6572 11.0417 20.4694 10.7204L20.5224 10.8524C20.8269 11.5874 20.8269 12.4133 20.5224 13.1484C20.0254 13.9344 19.6844 14.5524 19.4984 15.0004C19.3094 15.4564 19.0894 16.1944 18.8384 17.2164C18.5337 17.9513 17.9496 18.5351 17.2144 18.8394C16.1664 19.1024 15.4274 19.3224 14.9984 19.5004C14.5234 19.6974 13.9064 20.0384 13.1464 20.5244C12.4114 20.8288 11.5855 20.8288 10.8504 20.5244C10.0484 20.0214 9.43143 19.6804 8.99843 19.5004C8.52743 19.3054 7.78843 19.0854 6.78243 18.8404C6.04749 18.5357 5.46369 17.9515 5.15943 17.2164C4.89443 16.1644 4.67443 15.4264 4.49843 15.0004C4.30043 14.5214 3.95843 13.9044 3.47443 13.1484C3.16998 12.4133 3.16998 11.5874 3.47443 10.8524C3.95443 10.1084 4.29443 9.49139 4.49843 9.00039C4.66943 8.58739 4.88943 7.84839 5.15843 6.78439C5.46314 6.04945 6.04731 5.46564 6.78243 5.16139C7.81443 4.90539 8.55243 4.68539 8.99843 4.50039C9.45643 4.31039 10.0734 3.96939 10.8504 3.47639C11.5855 3.17193 12.4114 3.17193 13.1464 3.47639Z" stroke="black" stroke-width="1.5" stroke-linecap="round" stroke-linejoin="round"/>
</g>
<defs>
<clipPath id="clip0_211_71857">
<rect width="24" height="24" fill="white"/>
</clipPath>
</defs>
</svg>
