<svg width="24" height="24" viewBox="0 0 24 24" fill="none" xmlns="http://www.w3.org/2000/svg">
<g clip-path="url(#clip0_211_71925)">
<path d="M8 8H5C5 9.5913 5.63214 11.1174 6.75736 12.2426C7.88258 13.3679 9.4087 14 11 14H13C13.315 14 13.624 13.976 13.926 13.929M16.712 12.715C17.3959 12.1773 17.9545 11.4972 18.3489 10.7218C18.7434 9.94638 18.9642 9.09437 18.996 8.225V8H11.996" stroke="black" stroke-width="1.5" stroke-linecap="round" stroke-linejoin="round"/>
<path d="M18.8256 18.8146C18.6936 19.1097 18.4921 19.3683 18.2383 19.5684C17.9845 19.7686 17.686 19.9042 17.3683 19.9637C17.0506 20.0232 16.7232 20.0049 16.4142 19.9102C16.1051 19.8155 15.8237 19.6474 15.5938 19.4201C15.364 19.1929 15.1926 18.9133 15.0945 18.6054C14.9963 18.2974 14.9742 17.9703 15.0302 17.6519C15.0861 17.3336 15.2183 17.0335 15.4155 16.7775C15.6128 16.5214 15.8691 16.317 16.1626 16.1816" stroke="black" stroke-width="1.5" stroke-linecap="round" stroke-linejoin="round"/>
<path d="M9 14L6 20" stroke="black" stroke-width="1.5" stroke-linecap="round" stroke-linejoin="round"/>
<path d="M15 18H7" stroke="black" stroke-width="1.5" stroke-linecap="round" stroke-linejoin="round"/>
<path d="M15 5V4" stroke="black" stroke-width="1.5" stroke-linecap="round" stroke-linejoin="round"/>
<path d="M12 5V4" stroke="black" stroke-width="1.5" stroke-linecap="round" stroke-linejoin="round"/>
<path d="M9 5V4" stroke="black" stroke-width="1.5" stroke-linecap="round" stroke-linejoin="round"/>
<path d="M3 3L21 21" stroke="black" stroke-width="1.5" stroke-linecap="round" stroke-linejoin="round"/>
</g>
<defs>
<clipPath id="clip0_211_71925">
<rect width="24" height="24" fill="white"/>
</clipPath>
</defs>
</svg>
