<svg width="24" height="24" viewBox="0 0 24 24" fill="none" xmlns="http://www.w3.org/2000/svg">
<g clip-path="url(#clip0_211_71788)">
<path d="M10 5H14V3C14 2.73478 13.8946 2.48043 13.7071 2.29289C13.5196 2.10536 13.2652 2 13 2H11C10.7348 2 10.4804 2.10536 10.2929 2.29289C10.1054 2.48043 10 2.73478 10 3V5Z" stroke="black" stroke-width="1.5" stroke-linecap="round" stroke-linejoin="round"/>
<path d="M14 3.5C14 5.126 14.507 6.712 15.45 8.037L15.5 8.107C16.4758 9.4777 17.0001 11.1184 17 12.801V19C17 19.5304 16.7893 20.0391 16.4142 20.4142C16.0391 20.7893 15.5304 21 15 21H9C8.46957 21 7.96086 20.7893 7.58579 20.4142C7.21071 20.0391 7 19.5304 7 19V12.8C7 11.118 7.524 9.478 8.5 8.107L8.55 8.037C9.49317 6.71215 10 5.12629 10 3.5" stroke="black" stroke-width="1.5" stroke-linecap="round" stroke-linejoin="round"/>
<path d="M7 14.8026C7.4 14.6306 7.74568 14.353 8 13.9995C8.22717 13.6831 8.52797 13.4266 8.87642 13.2524C9.22488 13.0782 9.6105 12.9914 10 12.9995C10.3895 12.9914 10.7751 13.0782 11.1236 13.2524C11.472 13.4266 11.7728 13.6831 12 13.9995C12.2272 14.316 12.528 14.5725 12.8764 14.7467C13.2249 14.9209 13.6105 15.0077 14 14.9995C14.3895 15.0077 14.7751 14.9209 15.1236 14.7467C15.472 14.5725 15.7728 14.316 16 13.9995C16.2541 13.6454 16.5998 13.3671 17 13.1945" stroke="black" stroke-width="1.5" stroke-linecap="round" stroke-linejoin="round"/>
</g>
<defs>
<clipPath id="clip0_211_71788">
<rect width="24" height="24" fill="white"/>
</clipPath>
</defs>
</svg>
