<svg width="24" height="24" viewBox="0 0 24 24" fill="none" xmlns="http://www.w3.org/2000/svg">
<g clip-path="url(#clip0_211_71803)">
<path d="M11.1745 7.17042L11.2935 7.05042C11.6686 6.67547 12.1772 6.46484 12.7075 6.46484C13.2378 6.46484 13.7465 6.67547 14.1215 7.05042L16.9505 9.88042C17.3255 10.2555 17.5361 10.7641 17.5361 11.2944C17.5361 11.8247 17.3255 12.3334 16.9505 12.7084L16.8265 12.8324M14.8265 14.8324L12.7035 16.9554C12.3285 17.3304 11.8198 17.541 11.2895 17.541C10.7592 17.541 10.2506 17.3304 9.87551 16.9554L7.04651 14.1244C6.67157 13.7494 6.46094 13.2407 6.46094 12.7104C6.46094 12.1801 6.67157 11.6715 7.04651 11.2964L9.15951 9.18442" stroke="black" stroke-width="1.5" stroke-linecap="round" stroke-linejoin="round"/>
<path d="M16.2421 9.17225L19.3281 8.40025C19.5856 8.3359 19.8215 8.20435 20.0116 8.01904C20.2017 7.83372 20.3392 7.60128 20.4101 7.34544C20.4809 7.0896 20.4826 6.81954 20.415 6.56283C20.3474 6.30612 20.2128 6.07195 20.0251 5.88425L17.8091 3.66725C17.6358 3.49379 17.4225 3.36547 17.1881 3.29353C16.9536 3.22159 16.7051 3.20823 16.4643 3.25462C16.2235 3.301 15.9978 3.40571 15.8068 3.55959C15.6159 3.71347 15.4656 3.91181 15.3691 4.13725L14.1211 7.05025" stroke="black" stroke-width="1.5" stroke-linecap="round" stroke-linejoin="round"/>
<path d="M9.17127 16.2431L8.39927 19.3291C8.33492 19.5866 8.20338 19.8225 8.01806 20.0126C7.83274 20.2027 7.6003 20.3402 7.34446 20.411C7.08863 20.4819 6.81856 20.4836 6.56185 20.416C6.30514 20.3484 6.07098 20.2138 5.88327 20.0261L3.66627 17.8101C3.49281 17.6367 3.36449 17.4235 3.29255 17.1891C3.22062 16.9546 3.20726 16.7061 3.25364 16.4653C3.30002 16.2245 3.40474 15.9988 3.55861 15.8078C3.71249 15.6169 3.91083 15.4666 4.13627 15.3701L7.04927 14.1221" stroke="black" stroke-width="1.5" stroke-linecap="round" stroke-linejoin="round"/>
<path d="M3 3L21 21" stroke="black" stroke-width="1.5" stroke-linecap="round" stroke-linejoin="round"/>
</g>
<defs>
<clipPath id="clip0_211_71803">
<rect width="24" height="24" fill="white"/>
</clipPath>
</defs>
</svg>
