<svg width="24" height="24" viewBox="0 0 24 24" fill="none" xmlns="http://www.w3.org/2000/svg">
<g clip-path="url(#clip0_211_71809)">
<path d="M7.05042 11.2934L11.2934 7.05042C11.6685 6.67547 12.1771 6.46484 12.7074 6.46484C13.2377 6.46484 13.7464 6.67547 14.1214 7.05042L16.9504 9.88042C17.3254 10.2555 17.536 10.7641 17.536 11.2944C17.536 11.8247 17.3254 12.3334 16.9504 12.7084L12.7074 16.9514C12.3324 17.3264 11.8237 17.537 11.2934 17.537C10.7631 17.537 10.2545 17.3264 9.87942 16.9514L7.05042 14.1204C6.67547 13.7454 6.46484 13.2367 6.46484 12.7064C6.46484 12.1761 6.67547 11.6675 7.05042 11.2924V11.2934Z" stroke="black" stroke-width="1.5" stroke-linecap="round" stroke-linejoin="round"/>
<path d="M16.2421 9.17225L19.3281 8.40025C19.5856 8.3359 19.8215 8.20435 20.0116 8.01904C20.2017 7.83372 20.3392 7.60128 20.4101 7.34544C20.4809 7.0896 20.4826 6.81954 20.415 6.56283C20.3474 6.30612 20.2128 6.07195 20.0251 5.88425L17.8091 3.66725C17.6358 3.49379 17.4225 3.36547 17.1881 3.29353C16.9536 3.22159 16.7051 3.20823 16.4643 3.25462C16.2235 3.301 15.9978 3.40571 15.8068 3.55959C15.6159 3.71347 15.4656 3.91181 15.3691 4.13725L14.1211 7.05025" stroke="black" stroke-width="1.5" stroke-linecap="round" stroke-linejoin="round"/>
<path d="M9.17127 16.2431L8.39927 19.3291C8.33492 19.5866 8.20338 19.8225 8.01806 20.0126C7.83274 20.2027 7.6003 20.3402 7.34446 20.411C7.08863 20.4819 6.81856 20.4836 6.56185 20.416C6.30514 20.3484 6.07098 20.2138 5.88327 20.0261L3.66627 17.8101C3.49281 17.6367 3.36449 17.4235 3.29255 17.1891C3.22062 16.9546 3.20726 16.7061 3.25364 16.4653C3.30002 16.2245 3.40474 15.9988 3.55861 15.8078C3.71249 15.6169 3.91083 15.4666 4.13627 15.3701L7.04927 14.1221" stroke="black" stroke-width="1.5" stroke-linecap="round" stroke-linejoin="round"/>
</g>
<defs>
<clipPath id="clip0_211_71809">
<rect width="24" height="24" fill="white"/>
</clipPath>
</defs>
</svg>
