<svg width="24" height="24" viewBox="0 0 24 24" fill="none" xmlns="http://www.w3.org/2000/svg">
<g clip-path="url(#clip0_211_71920)">
<path d="M5 5L16.5 16.5" stroke="black" stroke-width="1.5" stroke-linecap="round" stroke-linejoin="round"/>
<path d="M19.347 16.5754L20.427 17.6544C20.7945 18.0222 21.001 18.5208 21.0009 19.0408C21.0008 19.5607 20.7942 20.0593 20.4265 20.4269C20.0587 20.7945 19.56 21.001 19.0401 21.0009C18.5202 21.0008 18.0215 20.7942 17.654 20.4264L16.574 19.3474C16.2064 18.9797 15.9999 18.481 16 17.9611C16.0001 17.4411 16.2067 16.9425 16.5745 16.5749C16.9422 16.2073 17.4409 16.0009 17.9608 16.001C18.4808 16.0011 18.9794 16.2077 19.347 16.5754Z" stroke="black" stroke-width="1.5" stroke-linecap="round" stroke-linejoin="round"/>
<path d="M3 7L6.05 10.15C6.59809 10.672 7.32853 10.959 8.08536 10.9498C8.84218 10.9406 9.56541 10.6358 10.1006 10.1006C10.6358 9.56541 10.9406 8.84218 10.9498 8.08536C10.959 7.32853 10.672 6.59809 10.15 6.05L7 3" stroke="black" stroke-width="1.5" stroke-linecap="round" stroke-linejoin="round"/>
</g>
<defs>
<clipPath id="clip0_211_71920">
<rect width="24" height="24" fill="white"/>
</clipPath>
</defs>
</svg>
