<svg width="24" height="24" viewBox="0 0 24 24" fill="none" xmlns="http://www.w3.org/2000/svg">
<g clip-path="url(#clip0_211_71796)">
<path d="M18.4147 18.414C18.2289 18.5998 18.0083 18.7473 17.7655 18.8478C17.5227 18.9484 17.2624 19.0001 16.9997 19H6.99966C6.46923 19 5.96052 18.7893 5.58544 18.4142C5.21037 18.0391 4.99966 17.5304 4.99966 17V10.236C4.65102 9.92407 4.38016 9.53494 4.20872 9.09968C4.03728 8.66441 3.97 8.19509 4.01227 7.72919C4.05454 7.2633 4.20517 6.81374 4.45214 6.41644C4.69912 6.01913 5.03558 5.68509 5.43466 5.441M8.99966 5H16.9997C17.607 5.00024 18.2 5.18481 18.7001 5.52931C19.2003 5.8738 19.5842 6.362 19.8009 6.92934C20.0177 7.49669 20.0571 8.11645 19.914 8.7067C19.771 9.29694 19.4521 9.82987 18.9997 10.235V15" stroke="black" stroke-width="1.5" stroke-linecap="round" stroke-linejoin="round"/>
<path d="M3 3L21 21" stroke="black" stroke-width="1.5" stroke-linecap="round" stroke-linejoin="round"/>
</g>
<defs>
<clipPath id="clip0_211_71796">
<rect width="24" height="24" fill="white"/>
</clipPath>
</defs>
</svg>
