<svg width="24" height="24" viewBox="0 0 24 24" fill="none" xmlns="http://www.w3.org/2000/svg">
<g clip-path="url(#clip0_211_71775)">
<path d="M12.4994 8.50166L12.8794 8.12166C12.5303 7.77295 12.2725 7.3435 12.129 6.87136C11.9856 6.39923 11.9607 5.89899 12.0568 5.41497C12.1529 4.93095 12.3669 4.47811 12.6798 4.09656C12.9927 3.71502 13.3949 3.41655 13.8508 3.22762C14.3067 3.03869 14.8021 2.96512 15.2932 3.01344C15.7843 3.06176 16.2558 3.23047 16.6661 3.50462C17.0764 3.77878 17.4128 4.1499 17.6453 4.58512C17.8779 5.02034 17.9995 5.50621 17.9994 5.99966C18.4927 5.99956 18.9785 6.12112 19.4136 6.35358C19.8488 6.58604 20.2199 6.92222 20.4941 7.33235C20.7682 7.74249 20.937 8.2139 20.9855 8.70486C21.034 9.19581 20.9607 9.69114 20.772 10.147C20.5833 10.6028 20.2851 11.0051 19.9039 11.3182C19.5226 11.6312 19.07 11.8455 18.5862 11.9418C18.1024 12.0382 17.6022 12.0138 17.1301 11.8708C16.6579 11.7277 16.2284 11.4704 15.8794 11.1217L15.5074 11.4937M13.4994 13.5017L11.1214 15.8797C11.4648 16.2233 11.7196 16.6453 11.8639 17.1092C12.0081 17.5731 12.0376 18.0651 11.9497 18.5429C11.8618 19.0207 11.6592 19.47 11.3592 19.8522C11.0593 20.2344 10.671 20.538 10.2278 20.737C9.78457 20.936 9.29966 21.0243 8.81475 20.9944C8.32984 20.9646 7.85944 20.8174 7.44399 20.5655C7.02854 20.3136 6.68047 19.9647 6.42971 19.5486C6.17895 19.1324 6.033 18.6617 6.00441 18.1767V17.9997H5.82841C5.34324 17.9712 4.87225 17.8254 4.45595 17.5746C4.03964 17.3238 3.69049 16.9757 3.43854 16.5601C3.18659 16.1445 3.03937 15.6739 3.00956 15.1888C2.97974 14.7038 3.06823 14.2187 3.26739 13.7754C3.46656 13.3321 3.77044 12.9438 4.15291 12.6439C4.53537 12.3441 4.98495 12.1416 5.46299 12.054C5.94102 11.9663 6.43318 11.9962 6.89714 12.1409C7.36109 12.2856 7.78295 12.5408 8.12641 12.8847L10.5044 10.5067" stroke="black" stroke-width="1.5" stroke-linecap="round" stroke-linejoin="round"/>
<path d="M3 3L21 21" stroke="black" stroke-width="1.5" stroke-linecap="round" stroke-linejoin="round"/>
</g>
<defs>
<clipPath id="clip0_211_71775">
<rect width="24" height="24" fill="white"/>
</clipPath>
</defs>
</svg>
