<svg width="24" height="24" viewBox="0 0 24 24" fill="none" xmlns="http://www.w3.org/2000/svg">
<path d="M3.02002 16.4C4.64002 19.72 8.05002 22 12 22C17.52 22 22 17.52 22 12C22 11.32 21.93 10.65 21.8 10.01" stroke="#171717" stroke-width="1.5" stroke-linecap="round" stroke-linejoin="round"/>
<path d="M14.02 2.2C13.36 2.07 12.69 2 12 2C6.48 2 2 6.48 2 12" stroke="#171717" stroke-width="1.5" stroke-linecap="round" stroke-linejoin="round"/>
<path d="M19 2C17.34 2 16 3.34 16 5C16 6.66 17.34 8 19 8C20.66 8 22 6.66 22 5C22 4.64 21.94 4.3 21.82 3.99" stroke="#171717" stroke-width="1.5" stroke-linecap="round" stroke-linejoin="round"/>
</svg>
