<svg width="48" height="48" viewBox="0 0 48 48" fill="none" xmlns="http://www.w3.org/2000/svg">
<path d="M8.5 0H39.5C44.2 0 48 3.89744 48 8.71795V39.2821C48 44.1026 44.2 48 39.5 48H8.5C3.8 48 0 44.1026 0 39.2821V8.71795C0 3.89744 3.8 0 8.5 0Z" fill="#470137"/>
<path d="M25.2256 15.0819L19.2954 24.8966L25.621 35.306C25.6605 35.3853 25.6803 35.4647 25.6605 35.544C25.6407 35.6233 25.5616 35.5638 25.443 35.5836H20.9163C20.6 35.5836 20.3826 35.5638 20.2442 35.3655C19.8291 34.5328 19.3942 33.7198 18.9791 32.8871C18.564 32.0741 18.1093 31.2414 17.6349 30.3888C17.1605 29.5362 16.6861 28.6836 16.2116 27.8112H16.1721C15.757 28.6638 15.3023 29.5164 14.8477 30.369C14.393 31.2216 13.9384 32.0741 13.5035 32.9069C13.0489 33.7397 12.5942 34.5922 12.1396 35.4052C12.0605 35.6035 11.9023 35.6233 11.6849 35.6233H7.33607C7.257 35.6233 7.1977 35.6629 7.1977 35.5638C7.17793 35.4845 7.1977 35.4052 7.23723 35.3457L13.3849 25.2336L7.39537 15.0621C7.33607 14.9828 7.3163 14.9035 7.35584 14.8638C7.39537 14.8043 7.47444 14.7845 7.55351 14.7845H12.0407C12.1396 14.7845 12.2384 14.8043 12.3175 14.8241C12.3965 14.8638 12.4558 14.9233 12.5151 15.0026C12.8907 15.8552 13.3256 16.7078 13.7803 17.5603C14.2547 18.4129 14.7093 19.2457 15.2035 20.0785C15.6779 20.9112 16.1128 21.744 16.5279 22.5966H16.5675C16.9826 21.7241 17.4175 20.8716 17.8523 20.0388C18.2872 19.206 18.7419 18.3733 19.1965 17.5405C19.6512 16.7078 20.0861 15.8552 20.521 15.0422C20.5407 14.9629 20.5803 14.8836 20.6396 14.844C20.7186 14.8043 20.7977 14.7845 20.8965 14.8043H25.0675C25.1663 14.7845 25.2651 14.844 25.2849 14.9431C25.3047 14.9629 25.2651 15.0422 25.2256 15.0819Z" fill="#FF61F6"/>
<path fill-rule="evenodd" clip-rule="evenodd" d="M30.1081 35.1078C31.4325 35.7224 32.8953 36.0198 34.3581 36C35.386 36 36.3942 35.9009 37.4023 35.7224C38.5093 35.5241 39.5965 35.2069 40.6244 34.7707C40.7628 34.7112 40.8221 34.5922 40.8221 34.4534C40.819 34.4015 40.816 34.3481 40.8128 34.2934C40.7957 33.9936 40.7764 33.6556 40.743 33.3034C40.7412 33.2635 40.7394 33.2238 40.7376 33.1845C40.7198 32.7949 40.7035 32.438 40.7035 32.1138V13.2379V13.1983C40.6837 13.119 40.6046 13.0397 40.5058 13.0595H36.493C36.3546 13.0595 36.2953 13.1388 36.2953 13.2776V19.5431C36.1856 19.5339 36.0843 19.529 35.9895 19.5244C35.8794 19.519 35.7781 19.5141 35.6825 19.5034C35.5046 19.4836 35.3663 19.4836 35.2674 19.4836C33.3104 19.4836 31.65 19.8603 30.2663 20.6336C28.9616 21.3474 27.8744 22.4181 27.1232 23.7069C26.3918 24.9759 26.0163 26.4233 26.036 27.8905C26.036 29.6948 26.3918 31.2017 27.1232 32.4112C27.8349 33.581 28.8628 34.5328 30.1081 35.1078ZM36.2953 23.3103V32.0345C36.0581 32.1138 35.8407 32.1534 35.5837 32.1336C35.3267 32.1534 35.05 32.1733 34.7535 32.1733C34.2 32.1733 33.6465 32.094 33.1128 31.9155C32.5988 31.7569 32.1442 31.4793 31.7686 31.1224C31.3732 30.7259 31.0767 30.25 30.879 29.7146C30.6418 29.0603 30.5232 28.3664 30.543 27.6724C30.543 26.6414 30.7604 25.7888 31.1953 25.1543C31.6302 24.5198 32.2035 24.0241 32.8756 23.6871C33.5674 23.3302 34.3383 23.1715 35.1093 23.1715C35.3267 23.1715 35.5441 23.1914 35.7616 23.2112L35.7616 23.2112C35.9395 23.231 36.1174 23.2707 36.2953 23.3103L36.2953 23.3103Z" fill="#FF61F6"/>
</svg>
