<svg width="48" height="48" viewBox="0 0 48 48" fill="none" xmlns="http://www.w3.org/2000/svg">
<path d="M8.5 0H39.5C44.2 0 48 3.89744 48 8.71795V39.2821C48 44.1026 44.2 48 39.5 48H8.5C3.8 48 0 44.1026 0 39.2821V8.71795C0 3.89744 3.8 0 8.5 0Z" fill="#330000"/>
<path fill-rule="evenodd" clip-rule="evenodd" d="M17.065 30.1026H24.5605L26.2127 34.6557C26.253 34.7896 26.3941 34.8852 26.5351 34.8661H30.7463C30.9478 34.8661 31.0083 34.7705 30.9478 34.56L23.5933 14.8557C23.5732 14.76 23.4926 14.7026 23.3314 14.7026H18.1732H18.1127C18.012 14.7218 17.9314 14.8174 17.9515 14.9131C17.9515 15.3339 17.9112 15.7548 17.8306 16.1565C17.7735 16.3192 17.7266 16.4722 17.6825 16.6157C17.6644 16.6747 17.6468 16.7321 17.6292 16.7879L11.1411 34.5218C11.0806 34.7513 11.1411 34.8661 11.3627 34.8661H15.1508C15.3321 34.8852 15.4933 34.7705 15.5336 34.5983L17.065 30.1026ZM23.3515 26.2192H18.2336C18.5359 25.4157 18.8381 24.5166 19.1202 23.5409C19.3198 22.9487 19.5116 22.3566 19.7006 21.7735C19.8168 21.4147 19.9319 21.0594 20.0471 20.7096C20.3292 19.887 20.5508 19.0644 20.7321 18.2418H20.7724C20.8511 18.4977 20.9297 18.7656 21.0118 19.0453C21.077 19.2673 21.1444 19.4969 21.2157 19.7339C21.3769 20.2887 21.5583 20.8435 21.7598 21.4365C21.8605 21.7331 21.9562 22.0248 22.0519 22.3165C22.1476 22.6083 22.2433 22.9 22.3441 23.1965C22.5254 23.7705 22.7068 24.3252 22.8881 24.8418C23.0695 25.3392 23.2306 25.8174 23.3515 26.2192Z" fill="#FF9A00"/>
<path fill-rule="evenodd" clip-rule="evenodd" d="M33.5471 17.3044C34.0307 17.7444 34.6754 17.993 35.3404 17.9739C36.0254 18.0122 36.7105 17.7635 37.1739 17.3044C37.6575 16.8261 37.8993 16.1948 37.8792 15.5444C37.8993 14.913 37.6575 14.3009 37.2142 13.8417C36.771 13.4017 36.1665 13.1722 35.3807 13.1722C34.7157 13.1722 34.071 13.4017 33.5874 13.8417C33.1038 14.2817 32.8419 14.8939 32.862 15.5444C32.8419 16.1948 33.0836 16.8261 33.5471 17.3044ZM33.0836 19.8487V34.5791C33.0836 34.7704 33.1844 34.8852 33.3859 34.8852H37.3351C37.5165 34.8852 37.5971 34.7896 37.5971 34.5791V19.8487C37.5971 19.6765 37.5165 19.5809 37.3351 19.5809H33.3456C33.1642 19.5809 33.0836 19.6574 33.0836 19.8487Z" fill="#FF9A00"/>
</svg>
