<svg width="48" height="48" viewBox="0 0 48 48" fill="none" xmlns="http://www.w3.org/2000/svg">
<path d="M8.5 0H39.5C44.2 0 48 3.89744 48 8.71795V39.2821C48 44.1026 44.2 48 39.5 48H8.5C3.8 48 0 44.1026 0 39.2821V8.71795C0 3.89744 3.8 0 8.5 0Z" fill="#001E36"/>
<path fill-rule="evenodd" clip-rule="evenodd" d="M10 13.444V34.2128C10 34.3945 10.08 34.4752 10.24 34.4752H14.04H14.12C14.26 34.455 14.36 34.3339 14.34 34.1926V27.7137H14.3401C14.72 27.7137 15 27.7137 15.2 27.7339C15.4 27.7541 15.72 27.7541 16.2 27.7541C17.84 27.7541 19.34 27.5725 20.7 27.0679C22 26.5835 23.12 25.7358 23.92 24.6055C24.72 23.4752 25.12 22.0422 25.12 20.3064C25.12 19.3981 24.96 18.5302 24.66 17.6825C24.34 16.8147 23.84 16.0275 23.2 15.3816C22.44 14.6348 21.52 14.0697 20.52 13.7266C19.4 13.3027 18.04 13.1009 16.4 13.1009C15.8 13.1009 15.2 13.1009 14.58 13.1211C14.2807 13.1308 13.9907 13.1359 13.71 13.1407C13.4093 13.146 13.1193 13.151 12.84 13.1614C12.5781 13.1712 12.3256 13.1763 12.0802 13.1812C11.8197 13.1864 11.5672 13.1914 11.32 13.2018C10.86 13.222 10.54 13.222 10.2 13.222C10.06 13.222 10 13.3027 10 13.444ZM14.36 23.8991V17.1174C14.5 17.0972 14.78 17.077 15.18 17.0972C15.56 17.077 16.02 17.077 16.54 17.077C17.36 17.0569 18.16 17.178 18.9 17.4807C19.48 17.7027 19.96 18.1064 20.3 18.6312C20.62 19.1761 20.78 19.8018 20.76 20.4275C20.76 21.3156 20.56 22.0018 20.14 22.5064C19.7 23.011 19.14 23.3945 18.5 23.5761C17.76 23.8183 16.98 23.9394 16.2 23.9394H15.14C14.9172 23.9394 14.6772 23.922 14.42 23.9034C14.4001 23.902 14.3801 23.9005 14.36 23.8991Z" fill="#31A8FF"/>
<path d="M37.6 22.6679C37 22.3449 36.36 22.1229 35.68 21.9816C34.94 21.8201 34.2 21.7192 33.44 21.7192C33.04 21.699 32.62 21.7596 32.24 21.8605C31.98 21.9211 31.76 22.0623 31.62 22.2642C31.52 22.4257 31.46 22.6275 31.46 22.8091C31.46 22.9908 31.54 23.1724 31.66 23.3339C31.84 23.5559 32.08 23.7376 32.34 23.8789C32.8 24.1211 33.28 24.3431 33.76 24.5449C34.84 24.9082 35.88 25.4128 36.84 26.0183C37.5 26.4422 38.04 27.0073 38.42 27.6935C38.74 28.3394 38.9 29.0458 38.88 29.7724C38.9 30.7211 38.62 31.6697 38.1 32.4568C37.54 33.2642 36.76 33.8899 35.86 34.2532C34.88 34.677 33.68 34.899 32.24 34.899C31.32 34.899 30.42 34.8183 29.52 34.6367C28.82 34.5156 28.12 34.2935 27.48 33.9908C27.34 33.9101 27.24 33.7688 27.26 33.6073V30.0954C27.26 30.0348 27.28 29.9541 27.34 29.9137C27.4 29.8734 27.46 29.8935 27.52 29.9339C28.3 30.3981 29.12 30.7211 30 30.9229C30.76 31.1247 31.56 31.2257 32.36 31.2257C33.12 31.2257 33.66 31.1247 34.02 30.9431C34.34 30.8018 34.56 30.4587 34.56 30.0954C34.56 29.8128 34.4 29.5504 34.08 29.288C33.76 29.0257 33.1 28.7229 32.12 28.3394C31.1 27.9761 30.16 27.4917 29.28 26.8862C28.66 26.4422 28.14 25.8568 27.76 25.1706C27.44 24.5247 27.28 23.8183 27.3 23.1119C27.3 22.244 27.54 21.4165 27.98 20.6697C28.48 19.8623 29.22 19.2165 30.08 18.8128C31.02 18.3284 32.2 18.1064 33.62 18.1064C34.44 18.1064 35.28 18.1669 36.1 18.288C36.7 18.3688 37.28 18.5302 37.82 18.7523C37.9 18.7724 37.98 18.8532 38.02 18.9339C38.04 19.0146 38.06 19.0954 38.06 19.1761V22.466C38.06 22.5468 38.02 22.6275 37.96 22.6679C37.78 22.7082 37.68 22.7082 37.6 22.6679Z" fill="#31A8FF"/>
</svg>
