<svg width="48" height="48" viewBox="0 0 48 48" fill="none" xmlns="http://www.w3.org/2000/svg">
<path fill-rule="evenodd" clip-rule="evenodd" d="M24.7 11.705C15.8361 11.705 11.1987 19.2217 8.60794 26.5671C8.29473 27.4551 7.32093 27.9211 6.4329 27.6079C5.54487 27.2947 5.07889 26.3209 5.3921 25.4329C8.02136 17.9783 13.4039 8.29498 24.7 8.29498C30.6045 8.29498 34.8396 12.2043 37.579 16.9009C40.326 21.6104 41.7918 27.4429 42.1111 32.1547C42.134 32.4919 42.0561 32.8282 41.8874 33.1211C40.303 35.8714 37.6672 37.6637 34.6626 38.7614C31.666 39.8563 28.1949 40.3037 24.7155 40.305C18.7135 40.4106 12.9643 37.8897 8.97571 33.4027C8.5567 32.9314 8.43212 32.2672 8.65181 31.676L10.25 32.27C8.65182 31.676 8.6517 31.6763 8.65181 31.676L8.65555 31.666L8.66391 31.6438L8.69417 31.5642C8.72027 31.4961 8.7581 31.3984 8.80684 31.2754C8.90426 31.0295 9.04563 30.6814 9.22432 30.2648C9.58013 29.4352 10.0911 28.3172 10.7044 27.1885C11.3096 26.0746 12.0533 24.8773 12.8886 23.934C13.649 23.0752 14.833 22.0253 16.3484 22.015L16.36 22.0149C17.4317 22.0149 18.312 22.5056 18.9456 22.9773C19.5843 23.4528 20.1644 24.057 20.6292 24.5489C20.6826 24.6054 20.7344 24.6603 20.7849 24.7138C21.2177 25.1728 21.5488 25.5238 21.8633 25.7867C21.8987 25.8162 21.9311 25.8423 21.9608 25.8652C22.0631 25.7607 22.1851 25.6237 22.3256 25.4495C22.8253 24.83 23.3866 23.9573 23.9298 23.023C24.4658 22.1011 24.9537 21.1723 25.3093 20.4698C25.4866 20.1198 25.6296 19.8287 25.7278 19.6261C25.7768 19.5249 25.8146 19.446 25.8398 19.3931L25.868 19.3338L25.8761 19.3166C26.2758 18.4641 27.2911 18.0965 28.1437 18.4962C28.9963 18.8958 29.3635 19.911 28.9638 20.7636L27.42 20.04C28.9638 20.7636 28.9639 20.7634 28.9638 20.7636L28.9634 20.7646L28.9626 20.7662L28.9602 20.7715L28.9513 20.7903L28.9185 20.8594C28.8901 20.9189 28.8489 21.005 28.7961 21.1138C28.6907 21.3313 28.5389 21.6402 28.3516 22.0101C27.9782 22.7476 27.458 23.7389 26.8778 24.7369C26.3047 25.7227 25.6416 26.77 24.9797 27.5905C24.6516 27.9973 24.2795 28.4043 23.8771 28.7243C23.5215 29.0072 22.8942 29.425 22.09 29.425C21.0267 29.425 20.1888 28.8312 19.6767 28.4033C19.1941 28 18.7119 27.4874 18.307 27.0568C18.2535 27 18.2014 26.9446 18.1508 26.891C17.6707 26.3829 17.2782 25.9872 16.9094 25.7126C16.5879 25.4733 16.4229 25.4329 16.3745 25.4262C16.3732 25.4268 16.3708 25.4277 16.3675 25.4289C16.3135 25.4485 16.002 25.5617 15.4415 26.1947C14.8555 26.8564 14.2555 27.7954 13.7007 28.8165C13.1539 29.8227 12.6887 30.8385 12.3582 31.6089C12.3157 31.708 12.2756 31.8028 12.2379 31.8926C15.5217 35.165 20.0042 36.981 24.6687 36.8953L24.7 36.895C27.9255 36.895 30.9785 36.477 33.4924 35.5585C35.8059 34.7132 37.5706 33.4812 38.6672 31.8454C38.3042 27.6582 36.9678 22.621 34.6335 18.619C32.1905 14.4306 28.8755 11.705 24.7 11.705ZM21.6805 26.1075C21.6806 26.1068 21.6879 26.1018 21.7022 26.0945C21.6875 26.1045 21.6804 26.1082 21.6805 26.1075Z" fill="#1D2D35"/>
</svg>
