<svg width="48" height="48" viewBox="0 0 48 48" fill="none" xmlns="http://www.w3.org/2000/svg">
<path fill-rule="evenodd" clip-rule="evenodd" d="M24.7 8.29498C34.5967 8.29498 41.2693 19.7346 42.1111 32.1547C42.1339 32.4919 42.0561 32.8282 41.8874 33.1211C39.13 37.9074 32.9958 40.2186 25.1757 40.3023L24.7313 40.3047C18.7236 40.4151 12.9678 37.8937 8.97568 33.4027C8.55667 32.9314 8.43209 32.2672 8.65178 31.676L8.80716 31.2746C8.92862 30.968 9.06859 30.6277 9.22555 30.2618C9.67472 29.2148 10.1724 28.1668 10.7087 27.1805C12.1205 24.5839 13.5178 22.8476 15.1697 22.2365C15.5528 22.0948 15.9474 22.0178 16.36 22.015C17.8709 22.015 18.847 22.6927 20.412 24.321L21.3077 25.2621C21.5441 25.506 21.6606 25.6151 21.8115 25.7431L21.96 25.864L22.0208 25.8026C22.2341 25.5753 22.4832 25.2621 22.7565 24.8759L22.8951 24.6769C23.2211 24.2013 23.5686 23.6442 23.9297 23.023C24.3998 22.2145 24.8675 21.3426 25.3093 20.4698L25.6322 19.8221L25.8762 19.3163C26.2758 18.4637 27.291 18.0965 28.1437 18.4962C28.9489 18.8736 29.3212 19.8001 29.0234 20.6202L28.942 20.8098L28.5861 21.5421C28.5119 21.6918 28.4336 21.8481 28.3516 22.0101C27.8821 22.9374 27.3844 23.8654 26.8777 24.7369C26.4769 25.4263 26.0859 26.0532 25.7076 26.6051C24.4419 28.4513 23.4536 29.425 22.09 29.425C20.7048 29.425 20.177 29.0252 18.3583 27.1101L18.1508 26.891C17.197 25.8817 16.6678 25.4712 16.4136 25.4287L16.3765 25.4255L16.3528 25.4347C15.748 25.6584 14.7298 26.9236 13.7045 28.8094C13.3199 29.5167 12.9525 30.2699 12.6107 31.0328L12.238 31.891L12.3628 32.0159C15.5388 35.1166 19.8059 36.8746 24.2916 36.8977L24.7 36.895C31.233 36.895 36.2106 35.2266 38.5065 32.0744L38.667 31.843L38.6495 31.6296C37.7168 21.2026 32.2012 11.9283 24.9624 11.709L24.7 11.705C16.987 11.705 11.9102 17.2043 8.60791 26.5671C8.2947 27.4551 7.3209 27.9211 6.43287 27.6079C5.54484 27.2947 5.07886 26.3209 5.39207 25.4329C9.12085 14.8609 15.1823 8.29498 24.7 8.29498Z" fill="black"/>
</svg>
