<svg width="48" height="48" viewBox="0 0 48 48" fill="none" xmlns="http://www.w3.org/2000/svg">
<path d="M24 48C37.2548 48 48 37.2548 48 24C48 10.7452 37.2548 0 24 0C10.7452 0 0 10.7452 0 24C0 37.2548 10.7452 48 24 48Z" fill="white"/>
<path fill-rule="evenodd" clip-rule="evenodd" d="M20.0264 9.76196C20.6854 9.57663 23.2506 9.41526 24.9112 10.0862C25.5344 10.3383 26.092 11.0662 26.208 11.8635C27.174 11.8335 28.7732 11.8209 30.1338 11.9817C31.8253 12.1818 33.1721 12.4312 33.836 12.6721C34.4513 12.8948 35.1318 13.4614 35.3457 14.6106C35.7113 16.5769 36.1717 24.3678 35.9346 26.9495C35.5594 31.032 34.9401 33.4642 34.6836 34.261C33.388 38.2968 32.2813 38.3997 29.1436 38.3997C25.1418 38.3996 23.9171 37.803 23.917 34.5891C23.917 31.0486 25.5758 30.9741 28.3955 31.052C28.7992 31.0621 28.3721 31.4584 28.3721 32.1438C28.3722 32.8325 28.6366 33.1047 28.2725 33.1047C27.4571 33.1047 26.3568 32.9874 26.3565 34.1038C26.3565 35.4856 27.0174 35.4407 28.75 35.4407C30.887 35.4406 31.2959 35.1731 31.2959 33.219C31.2959 30.0068 30.3906 29.5143 29.1436 29.3704C27.7644 29.2081 26.4072 28.9998 25.753 28.7668C24.0956 28.1758 24.2139 25.9733 24.2139 25.3508C24.2139 25.2571 24.083 25.2612 24.083 25.3508C24.083 26.2325 24.0198 27.4512 23.5684 28.8245C23.4276 29.2198 23.325 29.4897 23.3233 29.4924C22.8033 30.5863 21.9308 30.211 20.541 30.0325C19.1484 29.8543 16.1777 29.2322 14.877 28.6731C14.2932 28.401 14.095 28.144 13.7979 27.5266C13.0314 25.9395 12.2245 20.721 12.125 19.9739C12.0073 19.0243 12.0002 18.5262 12 18.51C11.9985 17.8996 12.0613 17.3013 12.4209 16.8166C12.6016 16.5726 12.8391 16.3662 13.1748 16.2131C13.51 16.0602 13.9492 15.9631 14.5235 15.9631H17.2158C17.8028 15.9624 18.2761 15.4844 18.2764 14.8977C18.2762 14.8801 18.2676 14.2969 18.2598 13.6457C18.2518 12.9891 18.2432 12.2499 18.2432 11.9358C18.2443 11.3813 18.3844 10.9839 18.6006 10.6741C18.9231 10.2102 19.5029 9.90885 20.0264 9.76196ZM30.3477 21.5637C29.1923 21.523 28.8655 22.4959 28.7676 23.2893C29.1153 23.2332 29.4884 23.2093 29.876 23.2229C30.6032 23.2486 31.2712 23.4024 31.8106 23.6438C31.806 22.8217 31.6264 21.6082 30.3477 21.5637ZM17.6407 10.552C17.448 10.9385 17.3369 11.3999 17.3369 11.929V11.9368C17.337 12.5769 17.3697 14.8638 17.3701 14.8977C17.3698 15.0514 17.2451 15.178 17.0908 15.178H14.3975C13.7363 15.178 13.1831 15.2909 12.7276 15.4973C12.7055 15.5071 12.5589 15.5805 12.4512 15.634C12.4542 15.6228 12.4605 15.6112 12.4707 15.6028L17.7012 10.3957C17.7114 10.3855 17.7222 10.3799 17.7324 10.3782L17.6407 10.552Z" fill="#20C05C"/>
</svg>
