<svg width="48" height="48" viewBox="0 0 48 48" fill="none" xmlns="http://www.w3.org/2000/svg">
<path d="M24 48C37.2548 48 48 37.2548 48 24C48 10.7452 37.2548 0 24 0C10.7452 0 0 10.7452 0 24C0 37.2548 10.7452 48 24 48Z" fill="white"/>
<path d="M33.6467 28.8451C37.0831 26.94 39.7075 25.4848 39.9463 25.3523C40.6584 24.9575 41.4045 23.9499 39.9463 23.1446C39.4776 22.8853 36.9237 21.4747 33.6426 19.6616L29.1299 24.2676L33.6467 28.8451Z" fill="#FFE300"/>
<path d="M29.1296 24.2676L14.696 38.9988C15.022 39.0407 15.414 38.9533 15.865 38.7033C16.7985 38.1857 26.8243 32.6271 33.6466 28.8446L29.1296 24.2676Z" fill="#FF4E54"/>
<path d="M29.1295 24.2676L33.6423 19.6616C33.6423 19.6616 16.8691 10.3925 15.8649 9.83757C15.479 9.62423 15.0582 9.54977 14.6857 9.63379L29.1295 24.2676Z" fill="#00F085"/>
<path d="M29.1296 24.2676L14.6855 9.634C14.0889 9.7688 13.6 10.2918 13.6 11.3431V37.2431C13.6 38.2331 13.9846 38.9293 14.6958 38.9988L29.1296 24.2676Z" fill="#00E0FF"/>
</svg>
