<svg width="48" height="48" viewBox="0 0 48 48" fill="none" xmlns="http://www.w3.org/2000/svg">
<path d="M0 24C0 10.7452 10.7452 0 24 0C37.2548 0 48 10.7452 48 24C48 37.2548 37.2548 48 24 48C10.7452 48 0 37.2548 0 24Z" fill="white"/>
<path d="M36.152 29.032C36.1362 26.1459 35.6498 23.2816 34.712 20.552C33.992 18.472 35.432 15.992 35.432 15.992C35.432 15.992 34.712 16.072 33.192 17.432C32.2636 18.3172 31.694 19.5134 31.592 20.792C29.672 16.392 25.832 13.512 24.392 11.592C22.952 9.67201 24 7.20001 24 7.20001C21.12 8.48001 19.68 11.52 19.2 15.2C19.0909 17.2211 18.0584 19.0797 16.4 20.24C16 16.8 12.08 16 12.08 16C12.88 16.24 14.32 20.16 12.8 23.12C11.8151 24.9714 11.2677 27.024 11.2 29.12C11.2 35.84 15.52 41.352 23.592 41.352C26.9195 41.4827 30.1536 40.2348 32.531 37.9029C34.9084 35.5709 36.2184 32.3615 36.152 29.032Z" fill="url(#paint0_radial_210_502)"/>
<path d="M28.072 29.992C29.044 29.992 29.832 28.8817 29.832 27.512C29.832 26.1423 29.044 25.032 28.072 25.032C27.1 25.032 26.312 26.1423 26.312 27.512C26.312 28.8817 27.1 29.992 28.072 29.992Z" fill="#333333"/>
<path d="M19.1999 29.992C20.172 29.992 20.9599 28.8817 20.9599 27.512C20.9599 26.1423 20.172 25.032 19.1999 25.032C18.2279 25.032 17.4399 26.1423 17.4399 27.512C17.4399 28.8817 18.2279 29.992 19.1999 29.992Z" fill="#333333"/>
<path d="M23.5919 39.504C18.5867 39.5575 14.4789 35.5569 14.3999 30.552C14.3999 30.1102 14.7581 29.752 15.1999 29.752C15.4161 29.7377 15.628 29.8174 15.7813 29.9706C15.9345 30.1239 16.0142 30.3358 15.9999 30.552C16.0656 34.696 19.4555 38.0145 23.5999 37.992C25.595 38.0155 27.5175 37.2443 28.9432 35.8485C30.369 34.4528 31.1809 32.5471 31.1999 30.552C31.1999 30.1102 31.5581 29.752 31.9999 29.752C32.2161 29.7377 32.428 29.8174 32.5813 29.9706C32.7345 30.1239 32.8142 30.3358 32.7999 30.552C32.7747 32.963 31.7883 35.2642 30.0595 36.9449C28.3307 38.6256 26.0026 39.5468 23.5919 39.504Z" fill="#333333"/>
<defs>
<radialGradient id="paint0_radial_210_502" cx="0" cy="0" r="1" gradientUnits="userSpaceOnUse" gradientTransform="translate(26.1136 37.1994) scale(37.2 50.9249)">
<stop offset="0.05" stop-color="#EFAC00"/>
<stop offset="0.17" stop-color="#EB9100"/>
<stop offset="0.4" stop-color="#E15600"/>
<stop offset="0.63" stop-color="#C82400"/>
<stop offset="0.72" stop-color="#B91200"/>
<stop offset="0.81" stop-color="#AE0500"/>
<stop offset="0.9" stop-color="#AA0000"/>
</radialGradient>
</defs>
</svg>
