<svg width="48" height="48" viewBox="0 0 48 48" fill="none" xmlns="http://www.w3.org/2000/svg">
<path d="M24 48C37.2548 48 48 37.2548 48 24C48 10.7452 37.2548 0 24 0C10.7452 0 0 10.7452 0 24C0 37.2548 10.7452 48 24 48Z" fill="white"/>
<path fill-rule="evenodd" clip-rule="evenodd" d="M29.4704 9.60001C30.3844 9.59994 31.1489 9.86806 31.6637 10.432C32.8193 11.6983 32.4041 14.1161 30.8258 16.5639C31.1652 16.8899 31.4463 17.333 31.6471 17.7729C32.1489 18.1646 32.4748 18.76 32.6364 19.5824C32.8163 20.4969 32.8535 21.8 32.9665 22.3598C33.3916 22.5539 33.211 22.4635 33.6647 22.6928C34.1378 22.932 34.7137 23.2236 35.3503 23.8432C36.4821 24.1301 36.9149 25.3482 36.2526 26.1791C36.2348 26.2014 36.1547 26.2968 36.0719 26.392C36.0917 26.4447 36.3088 26.8013 36.4655 27.5258C36.9342 27.6379 37.3075 27.9296 37.5036 28.3529C37.8427 29.1821 37.1755 30.1801 37.1755 30.1801C37.1525 30.2565 35.0567 38.4021 26.8249 38.3998C19.7076 38.3976 16.3337 32.1391 16.3337 32.1391C15.8151 32.1683 15.3147 32.085 14.8532 31.9135C12.7651 31.1374 11.7636 28.7205 12.484 26.6928L11.3356 25.8051C6.89098 22.3783 19.484 6.70079 23.9372 10.2484C23.9604 10.2669 25.0006 11.1137 25.0006 11.1137C26.5996 10.1314 28.1832 9.60006 29.4704 9.60001ZM34.1735 36.3344H34.0407V36.6752H33.9118V36.3344H33.7819V36.227H34.1735V36.3344ZM34.3962 36.227L34.4772 36.4848L34.5573 36.227H34.7409V36.6752H34.6237V36.351L34.527 36.6752H34.4264L34.3307 36.351V36.6752H34.2126V36.227H34.3962Z" fill="#5B453E"/>
<path d="M30.5961 18.4C30.7872 18.4001 30.9716 18.4429 31.14 18.5435C31.7833 18.9278 31.9214 19.9306 31.9906 20.6656C32.2462 23.3918 32.1434 22.9063 33.2426 23.4684C33.7669 23.7358 34.3564 23.9901 35.0267 24.7105C35.0301 24.7141 35.0345 24.7163 35.0394 24.7164C35.6049 24.73 35.896 25.1772 35.6351 25.5025C33.7378 27.7768 31.0883 28.8664 28.1351 28.9576C28.0131 28.9607 27.7382 28.9663 27.7367 28.9664C26.5443 29.003 26.1565 30.5516 26.9047 31.483C27.3777 32.0718 28.2876 32.2653 29.0365 32.2682L29.0463 32.2652C32.2752 32.3309 35.5191 30.0368 36.0795 28.7721C36.0835 28.7629 36.1185 28.6822 36.1185 28.6822C36.1185 28.6822 36.0881 28.718 36.0521 28.7477C35.9988 28.7887 32.8897 31.8087 29.0209 31.6998C29.0083 31.6995 28.5976 31.6897 28.2103 31.5992C27.6915 31.478 27.2967 31.2492 27.1459 30.7301C27.1011 30.6345 27.0756 30.3057 27.1351 30.0846C27.3216 29.4585 27.6527 29.5453 28.1879 29.5221C30.1006 29.4581 31.6444 28.9757 32.8011 28.4244C34.0346 27.8366 34.9751 27.0792 35.3138 26.6969C35.7531 27.4393 35.7504 28.3932 35.7504 28.3932C35.7566 28.391 35.9269 28.3326 36.1508 28.3326C36.8674 28.3328 37.0146 28.9763 36.472 29.6295C36.4349 29.7038 36.0491 31.7974 33.8451 33.5357C31.0609 35.7319 27.4026 35.5095 26.0209 34.2789C25.2918 33.5944 24.971 32.6191 24.9633 32.5953C24.9609 32.6111 24.8797 33.1563 24.8656 33.3727C24.3088 32.4221 24.3558 31.2613 24.3558 31.2613C24.3558 31.2613 24.0582 31.8171 23.9222 32.1285C23.5126 31.0817 23.724 30.0006 23.724 30.0006L23.3998 30.4859C23.3998 30.4859 23.2482 29.301 23.6215 28.3141C24.0203 27.2595 24.7938 26.4936 24.9467 26.398C24.3682 26.2135 23.7028 25.6892 23.683 25.6734C23.6945 25.6742 23.9554 25.6901 24.1381 25.648C24.1339 25.6451 22.9512 24.7919 22.7435 23.4889C22.9154 23.7021 23.2767 23.943 23.2767 23.943C23.16 23.6012 23.0886 22.8411 23.1976 22.0934H23.1986C23.423 20.6645 24.5964 19.734 25.9252 19.7457C27.3399 19.7583 28.2881 20.0562 29.474 18.9586C29.725 18.7263 29.9254 18.5252 30.2777 18.4469C30.3151 18.4384 30.4077 18.4 30.5961 18.4ZM16.4447 25.0152C16.8518 25.0152 17.239 25.1053 17.5892 25.2682C17.5893 25.2681 18.1945 25.5742 18.3646 27.0201C18.5416 26.5685 18.6312 26.1978 18.6312 26.1978C18.8339 26.8198 18.9375 27.4741 18.8969 28.1353C19.0628 27.9134 19.2413 27.4987 19.2455 27.4889C19.5578 29.3363 18.2142 31.0269 16.4447 31.0269C14.8736 31.0269 13.6 29.6813 13.6 28.0211C13.6 26.3608 14.8736 25.0153 16.4447 25.0152Z" fill="#F2D8B4"/>
<path d="M12.7006 25.6C12.6893 25.5971 11.6199 24.836 11.4678 24.5853C10.5681 23.1128 12.1334 20.0882 13.2473 18.369C16 14.12 20.5819 10.7668 22.663 11.2456L24.8001 12.3155C23.9703 12.7889 23.1677 13.3704 22.687 13.7571L22.2322 14.127C22.2322 14.127 20.9043 14.9941 20.2438 15.5407C17.5962 17.7319 14.9893 21.1239 14.0225 24.3982C14.0225 24.3981 13.2282 24.7805 12.7006 25.6Z" fill="#207EAC"/>
<path d="M23.2 11.2495C21.0787 10.73 16.4084 14.3679 13.6024 18.9777C13.6016 18.979 13.6008 18.9804 13.6 18.9817L13.6113 18.983L15.8471 20.8C18.302 16.7774 21.3874 14.7033 21.4744 14.6423L21.1199 12.1803L21.784 11.852L23.1168 12.2976L23.0148 11.8379L23.2 11.2495Z" fill="#4FB1D3"/>
<path d="M26.4 11.847L23.9722 13.4734L23.8023 13.6L21.6494 11.9247L21.6 11.6079L22.3485 11.2666C22.387 11.2784 23.7915 11.7116 23.8508 11.7299L23.8759 10.8416L23.9446 10.64L24.6022 10.4C24.6031 10.4006 26.3975 11.845 26.4 11.847Z" fill="#FACD55"/>
<path d="M29.0699 10.4C27.6984 10.4 26.1586 11.1606 24.9774 11.9084C24.8117 12.0112 24.6473 12.1187 24.4863 12.2284L23.8682 11.6821L24.0927 12.5047C24.0079 12.5661 23.925 12.6274 23.8439 12.6883L22.5669 12.2772L23.4119 13.023C23.2189 13.1772 23.0466 13.3215 22.9036 13.4465L20.8773 11.6823L20.9845 12.473L22.4573 13.8411C22.4573 13.8411 21.154 14.7663 20.5058 15.3496C17.9073 17.6873 15.3488 21.3065 14.4 24.8L14.4539 24.768C14.4613 24.7637 14.4687 24.7602 14.476 24.7559C14.5024 24.741 14.5287 24.7267 14.5551 24.7126C14.572 24.7037 14.5889 24.6946 14.6058 24.686C14.6329 24.6723 14.6601 24.6595 14.6873 24.6469C14.7033 24.6394 14.7194 24.6316 14.7355 24.6245C14.7649 24.6115 14.7943 24.5997 14.8237 24.588C14.8373 24.5825 14.8509 24.5766 14.8645 24.5715C14.9073 24.5553 14.95 24.5404 14.9926 24.527C15.6376 24.3241 16.5152 24.1936 17.5425 24.6536C18.0584 23.2816 18.6748 21.8857 19.6462 20.5444C20.4337 19.4569 21.1908 18.486 22.0995 17.952C23.82 16.2479 28.4572 14.4408 29.9428 16.0072C30.2941 15.4013 30.5989 14.8277 30.8501 14.1087C31.47 12.3797 31.4813 10.4 29.0699 10.4Z" fill="#131B23"/>
<path d="M24.0001 12L23.4963 11.2L23.2001 11.5986L23.3774 11.9119L24.0001 12Z" fill="#131B23"/>
<path d="M34.7738 26.2389C35.1994 26.9747 35.1976 27.9195 35.1976 27.9195C35.2049 28.1904 35.1958 28.3399 35.181 28.5494C34.3179 29.2977 31.7445 31.2852 28.6781 31.1969C28.6781 31.1969 28.2732 31.1884 27.892 31.0973C27.3921 30.9779 27.0117 30.7531 26.8636 30.2447L26.8607 30.2359C26.8584 30.2307 26.8398 30.1842 26.8275 30.0855C26.8274 30.0843 26.8267 30.0829 26.8265 30.0816C26.8264 30.0805 26.8266 30.0788 26.8265 30.0777C26.8238 30.0534 26.8213 30.0275 26.8197 30.0006C26.8195 29.9975 26.8189 29.994 26.8187 29.9908V29.9879C26.8165 29.9442 26.8159 29.8933 26.8177 29.8365C26.8185 29.8168 26.8201 29.7966 26.8217 29.7769V29.7711C26.8269 29.7098 26.8368 29.6498 26.851 29.5963C27.0317 28.9753 27.3526 29.0618 27.8715 29.0387C29.7244 28.9753 31.2196 28.497 32.3402 27.9508C33.5348 27.3684 34.4454 26.6179 34.7738 26.2389ZM28.6586 10.4C27.9108 10.5728 26.9997 10.9708 25.9203 11.649C25.894 11.6646 23.3646 13.4173 21.8197 14.9908C20.9817 15.8444 17.6294 19.9714 17.6 20.0074C18.2178 18.807 18.6249 18.2176 19.6029 16.9547C20.1561 16.2403 20.7467 15.5454 21.351 14.9039C21.554 14.6883 21.7589 14.4792 21.9642 14.2769C22.0426 14.1998 23.8091 12.3422 26.3881 11.1002C27.1205 10.7535 27.9056 10.479 28.6586 10.4Z" fill="#FFFFFE"/>
<path fill-rule="evenodd" clip-rule="evenodd" d="M35.9998 29.8406C35.963 29.9133 35.5815 31.9566 33.4022 33.6531C33.0279 33.9445 32.6375 34.1926 32.2391 34.4002C31.3288 34.0574 30.7653 33.3318 30.7518 33.3143C30.7518 33.3143 31.5415 33.1285 32.5975 32.5965C33.8818 31.9499 35.0823 31.0159 35.9998 29.8406ZM32.4373 29.7723C32.6423 29.7888 30.6766 31.0173 27.949 31.0174C27.6036 31.0174 27.2936 30.9953 27.0281 30.9578L26.7772 30.9148C26.7307 30.8123 26.7278 30.5761 26.7371 30.4637C28.8102 31.1088 32.09 29.8502 32.408 29.7772C32.4211 29.7743 32.4293 29.7724 32.4373 29.7723ZM34.5828 25.0457C35.142 25.059 35.4307 25.4957 35.1727 25.8133C33.2965 28.0329 30.6759 29.0954 27.7557 29.1844C27.635 29.1874 27.3636 29.1941 27.3621 29.1941C26.7544 29.2124 26.358 29.6227 26.2176 30.1404C26.1239 29.9821 26.1279 29.6616 26.3231 29.3748C26.9946 28.4003 28.6674 29.1402 31.8943 27.5486C32.9469 27.0275 33.7367 26.5787 34.3074 25.5965C34.4639 25.3261 34.4804 25.1448 34.575 25.0457C34.575 25.0457 34.5804 25.0457 34.5828 25.0457ZM15.9432 26.8582C16.5655 26.7276 17.0049 27.0001 17.1961 27.2684C17.3128 27.432 17.3082 27.5422 17.3309 27.6102C17.1826 27.4055 16.9909 27.3606 16.9891 27.3602C16.8268 27.2961 16.5153 27.3941 16.4949 27.742C16.4856 27.8757 16.526 28.0254 16.6414 28.157V28.158C16.6454 28.1625 16.6499 28.1672 16.6541 28.1717C16.658 28.1759 16.6628 28.1803 16.6668 28.1844C16.924 28.4485 17.3125 28.5181 17.3738 28.8582C17.4132 29.0945 17.3436 29.3416 17.1775 29.5184L17.1756 29.5193C15.8937 29.613 14.7083 27.9905 15.408 27.0955C15.5202 27.0118 15.6138 26.97 15.6307 26.9607C15.6623 26.9441 15.6956 26.9324 15.7313 26.9158C15.7452 26.9101 15.7614 26.9052 15.7791 26.9002C15.8924 26.8686 15.8282 26.8823 15.9432 26.8582ZM30.7498 19.2C30.8959 19.2 30.997 19.2723 31.0691 19.3348C31.4178 19.8012 31.5143 20.527 31.5682 21.0916C31.7364 22.8619 31.7478 23.2452 32.0565 23.4647C32.0642 23.4722 32.0719 23.4789 32.0799 23.4842C31.8894 23.5398 31.7184 23.5917 31.5672 23.6395C31.2883 23.2615 30.9011 22.9082 30.1053 22.9656C29.0505 23.0562 28.2126 23.999 28.3641 24.9354C27.8629 25.1882 27.3959 25.4507 26.9617 25.7176C26.2453 25.7944 25.3721 26.0419 24.6024 26.6863C24.0229 26.5038 23.3553 25.9816 23.3524 25.9793C23.3524 25.9793 23.6188 25.9969 23.8035 25.9549C23.8035 25.9549 23.7905 25.9452 23.7674 25.9275C23.7664 25.9263 23.7649 25.9247 23.7635 25.9236C23.7479 25.9115 23.7317 25.8997 23.7156 25.8875C23.4397 25.6656 22.5961 24.9095 22.4246 23.8475C22.5946 24.0555 22.951 24.2908 22.951 24.2908C22.9467 24.2787 22.9424 24.266 22.9383 24.2527C22.9389 24.2508 22.9393 24.248 22.9393 24.2459C22.9365 24.2379 22.889 24.0969 22.8553 23.8328C22.8457 23.7564 22.8378 23.6749 22.8318 23.5897C22.8281 23.5323 22.8247 23.4715 22.8231 23.407C22.8667 22.8702 23.0045 22.4187 23.3455 21.992C23.8428 21.37 24.5251 21.1175 25.3123 21.1297C25.7372 21.1351 26.1709 21.2158 26.6658 21.2313C27.3419 21.2523 27.9933 21.1401 28.6785 20.8328C29.3556 20.513 29.7388 20.1441 30.1395 19.5711C30.2807 19.4166 30.5296 19.1904 30.7498 19.2ZM29.5477 24.2537C29.7104 23.734 30.4487 23.4836 30.8943 23.7977C30.6952 23.9124 30.6333 24.2452 30.7547 24.4383C30.503 24.4337 30.2444 24.5324 30.0623 24.7068C30.0792 24.4597 29.8054 24.2668 29.5477 24.2537Z" fill="#E2B986"/>
<path d="M16.6139 26.9488C16.7871 26.7754 17.0349 26.8377 17.0328 26.899C17.0326 26.9315 16.9723 26.9567 16.8981 27.0084C16.8018 27.0772 16.789 27.144 16.8131 27.2584C16.8295 27.3213 16.8572 27.3629 16.9166 27.4107C17.1319 27.5854 17.711 27.707 17.816 28.2994C17.8319 28.3928 17.8379 28.4822 17.8307 28.5689C17.8276 28.686 17.7902 28.8166 17.7887 28.8228C17.6605 29.2842 17.2602 29.5915 16.8571 29.6002C16.4451 29.6096 16.2199 29.3469 16.2604 29.2896C16.2792 29.2627 16.3425 29.2753 16.4391 29.2896C16.9639 29.3723 17.2819 29.0467 17.359 28.7057C17.36 28.7 17.3814 28.6087 17.3805 28.5455C17.3848 28.4905 17.3789 28.4344 17.3707 28.3844C17.3085 28.0313 16.9099 27.9651 16.6539 27.6842C16.424 27.4304 16.4698 27.105 16.6139 26.9488ZM15.6862 25.8062C15.7771 25.7787 16.1014 25.7121 16.4313 25.7643C16.6223 25.7944 16.7962 25.8582 16.9459 25.943C17.0581 26.0065 17.1572 26.0815 17.2399 26.1627L17.317 26.2457C17.4536 26.4036 17.5614 26.6188 17.5719 26.8219L17.5699 26.9078C17.5621 27.0019 17.5213 27.1372 17.4381 27.1725C17.4072 27.1853 17.3759 27.1784 17.3541 27.1568C17.2937 27.0967 17.3401 26.9731 17.193 26.7613C17.1481 26.6966 17.0879 26.6285 17.0094 26.565H17.0084C16.7469 26.3506 16.3766 26.2487 15.9459 26.3414C15.8316 26.3661 15.8952 26.3522 15.7828 26.3844C15.7651 26.3894 15.7489 26.3951 15.735 26.401C15.6995 26.4179 15.6659 26.4288 15.6344 26.4459C15.607 26.4612 15.3832 26.5636 15.2008 26.7906C15.1121 26.9025 15.0436 27.0269 14.9938 27.1549C14.9038 27.3916 14.8699 27.6517 14.8795 27.901C14.8943 28.2818 15.0047 28.4921 15.025 28.5435C15.11 28.7293 14.9108 28.7674 14.7291 28.568C14.5837 28.4114 14.4895 28.1723 14.444 27.9605C14.4171 27.8347 14.4 27.6935 14.4 27.5416C14.4 27.3654 14.4229 27.1746 14.4811 26.9771C14.6387 26.4581 14.9936 26.0657 15.5319 25.8521L15.6862 25.8062ZM26.484 23.899C26.819 23.8412 27.1417 23.9319 27.317 24.068C27.3922 24.1263 27.4229 24.1822 27.4059 24.2115C27.3815 24.2543 27.2779 24.2446 27.1227 24.234C26.8 24.2111 26.4607 24.2172 25.9821 24.4195C25.8393 24.4783 25.7466 24.5236 25.7086 24.4928C25.6703 24.4626 25.7081 24.3406 25.8414 24.2096C25.9577 24.0962 26.078 24.0326 26.2164 23.9732C26.2383 23.9639 26.2613 23.9547 26.2848 23.9488C26.3486 23.9314 26.4138 23.9099 26.484 23.899ZM29.2164 23.8297C29.3039 23.6673 29.5521 23.6346 29.7711 23.7564C29.9903 23.8785 30.0969 24.1096 30.0094 24.2721C29.9217 24.4342 29.6735 24.4671 29.4547 24.3453C29.2356 24.2232 29.1288 23.9922 29.2164 23.8297ZM30.9664 23.1812C31.1257 23.2066 31.227 23.4074 31.193 23.6295C31.1589 23.8516 31.0026 24.0111 30.8434 23.9859C30.6841 23.9606 30.5827 23.7598 30.6168 23.5377C30.6511 23.3159 30.8073 23.1563 30.9664 23.1812ZM24.903 23.1939C25.4172 22.7768 26.1236 22.6473 26.7272 22.8756C26.9914 22.9745 27.2887 23.172 27.444 23.4029C27.5026 23.4902 27.5183 23.556 27.4948 23.5836C27.4474 23.6399 27.2779 23.5644 27.028 23.4654C26.3886 23.2229 25.9175 23.1855 25.0836 23.5064C24.8727 23.5883 24.7227 23.6521 24.651 23.6412C24.5341 23.6235 24.6474 23.4051 24.903 23.1939ZM27.1813 14.4C27.751 14.5201 28.2968 14.7732 28.7076 15.0602C28.6518 14.9505 28.5141 14.7656 28.4186 14.6646C28.9629 14.8231 29.5737 15.218 29.8356 15.7838L29.861 15.8482C28.8293 15.0416 25.8179 15.2706 22.8033 17.2574C21.4231 18.1671 20.4107 19.1621 19.6305 20.1959C19.6305 20.1959 20.8349 17.8675 23.4811 16.3277C23.284 16.2955 22.8024 16.3577 22.7174 16.3678C23.1982 15.9474 24.0916 15.6672 24.7086 15.5396C24.5281 15.4228 24.098 15.3931 23.8844 15.3873C23.8213 15.3856 23.8213 15.3861 23.7467 15.3893C24.3271 15.0592 25.4041 14.8657 26.3824 15.0406C26.2596 14.8747 25.9802 14.7538 25.7848 14.6949C25.7679 14.6898 25.6923 14.6699 25.691 14.6695C25.6948 14.6686 25.7548 14.6549 25.7643 14.6529C26.3537 14.5375 27.0429 14.662 27.5875 14.8844C27.5257 14.7384 27.374 14.5681 27.2604 14.4605C27.2489 14.4497 27.1851 14.4028 27.1813 14.4Z" fill="#916D53"/>
<path d="M29.6002 22.2625C29.597 22.0425 29.6227 21.679 29.7758 21.6114C29.776 21.6113 29.7759 21.6113 29.7761 21.6112C30.0377 21.4885 30.3841 22.3951 30.4 23.2C30.1933 23.0599 29.9504 23.0005 29.7006 23.0298C29.6378 22.7707 29.6077 22.5265 29.6002 22.2625Z" fill="#5B453E"/>
</svg>
