<svg width="48" height="48" viewBox="0 0 48 48" fill="none" xmlns="http://www.w3.org/2000/svg">
<path d="M24 48C37.2548 48 48 37.2548 48 24C48 10.7452 37.2548 0 24 0C10.7452 0 0 10.7452 0 24C0 37.2548 10.7452 48 24 48Z" fill="#1FB6FF"/>
<path d="M21.818 19.0739C23.4675 19.0917 20.5636 27.6062 20.8753 31.3077C21.1897 35.0421 25.3451 33.9669 25.0814 31.8171C24.6326 28.1623 27.0809 16.7101 29.5639 16.7101C31.306 16.7101 27.6344 24.6051 28.3568 29.6606C28.8348 33.0055 33.1734 31.8451 32.7325 29.8619C31.274 23.2984 35.7927 16.9905 35.2864 12.5212C35.0649 10.5658 33.8822 9.60945 32.6993 9.6001C28.5575 9.56841 25.3581 18.0147 25.3581 18.0147C25.3581 18.0147 25.6913 13.2141 22.4723 13.0379C17.5437 12.7678 12.6647 25.0333 12.8029 35.9851C12.847 39.479 17.2199 38.884 16.99 36.0983C16.5624 30.9178 19.4669 19.0488 21.818 19.0739Z" fill="white"/>
</svg>
