<svg width="48" height="48" viewBox="0 0 48 48" fill="none" xmlns="http://www.w3.org/2000/svg">
<path d="M24 48C37.2548 48 48 37.2548 48 24C48 10.7452 37.2548 0 24 0C10.7452 0 0 10.7452 0 24C0 37.2548 10.7452 48 24 48Z" fill="white"/>
<path d="M38.379 24.1156C38.379 29.0386 34.3957 33.0294 29.4821 33.0294C24.5685 33.0294 20.5852 29.0386 20.5852 24.1156C20.5852 19.1927 24.5685 15.2019 29.4821 15.2019C34.3957 15.2019 38.379 19.1927 38.379 24.1156Z" fill="#F79F1A"/>
<path d="M27.4033 24.1156C27.4033 29.0386 23.42 33.0294 18.5064 33.0294C13.5928 33.0294 9.6095 29.0386 9.6095 24.1156C9.6095 19.1927 13.5928 15.2019 18.5064 15.2019C23.42 15.2019 27.4033 19.1927 27.4033 24.1156Z" fill="#EA001B"/>
<path d="M23.9942 17.0987C21.9183 18.7305 20.5858 21.2663 20.5858 24.1148C20.5858 26.9634 21.9183 29.5011 23.9942 31.1329C26.0701 29.5011 27.4026 26.9634 27.4026 24.1148C27.4026 21.2663 26.0701 18.7305 23.9942 17.0987Z" fill="#FF5F01"/>
</svg>
