<svg width="48" height="48" viewBox="0 0 48 48" fill="none" xmlns="http://www.w3.org/2000/svg">
<path d="M30.1396 23.2093L11.1628 19.8605V44.605C11.1628 45.7351 12.0789 46.6512 13.209 46.6512H45.9539C47.084 46.6512 48 45.7351 48 44.605V35.4884L30.1396 23.2093Z" fill="#185C37"/>
<path d="M30.1396 2H13.209C12.0789 2 11.1628 2.91608 11.1628 4.04613V13.1628L30.1396 24.3256L40.1861 27.6744L48 24.3256V13.1628L30.1396 2Z" fill="#21A366"/>
<path d="M11.1628 13.1628H30.1396V24.3256H11.1628V13.1628Z" fill="#107C41"/>
<path opacity="0.1" d="M24.7446 10.9302H11.1628V38.8372H24.7446C25.8731 38.8335 26.7871 37.9196 26.7907 36.7911V12.9764C26.7871 11.8478 25.8731 10.9339 24.7446 10.9302Z" fill="black"/>
<path opacity="0.2" d="M23.6283 12.0465H11.1628V39.9535H23.6283C24.7569 39.9498 25.6708 39.0359 25.6745 37.9074V14.0926C25.6708 12.9641 24.7569 12.0502 23.6283 12.0465Z" fill="black"/>
<path opacity="0.2" d="M23.6283 12.0465H11.1628V37.7209H23.6283C24.7569 37.7173 25.6708 36.8033 25.6745 35.6748V14.0926C25.6708 12.9641 24.7569 12.0502 23.6283 12.0465Z" fill="black"/>
<path opacity="0.2" d="M22.5121 12.0465H11.1628V37.7209H22.5121C23.6406 37.7173 24.5545 36.8033 24.5582 35.6748V14.0926C24.5545 12.9641 23.6406 12.0502 22.5121 12.0465Z" fill="black"/>
<path d="M2.04613 12.0465H22.512C23.642 12.0465 24.5581 12.9626 24.5581 14.0926V34.5585C24.5581 35.6885 23.642 36.6046 22.512 36.6046H2.04613C0.916083 36.6046 0 35.6886 0 34.5585V14.0926C0 12.9626 0.916083 12.0465 2.04613 12.0465Z" fill="url(#paint0_linear_210_1173)"/>
<path d="M6.33716 30.9764L10.6415 24.3066L6.69772 17.6737H9.87018L12.0224 21.9155C12.2211 22.3185 12.3572 22.6177 12.4309 22.8152H12.4588C12.6002 22.4938 12.7491 22.1816 12.9053 21.8787L15.206 17.6759H18.1184L14.0741 24.2698L18.2211 30.9764H15.1223L12.6363 26.3204C12.5192 26.1223 12.4199 25.9142 12.3394 25.6986H12.3026C12.2297 25.9098 12.1331 26.1121 12.0146 26.3014L9.45494 30.9764H6.33716Z" fill="white"/>
<path d="M45.9539 2H30.1395V13.1628H48V4.04613C48 2.91608 47.0839 2 45.9539 2Z" fill="#33C481"/>
<path d="M30.1395 24.3256H48V35.4884H30.1395V24.3256Z" fill="#107C41"/>
<defs>
<linearGradient id="paint0_linear_210_1173" x1="4.26624" y1="10.4477" x2="20.2919" y2="38.2035" gradientUnits="userSpaceOnUse">
<stop stop-color="#18884F"/>
<stop offset="0.5" stop-color="#117E43"/>
<stop offset="1" stop-color="#0B6631"/>
</linearGradient>
</defs>
</svg>
