<svg width="48" height="48" viewBox="0 0 48 48" fill="none" xmlns="http://www.w3.org/2000/svg">
<path fill-rule="evenodd" clip-rule="evenodd" d="M23.9606 47.4831C10.7256 47.4831 0.000518799 36.9206 0.000518799 23.8949C0.000518799 10.8692 10.7256 0.309219 23.9606 0.309219C37.193 0.309219 47.9206 10.8692 47.9206 23.8949C47.9206 36.9206 37.193 47.4831 23.9606 47.4831ZM2.21739 23.8952C2.21739 32.9495 7.9405 40.685 16.017 43.8C15.8271 42.1099 15.6577 39.5154 16.094 37.6661C16.4867 35.9987 18.6399 27.0429 18.6399 27.0429C18.6399 27.0429 17.9906 25.7621 17.9906 23.8699C17.9906 20.8964 19.7383 18.6783 21.9198 18.6783C23.7701 18.6783 24.6658 20.0476 24.6658 21.6897C24.6658 23.5238 23.4801 26.2648 22.8668 28.8063C22.3561 30.936 23.9524 32.6691 26.0825 32.6691C29.9424 32.6691 32.9092 28.6623 32.9092 22.8796C32.9092 17.7613 29.175 14.184 23.8394 14.184C17.6621 14.184 14.0357 18.7465 14.0357 23.4606C14.0357 25.2973 14.7518 27.2678 15.65 28.3389C15.8271 28.5512 15.8528 28.7356 15.8014 28.9528C15.6372 29.6274 15.2702 31.08 15.1983 31.3756C15.1034 31.7672 14.8827 31.8505 14.4695 31.6636C11.7593 30.4206 10.0655 26.5149 10.0655 23.3823C10.0655 16.6396 15.0418 10.4451 24.4118 10.4451C31.9442 10.4451 37.7982 15.7301 37.7982 22.7912C37.7982 30.1579 33.0785 36.0872 26.5316 36.0872C24.3296 36.0872 22.2611 34.9604 21.5528 33.6316C21.5528 33.6316 20.4646 37.7116 20.2003 38.712C19.7101 40.5688 18.3858 42.8956 17.503 44.3154C19.533 44.9368 21.6914 45.2703 23.9318 45.2703C35.9247 45.2703 45.6463 35.7006 45.6463 23.8952C45.6463 12.0872 35.9247 2.52 23.9318 2.52C11.939 2.52 2.21739 12.0872 2.21739 23.8952Z" fill="black"/>
</svg>
