<svg width="48" height="48" viewBox="0 0 48 48" fill="none" xmlns="http://www.w3.org/2000/svg">
<path d="M24 48C37.2548 48 48 37.2548 48 24C48 10.7452 37.2548 0 24 0C10.7452 0 0 10.7452 0 24C0 37.2548 10.7452 48 24 48Z" fill="#FF4500"/>
<path d="M40.0197 24C40.0197 22.0564 38.4589 20.4957 36.5154 20.4957C35.573 20.4957 34.7191 20.8785 34.1007 21.4675C31.7154 19.73 28.4172 18.611 24.7362 18.4932L26.3264 10.984L31.5387 12.1031C31.5976 13.4282 32.6872 14.4883 34.0418 14.4883C35.4258 14.4883 36.5448 13.3693 36.5448 11.9853C36.5448 10.6012 35.4258 9.48219 34.0418 9.48219C33.07 9.48219 32.216 10.0417 31.8037 10.8662L25.973 9.62943C25.8258 9.59998 25.6491 9.62943 25.5019 9.71777C25.3546 9.80612 25.2663 9.95336 25.2369 10.1006L23.47 18.4638C19.7301 18.5816 16.4025 19.6711 13.9583 21.438C13.3399 20.8491 12.4859 20.4662 11.5436 20.4662C9.60004 20.4662 8.03931 22.027 8.03931 23.9705C8.03931 25.384 8.89329 26.6208 10.1007 27.1509C10.0418 27.5043 10.0123 27.8577 10.0123 28.211C10.0123 33.6 16.2847 37.9583 24.0295 37.9583C31.7743 37.9583 38.0467 33.6 38.0467 28.211C38.0467 27.8577 38.0172 27.5043 37.9583 27.1509C39.1657 26.6503 40.0197 25.4429 40.0197 24ZM16.0197 26.5031C16.0197 25.119 17.1387 24 18.5227 24C19.9068 24 21.0258 25.119 21.0258 26.5031C21.0258 27.8871 19.9068 29.0061 18.5227 29.0061C17.1387 29.0061 16.0197 27.8871 16.0197 26.5031ZM29.9485 33.0994C28.2405 34.8073 24.9718 34.9251 24 34.9251C23.0283 34.9251 19.7596 34.8073 18.0516 33.0994C17.7865 32.8343 17.7865 32.4221 18.0516 32.1865C18.3166 31.9215 18.7289 31.9215 18.9645 32.1865C20.054 33.2761 22.351 33.6294 23.9706 33.6294C25.5902 33.6294 27.9166 33.2466 29.0062 32.157C29.2712 31.892 29.6835 31.892 29.9191 32.157C30.2135 32.4515 30.2135 32.8638 29.9485 33.0994ZM29.5068 29.0061C28.1227 29.0061 27.0037 27.8871 27.0037 26.5031C27.0037 25.119 28.1227 24 29.5068 24C30.8908 24 32.0099 25.119 32.0099 26.5031C32.0099 27.8871 30.8908 29.0061 29.5068 29.0061Z" fill="white"/>
</svg>
