<svg width="48" height="48" viewBox="0 0 48 48" fill="none" xmlns="http://www.w3.org/2000/svg">
<path d="M8 0C3.58172 0 0 3.58172 0 8V40C0 44.4183 3.58172 48 8 48H40C44.4183 48 48 44.4183 48 40V8C48 3.58172 44.4183 0 40 0H8Z" fill="#3A76F0"/>
<path d="M20.0391 7.98282L20.4094 9.48282C18.9499 9.84353 17.553 10.4219 16.2657 11.1984L15.4735 9.87188C16.8905 9.01376 18.4301 8.37675 20.0391 7.98282ZM27.961 7.98282L27.5907 9.48282C29.0502 9.84353 30.4471 10.4219 31.7344 11.1984L32.536 9.87188C31.1153 9.01452 29.5727 8.37759 27.961 7.98282ZM9.87192 15.4688C9.0146 16.8878 8.37766 18.4288 7.98286 20.0391L9.48286 20.4094C9.84357 18.9499 10.4219 17.553 11.1985 16.2656L9.87192 15.4688ZM9.04692 24C9.04681 23.25 9.10322 22.501 9.21567 21.7594L7.68755 21.525C7.43911 23.1641 7.43911 24.8312 7.68755 26.4703L9.21567 26.2406C9.10339 25.499 9.04699 24.7501 9.04692 24ZM32.5266 38.1234L31.7344 36.8016C30.4491 37.5788 29.0536 38.1573 27.5954 38.5172L27.9657 40.0172C29.5728 39.6195 31.1105 38.981 32.5266 38.1234ZM38.9532 24C38.9531 24.7501 38.8967 25.499 38.7844 26.2406L40.3125 26.4703C40.561 24.8312 40.561 23.1641 40.3125 21.525L38.7844 21.7594C38.8969 22.501 38.9533 23.25 38.9532 24ZM40.0172 27.9563L38.5172 27.5859C38.1574 29.0472 37.579 30.4458 36.8016 31.7344L38.1282 32.5313C38.9863 31.1109 39.6233 29.5683 40.0172 27.9563ZM26.2407 38.7844C24.7554 39.0094 23.2447 39.0094 21.7594 38.7844L21.5297 40.3125C23.1672 40.561 24.8329 40.561 26.4704 40.3125L26.2407 38.7844ZM36.0375 32.8688C35.1466 34.0769 34.0783 35.1437 32.8688 36.0328L33.7875 37.2797C35.1198 36.299 36.2983 35.1251 37.2844 33.7969L36.0375 32.8688ZM32.8688 11.9625C34.0784 12.8534 35.1467 13.9216 36.0375 15.1313L37.2844 14.2031C36.3018 12.8737 35.1264 11.6982 33.7969 10.7156L32.8688 11.9625ZM11.9625 15.1313C12.8534 13.9216 13.9217 12.8534 15.1313 11.9625L14.2032 10.7156C12.8737 11.6982 11.6983 12.8737 10.7157 14.2031L11.9625 15.1313ZM38.1282 15.4688L36.8016 16.2656C37.5789 17.5509 38.1573 18.9464 38.5172 20.4047L40.0172 20.0344C39.6224 18.4256 38.9854 16.8862 38.1282 15.4688ZM21.7594 9.21563C23.2447 8.9906 24.7554 8.9906 26.2407 9.21563L26.4704 7.68751C24.8329 7.43904 23.1672 7.43904 21.5297 7.68751L21.7594 9.21563ZM12.7547 37.6922L9.56255 38.4328L10.3079 35.2406L8.80317 34.8891L8.05786 38.0813C8.01123 38.2792 8.00407 38.4843 8.0368 38.685C8.06953 38.8857 8.1415 39.078 8.2486 39.2508C8.3557 39.4236 8.49583 39.5737 8.66096 39.6923C8.8261 39.8109 9.013 39.8959 9.21098 39.9422C9.44252 39.9938 9.68257 39.9938 9.91411 39.9422L13.1063 39.2063L12.7547 37.6922ZM9.12192 33.5109L10.6313 33.8578L11.1469 31.6453C10.3939 30.3822 9.83311 29.0141 9.48286 27.5859L7.98286 27.9563C8.32026 29.3233 8.83062 30.6418 9.50161 31.8797L9.12192 33.5109ZM16.3407 36.8578L14.1282 37.3734L14.4797 38.8828L16.1063 38.5031C17.3433 39.1761 18.662 39.6866 20.0297 40.0219L20.4 38.5219C18.9763 38.167 17.6131 37.6031 16.3547 36.8484L16.3407 36.8578ZM24 10.5938C16.5938 10.5984 10.5985 16.6031 10.5985 24.0047C10.6026 26.5257 11.3157 28.9947 12.6563 31.1297L11.3672 36.6328L16.8657 35.3438C23.1329 39.2859 31.411 37.4063 35.3532 31.1438C39.2954 24.8813 37.4204 16.6031 31.1579 12.6563C29.0139 11.308 26.5327 10.5931 24 10.5938Z" fill="white"/>
</svg>
