<svg width="48" height="48" viewBox="0 0 48 48" fill="none" xmlns="http://www.w3.org/2000/svg">
<path d="M0 24C0 10.7452 10.7452 0 24 0C37.2548 0 48 10.7452 48 24C48 37.2548 37.2548 48 24 48C10.7452 48 0 37.2548 0 24Z" fill="white"/>
<path d="M24.8842 27.5701C26.1055 30.9275 29.7855 32.6452 33.0954 31.4092C36.4031 30.1645 38.1002 26.4336 36.8746 23.0751C35.6522 19.7122 31.9775 17.9967 28.6634 19.237C25.3514 20.4796 23.6607 24.2094 24.8842 27.5701Z" fill="white"/>
<path d="M16.7114 31.7826C20.2413 31.7826 23.1029 28.8789 23.1029 25.2971C23.1029 21.7153 20.2413 18.8117 16.7114 18.8117C13.1815 18.8117 10.3199 21.7153 10.3199 25.2971C10.3199 28.8789 13.1815 31.7826 16.7114 31.7826Z" fill="white"/>
<path d="M17.8005 25.2289C17.8005 25.8902 17.2715 26.4314 16.6197 26.4314C15.9659 26.4314 15.4379 25.8902 15.4379 25.2289C15.4379 24.5687 15.9659 24.034 16.6197 24.034C17.2715 24.0329 17.8005 24.5687 17.8005 25.2289Z" fill="#BE3538"/>
<path d="M32.0447 25.2289C32.0447 25.8902 31.5178 26.4314 30.8661 26.4314C30.2101 26.4314 29.6842 25.8902 29.6842 25.2289C29.6842 24.5687 30.2101 24.034 30.8661 24.034C31.5178 24.0329 32.0447 24.5687 32.0447 25.2289Z" fill="#589442"/>
<path fill-rule="evenodd" clip-rule="evenodd" d="M16.6219 28.792C14.6848 28.792 13.1083 27.1956 13.1083 25.2289C13.1083 23.2666 14.6848 21.6712 16.6219 21.6702C18.5536 21.6702 20.1301 23.2677 20.1301 25.2289C20.1301 27.1956 18.5547 28.792 16.6219 28.792ZM16.624 22.8965C15.3547 22.8965 14.3189 23.9431 14.3189 25.2289C14.3189 26.5202 15.3547 27.5679 16.624 27.5668C17.8912 27.5668 18.9216 26.5191 18.9216 25.2289C18.9216 23.9442 17.8912 22.8965 16.624 22.8965Z" fill="black"/>
<path fill-rule="evenodd" clip-rule="evenodd" d="M30.865 28.792C28.9279 28.792 27.3535 27.1956 27.3535 25.2289C27.3535 23.2666 28.929 21.6712 30.865 21.6702C32.7988 21.6702 34.3722 23.2677 34.3722 25.2289C34.3722 27.1956 32.7988 28.792 30.865 28.792ZM30.8671 22.8965C29.5967 22.8965 28.5642 23.9431 28.5642 25.2289C28.5642 26.5202 29.5956 27.5679 30.8671 27.5668C32.1343 27.5668 33.1636 26.5191 33.1636 25.2289C33.1636 23.9442 32.1343 22.8965 30.8671 22.8965Z" fill="black"/>
<path d="M28.417 18.5541C29.1573 18.277 29.9146 18.1428 30.6623 18.1222C28.625 17.1957 26.3189 16.7271 23.7642 16.7271C21.2287 16.7271 18.8895 17.2076 16.8533 18.0897C20.5386 18.1644 23.5349 21.0933 23.793 24.7841C23.8559 23.9366 24.0597 23.0989 24.4202 22.3055C25.2149 20.5521 26.6357 19.2208 28.417 18.5541Z" fill="#FFD881"/>
<path fill-rule="evenodd" clip-rule="evenodd" d="M33.2394 18.1363L37.985 18.1395C37.985 18.1395 36.9269 19.5888 36.5941 21.0359C36.9845 21.5717 37.3109 22.167 37.5498 22.8239C38.9098 26.5505 37.0218 30.71 33.344 32.0911C31.5637 32.7578 29.6298 32.6799 27.904 31.8746C26.8661 31.3854 25.9808 30.6678 25.2949 29.7824L23.7696 32.103L22.256 29.803C20.9525 31.4492 18.9546 32.5088 16.7136 32.5088C12.7936 32.5088 9.60424 29.2737 9.60424 25.2971C9.60424 23.705 10.1184 22.2373 10.9834 21.0446C10.6453 19.6072 9.59998 18.1742 9.59998 18.1742L14.048 18.1709C16.6944 16.4153 20.0501 15.4683 23.7664 15.4683C27.3472 15.4683 30.5781 16.3926 33.2394 18.1363ZM30.6634 18.1222C28.6261 17.1957 26.32 16.7271 23.7653 16.7271C21.2288 16.7271 18.8896 17.2065 16.8544 18.0887C20.5397 18.1644 23.536 21.0933 23.7962 24.783C23.8592 23.9355 24.0629 23.0978 24.4234 22.3044C25.216 20.5521 26.6368 19.2208 28.4181 18.5541C29.1584 18.2781 29.9146 18.1428 30.6634 18.1222ZM21.4101 28.5204C20.3893 30.0476 18.6634 31.0542 16.7114 31.0542C13.5818 31.0542 11.0357 28.4684 11.0357 25.2982C11.0357 22.1215 13.5829 19.5401 16.7114 19.5401C19.84 19.5401 22.3861 22.1215 22.3861 25.2982C22.3861 25.4289 22.3691 25.5547 22.3522 25.6801C22.344 25.7407 22.3358 25.8012 22.3296 25.8621C22.2346 26.8362 21.9264 27.7487 21.4101 28.5204ZM28.5045 30.553C29.8816 31.1981 31.424 31.2576 32.8458 30.7262C35.7813 29.6222 37.2885 26.307 36.2048 23.3294C35.12 20.3508 31.8517 18.8225 28.9152 19.9211C27.4933 20.4536 26.3605 21.5175 25.7248 22.9149C25.3002 23.85 25.1573 24.862 25.2522 25.861C25.2992 26.3535 25.3856 26.8427 25.5584 27.3168C25.7098 27.7357 25.9168 28.1199 26.1514 28.4814C26.7274 29.3743 27.5274 30.0941 28.5045 30.553Z" fill="black"/>
</svg>
