<svg width="48" height="48" viewBox="0 0 48 48" fill="none" xmlns="http://www.w3.org/2000/svg">
<path fill-rule="evenodd" clip-rule="evenodd" d="M24 0.031189C10.7967 0.031189 0.0449982 10.7345 0.0449982 23.9378C0.0449982 37.1411 10.7967 47.8444 24 47.8444C37.2033 47.8444 47.955 37.1411 47.955 23.9378C47.955 10.7345 37.2033 0.031189 24 0.031189ZM29.0998 32.4368C29.8937 32.417 30.9583 32.1869 31.515 31.9224L32.9548 36.1744C32.4152 36.9665 29.9713 37.884 27.7708 37.9215C21.249 38.0334 18.7785 33.2937 18.7785 29.9574V20.2142H15.7485V16.3622C20.2905 14.7306 21.3825 10.65 21.639 8.3251C21.6568 8.16541 21.7828 8.10247 21.855 8.10247H26.2393V15.699H32.2307V20.2143H26.2185V29.4978C26.2378 30.7598 26.703 32.5007 29.0998 32.4368Z" fill="black"/>
</svg>
