<svg width="24" height="24" viewBox="0 0 24 24" fill="none" xmlns="http://www.w3.org/2000/svg">
<g clip-path="url(#clip0_211_94515)">
<path d="M3.00028 17.9995C2.99382 18.3805 3.10029 18.7549 3.30628 19.0755C3.47748 19.3447 3.71058 19.569 3.98614 19.7298C4.26169 19.8905 4.5717 19.983 4.89028 19.9995C5.53628 20.0325 4.35328 19.9995 5.00028 19.9995H8.00028C8.00006 18.9079 7.64201 17.8464 6.98097 16.9777C6.31993 16.1089 5.39234 15.4808 4.34028 15.1895C4.89828 14.2165 5.58028 13.0405 6.38028 11.6585C8.04093 12.3315 9.46291 13.4847 10.4641 14.9707C11.4654 16.4567 12.0002 18.2077 12.0003 19.9995H16.0003M16.0003 19.9995C16.6633 19.9995 18.3373 19.9995 19.0003 19.9995C19.3266 19.9972 19.6474 19.9151 19.9347 19.7604C20.222 19.6057 20.467 19.383 20.6485 19.1118C20.8299 18.8406 20.9423 18.5291 20.9757 18.2045C21.0092 17.8799 20.9627 17.552 20.8403 17.2495L13.7403 4.99953C13.5673 4.68693 13.3138 4.42636 13.006 4.24491C12.6983 4.06347 12.3475 3.96777 11.9903 3.96777C11.633 3.96777 11.2823 4.06347 10.9745 4.24491C10.6668 4.42636 10.4132 4.68693 10.2403 4.99953L8.40028 8.17553C12.8823 10.2255 16.0003 14.7465 16.0003 19.9995Z" stroke="black" stroke-width="1.5" stroke-linecap="round" stroke-linejoin="round"/>
</g>
<defs>
<clipPath id="clip0_211_94515">
<rect width="24" height="24" fill="white"/>
</clipPath>
</defs>
</svg>
