<svg width="24" height="24" viewBox="0 0 24 24" fill="none" xmlns="http://www.w3.org/2000/svg">
<g clip-path="url(#clip0_211_94649)">
<path d="M14.2784 15.9996L17.5304 12.7476C17.8231 12.4438 17.9849 12.0372 17.9809 11.6154C17.9769 11.1935 17.8075 10.7901 17.5092 10.4918C17.2108 10.1936 16.8073 10.0244 16.3854 10.0206C15.9635 10.0168 15.5571 10.1787 15.2534 10.4716L12.0014 13.7226L8.74937 10.4716C8.44479 10.1835 8.03985 10.0256 7.62066 10.0315C7.20147 10.0373 6.80109 10.2064 6.50465 10.5029C6.20821 10.7993 6.03909 11.1997 6.03325 11.6189C6.02741 12.0381 6.18531 12.443 6.47337 12.7476L9.72437 15.9996L6.47337 19.2516C6.31933 19.4 6.19641 19.5777 6.11179 19.7741C6.02717 19.9706 5.98255 20.182 5.98054 20.3959C5.97853 20.6098 6.01917 20.8219 6.10008 21.02C6.18099 21.218 6.30055 21.3979 6.45178 21.5492C6.603 21.7005 6.78287 21.8201 6.98086 21.9011C7.17884 21.9821 7.39099 22.0229 7.6049 22.0209C7.8188 22.019 8.03018 21.9745 8.22669 21.89C8.42319 21.8054 8.60088 21.6826 8.74937 21.5286L12.0014 18.2766L15.2534 21.5286C15.4029 21.6781 15.5804 21.7967 15.7757 21.8776C15.9711 21.9585 16.1804 22.0002 16.3919 22.0002C16.6033 22.0002 16.8127 21.9585 17.008 21.8776C17.2034 21.7967 17.3809 21.6781 17.5304 21.5286C17.6799 21.3791 17.7985 21.2016 17.8794 21.0063C17.9603 20.8109 18.002 20.6015 18.002 20.3901C18.002 20.1787 17.9603 19.9693 17.8794 19.7739C17.7985 19.5786 17.6799 19.4011 17.5304 19.2516L14.2784 15.9996Z" stroke="black" stroke-width="1.5" stroke-linecap="round" stroke-linejoin="round"/>
<path d="M9 5C9 5.79565 9.31607 6.55871 9.87868 7.12132C10.4413 7.68393 11.2044 8 12 8C12.7956 8 13.5587 7.68393 14.1213 7.12132C14.6839 6.55871 15 5.79565 15 5C15 4.20435 14.6839 3.44129 14.1213 2.87868C13.5587 2.31607 12.7956 2 12 2C11.2044 2 10.4413 2.31607 9.87868 2.87868C9.31607 3.44129 9 4.20435 9 5Z" stroke="black" stroke-width="1.5" stroke-linecap="round" stroke-linejoin="round"/>
</g>
<defs>
<clipPath id="clip0_211_94649">
<rect width="24" height="24" fill="white"/>
</clipPath>
</defs>
</svg>
