<svg width="24" height="24" viewBox="0 0 24 24" fill="none" xmlns="http://www.w3.org/2000/svg">
<g clip-path="url(#clip0_211_94672)">
<path d="M14.9993 8L9.99932 11L10.8203 10.505C12.6803 9.355 15.2323 10.015 16.3943 11.857C16.6706 12.2949 16.8571 12.7833 16.9431 13.2939C17.029 13.8044 17.0128 14.327 16.8952 14.8312C16.7776 15.3354 16.561 15.8113 16.2581 16.2311C15.9551 16.651 15.5718 17.0065 15.1303 17.277L10.0773 20.403C8.21732 21.554 5.76532 20.994 4.60332 19.152C4.32703 18.7142 4.14045 18.2258 4.05439 17.7153C3.96834 17.2048 3.98453 16.6822 4.10202 16.178C4.21952 15.6738 4.43598 15.198 4.73884 14.7781C5.04171 14.3582 5.42494 14.0026 5.86632 13.732L6.12632 13.572" stroke="black" stroke-width="1.5" stroke-linecap="round" stroke-linejoin="round"/>
<path d="M7.99904 17.0004L12.999 14.0004L12.177 14.4964C10.317 15.6474 7.76604 14.9874 6.60304 13.1454C6.3268 12.7075 6.14027 12.2191 6.05429 11.7086C5.96831 11.198 5.98459 10.6754 6.10218 10.1712C6.21977 9.667 6.43633 9.19116 6.73929 8.7713C7.04225 8.35144 7.42558 7.99594 7.86704 7.72542L12.921 4.59842C14.781 3.44842 17.232 4.00842 18.395 5.85042C18.6713 6.28831 18.8578 6.77671 18.9438 7.28728C19.0298 7.79784 19.0135 8.32039 18.8959 8.82461C18.7783 9.32883 18.5618 9.80468 18.2588 10.2245C17.9558 10.6444 17.5725 10.9999 17.131 11.2704L16.871 11.4304" stroke="black" stroke-width="1.5" stroke-linecap="round" stroke-linejoin="round"/>
</g>
<defs>
<clipPath id="clip0_211_94672">
<rect width="24" height="24" fill="white"/>
</clipPath>
</defs>
</svg>
