<svg width="24" height="24" viewBox="0 0 24 24" fill="none" xmlns="http://www.w3.org/2000/svg">
<g clip-path="url(#clip0_211_93571)">
<path d="M4.02948 7.82039C3.21818 9.36748 2.87465 11.1172 3.04081 12.8562C3.20696 14.5952 3.87562 16.2483 4.96521 17.6137C6.0548 18.9792 7.51822 19.998 9.17697 20.546C10.8357 21.0939 12.6181 21.1473 14.3066 20.6996C15.9952 20.2519 17.517 19.3224 18.6863 18.0246C19.8556 16.7268 20.622 15.1167 20.8919 13.3908C21.1618 11.6648 20.9236 9.89766 20.2064 8.3048C19.4891 6.71195 18.3237 5.36226 16.8525 4.42039C15.2165 3.40039 13.7885 3.40039 12.0015 3.40039H10.3545" stroke="black" stroke-width="1.5" stroke-linecap="round" stroke-linejoin="round"/>
<path d="M4.91355 9.48503C3.15755 7.91603 4.10855 4.10503 5.02255 3.31503C5.10855 4.21103 5.60755 4.52303 6.13355 5.00003C7.01355 4.72503 7.44655 4.71803 8.00055 5.00003C8.82055 4.09003 9.69455 2.64603 10.6285 2.90703C9.54655 4.64803 10.5585 6.64003 11.9995 7.08003C11.8295 8.05503 10.5155 8.99303 9.23955 9.76603C7.94355 10.704 8.51755 11.616 9.23955 12C10.1885 12.506 12.8505 11 13.7845 12.354C12.0865 12.456 12.2485 15.461 9.80155 15.081C12.3245 16.038 14.1466 15.543 15.2596 14.741C17.2246 13.221 18.1385 11.199 18.1385 9.18403C18.1245 7.78603 18.3325 6.48903 16.8785 4.43403" stroke="black" stroke-width="1.5" stroke-linecap="round" stroke-linejoin="round"/>
</g>
<defs>
<clipPath id="clip0_211_93571">
<rect width="24" height="24" fill="white"/>
</clipPath>
</defs>
</svg>
