<svg width="24" height="24" viewBox="0 0 24 24" fill="none" xmlns="http://www.w3.org/2000/svg">
<g clip-path="url(#clip0_211_94455)">
<path d="M6.306 8.71094C3.704 9.43394 2 10.6369 2 11.9999C2 14.2099 6.477 15.9999 12 15.9999C12.773 15.9999 13.526 15.9649 14.248 15.8979" stroke="black" stroke-width="1.5" stroke-linecap="round" stroke-linejoin="round"/>
<path d="M17.692 15.289C20.295 14.567 22 13.363 22 12C22 9.79 17.523 8 12 8C11.227 8 10.474 8.035 9.75 8.102" stroke="black" stroke-width="1.5" stroke-linecap="round" stroke-linejoin="round"/>
<path d="M6.30633 15.287C5.63033 17.902 5.82133 19.98 7.00133 20.66C8.91433 21.765 12.7043 18.783 15.4653 14C15.8523 13.33 16.1983 12.661 16.5013 12" stroke="black" stroke-width="1.5" stroke-linecap="round" stroke-linejoin="round"/>
<path d="M17.695 8.71641C18.372 6.10041 18.182 4.02041 17.001 3.34041C15.088 2.23541 11.298 5.21741 8.537 10.0004C8.15 10.6704 7.804 11.3404 7.5 12.0004" stroke="black" stroke-width="1.5" stroke-linecap="round" stroke-linejoin="round"/>
<path d="M12.0013 5.42358C10.0763 3.53158 8.18133 2.65758 7.00133 3.33958C5.08833 4.44358 5.77533 9.21658 8.53733 13.9996C8.92333 14.6696 9.33033 15.3036 9.74933 15.8956" stroke="black" stroke-width="1.5" stroke-linecap="round" stroke-linejoin="round"/>
<path d="M12 18.5735C13.926 20.4665 15.821 21.3415 17 20.6595C18.913 19.5555 18.226 14.7825 15.464 9.99954C15.089 9.34954 14.684 8.71654 14.252 8.10254" stroke="black" stroke-width="1.5" stroke-linecap="round" stroke-linejoin="round"/>
<path d="M11.4982 12.8656C11.6119 12.9323 11.7378 12.9758 11.8684 12.9937C11.9991 13.0116 12.132 13.0034 12.2595 12.9697C12.387 12.936 12.5066 12.8774 12.6113 12.7973C12.7161 12.7172 12.804 12.6172 12.8699 12.5029C12.9359 12.3887 12.9786 12.2626 12.9956 12.1318C13.0126 12.001 13.0035 11.8682 12.969 11.7409C12.9344 11.6137 12.875 11.4945 12.7942 11.3902C12.7134 11.286 12.6128 11.1988 12.4982 11.1336C12.2686 11.0031 11.9967 10.9687 11.7419 11.0379C11.4871 11.1071 11.2699 11.2742 11.1379 11.5029C11.0059 11.7316 10.9696 12.0032 11.0371 12.2585C11.1046 12.5138 11.2704 12.7321 11.4982 12.8656Z" stroke="black" stroke-width="1.5" stroke-linecap="round" stroke-linejoin="round"/>
</g>
<defs>
<clipPath id="clip0_211_94455">
<rect width="24" height="24" fill="white"/>
</clipPath>
</defs>
</svg>
