<svg width="24" height="24" viewBox="0 0 24 24" fill="none" xmlns="http://www.w3.org/2000/svg">
<g clip-path="url(#clip0_211_93299)">
<path d="M14 14C14 14.5304 14.3161 15.0391 14.8787 15.4142C15.4413 15.7893 16.2044 16 17 16C17.7956 16 18.5587 15.7893 19.1213 15.4142C19.6839 15.0391 20 14.5304 20 14C20 13.4696 19.6839 12.9609 19.1213 12.5858C18.5587 12.2107 17.7956 12 17 12C16.2044 12 15.4413 12.2107 14.8787 12.5858C14.3161 12.9609 14 13.4696 14 14Z" stroke="black" stroke-width="1.5" stroke-linecap="round" stroke-linejoin="round"/>
<path d="M4.52597 17.6661C3.39297 16.8941 2.62897 15.7421 2.23497 14.2101C1.83697 12.6701 1.94497 11.2731 2.55497 10.0201C3.16497 8.7651 4.14497 7.6801 5.49297 6.7661C6.84097 5.8521 8.42297 5.1411 10.242 4.6341C12.052 4.1301 13.758 3.9261 15.362 4.0241C16.97 4.1241 18.341 4.5611 19.474 5.3341C20.607 6.1071 21.371 7.2581 21.765 8.7901C22.163 10.3311 22.055 11.7281 21.445 12.9821C20.835 14.2351 19.855 15.3191 18.507 16.2341C17.159 17.1491 15.577 17.8601 13.758 18.3671C11.948 18.8701 10.242 19.0741 8.63797 18.9771C7.02997 18.8751 5.65897 18.4381 4.52597 17.6661Z" stroke="black" stroke-width="1.5" stroke-linecap="round" stroke-linejoin="round"/>
<path d="M11 12.508C10.47 12.192 9.77 12 9 12C7.343 12 6 12.895 6 14C6 15.105 7.343 16 9 16C9.767 16 10.467 15.808 11 15.492" stroke="black" stroke-width="1.5" stroke-linecap="round" stroke-linejoin="round"/>
</g>
<defs>
<clipPath id="clip0_211_93299">
<rect width="24" height="24" fill="white"/>
</clipPath>
</defs>
</svg>
