<svg width="24" height="24" viewBox="0 0 24 24" fill="none" xmlns="http://www.w3.org/2000/svg">
<g clip-path="url(#clip0_211_94495)">
<path d="M10.1385 3.46348C10.6115 1.51348 13.3875 1.51348 13.8605 3.46348C13.9315 3.7566 14.0708 4.02881 14.2668 4.25796C14.4629 4.48712 14.7104 4.66675 14.989 4.78223C15.2676 4.89771 15.5695 4.94579 15.8703 4.92255C16.171 4.8993 16.4619 4.8054 16.7195 4.64848C18.4335 3.60348 20.3975 5.56648 19.3525 7.28148C19.1958 7.53894 19.102 7.82976 19.0788 8.13028C19.0556 8.4308 19.1037 8.73256 19.219 9.01102C19.3344 9.28949 19.5138 9.53681 19.7427 9.73289C19.9717 9.92897 20.2436 10.0683 20.5365 10.1395C22.4865 10.6125 22.4865 13.3885 20.5365 13.8615C20.2434 13.9325 19.9712 14.0717 19.742 14.2678C19.5129 14.4639 19.3332 14.7113 19.2177 14.99C19.1023 15.2686 19.0542 15.5705 19.0774 15.8712C19.1007 16.1719 19.1946 16.4629 19.3515 16.7205C20.3965 18.4345 18.4335 20.3985 16.7185 19.3535C16.461 19.1968 16.1702 19.103 15.8697 19.0798C15.5692 19.0566 15.2674 19.1046 14.989 19.22C14.7105 19.3354 14.4632 19.5148 14.2671 19.7437C14.071 19.9726 13.9317 20.2446 13.8605 20.5375C13.3875 22.4875 10.6115 22.4875 10.1385 20.5375C10.0675 20.2444 9.92824 19.9721 9.73215 19.743C9.53606 19.5138 9.28864 19.3342 9.01002 19.2187C8.7314 19.1032 8.42945 19.0552 8.12874 19.0784C7.82804 19.1016 7.53706 19.1956 7.2795 19.3525C5.5655 20.3975 3.6015 18.4345 4.6465 16.7195C4.80322 16.462 4.89699 16.1712 4.92018 15.8707C4.94338 15.5702 4.89534 15.2684 4.77998 14.9899C4.66462 14.7115 4.48518 14.4641 4.25626 14.2681C4.02734 14.072 3.75539 13.9327 3.4625 13.8615C1.5125 13.3885 1.5125 10.6125 3.4625 10.1395C3.75562 10.0684 4.02783 9.92922 4.25699 9.73313C4.48614 9.53703 4.66577 9.28961 4.78125 9.01099C4.89673 8.73237 4.94481 8.43043 4.92157 8.12972C4.89833 7.82901 4.80442 7.53804 4.6475 7.28048C3.6025 5.56648 5.5655 3.60248 7.2805 4.64748C7.53787 4.80464 7.82874 4.89878 8.12939 4.92219C8.43004 4.94561 8.73198 4.89766 9.01058 4.78224C9.28918 4.66682 9.53657 4.48721 9.73258 4.25803C9.92859 4.02886 10.0677 3.75661 10.1385 3.46348Z" stroke="black" stroke-width="1.5" stroke-linecap="round" stroke-linejoin="round"/>
<path d="M8 12H14C14.5304 12 15.0391 11.7893 15.4142 11.4142C15.7893 11.0391 16 10.5304 16 10C16 9.46957 15.7893 8.96086 15.4142 8.58579C15.0391 8.21071 14.5304 8 14 8H8V16V12Z" stroke="black" stroke-width="1.5" stroke-linecap="round" stroke-linejoin="round"/>
<path d="M19 16H17C16.4696 16 15.9609 15.7893 15.5858 15.4142C15.2107 15.0391 15 14.5304 15 14C15 13.4696 14.7893 12.9609 14.4142 12.5858C14.0391 12.2107 13.5304 12 13 12H12" stroke="black" stroke-width="1.5" stroke-linecap="round" stroke-linejoin="round"/>
<path d="M9 8H5" stroke="black" stroke-width="1.5" stroke-linecap="round" stroke-linejoin="round"/>
<path d="M5 16H9" stroke="black" stroke-width="1.5" stroke-linecap="round" stroke-linejoin="round"/>
</g>
<defs>
<clipPath id="clip0_211_94495">
<rect width="24" height="24" fill="white"/>
</clipPath>
</defs>
</svg>
