<svg width="24" height="24" viewBox="0 0 24 24" fill="none" xmlns="http://www.w3.org/2000/svg">
<g clip-path="url(#clip0_211_94491)">
<path d="M10.908 6C10.817 6.363 10 11 10 11H11.228C12.818 11 14 9.832 14 8.057C14 6.808 13.182 6 11.913 6H10.913H10.908Z" stroke="black" stroke-width="1.5" stroke-linecap="round" stroke-linejoin="round"/>
<path d="M15.5 13.4999L17.291 18.0579C17.826 19.4099 18.421 20.0659 19 20.4999C18 20.9999 16.384 21.0219 15.395 20.9969C14.422 20.9969 13.115 20.7569 12.289 18.3969L11 14.9999H9.5C9.5 14.9999 9.035 17.2429 8.85 18.2019C8.758 18.9059 8.909 19.7959 9 20.4999C8 20.9999 6.5 20.9999 5.5 20.9999C4.773 20.9999 4.05 20.7519 4 19.4999V19.1889C4.00188 18.7154 4.05181 18.2433 4.149 17.7799C4.899 14.2029 5.515 10.6099 5.996 6.9999C6.226 5.2779 5.996 3.4999 5.996 3.4999C6.581 3.3559 8.705 2.8979 12.783 3.0289C14.0305 3.0462 15.2643 3.29087 16.424 3.7509C16.732 3.8989 17.025 4.0769 17.299 4.2819C17.553 4.4939 17.796 4.7189 18.026 4.9559C18.326 5.3379 18.571 5.7599 18.753 6.2089C18.908 6.6919 18.99 7.1959 18.996 7.7019C18.996 10.1639 17.584 12.3779 15.496 13.4999H15.5Z" stroke="black" stroke-width="1.5" stroke-linecap="round" stroke-linejoin="round"/>
</g>
<defs>
<clipPath id="clip0_211_94491">
<rect width="24" height="24" fill="white"/>
</clipPath>
</defs>
</svg>
