<svg width="24" height="24" viewBox="0 0 24 24" fill="none" xmlns="http://www.w3.org/2000/svg">
<g clip-path="url(#clip0_211_94048)">
<path d="M6.74333 4.3253L14.5633 3.05831C15.7299 2.86938 16.9237 3.15159 17.8822 3.84284C18.8407 4.53409 19.4853 5.57777 19.6743 6.74431L20.9413 14.5643C21.1302 15.7309 20.848 16.9247 20.1568 17.8832C19.4655 18.8416 18.4219 19.4863 17.2553 19.6753L9.43533 20.9423C8.26878 21.1312 7.07496 20.849 6.11647 20.1578C5.15799 19.4665 4.51334 18.4228 4.32433 17.2563L3.05733 9.43631C2.86841 8.26976 3.15061 7.07594 3.84186 6.11745C4.53311 5.15896 5.57679 4.51431 6.74333 4.3253Z" stroke="black" stroke-width="1.5" stroke-linecap="round" stroke-linejoin="round"/>
<path d="M7.251 7.70398L15.148 6.42397C15.2777 6.40299 15.4102 6.40776 15.5381 6.43802C15.6659 6.46828 15.7865 6.52343 15.8931 6.60032C15.9996 6.67722 16.0899 6.77434 16.1589 6.88616C16.2278 6.99797 16.2741 7.12228 16.295 7.25197L16.655 9.47498L7.093 12.985L6.423 8.85097C6.40201 8.72129 6.40678 8.58874 6.43704 8.4609C6.4673 8.33306 6.52245 8.21244 6.59935 8.10592C6.67624 7.9994 6.77337 7.90908 6.88518 7.84011C6.99699 7.77114 7.1213 7.72488 7.251 7.70398Z" stroke="black" stroke-width="1.5" stroke-linecap="round" stroke-linejoin="round"/>
</g>
<defs>
<clipPath id="clip0_211_94048">
<rect width="24" height="24" fill="white"/>
</clipPath>
</defs>
</svg>
