<svg width="24" height="24" viewBox="0 0 24 24" fill="none" xmlns="http://www.w3.org/2000/svg">
<g clip-path="url(#clip0_211_94364)">
<path d="M15.0012 16.2499L14.1852 15.8899L13.7232 15.6939C12.2792 15.1019 11.7232 15.1009 10.2762 15.6939L9.81422 15.8889L8.99722 16.2479C8.31866 16.4866 7.59278 16.5592 6.8804 16.4595C6.16803 16.3599 5.48992 16.0909 4.90294 15.6751C4.31595 15.2594 3.83718 14.7089 3.50676 14.07C3.17634 13.4311 3.00391 12.7222 3.00391 12.0029C3.00391 11.2836 3.17634 10.5748 3.50676 9.93585C3.83718 9.29692 4.31595 8.7465 4.90294 8.33074C5.48992 7.91499 6.16803 7.646 6.8804 7.54634C7.59278 7.44667 8.31866 7.51923 8.99722 7.75793L10.0512 8.21993L10.4852 8.39793C11.7772 8.90493 12.3482 8.87793 13.7222 8.31593L14.1842 8.12093L15.0012 7.76193C15.6798 7.52323 16.4057 7.45067 17.118 7.55033C17.8304 7.65 18.5085 7.91899 19.0955 8.33474C19.6825 8.7505 20.1613 9.30092 20.4917 9.93985C20.8221 10.5788 20.9945 11.2876 20.9945 12.0069C20.9945 12.7262 20.8221 13.4351 20.4917 14.074C20.1613 14.7129 19.6825 15.2634 19.0955 15.6791C18.5085 16.0949 17.8304 16.3639 17.118 16.4635C16.4057 16.5632 15.6798 16.4906 15.0012 16.2519" stroke="black" stroke-width="1.5" stroke-linecap="round" stroke-linejoin="round"/>
</g>
<defs>
<clipPath id="clip0_211_94364">
<rect width="24" height="24" fill="white"/>
</clipPath>
</defs>
</svg>
