<svg width="24" height="24" viewBox="0 0 24 24" fill="none" xmlns="http://www.w3.org/2000/svg">
<g clip-path="url(#clip0_211_93261)">
<path d="M9.65027 6.95605C8.93755 7.99367 8.61048 9.24801 8.7258 10.5015C8.84111 11.755 9.39152 12.9287 10.2816 13.8188C11.1716 14.709 12.3452 15.2596 13.5987 15.3751C14.8522 15.4905 16.1066 15.1636 17.1443 14.4511" stroke="black" stroke-width="1.5" stroke-linecap="round" stroke-linejoin="round"/>
<path d="M3 12C3 13.1819 3.23279 14.3522 3.68508 15.4442C4.13738 16.5361 4.80031 17.5282 5.63604 18.364C6.47177 19.1997 7.46392 19.8626 8.55585 20.3149C9.64778 20.7672 10.8181 21 12 21C13.1819 21 14.3522 20.7672 15.4442 20.3149C16.5361 19.8626 17.5282 19.1997 18.364 18.364C19.1997 17.5282 19.8626 16.5361 20.3149 15.4442C20.7672 14.3522 21 13.1819 21 12C21 10.8181 20.7672 9.64778 20.3149 8.55585C19.8626 7.46392 19.1997 6.47177 18.364 5.63604C17.5282 4.80031 16.5361 4.13738 15.4442 3.68508C14.3522 3.23279 13.1819 3 12 3C10.8181 3 9.64778 3.23279 8.55585 3.68508C7.46392 4.13738 6.47177 4.80031 5.63604 5.63604C4.80031 6.47177 4.13738 7.46392 3.68508 8.55585C3.23279 9.64778 3 10.8181 3 12Z" stroke="black" stroke-width="1.5" stroke-linecap="round" stroke-linejoin="round"/>
<path d="M17.6987 12.1374C17.6989 13.2723 17.3625 14.3819 16.732 15.3256C16.1016 16.2694 15.2055 17.005 14.157 17.4394C13.1084 17.8738 11.9546 17.9876 10.8415 17.7662C9.72832 17.5448 8.70581 16.9983 7.90328 16.1958C7.10075 15.3932 6.55423 14.3707 6.33286 13.2576C6.11149 12.1444 6.22521 10.9906 6.65963 9.94209C7.09405 8.89357 7.82966 7.99742 8.77342 7.367C9.71718 6.73658 10.8267 6.40019 11.9617 6.40039" stroke="black" stroke-width="1.5" stroke-linecap="round" stroke-linejoin="round"/>
<path d="M17.6992 12.3376V11.1626C17.6992 10.6926 17.8702 10.2426 18.1752 9.90965C18.32 9.74777 18.497 9.6179 18.6948 9.52836C18.8927 9.43882 19.1071 9.39157 19.3242 9.38965C20.1512 9.38965 20.8472 10.0656 20.9442 10.9626C20.9812 11.3066 20.9992 11.6526 20.9992 11.9996" stroke="black" stroke-width="1.5" stroke-linecap="round" stroke-linejoin="round"/>
<path d="M11.6602 6.4H12.8352C13.3052 6.4 13.7552 6.224 14.0882 5.91C14.4212 5.596 14.6082 5.17 14.6082 4.726C14.6082 3.874 13.9322 3.156 13.0352 3.056C12.6908 3.01843 12.3446 2.99974 11.9982 3" stroke="black" stroke-width="1.5" stroke-linecap="round" stroke-linejoin="round"/>
</g>
<defs>
<clipPath id="clip0_211_93261">
<rect width="24" height="24" fill="white"/>
</clipPath>
</defs>
</svg>
