<svg width="24" height="24" viewBox="0 0 24 24" fill="none" xmlns="http://www.w3.org/2000/svg">
<g clip-path="url(#clip0_211_93978)">
<path d="M4 3.70955V20.2895C4.00004 20.4124 4.03241 20.5331 4.09386 20.6395C4.15532 20.7459 4.24369 20.8342 4.35009 20.8956C4.4565 20.957 4.5772 20.9893 4.70006 20.9893C4.82291 20.9893 4.9436 20.957 5.05 20.8955L19.672 12.4755C19.7557 12.4273 19.8252 12.3579 19.8735 12.2742C19.9219 12.1906 19.9473 12.0957 19.9473 11.999C19.9473 11.9024 19.9219 11.8075 19.8735 11.7239C19.8252 11.6402 19.7557 11.5708 19.672 11.5225L5.05 3.10355C4.94353 3.04208 4.82275 3.00973 4.6998 3.00977C4.57686 3.0098 4.4561 3.04221 4.34966 3.10374C4.24322 3.16527 4.15487 3.25375 4.09349 3.36027C4.03211 3.4668 3.99986 3.58661 4 3.70955Z" stroke="black" stroke-width="1.5" stroke-linecap="round" stroke-linejoin="round"/>
<path d="M15 9L4.5 20.5" stroke="black" stroke-width="1.5" stroke-linecap="round" stroke-linejoin="round"/>
<path d="M4.5 3.5L15 15" stroke="black" stroke-width="1.5" stroke-linecap="round" stroke-linejoin="round"/>
</g>
<defs>
<clipPath id="clip0_211_93978">
<rect width="24" height="24" fill="white"/>
</clipPath>
</defs>
</svg>
