<svg width="24" height="24" viewBox="0 0 24 24" fill="none" xmlns="http://www.w3.org/2000/svg">
<g clip-path="url(#clip0_211_94506)">
<path d="M4 12C4 11.4696 4.21071 10.9609 4.58579 10.5858C4.96086 10.2107 5.46957 10 6 10H18C18.5304 10 19.0391 10.2107 19.4142 10.5858C19.7893 10.9609 20 11.4696 20 12V19C20 19.5304 19.7893 20.0391 19.4142 20.4142C19.0391 20.7893 18.5304 21 18 21H6C5.46957 21 4.96086 20.7893 4.58579 20.4142C4.21071 20.0391 4 19.5304 4 19V12Z" stroke="black" stroke-width="1.5" stroke-linecap="round" stroke-linejoin="round"/>
<path d="M7 10V8.138C7 5.3 9.239 3 12 3C14.761 3 17 5.3 17 8.138V10" stroke="black" stroke-width="1.5" stroke-linecap="round" stroke-linejoin="round"/>
<path d="M10.4861 17.5774C10.8231 17.8674 11.1861 18.0004 12.0011 18.0004H12.4141C12.7371 18.0004 13.0471 17.8674 13.2761 17.6324C13.5055 17.3946 13.6332 17.0767 13.6321 16.7464C13.6321 16.4144 13.5041 16.0964 13.2761 15.8604C13.1644 15.7445 13.0305 15.6522 12.8824 15.589C12.7343 15.5257 12.5751 15.4929 12.4141 15.4924H11.5881C11.4273 15.492 11.2683 15.4593 11.1203 15.3963C10.9724 15.3332 10.8387 15.2411 10.7271 15.1254C10.4977 14.8876 10.37 14.5697 10.3711 14.2394C10.3711 13.9074 10.4991 13.5884 10.7271 13.3534C10.8386 13.2374 10.9723 13.1451 11.1202 13.0819C11.2681 13.0187 11.4272 12.9859 11.5881 12.9854H12.0011C12.8171 12.9854 13.1791 13.1184 13.5161 13.4084" stroke="black" stroke-width="1.5" stroke-linecap="round" stroke-linejoin="round"/>
</g>
<defs>
<clipPath id="clip0_211_94506">
<rect width="24" height="24" fill="white"/>
</clipPath>
</defs>
</svg>
