<svg width="24" height="24" viewBox="0 0 24 24" fill="none" xmlns="http://www.w3.org/2000/svg">
<g clip-path="url(#clip0_211_93951)">
<path d="M11.9985 9.31443L9.65545 6.97043C9.03044 6.36671 8.1933 6.03263 7.32435 6.04016C6.4554 6.04769 5.62417 6.39622 5.00971 7.01069C4.39525 7.62515 4.04672 8.45638 4.03919 9.32532C4.03166 10.1943 4.36573 11.0314 4.96945 11.6564L7.31245 14.0004M7.31245 14.0004L11.9985 18.6864L19.0285 11.6564C19.632 11.0313 19.9659 10.1941 19.9582 9.32512C19.9505 8.45618 19.6018 7.62502 18.9872 7.01069C18.3726 6.39636 17.5413 6.04801 16.6724 6.04066C15.8034 6.03332 14.9663 6.36757 14.3415 6.97143L7.31245 14.0004Z" stroke="black" stroke-width="1.5" stroke-linecap="round" stroke-linejoin="round"/>
</g>
<defs>
<clipPath id="clip0_211_93951">
<rect width="24" height="24" fill="white"/>
</clipPath>
</defs>
</svg>
