<svg width="24" height="24" viewBox="0 0 24 24" fill="none" xmlns="http://www.w3.org/2000/svg">
<g clip-path="url(#clip0_211_93349)">
<path d="M6.03906 14.831L10.4991 10.5" stroke="black" stroke-width="1.5" stroke-linecap="round" stroke-linejoin="round"/>
<path d="M12.5563 20.8198C17.1063 17.3638 20.1383 12.1808 20.9823 6.41477C21.0383 6.05887 20.9776 5.6944 20.8093 5.37589C20.6409 5.05737 20.3739 4.80192 20.0483 4.64777C17.512 3.53759 14.7698 2.97599 12.0013 2.99977C9.23288 2.97567 6.49063 3.53694 3.9543 4.64677C3.62867 4.80092 3.3617 5.05637 3.19334 5.37489C3.02497 5.6934 2.96427 6.05787 3.0203 6.41377C3.8643 12.1798 6.8953 17.3638 11.4463 20.8198C11.6078 20.9364 11.802 20.9992 12.0013 20.9992C12.2006 20.9992 12.3948 20.9364 12.5563 20.8198Z" stroke="black" stroke-width="1.5" stroke-linecap="round" stroke-linejoin="round"/>
<path d="M20 5C18 5 15.63 8.304 12 11.644C8.37 8.304 6 5 4 5" stroke="black" stroke-width="1.5" stroke-linecap="round" stroke-linejoin="round"/>
<path d="M17.738 15L13.5 10.5" stroke="black" stroke-width="1.5" stroke-linecap="round" stroke-linejoin="round"/>
</g>
<defs>
<clipPath id="clip0_211_93349">
<rect width="24" height="24" fill="white"/>
</clipPath>
</defs>
</svg>
