<svg width="24" height="24" viewBox="0 0 24 24" fill="none" xmlns="http://www.w3.org/2000/svg">
<g clip-path="url(#clip0_211_93502)">
<path d="M20.978 11.3721C20.8296 9.25371 19.9369 7.25603 18.4578 5.73229C16.9787 4.20855 15.0084 3.25691 12.8954 3.04564C10.7824 2.83437 8.66267 3.37709 6.91115 4.57781C5.15964 5.77854 3.88911 7.55994 3.32425 9.60701C2.75938 11.6541 2.93655 13.8349 3.82444 15.764C4.71233 17.693 6.25374 19.246 8.17611 20.1482C10.0985 21.0505 12.278 21.244 14.3292 20.6944C16.3804 20.1448 18.1712 18.8876 19.385 17.1451" stroke="black" stroke-width="1.5" stroke-linecap="round" stroke-linejoin="round"/>
<path d="M20.9788 11.3722C21.1888 14.3652 15.9448 13.7852 14.0658 12.8582C15.4578 11.2582 14.4678 8.82022 11.7918 9.00722C10.0468 9.12922 8.86479 10.1642 9.00779 12.2092C9.28779 16.1992 13.4518 18.4142 19.3678 16.9992" stroke="black" stroke-width="1.5" stroke-linecap="round" stroke-linejoin="round"/>
<path d="M3.02215 12.6284C2.73915 8.58536 11.7392 5.40036 14.2702 9.94036" stroke="black" stroke-width="1.5" stroke-linecap="round" stroke-linejoin="round"/>
<path d="M12.6295 20.9785C9.6365 21.1885 7.4675 16.2535 9.0625 11.2305" stroke="black" stroke-width="1.5" stroke-linecap="round" stroke-linejoin="round"/>
</g>
<defs>
<clipPath id="clip0_211_93502">
<rect width="24" height="24" fill="white"/>
</clipPath>
</defs>
</svg>
