<svg width="48" height="48" viewBox="0 0 48 48" fill="none" xmlns="http://www.w3.org/2000/svg">
<path fill-rule="evenodd" clip-rule="evenodd" d="M17.0572 11.9579V21.7063C17.0572 23.2832 16.7663 24.4301 16.0391 25.1469C15.4574 25.8637 14.2938 26.2937 12.8394 26.2937C11.385 26.2937 10.3669 26.007 9.63971 25.2902C9.05794 24.5734 8.62162 23.4266 8.62162 21.7063V11.9579H3.2403V21.7063C3.2403 24.5734 3.82206 26.7238 4.98559 28.3008C5.13103 28.4441 5.27647 28.7308 5.56735 28.8742C7.16721 30.4511 9.49427 31.1679 12.8394 31.1679C16.0391 31.1679 18.5116 30.4511 19.966 28.8742C20.1115 28.7308 20.2569 28.4441 20.5478 28.3008C21.7113 26.7238 22.2931 24.5734 22.2931 21.7063V11.9579H17.0572Z" fill="black"/>
<path fill-rule="evenodd" clip-rule="evenodd" d="M25.7837 11.9579H31.0196V14.9684C31.7468 13.6782 32.6194 12.818 33.6375 12.2446C34.6556 11.6712 35.8191 11.3845 37.2735 11.3845C39.8915 11.3845 42.0731 12.2446 43.5275 13.9649C44.9819 15.6852 45.8546 18.1223 45.8546 21.2762C45.8546 24.2867 45.1274 26.7238 43.5275 28.5875C42.0731 30.4511 40.0369 31.3113 37.5644 31.3113C36.11 31.3113 34.801 31.0246 33.7829 30.4511C32.7649 29.8777 31.8922 29.0175 31.165 27.8707C31.165 28.3008 31.3104 28.8742 31.3104 29.4476V36.4722H25.7837V11.9579ZM30.8741 21.1328C30.8741 22.8531 31.3104 24.1434 32.1831 25.0035C33.0557 26.007 34.2193 26.4371 35.6737 26.4371C37.1281 26.4371 38.2916 26.007 39.1643 25.0035C40.0369 24 40.4732 22.7098 40.4732 21.1328C40.4732 19.4125 40.0369 18.1223 39.1643 17.1188C38.2916 16.1153 37.1281 15.6852 35.6737 15.6852C34.2193 15.6852 33.0557 16.1153 32.1831 17.1188C31.165 18.1223 30.8741 19.4125 30.8741 21.1328Z" fill="black"/>
<path fill-rule="evenodd" clip-rule="evenodd" d="M20.8387 36.1855C20.6932 36.0421 20.5478 35.7554 20.2569 35.612C18.6571 34.0351 16.33 33.3183 12.9849 33.3183C9.78515 33.3183 7.31265 34.0351 5.85824 35.612C5.7128 35.7554 5.56735 36.0421 5.27647 36.1855H20.8387Z" fill="black"/>
</svg>
