<svg width="48" height="48" viewBox="0 0 48 48" fill="none" xmlns="http://www.w3.org/2000/svg">
<path d="M3.54517 44.0862L6.39933 33.665C4.63898 30.6153 3.71284 27.1552 3.71397 23.6108C3.71848 12.5219 12.7426 3.50049 23.8318 3.50049C29.2131 3.50311 34.2639 5.59731 38.0627 9.39872C41.8603 13.2001 43.9515 18.2529 43.9496 23.627C43.9447 34.7151 34.9191 43.738 23.8318 43.738C23.831 43.738 23.8326 43.738 23.8318 43.738H23.8231C20.4565 43.7367 17.1483 42.8921 14.2098 41.2897L3.54517 44.0862Z" fill="white"/>
<path d="M23.8382 6.89758C14.6149 6.89758 7.11411 14.3956 7.11072 23.6118C7.10935 26.7701 7.9932 29.8462 9.66689 32.5078L10.0648 33.1401L8.37517 39.3081L14.7038 37.6487L15.3149 38.0108C17.8816 39.5342 20.8243 40.3397 23.8254 40.3412H23.8317C33.048 40.3412 40.5487 32.8424 40.5525 23.6254C40.5541 19.159 38.8167 14.9589 35.6596 11.7995C32.5025 8.64018 28.3047 6.89947 23.8382 6.89758Z" fill="url(#paint0_linear_210_1073)"/>
<path fill-rule="evenodd" clip-rule="evenodd" d="M18.804 15.2031C18.4272 14.3663 18.0308 14.3493 17.6729 14.3346C17.3798 14.3222 17.0444 14.3229 16.7094 14.3229C16.3741 14.3229 15.8296 14.4488 15.3692 14.9518C14.9084 15.4548 13.6096 16.6707 13.6096 19.1439C13.6096 21.6172 15.411 24.0068 15.662 24.3425C15.9133 24.6778 19.1393 29.9152 24.249 31.9299C28.495 33.6043 29.3589 33.2712 30.2809 33.1876C31.2026 33.1039 33.2549 31.9717 33.6735 30.798C34.0925 29.6243 34.0925 28.6186 33.9671 28.4084C33.8412 28.1985 33.5062 28.0731 33.0032 27.8217C32.5006 27.5704 30.0293 26.3542 29.5684 26.1865C29.1076 26.0188 28.7727 25.9352 28.4373 26.4382C28.1024 26.9412 27.1397 28.0731 26.8462 28.4084C26.553 28.7441 26.2599 28.7859 25.7569 28.5346C25.2542 28.2826 23.6352 27.7524 21.7147 26.0399C20.2204 24.7076 19.2117 23.0622 18.9182 22.5591C18.625 22.0561 18.8869 21.7841 19.139 21.5335C19.3647 21.3082 19.6416 20.9465 19.8933 20.653C20.1439 20.3595 20.2279 20.15 20.3952 19.815C20.5629 19.4793 20.4792 19.1858 20.3534 18.9344C20.2279 18.6831 19.2509 16.1971 18.804 15.2031Z" fill="white"/>
<defs>
<linearGradient id="paint0_linear_210_1073" x1="23.4912" y1="8.90456" x2="23.6608" y2="37.4841" gradientUnits="userSpaceOnUse">
<stop stop-color="#57D163"/>
<stop offset="1" stop-color="#23B33A"/>
</linearGradient>
</defs>
</svg>
