<svg width="48" height="48" viewBox="0 0 48 48" fill="none" xmlns="http://www.w3.org/2000/svg">
<path d="M0 24C0 10.7452 10.7452 0 24 0C37.2548 0 48 10.7452 48 24C48 37.2548 37.2548 48 24 48C10.7452 48 0 37.2548 0 24Z" fill="white"/>
<path d="M36 24.7129L35.9971 36.0742L22.9922 34.2383L22.9736 24.6914L36 24.7129ZM21.8037 24.623L21.8105 34.0928L12.0078 32.7441L12.0068 24.5596L21.8037 24.623ZM21.8125 23.5332L12.0088 23.5889L12 15.4082L21.8076 14.0723L21.8125 23.5332ZM35.9971 23.4131L22.9922 23.5166V13.8984L35.9971 12V23.4131Z" fill="#00ADEF"/>
</svg>
