<svg width="24" height="24" viewBox="0 0 24 24" fill="none" xmlns="http://www.w3.org/2000/svg">
<path d="M20 11C20 15.97 15.97 20 11 20C6.03 20 2 15.97 2 11C2 6.03 6.03 2 11 2" stroke="#171717" stroke-width="1.5" stroke-linecap="round" stroke-linejoin="round"/>
<path d="M13.4999 6.13C13.1499 5.03 13.5599 3.66 14.7199 3.29C15.3299 3.09 16.0799 3.26 16.5099 3.85C16.9099 3.24 17.6899 3.1 18.2899 3.29C19.4499 3.66 19.8599 5.03 19.5099 6.13C18.9599 7.88 17.0399 8.79 16.5099 8.79C15.9699 8.79 14.0699 7.9 13.4999 6.13Z" stroke="#171717" stroke-width="1.5" stroke-linecap="round" stroke-linejoin="round"/>
<path d="M18.9299 20.6898C19.4599 22.2898 20.6699 22.4498 21.5999 21.0498C22.4499 19.7698 21.8899 18.7198 20.3499 18.7198C19.2099 18.7098 18.5699 19.5998 18.9299 20.6898Z" stroke="#171717" stroke-width="1.5" stroke-linecap="round" stroke-linejoin="round"/>
</svg>
