<svg width="24" height="24" viewBox="0 0 24 24" fill="none" xmlns="http://www.w3.org/2000/svg">
<path opacity="0.4" d="M11.5 21C16.7467 21 21 16.7467 21 11.5C21 6.25329 16.7467 2 11.5 2C6.25329 2 2 6.25329 2 11.5C2 16.7467 6.25329 21 11.5 21Z" fill="#171717"/>
<path d="M21.3001 22C21.1201 22 20.9401 21.93 20.8101 21.8L18.9501 19.94C18.6801 19.67 18.6801 19.23 18.9501 18.95C19.2201 18.68 19.6601 18.68 19.9401 18.95L21.8001 20.81C22.0701 21.08 22.0701 21.52 21.8001 21.8C21.6601 21.93 21.4801 22 21.3001 22Z" fill="#171717"/>
<path d="M13.2699 8.89001C12.6399 8.69001 11.9699 8.81001 11.4899 9.18001C10.9999 8.81001 10.3499 8.69001 9.71993 8.89001C8.35993 9.33001 7.92993 10.88 8.30993 12.06C8.88993 13.87 10.7999 14.81 11.4899 14.81C12.1599 14.81 14.1099 13.85 14.6699 12.06C15.0599 10.88 14.6299 9.33001 13.2699 8.89001Z" fill="#171717"/>
</svg>
