<svg width="24" height="24" viewBox="0 0 24 24" fill="none" xmlns="http://www.w3.org/2000/svg">
<path d="M14.5 10.75H8.5C8.09 10.75 7.75 10.41 7.75 10C7.75 9.59 8.09 9.25 8.5 9.25H14.5C14.91 9.25 15.25 9.59 15.25 10C15.25 10.41 14.91 10.75 14.5 10.75Z" fill="#171717"/>
<path d="M11.5 13.75H8.5C8.09 13.75 7.75 13.41 7.75 13C7.75 12.59 8.09 12.25 8.5 12.25H11.5C11.91 12.25 12.25 12.59 12.25 13C12.25 13.41 11.91 13.75 11.5 13.75Z" fill="#171717"/>
<path opacity="0.4" d="M11.5 21C16.7467 21 21 16.7467 21 11.5C21 6.25329 16.7467 2 11.5 2C6.25329 2 2 6.25329 2 11.5C2 16.7467 6.25329 21 11.5 21Z" fill="#171717"/>
<path d="M21.3001 22C21.1201 22 20.9401 21.93 20.8101 21.8L18.9501 19.94C18.6801 19.67 18.6801 19.23 18.9501 18.95C19.2201 18.68 19.6601 18.68 19.9401 18.95L21.8001 20.81C22.0701 21.08 22.0701 21.52 21.8001 21.8C21.6601 21.93 21.4801 22 21.3001 22Z" fill="#171717"/>
</svg>
