<svg width="24" height="24" viewBox="0 0 24 24" fill="none" xmlns="http://www.w3.org/2000/svg">
<path d="M2 11C2 6.03 6.03 2 11 2" stroke="#171717" stroke-width="1.5" stroke-linecap="round" stroke-linejoin="round"/>
<path d="M19.9999 11C19.9999 15.97 15.9699 20 10.9999 20C7.45992 20 4.38992 17.95 2.91992 14.97" stroke="#171717" stroke-width="1.5" stroke-linecap="round" stroke-linejoin="round"/>
<path d="M13.4999 6.12999C13.1499 5.02999 13.5599 3.65999 14.7199 3.28999C15.3299 3.08999 16.0799 3.25999 16.5099 3.84999C16.9099 3.23999 17.6899 3.09999 18.2899 3.28999C19.4499 3.65999 19.8599 5.02999 19.5099 6.12999C18.9599 7.87999 17.0399 8.78999 16.5099 8.78999C15.9699 8.78999 14.0699 7.89999 13.4999 6.12999Z" stroke="#171717" stroke-width="1.5" stroke-linecap="round" stroke-linejoin="round"/>
<path d="M19.07 20.97C19.6 22.57 20.81 22.73 21.74 21.33C22.6 20.05 22.04 19 20.5 19C19.35 19 18.71 19.89 19.07 20.97Z" stroke="#171717" stroke-width="1.5" stroke-linecap="round" stroke-linejoin="round"/>
</svg>
