<svg width="24" height="24" viewBox="0 0 24 24" fill="none" xmlns="http://www.w3.org/2000/svg">
<path opacity="0.4" d="M11.5 21C16.7467 21 21 16.7467 21 11.5C21 6.25329 16.7467 2 11.5 2C6.25329 2 2 6.25329 2 11.5C2 16.7467 6.25329 21 11.5 21Z" fill="#171717"/>
<path d="M21.3001 22C21.1201 22 20.9401 21.93 20.8101 21.8L18.9501 19.94C18.6801 19.67 18.6801 19.23 18.9501 18.95C19.2201 18.68 19.6601 18.68 19.9401 18.95L21.8001 20.81C22.0701 21.08 22.0701 21.52 21.8001 21.8C21.6601 21.93 21.4801 22 21.3001 22Z" fill="#171717"/>
<path d="M14.2002 10.95H12.4502V9.20001C12.4502 8.79001 12.1102 8.45001 11.7002 8.45001C11.2902 8.45001 10.9502 8.79001 10.9502 9.20001V10.95H9.2002C8.7902 10.95 8.4502 11.29 8.4502 11.7C8.4502 12.11 8.7902 12.45 9.2002 12.45H10.9502V14.2C10.9502 14.61 11.2902 14.95 11.7002 14.95C12.1102 14.95 12.4502 14.61 12.4502 14.2V12.45H14.2002C14.6102 12.45 14.9502 12.11 14.9502 11.7C14.9502 11.29 14.6102 10.95 14.2002 10.95Z" fill="#171717"/>
</svg>
