<svg width="24" height="24" viewBox="0 0 24 24" fill="none" xmlns="http://www.w3.org/2000/svg">
<path d="M10.37 18.1401C10.37 19.5601 9.31998 20.72 7.78998 20.72H4.57001C3.15001 20.72 1.98999 19.5601 1.98999 18.1401L1.98999 12.3401" stroke="#171717" stroke-width="1.5" stroke-linecap="round" stroke-linejoin="round"/>
<path d="M2 12.3501H7.79999C8.75999 12.3501 9.52002 12.8001 9.96002 13.4901" stroke="#171717" stroke-width="1.5" stroke-linecap="round" stroke-linejoin="round"/>
<path d="M2 12.35C2 6.29998 3.13003 5.30003 6.53003 3.28003" stroke="#171717" stroke-width="1.5" stroke-linecap="round" stroke-linejoin="round"/>
<path d="M13.63 12.3501H19.43C20.96 12.3501 22.01 13.5101 22.01 14.9301V18.1501C22.01 19.5701 20.96 20.7301 19.43 20.7301H16.21C14.79 20.7301 13.63 19.5701 13.63 18.1501V12.3501" stroke="#171717" stroke-width="1.5" stroke-linecap="round" stroke-linejoin="round"/>
<path d="M13.63 12.35C13.63 6.29998 14.76 5.30003 18.16 3.28003" stroke="#171717" stroke-width="1.5" stroke-linecap="round" stroke-linejoin="round"/>
</svg>
