<svg width="24" height="24" viewBox="0 0 24 24" fill="none" xmlns="http://www.w3.org/2000/svg">
<path d="M8.99005 21.5001C7.33005 21.5001 5.66005 20.8701 4.39005 19.6001C1.86005 17.0601 1.86005 12.9401 4.39005 10.4101C4.68005 10.1201 5.16005 10.1201 5.45005 10.4101C5.74005 10.7001 5.74005 11.1801 5.45005 11.4701C3.50005 13.4201 3.50005 16.5901 5.45005 18.5401C7.40005 20.4901 10.5701 20.4901 12.5201 18.5401C13.4601 17.6001 13.9801 16.3401 13.9801 15.0001C13.9801 13.6701 13.4601 12.4101 12.5201 11.4601C12.2301 11.1701 12.2301 10.6901 12.5201 10.4001C12.8101 10.1101 13.2901 10.1101 13.5801 10.4001C14.8101 11.6301 15.4801 13.2601 15.4801 15.0001C15.4801 16.7401 14.8001 18.3701 13.5801 19.6001C12.3201 20.8701 10.6601 21.5001 8.99005 21.5001Z" fill="#171717"/>
<path d="M19.07 14.16C18.88 14.16 18.69 14.09 18.54 13.94C18.25 13.65 18.25 13.17 18.54 12.88C20.59 10.83 20.59 7.49999 18.54 5.45999C16.49 3.40999 13.16 3.40999 11.12 5.45999C10.13 6.44999 9.57996 7.76999 9.57996 9.16999C9.57996 10.57 10.13 11.89 11.12 12.88C11.41 13.17 11.41 13.65 11.12 13.94C10.83 14.23 10.35 14.23 10.06 13.94C8.78996 12.67 8.07996 10.97 8.07996 9.16999C8.07996 7.36999 8.77996 5.66999 10.06 4.39999C12.69 1.76999 16.97 1.76999 19.61 4.39999C22.24 7.02999 22.24 11.32 19.61 13.95C19.46 14.09 19.26 14.16 19.07 14.16Z" fill="#171717"/>
</svg>
