<svg width="24" height="24" viewBox="0 0 24 24" fill="none" xmlns="http://www.w3.org/2000/svg">
<path d="M13.63 5.85992C13.63 4.43992 14.68 3.27997 16.21 3.27997L19.42 3.27997C20.84 3.27997 22 4.43992 22 5.85992L22 11.6599" stroke="#171717" stroke-width="1.5" stroke-linecap="round" stroke-linejoin="round"/>
<path d="M22 11.6499L16.2 11.6499C15.24 11.6499 14.48 11.1999 14.04 10.5099" stroke="#171717" stroke-width="1.5" stroke-linecap="round" stroke-linejoin="round"/>
<path d="M22 11.65C22 17.7 20.87 18.7 17.47 20.72" stroke="#171717" stroke-width="1.5" stroke-linecap="round" stroke-linejoin="round"/>
<path d="M10.37 11.6499L4.57 11.6499C3.04 11.6499 1.99 10.4899 1.99 9.06988L1.99001 5.84985C1.99001 4.42985 3.04001 3.2699 4.57001 3.2699L7.8 3.2699C9.22 3.2699 10.38 4.42985 10.38 5.84985L10.38 11.6499" stroke="#171717" stroke-width="1.5" stroke-linecap="round" stroke-linejoin="round"/>
<path d="M10.37 11.65C10.37 17.7 9.24 18.7 5.84 20.72" stroke="#171717" stroke-width="1.5" stroke-linecap="round" stroke-linejoin="round"/>
</svg>
