<svg width="24" height="24" viewBox="0 0 24 24" fill="none" xmlns="http://www.w3.org/2000/svg">
<path d="M15.41 18.5899C15.01 18.5899 14.68 18.2599 14.68 17.8599C14.68 17.4599 15.01 17.1299 15.41 17.1299C18.23 17.1299 20.53 14.8299 20.53 12.0099C20.53 9.18992 18.23 6.88992 15.41 6.88992C12.59 6.88992 10.29 9.18992 10.29 12.0099C10.29 12.4099 9.95996 12.7399 9.55996 12.7399C9.15996 12.7399 8.82996 12.4099 8.82996 12.0099C8.82996 8.37992 11.78 5.41992 15.42 5.41992C19.06 5.41992 22 8.36992 22 11.9999C22 15.6299 19.05 18.5899 15.41 18.5899Z" fill="#171717"/>
<path d="M8.59 5.40991C8.99 5.40991 9.32 5.73991 9.32 6.13991C9.32 6.53991 8.99 6.86991 8.59 6.86991C5.77 6.86991 3.47 9.16991 3.47 11.9899C3.47 14.8099 5.77 17.1099 8.59 17.1099C11.41 17.1099 13.71 14.8099 13.71 11.9899C13.71 11.5899 14.04 11.2599 14.44 11.2599C14.84 11.2599 15.17 11.5899 15.17 11.9899C15.17 15.6199 12.22 18.5799 8.58 18.5799C4.94 18.5799 2 15.6299 2 11.9999C2 8.36991 4.95 5.40991 8.59 5.40991Z" fill="#171717"/>
</svg>
