<svg width="24" height="24" viewBox="0 0 24 24" fill="none" xmlns="http://www.w3.org/2000/svg">
<path opacity="0.4" d="M22 7.81V16.19C22 19.83 19.83 22 16.19 22H7.81C7.61 22 7.41 21.99 7.22 21.98C5.99 21.9 4.95 21.55 4.13 20.95C3.71 20.66 3.34 20.29 3.05 19.87C2.36 18.92 2 17.68 2 16.19V7.81C2 4.37 3.94 2.24 7.22 2.03C7.41 2.01 7.61 2 7.81 2H16.19C17.68 2 18.92 2.36 19.87 3.05C20.29 3.34 20.66 3.71 20.95 4.13C21.64 5.08 22 6.32 22 7.81Z" fill="#171717"/>
<path d="M15.87 6.01001H10.49C10.08 6.01001 9.74001 6.35001 9.74001 6.76001C9.74001 7.17001 10.08 7.51001 10.49 7.51001H12.38L10.14 16.48H8.14002C7.73002 16.48 7.39001 16.82 7.39001 17.23C7.39001 17.64 7.73002 17.98 8.14002 17.98H13.52C13.93 17.98 14.27 17.64 14.27 17.23C14.27 16.82 13.93 16.48 13.52 16.48H11.68L13.92 7.51001H15.87C16.28 7.51001 16.62 7.17001 16.62 6.76001C16.62 6.35001 16.28 6.01001 15.87 6.01001Z" fill="#171717"/>
</svg>
