<svg width="24" height="24" viewBox="0 0 24 24" fill="none" xmlns="http://www.w3.org/2000/svg">
<path opacity="0.4" d="M12 22C17.5228 22 22 17.5228 22 12C22 6.47715 17.5228 2 12 2C6.47715 2 2 6.47715 2 12C2 17.5228 6.47715 22 12 22Z" fill="#171717"/>
<path d="M7.93998 15.2599C7.84998 15.2599 7.76997 15.2499 7.67997 15.2099C6.86997 14.9099 6.18998 14.3199 5.75998 13.5499C4.75998 11.7499 5.37999 9.39992 7.12999 8.30992L9.46998 6.85991C10.33 6.32991 11.34 6.16994 12.3 6.41994C13.26 6.66994 14.07 7.29992 14.56 8.17992C15.56 9.97992 14.94 12.3299 13.19 13.4199L12.93 13.6099C12.59 13.8499 12.12 13.7699 11.88 13.4399C11.64 13.0999 11.72 12.6299 12.05 12.3899L12.36 12.1699C13.48 11.4699 13.86 10.0199 13.25 8.90993C12.96 8.38993 12.49 8.01992 11.93 7.86992C11.37 7.71992 10.78 7.80993 10.27 8.12993L7.92997 9.57991C6.84997 10.2499 6.46998 11.6999 7.07998 12.8199C7.32998 13.2699 7.72999 13.6199 8.20999 13.7999C8.59999 13.9399 8.79998 14.3699 8.64998 14.7599C8.53998 15.0699 8.24998 15.2599 7.93998 15.2599Z" fill="#171717"/>
<path d="M12.66 17.6501C12.36 17.6501 12.05 17.6101 11.75 17.5301C10.79 17.2801 9.97997 16.6501 9.49997 15.7701C8.49997 13.9701 9.11996 11.6201 10.87 10.5301L11.13 10.3401C11.47 10.1001 11.94 10.1801 12.18 10.5101C12.42 10.8501 12.34 11.3201 12.01 11.5601L11.7 11.7801C10.58 12.4801 10.2 13.9301 10.81 15.0401C11.1 15.5601 11.57 15.9301 12.13 16.0801C12.69 16.2301 13.28 16.1401 13.79 15.8201L16.13 14.3701C17.21 13.7001 17.59 12.2501 16.98 11.1301C16.73 10.6801 16.33 10.3301 15.85 10.1501C15.46 10.0101 15.26 9.58011 15.41 9.19011C15.55 8.80011 15.99 8.60011 16.37 8.75011C17.18 9.05011 17.86 9.64012 18.29 10.4101C19.29 12.2101 18.67 14.5601 16.92 15.6501L14.58 17.1001C13.99 17.4601 13.33 17.6501 12.66 17.6501Z" fill="#171717"/>
</svg>
