<svg width="24" height="24" viewBox="0 0 24 24" fill="none" xmlns="http://www.w3.org/2000/svg">
<path d="M18.61 6.68007C18.2 6.68007 17.86 6.34007 17.86 5.93007V4.42007C17.86 3.82007 17.37 3.32007 16.76 3.32007H3.82999C3.22999 3.32007 2.72999 3.81007 2.72999 4.42007V5.93007C2.72999 6.34007 2.38999 6.68007 1.97999 6.68007C1.56999 6.68007 1.23999 6.34007 1.23999 5.93007V4.42007C1.23999 2.99007 2.40999 1.82007 3.83999 1.82007H16.76C18.19 1.82007 19.36 2.98007 19.36 4.42007V5.93007C19.36 6.34007 19.02 6.68007 18.61 6.68007Z" fill="#171717"/>
<path d="M10.3 18.8501C9.89005 18.8501 9.55005 18.5101 9.55005 18.1001V3.32007C9.55005 2.91007 9.89005 2.57007 10.3 2.57007C10.71 2.57007 11.05 2.91007 11.05 3.32007V18.1001C11.05 18.5201 10.71 18.8501 10.3 18.8501Z" fill="#171717"/>
<path d="M12.48 18.8501H6.90002C6.49002 18.8501 6.15002 18.5101 6.15002 18.1001C6.15002 17.6901 6.49002 17.3501 6.90002 17.3501H12.48C12.89 17.3501 13.23 17.6901 13.23 18.1001C13.23 18.5101 12.89 18.8501 12.48 18.8501Z" fill="#171717"/>
<path d="M22.0101 13.2001C21.6001 13.2001 21.2601 12.8601 21.2601 12.4501V11.6501C21.2601 11.3401 21.0001 11.0801 20.6901 11.0801H13.6801C13.2701 11.0801 12.9301 10.7401 12.9301 10.3301C12.9301 9.92008 13.2701 9.58008 13.6801 9.58008H20.6901C21.8301 9.58008 22.7601 10.5101 22.7601 11.6501V12.4501C22.7601 12.8701 22.4301 13.2001 22.0101 13.2001Z" fill="#171717"/>
<path d="M16.08 22.1801C15.67 22.1801 15.33 21.8401 15.33 21.4301V10.8701C15.33 10.4601 15.67 10.1201 16.08 10.1201C16.49 10.1201 16.83 10.4601 16.83 10.8701V21.4301C16.83 21.8401 16.49 22.1801 16.08 22.1801Z" fill="#171717"/>
<path d="M18.2199 22.1799H13.9399C13.5299 22.1799 13.1899 21.8399 13.1899 21.4299C13.1899 21.0199 13.5299 20.6799 13.9399 20.6799H18.2199C18.6299 20.6799 18.9699 21.0199 18.9699 21.4299C18.9699 21.8399 18.6299 22.1799 18.2199 22.1799Z" fill="#171717"/>
</svg>
