<svg width="24" height="24" viewBox="0 0 24 24" fill="none" xmlns="http://www.w3.org/2000/svg">
<path opacity="0.4" d="M22 7.81V16.19C22 19.83 19.83 22 16.19 22H7.81C7.61 22 7.41 21.99 7.22 21.98C5.99 21.9 4.95 21.55 4.13 20.95C3.71 20.66 3.34 20.29 3.05 19.87C2.36 18.92 2 17.68 2 16.19V7.81C2 4.37 3.94 2.24 7.22 2.03C7.41 2.01 7.61 2 7.81 2H16.19C17.68 2 18.92 2.36 19.87 3.05C20.29 3.34 20.66 3.71 20.95 4.13C21.64 5.08 22 6.32 22 7.81Z" fill="#171717"/>
<path d="M16.67 5.63989H7.33C6.18 5.63989 5.25 6.56989 5.25 7.71989V8.89989C5.25 9.30989 5.59 9.64989 6 9.64989C6.41 9.64989 6.75 9.30989 6.75 8.89989V7.71989C6.75 7.39989 7.01 7.13989 7.33 7.13989H11.25V16.8599H9.47C9.06 16.8599 8.72 17.1999 8.72 17.6099C8.72 18.0199 9.06 18.3599 9.47 18.3599H14.54C14.95 18.3599 15.29 18.0199 15.29 17.6099C15.29 17.1999 14.95 16.8599 14.54 16.8599H12.76V7.13989H16.68C17 7.13989 17.26 7.39989 17.26 7.71989V8.89989C17.26 9.30989 17.6 9.64989 18.01 9.64989C18.42 9.64989 18.76 9.30989 18.76 8.89989V7.71989C18.75 6.57989 17.82 5.63989 16.67 5.63989Z" fill="#171717"/>
</svg>
