<svg width="24" height="24" viewBox="0 0 24 24" fill="none" xmlns="http://www.w3.org/2000/svg">
<path opacity="0.4" d="M16.19 2H7.82002C4.18002 2 2.01001 4.17 2.01001 7.81V16.18C2.01001 19.82 4.18002 21.99 7.82002 21.99H16.19C19.83 21.99 22 19.82 22 16.18V7.81C22 4.17 19.83 2 16.19 2Z" fill="#171717"/>
<path d="M8.17997 16.7701C8.15997 16.7701 8.12997 16.7701 8.10997 16.7701C7.13997 16.6801 6.22998 16.2301 5.54998 15.5101C3.94998 13.8301 3.94998 11.1001 5.54998 9.4201L7.73998 7.12009C8.51998 6.30009 9.56997 5.84009 10.69 5.84009C11.81 5.84009 12.86 6.29009 13.64 7.12009C15.24 8.80009 15.24 11.5301 13.64 13.2101L12.55 14.3601C12.26 14.6601 11.79 14.6701 11.49 14.3901C11.19 14.1001 11.18 13.6301 11.46 13.3301L12.55 12.1801C13.61 11.0701 13.61 9.2601 12.55 8.1601C11.56 7.1201 9.81998 7.1201 8.81998 8.1601L6.62998 10.4601C5.56998 11.5701 5.56998 13.3801 6.62998 14.4801C7.05998 14.9401 7.63997 15.2201 8.24997 15.2801C8.65997 15.3201 8.95997 15.6901 8.91997 16.1001C8.88997 16.4801 8.55997 16.7701 8.17997 16.7701Z" fill="#171717"/>
<path d="M13.3099 18.1601C12.1899 18.1601 11.1399 17.7101 10.3599 16.8801C8.75991 15.2001 8.75991 12.4701 10.3599 10.7902L11.4499 9.64016C11.7399 9.34016 12.2099 9.33013 12.5099 9.61013C12.8099 9.90013 12.8199 10.3702 12.5399 10.6702L11.4499 11.8201C10.3899 12.9301 10.3899 14.7401 11.4499 15.8401C12.4399 16.8801 14.1799 16.8901 15.1799 15.8401L17.3699 13.5402C18.4299 12.4302 18.4299 10.6201 17.3699 9.52013C16.9399 9.06013 16.3599 8.78014 15.7499 8.72014C15.3399 8.68014 15.0399 8.31014 15.0799 7.90014C15.1199 7.49014 15.4799 7.18015 15.8999 7.23015C16.8699 7.33015 17.7799 7.77013 18.4599 8.49013C20.0599 10.1701 20.0599 12.9001 18.4599 14.5801L16.2699 16.8801C15.4799 17.7101 14.4299 18.1601 13.3099 18.1601Z" fill="#171717"/>
</svg>
