<svg width="24" height="24" viewBox="0 0 24 24" fill="none" xmlns="http://www.w3.org/2000/svg">
<path d="M15.91 12.3699H20.6C20.52 17.0399 19.6 17.8099 16.73 19.5099C16.4 19.7099 16.29 20.1299 16.49 20.4699C16.69 20.7999 17.11 20.91 17.45 20.71C20.83 18.71 22.01 17.4899 22.01 11.6699V6.27997C22.01 4.56997 20.62 3.18994 18.92 3.18994H15.92C14.16 3.18994 12.83 4.51997 12.83 6.27997V9.27997C12.82 11.04 14.15 12.3699 15.91 12.3699Z" fill="#171717"/>
<path opacity="0.4" d="M5.08994 12.3699H9.77994C9.69994 17.0399 8.77994 17.8099 5.90994 19.5099C5.57994 19.7099 5.46994 20.1299 5.66994 20.4699C5.86994 20.7999 6.28994 20.91 6.62994 20.71C10.0099 18.71 11.1899 17.4899 11.1899 11.6699V6.27997C11.1899 4.56997 9.79994 3.18994 8.09994 3.18994H5.09994C3.33994 3.18994 2.00994 4.51997 2.00994 6.27997V9.27997C1.99994 11.04 3.32994 12.3699 5.08994 12.3699Z" fill="#171717"/>
</svg>
