<svg width="24" height="24" viewBox="0 0 24 24" fill="none" xmlns="http://www.w3.org/2000/svg">
<path d="M21 22.75H3C2.59 22.75 2.25 22.41 2.25 22C2.25 21.59 2.59 21.25 3 21.25H21C21.41 21.25 21.75 21.59 21.75 22C21.75 22.41 21.41 22.75 21 22.75Z" fill="#171717"/>
<path d="M21 2.75H3C2.59 2.75 2.25 2.41 2.25 2C2.25 1.59 2.59 1.25 3 1.25H21C21.41 1.25 21.75 1.59 21.75 2C21.75 2.41 21.41 2.75 21 2.75Z" fill="#171717"/>
<path d="M12 18.75C11.59 18.75 11.25 18.41 11.25 18V6C11.25 5.59 11.59 5.25 12 5.25C12.41 5.25 12.75 5.59 12.75 6V18C12.75 18.41 12.41 18.75 12 18.75Z" fill="#171717"/>
<path d="M14.8301 8.4699C14.6401 8.4699 14.4501 8.3999 14.3001 8.2499L12.0001 5.9499L9.70011 8.2499C9.41011 8.5399 8.93011 8.5399 8.64011 8.2499C8.35011 7.9599 8.35011 7.4799 8.64011 7.1899L11.4701 4.3599C11.7501 4.0799 12.2501 4.0799 12.5301 4.3599L15.3601 7.1899C15.6501 7.4799 15.6501 7.9599 15.3601 8.2499C15.2101 8.3999 15.0201 8.4699 14.8301 8.4699Z" fill="#171717"/>
<path d="M12.0001 19.4701C11.8001 19.4701 11.6101 19.3901 11.4701 19.2501L8.64011 16.4201C8.35011 16.1301 8.35011 15.6501 8.64011 15.3601C8.93011 15.0701 9.41011 15.0701 9.70011 15.3601L12.0001 17.6601L14.3001 15.3601C14.5901 15.0701 15.0701 15.0701 15.3601 15.3601C15.6501 15.6501 15.6501 16.1301 15.3601 16.4201L12.5301 19.2501C12.3901 19.3901 12.2001 19.4701 12.0001 19.4701Z" fill="#171717"/>
</svg>
