<svg width="24" height="24" viewBox="0 0 24 24" fill="none" xmlns="http://www.w3.org/2000/svg">
<path opacity="0.4" d="M16.19 2H7.82001C4.18001 2 2.01001 4.17 2.01001 7.81V16.18C2.01001 19.82 4.18001 21.99 7.82001 21.99H16.19C19.83 21.99 22 19.82 22 16.18V7.81C22 4.17 19.83 2 16.19 2Z" fill="#171717"/>
<path d="M8.19 16.78H9.68C10.77 16.78 11.62 15.93 11.62 14.84V13.35C11.62 12.26 10.77 11.41 9.68 11.41H7.77C7.85 9.59997 8.27 9.33 9.48 8.62C9.84 8.41 9.95 7.95003 9.74 7.59003C9.6 7.35003 9.35 7.21997 9.09 7.21997C8.96 7.21997 8.83 7.25001 8.71 7.32001C6.92 8.38001 6.25 9.07002 6.25 12.15V14.82C6.25 15.91 7.12 16.78 8.19 16.78Z" fill="#171717"/>
<path d="M14.32 16.78H15.81C16.9 16.78 17.75 15.93 17.75 14.84V13.35C17.75 12.26 16.9 11.41 15.81 11.41H13.9C13.98 9.59997 14.4 9.33 15.61 8.62C15.97 8.41 16.08 7.95003 15.87 7.59003C15.73 7.35003 15.48 7.21997 15.22 7.21997C15.09 7.21997 14.96 7.25001 14.84 7.32001C13.05 8.38001 12.38 9.07002 12.38 12.15V14.82C12.39 15.91 13.26 16.78 14.32 16.78Z" fill="#171717"/>
</svg>
