<svg width="24" height="24" viewBox="0 0 24 24" fill="none" xmlns="http://www.w3.org/2000/svg">
<path opacity="0.4" d="M16.19 2H7.81C4.17 2 2 4.17 2 7.81V16.18C2 19.83 4.17 22 7.81 22H16.18C19.82 22 21.99 19.83 21.99 16.19V7.81C22 4.17 19.83 2 16.19 2Z" fill="#171717"/>
<path d="M11.43 18.1801C9.13 18.1801 7.25 16.3001 7.25 14.0001V10.5701C7.25 7.95007 9.38 5.82007 12 5.82007C14.62 5.82007 16.75 7.95007 16.75 10.5701V13.7101C16.75 15.2301 15.52 16.4601 14 16.4601C12.48 16.4601 11.25 15.2301 11.25 13.7101V11.7101C11.25 11.3001 11.59 10.9601 12 10.9601C12.41 10.9601 12.75 11.3001 12.75 11.7101V13.7101C12.75 14.4001 13.31 14.9601 14 14.9601C14.69 14.9601 15.25 14.4001 15.25 13.7101V10.5701C15.25 8.78007 13.79 7.32007 12 7.32007C10.21 7.32007 8.75 8.78007 8.75 10.5701V14.0001C8.75 15.4801 9.95 16.6801 11.43 16.6801C11.84 16.6801 12.18 17.0201 12.18 17.4301C12.18 17.8401 11.84 18.1801 11.43 18.1801Z" fill="#171717"/>
</svg>
