<svg width="24" height="24" viewBox="0 0 24 24" fill="none" xmlns="http://www.w3.org/2000/svg">
<g clip-path="url(#clip0_211_66664)">
<path d="M7.00142 18.0002C5.7537 18.0002 4.55708 17.5261 3.6748 16.6822C2.79253 15.8383 2.29687 14.6937 2.29688 13.5002C2.29687 12.3067 2.79253 11.1621 3.6748 10.3182C4.55708 9.4743 5.7537 9.0002 7.00142 9.0002C7.29611 7.68737 8.15818 6.53368 9.39801 5.79291C10.0119 5.42612 10.7001 5.17174 11.4232 5.04431C12.1463 4.91687 12.8903 4.91887 13.6125 5.0502C14.3348 5.18152 15.0213 5.43959 15.6327 5.80968C16.2442 6.17976 16.7686 6.65461 17.1762 7.20712C17.5837 7.75963 17.8664 8.37898 18.008 9.02979C18.1496 9.68061 18.1473 10.3502 18.0014 11.0002H19.0014C19.9297 11.0002 20.8199 11.3689 21.4763 12.0253C22.1327 12.6817 22.5014 13.5719 22.5014 14.5002C22.5014 15.4285 22.1327 16.3187 21.4763 16.9751C20.8199 17.6314 19.9297 18.0002 19.0014 18.0002H18.0014" stroke="black" stroke-width="1.5" stroke-linecap="round" stroke-linejoin="round"/>
<path d="M9 15L12 12L15 15" stroke="black" stroke-width="1.5" stroke-linecap="round" stroke-linejoin="round"/>
<path d="M12 12V21" stroke="black" stroke-width="1.5" stroke-linecap="round" stroke-linejoin="round"/>
</g>
<defs>
<clipPath id="clip0_211_66664">
<rect width="24" height="24" fill="white"/>
</clipPath>
</defs>
</svg>
