<svg width="24" height="24" viewBox="0 0 24 24" fill="none" xmlns="http://www.w3.org/2000/svg">
<g clip-path="url(#clip0_211_66654)">
<path d="M18.9998 18.0004C19.928 18.0004 20.8183 17.6317 21.4746 16.9753C22.131 16.3189 22.4998 15.4287 22.4998 14.5004C22.4998 13.5721 22.131 12.6819 21.4746 12.0255C20.8183 11.3692 19.928 11.0004 18.9998 11.0004H17.9998C18.3968 9.23241 17.7148 7.40741 16.2118 6.21341C14.7088 5.02041 12.6118 4.63841 10.7118 5.21341C8.81176 5.78841 7.39676 7.23241 6.99976 9.00041C4.80076 8.91241 2.84476 10.3264 2.33376 12.3734C1.82176 14.4204 2.89776 16.5274 4.89976 17.4004" stroke="black" stroke-width="1.5" stroke-linecap="round" stroke-linejoin="round"/>
<path d="M8 16C8 15.7348 8.10536 15.4804 8.29289 15.2929C8.48043 15.1054 8.73478 15 9 15H15C15.2652 15 15.5196 15.1054 15.7071 15.2929C15.8946 15.4804 16 15.7348 16 16V19C16 19.2652 15.8946 19.5196 15.7071 19.7071C15.5196 19.8946 15.2652 20 15 20H9C8.73478 20 8.48043 19.8946 8.29289 19.7071C8.10536 19.5196 8 19.2652 8 19V16Z" stroke="black" stroke-width="1.5" stroke-linecap="round" stroke-linejoin="round"/>
<path d="M10 15.0001V13.0001C9.99849 12.5585 10.1431 12.1289 10.4114 11.7782C10.6796 11.4274 11.0563 11.1753 11.4829 11.0612C11.9094 10.947 12.3617 10.9772 12.7693 11.147C13.1769 11.3169 13.5168 11.6168 13.736 12.0001" stroke="black" stroke-width="1.5" stroke-linecap="round" stroke-linejoin="round"/>
</g>
<defs>
<clipPath id="clip0_211_66654">
<rect width="24" height="24" fill="white"/>
</clipPath>
</defs>
</svg>
