<svg width="24" height="24" viewBox="0 0 24 24" fill="none" xmlns="http://www.w3.org/2000/svg">
<g clip-path="url(#clip0_211_66152)">
<path d="M12 17H4C4.54494 16.6914 5.00981 16.2592 5.35719 15.7381C5.70457 15.2171 5.92474 14.6217 6 14V11C6.05956 9.73107 6.4633 8.50227 7.16795 7.4453C7.8726 6.38833 8.85159 5.54303 10 5C10 4.46957 10.2107 3.96086 10.5858 3.58579C10.9609 3.21071 11.4696 3 12 3C12.5304 3 13.0391 3.21071 13.4142 3.58579C13.7893 3.96086 14 4.46957 14 5C15.1484 5.54303 16.1274 6.38833 16.8321 7.4453C17.5367 8.50227 17.9404 9.73107 18 11" stroke="black" stroke-width="1.5" stroke-linecap="round" stroke-linejoin="round"/>
<path d="M9 17V18C8.99999 18.4483 9.10046 18.8909 9.29402 19.2953C9.48758 19.6997 9.7693 20.0555 10.1185 20.3367C10.4677 20.6179 10.8754 20.8172 11.3118 20.9201C11.7481 21.0229 12.202 21.0266 12.64 20.931" stroke="black" stroke-width="1.5" stroke-linecap="round" stroke-linejoin="round"/>
<path d="M21.121 20.1207C21.5406 19.7011 21.8265 19.1666 21.9423 18.5846C22.0581 18.0027 21.9988 17.3994 21.7717 16.8512C21.5447 16.303 21.1602 15.8344 20.6668 15.5047C20.1734 15.175 19.5934 14.999 19 14.999C18.4066 14.999 17.8266 15.175 17.3332 15.5047C16.8398 15.8344 16.4553 16.303 16.2283 16.8512C16.0012 17.3994 15.9419 18.0027 16.0577 18.5846C16.1735 19.1666 16.4594 19.7011 16.879 20.1207C17.297 20.5397 18.004 21.1657 19 21.9997C20.051 21.1097 20.759 20.4837 21.121 20.1207Z" stroke="black" stroke-width="1.5" stroke-linecap="round" stroke-linejoin="round"/>
<path d="M19 18V18.01" stroke="black" stroke-width="1.5" stroke-linecap="round" stroke-linejoin="round"/>
</g>
<defs>
<clipPath id="clip0_211_66152">
<rect width="24" height="24" fill="white"/>
</clipPath>
</defs>
</svg>
