<svg width="24" height="24" viewBox="0 0 24 24" fill="none" xmlns="http://www.w3.org/2000/svg">
<g clip-path="url(#clip0_211_66447)">
<path d="M20.9965 12.2497C21.0467 10.4478 20.5547 8.6724 19.5842 7.1534C18.6137 5.63439 17.2094 4.44181 15.5532 3.73014C13.8971 3.01848 12.0654 2.82052 10.2955 3.16192C8.52551 3.50331 6.89885 4.36833 5.62621 5.64491C4.35357 6.9215 3.49359 8.55082 3.15767 10.3218C2.82174 12.0928 3.02536 13.9239 3.74215 15.5778C4.45893 17.2318 5.65585 18.6323 7.17785 19.5982C8.69985 20.564 10.4768 21.0505 12.2785 20.9947" stroke="black" stroke-width="1.5" stroke-linecap="round" stroke-linejoin="round"/>
<path d="M16 19C16 19.7956 16.3161 20.5587 16.8787 21.1213C17.4413 21.6839 18.2044 22 19 22C19.7956 22 20.5587 21.6839 21.1213 21.1213C21.6839 20.5587 22 19.7956 22 19C22 18.2044 21.6839 17.4413 21.1213 16.8787C20.5587 16.3161 19.7956 16 19 16C18.2044 16 17.4413 16.3161 16.8787 16.8787C16.3161 17.4413 16 18.2044 16 19Z" stroke="black" stroke-width="1.5" stroke-linecap="round" stroke-linejoin="round"/>
<path d="M17 21L21 17" stroke="black" stroke-width="1.5" stroke-linecap="round" stroke-linejoin="round"/>
<path d="M12 7V12L14 14" stroke="black" stroke-width="1.5" stroke-linecap="round" stroke-linejoin="round"/>
</g>
<defs>
<clipPath id="clip0_211_66447">
<rect width="24" height="24" fill="white"/>
</clipPath>
</defs>
</svg>
