<svg width="24" height="24" viewBox="0 0 24 24" fill="none" xmlns="http://www.w3.org/2000/svg">
<g clip-path="url(#clip0_211_66578)">
<path d="M20.971 11.278C20.8284 9.50647 20.1645 7.81679 19.0629 6.42202C17.9614 5.02726 16.4715 3.98986 14.7812 3.44063C13.0909 2.89141 11.2758 2.85494 9.56484 3.33583C7.85384 3.81672 6.32353 4.79343 5.16685 6.14283C4.01016 7.49222 3.2789 9.15387 3.06526 10.9183C2.85163 12.6827 3.16517 14.4709 3.96638 16.0573C4.76758 17.6438 6.02056 18.9575 7.56734 19.8328C9.11413 20.7082 10.8855 21.106 12.658 20.976" stroke="black" stroke-width="1.5" stroke-linecap="round" stroke-linejoin="round"/>
<path d="M12 7V12L13.5 13.5" stroke="black" stroke-width="1.5" stroke-linecap="round" stroke-linejoin="round"/>
<path d="M21.121 20.1207C21.5406 19.7011 21.8265 19.1666 21.9423 18.5846C22.0581 18.0027 21.9988 17.3994 21.7717 16.8512C21.5447 16.303 21.1602 15.8344 20.6668 15.5047C20.1734 15.175 19.5934 14.999 19 14.999C18.4066 14.999 17.8266 15.175 17.3332 15.5047C16.8398 15.8344 16.4553 16.303 16.2283 16.8512C16.0012 17.3994 15.9419 18.0027 16.0577 18.5846C16.1735 19.1666 16.4594 19.7011 16.879 20.1207C17.297 20.5397 18.004 21.1657 19 21.9997C20.051 21.1097 20.759 20.4837 21.121 20.1207Z" stroke="black" stroke-width="1.5" stroke-linecap="round" stroke-linejoin="round"/>
<path d="M19 18V18.01" stroke="black" stroke-width="1.5" stroke-linecap="round" stroke-linejoin="round"/>
</g>
<defs>
<clipPath id="clip0_211_66578">
<rect width="24" height="24" fill="white"/>
</clipPath>
</defs>
</svg>
