<svg width="24" height="24" viewBox="0 0 24 24" fill="none" xmlns="http://www.w3.org/2000/svg">
<g clip-path="url(#clip0_211_67046)">
<path d="M6.154 6.18652C5.80904 6.34756 5.51721 6.6037 5.31279 6.92485C5.10837 7.24601 4.99986 7.61883 5 7.99952V16.9995C5 17.53 5.21071 18.0387 5.58579 18.4137C5.96086 18.7888 6.46957 18.9995 7 18.9995H16C16.38 18.9996 16.7522 18.8913 17.0729 18.6875C17.3937 18.4836 17.6497 18.1926 17.811 17.8485" stroke="black" stroke-width="1.5" stroke-linecap="round" stroke-linejoin="round"/>
<path d="M14 7C14 7.79565 14.3161 8.55871 14.8787 9.12132C15.4413 9.68393 16.2044 10 17 10C17.7956 10 18.5587 9.68393 19.1213 9.12132C19.6839 8.55871 20 7.79565 20 7C20 6.20435 19.6839 5.44129 19.1213 4.87868C18.5587 4.31607 17.7956 4 17 4C16.2044 4 15.4413 4.31607 14.8787 4.87868C14.3161 5.44129 14 6.20435 14 7Z" stroke="black" stroke-width="1.5" stroke-linecap="round" stroke-linejoin="round"/>
<path d="M3 3L21 21" stroke="black" stroke-width="1.5" stroke-linecap="round" stroke-linejoin="round"/>
</g>
<defs>
<clipPath id="clip0_211_67046">
<rect width="24" height="24" fill="white"/>
</clipPath>
</defs>
</svg>
