<svg width="24" height="24" viewBox="0 0 24 24" fill="none" xmlns="http://www.w3.org/2000/svg">
<g clip-path="url(#clip0_211_66801)">
<path d="M3.05078 11.0001C3.25607 8.96202 4.15235 7.05548 5.59078 5.59711M7.90478 3.90011C9.59917 3.03259 11.525 2.72464 13.4054 3.02054C15.2858 3.31644 17.024 4.20095 18.3701 5.54692C19.7162 6.89289 20.6008 8.631 20.8969 10.5114C21.193 12.3918 20.8852 14.3176 20.0178 16.0121M18.3228 18.3241C17.2494 19.382 15.9276 20.1534 14.4786 20.5676C13.0295 20.9818 11.4997 21.0254 10.0294 20.6946C8.5591 20.3637 7.19542 19.669 6.06347 18.674C4.93152 17.6791 4.06753 16.4158 3.55078 15.0001M3.05078 20.0001V15.0001H8.05078" stroke="black" stroke-width="1.5" stroke-linecap="round" stroke-linejoin="round"/>
<path d="M3 3L21 21" stroke="black" stroke-width="1.5" stroke-linecap="round" stroke-linejoin="round"/>
</g>
<defs>
<clipPath id="clip0_211_66801">
<rect width="24" height="24" fill="white"/>
</clipPath>
</defs>
</svg>
