<svg width="24" height="24" viewBox="0 0 24 24" fill="none" xmlns="http://www.w3.org/2000/svg">
<g clip-path="url(#clip0_211_67388)">
<path d="M8.17969 8.18942C8.37212 8.8055 8.71043 9.36603 9.16587 9.82339C9.62131 10.2807 10.1804 10.6214 10.7957 10.8164M14.3027 10.2714C14.7799 9.93473 15.1777 9.49762 15.4679 8.99079C15.7582 8.48396 15.9339 7.91973 15.9828 7.33772C16.0317 6.75572 15.9525 6.17007 15.7509 5.62193C15.5492 5.07378 15.23 4.57645 14.8156 4.16487C14.4012 3.7533 13.9017 3.43746 13.3522 3.23956C12.8027 3.04165 12.2165 2.96649 11.6349 3.01934C11.0532 3.07219 10.4902 3.25178 9.98534 3.54549C9.4805 3.83919 9.04611 4.23989 8.71269 4.71942" stroke="black" stroke-width="1.5" stroke-linecap="round" stroke-linejoin="round"/>
<path d="M6 21V19C6 17.9391 6.42143 16.9217 7.17157 16.1716C7.92172 15.4214 8.93913 15 10 15H14C14.412 15 14.81 15.062 15.183 15.178M17.816 17.796C17.936 18.176 18 18.581 18 19V21" stroke="black" stroke-width="1.5" stroke-linecap="round" stroke-linejoin="round"/>
<path d="M3 3L21 21" stroke="black" stroke-width="1.5" stroke-linecap="round" stroke-linejoin="round"/>
</g>
<defs>
<clipPath id="clip0_211_67388">
<rect width="24" height="24" fill="white"/>
</clipPath>
</defs>
</svg>
