<svg width="24" height="24" viewBox="0 0 24 24" fill="none" xmlns="http://www.w3.org/2000/svg">
<g clip-path="url(#clip0_211_66567)">
<path d="M5.63338 5.64041C4.787 6.47413 4.11406 7.46718 3.65338 8.56227C3.1927 9.65737 2.9534 10.8328 2.94927 12.0209C2.94515 13.2089 3.17628 14.386 3.62935 15.4843C4.08241 16.5826 4.74844 17.5803 5.58901 18.4198C6.42958 19.2594 7.42806 19.9243 8.52686 20.376C9.62566 20.8278 10.803 21.0576 11.9911 21.052C13.1791 21.0465 14.3543 20.8058 15.4488 20.3438C16.5434 19.8819 17.5357 19.2078 18.3684 18.3604M20.0424 16.0404C20.8914 14.3499 21.1862 12.4349 20.8849 10.5673C20.5835 8.69979 19.7014 6.97467 18.3638 5.63702C17.0261 4.29938 15.301 3.41724 13.4334 3.1159C11.5659 2.81457 9.65085 3.10936 7.96038 3.95841" stroke="black" stroke-width="1.5" stroke-linecap="round" stroke-linejoin="round"/>
<path d="M12 7V8" stroke="black" stroke-width="1.5" stroke-linecap="round" stroke-linejoin="round"/>
<path d="M3 3L21 21" stroke="black" stroke-width="1.5" stroke-linecap="round" stroke-linejoin="round"/>
</g>
<defs>
<clipPath id="clip0_211_66567">
<rect width="24" height="24" fill="white"/>
</clipPath>
</defs>
</svg>
