<svg width="24" height="24" viewBox="0 0 24 24" fill="none" xmlns="http://www.w3.org/2000/svg">
<g clip-path="url(#clip0_211_67092)">
<path d="M12 16V16.01" stroke="black" stroke-width="1.5" stroke-linecap="round" stroke-linejoin="round"/>
<path d="M12 13C12.4498 13.0014 12.8868 12.8511 13.2407 12.5734C13.5945 12.2958 13.8444 11.907 13.95 11.4698C14.0557 11.0327 14.0109 10.5726 13.8229 10.1641C13.6349 9.75549 13.3147 9.42219 12.914 9.21801C12.5162 9.01422 12.0611 8.95103 11.6228 9.03873C11.1845 9.12642 10.7888 9.35984 10.5 9.70101" stroke="black" stroke-width="1.5" stroke-linecap="round" stroke-linejoin="round"/>
<path d="M9.99953 20.7766C9.12914 20.5792 8.29321 20.2526 7.51953 19.8076" stroke="black" stroke-width="1.5" stroke-linecap="round" stroke-linejoin="round"/>
<path d="M14 3.22266C15.9882 3.67673 17.7632 4.79235 19.0347 6.38686C20.3061 7.98138 20.9984 9.96031 20.9984 11.9997C20.9984 14.039 20.3061 16.0179 19.0347 17.6125C17.7632 19.207 15.9882 20.3226 14 20.7767" stroke="black" stroke-width="1.5" stroke-linecap="round" stroke-linejoin="round"/>
<path d="M4.57856 17.093C4.03307 16.3004 3.61876 15.4252 3.35156 14.501" stroke="black" stroke-width="1.5" stroke-linecap="round" stroke-linejoin="round"/>
<path d="M3.125 10.4995C3.285 9.54953 3.593 8.64953 4.025 7.82453L4.194 7.51953" stroke="black" stroke-width="1.5" stroke-linecap="round" stroke-linejoin="round"/>
<path d="M6.90625 4.57866C7.8419 3.93456 8.89157 3.47437 9.99925 3.22266" stroke="black" stroke-width="1.5" stroke-linecap="round" stroke-linejoin="round"/>
</g>
<defs>
<clipPath id="clip0_211_67092">
<rect width="24" height="24" fill="white"/>
</clipPath>
</defs>
</svg>
