<svg width="24" height="24" viewBox="0 0 24 24" fill="none" xmlns="http://www.w3.org/2000/svg">
<g clip-path="url(#clip0_211_66458)">
<path d="M20.9311 13.111C21.1539 11.3196 20.8328 9.50253 20.0096 7.89593C19.1864 6.28933 17.899 4.96742 16.3148 4.10193C14.7306 3.23644 12.9227 2.86737 11.126 3.04266C9.32927 3.21795 7.6268 3.9295 6.23973 5.08488C4.85266 6.24026 3.8451 7.78606 3.34792 9.52148C2.85075 11.2569 2.88696 13.1017 3.45183 14.8163C4.0167 16.5309 5.08413 18.036 6.51546 19.136C7.94679 20.2361 9.67586 20.8803 11.4781 20.985" stroke="black" stroke-width="1.5" stroke-linecap="round" stroke-linejoin="round"/>
<path d="M20 21L22 19L20 17" stroke="black" stroke-width="1.5" stroke-linecap="round" stroke-linejoin="round"/>
<path d="M17 17L15 19L17 21" stroke="black" stroke-width="1.5" stroke-linecap="round" stroke-linejoin="round"/>
<path d="M12 7V12L14 14" stroke="black" stroke-width="1.5" stroke-linecap="round" stroke-linejoin="round"/>
</g>
<defs>
<clipPath id="clip0_211_66458">
<rect width="24" height="24" fill="white"/>
</clipPath>
</defs>
</svg>
