<svg width="24" height="24" viewBox="0 0 24 24" fill="none" xmlns="http://www.w3.org/2000/svg">
<g clip-path="url(#clip0_211_66487)">
<path d="M21 12.0003C20.9999 10.2618 20.4962 8.56048 19.5499 7.10205C18.6035 5.64363 17.255 4.49051 15.6674 3.78207C14.0797 3.07364 12.3208 2.84022 10.6033 3.11001C8.88584 3.37981 7.28325 4.14128 5.98927 5.30239C4.69529 6.4635 3.7653 7.97454 3.31171 9.65288C2.85812 11.3312 2.90035 13.105 3.43329 14.7599C3.96623 16.4147 4.96707 17.8798 6.31484 18.978C7.66261 20.0762 9.29962 20.7606 11.028 20.9483C11.348 20.9823 11.672 21.0003 12 21.0003" stroke="black" stroke-width="1.5" stroke-linecap="round" stroke-linejoin="round"/>
<path d="M12 7V12L14 14" stroke="black" stroke-width="1.5" stroke-linecap="round" stroke-linejoin="round"/>
<path d="M18.42 15.61C18.615 15.415 18.8465 15.2603 19.1013 15.1547C19.3561 15.0492 19.6292 14.9949 19.905 14.9949C20.1808 14.9949 20.4539 15.0492 20.7087 15.1547C20.9635 15.2603 21.195 15.415 21.39 15.61C21.585 15.805 21.7397 16.0365 21.8452 16.2913C21.9508 16.5461 22.0051 16.8192 22.0051 17.095C22.0051 17.3708 21.9508 17.6439 21.8452 17.8987C21.7397 18.1535 21.585 18.385 21.39 18.58L18 22H15V19L18.42 15.61Z" stroke="black" stroke-width="1.5" stroke-linecap="round" stroke-linejoin="round"/>
</g>
<defs>
<clipPath id="clip0_211_66487">
<rect width="24" height="24" fill="white"/>
</clipPath>
</defs>
</svg>
