<svg width="24" height="24" viewBox="0 0 24 24" fill="none" xmlns="http://www.w3.org/2000/svg">
<g clip-path="url(#clip0_211_66649)">
<path d="M18.9995 18.0002C19.9278 18.0002 20.818 17.6314 21.4744 16.9751C22.1308 16.3187 22.4995 15.4285 22.4995 14.5002C22.4995 13.5719 22.1308 12.6817 21.4744 12.0253C20.818 11.3689 19.9278 11.0002 18.9995 11.0002H17.9995C18.1454 10.3502 18.1476 9.68061 18.006 9.02979C17.8644 8.37898 17.5818 7.75963 17.1743 7.20712C16.7667 6.65461 16.2422 6.17976 15.6308 5.80968C15.0193 5.43959 14.3329 5.18152 13.6106 5.0502C12.8883 4.91887 12.1444 4.91687 11.4213 5.04431C10.6981 5.17174 10.01 5.42612 9.39609 5.79291C8.15626 6.53368 7.29419 7.68737 6.9995 9.0002C5.93345 8.95749 4.88504 9.2706 4.03377 9.88589C3.1825 10.5012 2.58132 11.3804 2.33317 12.373C2.08502 13.3656 2.20533 14.4099 2.6735 15.327C3.14167 16.2441 3.92858 16.977 4.8995 17.4002" stroke="black" stroke-width="1.5" stroke-linecap="round" stroke-linejoin="round"/>
<path d="M12 13V22" stroke="black" stroke-width="1.5" stroke-linecap="round" stroke-linejoin="round"/>
<path d="M9 19L12 22L15 19" stroke="black" stroke-width="1.5" stroke-linecap="round" stroke-linejoin="round"/>
</g>
<defs>
<clipPath id="clip0_211_66649">
<rect width="24" height="24" fill="white"/>
</clipPath>
</defs>
</svg>
