<svg width="24" height="24" viewBox="0 0 24 24" fill="none" xmlns="http://www.w3.org/2000/svg">
<g clip-path="url(#clip0_211_66589)">
<path d="M20.984 12.535C21.0925 10.7133 20.6447 8.90176 19.7 7.34049C18.7553 5.77921 17.3583 4.54201 15.6942 3.79294C14.0302 3.04387 12.1778 2.81834 10.3827 3.14626C8.58752 3.47418 6.93446 4.34004 5.64273 5.62903C4.35099 6.91802 3.48161 8.56923 3.14987 10.3637C2.81814 12.1581 3.03973 14.011 3.78525 15.6766C4.53077 17.3422 5.76501 18.7419 7.32427 19.6899C8.88353 20.6379 10.6941 21.0896 12.516 20.985" stroke="black" stroke-width="1.5" stroke-linecap="round" stroke-linejoin="round"/>
<path d="M16 19H22" stroke="black" stroke-width="1.5" stroke-linecap="round" stroke-linejoin="round"/>
<path d="M19 16V22" stroke="black" stroke-width="1.5" stroke-linecap="round" stroke-linejoin="round"/>
<path d="M12 7V12L15 15" stroke="black" stroke-width="1.5" stroke-linecap="round" stroke-linejoin="round"/>
</g>
<defs>
<clipPath id="clip0_211_66589">
<rect width="24" height="24" fill="white"/>
</clipPath>
</defs>
</svg>
