<svg width="24" height="24" viewBox="0 0 24 24" fill="none" xmlns="http://www.w3.org/2000/svg">
<g clip-path="url(#clip0_211_66669)">
<path d="M11.1746 11.1777C10.8795 11.3114 10.6213 11.5148 10.4222 11.7704C10.2231 12.026 10.0891 12.3261 10.0317 12.645C9.97424 12.9638 9.99513 13.2918 10.0925 13.6008C10.19 13.9098 10.361 14.1905 10.5909 14.4188C10.8208 14.647 11.1027 14.816 11.4124 14.9112C11.7221 15.0064 12.0502 15.0249 12.3687 14.9652C12.6871 14.9055 12.9862 14.7693 13.2404 14.5684C13.4945 14.3675 13.6961 14.1078 13.8276 13.8117" stroke="black" stroke-width="1.5" stroke-linecap="round" stroke-linejoin="round"/>
<path d="M14.5 10.5L15.5 9.5" stroke="black" stroke-width="1.5" stroke-linecap="round" stroke-linejoin="round"/>
<path d="M8.62128 4.6116C10.2599 3.94777 12.0578 3.78129 13.7905 4.13294C15.5232 4.48458 17.1139 5.33878 18.3642 6.5889C19.6144 7.83901 20.4687 9.42968 20.8205 11.1623C21.1723 12.895 21.006 14.6929 20.3423 16.3316M18.8263 18.8196C18.4558 19.2507 18.0453 19.6458 17.6003 19.9996H6.40028C5.36278 19.175 4.52019 18.1315 3.93269 16.9436C3.34519 15.7557 3.02728 14.4527 3.00168 13.1277C2.97608 11.8027 3.24341 10.4884 3.78458 9.27863C4.32576 8.06891 5.12741 6.99362 6.13228 6.1296" stroke="black" stroke-width="1.5" stroke-linecap="round" stroke-linejoin="round"/>
<path d="M3 3L21 21" stroke="black" stroke-width="1.5" stroke-linecap="round" stroke-linejoin="round"/>
</g>
<defs>
<clipPath id="clip0_211_66669">
<rect width="24" height="24" fill="white"/>
</clipPath>
</defs>
</svg>
