<svg width="24" height="24" viewBox="0 0 24 24" fill="none" xmlns="http://www.w3.org/2000/svg">
<path d="M15.0002 22.75C14.7302 22.75 14.4802 22.6 14.3502 22.37C14.2202 22.13 14.2202 21.85 14.3602 21.61L15.4102 19.86C15.6202 19.51 16.0802 19.39 16.4402 19.6C16.8002 19.81 16.9102 20.27 16.7002 20.63L16.4302 21.08C19.1902 20.43 21.2602 17.95 21.2602 14.99C21.2602 14.58 21.6002 14.24 22.0102 14.24C22.4202 14.24 22.7602 14.58 22.7602 14.99C22.7502 19.27 19.2702 22.75 15.0002 22.75Z" fill="#171717"/>
<path d="M2 9.75C1.59 9.75 1.25 9.41 1.25 9C1.25 4.73 4.73 1.25 9 1.25C9.27 1.25 9.52 1.4 9.65 1.63C9.78 1.87 9.78 2.15 9.64 2.39L8.59 4.14C8.38 4.49 7.92 4.61 7.56 4.39C7.21 4.18 7.09 3.72 7.31 3.36L7.58 2.91C4.81 3.56 2.75 6.04 2.75 9C2.75 9.41 2.41 9.75 2 9.75Z" fill="#171717"/>
<path d="M16.4002 8.21002L12.6402 6.18002C12.2402 5.97002 11.7702 5.97002 11.3702 6.18002L7.60016 8.21002C7.33016 8.36002 7.16016 8.65002 7.16016 8.97002C7.16016 9.30002 7.33016 9.59002 7.60016 9.74002L11.3602 11.77C11.5602 11.88 11.7802 11.93 12.0002 11.93C12.2202 11.93 12.4402 11.88 12.6402 11.77L16.4002 9.74002C16.6702 9.59002 16.8402 9.30002 16.8402 8.97002C16.8402 8.65002 16.6702 8.36002 16.4002 8.21002Z" fill="#171717"/>
<path d="M10.74 12.47L7.24 10.72C6.97 10.59 6.66 10.6 6.4 10.76C6.15 10.92 6 11.19 6 11.49V14.8C6 15.37 6.32 15.89 6.83 16.14L10.33 17.89C10.45 17.95 10.58 17.98 10.72 17.98C10.88 17.98 11.03 17.94 11.17 17.85C11.43 17.69 11.58 17.42 11.58 17.12V13.81C11.57 13.24 11.26 12.73 10.74 12.47Z" fill="#171717"/>
<path d="M17.5899 10.76C17.3299 10.6 17.0199 10.59 16.7499 10.72L13.2499 12.47C12.7399 12.73 12.4199 13.24 12.4199 13.81V17.12C12.4199 17.42 12.5699 17.69 12.8299 17.85C12.9699 17.94 13.1199 17.98 13.2799 17.98C13.4099 17.98 13.5399 17.95 13.6699 17.89L17.1699 16.14C17.6799 15.88 17.9999 15.37 17.9999 14.8V11.49C17.9999 11.19 17.8499 10.92 17.5899 10.76Z" fill="#171717"/>
</svg>
