<svg width="24" height="24" viewBox="0 0 24 24" fill="none" xmlns="http://www.w3.org/2000/svg">
<path d="M22 9.75C21.59 9.75 21.25 9.41 21.25 9V7C21.25 4.42 19.58 2.75 17 2.75H7C4.42 2.75 2.75 4.42 2.75 7V9C2.75 9.41 2.41 9.75 2 9.75C1.59 9.75 1.25 9.41 1.25 9V7C1.25 3.56 3.56 1.25 7 1.25H17C20.44 1.25 22.75 3.56 22.75 7V9C22.75 9.41 22.41 9.75 22 9.75Z" fill="#171717"/>
<path d="M17 22.75H7C3.56 22.75 1.25 20.44 1.25 17V15C1.25 14.59 1.59 14.25 2 14.25C2.41 14.25 2.75 14.59 2.75 15V17C2.75 19.58 4.42 21.25 7 21.25H17C19.58 21.25 21.25 19.58 21.25 17V15C21.25 14.59 21.59 14.25 22 14.25C22.41 14.25 22.75 14.59 22.75 15V17C22.75 20.44 20.44 22.75 17 22.75Z" fill="#171717"/>
<path d="M16.4002 8.21002L12.6402 6.18002C12.2402 5.97002 11.7702 5.97002 11.3702 6.18002L7.60016 8.21002C7.33016 8.36002 7.16016 8.65002 7.16016 8.97002C7.16016 9.30002 7.33016 9.59002 7.60016 9.74002L11.3602 11.77C11.5602 11.88 11.7802 11.93 12.0002 11.93C12.2202 11.93 12.4402 11.88 12.6402 11.77L16.4002 9.74002C16.6702 9.59002 16.8402 9.30002 16.8402 8.97002C16.8402 8.65002 16.6702 8.36002 16.4002 8.21002Z" fill="#171717"/>
<path d="M10.74 12.47L7.24 10.72C6.97 10.59 6.66 10.6 6.4 10.76C6.15 10.92 6 11.19 6 11.49V14.8C6 15.37 6.32 15.89 6.83 16.14L10.33 17.89C10.45 17.95 10.58 17.98 10.72 17.98C10.88 17.98 11.03 17.94 11.17 17.85C11.43 17.69 11.58 17.42 11.58 17.12V13.81C11.57 13.24 11.26 12.73 10.74 12.47Z" fill="#171717"/>
<path d="M17.5899 10.76C17.3299 10.6 17.0199 10.59 16.7499 10.72L13.2499 12.47C12.7399 12.73 12.4199 13.24 12.4199 13.81V17.12C12.4199 17.42 12.5699 17.69 12.8299 17.85C12.9699 17.94 13.1199 17.98 13.2799 17.98C13.4099 17.98 13.5399 17.95 13.6699 17.89L17.1699 16.14C17.6799 15.88 17.9999 15.37 17.9999 14.8V11.49C17.9999 11.19 17.8499 10.92 17.5899 10.76Z" fill="#171717"/>
</svg>
