<svg width="24" height="24" viewBox="0 0 24 24" fill="none" xmlns="http://www.w3.org/2000/svg">
<path d="M17.6 5.31003L11.95 2.27003C11.35 1.95003 10.64 1.95003 10.04 2.27003L4.39998 5.31003C3.98998 5.54003 3.72998 5.98003 3.72998 6.46003C3.72998 6.95003 3.97998 7.39003 4.39998 7.61003L10.05 10.65C10.35 10.81 10.68 10.89 11 10.89C11.32 10.89 11.66 10.81 11.95 10.65L17.6 7.61003C18.01 7.39003 18.27 6.95003 18.27 6.46003C18.27 5.98003 18.01 5.54003 17.6 5.31003Z" fill="#171717"/>
<path d="M9.12 11.71L3.87 9.09003C3.46 8.88003 3 8.91003 2.61 9.14003C2.23 9.38003 2 9.79003 2 10.24V15.2C2 16.06 2.48 16.83 3.25 17.22L8.5 19.84C8.68 19.93 8.88 19.98 9.08 19.98C9.31 19.98 9.55 19.91 9.76 19.79C10.14 19.55 10.37 19.14 10.37 18.69V13.73C10.36 12.87 9.88 12.1 9.12 11.71Z" fill="#171717"/>
<path d="M20.0001 10.24V12.7C19.5201 12.56 19.0101 12.5 18.5001 12.5C17.1401 12.5 15.8101 12.97 14.7601 13.81C13.3201 14.94 12.5001 16.65 12.5001 18.5C12.5001 18.99 12.5601 19.48 12.6901 19.95C12.5401 19.93 12.3901 19.87 12.2501 19.78C11.8701 19.55 11.6401 19.14 11.6401 18.69V13.73C11.6401 12.87 12.1201 12.1 12.8801 11.71L18.1301 9.09003C18.5401 8.88003 19.0001 8.91003 19.3901 9.14003C19.7701 9.38003 20.0001 9.79003 20.0001 10.24Z" fill="#171717"/>
<path d="M21.6799 15.32C20.7899 14.43 19.6099 13.98 18.4399 14C17.3099 14.01 16.1799 14.46 15.3199 15.32C14.7199 15.91 14.3299 16.65 14.1399 17.42C14.0299 17.84 13.9899 18.27 14.0199 18.7V18.75C14.0199 18.82 14.0299 18.88 14.0399 18.96C14.0399 18.96 14.0399 18.96 14.0499 18.97V19C14.1399 19.98 14.5599 20.93 15.3199 21.68C16.4799 22.84 18.1099 23.23 19.5799 22.86C20.0199 22.75 20.4499 22.57 20.8499 22.33C21.1499 22.16 21.4299 21.94 21.6799 21.68C22.4299 20.93 22.8599 19.98 22.9499 18.99C22.9599 18.99 22.9599 18.97 22.9599 18.96C22.9799 18.89 22.9799 18.81 22.9799 18.74C22.9799 18.73 22.9899 18.71 22.9899 18.69C23.0499 17.48 22.6099 16.24 21.6799 15.32ZM20.2299 20.21C19.9399 20.5 19.4699 20.5 19.1699 20.21L18.5099 19.55L17.8299 20.23C17.5299 20.53 17.0599 20.53 16.7699 20.23C16.4699 19.94 16.4699 19.47 16.7699 19.17L17.4499 18.49L16.7899 17.83C16.4999 17.53 16.4999 17.06 16.7899 16.77C17.0899 16.47 17.5599 16.47 17.8599 16.77L18.5099 17.43L19.1399 16.79C19.4399 16.5 19.9099 16.5 20.2099 16.79C20.4999 17.09 20.4999 17.56 20.2099 17.86L19.5699 18.49L20.2299 19.14C20.5299 19.44 20.5299 19.91 20.2299 20.21Z" fill="#171717"/>
</svg>
