<svg width="24" height="24" viewBox="0 0 24 24" fill="none" xmlns="http://www.w3.org/2000/svg">
<path d="M21.6799 15.32C20.7899 14.43 19.6099 13.98 18.4399 14C17.3099 14.01 16.1799 14.46 15.3199 15.32C14.7199 15.91 14.3299 16.65 14.1399 17.42C14.0299 17.84 13.9899 18.27 14.0199 18.7V18.75C14.0199 18.82 14.0299 18.8801 14.0399 18.9601C14.0399 18.9601 14.0399 18.96 14.0499 18.97V19C14.1399 19.98 14.5599 20.93 15.3199 21.68C16.4799 22.84 18.1099 23.23 19.5799 22.86C20.0199 22.75 20.4499 22.57 20.8499 22.33C21.1499 22.16 21.4299 21.94 21.6799 21.68C22.4299 20.93 22.8599 19.98 22.9499 18.99C22.9599 18.99 22.9599 18.9701 22.9599 18.9601C22.9799 18.89 22.9799 18.81 22.9799 18.74C22.9799 18.73 22.9899 18.71 22.9899 18.69C23.0499 17.48 22.6099 16.24 21.6799 15.32ZM20.2299 20.2101C19.9399 20.5001 19.4699 20.5001 19.1699 20.2101L18.5099 19.55L17.8299 20.23C17.5299 20.53 17.0599 20.53 16.7699 20.23C16.4699 19.94 16.4699 19.47 16.7699 19.17L17.4499 18.49L16.7899 17.83C16.4999 17.53 16.4999 17.06 16.7899 16.77C17.0899 16.47 17.5599 16.47 17.8599 16.77L18.5099 17.43L19.1399 16.79C19.4399 16.5 19.9099 16.5 20.2099 16.79C20.4999 17.09 20.4999 17.56 20.2099 17.86L19.5699 18.49L20.2299 19.14C20.5299 19.44 20.5299 19.91 20.2299 20.2101Z" fill="#171717"/>
<path opacity="0.4" d="M19.3499 5.65995L13.0599 2.27C12.3999 1.91 11.5999 1.91 10.9299 2.27L4.63992 5.65995C4.17992 5.90995 3.8999 6.39998 3.8999 6.93998C3.8999 7.47998 4.17992 7.96995 4.63992 8.21995L10.9299 11.61C11.2599 11.79 11.6299 11.88 11.9899 11.88C12.3499 11.88 12.7199 11.79 13.0499 11.61L19.3399 8.21995C19.7999 7.96995 20.0799 7.47998 20.0799 6.93998C20.0999 6.39998 19.8099 5.90995 19.3499 5.65995Z" fill="#171717"/>
<path opacity="0.4" d="M9.90021 12.79L4.0502 9.86001C3.6002 9.63001 3.08021 9.66001 2.65021 9.92001C2.22021 10.18 1.97021 10.64 1.97021 11.14V16.67C1.97021 17.63 2.5002 18.49 3.3602 18.92L9.21021 21.8401C9.4102 21.9401 9.63022 21.99 9.85022 21.99C10.1102 21.99 10.3702 21.92 10.6002 21.77C11.0302 21.51 11.2802 21.05 11.2802 20.55V15.02C11.2902 14.08 10.7602 13.22 9.90021 12.79Z" fill="#171717"/>
<path opacity="0.4" d="M22.03 11.15V15.74C22.02 15.73 22.01 15.71 22 15.7C22 15.69 21.99 15.68 21.98 15.67C21.94 15.61 21.89 15.55 21.84 15.5C21.83 15.49 21.82 15.47 21.81 15.46C21 14.56 19.81 14 18.5 14C17.24 14 16.09 14.52 15.27 15.36C14.48 16.17 14 17.28 14 18.5C14 19.34 14.24 20.14 14.65 20.82C14.82 21.11 15.03 21.37 15.26 21.61L14.79 21.85C14.59 21.95 14.37 22 14.15 22C13.89 22 13.63 21.93 13.39 21.78C12.97 21.52 12.71 21.06 12.71 20.56V15.04C12.71 14.08 13.24 13.22 14.1 12.79L19.95 9.87C20.4 9.64 20.92 9.66 21.35 9.93C21.77 10.19 22.03 10.65 22.03 11.15Z" fill="#171717"/>
</svg>
