<svg width="24" height="24" viewBox="0 0 24 24" fill="none" xmlns="http://www.w3.org/2000/svg">
<path d="M17.6 5.31003L11.95 2.27003C11.35 1.95003 10.64 1.95003 10.04 2.27003L4.39998 5.31003C3.98998 5.54003 3.72998 5.98003 3.72998 6.46003C3.72998 6.95003 3.97998 7.39003 4.39998 7.61003L10.05 10.65C10.35 10.81 10.68 10.89 11 10.89C11.32 10.89 11.66 10.81 11.95 10.65L17.6 7.61003C18.01 7.39003 18.27 6.95003 18.27 6.46003C18.27 5.98003 18.01 5.54003 17.6 5.31003Z" fill="#171717"/>
<path d="M9.12 11.71L3.87 9.09003C3.46 8.88003 3 8.91003 2.61 9.14003C2.23 9.38003 2 9.79003 2 10.24V15.2C2 16.06 2.48 16.83 3.25 17.22L8.5 19.84C8.68 19.93 8.88 19.98 9.08 19.98C9.31 19.98 9.55 19.91 9.76 19.79C10.14 19.55 10.37 19.14 10.37 18.69V13.73C10.36 12.87 9.88 12.1 9.12 11.71Z" fill="#171717"/>
<path d="M20.0001 10.24V12.7C19.5201 12.56 19.0101 12.5 18.5001 12.5C17.1401 12.5 15.8101 12.97 14.7601 13.81C13.3201 14.94 12.5001 16.65 12.5001 18.5C12.5001 18.99 12.5601 19.48 12.6901 19.95C12.5401 19.93 12.3901 19.87 12.2501 19.78C11.8701 19.55 11.6401 19.14 11.6401 18.69V13.73C11.6401 12.87 12.1201 12.1 12.8801 11.71L18.1301 9.09003C18.5401 8.88003 19.0001 8.91003 19.3901 9.14003C19.7701 9.38003 20.0001 9.79003 20.0001 10.24Z" fill="#171717"/>
<path d="M21.98 15.65C21.16 14.64 19.91 14 18.5 14C17.44 14 16.46 14.37 15.69 14.99C14.65 15.81 14 17.08 14 18.5C14 19.91 14.64 21.16 15.65 21.98C16.42 22.62 17.42 23 18.5 23C19.64 23 20.67 22.57 21.47 21.88C22.4 21.05 23 19.85 23 18.5C23 17.42 22.62 16.42 21.98 15.65ZM19.53 18.78C19.53 19.04 19.39 19.29 19.17 19.42L17.76 20.26C17.64 20.33 17.51 20.37 17.37 20.37C17.12 20.37 16.87 20.24 16.73 20.01C16.52 19.65 16.63 19.19 16.99 18.98L18.03 18.36V17.1C18.03 16.69 18.37 16.35 18.78 16.35C19.19 16.35 19.53 16.69 19.53 17.1V18.78Z" fill="#171717"/>
</svg>
