<svg width="24" height="24" viewBox="0 0 24 24" fill="none" xmlns="http://www.w3.org/2000/svg">
<path opacity="0.4" d="M20.0999 6.93998C20.0999 7.47998 19.8099 7.96995 19.3499 8.21995L17.6099 9.15995L16.1299 9.94999L13.0599 11.61C12.7299 11.79 12.3699 11.88 11.9999 11.88C11.6299 11.88 11.2699 11.79 10.9399 11.61L4.6499 8.21995C4.1899 7.96995 3.8999 7.47998 3.8999 6.93998C3.8999 6.39998 4.1899 5.90995 4.6499 5.65995L6.6199 4.59996L8.18991 3.74998L10.9399 2.27C11.5999 1.91 12.3999 1.91 13.0599 2.27L19.3499 5.65995C19.8099 5.90995 20.0999 6.39998 20.0999 6.93998Z" fill="#171717"/>
<path opacity="0.4" d="M9.90021 12.79L4.0502 9.86001C3.6002 9.63001 3.08021 9.66001 2.65021 9.92001C2.22021 10.18 1.97021 10.64 1.97021 11.14V16.67C1.97021 17.63 2.5002 18.49 3.3602 18.92L9.21021 21.8401C9.4102 21.9401 9.63022 21.99 9.85022 21.99C10.1102 21.99 10.3702 21.92 10.6002 21.77C11.0302 21.51 11.2802 21.05 11.2802 20.55V15.02C11.2902 14.08 10.7602 13.22 9.90021 12.79Z" fill="#171717"/>
<path opacity="0.4" d="M22.03 11.15V16.68C22.03 17.63 21.5 18.49 20.64 18.92L14.79 21.85C14.59 21.95 14.37 22 14.15 22C13.89 22 13.63 21.93 13.39 21.78C12.97 21.52 12.71 21.06 12.71 20.56V15.04C12.71 14.08 13.24 13.22 14.1 12.79L16.25 11.72L17.75 10.97L19.95 9.87C20.4 9.64 20.92 9.66 21.35 9.93C21.77 10.19 22.03 10.65 22.03 11.15Z" fill="#171717"/>
<path d="M22.6001 21.64L21.8401 20.88C22.2401 20.28 22.4701 19.56 22.4701 18.79C22.4701 16.68 20.7601 14.97 18.6501 14.97C16.5401 14.97 14.8301 16.68 14.8301 18.79C14.8301 20.9 16.5401 22.61 18.6501 22.61C19.4201 22.61 20.1401 22.38 20.7401 21.98L21.5001 22.74C21.6501 22.89 21.8501 22.97 22.0501 22.97C22.2501 22.97 22.4501 22.89 22.6001 22.74C22.9001 22.43 22.9001 21.94 22.6001 21.64Z" fill="#171717"/>
</svg>
