<svg width="24" height="24" viewBox="0 0 24 24" fill="none" xmlns="http://www.w3.org/2000/svg">
<path opacity="0.4" d="M16.1898 2.32996H7.81976C4.17976 2.32996 2.00977 4.49996 2.00977 8.13996V16.51C2.00977 20.15 4.17976 22.32 7.81976 22.32H16.1898C19.8298 22.32 21.9998 20.15 21.9998 16.51V8.14996C21.9998 4.50996 19.8298 2.32996 16.1898 2.32996Z" fill="#171717"/>
<path d="M16.3999 8.20996L12.6399 6.17996C12.2399 5.96996 11.7699 5.96996 11.3699 6.17996L7.60989 8.20996C7.33989 8.35996 7.16992 8.64996 7.16992 8.97996C7.16992 9.30996 7.33989 9.59996 7.60989 9.74996L11.3699 11.78C11.5699 11.89 11.7899 11.94 12.0099 11.94C12.2299 11.94 12.4499 11.89 12.6499 11.78L16.4099 9.74996C16.6799 9.59996 16.8499 9.30996 16.8499 8.97996C16.8399 8.64996 16.6699 8.35996 16.3999 8.20996Z" fill="#171717"/>
<path d="M10.7402 12.4701L7.24023 10.7201C6.97023 10.5901 6.66024 10.6001 6.40024 10.7601C6.14024 10.9201 5.99023 11.1901 5.99023 11.4901V14.8001C5.99023 15.3701 6.31025 15.8901 6.82025 16.1401L10.3203 17.8901C10.4403 17.9501 10.5702 17.9801 10.7102 17.9801C10.8702 17.9801 11.0202 17.9401 11.1602 17.8501C11.4202 17.6901 11.5703 17.4201 11.5703 17.1201V13.8101C11.5703 13.2401 11.2602 12.7301 10.7402 12.4701Z" fill="#171717"/>
<path d="M17.5899 10.7601C17.3299 10.6001 17.0199 10.5901 16.7499 10.7201L13.2499 12.4701C12.7399 12.7301 12.4199 13.2401 12.4199 13.8101V17.1201C12.4199 17.4201 12.5699 17.6901 12.8299 17.8501C12.9699 17.9401 13.1199 17.9801 13.2799 17.9801C13.4099 17.9801 13.5399 17.9501 13.6699 17.8901L17.1699 16.1401C17.6799 15.8801 17.9999 15.3701 17.9999 14.8001V11.4901C17.9999 11.1901 17.8499 10.9201 17.5899 10.7601Z" fill="#171717"/>
</svg>
