<svg width="24" height="24" viewBox="0 0 24 24" fill="none" xmlns="http://www.w3.org/2000/svg">
<path d="M9.42003 18.2001C8.92003 18.2001 7.15003 17.3701 6.62003 15.7201C6.29003 14.6901 6.68003 13.4201 7.75003 13.0701C8.32003 12.8901 9.02003 13.0401 9.41003 13.5901C9.78003 13.0201 10.51 12.8901 11.07 13.0701C12.15 13.4201 12.53 14.6901 12.21 15.7201" stroke="#171717" stroke-width="1.5" stroke-linecap="round" stroke-linejoin="round"/>
<path d="M2 9C2 4 4 2 9 2H14" stroke="#171717" stroke-width="1.5" stroke-linecap="round" stroke-linejoin="round"/>
<path d="M22 10V15C22 20 20 22 15 22H9C4 22 2 20 2 15V12.98" stroke="#171717" stroke-width="1.5" stroke-linecap="round" stroke-linejoin="round"/>
<path d="M18 10C15 10 14 9 14 6V2L22 10" stroke="#171717" stroke-width="1.5" stroke-linecap="round" stroke-linejoin="round"/>
</svg>
