<svg width="24" height="24" viewBox="0 0 24 24" fill="none" xmlns="http://www.w3.org/2000/svg">
<path opacity="0.4" d="M16.19 2H7.81C4.17 2 2 4.17 2 7.81V16.19C2 19.83 4.17 22 7.81 22H16.19C19.83 22 22 19.83 22 16.19V7.81C22 4.17 19.83 2 16.19 2Z" fill="#171717"/>
<path d="M18.3101 8.87012C18.3101 9.28012 17.9801 9.62012 17.5601 9.62012H12.3101C11.9001 9.62012 11.5601 9.28012 11.5601 8.87012C11.5601 8.46012 11.9001 8.12012 12.3101 8.12012H17.5601C17.9801 8.12012 18.3101 8.46012 18.3101 8.87012Z" fill="#171717"/>
<path d="M9.97006 7.90006L7.72006 10.1501C7.57006 10.3001 7.38006 10.3701 7.19006 10.3701C7.00006 10.3701 6.80006 10.3001 6.66006 10.1501L5.91006 9.40006C5.61006 9.11006 5.61006 8.63006 5.91006 8.34006C6.20006 8.05006 6.67006 8.05006 6.97006 8.34006L7.19006 8.56006L8.91006 6.84006C9.20006 6.55006 9.67006 6.55006 9.97006 6.84006C10.2601 7.13006 10.2601 7.61006 9.97006 7.90006Z" fill="#171717"/>
<path d="M18.3101 15.8701C18.3101 16.2801 17.9801 16.6201 17.5601 16.6201H12.3101C11.9001 16.6201 11.5601 16.2801 11.5601 15.8701C11.5601 15.4601 11.9001 15.1201 12.3101 15.1201H17.5601C17.9801 15.1201 18.3101 15.4601 18.3101 15.8701Z" fill="#171717"/>
<path d="M9.97006 14.9001L7.72006 17.1501C7.57006 17.3001 7.38006 17.3701 7.19006 17.3701C7.00006 17.3701 6.80006 17.3001 6.66006 17.1501L5.91006 16.4001C5.61006 16.1101 5.61006 15.6301 5.91006 15.3401C6.20006 15.0501 6.67006 15.0501 6.97006 15.3401L7.19006 15.5601L8.91006 13.8401C9.20006 13.5501 9.67006 13.5501 9.97006 13.8401C10.2601 14.1301 10.2601 14.6101 9.97006 14.9001Z" fill="#171717"/>
</svg>
