<svg width="24" height="24" viewBox="0 0 24 24" fill="none" xmlns="http://www.w3.org/2000/svg">
<g clip-path="url(#clip0_211_63593)">
<path d="M20.9553 11.1038C20.7858 9.41048 20.1397 7.79989 19.092 6.45889C18.0442 5.11788 16.6377 4.10142 15.0357 3.52741C13.4336 2.95341 11.7016 2.84538 10.0407 3.21587C8.37969 3.58636 6.8578 4.42017 5.65153 5.62059C4.44526 6.821 3.60406 8.33882 3.2255 9.99797C2.84694 11.6571 2.94654 13.3896 3.51275 14.9944C4.07896 16.5993 5.08857 18.0107 6.42447 19.0649C7.76036 20.1192 9.36778 20.7731 11.0603 20.9508" stroke="black" stroke-width="1.5" stroke-linecap="round" stroke-linejoin="round"/>
<path d="M9 10H9.01" stroke="black" stroke-width="1.5" stroke-linecap="round" stroke-linejoin="round"/>
<path d="M15 10H15.01" stroke="black" stroke-width="1.5" stroke-linecap="round" stroke-linejoin="round"/>
<path d="M9.5 15C10.158 15.672 11.06 16 12 16C12.126 16 12.251 15.994 12.376 15.982" stroke="black" stroke-width="1.5" stroke-linecap="round" stroke-linejoin="round"/>
<path d="M18.42 15.61C18.615 15.415 18.8465 15.2603 19.1013 15.1547C19.3561 15.0492 19.6292 14.9949 19.905 14.9949C20.1808 14.9949 20.4539 15.0492 20.7087 15.1547C20.9635 15.2603 21.195 15.415 21.39 15.61C21.585 15.805 21.7397 16.0365 21.8452 16.2913C21.9508 16.5461 22.0051 16.8192 22.0051 17.095C22.0051 17.3708 21.9508 17.6439 21.8452 17.8987C21.7397 18.1535 21.585 18.385 21.39 18.58L18 22H15V19L18.42 15.61Z" stroke="black" stroke-width="1.5" stroke-linecap="round" stroke-linejoin="round"/>
</g>
<defs>
<clipPath id="clip0_211_63593">
<rect width="24" height="24" fill="white"/>
</clipPath>
</defs>
</svg>
