<svg width="24" height="24" viewBox="0 0 24 24" fill="none" xmlns="http://www.w3.org/2000/svg">
<g clip-path="url(#clip0_211_63801)">
<path d="M20.984 12.536C21.0927 10.7142 20.6449 8.90234 19.7001 7.34086C18.7552 5.77938 17.358 4.54205 15.6937 3.79302C14.0294 3.04398 12.1767 2.81864 10.3814 3.14688C8.58603 3.47512 6.93292 4.34144 5.64132 5.6309C4.34971 6.92037 3.48066 8.57204 3.14945 10.3668C2.81824 12.1616 3.04051 14.0147 3.78679 15.6802C4.53307 17.3458 5.76808 18.7451 7.32799 19.6925C8.88791 20.6399 10.699 21.0907 12.521 20.985" stroke="black" stroke-width="1.5" stroke-linecap="round" stroke-linejoin="round"/>
<path d="M19 22V16" stroke="black" stroke-width="1.5" stroke-linecap="round" stroke-linejoin="round"/>
<path d="M22 19L19 16L16 19" stroke="black" stroke-width="1.5" stroke-linecap="round" stroke-linejoin="round"/>
<path d="M9 10H9.01" stroke="black" stroke-width="1.5" stroke-linecap="round" stroke-linejoin="round"/>
<path d="M15 10H15.01" stroke="black" stroke-width="1.5" stroke-linecap="round" stroke-linejoin="round"/>
<path d="M9.5 15C10.158 15.64 11.06 16 12 16C12.94 16 13.842 15.64 14.5 15" stroke="black" stroke-width="1.5" stroke-linecap="round" stroke-linejoin="round"/>
</g>
<defs>
<clipPath id="clip0_211_63801">
<rect width="24" height="24" fill="white"/>
</clipPath>
</defs>
</svg>
