<svg width="24" height="24" viewBox="0 0 24 24" fill="none" xmlns="http://www.w3.org/2000/svg">
<g clip-path="url(#clip0_211_63636)">
<path d="M20.4801 15.0138C21.1277 13.1919 21.1715 11.2099 20.6048 9.36123C20.0381 7.51258 18.8911 5.89559 17.3336 4.74972C15.7762 3.60384 13.8911 2.99001 11.9576 2.99912C10.024 3.00824 8.14483 3.63982 6.59826 4.80033C5.05169 5.96084 3.91999 7.58857 3.37074 9.44248C2.82149 11.2964 2.88391 13.2779 3.54874 15.0936C4.21358 16.9092 5.44548 18.4625 7.06202 19.5234C8.67856 20.5843 10.5938 21.0963 12.5241 20.9838" stroke="black" stroke-width="1.5" stroke-linecap="round" stroke-linejoin="round"/>
<path d="M9 10H9.01" stroke="black" stroke-width="1.5" stroke-linecap="round" stroke-linejoin="round"/>
<path d="M15 10H15.01" stroke="black" stroke-width="1.5" stroke-linecap="round" stroke-linejoin="round"/>
<path d="M16 19H22" stroke="black" stroke-width="1.5" stroke-linecap="round" stroke-linejoin="round"/>
<path d="M9.5 15C10.158 15.64 11.06 16 12 16C12.94 16 13.842 15.64 14.5 15" stroke="black" stroke-width="1.5" stroke-linecap="round" stroke-linejoin="round"/>
</g>
<defs>
<clipPath id="clip0_211_63636">
<rect width="24" height="24" fill="white"/>
</clipPath>
</defs>
</svg>
