<svg width="24" height="24" viewBox="0 0 24 24" fill="none" xmlns="http://www.w3.org/2000/svg">
<path opacity="0.4" d="M21.8699 9.44H2.12988V6.42C2.12988 3.98 4.10988 2 6.54988 2H8.87988C10.5099 2 11.0199 2.53 11.6699 3.4L13.0699 5.26C13.3799 5.67 13.4199 5.73 13.9999 5.73H16.7899C19.1599 5.72 21.1799 7.28 21.8699 9.44Z" fill="#171717"/>
<path d="M21.99 10.84C21.97 10.36 21.89 9.89 21.74 9.44H2V16.65C2 19.6 4.4 22 7.35 22H16.65C19.6 22 22 19.6 22 16.65V11.07C22 11 22 10.91 21.99 10.84ZM14.34 17.78C14.19 17.92 14 18 13.81 18C13.62 18 13.43 17.93 13.28 17.78L12.04 16.54L10.76 17.82C10.61 17.97 10.42 18.04 10.23 18.04C10.04 18.04 9.85 17.97 9.7 17.82C9.41 17.53 9.41 17.05 9.7 16.76L10.98 15.48L9.74 14.24C9.45 13.95 9.45 13.47 9.74 13.18C10.03 12.89 10.51 12.89 10.8 13.18L12.04 14.42L13.24 13.22C13.53 12.93 14.01 12.93 14.3 13.22C14.59 13.51 14.59 13.99 14.3 14.28L13.1 15.48L14.34 16.72C14.63 17.01 14.63 17.49 14.34 17.78Z" fill="#171717"/>
</svg>
