<svg width="24" height="24" viewBox="0 0 24 24" fill="none" xmlns="http://www.w3.org/2000/svg">
<g clip-path="url(#clip0_211_81865)">
<path d="M15.006 18.804L12 17L7 20V6C7 5.46957 7.21071 4.96086 7.58579 4.58579C7.96086 4.21071 8.46957 4 9 4H15C15.5304 4 16.0391 4.21071 16.4142 4.58579C16.7893 4.96086 17 5.46957 17 6V11.5" stroke="black" stroke-width="1.5" stroke-linecap="round" stroke-linejoin="round"/>
<path d="M19 22V22.01" stroke="black" stroke-width="1.5" stroke-linecap="round" stroke-linejoin="round"/>
<path d="M19 19C19.4483 18.9986 19.8832 18.8468 20.235 18.569C20.5868 18.2911 20.8352 17.9033 20.9406 17.4675C21.0459 17.0318 21.0019 16.5733 20.8158 16.1655C20.6297 15.7576 20.3122 15.424 19.914 15.218C19.5162 15.0142 19.0611 14.951 18.6228 15.0387C18.1845 15.1264 17.7888 15.3598 17.5 15.701" stroke="black" stroke-width="1.5" stroke-linecap="round" stroke-linejoin="round"/>
</g>
<defs>
<clipPath id="clip0_211_81865">
<rect width="24" height="24" fill="white"/>
</clipPath>
</defs>
</svg>
