<svg width="24" height="24" viewBox="0 0 24 24" fill="none" xmlns="http://www.w3.org/2000/svg">
<g clip-path="url(#clip0_211_82290)">
<path d="M14 3V7C14 7.26522 14.1054 7.51957 14.2929 7.70711C14.4804 7.89464 14.7348 8 15 8H19" stroke="black" stroke-width="1.5" stroke-linecap="round" stroke-linejoin="round"/>
<path d="M17 21H7C6.46957 21 5.96086 20.7893 5.58579 20.4142C5.21071 20.0391 5 19.5304 5 19V5C5 4.46957 5.21071 3.96086 5.58579 3.58579C5.96086 3.21071 6.46957 3 7 3H14L19 8V19C19 19.5304 18.7893 20.0391 18.4142 20.4142C18.0391 20.7893 17.5304 21 17 21Z" stroke="black" stroke-width="1.5" stroke-linecap="round" stroke-linejoin="round"/>
<path d="M12 14V14.01" stroke="black" stroke-width="1.5" stroke-linecap="round" stroke-linejoin="round"/>
<path d="M9.52525 11.5254C9.20021 11.8504 8.94237 12.2363 8.76646 12.6609C8.59054 13.0856 8.5 13.5407 8.5 14.0004C8.5 14.46 8.59054 14.9152 8.76646 15.3399C8.94237 15.7645 9.20021 16.1504 9.52525 16.4754M14.4753 16.4754C14.8003 16.1504 15.0581 15.7645 15.234 15.3399C15.41 14.9152 15.5005 14.46 15.5005 14.0004C15.5005 13.5407 15.41 13.0856 15.234 12.6609C15.0581 12.2363 14.8003 11.8504 14.4753 11.5254" stroke="black" stroke-width="1.5" stroke-linecap="round" stroke-linejoin="round"/>
</g>
<defs>
<clipPath id="clip0_211_82290">
<rect width="24" height="24" fill="white"/>
</clipPath>
</defs>
</svg>
