<svg width="24" height="24" viewBox="0 0 24 24" fill="none" xmlns="http://www.w3.org/2000/svg">
<g clip-path="url(#clip0_211_81819)">
<path d="M3 18.9997C4.36817 18.2098 5.92017 17.7939 7.5 17.7939C9.07983 17.7939 10.6318 18.2098 12 18.9997C13.7831 17.9704 15.8652 17.5836 17.899 17.9037" stroke="black" stroke-width="1.5" stroke-linecap="round" stroke-linejoin="round"/>
<path d="M3 5.99972C3.66412 5.61618 4.37455 5.31911 5.114 5.11572M8.914 4.90572C9.984 5.07572 11.03 5.43972 12 5.99972C13.3682 5.2098 14.9202 4.79395 16.5 4.79395C18.0798 4.79395 19.6318 5.2098 21 5.99972" stroke="black" stroke-width="1.5" stroke-linecap="round" stroke-linejoin="round"/>
<path d="M3 6V19" stroke="black" stroke-width="1.5" stroke-linecap="round" stroke-linejoin="round"/>
<path d="M12 6V8M12 12V19" stroke="black" stroke-width="1.5" stroke-linecap="round" stroke-linejoin="round"/>
<path d="M21 6V17" stroke="black" stroke-width="2" stroke-linecap="round" stroke-linejoin="round"/>
<path d="M3 3L21 21" stroke="black" stroke-width="1.5" stroke-linecap="round" stroke-linejoin="round"/>
</g>
<defs>
<clipPath id="clip0_211_81819">
<rect width="24" height="24" fill="white"/>
</clipPath>
</defs>
</svg>
