<svg width="24" height="24" viewBox="0 0 24 24" fill="none" xmlns="http://www.w3.org/2000/svg">
<g clip-path="url(#clip0_211_82162)">
<path d="M15.5358 17.586C15.141 17.2098 14.6166 17 14.0713 17C13.5259 17 13.0015 17.2098 12.6068 17.586C12.415 17.7683 12.2624 17.9876 12.1581 18.2307C12.0538 18.4737 12 18.7355 12 19C12 19.2645 12.0538 19.5263 12.1581 19.7693C12.2624 20.0124 12.415 20.2317 12.6068 20.414C13.4158 21.195 14.7268 21.195 15.5358 20.414M15.5358 20.414C14.7308 21.192 16.3448 19.633 15.5358 20.414ZM15.5358 20.414L16.9958 19.004L18.4558 17.585" stroke="black" stroke-width="1.5" stroke-linecap="round" stroke-linejoin="round"/>
<path d="M15.5391 17.582L16.9991 19.002L18.4591 20.412M18.4591 20.412C17.6541 19.633 19.2681 21.192 18.4591 20.412ZM18.4591 20.412C19.2641 21.191 20.5791 21.193 21.3881 20.412C21.5798 20.2298 21.7324 20.0105 21.8367 19.7674C21.941 19.5243 21.9948 19.2626 21.9948 18.998C21.9948 18.7335 21.941 18.4718 21.8367 18.2287C21.7324 17.9856 21.5798 17.7663 21.3881 17.584C20.9933 17.2079 20.4689 16.998 19.9236 16.998C19.3783 16.998 18.8539 17.2079 18.4591 17.584" stroke="black" stroke-width="1.5" stroke-linecap="round" stroke-linejoin="round"/>
<path d="M14 3V7C14 7.26522 14.1054 7.51957 14.2929 7.70711C14.4804 7.89464 14.7348 8 15 8H19" stroke="black" stroke-width="1.5" stroke-linecap="round" stroke-linejoin="round"/>
<path d="M9.5 21H7C6.46957 21 5.96086 20.7893 5.58579 20.4142C5.21071 20.0391 5 19.5304 5 19V5C5 4.46957 5.21071 3.96086 5.58579 3.58579C5.96086 3.21071 6.46957 3 7 3H14L19 8V14" stroke="black" stroke-width="1.5" stroke-linecap="round" stroke-linejoin="round"/>
</g>
<defs>
<clipPath id="clip0_211_82162">
<rect width="24" height="24" fill="white"/>
</clipPath>
</defs>
</svg>
