<svg width="24" height="24" viewBox="0 0 24 24" fill="none" xmlns="http://www.w3.org/2000/svg">
<path d="M5.28 19.4001C5.22 19.4001 5.17 19.3901 5.11 19.3801C4.71 19.2901 4.45 18.8801 4.55 18.4801L5.12 16.0201C5.2 15.7001 5.04 15.1501 4.8 14.9101L2.32 12.4301C1.08 11.1901 1.18 10.1301 1.35 9.61008C1.52 9.09008 2.06 8.17008 3.78 7.88008L6.97 7.35008C7.27 7.29008 7.7 6.97008 7.83 6.70008L9.6 3.17008C10.4 1.56008 11.45 1.33008 12 1.33008C12.55 1.33008 13.6 1.57008 14.4 3.17008L16.16 6.69008C16.22 6.81008 16.35 6.95008 16.5 7.07008C16.83 7.32008 16.89 7.80008 16.63 8.12008C16.38 8.45008 15.91 8.51008 15.58 8.25008C15.34 8.07008 15.02 7.76008 14.82 7.36008L13.06 3.84008C12.75 3.21008 12.35 2.83008 12 2.83008C11.65 2.83008 11.25 3.21008 10.94 3.85008L9.17 7.37008C8.82 8.07008 7.98 8.69008 7.21 8.82008L4.03 9.35008C3.35 9.46008 2.89 9.73008 2.78 10.0601C2.67 10.3901 2.9 10.8801 3.39 11.3601L5.87 13.8401C6.47 14.4401 6.78 15.5201 6.59 16.3501L6.02 18.8101C5.93 19.1601 5.63 19.4001 5.28 19.4001Z" fill="#171717"/>
<path d="M17.6599 22.6699C17.1299 22.6699 16.4499 22.4999 15.5999 21.9999L12.6099 20.2299C12.2999 20.0499 11.6999 20.0499 11.3999 20.2299L8.39994 21.9999C8.04994 22.2099 7.57994 22.0899 7.36994 21.7399C7.15994 21.3799 7.27994 20.9199 7.62994 20.7099L10.6199 18.9399C11.3999 18.4799 12.5799 18.4799 13.3599 18.9399L16.3499 20.7099C17.2199 21.2299 17.7699 21.2299 17.9799 21.0799C18.1899 20.9299 18.3399 20.3999 18.1199 19.4199L17.4099 16.3499C17.2199 15.5199 17.5299 14.4499 18.1299 13.8399L20.6099 11.3599C21.0999 10.8699 21.3199 10.3899 21.2199 10.0599C21.1099 9.7299 20.6499 9.4599 19.9699 9.3499C19.5599 9.2799 19.2899 8.8999 19.3499 8.4899C19.4199 8.0799 19.7999 7.8099 20.2099 7.8699C21.9399 8.1599 22.4799 9.0799 22.6399 9.5999C22.7999 10.1199 22.8999 11.1799 21.6699 12.4199L19.1999 14.8999C18.9599 15.1399 18.8099 15.6799 18.8799 16.0099L19.5899 19.0799C20.0499 21.0799 19.3399 21.9499 18.8799 22.2899C18.6299 22.4699 18.2299 22.6699 17.6599 22.6699Z" fill="#171717"/>
<path d="M1.99994 22.7499C1.80994 22.7499 1.61994 22.6799 1.46994 22.5299C1.17994 22.2399 1.17994 21.7599 1.46994 21.4699L21.4699 1.46994C21.7599 1.17994 22.2399 1.17994 22.5299 1.46994C22.8199 1.75994 22.8199 2.23994 22.5299 2.52994L2.52994 22.5299C2.37994 22.6799 2.18994 22.7499 1.99994 22.7499Z" fill="#171717"/>
</svg>
