<svg width="24" height="24" viewBox="0 0 24 24" fill="none" xmlns="http://www.w3.org/2000/svg">
<path opacity="0.4" d="M21.65 10.03C21.26 9.46997 20.57 9.14997 19.78 9.14997H15.68C15.41 9.14997 15.16 9.03998 14.99 8.83998C14.81 8.63998 14.74 8.35997 14.78 8.06997L15.29 4.78997C15.51 3.80997 14.86 2.70998 13.88 2.37998C12.97 2.03998 11.9 2.49998 11.47 3.14998L7.25 9.41998L7.13 9.61998V18.46L7.28 18.61L10.45 21.06C10.87 21.48 11.82 21.71 12.49 21.71H16.39C17.73 21.71 19.08 20.7 19.38 19.47L21.84 11.98C22.1 11.27 22.03 10.58 21.65 10.03Z" fill="#171717"/>
<path d="M5.21 6.37988H4.18C2.63 6.37988 2 6.97988 2 8.45988V18.5199C2 19.9999 2.63 20.5999 4.18 20.5999H5.21C6.76 20.5999 7.39 19.9999 7.39 18.5199V8.45988C7.39 6.97988 6.76 6.37988 5.21 6.37988Z" fill="#171717"/>
</svg>
