<svg width="24" height="24" viewBox="0 0 24 24" fill="none" xmlns="http://www.w3.org/2000/svg">
<path d="M12.33 17.4501C12.15 17.5101 11.84 17.5101 11.66 17.4501C10.1 16.9201 6.60001 14.6901 6.60001 10.9101C6.60001 9.24013 7.94001 7.89014 9.60001 7.89014C10.58 7.89014 11.45 8.36013 12 9.10013C12.54 8.37013 13.42 7.89014 14.4 7.89014C16.06 7.89014 17.4 9.24013 17.4 10.9101C17.4 14.6901 13.9 16.9201 12.33 17.4501Z" stroke="#171717" stroke-width="1.5" stroke-linecap="round" stroke-linejoin="round"/>
<path d="M4 6C2.75 7.67 2 9.75 2 12C2 17.52 6.48 22 12 22C17.52 22 22 17.52 22 12C22 6.48 17.52 2 12 2C10.57 2 9.2 2.30001 7.97 2.85001" stroke="#171717" stroke-width="1.5" stroke-linecap="round" stroke-linejoin="round"/>
</svg>
