<svg width="24" height="24" viewBox="0 0 24 24" fill="none" xmlns="http://www.w3.org/2000/svg">
<path opacity="0.4" d="M17 18.4299H13L8.54999 21.39C7.88999 21.83 7 21.3599 7 20.5599V18.4299C4 18.4299 2 16.4299 2 13.4299V7.42993C2 4.42993 4 2.42993 7 2.42993H17C20 2.42993 22 4.42993 22 7.42993V13.4299C22 16.4299 20 18.4299 17 18.4299Z" fill="#171717"/>
<path d="M12 12.1099C11.59 12.1099 11.25 11.7699 11.25 11.3599V11.1499C11.25 9.9899 12.1 9.41989 12.42 9.19989C12.79 8.94989 12.91 8.7799 12.91 8.5199C12.91 8.0199 12.5 7.60986 12 7.60986C11.5 7.60986 11.09 8.0199 11.09 8.5199C11.09 8.9299 10.75 9.2699 10.34 9.2699C9.93003 9.2699 9.59003 8.9299 9.59003 8.5199C9.59003 7.1899 10.67 6.10986 12 6.10986C13.33 6.10986 14.41 7.1899 14.41 8.5199C14.41 9.6599 13.57 10.2299 13.26 10.4399C12.87 10.6999 12.75 10.8699 12.75 11.1499V11.3599C12.75 11.7799 12.41 12.1099 12 12.1099Z" fill="#171717"/>
<path d="M12 14.6001C11.58 14.6001 11.25 14.2601 11.25 13.8501C11.25 13.4401 11.59 13.1001 12 13.1001C12.41 13.1001 12.75 13.4401 12.75 13.8501C12.75 14.2601 12.42 14.6001 12 14.6001Z" fill="#171717"/>
</svg>
