<svg width="24" height="24" viewBox="0 0 24 24" fill="none" xmlns="http://www.w3.org/2000/svg">
<path d="M4.27004 6.41999C3.68004 4.51999 4.74003 3.46998 6.63003 4.08998L9.58004 5.05998C10.08 5.21998 10.83 5.10997 11.25 4.79997L14.33 2.57997C16 1.37997 17.33 2.07998 17.29 4.12998L17.22 7.91999C17.21 8.43999 17.54 9.12998 17.96 9.43998L20.44 11.32C22.03 12.52 21.77 13.99 19.87 14.59L16.64 15.6C16.1 15.77 15.53 16.36 15.39 16.91L14.62 19.85C14.01 22.17 12.49 22.4 11.23 20.36L9.46999 17.51C9.14999 16.99 8.39 16.6 7.79 16.63L4.45003 16.8C2.06003 16.92 1.38002 15.54 2.94002 13.72L4.92 11.42C5.11 11.2 5.24002 10.9 5.31002 10.58" stroke="#171717" stroke-width="1.5" stroke-linecap="round" stroke-linejoin="round"/>
<path d="M21.91 22L18.88 18.97" stroke="#171717" stroke-width="1.5" stroke-linecap="round" stroke-linejoin="round"/>
</svg>
