<svg width="24" height="24" viewBox="0 0 24 24" fill="none" xmlns="http://www.w3.org/2000/svg">
<path d="M2 11.5599V13.43C2 16.43 4 18.43 7 18.43H11L15.45 21.39C16.11 21.83 17 21.36 17 20.56V18.43C20 18.43 22 16.43 22 13.43V7.42993C22 4.42993 20 2.42993 17 2.42993H7C4 2.42993 2 4.42993 2 7.42993" stroke="#171717" stroke-width="1.5" stroke-miterlimit="10" stroke-linecap="round" stroke-linejoin="round"/>
<path d="M12 11.3599V11.1499C12 10.4699 12.42 10.1099 12.84 9.81989C13.25 9.53989 13.66 9.1799 13.66 8.5199C13.66 7.5999 12.92 6.85986 12 6.85986C11.08 6.85986 10.34 7.5999 10.34 8.5199" stroke="#171717" stroke-width="1.5" stroke-linecap="round" stroke-linejoin="round"/>
<path d="M11.9955 13.75H12.0045" stroke="#171717" stroke-width="1.5" stroke-linecap="round" stroke-linejoin="round"/>
</svg>
