<svg width="24" height="24" viewBox="0 0 24 24" fill="none" xmlns="http://www.w3.org/2000/svg">
<path d="M12 22C17.5228 22 22 17.5228 22 12C22 6.47715 17.5228 2 12 2C6.47715 2 2 6.47715 2 12C2 17.5228 6.47715 22 12 22Z" stroke="#171717" stroke-width="1.5" stroke-linecap="round" stroke-linejoin="round"/>
<path opacity="0.4" d="M12.33 17.4501C12.15 17.5101 11.84 17.5101 11.66 17.4501C10.1 16.9201 6.60001 14.6901 6.60001 10.9101C6.60001 9.24013 7.94001 7.89014 9.60001 7.89014C10.58 7.89014 11.45 8.36013 12 9.10013C12.54 8.37013 13.42 7.89014 14.4 7.89014C16.06 7.89014 17.4 9.24013 17.4 10.9101C17.4 14.6901 13.9 16.9201 12.33 17.4501Z" stroke="#171717" stroke-width="1.5" stroke-linecap="round" stroke-linejoin="round"/>
</svg>
