<svg width="24" height="24" viewBox="0 0 24 24" fill="none" xmlns="http://www.w3.org/2000/svg">
<path d="M12 20.9003C11.78 20.9003 11.55 20.8702 11.38 20.8102C8.48 19.8202 2 15.6902 2 8.69025C2 7.29025 2.51 6.01027 3.36 5.03027" stroke="#171717" stroke-width="1.5" stroke-linecap="round" stroke-linejoin="round"/>
<path d="M21.4901 12.0001C21.8101 10.9801 22.0001 9.88012 22.0001 8.69012C22.0001 5.60012 19.5101 3.1001 16.4401 3.1001C14.6201 3.1001 13.0101 3.98015 12.0001 5.34015C10.9901 3.98015 9.37006 3.1001 7.56006 3.1001" stroke="#171717" stroke-width="1.5" stroke-linecap="round" stroke-linejoin="round"/>
<path d="M19.21 15.74L15.67 19.2801C15.53 19.4201 15.4 19.68 15.37 19.87L15.18 21.22C15.11 21.71 15.45 22.05 15.94 21.98L17.29 21.79C17.48 21.76 17.75 21.63 17.88 21.49L21.42 17.95C22.03 17.34 22.32 16.63 21.42 15.73C20.53 14.84 19.82 15.13 19.21 15.74Z" stroke="#171717" stroke-width="1.5" stroke-miterlimit="10" stroke-linecap="round" stroke-linejoin="round"/>
<path d="M18.7001 16.25C19.0001 17.33 19.8401 18.17 20.9201 18.47" stroke="#171717" stroke-width="1.5" stroke-miterlimit="10" stroke-linecap="round" stroke-linejoin="round"/>
</svg>
