<svg width="24" height="24" viewBox="0 0 24 24" fill="none" xmlns="http://www.w3.org/2000/svg">
<path d="M4.91998 20.2799L6.68999 21.6499C6.91999 21.8799 7.42998 21.9898 7.77998 21.9898H9.94998C10.64 21.9898 11.38 21.4799 11.55 20.7899L12.92 16.6198C13.21 15.8198 12.69 15.1299 11.83 15.1299H9.53999C9.19999 15.1299 8.90999 14.8398 8.96999 14.4398L9.25999 12.6098C9.36999 12.0998 9.02998 11.5198 8.51998 11.3498C8.05998 11.1798 7.48999 11.4099 7.25999 11.7499L4.91998 15.2398" stroke="#171717" stroke-width="1.5" stroke-miterlimit="10"/>
<path d="M2 20.2799V14.6799C2 13.8799 2.34 13.5898 3.14 13.5898H3.71C4.51 13.5898 4.85 13.8799 4.85 14.6799V20.2799C4.85 21.0799 4.51 21.3699 3.71 21.3699H3.14C2.34 21.3699 2 21.0899 2 20.2799Z" stroke="#171717" stroke-width="1.5" stroke-linecap="round" stroke-linejoin="round"/>
<path d="M19.08 3.71997L17.31 2.34998C17.08 2.11998 16.57 2.01001 16.22 2.01001H14.05C13.36 2.01001 12.62 2.51996 12.45 3.20996L11.08 7.38C10.79 8.18 11.31 8.87 12.17 8.87H14.46C14.8 8.87 15.09 9.16006 15.03 9.56006L14.74 11.39C14.63 11.9 14.97 12.48 15.48 12.65C15.94 12.82 16.51 12.59 16.74 12.25L19.08 8.76001" stroke="#171717" stroke-width="1.5" stroke-miterlimit="10"/>
<path d="M22 3.71985V9.31982C22 10.1198 21.66 10.4099 20.86 10.4099H20.29C19.49 10.4099 19.15 10.1198 19.15 9.31982V3.71985C19.15 2.91985 19.49 2.62988 20.29 2.62988H20.86C21.66 2.62988 22 2.90985 22 3.71985Z" stroke="#171717" stroke-width="1.5" stroke-linecap="round" stroke-linejoin="round"/>
</svg>
