<svg width="24" height="24" viewBox="0 0 24 24" fill="none" xmlns="http://www.w3.org/2000/svg">
<path d="M4.91998 20.2799L6.68999 21.6499C6.91999 21.8799 7.42998 21.9898 7.77998 21.9898H9.94998C10.64 21.9898 11.38 21.4799 11.55 20.7899L12.92 16.6198C13.21 15.8198 12.69 15.1299 11.83 15.1299H9.53999C9.19999 15.1299 8.90999 14.8398 8.96999 14.4398L9.25999 12.6098C9.36999 12.0998 9.02998 11.5198 8.51998 11.3498C8.05998 11.1798 7.48999 11.4099 7.25999 11.7499L4.91998 15.2398" stroke="#171717" stroke-width="1.5" stroke-miterlimit="10"/>
<path d="M2 20.2799V14.6799C2 13.8799 2.34 13.5898 3.14 13.5898H3.71C4.51 13.5898 4.85 13.8799 4.85 14.6799V20.2799C4.85 21.0799 4.51 21.3699 3.71 21.3699H3.14C2.34 21.3699 2 21.0899 2 20.2799Z" stroke="#171717" stroke-width="1.5" stroke-linecap="round" stroke-linejoin="round"/>
<g opacity="0.4">
<path d="M19.0798 3.71997L17.3098 2.34998C17.0798 2.11998 16.5698 2.01001 16.2198 2.01001H14.0498C13.3598 2.01001 12.6198 2.51996 12.4498 3.20996L11.0798 7.38C10.7898 8.18 11.3098 8.87 12.1698 8.87H14.4598C14.7998 8.87 15.0898 9.16006 15.0298 9.56006L14.7398 11.39C14.6298 11.9 14.9698 12.48 15.4798 12.65C15.9398 12.82 16.5098 12.59 16.7398 12.25L19.0798 8.76001" stroke="#171717" stroke-width="1.5" stroke-miterlimit="10"/>
<path d="M21.9999 3.71985V9.31982C21.9999 10.1198 21.6599 10.4099 20.8599 10.4099H20.2899C19.4899 10.4099 19.1499 10.1198 19.1499 9.31982V3.71985C19.1499 2.91985 19.4899 2.62988 20.2899 2.62988H20.8599C21.6599 2.62988 21.9999 2.90985 21.9999 3.71985Z" stroke="#171717" stroke-width="1.5" stroke-linecap="round" stroke-linejoin="round"/>
</g>
</svg>
