<svg width="24" height="24" viewBox="0 0 24 24" fill="none" xmlns="http://www.w3.org/2000/svg">
<path d="M21.32 11.91C22.49 10.74 22.11 9.55999 20.48 9.27999L17.9299 8.85999C17.4999 8.78999 16.9899 8.41 16.7999 8.02L15.39 5.19999C14.63 3.66999 13.3799 3.66999 12.6199 5.19999L11.2099 8.02C11.0199 8.41 10.5099 8.77999 10.0799 8.85999L7.52995 9.27999C5.89995 9.54999 5.51995 10.73 6.68995 11.91L8.67994 13.9C9.00994 14.23 9.19995 14.88 9.08995 15.35L8.51994 17.81C8.06994 19.75 9.10996 20.51 10.82 19.49L13.2099 18.07C13.6399 17.81 14.36 17.81 14.79 18.07L17.1799 19.49C18.8899 20.5 19.93 19.75 19.48 17.81L18.91 15.35" stroke="#171717" stroke-width="1.5" stroke-linecap="round" stroke-linejoin="round"/>
<path d="M8 5H2" stroke="#171717" stroke-width="1.5" stroke-linecap="round" stroke-linejoin="round"/>
<path d="M5 19H2" stroke="#171717" stroke-width="1.5" stroke-linecap="round" stroke-linejoin="round"/>
<path d="M3 12H2" stroke="#171717" stroke-width="1.5" stroke-linecap="round" stroke-linejoin="round"/>
</svg>
