<svg width="24" height="24" viewBox="0 0 24 24" fill="none" xmlns="http://www.w3.org/2000/svg">
<path d="M5.28003 18.6499L5.85003 16.1799C5.98003 15.5999 5.75003 14.7899 5.33003 14.3699L2.85003 11.8899C1.39003 10.4299 1.86003 8.94989 3.90003 8.60989L7.09003 8.07989C7.62003 7.98989 8.26003 7.51989 8.50003 7.02989L10.26 3.50989C11.21 1.59989 12.77 1.59989 13.73 3.50989L15.49 7.02989C15.6 7.25989 15.81 7.47989 16.04 7.66989" stroke="#171717" stroke-width="1.5" stroke-linecap="round" stroke-linejoin="round"/>
<path opacity="0.4" d="M20.1 8.61011C22.14 8.95011 22.62 10.4301 21.15 11.8901L18.67 14.3701C18.25 14.7901 18.02 15.6001 18.15 16.1801L18.86 19.2501C19.42 21.6801 18.13 22.6201 15.98 21.3501L12.99 19.5801C12.45 19.2601 11.56 19.2601 11.01 19.5801L8.02002 21.3501" stroke="#171717" stroke-width="1.5" stroke-linecap="round" stroke-linejoin="round"/>
<path d="M22 2L2 22" stroke="#171717" stroke-width="1.5" stroke-linecap="round" stroke-linejoin="round"/>
</svg>
