<svg width="24" height="24" viewBox="0 0 24 24" fill="none" xmlns="http://www.w3.org/2000/svg">
<path d="M16.05 7.66989C15.81 7.48989 15.61 7.25989 15.5 7.02989L13.74 3.50989C12.79 1.59989 11.23 1.59989 10.27 3.50989L8.50003 7.02989C8.38003 7.27989 8.16003 7.50989 7.91003 7.69989" stroke="#171717" stroke-width="1.5" stroke-linecap="round" stroke-linejoin="round"/>
<path d="M5.28003 18.6501L5.85003 16.1801C5.98003 15.6001 5.75003 14.7901 5.33003 14.3701L2.85003 11.8901C1.39003 10.4301 1.86003 8.95011 3.90003 8.61011" stroke="#171717" stroke-width="1.5" stroke-linecap="round" stroke-linejoin="round"/>
<path d="M20.1 8.61011C22.14 8.95011 22.62 10.4301 21.15 11.8901L18.67 14.3701C18.25 14.7901 18.02 15.6001 18.15 16.1801L18.86 19.2501C19.42 21.6801 18.13 22.6201 15.98 21.3501L12.99 19.5801C12.45 19.2601 11.56 19.2601 11.01 19.5801L8.02002 21.3501" stroke="#171717" stroke-width="1.5" stroke-linecap="round" stroke-linejoin="round"/>
<path d="M22 2L2 22" stroke="#171717" stroke-width="1.5" stroke-linecap="round" stroke-linejoin="round"/>
</svg>
