<svg width="24" height="24" viewBox="0 0 24 24" fill="none" xmlns="http://www.w3.org/2000/svg">
<path opacity="0.4" d="M18.9401 8.06L15.1101 11.89C15.1201 11.93 15.1201 11.96 15.1201 12C15.1201 13.72 13.7201 15.12 12.0001 15.12C11.9601 15.12 11.9301 15.12 11.8901 15.11L8.06006 18.94C9.22006 19.62 10.5701 20 12.0001 20C16.4101 20 20.0001 16.41 20.0001 12C20.0001 10.57 19.6201 9.22 18.9401 8.06Z" fill="#171717"/>
<path opacity="0.4" d="M17.65 6.35L14.2 9.8C13.64 9.23 12.86 8.88 12 8.88C10.28 8.88 8.88 10.28 8.88 12C8.88 12.86 9.23 13.64 9.8 14.2L6.35 17.65C4.9 16.2 4 14.2 4 12C4 7.59 7.59 4 12 4C14.2 4 16.2 4.9 17.65 6.35Z" fill="#171717"/>
<path d="M14.1999 9.8L9.79988 14.2C9.22988 13.64 8.87988 12.86 8.87988 12C8.87988 10.28 10.2799 8.88 11.9999 8.88C12.8599 8.88 13.6399 9.23 14.1999 9.8Z" fill="#171717"/>
<path d="M12.75 2V4.04H12.74C12.5 4.01 12.25 4 12 4C11.75 4 11.5 4.01 11.26 4.04H11.25V2C11.25 1.59 11.59 1.25 12 1.25C12.41 1.25 12.75 1.59 12.75 2Z" fill="#171717"/>
<path d="M4 12C4 12.25 4.01 12.51 4.04 12.75H2C1.59 12.75 1.25 12.41 1.25 12C1.25 11.59 1.59 11.25 2 11.25H4.04C4.01 11.49 4 11.75 4 12Z" fill="#171717"/>
<path d="M12.75 19.96V22C12.75 22.41 12.41 22.75 12 22.75C11.59 22.75 11.25 22.41 11.25 22V19.96H11.26C11.5 19.99 11.75 20 12 20C12.25 20 12.5 19.99 12.74 19.96H12.75Z" fill="#171717"/>
<path d="M22.75 12C22.75 12.41 22.41 12.75 22 12.75H19.96C19.99 12.51 20 12.25 20 12C20 11.75 19.99 11.49 19.96 11.25H22C22.41 11.25 22.75 11.59 22.75 12Z" fill="#171717"/>
<path d="M21.7699 2.23C21.4699 1.93 20.9799 1.93 20.6799 2.23L2.22988 20.69C1.92988 20.99 1.92988 21.48 2.22988 21.78C2.37988 21.92 2.56988 22 2.76988 22C2.96988 22 3.15988 21.92 3.30988 21.77L21.7699 3.31C22.0799 3.01 22.0799 2.53 21.7699 2.23Z" fill="#171717"/>
</svg>
