<svg width="24" height="24" viewBox="0 0 24 24" fill="none" xmlns="http://www.w3.org/2000/svg">
<path opacity="0.4" d="M18.8901 5.11L5.79011 18.21C3.90011 15.64 2.54011 12.36 3.38011 8.69C3.90011 6.38 5.18011 4.71 6.76011 3.61C8.34011 2.52 10.2301 2 12.0001 2C14.4401 2 17.1201 2.98 18.8901 5.11Z" fill="#171717"/>
<path opacity="0.4" d="M15.7799 20.98C14.7199 22 13.3599 22.51 11.9999 22.51C10.6399 22.51 9.27989 21.99 8.21989 20.97C7.85989 20.63 7.49989 20.25 7.13989 19.86L20.0399 6.96C20.2899 7.5 20.4799 8.07 20.6199 8.7C21.7899 13.86 18.6299 18.22 15.7799 20.98Z" fill="#171717"/>
<path d="M21.7701 2.23C21.4701 1.92 20.9901 1.92 20.6901 2.23L15.0201 7.9L14.3001 8.62C13.7601 7.88 12.9101 7.44 12.0001 7.44C10.4201 7.44 9.13006 8.73 9.13006 10.31C9.13006 11.21 9.57006 12.06 10.3101 12.61L2.23006 20.69C1.92006 20.99 1.92006 21.47 2.23006 21.77C2.38006 21.92 2.57006 22 2.77006 22C2.97006 22 3.16006 21.92 3.31006 21.77L21.7701 3.31C22.0801 3.01 22.0801 2.53 21.7701 2.23Z" fill="#171717"/>
</svg>
