<svg width="24" height="24" viewBox="0 0 24 24" fill="none" xmlns="http://www.w3.org/2000/svg">
<g clip-path="url(#clip0_1_40643)">
<path d="M17.02 2.72L13.54 4.46C12.57 4.94 11.44 4.94 10.47 4.46L6.97997 2.71C3.99997 1.22 0.849974 4.44 2.40997 7.39L3.22997 8.93C3.33997 9.14 3.51997 9.31 3.73997 9.41L16.39 15.1C16.91 15.33 17.52 15.12 17.78 14.62L21.59 7.38C23.14 4.44 20 1.22 17.02 2.72Z" fill="#171717"/>
<path d="M15.6 16.31L7.31996 12.58C6.38996 12.16 5.44996 13.16 5.92996 14.06L8.96996 19.83C10.26 22.28 13.76 22.28 15.05 19.83L16.12 17.79C16.4 17.24 16.16 16.57 15.6 16.31Z" fill="#171717"/>
</g>
<defs>
<clipPath id="clip0_1_40643">
<rect width="24" height="24" fill="white"/>
</clipPath>
</defs>
</svg>
