<svg width="24" height="24" viewBox="0 0 24 24" fill="none" xmlns="http://www.w3.org/2000/svg">
<path d="M17.0199 21.29L13.5399 19.55C12.5699 19.07 11.4399 19.07 10.4699 19.55L6.98991 21.29C3.99991 22.78 0.849913 19.57 2.40991 16.62L3.22991 15.08C3.33991 14.87 3.51991 14.7 3.73991 14.6L16.3799 8.9C16.8999 8.67 17.5099 8.88 17.7699 9.38L21.5799 16.62C23.1399 19.57 19.9999 22.78 17.0199 21.29Z" fill="#171717"/>
<path opacity="0.4" d="M15.6 7.69L7.31996 11.42C6.38996 11.84 5.44996 10.84 5.92996 9.94L8.96996 4.17C10.26 1.72 13.76 1.72 15.05 4.17L16.12 6.21C16.4 6.76 16.16 7.44 15.6 7.69Z" fill="#171717"/>
</svg>
