<svg width="24" height="24" viewBox="0 0 24 24" fill="none" xmlns="http://www.w3.org/2000/svg">
<path d="M2.71008 17.02L4.45008 13.54C4.93008 12.57 4.93008 11.44 4.45008 10.47L2.71008 6.98C1.22008 4 4.43008 0.85 7.38008 2.41L8.92008 3.23C9.14008 3.34 9.31008 3.52 9.40008 3.74L15.0901 16.39C15.3201 16.91 15.1101 17.52 14.6101 17.78L7.37008 21.59C4.43008 23.15 1.22008 20 2.71008 17.02Z" fill="#171717"/>
<path opacity="0.4" d="M16.31 15.6L12.58 7.32C12.16 6.39 13.16 5.45 14.06 5.93L19.83 8.97C22.28 10.26 22.28 13.76 19.83 15.05L17.79 16.12C17.24 16.4 16.57 16.17 16.31 15.6Z" fill="#171717"/>
</svg>
