<svg width="24" height="24" viewBox="0 0 24 24" fill="none" xmlns="http://www.w3.org/2000/svg">
<path d="M22.65 18.13C22.55 17.73 22.15 17.48 21.75 17.58C21.35 17.68 21.1 18.08 21.19 18.48C21.23 18.65 21.25 18.82 21.25 19C21.25 20.24 20.24 21.25 19 21.25C17.76 21.25 16.75 20.24 16.75 19C16.75 17.9 17.54 16.99 18.59 16.79C18.49 17.02 18.5 17.3 18.66 17.52C18.81 17.72 19.04 17.83 19.27 17.83C19.42 17.83 19.58 17.78 19.71 17.69L20.88 16.84C20.89 16.83 20.89 16.82 20.9 16.82C20.91 16.81 20.92 16.81 20.93 16.8C20.96 16.77 20.98 16.74 21 16.7C21.03 16.66 21.07 16.63 21.09 16.58C21.11 16.54 21.12 16.49 21.14 16.45C21.15 16.4 21.17 16.36 21.18 16.31C21.19 16.26 21.18 16.22 21.17 16.17C21.17 16.12 21.17 16.07 21.15 16.02C21.14 15.97 21.11 15.93 21.09 15.89C21.07 15.85 21.06 15.81 21.04 15.78C21.03 15.77 21.02 15.77 21.01 15.76C21 15.75 21 15.74 20.99 15.73L19.99 14.58C19.72 14.27 19.24 14.23 18.93 14.51C18.71 14.71 18.63 15 18.71 15.27C16.78 15.42 15.25 17.02 15.25 18.99C15.25 21.06 16.93 22.74 19 22.74C21.07 22.74 22.75 21.06 22.75 18.99C22.75 18.71 22.72 18.41 22.65 18.13Z" fill="#171717"/>
<path opacity="0.4" d="M2.03 14.63C2.03 14.66 2.01001 14.7 2.01001 14.73C2.93001 16.57 4.42999 18.08 6.26999 18.99C6.29999 18.99 6.33999 18.97 6.37 18.97C6.02999 17.81 5.76999 16.62 5.57999 15.43C4.37999 15.23 3.19 14.97 2.03 14.63Z" fill="#171717"/>
<path opacity="0.4" d="M19.0701 6.42999C18.1301 4.45999 16.5401 2.87 14.5801 1.94C14.9401 3.13 15.2401 4.35001 15.4401 5.57001C16.6601 5.77001 17.8801 6.05999 19.0701 6.42999Z" fill="#171717"/>
<path opacity="0.4" d="M1.92993 6.42999C3.12993 6.06999 4.34995 5.77001 5.56995 5.57001C5.76995 4.38001 6.01992 3.20001 6.35992 2.04001C6.32992 2.04001 6.28995 2.01999 6.25995 2.01999C4.37995 2.94999 2.84993 4.51999 1.92993 6.42999Z" fill="#171717"/>
<path opacity="0.4" d="M13.8199 5.35999C13.5799 4.05999 13.2799 2.76 12.8499 1.5C12.8299 1.43 12.8299 1.37001 12.8199 1.29001C12.0799 1.11001 11.2999 0.98999 10.4999 0.98999C9.68994 0.98999 8.91995 1.10001 8.16995 1.29001C8.15995 1.36001 8.16993 1.42 8.14993 1.5C7.72993 2.76 7.41993 4.05999 7.17993 5.35999C9.38993 5.11999 11.6099 5.11999 13.8199 5.35999Z" fill="#171717"/>
<path opacity="0.4" d="M5.35999 7.17999C4.04999 7.41999 2.76 7.71999 1.5 8.14999C1.43 8.16999 1.37001 8.16999 1.29001 8.17999C1.11001 8.91999 0.98999 9.7 0.98999 10.5C0.98999 11.31 1.10001 12.08 1.29001 12.83C1.36001 12.84 1.42 12.83 1.5 12.85C2.76 13.27 4.04999 13.58 5.35999 13.82C5.11999 11.61 5.11999 9.38999 5.35999 7.17999Z" fill="#171717"/>
<path opacity="0.4" d="M19.6999 8.17999C19.6299 8.17999 19.5699 8.16999 19.4899 8.14999C18.2299 7.72999 16.9299 7.41999 15.6299 7.17999C15.8799 9.38999 15.8799 11.61 15.6299 13.81C16.9299 13.57 18.2299 13.27 19.4899 12.84C19.5599 12.82 19.6199 12.83 19.6999 12.82C19.8799 12.07 19.9999 11.3 19.9999 10.49C19.9999 9.69999 19.8899 8.92999 19.6999 8.17999Z" fill="#171717"/>
<path opacity="0.4" d="M7.17993 15.64C7.41993 16.95 7.71993 18.24 8.14993 19.5C8.16993 19.57 8.15995 19.63 8.16995 19.71C8.91995 19.89 9.68994 20.01 10.4999 20.01C11.2999 20.01 12.0799 19.9 12.8199 19.71C12.8299 19.64 12.8299 19.58 12.8499 19.5C13.2699 18.24 13.5799 16.95 13.8199 15.64C12.7199 15.76 11.6099 15.85 10.4999 15.85C9.38994 15.84 8.27993 15.76 7.17993 15.64Z" fill="#171717"/>
<path opacity="0.4" d="M6.9501 6.95001C6.6501 9.31001 6.6501 11.69 6.9501 14.06C9.3101 14.36 11.6901 14.36 14.0601 14.06C14.3601 11.7 14.3601 9.32001 14.0601 6.95001C11.6901 6.65001 9.3101 6.65001 6.9501 6.95001Z" fill="#171717"/>
</svg>
