<svg width="24" height="24" viewBox="0 0 24 24" fill="none" xmlns="http://www.w3.org/2000/svg">
<g clip-path="url(#clip0_1_40307)">
<path d="M21.79 20.76L21.07 20.04C21.44 19.48 21.66 18.8 21.66 18.08C21.66 16.1 20.06 14.5 18.08 14.5C16.1 14.5 14.5 16.1 14.5 18.08C14.5 20.06 16.1 21.66 18.08 21.66C18.81 21.66 19.48 21.44 20.04 21.07L20.76 21.79C20.9 21.93 21.09 22 21.27 22C21.46 22 21.64 21.93 21.78 21.79C22.07 21.5 22.07 21.04 21.79 20.76Z" fill="#171717"/>
<path d="M2.03001 14.63C2.03001 14.66 2.01001 14.7 2.01001 14.73C2.93001 16.57 4.43001 18.08 6.27001 18.99C6.30001 18.99 6.34001 18.97 6.37001 18.97C6.03001 17.81 5.77001 16.62 5.58001 15.43C4.38001 15.23 3.19001 14.97 2.03001 14.63Z" fill="#171717"/>
<path d="M19.0701 6.43C18.1301 4.46 16.5401 2.87 14.5801 1.94C14.9401 3.13 15.2401 4.35 15.4401 5.57C16.6601 5.77 17.8801 6.06 19.0701 6.43Z" fill="#171717"/>
<path d="M1.92993 6.43C3.12993 6.07 4.34993 5.77 5.56993 5.57C5.76993 4.38 6.01993 3.2 6.35993 2.04C6.32993 2.04 6.28993 2.02 6.25993 2.02C4.37993 2.95 2.84993 4.52 1.92993 6.43Z" fill="#171717"/>
<path d="M13.8199 5.36C13.5799 4.06 13.2799 2.76 12.8499 1.5C12.8299 1.43 12.8299 1.37 12.8199 1.29C12.0799 1.11 11.2999 1 10.4999 1C9.68993 1 8.91993 1.11 8.16993 1.3C8.15993 1.37 8.16993 1.43 8.14993 1.51C7.72993 2.77 7.41993 4.06 7.17993 5.36C9.38993 5.12 11.6099 5.12 13.8199 5.36Z" fill="#171717"/>
<path d="M5.36 7.17999C4.05 7.41999 2.77 7.72999 1.5 8.14999C1.43 8.16999 1.37 8.16999 1.3 8.17999C1.11 8.91999 1 9.69999 1 10.5C1 11.31 1.11 12.08 1.3 12.83C1.37 12.84 1.43 12.83 1.51 12.85C2.77 13.27 4.06 13.58 5.37 13.82C5.12 11.61 5.12 9.38999 5.36 7.17999Z" fill="#171717"/>
<path d="M19.6999 8.17999C19.6299 8.17999 19.5699 8.16999 19.4899 8.14999C18.2299 7.72999 16.9299 7.41999 15.6299 7.17999C15.8799 9.38999 15.8799 11.61 15.6299 13.81C16.9299 13.57 18.2299 13.27 19.4899 12.84C19.5599 12.82 19.6199 12.83 19.6999 12.82C19.8799 12.07 19.9999 11.3 19.9999 10.49C19.9999 9.69999 19.8899 8.92999 19.6999 8.17999Z" fill="#171717"/>
<path d="M7.17993 15.64C7.41993 16.95 7.71993 18.24 8.14993 19.5C8.16993 19.57 8.15993 19.63 8.16993 19.71C8.91993 19.89 9.68993 20 10.4999 20C11.2999 20 12.0799 19.89 12.8199 19.7C12.8299 19.63 12.8299 19.57 12.8499 19.49C13.2699 18.23 13.5799 16.94 13.8199 15.63C12.7199 15.75 11.6099 15.84 10.4999 15.84C9.38993 15.84 8.27993 15.76 7.17993 15.64Z" fill="#171717"/>
<path d="M6.9501 6.95001C6.6501 9.31001 6.6501 11.69 6.9501 14.06C9.3101 14.36 11.6901 14.36 14.0601 14.06C14.3601 11.7 14.3601 9.32001 14.0601 6.95001C11.6901 6.65001 9.3101 6.65001 6.9501 6.95001Z" fill="#171717"/>
</g>
<defs>
<clipPath id="clip0_1_40307">
<rect width="24" height="24" fill="white"/>
</clipPath>
</defs>
</svg>
