<svg width="24" height="24" viewBox="0 0 24 24" fill="none" xmlns="http://www.w3.org/2000/svg">
<path d="M21.2899 17.02L19.5499 13.54C19.0699 12.57 19.0699 11.44 19.5499 10.47L21.2899 6.99C22.7799 4 19.5699 0.86 16.6199 2.42L15.0799 3.24C14.8699 3.35 14.6999 3.53 14.5999 3.75L8.89993 16.39C8.66993 16.91 8.87993 17.52 9.37993 17.78L16.6199 21.59C19.5699 23.15 22.7799 20 21.2899 17.02Z" fill="#171717"/>
<path opacity="0.4" d="M7.69002 15.6L11.42 7.32C11.84 6.39 10.84 5.45 9.94002 5.93L4.17002 8.96C1.72002 10.25 1.72002 13.75 4.17002 15.04L6.21002 16.11C6.76002 16.4 7.43002 16.17 7.69002 15.6Z" fill="#171717"/>
</svg>
