<svg width="24" height="24" viewBox="0 0 24 24" fill="none" xmlns="http://www.w3.org/2000/svg">
<path d="M5.47015 10.75C4.76015 10.75 4.04015 10.49 3.49015 9.96C1.65015 8.21 0.910155 6.3 1.34016 4.43C1.85016 2.23 3.78015 1.25 5.47015 1.25C7.16015 1.25 9.10016 2.24 9.60016 4.43C10.0302 6.3 9.28016 8.21 7.45015 9.96C6.90015 10.49 6.19016 10.75 5.47015 10.75ZM2.80015 4.77C2.42015 6.44 3.53016 7.92 4.53016 8.87C5.06016 9.38 5.89015 9.37 6.42016 8.87C7.42016 7.92 8.53016 6.44 8.14016 4.76C7.80016 3.28 6.49016 2.75 5.48015 2.75C4.46016 2.75 3.15015 3.28 2.80015 4.77Z" fill="#171717"/>
<path d="M5.50977 6.2C4.95977 6.2 4.50977 5.75 4.50977 5.2C4.50977 4.65 4.94977 4.2 5.50977 4.2H5.51977C6.06977 4.2 6.51977 4.65 6.51977 5.2C6.51977 5.75 6.06977 6.2 5.50977 6.2Z" fill="#171717"/>
<path d="M18.4899 22.75C17.7799 22.75 17.0599 22.49 16.4999 21.96C14.6499 20.21 13.8999 18.3 14.3399 16.42C14.8499 14.23 16.7899 13.24 18.4899 13.24C20.1899 13.24 22.1299 14.23 22.6399 16.42C23.0699 18.29 22.3199 20.21 20.4699 21.95C19.9199 22.49 19.2099 22.75 18.4899 22.75ZM18.4899 14.75C17.4699 14.75 16.1499 15.28 15.7999 16.77C15.4099 18.44 16.5299 19.93 17.5299 20.88C18.0599 21.39 18.8999 21.39 19.4399 20.88C20.4399 19.93 21.5599 18.45 21.1699 16.78C20.8399 15.28 19.5199 14.75 18.4899 14.75Z" fill="#171717"/>
<path d="M18.5298 18.2C17.9798 18.2 17.5298 17.75 17.5298 17.2C17.5298 16.65 17.9698 16.2 18.5298 16.2H18.5398C19.0898 16.2 19.5398 16.65 19.5398 17.2C19.5398 17.75 19.0798 18.2 18.5298 18.2Z" fill="#171717"/>
<path d="M11.9999 19.75H9.31994C8.15994 19.75 7.14994 19.05 6.74994 17.97C6.33994 16.89 6.63994 15.7 7.50994 14.93L15.4999 7.94C15.9799 7.52 15.9899 6.95 15.8499 6.56C15.6999 6.17 15.3199 5.75 14.6799 5.75H11.9999C11.5899 5.75 11.2499 5.41 11.2499 5C11.2499 4.59 11.5899 4.25 11.9999 4.25H14.6799C15.8399 4.25 16.8499 4.95 17.2499 6.03C17.6599 7.11 17.3599 8.3 16.4899 9.07L8.49994 16.06C8.01994 16.48 8.00994 17.05 8.14994 17.44C8.29994 17.83 8.67994 18.25 9.31994 18.25H11.9999C12.4099 18.25 12.7499 18.59 12.7499 19C12.7499 19.41 12.4099 19.75 11.9999 19.75Z" fill="#171717"/>
<path d="M11.9999 19.75H9.31994C8.15994 19.75 7.14994 19.05 6.74994 17.97C6.33994 16.89 6.63994 15.7 7.50994 14.93L15.4999 7.94C15.9799 7.52 15.9899 6.95 15.8499 6.56C15.6999 6.17 15.3199 5.75 14.6799 5.75H11.9999C11.5899 5.75 11.2499 5.41 11.2499 5C11.2499 4.59 11.5899 4.25 11.9999 4.25H14.6799C15.8399 4.25 16.8499 4.95 17.2499 6.03C17.6599 7.11 17.3599 8.3 16.4899 9.07L8.49994 16.06C8.01994 16.48 8.00994 17.05 8.14994 17.44C8.29994 17.83 8.67994 18.25 9.31994 18.25H11.9999C12.4099 18.25 12.7499 18.59 12.7499 19C12.7499 19.41 12.4099 19.75 11.9999 19.75Z" fill="#171717"/>
</svg>
