<svg width="24" height="24" viewBox="0 0 24 24" fill="none" xmlns="http://www.w3.org/2000/svg">
<path d="M10.4199 13.75C10.2899 13.75 10.1599 13.72 10.0399 13.65C8.85988 12.96 8.12988 11.68 8.12988 10.32C8.12988 8.19 9.85988 6.45 11.9999 6.45C13.3699 6.45 14.6499 7.18 15.3399 8.37C15.5499 8.73 15.4299 9.19 15.0699 9.4C14.7099 9.61 14.2499 9.49 14.0399 9.13C13.6199 8.39 12.8399 7.94 11.9999 7.94C10.6999 7.94 9.62988 9 9.62988 10.31C9.62988 11.15 10.0799 11.93 10.7999 12.35C11.1599 12.56 11.2799 13.02 11.0699 13.38C10.9299 13.61 10.6799 13.75 10.4199 13.75Z" fill="#171717"/>
<path d="M5.98999 18.56C5.75999 18.56 5.52999 18.45 5.37999 18.25C2.97999 14.96 2.13999 11.62 2.88999 8.31999C3.66999 4.88999 6.18999 2.34999 9.62999 1.51999C13.23 0.649995 17.01 1.81999 19.24 4.48999C19.51 4.80999 19.46 5.27999 19.15 5.54999C18.83 5.81999 18.36 5.76999 18.09 5.44999C16.22 3.20999 13.04 2.23999 9.97999 2.96999C7.05999 3.66999 5.00999 5.74 4.34999 8.64C3.69999 11.5 4.44999 14.43 6.58999 17.35C6.82999 17.68 6.75999 18.15 6.42999 18.4C6.29999 18.51 6.13999 18.56 5.98999 18.56Z" fill="#171717"/>
<path d="M12.0001 22.76C10.5201 22.76 9.03006 22.2 7.87006 21.09C7.57006 20.8 7.56006 20.33 7.85006 20.03C8.14006 19.73 8.61006 19.72 8.91006 20.01C10.6401 21.68 13.3501 21.68 15.0801 20.01C17.7501 17.44 20.7101 13.38 19.6501 8.67C19.5601 8.27 19.8101 7.86 20.2201 7.77C20.6201 7.68 21.0301 7.93 21.1201 8.34C22.3401 13.73 19.0801 18.25 16.1301 21.09C14.9701 22.2 13.4801 22.76 12.0001 22.76Z" fill="#171717"/>
<path d="M1.99994 22.75C1.80994 22.75 1.61994 22.68 1.46994 22.53C1.17994 22.24 1.17994 21.76 1.46994 21.47L21.4699 1.47C21.7599 1.18 22.2399 1.18 22.5299 1.47C22.8199 1.76 22.8199 2.24 22.5299 2.53L2.52994 22.53C2.37994 22.68 2.18994 22.75 1.99994 22.75Z" fill="#171717"/>
</svg>
