<svg width="24" height="24" viewBox="0 0 24 24" fill="none" xmlns="http://www.w3.org/2000/svg">
<path opacity="0.4" d="M16.1898 2H7.81976C4.17976 2 2.00977 4.17 2.00977 7.81V16.18C2.00977 19.82 4.17976 21.99 7.81976 21.99H16.1898C19.8298 21.99 21.9998 19.82 21.9998 16.18V7.81C21.9998 4.17 19.8298 2 16.1898 2Z" fill="#171717"/>
<path d="M19.35 8.27001C19.31 8.18001 19.26 8.1 19.19 8.03L17.39 6.23C17.1 5.94 16.62 5.94 16.33 6.23C16.04 6.52 16.04 6.99999 16.33 7.28999L16.85 7.81H16.7C14.75 7.81 13.06 8.88 12.13 10.45C11.21 8.88 9.52004 7.81 7.57004 7.81H7.14005L7.66 7.28999C7.95 6.99999 7.95 6.52 7.66 6.23C7.37 5.94 6.89001 5.94 6.60001 6.23L4.80002 8.03C4.51002 8.32 4.51002 8.8 4.80002 9.09L6.60001 10.89C6.75001 11.04 6.94004 11.11 7.13004 11.11C7.32004 11.11 7.51 11.04 7.66 10.89C7.95 10.6 7.95 10.12 7.66 9.83L7.14005 9.31H7.56003C9.66003 9.31 11.37 11.02 11.37 13.12V15.08V17.25C11.37 17.66 11.71 18 12.12 18C12.53 18 12.87 17.66 12.87 17.25V15.08V13.12C12.87 11.02 14.58 9.31 16.69 9.31H16.8401L16.32 9.83C16.03 10.12 16.03 10.6 16.32 10.89C16.47 11.04 16.66 11.11 16.85 11.11C17.04 11.11 17.23 11.04 17.38 10.89L19.18 9.09C19.25 9.02 19.3001 8.94001 19.3401 8.85001C19.4301 8.66001 19.43 8.45001 19.35 8.27001Z" fill="#171717"/>
</svg>
