<svg width="24" height="24" viewBox="0 0 24 24" fill="none" xmlns="http://www.w3.org/2000/svg">
<path d="M12.0001 21.75C10.5301 21.75 9.19009 20.94 8.51009 19.64L2.41009 8.05001C1.59009 6.50001 1.86009 4.70001 3.08009 3.45001C4.30009 2.20001 6.10009 1.90001 7.66009 2.68001L10.9001 4.30001C11.5801 4.64001 12.4001 4.64001 13.0901 4.30001L16.3301 2.68001C17.9001 1.90001 19.7001 2.20001 20.9201 3.45001C22.1401 4.70001 22.4101 6.50001 21.5901 8.05001L15.4901 19.64C14.8101 20.94 13.4701 21.75 12.0001 21.75ZM5.88009 3.75001C5.17009 3.75001 4.55009 4.09001 4.15009 4.50001C3.55009 5.12001 3.12009 6.19001 3.73009 7.35001L9.83009 18.94C10.2601 19.76 11.0701 20.25 11.9901 20.25C12.9101 20.25 13.7201 19.76 14.1501 18.94L20.2501 7.35001C20.8601 6.19001 20.4401 5.11001 19.8301 4.50001C19.2301 3.89001 18.1701 3.44001 16.9901 4.02001L13.7501 5.64001C12.6401 6.19001 11.3301 6.19001 10.2201 5.64001L6.99009 4.02001C6.61009 3.83001 6.23009 3.75001 5.88009 3.75001Z" fill="#171717"/>
</svg>
