<svg width="24" height="24" viewBox="0 0 24 24" fill="none" xmlns="http://www.w3.org/2000/svg">
<path d="M4.27004 5.49L3.30004 6.05C2.75004 6.37 2.29004 7.15 2.29004 7.79V17.52C2.29004 19.42 3.64004 20.2 5.28004 19.26L7.63004 17.92C8.14004 17.63 8.99004 17.6 9.52004 17.87L14.77 20.5C15.3 20.76 16.15 20.74 16.66 20.45L20.99 17.97C21.54 17.65 22 16.87 22 16.23V6.49C22 4.59 20.65 3.81 19.01 4.75L16.66 6.09C16.15 6.38 15.3 6.41 14.77 6.14L9.52004 3.52C8.99004 3.26 8.14004 3.28 7.63004 3.57" stroke="#171717" stroke-width="1.5" stroke-linecap="round" stroke-linejoin="round"/>
<path d="M8.56006 4V17" stroke="#171717" stroke-width="1.5" stroke-linecap="round" stroke-linejoin="round"/>
<path d="M15.73 6.62V20" stroke="#171717" stroke-width="1.5" stroke-linecap="round" stroke-linejoin="round"/>
</svg>
