<svg width="24" height="24" viewBox="0 0 24 24" fill="none" xmlns="http://www.w3.org/2000/svg">
<path d="M14.5299 12.42L13.0799 10.97L14.4799 9.57C14.7699 9.28 14.7699 8.8 14.4799 8.51C14.1899 8.22 13.7099 8.22 13.4199 8.51L12.0199 9.91L10.5699 8.46C10.2799 8.17 9.79994 8.17 9.50994 8.46C9.21994 8.75 9.21994 9.23 9.50994 9.52L10.9599 10.97L9.46994 12.46C9.17994 12.75 9.17994 13.23 9.46994 13.52C9.61994 13.67 9.80994 13.74 9.99994 13.74C10.1899 13.74 10.3799 13.67 10.5299 13.52L12.0199 12.03L13.4699 13.48C13.6199 13.63 13.8099 13.7 13.9999 13.7C14.1899 13.7 14.3799 13.63 14.5299 13.48C14.8199 13.19 14.8199 12.72 14.5299 12.42Z" fill="#171717"/>
<path opacity="0.4" d="M20.62 8.7C19.58 4.07 15.54 2 12 2C12 2 12 2 11.99 2C8.45999 2 4.42999 4.07 3.37999 8.69C2.19999 13.85 5.35999 18.22 8.21999 20.98C9.27999 22 10.64 22.51 12 22.51C13.36 22.51 14.72 22 15.77 20.98C18.63 18.22 21.79 13.86 20.62 8.7Z" fill="#171717"/>
</svg>
