<svg width="24" height="24" viewBox="0 0 24 24" fill="none" xmlns="http://www.w3.org/2000/svg">
<g clip-path="url(#clip0_211_75526)">
<path d="M20.0385 16.0479C20.8907 14.3571 21.1879 12.4405 20.8879 10.571C20.5879 8.7015 19.7059 6.97422 18.3674 5.63496C17.0289 4.29571 15.3022 3.41271 13.4328 3.11161C11.5635 2.8105 9.64677 3.10664 7.95546 3.95788M5.63546 5.63588C3.94882 7.32491 3.00222 9.61478 3.00391 12.0017C3.0056 14.3887 3.95543 16.6772 5.64446 18.3639C7.33349 20.0505 9.62336 20.9971 12.0103 20.9954C14.3973 20.9937 16.6858 20.0439 18.3725 18.3549" stroke="black" stroke-width="1.5" stroke-linecap="round" stroke-linejoin="round"/>
<path d="M9.88404 9.87394C9.32098 10.4362 9.00435 11.1991 9.00378 11.9948C9.00322 12.7905 9.31878 13.5539 9.88104 14.1169C10.4433 14.68 11.2062 14.9966 12.0019 14.9972C12.7976 14.9978 13.561 14.6822 14.124 14.1199M14.694 10.6789C14.3941 10.07 13.8972 9.58014 13.284 9.28894" stroke="black" stroke-width="1.5" stroke-linecap="round" stroke-linejoin="round"/>
<path d="M3 12H9M16 12H21" stroke="black" stroke-width="1.5" stroke-linecap="round" stroke-linejoin="round"/>
<path d="M3 3L21 21" stroke="black" stroke-width="1.5" stroke-linecap="round" stroke-linejoin="round"/>
</g>
<defs>
<clipPath id="clip0_211_75526">
<rect width="24" height="24" fill="white"/>
</clipPath>
</defs>
</svg>
