<svg width="24" height="24" viewBox="0 0 24 24" fill="none" xmlns="http://www.w3.org/2000/svg">
<g clip-path="url(#clip0_211_75517)">
<path d="M18.8153 13.5802C20.7713 15.4052 21.9723 17.0292 21.9993 18.0252M18.5713 18.6182C16.4733 17.9842 13.6273 16.5882 10.6523 14.6422C5.18233 11.0632 1.34833 6.97818 2.09233 5.51918C2.41233 4.89118 3.68333 4.91918 5.38633 5.40618" stroke="black" stroke-width="1.5" stroke-linecap="round" stroke-linejoin="round"/>
<path d="M7.04363 7.05887C5.75366 8.37718 5.03614 10.1513 5.047 11.9958C5.05786 13.8402 5.79623 15.6058 7.10163 16.9088C8.40703 18.2118 10.174 18.947 12.0184 18.9545C13.8628 18.962 15.6357 18.2412 16.9516 16.9489M18.5326 14.5239C19.0224 13.2586 19.1339 11.8782 18.8535 10.5507C18.5732 9.22317 17.9131 8.00574 16.9535 7.04651C15.994 6.08727 14.7763 5.42757 13.4487 5.14766C12.1211 4.86775 10.7408 4.97969 9.47563 5.46987" stroke="black" stroke-width="1.5" stroke-linecap="round" stroke-linejoin="round"/>
<path d="M3 3L21 21" stroke="black" stroke-width="1.5" stroke-linecap="round" stroke-linejoin="round"/>
</g>
<defs>
<clipPath id="clip0_211_75517">
<rect width="24" height="24" fill="white"/>
</clipPath>
</defs>
</svg>
