<svg width="24" height="24" viewBox="0 0 24 24" fill="none" xmlns="http://www.w3.org/2000/svg">
<g clip-path="url(#clip0_211_75544)">
<path d="M11.291 11.295C11.1518 11.4351 11.0571 11.6133 11.019 11.8071C10.9809 12.0009 11.001 12.2016 11.0769 12.384C11.1527 12.5664 11.2808 12.7222 11.4451 12.8318C11.6094 12.9415 11.8025 13 12 13V21C14.488 21 16.74 19.99 18.37 18.358M20.045 16.039C20.675 14.786 21.0021 13.4026 21 12H16" stroke="black" stroke-width="1.5" stroke-linecap="round" stroke-linejoin="round"/>
<path d="M15.9994 8.99999C15.4241 8.23479 14.6411 7.65086 13.7436 7.31759C12.8461 6.98433 11.8718 6.91575 10.9364 7.11999M8.47044 8.46699C7.96369 8.97315 7.57159 9.58228 7.3207 10.2531C7.06981 10.924 6.96597 11.6409 7.01623 12.3554C7.06648 13.0699 7.26965 13.7652 7.61199 14.3944C7.95432 15.0235 8.42782 15.5717 9.00044 16.002" stroke="black" stroke-width="1.5" stroke-linecap="round" stroke-linejoin="round"/>
<path d="M20.485 8.99994C20.0582 7.79676 19.3803 6.69816 18.4964 5.77707C17.6124 4.85598 16.5426 4.13349 15.358 3.65757C14.1734 3.18165 12.9011 2.96319 11.6256 3.0167C10.3501 3.07021 9.10059 3.39447 7.96002 3.96794M5.64302 5.64294C4.56726 6.71765 3.78135 8.04741 3.35864 9.50809C2.93593 10.9688 2.89021 12.5127 3.22574 13.9959C3.56127 15.479 4.26712 16.8529 5.27739 17.9894C6.28767 19.1259 7.56942 19.9879 9.00302 20.4949" stroke="black" stroke-width="1.5" stroke-linecap="round" stroke-linejoin="round"/>
<path d="M3 3L21 21" stroke="black" stroke-width="1.5" stroke-linecap="round" stroke-linejoin="round"/>
</g>
<defs>
<clipPath id="clip0_211_75544">
<rect width="24" height="24" fill="white"/>
</clipPath>
</defs>
</svg>
