<svg width="24" height="24" viewBox="0 0 24 24" fill="none" xmlns="http://www.w3.org/2000/svg">
<g clip-path="url(#clip0_211_75467)">
<path d="M12.0005 18.5L19.2655 20.963C19.3615 21.0007 19.4665 21.0098 19.5676 20.9892C19.6688 20.9687 19.7618 20.9193 19.8355 20.847C19.9098 20.7742 19.9619 20.6818 19.9856 20.5805C20.0093 20.4792 20.0037 20.3732 19.9695 20.275L12.0005 3L4.03047 20.275C3.99621 20.3733 3.99071 20.4793 4.01463 20.5807C4.03854 20.682 4.09087 20.7744 4.16547 20.847C4.23917 20.9193 4.33219 20.9687 4.43333 20.9892C4.53447 21.0098 4.6394 21.0007 4.73547 20.963L12.0005 18.5Z" stroke="black" stroke-width="1.5" stroke-linecap="round" stroke-linejoin="round"/>
</g>
<defs>
<clipPath id="clip0_211_75467">
<rect width="24" height="24" fill="white"/>
</clipPath>
</defs>
</svg>
