<svg width="24" height="24" viewBox="0 0 24 24" fill="none" xmlns="http://www.w3.org/2000/svg">
<g clip-path="url(#clip0_211_75864)">
<path d="M20.975 11.3304C20.8337 9.44005 20.0992 7.6426 18.8762 6.19432C17.6532 4.74604 16.0042 3.72089 14.1642 3.26507C12.3243 2.80924 10.3873 2.94601 8.62969 3.65586C6.87204 4.36572 5.38339 5.61242 4.37604 7.21819C3.36868 8.82395 2.89406 10.7068 3.01984 12.5982C3.14563 14.4896 3.8654 16.293 5.07652 17.7512C6.28765 19.2095 7.92827 20.2481 9.76445 20.7189C11.6006 21.1898 13.5386 21.0688 15.302 20.3734" stroke="black" stroke-width="1.5" stroke-linecap="round" stroke-linejoin="round"/>
<path d="M3.60156 9H20.4016" stroke="black" stroke-width="1.5" stroke-linecap="round" stroke-linejoin="round"/>
<path d="M3.60156 15H13.5016" stroke="black" stroke-width="1.5" stroke-linecap="round" stroke-linejoin="round"/>
<path d="M11.4997 3C9.81501 5.69961 8.92188 8.81787 8.92188 12C8.92188 15.1821 9.81501 18.3004 11.4997 21" stroke="black" stroke-width="1.5" stroke-linecap="round" stroke-linejoin="round"/>
<path d="M12.5 3C14.2787 5.84887 15.173 9.16104 15.07 12.518M14.014 17.921C13.6145 18.9958 13.1072 20.0274 12.5 21" stroke="black" stroke-width="1.5" stroke-linecap="round" stroke-linejoin="round"/>
<path d="M19 22V22.01" stroke="black" stroke-width="1.5" stroke-linecap="round" stroke-linejoin="round"/>
<path d="M19 19C19.4483 18.9986 19.8832 18.8468 20.235 18.569C20.5868 18.2911 20.8352 17.9033 20.9406 17.4675C21.0459 17.0318 21.0019 16.5733 20.8158 16.1655C20.6297 15.7576 20.3122 15.424 19.914 15.218C19.5162 15.0142 19.0611 14.951 18.6228 15.0387C18.1845 15.1264 17.7888 15.3598 17.5 15.701" stroke="black" stroke-width="1.5" stroke-linecap="round" stroke-linejoin="round"/>
</g>
<defs>
<clipPath id="clip0_211_75864">
<rect width="24" height="24" fill="white"/>
</clipPath>
</defs>
</svg>
