<svg width="24" height="24" viewBox="0 0 24 24" fill="none" xmlns="http://www.w3.org/2000/svg">
<g clip-path="url(#clip0_211_75743)">
<path d="M20.942 13.0195C21.1462 11.2301 20.8088 9.42047 19.9734 7.82481C19.1381 6.22916 17.8432 4.92084 16.2563 4.06907C14.6693 3.21731 12.8633 2.86127 11.0718 3.04702C9.28034 3.23277 7.58579 3.95175 6.20735 5.11098C4.82891 6.27021 3.82998 7.81636 3.33977 9.54946C2.84956 11.2825 2.89061 13.1229 3.45762 14.8324C4.02463 16.5419 5.09151 18.0419 6.52028 19.1385C7.94905 20.2352 9.67397 20.8779 11.472 20.9835" stroke="black" stroke-width="1.5" stroke-linecap="round" stroke-linejoin="round"/>
<path d="M3.60156 9H20.4016" stroke="black" stroke-width="1.5" stroke-linecap="round" stroke-linejoin="round"/>
<path d="M3.60156 15H13.5016" stroke="black" stroke-width="1.5" stroke-linecap="round" stroke-linejoin="round"/>
<path d="M11.4997 3C9.81501 5.69961 8.92188 8.81787 8.92188 12C8.92188 15.1821 9.81501 18.3004 11.4997 21" stroke="black" stroke-width="1.5" stroke-linecap="round" stroke-linejoin="round"/>
<path d="M12.5 3C14.5 6.206 15.337 9.913 15.008 13.537" stroke="black" stroke-width="1.5" stroke-linecap="round" stroke-linejoin="round"/>
<path d="M20 21L22 19L20 17" stroke="black" stroke-width="1.5" stroke-linecap="round" stroke-linejoin="round"/>
<path d="M17 17L15 19L17 21" stroke="black" stroke-width="1.5" stroke-linecap="round" stroke-linejoin="round"/>
</g>
<defs>
<clipPath id="clip0_211_75743">
<rect width="24" height="24" fill="white"/>
</clipPath>
</defs>
</svg>
