<svg width="24" height="24" viewBox="0 0 24 24" fill="none" xmlns="http://www.w3.org/2000/svg">
<g clip-path="url(#clip0_211_75704)">
<path d="M12 13L10 11" stroke="black" stroke-width="1.5" stroke-linecap="round" stroke-linejoin="round"/>
<path d="M12 12L14 10" stroke="black" stroke-width="1.5" stroke-linecap="round" stroke-linejoin="round"/>
<path d="M12 21V8" stroke="black" stroke-width="1.5" stroke-linecap="round" stroke-linejoin="round"/>
<path d="M9.82322 16.0004C9.38569 15.9748 8.95909 15.8536 8.57342 15.6454C8.18775 15.4372 7.85239 15.1471 7.59092 14.7953C7.32945 14.4436 7.14823 14.0388 7.05999 13.6095C6.97176 13.1802 6.97866 12.7368 7.08022 12.3104C6.71769 12.0085 6.43147 11.6254 6.24481 11.1921C6.05815 10.7588 5.9763 10.2876 6.00592 9.8168C6.03553 9.34596 6.17578 8.88873 6.41526 8.48226C6.65475 8.07579 6.98672 7.73153 7.38422 7.47744C7.03559 6.85809 6.91817 6.13509 7.05288 5.43724C7.18759 4.7394 7.56568 4.11205 8.11978 3.66697C8.67388 3.22188 9.36801 2.98798 10.0785 3.00693C10.789 3.02588 11.4696 3.29645 11.9992 3.77044C12.5289 3.2972 13.2094 3.02727 13.9194 3.00869C14.6295 2.9901 15.3232 3.22408 15.8769 3.66896C16.4306 4.11385 16.8085 4.74078 16.9434 5.43819C17.0782 6.13559 16.9612 6.85821 16.6132 7.47744C17.0108 7.73145 17.3428 8.07564 17.5824 8.48207C17.822 8.8885 17.9623 9.3457 17.992 9.81655C18.0218 10.2874 17.94 10.7586 17.7534 11.1919C17.5668 11.6253 17.2807 12.0085 16.9182 12.3104C17.0232 12.7512 17.0269 13.2101 16.9292 13.6525C16.8315 14.095 16.6348 14.5096 16.3539 14.8651C16.073 15.2207 15.7152 15.508 15.3074 15.7055C14.8996 15.903 14.4523 16.0055 13.9992 16.0054H9.99922L9.82322 16.0004Z" stroke="black" stroke-width="1.5" stroke-linecap="round" stroke-linejoin="round"/>
</g>
<defs>
<clipPath id="clip0_211_75704">
<rect width="24" height="24" fill="white"/>
</clipPath>
</defs>
</svg>
