<svg width="24" height="24" viewBox="0 0 24 24" fill="none" xmlns="http://www.w3.org/2000/svg">
<g clip-path="url(#clip0_211_75393)">
<path d="M8 10C8 11.0609 8.42143 12.0783 9.17157 12.8284C9.92172 13.5786 10.9391 14 12 14C13.0609 14 14.0783 13.5786 14.8284 12.8284C15.5786 12.0783 16 11.0609 16 10C16 8.93913 15.5786 7.92172 14.8284 7.17157C14.0783 6.42143 13.0609 6 12 6C10.9391 6 9.92172 6.42143 9.17157 7.17157C8.42143 7.92172 8 8.93913 8 10Z" stroke="black" stroke-width="1.5" stroke-linecap="round" stroke-linejoin="round"/>
<path d="M6.75 16C7.59393 16.733 8.58187 17.2814 9.65035 17.61C10.7188 17.9385 11.8442 18.0399 12.9542 17.9076C14.0642 17.7754 15.1342 17.4124 16.0956 16.842C17.057 16.2716 17.8884 15.5065 18.5365 14.5957C19.1845 13.6849 19.6349 12.6486 19.8587 11.5533C20.0825 10.4581 20.0747 9.32822 19.8358 8.2362C19.5969 7.14418 19.1323 6.1142 18.4717 5.21243C17.8111 4.31066 16.9692 3.55705 16 3" stroke="black" stroke-width="1.5" stroke-linecap="round" stroke-linejoin="round"/>
<path d="M12 18V22" stroke="black" stroke-width="1.5" stroke-linecap="round" stroke-linejoin="round"/>
<path d="M8 22H16" stroke="black" stroke-width="1.5" stroke-linecap="round" stroke-linejoin="round"/>
</g>
<defs>
<clipPath id="clip0_211_75393">
<rect width="24" height="24" fill="white"/>
</clipPath>
</defs>
</svg>
