<svg width="24" height="24" viewBox="0 0 24 24" fill="none" xmlns="http://www.w3.org/2000/svg">
<g clip-path="url(#clip0_211_75766)">
<path d="M20.876 10.51C20.5846 8.7737 19.7903 7.16106 18.5915 5.87169C17.3927 4.58232 15.8421 3.67286 14.1316 3.25592C12.4212 2.83897 10.626 2.93284 8.96835 3.52592C7.3107 4.119 5.86341 5.18523 4.80565 6.5926C3.7479 7.99997 3.12615 9.68666 3.01738 11.4438C2.90861 13.201 3.3176 14.9515 4.19371 16.4786C5.06982 18.0057 6.37458 19.2423 7.94642 20.0352C9.51827 20.8282 11.2882 21.1428 13.037 20.94" stroke="black" stroke-width="1.5" stroke-linecap="round" stroke-linejoin="round"/>
<path d="M3.60156 9H20.4016" stroke="black" stroke-width="1.5" stroke-linecap="round" stroke-linejoin="round"/>
<path d="M3.60156 15H13.5016" stroke="black" stroke-width="1.5" stroke-linecap="round" stroke-linejoin="round"/>
<path d="M11.4997 3C9.81501 5.69961 8.92188 8.81787 8.92188 12C8.92188 15.1821 9.81501 18.3004 11.4997 21" stroke="black" stroke-width="1.5" stroke-linecap="round" stroke-linejoin="round"/>
<path d="M12.5 3C14.189 5.70505 15.0824 8.83094 15.078 12.02" stroke="black" stroke-width="1.5" stroke-linecap="round" stroke-linejoin="round"/>
<path d="M21 15H18.5C18.1022 15 17.7206 15.158 17.4393 15.4393C17.158 15.7206 17 16.1022 17 16.5C17 16.8978 17.158 17.2794 17.4393 17.5607C17.7206 17.842 18.1022 18 18.5 18H19.5C19.8978 18 20.2794 18.158 20.5607 18.4393C20.842 18.7206 21 19.1022 21 19.5C21 19.8978 20.842 20.2794 20.5607 20.5607C20.2794 20.842 19.8978 21 19.5 21H17" stroke="black" stroke-width="1.5" stroke-linecap="round" stroke-linejoin="round"/>
<path d="M19 21V22M19 14V15" stroke="black" stroke-width="1.5" stroke-linecap="round" stroke-linejoin="round"/>
</g>
<defs>
<clipPath id="clip0_211_75766">
<rect width="24" height="24" fill="white"/>
</clipPath>
</defs>
</svg>
