<svg width="24" height="24" viewBox="0 0 24 24" fill="none" xmlns="http://www.w3.org/2000/svg">
<g clip-path="url(#clip0_211_75271)">
<path d="M15.0693 15.1025C13.7031 14.5485 12.2039 14.4094 10.759 14.7025C9.31417 14.9956 7.9877 15.7079 6.94531 16.7505" stroke="black" stroke-width="1.5" stroke-linecap="round" stroke-linejoin="round"/>
<path d="M10.269 6.26858L20.195 11.9996C20.9943 10.6316 21.2201 9.00309 20.8231 7.4693C20.4261 5.93551 19.4386 4.62098 18.076 3.81256C16.7135 3.00413 15.0865 2.76744 13.5501 3.15412C12.0137 3.54081 10.6925 4.51948 9.875 5.87658" stroke="black" stroke-width="1.5" stroke-linecap="round" stroke-linejoin="round"/>
<path d="M16.7335 10.0003C18.3915 7.13027 18.9585 4.35627 18.0015 3.80427C17.0445 3.25227 14.9265 5.13027 13.2695 8.00027" stroke="black" stroke-width="1.5" stroke-linecap="round" stroke-linejoin="round"/>
<path d="M15.0007 9L14.2617 10.279" stroke="black" stroke-width="1.5" stroke-linecap="round" stroke-linejoin="round"/>
<path d="M12.794 12.8203L12 14.1963" stroke="black" stroke-width="1.5" stroke-linecap="round" stroke-linejoin="round"/>
<path d="M3 19.2495C3.31129 19.0948 3.65249 19.0095 4 18.9995C4.3895 18.9914 4.77512 19.0782 5.12358 19.2524C5.47203 19.4266 5.77283 19.6831 6 19.9995C6.22717 20.316 6.52797 20.5725 6.87642 20.7467C7.22488 20.9209 7.6105 21.0077 8 20.9995C8.3895 21.0077 8.77512 20.9209 9.12358 20.7467C9.47203 20.5725 9.77283 20.316 10 19.9995C10.2272 19.6831 10.528 19.4266 10.8764 19.2524C11.2249 19.0782 11.6105 18.9914 12 18.9995C12.3895 18.9914 12.7751 19.0782 13.1236 19.2524C13.472 19.4266 13.7728 19.6831 14 19.9995C14.2272 20.316 14.528 20.5725 14.8764 20.7467C15.2249 20.9209 15.6105 21.0077 16 20.9995C16.3895 21.0077 16.7751 20.9209 17.1236 20.7467C17.472 20.5725 17.7728 20.316 18 19.9995C18.2829 19.6054 18.6786 19.3063 19.135 19.1416" stroke="black" stroke-width="1.5" stroke-linecap="round" stroke-linejoin="round"/>
<path d="M3 3L21 21" stroke="black" stroke-width="1.5" stroke-linecap="round" stroke-linejoin="round"/>
</g>
<defs>
<clipPath id="clip0_211_75271">
<rect width="24" height="24" fill="white"/>
</clipPath>
</defs>
</svg>
