<svg width="24" height="24" viewBox="0 0 24 24" fill="none" xmlns="http://www.w3.org/2000/svg">
<g clip-path="url(#clip0_211_75606)">
<path d="M3.70697 6.29297L6.29297 3.70697C6.4805 3.5195 6.73481 3.41418 6.99997 3.41418C7.26514 3.41418 7.51944 3.5195 7.70697 3.70697L13.293 9.29297C13.4804 9.4805 13.5858 9.73481 13.5858 9.99997C13.5858 10.2651 13.4804 10.5194 13.293 10.707L10.707 13.293C10.5194 13.4804 10.2651 13.5858 9.99997 13.5858C9.73481 13.5858 9.4805 13.4804 9.29297 13.293L3.70697 7.70697C3.5195 7.51944 3.41418 7.26514 3.41418 6.99997C3.41418 6.73481 3.5195 6.4805 3.70697 6.29297Z" stroke="black" stroke-width="1.5" stroke-linecap="round" stroke-linejoin="round"/>
<path d="M6 10L3 13L6 16L9 13" stroke="black" stroke-width="1.5" stroke-linecap="round" stroke-linejoin="round"/>
<path d="M10 6L13 3L16 6L13 9" stroke="black" stroke-width="1.5" stroke-linecap="round" stroke-linejoin="round"/>
<path d="M12 12L13.5 13.5" stroke="black" stroke-width="1.5" stroke-linecap="round" stroke-linejoin="round"/>
<path d="M14.5 17C15.163 17 15.7989 16.7366 16.2678 16.2678C16.7366 15.7989 17 15.163 17 14.5" stroke="black" stroke-width="1.5" stroke-linecap="round" stroke-linejoin="round"/>
<path d="M15 21C16.5913 21 18.1174 20.3679 19.2426 19.2426C20.3679 18.1174 21 16.5913 21 15" stroke="black" stroke-width="1.5" stroke-linecap="round" stroke-linejoin="round"/>
</g>
<defs>
<clipPath id="clip0_211_75606">
<rect width="24" height="24" fill="white"/>
</clipPath>
</defs>
</svg>
