<svg width="24" height="24" viewBox="0 0 24 24" fill="none" xmlns="http://www.w3.org/2000/svg">
<g clip-path="url(#clip0_211_76035)">
<path d="M21 21L15 15" stroke="black" stroke-width="1.5" stroke-linecap="round" stroke-linejoin="round"/>
<path d="M3.28906 8.00011C3.63987 6.82434 4.29357 5.76144 5.18464 4.91793C6.07571 4.07443 7.17284 3.47996 8.36606 3.19411C10.0408 2.78877 11.8061 3.01344 13.3259 3.82535C14.8457 4.63726 16.0139 5.9797 16.6081 7.59711" stroke="black" stroke-width="1.5" stroke-linecap="round" stroke-linejoin="round"/>
<path d="M17 4V8H13" stroke="black" stroke-width="1.5" stroke-linecap="round" stroke-linejoin="round"/>
<path d="M16.7056 12C16.3539 13.1739 15.7001 14.2349 14.8097 15.0769C13.9192 15.9189 12.8234 16.5124 11.6316 16.798C9.95704 17.2031 8.19197 16.9783 6.67238 16.1664C5.15278 15.3545 3.98476 14.0122 3.39062 12.395" stroke="black" stroke-width="1.5" stroke-linecap="round" stroke-linejoin="round"/>
<path d="M3 16V12H7" stroke="black" stroke-width="1.5" stroke-linecap="round" stroke-linejoin="round"/>
</g>
<defs>
<clipPath id="clip0_211_76035">
<rect width="24" height="24" fill="white"/>
</clipPath>
</defs>
</svg>
