<svg width="24" height="24" viewBox="0 0 24 24" fill="none" xmlns="http://www.w3.org/2000/svg">
<g clip-path="url(#clip0_211_75563)">
<path d="M13.446 2.60006L21.401 10.5541C21.7845 10.9376 21.9999 11.4577 21.9999 12.0001C21.9999 12.5424 21.7845 13.0625 21.401 13.4461L13.446 21.4011C13.0625 21.7845 12.5423 22 12 22C11.4576 22 10.9375 21.7845 10.554 21.4011L2.59899 13.4461C2.2155 13.0625 2.00006 12.5424 2.00006 12.0001C2.00006 11.4577 2.2155 10.9376 2.59899 10.5541L10.554 2.59906C10.9375 2.21556 11.4576 2.00012 12 2.00012C12.5423 2.00012 13.0625 2.21656 13.446 2.60006Z" stroke="black" stroke-width="1.5" stroke-linecap="round" stroke-linejoin="round"/>
<path d="M9 14V12C9 11.41 9.414 11 10 11H15" stroke="black" stroke-width="1.5" stroke-linecap="round" stroke-linejoin="round"/>
<path d="M13 9L15 11L13 13" stroke="black" stroke-width="1.5" stroke-linecap="round" stroke-linejoin="round"/>
</g>
<defs>
<clipPath id="clip0_211_75563">
<rect width="24" height="24" fill="white"/>
</clipPath>
</defs>
</svg>
