<svg width="24" height="24" viewBox="0 0 24 24" fill="none" xmlns="http://www.w3.org/2000/svg">
<g clip-path="url(#clip0_211_75634)">
<path d="M11.2874 11.2998C11.0992 11.4868 10.993 11.7409 10.9922 12.0061C10.9913 12.2714 11.0959 12.5261 11.2829 12.7143C11.4699 12.9025 11.7239 13.0087 11.9892 13.0095C12.2545 13.0104 12.5092 12.9058 12.6974 12.7188" stroke="black" stroke-width="1.5" stroke-linecap="round" stroke-linejoin="round"/>
<path d="M8.43954 8.48966C7.50877 9.4316 6.98968 10.7043 6.99615 12.0285C7.00263 13.3527 7.53415 14.6203 8.47409 15.5531C9.41402 16.4858 10.6856 17.0077 12.0098 17.004C13.334 17.0004 14.6027 16.4716 15.5375 15.5337M16.9145 12.9227C17.0649 12.1226 17.0177 11.298 16.7769 10.5203C16.5362 9.74269 16.1092 9.03559 15.5331 8.46047C14.957 7.88534 14.2492 7.45957 13.4711 7.22016C12.6931 6.98074 11.8683 6.93492 11.0685 7.08666" stroke="black" stroke-width="1.5" stroke-linecap="round" stroke-linejoin="round"/>
<path d="M5.64717 5.62303C3.95536 7.30689 3.00174 9.59386 2.99612 11.9808C2.99049 14.3678 3.93331 16.6592 5.61717 18.351C7.30103 20.0429 9.588 20.9965 11.975 21.0021C14.3619 21.0077 16.6534 20.0649 18.3452 18.381M20.0282 16.068C20.8862 14.3773 21.1883 12.4588 20.8915 10.5863C20.5948 8.71367 19.7142 6.98265 18.3754 5.64012C17.0366 4.29759 15.3081 3.41214 13.4364 3.11008C11.5646 2.80802 9.64529 3.10478 7.95217 3.95803" stroke="black" stroke-width="1.5" stroke-linecap="round" stroke-linejoin="round"/>
<path d="M3 3L21 21" stroke="black" stroke-width="1.5" stroke-linecap="round" stroke-linejoin="round"/>
</g>
<defs>
<clipPath id="clip0_211_75634">
<rect width="24" height="24" fill="white"/>
</clipPath>
</defs>
</svg>
