<svg width="24" height="24" viewBox="0 0 24 24" fill="none" xmlns="http://www.w3.org/2000/svg">
<g clip-path="url(#clip0_211_75259)">
<path d="M12 12V21" stroke="black" stroke-width="1.5" stroke-linecap="round" stroke-linejoin="round"/>
<path d="M4 13C4.00016 14.643 4.50618 16.2461 5.44928 17.5914C6.39238 18.9367 7.72682 19.9591 9.27127 20.5195C10.8157 21.0799 12.4952 21.1512 14.0816 20.7236C15.668 20.2961 17.0843 19.3906 18.138 18.13M19.578 15.57C19.8583 14.7422 20.0008 13.874 20 13" stroke="black" stroke-width="1.5" stroke-linecap="round" stroke-linejoin="round"/>
<path d="M21 13H19" stroke="black" stroke-width="1.5" stroke-linecap="round" stroke-linejoin="round"/>
<path d="M5 13H3" stroke="black" stroke-width="1.5" stroke-linecap="round" stroke-linejoin="round"/>
<path d="M12.866 8.87306C13.3621 8.7232 13.8109 8.44738 14.1687 8.07248C14.5265 7.69757 14.7811 7.23637 14.9077 6.73381C15.0342 6.23125 15.0284 5.70448 14.8909 5.20483C14.7533 4.70517 14.4886 4.24968 14.1227 3.88274C13.7567 3.51579 13.3019 3.24991 12.8026 3.111C12.3033 2.97209 11.7766 2.96489 11.2737 3.0901C10.7708 3.21531 10.3089 3.46866 9.93306 3.82546C9.5572 4.18227 9.28018 4.63035 9.129 5.12606" stroke="black" stroke-width="1.5" stroke-linecap="round" stroke-linejoin="round"/>
<path d="M3 3L21 21" stroke="black" stroke-width="1.5" stroke-linecap="round" stroke-linejoin="round"/>
</g>
<defs>
<clipPath id="clip0_211_75259">
<rect width="24" height="24" fill="white"/>
</clipPath>
</defs>
</svg>
