<svg width="24" height="24" viewBox="0 0 24 24" fill="none" xmlns="http://www.w3.org/2000/svg">
<g clip-path="url(#clip0_211_75710)">
<path d="M16 5L19 8L17 9L21 13L18 14L22 18H13" stroke="black" stroke-width="1.5" stroke-linecap="round" stroke-linejoin="round"/>
<path d="M15 21V18" stroke="black" stroke-width="1.5" stroke-linecap="round" stroke-linejoin="round"/>
<path d="M8 13L6 11" stroke="black" stroke-width="1.5" stroke-linecap="round" stroke-linejoin="round"/>
<path d="M8 12L10 10" stroke="black" stroke-width="1.5" stroke-linecap="round" stroke-linejoin="round"/>
<path d="M8 21V8" stroke="black" stroke-width="1.5" stroke-linecap="round" stroke-linejoin="round"/>
<path d="M5.82322 16.0004C5.38569 15.9748 4.95909 15.8536 4.57342 15.6454C4.18775 15.4372 3.85239 15.1471 3.59092 14.7953C3.32945 14.4436 3.14823 14.0388 3.05999 13.6095C2.97176 13.1802 2.97866 12.7368 3.08022 12.3104C2.71769 12.0085 2.43147 11.6254 2.24481 11.1921C2.05815 10.7588 1.9763 10.2876 2.00592 9.8168C2.03553 9.34596 2.17578 8.88873 2.41526 8.48226C2.65475 8.07579 2.98672 7.73153 3.38422 7.47744C3.03559 6.85809 2.91817 6.13509 3.05288 5.43724C3.18759 4.7394 3.56568 4.11205 4.11978 3.66697C4.67388 3.22188 5.36801 2.98798 6.07848 3.00693C6.78896 3.02588 7.46963 3.29645 7.99922 3.77044C8.52893 3.2972 9.20937 3.02727 9.91945 3.00869C10.6295 2.9901 11.3232 3.22408 11.8769 3.66896C12.4306 4.11385 12.8085 4.74078 12.9434 5.43819C13.0782 6.13559 12.9612 6.85821 12.6132 7.47744C13.0108 7.73145 13.3428 8.07564 13.5824 8.48207C13.822 8.8885 13.9623 9.3457 13.992 9.81655C14.0218 10.2874 13.94 10.7586 13.7534 11.1919C13.5668 11.6253 13.2807 12.0085 12.9182 12.3104C13.0232 12.7512 13.0269 13.2101 12.9292 13.6525C12.8315 14.095 12.6348 14.5096 12.3539 14.8651C12.073 15.2207 11.7152 15.508 11.3074 15.7055C10.8996 15.903 10.4523 16.0055 9.99922 16.0054H5.99922L5.82322 16.0004Z" stroke="black" stroke-width="1.5" stroke-linecap="round" stroke-linejoin="round"/>
</g>
<defs>
<clipPath id="clip0_211_75710">
<rect width="24" height="24" fill="white"/>
</clipPath>
</defs>
</svg>
