<svg width="24" height="24" viewBox="0 0 24 24" fill="none" xmlns="http://www.w3.org/2000/svg">
<path d="M11.1501 5.19002L10.3701 4.41C9.90008 3.94 9.90008 3.18004 10.3701 2.71004L11.1501 1.93001C11.6201 1.46001 12.3801 1.46001 12.8501 1.93001L13.6301 2.71004C14.1001 3.18004 14.1001 3.94 13.6301 4.41L12.8501 5.19002C12.3801 5.66002 11.6201 5.66002 11.1501 5.19002Z" fill="#171717"/>
<path d="M11.9998 5.91C11.5998 5.91 11.1898 5.76004 10.8898 5.45004L10.1098 4.67001C9.49984 4.06001 9.49984 3.06003 10.1098 2.44003L10.8898 1.66C11.4798 1.06 12.5198 1.07 13.1198 1.66L13.8998 2.44003C14.5098 3.05003 14.5098 4.05001 13.8998 4.67001L13.1198 5.45004C12.8098 5.76004 12.3998 5.91 11.9998 5.91ZM11.9998 1.96005C11.7898 1.96005 11.5798 2.04004 11.4198 2.20004L10.6398 2.98001C10.3198 3.30001 10.3198 3.83005 10.6398 4.15005L11.4198 4.93002C11.7398 5.25002 12.2598 5.25002 12.5898 4.93002L13.3698 4.15005C13.6898 3.83005 13.6898 3.31001 13.3698 2.98001L12.5898 2.20004C12.4198 2.04004 12.2098 1.96005 11.9998 1.96005Z" fill="#171717"/>
<path d="M19.45 9.80994H20.55C21.21 9.80994 21.75 10.3499 21.75 11.0099V12.1099C21.75 12.7699 21.21 13.3099 20.55 13.3099H19.45C18.79 13.3099 18.25 12.7699 18.25 12.1099V11.0099C18.25 10.3499 18.79 9.80994 19.45 9.80994Z" fill="#171717"/>
<path d="M20.5501 13.6899H19.4501C18.5801 13.6899 17.8701 12.9799 17.8701 12.1099V11.0099C17.8701 10.1399 18.5801 9.42993 19.4501 9.42993H20.5501C21.4201 9.42993 22.1301 10.1399 22.1301 11.0099V12.1099C22.1201 12.9799 21.4201 13.6899 20.5501 13.6899ZM19.4501 10.1899C18.9901 10.1899 18.6201 10.56 18.6201 11.02V12.1199C18.6201 12.5799 18.9901 12.95 19.4501 12.95H20.5501C21.0101 12.95 21.3801 12.5799 21.3801 12.1199V11.02C21.3801 10.56 21.0101 10.1899 20.5501 10.1899H19.4501Z" fill="#171717"/>
<path d="M4.55 9.80994H3.45C2.79 9.80994 2.25 10.3499 2.25 11.0099V12.1099C2.25 12.7699 2.79 13.3099 3.45 13.3099H4.55C5.21 13.3099 5.75 12.7699 5.75 12.1099V11.0099C5.75 10.3499 5.21 9.80994 4.55 9.80994Z" fill="#171717"/>
<path d="M4.55012 13.6899H3.45011C2.58011 13.6899 1.87012 12.9799 1.87012 12.1099V11.0099C1.87012 10.1399 2.58011 9.42993 3.45011 9.42993H4.55012C5.42012 9.42993 6.13011 10.1399 6.13011 11.0099V12.1099C6.12011 12.9799 5.42012 13.6899 4.55012 13.6899ZM3.45011 10.1899C2.99011 10.1899 2.62012 10.56 2.62012 11.02V12.1199C2.62012 12.5799 2.99011 12.95 3.45011 12.95H4.55012C5.01012 12.95 5.38011 12.5799 5.38011 12.1199V11.02C5.38011 10.56 5.01012 10.1899 4.55012 10.1899H3.45011Z" fill="#171717"/>
<path fill-rule="evenodd" clip-rule="evenodd" d="M12.7099 4.26972C13.0028 3.97683 13.4777 3.97683 13.7706 4.26972L19.0706 9.56971C19.3635 9.8626 19.3635 10.3375 19.0706 10.6304C18.7777 10.9233 18.3028 10.9233 18.0099 10.6304L12.7099 5.33038C12.417 5.03749 12.417 4.56261 12.7099 4.26972Z" fill="#171717"/>
<path fill-rule="evenodd" clip-rule="evenodd" d="M11.2903 4.26972C11.5832 4.56261 11.5832 5.03749 11.2903 5.33038L5.99029 10.6304C5.6974 10.9233 5.22252 10.9233 4.92963 10.6304C4.63674 10.3375 4.63674 9.8626 4.92963 9.56971L10.2296 4.26972C10.5225 3.97683 10.9974 3.97683 11.2903 4.26972Z" fill="#171717"/>
<path d="M13.2598 22.01H10.6998C9.7798 22.01 9.0998 21.27 9.2698 20.47L9.6898 18.62H14.2798L14.6998 20.47C14.8898 21.32 14.2398 22.01 13.2598 22.01Z" fill="#171717"/>
<path opacity="0.4" d="M16.04 17.05L14.27 18.62H9.68002L7.91002 17.05C6.88002 16.21 6.88002 15.56 7.66002 14.57L10.78 10.63C11 10.36 11.25 10.17 11.52 10.08C11.81 9.98 12.13 9.98 12.42 10.08C12.69 10.18 12.94 10.36 13.16 10.63L16.28 14.57C17.07 15.56 17.03 16.18 16.04 17.05Z" fill="#171717"/>
</svg>
