<svg width="24" height="24" viewBox="0 0 24 24" fill="none" xmlns="http://www.w3.org/2000/svg">
<path d="M14.1501 22H9.87008C8.34008 22 7.20008 20.76 7.49008 19.43L8.19008 16.35H15.8301L16.5301 19.43C16.8501 20.84 15.7801 22 14.1501 22Z" fill="#171717"/>
<path opacity="0.4" d="M18.7701 13.7401L15.8301 16.3501H8.19013L5.25013 13.7401C3.54013 12.3401 3.54013 11.2601 4.84013 9.61005L10.0301 3.04005C10.3901 2.59005 10.8101 2.28005 11.2601 2.12005C11.7501 1.95005 12.2701 1.95005 12.7601 2.12005C13.2101 2.28005 13.6301 2.59005 13.9901 3.04005L19.1801 9.61005C20.4801 11.2601 20.4201 12.2801 18.7701 13.7401Z" fill="#171717"/>
<path d="M12.7598 2.12005V6.97005C12.7598 7.38005 12.4198 7.72005 12.0098 7.72005C11.5998 7.72005 11.2598 7.38005 11.2598 6.97005V2.12005C11.7498 1.95005 12.2698 1.95005 12.7598 2.12005Z" fill="#171717"/>
</svg>
