<svg width="24" height="24" viewBox="0 0 24 24" fill="none" xmlns="http://www.w3.org/2000/svg">
<path d="M15.0401 13.02C14.8501 13.02 14.6501 12.94 14.5101 12.8L11.2201 9.51002C10.9701 9.26002 10.9301 8.88002 11.1201 8.58002L12.1501 6.95002C12.4801 6.42002 13.0001 6.09002 13.5901 6.03002C14.2401 5.96002 14.9201 6.22002 15.4401 6.74002L17.2901 8.59002C17.7901 9.09002 18.0401 9.77002 17.9701 10.44C17.9001 11.04 17.5801 11.56 17.0801 11.88L15.4501 12.91C15.3101 12.99 15.1701 13.02 15.0401 13.02ZM12.7001 8.87002L15.1501 11.32L16.2701 10.61C16.4101 10.52 16.4601 10.38 16.4701 10.27C16.4901 10.06 16.4001 9.82002 16.2201 9.64002L14.3701 7.80002C14.1701 7.60002 13.9401 7.50002 13.7501 7.52002C13.6101 7.54002 13.5001 7.61002 13.4101 7.75002L12.7001 8.87002Z" fill="#171717"/>
<path d="M8.2902 17.98C7.6702 17.98 7.0902 17.75 6.6802 17.34C6.2002 16.86 5.9702 16.16 6.0602 15.42L6.6602 10.35C6.8602 8.66003 7.6802 7.98003 9.4002 8.09003L11.7902 8.23003C12.2002 8.26003 12.5202 8.61003 12.4902 9.02003C12.4602 9.43003 12.1102 9.75003 11.7002 9.72003L9.3002 9.59003C8.3302 9.53003 8.2402 9.68003 8.1402 10.53L7.5402 15.6C7.5102 15.88 7.5802 16.13 7.7302 16.28C7.8902 16.44 8.1302 16.51 8.4102 16.47L13.4802 15.87C14.4002 15.76 14.5102 15.62 14.4302 14.74L14.2802 12.32C14.2602 11.91 14.5702 11.55 14.9802 11.53C15.3902 11.5 15.7502 11.82 15.7702 12.23L15.9102 14.62C16.0802 16.3 15.3802 17.16 13.6502 17.36L8.5802 17.96C8.4902 17.98 8.3902 17.98 8.2902 17.98Z" fill="#171717"/>
<path d="M7.49018 17.27C7.30018 17.27 7.11018 17.2 6.96018 17.05C6.67018 16.76 6.67018 16.28 6.96018 15.99L8.81018 14.14C9.10018 13.85 9.58018 13.85 9.87018 14.14C10.1602 14.43 10.1602 14.91 9.87018 15.2L8.02018 17.05C7.88018 17.2 7.69018 17.27 7.49018 17.27Z" fill="#171717"/>
<path d="M15 22.75H9C3.57 22.75 1.25 20.43 1.25 15V9C1.25 3.57 3.57 1.25 9 1.25H15C20.43 1.25 22.75 3.57 22.75 9V15C22.75 20.43 20.43 22.75 15 22.75ZM9 2.75C4.39 2.75 2.75 4.39 2.75 9V15C2.75 19.61 4.39 21.25 9 21.25H15C19.61 21.25 21.25 19.61 21.25 15V9C21.25 4.39 19.61 2.75 15 2.75H9Z" fill="#171717"/>
</svg>
