<svg width="24" height="24" viewBox="0 0 24 24" fill="none" xmlns="http://www.w3.org/2000/svg">
<path d="M11.75 7H11H7C4.24 7 2 9.24 2 12V17C2 19.76 4.24 22 7 22H12C14.76 22 17 19.76 17 17V13V12.25C17 9.35 14.65 7 11.75 7Z" fill="#171717"/>
<path d="M21.8801 6.32996C22.4047 8.88955 21.1624 11.2119 19.1593 12.3056C18.8517 12.4736 18.5001 12.234 18.5001 11.8835V11.75C18.5001 8.30996 15.6901 5.49996 12.2501 5.49996H12.1166C11.7661 5.49996 11.5265 5.14842 11.6945 4.84082C12.7882 2.83774 15.1105 1.59538 17.6701 2.11996C19.7601 2.54996 21.4501 4.23996 21.8801 6.32996Z" fill="#171717"/>
</svg>
