<svg width="24" height="24" viewBox="0 0 24 24" fill="none" xmlns="http://www.w3.org/2000/svg">
<path opacity="0.4" d="M16.19 2.00024H7.81C4.17 2.00024 2 4.17024 2 7.81024V16.1802C2 19.8302 4.17 22.0002 7.81 22.0002H16.18C19.82 22.0002 21.99 19.8302 21.99 16.1902V7.81024C22 4.17024 19.83 2.00024 16.19 2.00024Z" fill="#171717"/>
<path d="M21.8298 3.55022C20.7798 6.16022 18.3998 9.57022 16.1198 11.8002C15.7898 9.74022 14.1498 8.13022 12.0698 7.84022C14.3098 5.56022 17.7398 3.14022 20.3598 2.08022C20.8198 1.90022 21.2898 2.04022 21.5698 2.33022C21.8798 2.63022 22.0198 3.09022 21.8298 3.55022Z" fill="#171717"/>
<path opacity="0.4" d="M16.1202 11.7902C15.7202 12.1802 15.3202 12.5402 14.9402 12.8402L13.3702 14.1002C13.1702 14.2402 12.9702 14.3602 12.7502 14.4602C12.7502 14.3102 12.7302 14.1602 12.7202 14.0002C12.6302 13.3402 12.3302 12.7102 11.7902 12.1702C11.2402 11.6302 10.5802 11.3202 9.91018 11.2302C9.75018 11.2102 9.58018 11.2102 9.43018 11.2102C9.52018 10.9602 9.65018 10.7302 9.82018 10.5402L11.0702 8.9702C11.3702 8.5902 11.7102 8.2102 12.0802 7.8302C14.1502 8.1202 15.8002 9.7402 16.1202 11.7902Z" fill="#171717"/>
<path d="M12.7501 14.4702C12.7501 15.3502 12.4101 16.1902 11.7801 16.8202C11.2901 17.3102 10.6401 17.6502 9.84007 17.7502L7.88007 17.9702C6.81007 18.0902 5.89007 17.1702 6.01007 16.0902L6.23007 14.1302C6.42007 12.3802 7.88007 11.2602 9.43007 11.2302C9.58007 11.2202 9.75007 11.2302 9.91007 11.2502C10.5901 11.3402 11.2401 11.6502 11.7901 12.1902C12.3201 12.7202 12.6301 13.3602 12.7201 14.0202C12.7301 14.1702 12.7501 14.3202 12.7501 14.4702Z" fill="#171717"/>
</svg>
