<svg width="24" height="24" viewBox="0 0 24 24" fill="none" xmlns="http://www.w3.org/2000/svg">
<path opacity="0.4" d="M21.9702 12C21.9702 14.49 21.0602 16.77 19.5502 18.52C19.2202 18.9 18.8702 19.26 18.4902 19.57C16.7502 21.09 14.4702 22 11.9702 22C9.48022 22 7.20021 21.09 5.45021 19.58C5.07021 19.25 4.72021 18.9 4.39021 18.52C2.88021 16.77 1.97021 14.49 1.97021 12C1.97021 9.51 2.88021 7.23 4.40021 5.48C4.72021 5.1 5.08021 4.74 5.46021 4.42C7.21021 2.91 9.48022 2 11.9702 2C14.4702 2 16.7502 2.91 18.4902 4.43C18.8702 4.75 19.2302 5.1 19.5502 5.49C21.0602 7.24 21.9702 9.51 21.9702 12Z" fill="#171717"/>
<path d="M15.6501 14.62L19.5501 18.52C19.2201 18.9 18.8701 19.26 18.4901 19.57L14.5901 15.67C13.8501 16.19 12.9601 16.5 12.0001 16.5C11.0201 16.5 10.1201 16.18 9.38014 15.65L5.45014 19.58C5.07014 19.25 4.72014 18.9 4.39014 18.52L8.33014 14.59C7.81014 13.85 7.50014 12.96 7.50014 12C7.50014 11.04 7.81014 10.15 8.33014 9.41004L4.40014 5.48004C4.72014 5.10004 5.08014 4.74004 5.46014 4.42004L9.38014 8.35004C10.1201 7.82004 11.0201 7.50004 12.0001 7.50004C12.9601 7.50004 13.8501 7.81004 14.5901 8.33004L18.4901 4.43004C18.8701 4.75004 19.2301 5.10004 19.5501 5.49004L15.6501 9.38004C16.1801 10.12 16.5001 11.02 16.5001 12C16.5001 12.98 16.1801 13.88 15.6501 14.62Z" fill="#171717"/>
</svg>
