<svg width="24" height="24" viewBox="0 0 24 24" fill="none" xmlns="http://www.w3.org/2000/svg">
<path d="M11.9998 22.72C6.08979 22.72 1.27979 17.91 1.27979 12C1.27979 6.09003 6.08979 1.28003 11.9998 1.28003C14.6498 1.28003 17.1898 2.26003 19.1498 4.03003C21.4198 6.04003 22.7198 8.95003 22.7198 12C22.7198 15.05 21.4198 17.96 19.1398 19.98C17.1898 21.75 14.6498 22.72 11.9998 22.72ZM11.9998 2.78003C6.90979 2.78003 2.77979 6.92003 2.77979 12C2.77979 17.08 6.91979 21.22 11.9998 21.22C14.2798 21.22 16.4598 20.38 18.1498 18.85C20.1098 17.11 21.2298 14.62 21.2298 11.99C21.2298 9.36003 20.1098 6.87003 18.1598 5.14003C16.4598 3.62003 14.2798 2.78003 11.9998 2.78003Z" fill="#171717"/>
<path d="M10.4398 18.91C10.0698 18.91 9.67979 18.83 9.29979 18.68C6.55979 17.58 4.77979 14.95 4.77979 12C4.77979 9.05001 6.54979 6.42001 9.29979 5.32001C10.1698 4.97001 11.0498 5.02001 11.7098 5.46001C12.3498 5.89001 12.7098 6.65001 12.7298 7.60001V16.39V16.4C12.7198 17.35 12.3598 18.12 11.7098 18.54C11.3398 18.79 10.8998 18.91 10.4398 18.91ZM10.4398 6.59001C10.2598 6.59001 10.0598 6.63001 9.85978 6.71001C7.67978 7.58001 6.27979 9.66001 6.27979 12C6.27979 14.34 7.67978 16.42 9.85978 17.29C10.2598 17.45 10.6398 17.45 10.8798 17.3C11.1598 17.11 11.2198 16.7 11.2298 16.39V7.61001C11.2298 7.31001 11.1598 6.89001 10.8798 6.70001C10.7598 6.63001 10.6098 6.59001 10.4398 6.59001Z" fill="#171717"/>
</svg>
