<svg width="24" height="24" viewBox="0 0 24 24" fill="none" xmlns="http://www.w3.org/2000/svg">
<path d="M11.1501 5.19002L10.3701 4.41C9.90008 3.94 9.90008 3.18004 10.3701 2.71004L11.1501 1.93001C11.6201 1.46001 12.3801 1.46001 12.8501 1.93001L13.6301 2.71004C14.1001 3.18004 14.1001 3.94 13.6301 4.41L12.8501 5.19002C12.3801 5.66002 11.6201 5.66002 11.1501 5.19002Z" stroke="#171717" stroke-width="1.5" stroke-linecap="round" stroke-linejoin="round"/>
<path d="M19.45 9.81006H20.55C21.21 9.81006 21.75 10.3501 21.75 11.0101V12.11C21.75 12.77 21.21 13.3101 20.55 13.3101H19.45C18.79 13.3101 18.25 12.77 18.25 12.11V11.0101C18.25 10.3501 18.79 9.81006 19.45 9.81006Z" stroke="#171717" stroke-width="1.5" stroke-linecap="round" stroke-linejoin="round"/>
<path d="M4.55 9.81006H3.45C2.79 9.81006 2.25 10.3501 2.25 11.0101V12.11C2.25 12.77 2.79 13.3101 3.45 13.3101H4.55C5.21 13.3101 5.75 12.77 5.75 12.11V11.0101C5.75 10.3501 5.21 9.81006 4.55 9.81006Z" stroke="#171717" stroke-width="1.5" stroke-linecap="round" stroke-linejoin="round"/>
<path d="M18.5402 10.1L13.2402 4.80005" stroke="#171717" stroke-width="1.5" stroke-linecap="round" stroke-linejoin="round"/>
<path d="M5.45996 10.0999L8.10996 7.44995" stroke="#171717" stroke-width="1.5" stroke-linecap="round" stroke-linejoin="round"/>
<path d="M10.7498 22.5H13.2698C14.2298 22.5 14.8498 21.82 14.6698 20.99L14.2598 19.1801H9.75984L9.34984 20.99C9.16984 21.77 9.84984 22.5 10.7498 22.5Z" stroke="#171717" stroke-width="1.5" stroke-linecap="round" stroke-linejoin="round"/>
<path d="M14.2198 12.6701L13.1698 11.34C12.5298 10.53 11.4798 10.53 10.8398 11.34L7.7898 15.21C7.0198 16.18 7.0198 16.81 8.0298 17.64L9.7598 19.1801" stroke="#171717" stroke-width="1.5" stroke-linecap="round" stroke-linejoin="round"/>
<path d="M14.2598 19.17L15.9898 17.63C16.9598 16.77 16.9998 16.17 16.2298 15.2" stroke="#171717" stroke-width="1.5" stroke-linecap="round" stroke-linejoin="round"/>
<path d="M12.0098 11.12V13.65" stroke="#171717" stroke-width="1.5" stroke-linecap="round" stroke-linejoin="round"/>
</svg>
