<svg width="24" height="24" viewBox="0 0 24 24" fill="none" xmlns="http://www.w3.org/2000/svg">
<path d="M11.9702 22.75C6.05021 22.75 1.22021 17.93 1.22021 12C1.22021 6.07 6.05021 1.25 11.9702 1.25C17.8902 1.25 22.7202 6.07 22.7202 12C22.7202 17.93 17.9002 22.75 11.9702 22.75ZM11.9702 2.75C6.87021 2.75 2.72021 6.9 2.72021 12C2.72021 17.1 6.87021 21.25 11.9702 21.25C17.0702 21.25 21.2202 17.1 21.2202 12C21.2202 6.9 17.0702 2.75 11.9702 2.75Z" fill="#171717"/>
<path d="M12 17.25C9.1 17.25 6.75 14.89 6.75 12C6.75 9.11 9.1 6.75 12 6.75C14.9 6.75 17.25 9.11 17.25 12C17.25 14.89 14.9 17.25 12 17.25ZM12 8.25C9.93 8.25 8.25 9.93 8.25 12C8.25 14.07 9.93 15.75 12 15.75C14.07 15.75 15.75 14.07 15.75 12C15.75 9.93 14.07 8.25 12 8.25Z" fill="#171717"/>
<path d="M8.43984 9.21C8.24984 9.21 8.04984 9.14 7.90984 9L4.36984 5.46C4.07984 5.17 4.07984 4.69 4.36984 4.4C4.65984 4.11 5.13984 4.11 5.42984 4.4L8.96984 7.94C9.25984 8.23 9.25984 8.7 8.96984 9C8.81984 9.14 8.62984 9.21 8.43984 9.21Z" fill="#171717"/>
<path d="M4.89984 19.82C4.70984 19.82 4.51984 19.75 4.36984 19.6C4.07984 19.31 4.07984 18.83 4.36984 18.54L7.90984 15C8.19984 14.71 8.67984 14.71 8.96984 15C9.25984 15.29 9.25984 15.77 8.96984 16.06L5.42984 19.6C5.28984 19.75 5.08984 19.82 4.89984 19.82Z" fill="#171717"/>
<path d="M19.0399 19.82C18.8499 19.82 18.6599 19.75 18.5099 19.6L14.9699 16.06C14.6799 15.77 14.6799 15.29 14.9699 15C15.2599 14.71 15.7399 14.71 16.0299 15L19.5699 18.54C19.8599 18.83 19.8599 19.31 19.5699 19.6C19.4299 19.75 19.2399 19.82 19.0399 19.82Z" fill="#171717"/>
<path d="M15.5102 9.20999C15.3202 9.20999 15.1302 9.13999 14.9802 8.98999C14.6902 8.69999 14.6902 8.21999 14.9802 7.92999L18.5202 4.38999C18.8102 4.09999 19.2902 4.09999 19.5802 4.38999C19.8702 4.67999 19.8702 5.15999 19.5802 5.44999L16.0402 8.99999C15.8902 9.13999 15.7002 9.20999 15.5102 9.20999Z" fill="#171717"/>
</svg>
