<svg width="24" height="24" viewBox="0 0 24 24" fill="none" xmlns="http://www.w3.org/2000/svg">
<path d="M16.9802 13.1999C16.7902 13.1999 16.5902 13.1199 16.4502 12.9799L11.0502 7.56994C10.8002 7.31994 10.7602 6.93994 10.9502 6.63994L12.6402 3.96994C13.1102 3.22994 13.8202 2.76994 14.6502 2.67994C15.5802 2.58994 16.5402 2.94994 17.2902 3.69994L20.3202 6.72994C21.0402 7.44994 21.4002 8.41994 21.2902 9.37994C21.2002 10.2199 20.7502 10.9499 20.0502 11.3899L17.3802 13.0799C17.2602 13.1599 17.1202 13.1999 16.9802 13.1999ZM12.5302 6.93994L17.0902 11.4999L19.2602 10.1299C19.5702 9.92994 19.7702 9.60994 19.8102 9.21994C19.8702 8.71994 19.6602 8.18994 19.2702 7.79994L16.2402 4.76994C15.8102 4.33994 15.2902 4.10994 14.8202 4.17994C14.4402 4.21994 14.1302 4.42994 13.9102 4.77994L12.5302 6.93994Z" fill="#171717"/>
<path d="M5.88989 21.34C4.99989 21.34 4.19989 21.02 3.59989 20.43C2.89989 19.73 2.58989 18.76 2.71989 17.68L3.69989 9.35003C3.99989 6.83003 5.10989 5.91003 7.69989 6.06003L11.6199 6.29003C12.0299 6.32003 12.3499 6.67003 12.3199 7.08003C12.2899 7.49003 11.9399 7.81003 11.5299 7.78003L7.60989 7.56003C5.82989 7.45003 5.38989 7.80003 5.18989 9.53003L4.20989 17.85C4.13989 18.46 4.29989 19 4.65989 19.36C5.02989 19.72 5.56989 19.89 6.17989 19.81L14.4999 18.83C16.2499 18.62 16.6399 18.16 16.4699 16.44L16.2299 12.49C16.2099 12.08 16.5199 11.72 16.9299 11.7C17.3399 11.67 17.6999 11.99 17.7199 12.4L17.9499 16.32C18.1899 18.81 17.2099 20.01 14.6599 20.32L6.33989 21.3C6.19989 21.33 6.03989 21.34 5.88989 21.34Z" fill="#171717"/>
<path d="M4.6098 20.1699C4.4198 20.1699 4.2298 20.0999 4.0798 19.9499C3.7898 19.6599 3.7898 19.1799 4.0798 18.8899L7.1198 15.8499C7.4098 15.5599 7.88981 15.5599 8.17981 15.8499C8.46981 16.1399 8.46981 16.6199 8.17981 16.9099L5.1398 19.9499C4.9898 20.0999 4.7998 20.1699 4.6098 20.1699Z" fill="#171717"/>
</svg>
