<svg width="24" height="24" viewBox="0 0 24 24" fill="none" xmlns="http://www.w3.org/2000/svg">
<path d="M1.97021 12.9399V14.9999C1.97021 19.9999 3.97021 21.9999 8.97021 21.9999H14.9702C19.9702 21.9999 21.9702 19.9999 21.9702 14.9999V12.9999" stroke="#171717" stroke-width="1.5" stroke-linecap="round" stroke-linejoin="round"/>
<path d="M10.9702 2H8.97021C3.97021 2 1.97021 4 1.97021 9" stroke="#171717" stroke-width="1.5" stroke-linecap="round" stroke-linejoin="round"/>
<path d="M18.5102 2.99998C19.1702 2.62998 19.8102 2.31998 20.4102 2.07998C20.8802 1.89998 21.3402 2.03998 21.6302 2.32998C21.9302 2.62998 22.0802 3.08998 21.8902 3.55998C20.6602 6.62998 17.5702 10.81 14.9902 12.88L13.4102 14.14C13.2102 14.29 13.0102 14.41 12.7802 14.5C12.7802 14.35 12.7702 14.2 12.7502 14.04C12.6602 13.37 12.3602 12.74 11.8202 12.21C11.2702 11.66 10.6102 11.35 9.9302 11.26C9.7702 11.25 9.6102 11.24 9.4502 11.25C9.5402 11 9.6702 10.77 9.8402 10.58L11.0902 8.99998C12.1602 7.65998 13.8102 6.17998 15.5802 4.88998" stroke="#171717" stroke-width="1.5" stroke-linecap="round" stroke-linejoin="round"/>
<path d="M12.7801 14.49C12.7801 15.37 12.4401 16.21 11.8101 16.85C11.3201 17.34 10.6601 17.68 9.87009 17.78L7.90009 17.99C6.83009 18.11 5.91009 17.2 6.03009 16.11L6.24009 14.14C6.43009 12.39 7.89009 11.27 9.45009 11.24C9.61009 11.23 9.77009 11.24 9.93009 11.25C10.6101 11.34 11.2701 11.65 11.8201 12.2C12.3601 12.74 12.6601 13.36 12.7501 14.03C12.7701 14.19 12.7801 14.35 12.7801 14.49Z" stroke="#171717" stroke-width="1.5" stroke-linecap="round" stroke-linejoin="round"/>
<path d="M15.8198 11.9799C15.8198 9.88994 14.1298 8.18994 12.0298 8.18994" stroke="#171717" stroke-width="1.5" stroke-linecap="round" stroke-linejoin="round"/>
</svg>
