<svg width="24" height="24" viewBox="0 0 24 24" fill="none" xmlns="http://www.w3.org/2000/svg">
<path d="M21.0303 22H13.9902C13.5702 22 13.2402 21.66 13.2402 21.25C13.2402 20.84 13.5802 20.5 13.9902 20.5H21.0303C21.4503 20.5 21.7803 20.84 21.7803 21.25C21.7803 21.66 21.4503 22 21.0303 22Z" fill="#171717"/>
<path opacity="0.4" d="M15.41 16.34L10.66 21.09C9.54997 22.2 7.77002 22.26 6.59002 21.27C6.52002 21.21 6.46002 21.15 6.40002 21.09L5.53003 20.22L3.73999 18.43L2.88 17.57C2.81 17.5 2.75 17.43 2.69 17.36C1.71 16.18 1.78 14.42 2.88 13.32L6.57 9.63996L7.63 8.57996L15.41 16.34Z" fill="#171717"/>
<path d="M21.1199 10.6399L15.4099 16.3399L7.62988 8.57994L13.3399 2.87994C14.5099 1.70994 16.4299 1.70994 17.5999 2.87994L21.1199 6.38994C22.2899 7.55994 22.2899 9.46994 21.1199 10.6399Z" fill="#171717"/>
</svg>
