<svg width="24" height="24" viewBox="0 0 24 24" fill="none" xmlns="http://www.w3.org/2000/svg">
<path d="M5.53003 15.98C5.70003 17.77 6.64003 18.5 8.69003 18.5H11.42C13.7 18.5 14.61 17.59 14.61 15.31V12.58C14.61 10.31 13.7 9.40002 11.42 9.40002H8.69003C6.62003 9.40002 5.68003 10.15 5.53003 12" stroke="#171717" stroke-width="1.5" stroke-linecap="round" stroke-linejoin="round"/>
<path d="M18.4999 8.68V11.41C18.4999 13.69 17.5899 14.6 15.3099 14.6H14.5999V12.58C14.5999 10.31 13.6899 9.4 11.4099 9.4H9.3999V8.68C9.3999 6.4 10.3099 5.5 12.5899 5.5H15.3199C17.5899 5.5 18.4999 6.41 18.4999 8.68Z" stroke="#171717" stroke-width="1.5" stroke-linecap="round" stroke-linejoin="round"/>
<path d="M22 15C22 18.87 18.87 22 15 22L16.05 20.25" stroke="#171717" stroke-width="1.5" stroke-linecap="round" stroke-linejoin="round"/>
<path d="M2 9C2 5.13 5.13 2 9 2L7.95 3.75" stroke="#171717" stroke-width="1.5" stroke-linecap="round" stroke-linejoin="round"/>
</svg>
