<svg width="24" height="24" viewBox="0 0 24 24" fill="none" xmlns="http://www.w3.org/2000/svg">
<path d="M8.97021 2C12.5202 2 15.4502 4.64 15.9002 8.07C15.9502 8.37 15.9702 8.68 15.9702 9C15.9702 12.87 12.8402 16 8.97021 16C8.65021 16 8.34021 15.98 8.04021 15.93C4.61021 15.48 1.97021 12.55 1.97021 9C1.97021 7.07 2.75021 5.32 4.02021 4.05" stroke="#171717" stroke-width="1.5" stroke-linecap="round" stroke-linejoin="round"/>
<path d="M21.97 14.9999C21.97 18.8699 18.84 21.9999 14.97 21.9999C11.42 21.9999 8.49004 19.3599 8.04004 15.9299C8.34004 15.9799 8.65004 15.9999 8.97004 15.9999C12.84 15.9999 15.97 12.8699 15.97 8.99995C15.97 8.67995 15.95 8.36995 15.9 8.06995C19.33 8.51995 21.97 11.4499 21.97 14.9999Z" stroke="#171717" stroke-width="1.5" stroke-linecap="round" stroke-linejoin="round"/>
<path d="M14.1201 14.12L15.4301 15.41" stroke="#171717" stroke-width="1.5" stroke-linecap="round" stroke-linejoin="round"/>
<path d="M16.9702 12L15.9702 11" stroke="#171717" stroke-width="1.5" stroke-linecap="round" stroke-linejoin="round"/>
<path d="M11.9702 17L10.9702 16" stroke="#171717" stroke-width="1.5" stroke-linecap="round" stroke-linejoin="round"/>
</svg>
