<svg width="24" height="24" viewBox="0 0 24 24" fill="none" xmlns="http://www.w3.org/2000/svg">
<path d="M16 9C16 12.87 12.87 16 9 16C8.68 16 8.37 15.98 8.07 15.93C4.64 15.48 2 12.55 2 9C2 5.13 5.13 2 9 2C12.55 2 15.48 4.64 15.93 8.07C15.98 8.37 16 8.68 16 9Z" stroke="#171717" stroke-width="1.5" stroke-linecap="round" stroke-linejoin="round"/>
<path d="M21.9998 14.9999C21.9998 18.8699 18.8698 21.9999 14.9998 21.9999C11.4498 21.9999 8.51982 19.3599 8.06982 15.9299C8.36982 15.9799 8.67982 15.9999 8.99982 15.9999C12.8698 15.9999 15.9998 12.8699 15.9998 8.99995C15.9998 8.67995 15.9798 8.36995 15.9298 8.06995C19.3598 8.51995 21.9998 11.4499 21.9998 14.9999Z" stroke="#171717" stroke-width="1.5" stroke-linecap="round" stroke-linejoin="round"/>
<path d="M14.1499 14.12L15.4599 15.41" stroke="#171717" stroke-width="1.5" stroke-linecap="round" stroke-linejoin="round"/>
<path d="M17 12L16 11" stroke="#171717" stroke-width="1.5" stroke-linecap="round" stroke-linejoin="round"/>
<path d="M12 17L11 16" stroke="#171717" stroke-width="1.5" stroke-linecap="round" stroke-linejoin="round"/>
</svg>
