<svg width="24" height="24" viewBox="0 0 24 24" fill="none" xmlns="http://www.w3.org/2000/svg">
<path d="M13.4298 14.9999H4.39985C2.57985 14.9999 1.41985 13.0499 2.29985 11.4499L4.62985 7.20994L6.80985 3.23994C7.71985 1.58994 10.0998 1.58994 11.0098 3.23994L13.1998 7.20994L14.2498 9.11994L15.5298 11.4499C16.4098 13.0499 15.2498 14.9999 13.4298 14.9999Z" fill="#171717"/>
<path d="M22.6498 16C22.6498 19.59 19.7398 22.5 16.1498 22.5C13.0998 22.5 10.5498 20.41 9.83977 17.57C9.76977 17.27 9.99977 17 10.3098 17H14.0798C15.4698 17 16.7298 16.28 17.4398 15.09C18.1398 13.89 18.1698 12.45 17.4898 11.23L16.9898 10.31C16.7998 9.96995 17.0698 9.55995 17.4498 9.62995C20.4098 10.23 22.6498 12.85 22.6498 16Z" fill="#171717"/>
</svg>
