<svg width="24" height="24" viewBox="0 0 24 24" fill="none" xmlns="http://www.w3.org/2000/svg">
<path d="M18.0198 3.00999C18.6898 2.64999 19.3498 2.33999 19.9598 2.09999C20.5498 1.87999 21.1198 2.03999 21.4798 2.40999C21.8598 2.78999 22.0398 3.35999 21.7998 3.94999C20.2598 7.78999 16.3998 13.01 13.1698 15.6L11.1998 17.18C10.9498 17.36 10.6998 17.52 10.4198 17.63C10.4198 17.45 10.4098 17.25 10.3798 17.06C10.2698 16.22 9.88977 15.44 9.21977 14.77C8.53977 14.09 7.70977 13.69 6.85977 13.58C6.65977 13.57 6.45977 13.55 6.25977 13.57C6.36977 13.26 6.53977 12.97 6.74977 12.73L8.30977 10.76C9.65977 9.06999 11.7498 7.19999 13.9698 5.57999" stroke="#171717" stroke-width="1.5" stroke-linecap="round" stroke-linejoin="round"/>
<path d="M10.4298 17.6201C10.4298 18.7201 10.0098 19.77 9.21979 20.57C8.60979 21.18 7.77979 21.6001 6.78979 21.7301L4.32979 22.0001C2.98979 22.1501 1.83979 21.01 1.99979 19.65L2.26979 17.1901C2.50979 15.0001 4.33979 13.6001 6.27979 13.5601C6.47979 13.5501 6.68979 13.56 6.87979 13.57C7.72979 13.68 8.55979 14.0701 9.23979 14.7601C9.90979 15.4301 10.2898 16.21 10.3998 17.05C10.4098 17.24 10.4298 17.4301 10.4298 17.6201Z" stroke="#171717" stroke-width="1.5" stroke-linecap="round" stroke-linejoin="round"/>
<path d="M14.2398 14.47C14.2398 11.86 12.1198 9.73999 9.50977 9.73999" stroke="#171717" stroke-width="1.5" stroke-linecap="round" stroke-linejoin="round"/>
</svg>
