<svg width="24" height="24" viewBox="0 0 24 24" fill="none" xmlns="http://www.w3.org/2000/svg">
<path d="M8.97021 16.75C8.58021 16.75 8.24021 16.72 7.92021 16.67C4.12021 16.17 1.22021 12.87 1.22021 9C1.22021 4.73 4.70021 1.25 8.97021 1.25C12.8402 1.25 16.1402 4.14 16.6402 7.97C16.6902 8.27 16.7202 8.61 16.7202 9C16.7202 13.27 13.2502 16.75 8.97021 16.75ZM8.97021 2.75C5.52022 2.75 2.72021 5.55 2.72021 9C2.72021 12.12 5.05022 14.78 8.14021 15.19C8.40022 15.23 8.67021 15.25 8.97021 15.25C12.4202 15.25 15.2202 12.45 15.2202 9C15.2202 8.7 15.2002 8.43 15.1602 8.19C14.7502 5.08 12.1002 2.75 8.97021 2.75Z" fill="#171717"/>
<path d="M14.9701 22.75C11.1001 22.75 7.80013 19.86 7.30013 16.03C7.27013 15.79 7.35013 15.56 7.52013 15.39C7.69013 15.22 7.94013 15.15 8.17013 15.19C8.41013 15.23 8.67013 15.25 8.97013 15.25C12.4201 15.25 15.2201 12.45 15.2201 8.99998C15.2201 8.69998 15.2001 8.42998 15.1601 8.18998C15.1201 7.95998 15.2001 7.71998 15.3601 7.54998C15.5201 7.37998 15.7501 7.28998 16.0001 7.32998C19.8301 7.82998 22.7201 11.13 22.7201 15C22.7201 19.27 19.2501 22.75 14.9701 22.75ZM8.98013 16.75C9.74013 19.37 12.1701 21.25 14.9701 21.25C18.4201 21.25 21.2201 18.45 21.2201 15C21.2201 12.2 19.3401 9.75998 16.7201 9.00998C16.7201 13.27 13.2501 16.75 8.98013 16.75Z" fill="#171717"/>
<path d="M15.43 16.16C15.24 16.16 15.05 16.09 14.9 15.95L13.6 14.67C13.31 14.38 13.3 13.9 13.59 13.61C13.88 13.32 14.35 13.31 14.65 13.6L15.95 14.88C16.24 15.17 16.25 15.65 15.96 15.94C15.82 16.08 15.62 16.16 15.43 16.16Z" fill="#171717"/>
<path d="M16.9702 12.7499C16.7802 12.7499 16.5902 12.6799 16.4402 12.5299L15.4402 11.5299C15.1502 11.2399 15.1502 10.7599 15.4402 10.4699C15.7302 10.1799 16.2102 10.1799 16.5002 10.4699L17.5002 11.4699C17.7902 11.7599 17.7902 12.2399 17.5002 12.5299C17.3602 12.6799 17.1702 12.7499 16.9702 12.7499Z" fill="#171717"/>
<path d="M11.9702 17.7499C11.7802 17.7499 11.5902 17.6799 11.4402 17.5299L10.4402 16.5299C10.1502 16.2399 10.1502 15.7599 10.4402 15.4699C10.7302 15.1799 11.2102 15.1799 11.5002 15.4699L12.5002 16.4699C12.7902 16.7599 12.7902 17.2399 12.5002 17.5299C12.3602 17.6799 12.1702 17.7499 11.9702 17.7499Z" fill="#171717"/>
</svg>
