<svg width="24" height="24" viewBox="0 0 24 24" fill="none" xmlns="http://www.w3.org/2000/svg">
<path opacity="0.4" d="M21.47 5V19C21.47 20.66 20.12 22 18.47 22H14.47C12.81 22 11.47 20.66 11.47 19V5C11.47 3.34 12.81 2 14.47 2H18.47C20.12 2 21.47 3.34 21.47 5Z" fill="#171717"/>
<path d="M17.22 6C17.22 6.41 16.88 6.75 16.47 6.75H11.47V5.25H16.47C16.88 5.25 17.22 5.59 17.22 6Z" fill="#171717"/>
<path d="M16.12 18C16.12 18.41 15.79 18.75 15.37 18.75H11.47V17.25H15.37C15.79 17.25 16.12 17.59 16.12 18Z" fill="#171717"/>
<path d="M17.22 14.01C17.21 14.42 16.88 14.75 16.47 14.75C16.46 14.75 16.46 14.75 16.46 14.75L11.47 14.7V13.2L16.47 13.25C16.89 13.25 17.22 13.59 17.22 14.01Z" fill="#171717"/>
<path d="M15.03 10C15.03 10.41 14.69 10.75 14.28 10.75H11.47V9.25H14.28C14.69 9.25 15.03 9.59 15.03 10Z" fill="#171717"/>
<path opacity="0.4" d="M8.44003 4.95V17.91C8.44003 18.36 8.25003 19.05 8.02003 19.43L7.20003 20.79C6.26003 22.37 4.72003 22.37 3.77003 20.79L2.96003 19.43C2.72003 19.05 2.53003 18.36 2.53003 17.91V4.95C2.53003 3.33 3.86003 2 5.49003 2C7.11003 2 8.44003 3.33 8.44003 4.95Z" fill="#171717"/>
<path d="M8.44003 6.25H2.53003V7.75H8.44003V6.25Z" fill="#171717"/>
</svg>
