<svg width="24" height="24" viewBox="0 0 24 24" fill="none" xmlns="http://www.w3.org/2000/svg">
<path opacity="0.4" d="M22 12C22 17.04 18.26 21.21 13.41 21.9C12.95 21.97 12.48 22 12 22C9.24 22 6.73999 20.88 4.92999 19.07C3.11999 17.26 2 14.76 2 12C2 6.48 6.48 2 12 2C14.76 2 17.26 3.12 19.07 4.93C20.88 6.74 22 9.24 22 12Z" fill="#171717"/>
<path d="M14.83 10.23L12.3499 12.71L18.8799 19.24C18.5199 19.59 18.1299 19.91 17.7199 20.2L11.2899 13.77L8.81995 16.24L13.9399 21.37C14.0499 21.48 14.12 21.62 14.15 21.76C14.15 21.76 14.15 21.76 14.15 21.77C13.91 21.82 13.6599 21.87 13.4099 21.9C13.0899 21.95 12.7699 21.98 12.4399 21.99L7.75995 17.3L5.47992 19.58C5.28992 19.42 5.10993 19.25 4.92993 19.07C4.74993 18.89 4.57992 18.71 4.41992 18.52L18.52 4.42004C18.71 4.58004 18.8899 4.75004 19.0699 4.93004C19.2499 5.11004 19.42 5.29004 19.58 5.48004L15.89 9.17004L21.58 14.86C21.42 15.39 21.2199 15.89 20.9799 16.38L14.83 10.23Z" fill="#171717"/>
</svg>
