<svg width="24" height="24" viewBox="0 0 24 24" fill="none" xmlns="http://www.w3.org/2000/svg">
<path d="M14.1502 22.75H9.87022C8.85022 22.75 7.91022 22.32 7.31022 21.56C6.78022 20.9 6.59022 20.06 6.77022 19.26L7.46022 16.18C7.54022 15.84 7.84022 15.6 8.19022 15.6H15.8302C16.1802 15.6 16.4802 15.84 16.5602 16.18L17.2602 19.26C17.4502 20.12 17.2702 20.95 16.7502 21.6C16.1702 22.33 15.2202 22.75 14.1502 22.75ZM8.79022 17.1L8.23022 19.6C8.15022 19.96 8.24022 20.32 8.48022 20.63C8.79022 21.02 9.31022 21.25 9.87022 21.25H14.1602C14.7702 21.25 15.2902 21.04 15.5802 20.67C15.8202 20.38 15.8902 20 15.8002 19.6L15.2402 17.1H8.79022Z" fill="#171717"/>
<path d="M8.19006 17.1C8.01006 17.1 7.83006 17.04 7.69006 16.91L4.75006 14.3C2.82006 12.71 2.66006 11.17 4.25006 9.15L9.44006 2.57C10.1101 1.72 11.0301 1.25 12.0101 1.25C13.0001 1.25 13.9101 1.72 14.5801 2.57L19.7701 9.15C21.3401 11.14 21.2001 12.59 19.2701 14.3L16.3301 16.91C16.0201 17.18 15.5401 17.16 15.2701 16.85C15.0001 16.54 15.0201 16.07 15.3301 15.79L18.2701 13.18C19.5901 12.01 19.6501 11.43 18.5901 10.08L13.4101 3.5C12.6501 2.53 11.3801 2.53 10.6201 3.5L5.43006 10.08C4.34006 11.46 4.39006 12.07 5.72006 13.16L8.68006 15.79C8.99006 16.06 9.02006 16.54 8.74006 16.85C8.60006 17.01 8.40006 17.1 8.19006 17.1Z" fill="#171717"/>
<path d="M12.0098 7.72004C11.5998 7.72004 11.2598 7.38004 11.2598 6.97004V2.67004C11.2598 2.26004 11.5998 1.92004 12.0098 1.92004C12.4198 1.92004 12.7598 2.26004 12.7598 2.67004V6.97004C12.7598 7.38004 12.4198 7.72004 12.0098 7.72004Z" fill="#171717"/>
<path d="M14.1502 22.75H9.87022C8.85022 22.75 7.91022 22.32 7.31022 21.56C6.78022 20.9 6.59022 20.06 6.77022 19.26L7.46022 16.18C7.54022 15.84 7.84022 15.6 8.19022 15.6H15.8302C16.1802 15.6 16.4802 15.84 16.5602 16.18L17.2602 19.26C17.4502 20.12 17.2702 20.95 16.7502 21.6C16.1702 22.33 15.2202 22.75 14.1502 22.75ZM8.79022 17.1L8.23022 19.6C8.15022 19.96 8.24022 20.32 8.48022 20.63C8.79022 21.02 9.31022 21.25 9.87022 21.25H14.1602C14.7702 21.25 15.2902 21.04 15.5802 20.67C15.8202 20.38 15.8902 20 15.8002 19.6L15.2402 17.1H8.79022Z" fill="#171717"/>
<path d="M8.19006 17.1C8.01006 17.1 7.83006 17.04 7.69006 16.91L4.75006 14.3C2.82006 12.71 2.66006 11.17 4.25006 9.15L9.44006 2.57C10.1101 1.72 11.0301 1.25 12.0101 1.25C13.0001 1.25 13.9101 1.72 14.5801 2.57L19.7701 9.15C21.3401 11.14 21.2001 12.59 19.2701 14.3L16.3301 16.91C16.0201 17.18 15.5401 17.16 15.2701 16.85C15.0001 16.54 15.0201 16.07 15.3301 15.79L18.2701 13.18C19.5901 12.01 19.6501 11.43 18.5901 10.08L13.4101 3.5C12.6501 2.53 11.3801 2.53 10.6201 3.5L5.43006 10.08C4.34006 11.46 4.39006 12.07 5.72006 13.16L8.68006 15.79C8.99006 16.06 9.02006 16.54 8.74006 16.85C8.60006 17.01 8.40006 17.1 8.19006 17.1Z" fill="#171717"/>
<path d="M12.0098 7.72004C11.5998 7.72004 11.2598 7.38004 11.2598 6.97004V2.67004C11.2598 2.26004 11.5998 1.92004 12.0098 1.92004C12.4198 1.92004 12.7598 2.26004 12.7598 2.67004V6.97004C12.7598 7.38004 12.4198 7.72004 12.0098 7.72004Z" fill="#171717"/>
</svg>
