<svg width="24" height="24" viewBox="0 0 24 24" fill="none" xmlns="http://www.w3.org/2000/svg">
<path d="M21.0401 13.28L20.1201 12.38L12.3701 20.12L13.3001 21.05C14.0801 21.83 14.8901 22.22 15.6901 22.22C16.4901 22.22 17.3001 21.83 18.0801 21.05L21.0401 18.09C22.6301 16.49 22.6301 14.88 21.0401 13.28Z" fill="#171717"/>
<path d="M10.6898 2.92994C9.11976 1.35994 7.46977 1.35994 5.89977 2.92994L2.92977 5.88994C1.36977 7.45994 1.36977 9.10994 2.92977 10.6799L3.84977 11.5999L11.5998 3.84994L10.6898 2.92994Z" fill="#171717"/>
<path opacity="0.4" d="M21.8098 3.93997C20.4998 7.20997 17.5098 11.48 14.6598 14.27C14.2498 11.69 12.1898 9.66997 9.58984 9.30997C12.3898 6.44997 16.6898 3.41997 19.9698 2.09997C20.5498 1.87997 21.1298 2.04997 21.4898 2.40997C21.8698 2.78997 22.0498 3.35997 21.8098 3.93997Z" fill="#171717"/>
<path d="M14.66 14.2701C14.16 14.7601 13.66 15.2101 13.18 15.5901L11.21 17.1701C10.96 17.3501 10.71 17.5001 10.43 17.6201C10.43 17.4301 10.41 17.2401 10.39 17.0401C10.28 16.2101 9.90002 15.4201 9.23002 14.7501C8.54002 14.0701 7.72002 13.6801 6.87002 13.5701C6.67002 13.5501 6.46002 13.5401 6.27002 13.5501C6.38002 13.2401 6.55002 12.9501 6.76002 12.7101L8.32002 10.7401C8.69002 10.2701 9.12002 9.79006 9.59002 9.31006C12.19 9.67006 14.25 11.6901 14.66 14.2701Z" fill="#171717"/>
<path opacity="0.4" d="M10.4298 17.6199C10.4298 18.7199 10.0098 19.7699 9.20976 20.5599C8.59976 21.1799 7.77977 21.5999 6.77977 21.7199L4.32976 21.9899C2.98976 22.1399 1.83976 20.9899 1.98976 19.6399L2.25976 17.1799C2.49976 14.9899 4.32976 13.5899 6.26976 13.5499C6.45976 13.5399 6.66976 13.5499 6.86976 13.5699C7.71976 13.6799 8.53976 14.0699 9.22976 14.7499C9.89976 15.4199 10.2798 16.2099 10.3898 17.0399C10.4098 17.2399 10.4298 17.4299 10.4298 17.6199Z" fill="#171717"/>
</svg>
