<svg width="24" height="24" viewBox="0 0 24 24" fill="none" xmlns="http://www.w3.org/2000/svg">
<g clip-path="url(#clip0_1_26838)">
<path d="M10.4298 17.6201C10.4298 18.7201 10.0098 19.77 9.21979 20.57C8.60979 21.18 7.77979 21.6001 6.78979 21.7301L4.32979 22.0001C2.98979 22.1501 1.83979 21.01 1.99979 19.65L2.26979 17.1901C2.50979 15.0001 4.33979 13.6001 6.27979 13.5601C6.47979 13.5501 6.68979 13.56 6.87979 13.57C7.72979 13.68 8.55979 14.0701 9.23979 14.7601C9.90979 15.4301 10.2898 16.21 10.3998 17.05C10.4098 17.24 10.4298 17.4301 10.4298 17.6201Z" stroke="#171717" stroke-width="1.5" stroke-linecap="round" stroke-linejoin="round"/>
<g opacity="0.4">
<path d="M21.8095 3.93988C20.2695 7.77988 16.4095 12.9999 13.1795 15.5899L11.2095 17.1699C10.9595 17.3499 10.7095 17.5099 10.4295 17.6199C10.4295 17.4399 10.4195 17.2399 10.3895 17.0499C10.2795 16.2099 9.89953 15.4299 9.22953 14.7599C8.54953 14.0799 7.71953 13.6799 6.86953 13.5699C6.66953 13.5599 6.46953 13.5399 6.26953 13.5599C6.37953 13.2499 6.54953 12.9599 6.75953 12.7199L8.31953 10.7499C10.8995 7.51988 16.1395 3.63988 19.9695 2.10988C20.5595 1.88988 21.1295 2.04988 21.4895 2.41988C21.8695 2.78988 22.0495 3.35988 21.8095 3.93988Z" stroke="#171717" stroke-width="1.5" stroke-linecap="round" stroke-linejoin="round"/>
<path d="M14.2398 14.4702C14.2398 11.8602 12.1198 9.74023 9.50977 9.74023" stroke="#171717" stroke-width="1.5" stroke-linecap="round" stroke-linejoin="round"/>
</g>
<path d="M20.1202 12.73L20.8602 13.46C22.3502 14.95 22.3502 16.42 20.8602 17.91L17.9002 20.87C16.4302 22.34 14.9402 22.34 13.4702 20.87" stroke="#171717" stroke-width="1.5" stroke-linecap="round"/>
<path d="M3.10982 10.5101C1.63982 9.02006 1.63982 7.55006 3.10982 6.06006L6.06982 3.10006C7.53982 1.63006 9.02982 1.63006 10.4998 3.10006L11.2398 3.84006" stroke="#171717" stroke-width="1.5" stroke-linecap="round"/>
<path opacity="0.4" d="M11.2498 3.84998L7.5498 7.54998" stroke="#171717" stroke-width="1.5" stroke-linecap="round"/>
<path opacity="0.4" d="M20.1202 12.73L17.1602 15.68" stroke="#171717" stroke-width="1.5" stroke-linecap="round"/>
</g>
<defs>
<clipPath id="clip0_1_26838">
<rect width="24" height="24" fill="white"/>
</clipPath>
</defs>
</svg>
