<svg width="24" height="24" viewBox="0 0 24 24" fill="none" xmlns="http://www.w3.org/2000/svg">
<g clip-path="url(#clip0_211_69923)">
<path d="M5 7L13 17M5 17L13 7" stroke="black" stroke-width="1.5" stroke-linecap="round" stroke-linejoin="round"/>
<path d="M21 20H17L20.5 16C20.6313 15.7702 20.7161 15.5168 20.7495 15.2542C20.7829 14.9916 20.7642 14.725 20.6945 14.4697C20.6249 14.2143 20.5056 13.9752 20.3436 13.7659C20.1815 13.5566 19.9798 13.3813 19.75 13.25C19.5202 13.1187 19.2668 13.0339 19.0042 13.0005C18.7416 12.9671 18.475 12.9858 18.2197 13.0555C17.9643 13.1251 17.7252 13.2444 17.5159 13.4064C17.3066 13.5685 17.1313 13.7702 17 14" stroke="black" stroke-width="1.5" stroke-linecap="round" stroke-linejoin="round"/>
</g>
<defs>
<clipPath id="clip0_211_69923">
<rect width="24" height="24" fill="white"/>
</clipPath>
</defs>
</svg>
