<svg width="24" height="24" viewBox="0 0 24 24" fill="none" xmlns="http://www.w3.org/2000/svg">
<g clip-path="url(#clip0_211_69627)">
<path d="M19 11V8C19 7.46957 18.7893 6.96086 18.4142 6.58579C18.0391 6.21071 17.5304 6 17 6H5C4.46957 6 3.96086 6.21071 3.58579 6.58579C3.21071 6.96086 3 7.46957 3 8V13C3 13.5304 3.21071 14.0391 3.58579 14.4142C3.96086 14.7893 4.46957 15 5 15H10" stroke="black" stroke-width="1.5" stroke-linecap="round" stroke-linejoin="round"/>
<path d="M13 15.5C13 16.163 13.2634 16.7989 13.7322 17.2678C14.2011 17.7366 14.837 18 15.5 18C16.163 18 16.7989 17.7366 17.2678 17.2678C17.7366 16.7989 18 16.163 18 15.5C18 14.837 17.7366 14.2011 17.2678 13.7322C16.7989 13.2634 16.163 13 15.5 13C14.837 13 14.2011 13.2634 13.7322 13.7322C13.2634 14.2011 13 14.837 13 15.5Z" stroke="black" stroke-width="1.5" stroke-linecap="round" stroke-linejoin="round"/>
<path d="M17.5 17.5L20 20" stroke="black" stroke-width="1.5" stroke-linecap="round" stroke-linejoin="round"/>
</g>
<defs>
<clipPath id="clip0_211_69627">
<rect width="24" height="24" fill="white"/>
</clipPath>
</defs>
</svg>
