<svg width="24" height="24" viewBox="0 0 24 24" fill="none" xmlns="http://www.w3.org/2000/svg">
<g clip-path="url(#clip0_211_69602)">
<path d="M9 9.00037L3 15.0004V19.0004H7L13 13.0004M15 11.0004L17.503 8.49737C18.0334 7.96694 18.3314 7.24752 18.3314 6.49737C18.3314 5.74723 18.0334 5.02781 17.503 4.49737C17.2404 4.23473 16.9286 4.02639 16.5854 3.88425C16.2422 3.7421 15.8744 3.66895 15.503 3.66895C14.7529 3.66895 14.0334 3.96694 13.503 4.49737L11.006 6.99437" stroke="black" stroke-width="1.5" stroke-linecap="round" stroke-linejoin="round"/>
<path d="M12.5 5.5L16.5 9.5" stroke="black" stroke-width="1.5" stroke-linecap="round" stroke-linejoin="round"/>
<path d="M4.5 13.5L8.5 17.5" stroke="black" stroke-width="1.5" stroke-linecap="round" stroke-linejoin="round"/>
<path d="M19 15H21V17M19 19H13L16 16" stroke="black" stroke-width="1.5" stroke-linecap="round" stroke-linejoin="round"/>
<path d="M3 3L21 21" stroke="black" stroke-width="1.5" stroke-linecap="round" stroke-linejoin="round"/>
</g>
<defs>
<clipPath id="clip0_211_69602">
<rect width="24" height="24" fill="white"/>
</clipPath>
</defs>
</svg>
