<svg width="24" height="24" viewBox="0 0 24 24" fill="none" xmlns="http://www.w3.org/2000/svg">
<path d="M5.33008 2H18.67C19.78 2 20.6901 2.90999 20.6901 4.01999V6.23999C20.6901 7.04999 20.1801 8.06 19.6801 8.56" stroke="#171717" stroke-width="1.5" stroke-miterlimit="10" stroke-linecap="round" stroke-linejoin="round"/>
<path d="M14.3201 19.0699C14.3201 19.6799 13.92 20.4799 13.41 20.7899L12.0001 21.7C10.6901 22.51 8.87006 21.5999 8.87006 19.9799V14.6299C8.87006 13.9199 8.47006 13.0099 8.06006 12.5099L4.22003 8.46994C3.71003 7.95994 3.31006 7.05995 3.31006 6.44995" stroke="#171717" stroke-width="1.5" stroke-miterlimit="10" stroke-linecap="round" stroke-linejoin="round"/>
<path d="M16.0701 16.5201C17.8374 16.5201 19.2701 15.0874 19.2701 13.3201C19.2701 11.5528 17.8374 10.1201 16.0701 10.1201C14.3028 10.1201 12.8701 11.5528 12.8701 13.3201C12.8701 15.0874 14.3028 16.5201 16.0701 16.5201Z" stroke="#171717" stroke-width="1.5" stroke-linecap="round" stroke-linejoin="round"/>
<path d="M19.8701 17.1201L18.8701 16.1201" stroke="#171717" stroke-width="1.5" stroke-linecap="round" stroke-linejoin="round"/>
</svg>
