<svg width="24" height="24" viewBox="0 0 24 24" fill="none" xmlns="http://www.w3.org/2000/svg">
<path opacity="0.4" d="M19.1002 20.2999C18.9002 20.2999 18.7002 20.2 18.6002 20.1C18.3002 19.8 18.3002 19.2999 18.6002 19C20.3002 17.3 21.2002 15 21.2002 12.5C21.2002 7.39995 17.1002 3.29995 12.0002 3.29995C6.9002 3.29995 2.8002 7.39995 2.8002 12.5C2.8002 14.9 3.7002 17.2 5.4002 19C5.7002 19.2999 5.7002 19.8 5.4002 20.1C5.1002 20.4 4.6002 20.4 4.3002 20.1C2.3002 18.1 1.2002 15.4 1.2002 12.6C1.2002 6.59995 6.1002 1.69995 12.0002 1.69995C17.9002 1.69995 22.8002 6.49995 22.8002 12.5C22.8002 15.3 21.7002 18 19.7002 20C19.5002 20.2 19.3002 20.2999 19.1002 20.2999Z" fill="#171717"/>
<path d="M12.0001 22C14.154 22 15.9001 20.2539 15.9001 18.1C15.9001 15.946 14.154 14.2 12.0001 14.2C9.84619 14.2 8.1001 15.946 8.1001 18.1C8.1001 20.2539 9.84619 22 12.0001 22Z" fill="#171717"/>
<path d="M16 8.5C14.9 8.5 14 9.4 14 10.5V11.3C14 12 14.6 12.5 15.2 12.5H16C17.1 12.5 18 11.6 18 10.5C18 9.4 17.1 8.5 16 8.5Z" fill="#171717"/>
</svg>
