<svg width="24" height="24" viewBox="0 0 24 24" fill="none" xmlns="http://www.w3.org/2000/svg">
<path d="M16.1701 10.0601H7.83007C6.65007 10.0601 6.24007 9.27007 6.93007 8.31007L11.1001 2.47007C11.5901 1.77007 12.4101 1.77007 12.9001 2.47007L17.0701 8.31007C17.7601 9.27007 17.3501 10.0601 16.1701 10.0601Z" fill="#171717"/>
<path d="M17.5901 18.0001H6.41009C4.83009 18.0001 4.29009 16.9501 5.22009 15.6701L9.21009 10.0601H14.7901L18.7801 15.6701C19.7101 16.9501 19.1701 18.0001 17.5901 18.0001Z" fill="#171717"/>
<path d="M12.75 18V22C12.75 22.41 12.41 22.75 12 22.75C11.59 22.75 11.25 22.41 11.25 22V18H12.75Z" fill="#171717"/>
</svg>
