<svg width="24" height="24" viewBox="0 0 24 24" fill="none" xmlns="http://www.w3.org/2000/svg">
<path opacity="0.4" d="M9.82997 5.57001L6.35997 7.68L4.77997 5.08002C4.19997 4.13002 4.49998 2.86998 5.45998 2.28998C6.40998 1.70998 7.66997 2.00998 8.24997 2.96998L9.82997 5.57001Z" fill="#171717"/>
<path opacity="0.4" d="M19.2699 17.64L19.2599 17.65L17.9599 18.44L16.6599 19.23L15.3599 20.02L14.0599 20.81L12.7599 21.6H12.7499C11.4399 22.4 9.8199 21.92 9.1499 20.55L7.06992 16.31C6.33992 14.83 6.56991 13.03 7.68991 11.8C7.94991 11.52 8.24992 11.26 8.59992 11.05L11.8099 9.1C12.1699 8.89 12.5299 8.73004 12.8999 8.64004C14.4999 8.20004 16.1999 8.82005 17.1799 10.15L19.9899 13.95C20.8999 15.2 20.5799 16.85 19.2699 17.64Z" fill="#171717"/>
<path d="M12.9 8.66006C12.53 8.75006 12.17 8.90008 11.81 9.12008L8.60005 11.0701C8.24005 11.2801 7.95005 11.5401 7.69005 11.8201C7.68005 11.8201 7.68004 11.8101 7.68004 11.8101L6.03005 9.08011C5.74005 8.60011 5.89005 7.97009 6.36005 7.69009L9.83005 5.58011C10.31 5.29011 10.93 5.44006 11.22 5.91006L12.8801 8.6401C12.8901 8.6501 12.9 8.65006 12.9 8.66006Z" fill="#171717"/>
<path d="M16.6601 19.2299L15.3601 20.0199L13.6901 17.2699C13.4801 16.9099 13.5901 16.4499 13.9401 16.2199C14.3101 16.0099 14.7701 16.1199 14.9901 16.4699L16.6601 19.2299Z" fill="#171717"/>
<path d="M14.06 20.82L12.76 21.61L11.09 18.86C10.87 18.5 10.98 18.04 11.34 17.81C11.7 17.6 12.16 17.71 12.39 18.06L14.06 20.82Z" fill="#171717"/>
<path d="M19.26 17.6501L17.96 18.4401L16.29 15.6901C16.08 15.3301 16.19 14.8701 16.54 14.6401C16.91 14.4301 17.37 14.5401 17.59 14.8901L19.26 17.6501Z" fill="#171717"/>
</svg>
