<svg width="24" height="24" viewBox="0 0 24 24" fill="none" xmlns="http://www.w3.org/2000/svg">
<path d="M20.6199 13.0701C20.2399 13.0701 19.9199 12.7801 19.8699 12.4001C19.6299 10.1401 18.4099 8.0901 16.5299 6.7901C16.1899 6.5501 16.1099 6.0901 16.3399 5.7501C16.5799 5.4101 17.0499 5.3301 17.3799 5.5601C19.6199 7.1101 21.0599 9.5501 21.3499 12.2401C21.3899 12.6501 21.0999 13.0201 20.6799 13.0701C20.6699 13.0701 20.6399 13.0701 20.6199 13.0701Z" fill="#171717"/>
<path d="M3.48991 13.12C3.45991 13.12 3.43991 13.12 3.40991 13.12C2.99991 13.07 2.69991 12.7 2.73991 12.29C3.00991 9.60001 4.43991 7.17001 6.64991 5.60001C6.98991 5.36001 7.45991 5.44001 7.69991 5.78001C7.93991 6.12001 7.85991 6.59001 7.51991 6.83001C5.65991 8.14001 4.45991 10.19 4.22991 12.45C4.19991 12.83 3.86991 13.12 3.48991 13.12Z" fill="#171717"/>
<path d="M12.06 22.61C10.58 22.61 9.16997 22.27 7.84997 21.61C7.47997 21.42 7.32997 20.97 7.51997 20.6C7.70997 20.23 8.15997 20.08 8.52997 20.27C10.69 21.36 13.29 21.38 15.47 20.33C15.84 20.15 16.29 20.31 16.47 20.68C16.65 21.05 16.49 21.5 16.12 21.68C14.84 22.3 13.48 22.61 12.06 22.61Z" fill="#171717"/>
<path d="M12.06 8.43988C10.11 8.43988 8.53003 6.85988 8.53003 4.90988C8.53003 2.95988 10.11 1.37988 12.06 1.37988C14.01 1.37988 15.59 2.95988 15.59 4.90988C15.59 6.85988 14 8.43988 12.06 8.43988ZM12.06 2.88988C10.94 2.88988 10.03 3.79988 10.03 4.91988C10.03 6.03988 10.94 6.94988 12.06 6.94988C13.18 6.94988 14.09 6.03988 14.09 4.91988C14.09 3.79988 13.17 2.88988 12.06 2.88988Z" fill="#171717"/>
<path d="M4.83005 20.6701C2.88005 20.6701 1.30005 19.0901 1.30005 17.1401C1.30005 15.2001 2.88005 13.6101 4.83005 13.6101C6.78005 13.6101 8.36005 15.1901 8.36005 17.1401C8.36005 19.0801 6.78005 20.6701 4.83005 20.6701ZM4.83005 15.1101C3.71005 15.1101 2.80005 16.0201 2.80005 17.1401C2.80005 18.2601 3.71005 19.1701 4.83005 19.1701C5.95005 19.1701 6.86005 18.2601 6.86005 17.1401C6.86005 16.0201 5.95005 15.1101 4.83005 15.1101Z" fill="#171717"/>
<path d="M19.1699 20.6701C17.2199 20.6701 15.6399 19.0901 15.6399 17.1401C15.6399 15.2001 17.2199 13.6101 19.1699 13.6101C21.1199 13.6101 22.6999 15.1901 22.6999 17.1401C22.6899 19.0801 21.1099 20.6701 19.1699 20.6701ZM19.1699 15.1101C18.0499 15.1101 17.1399 16.0201 17.1399 17.1401C17.1399 18.2601 18.0499 19.1701 19.1699 19.1701C20.2899 19.1701 21.1999 18.2601 21.1999 17.1401C21.1899 16.0201 20.2899 15.1101 19.1699 15.1101Z" fill="#171717"/>
</svg>
