<svg width="24" height="24" viewBox="0 0 24 24" fill="none" xmlns="http://www.w3.org/2000/svg">
<path d="M8.82005 4.90003L7.54005 2.78003C7.06005 2.00003 6.11005 1.56003 5.22005 1.82003C3.88005 2.22003 3.36005 3.73003 4.03005 4.84003L5.35005 7.01003C5.50005 7.24003 5.81005 7.32003 6.04005 7.18003L8.65005 5.59003C8.89005 5.44003 8.97005 5.13003 8.82005 4.90003Z" fill="#171717"/>
<path d="M19.7401 14.2101L16.9301 10.4101C15.9501 9.09008 14.2501 8.47008 12.6501 8.90008C12.6501 8.89008 12.6401 8.89008 12.6401 8.88008L10.9801 6.15008C10.6801 5.68008 10.0601 5.53008 9.59012 5.82008L6.12012 7.93008C5.64012 8.21008 5.49012 8.84008 5.78012 9.32008L7.43012 12.0501C7.43012 12.0501 7.43012 12.0601 7.44012 12.0601C6.33012 13.2901 6.09012 15.0801 6.83012 16.5701L8.91012 20.8101C9.55012 22.1201 11.0601 22.6201 12.3401 21.9601C12.4401 21.9101 12.4701 21.7901 12.4101 21.6901L10.8501 19.1101C10.6301 18.7501 10.7401 18.2901 11.1001 18.0601C11.4601 17.8501 11.9201 17.9601 12.1501 18.3101L13.7201 20.8901C13.7801 20.9801 13.9001 21.0101 13.9901 20.9601L14.9501 20.3801C15.0401 20.3201 15.0701 20.2001 15.0201 20.1101L13.4501 17.5301C13.2401 17.1701 13.3501 16.7101 13.7001 16.4801C14.0701 16.2701 14.5301 16.3801 14.7501 16.7301L16.3201 19.3101C16.3801 19.4001 16.5001 19.4301 16.5901 19.3801L17.5501 18.8001C17.6401 18.7401 17.6701 18.6201 17.6201 18.5301L16.0501 15.9501C15.8401 15.5901 15.9501 15.1301 16.3001 14.9001C16.6701 14.6901 17.1301 14.8001 17.3501 15.1501L18.9301 17.7201C18.9901 17.8101 19.1101 17.8401 19.2001 17.7801C20.3601 16.9501 20.6201 15.3901 19.7401 14.2101Z" fill="#171717"/>
</svg>
