<svg width="24" height="24" viewBox="0 0 24 24" fill="none" xmlns="http://www.w3.org/2000/svg">
<path d="M17.8799 6.12009L3.92985 20.0701C3.49985 20.5001 2.77985 20.4601 2.42985 19.9701C1.92985 19.2801 1.82986 18.3201 2.34986 17.4901L5.10985 13.0601C5.47985 12.4701 5.47985 11.5101 5.10985 10.9201L2.34986 6.49009C1.41986 5.01009 2.48985 3.09009 4.22985 3.09009H15.6798C16.3598 3.09009 17.1999 3.56009 17.5599 4.13009L18.0299 4.87009C18.2599 5.28009 18.2099 5.79009 17.8799 6.12009Z" fill="#171717"/>
<path opacity="0.4" d="M21.6299 13.11L16.4499 20.01C16.0899 20.5 15.2899 20.9 14.6699 20.9H7.50986C6.61986 20.9 6.16987 19.82 6.79987 19.19L18.3099 7.67999C18.7599 7.22999 19.5299 7.30999 19.8699 7.85999L21.7199 10.83C22.1299 11.47 22.0899 12.5 21.6299 13.11Z" fill="#171717"/>
</svg>
