<svg width="24" height="24" viewBox="0 0 24 24" fill="none" xmlns="http://www.w3.org/2000/svg">
<path opacity="0.4" d="M10.07 2.82009L3.14004 8.37008C2.36004 8.99008 1.86002 10.3001 2.03002 11.2801L3.36001 19.2401C3.60001 20.6601 4.96002 21.8101 6.40002 21.8101H17.6C19.03 21.8101 20.4 20.6501 20.64 19.2401L21.97 11.2801C22.13 10.3001 21.63 8.99008 20.86 8.37008L13.93 2.8301C12.86 1.9701 11.13 1.97009 10.07 2.82009Z" fill="#171717"/>
<path d="M14.1198 15.1301C13.9298 15.1301 13.7498 15.0601 13.5998 14.9201C12.6298 13.9901 11.3698 13.9901 10.3898 14.9201C10.0898 15.2101 9.61979 15.2002 9.32979 14.9002C9.03979 14.6002 9.04981 14.1302 9.34981 13.8402C10.8998 12.3502 13.0698 12.3502 14.6298 13.8402C14.9298 14.1302 14.9398 14.6002 14.6498 14.9002C14.5198 15.0502 14.3198 15.1301 14.1198 15.1301Z" fill="#171717"/>
<path d="M16.2399 13.01C16.0499 13.01 15.8599 12.94 15.7199 12.8C15.2499 12.34 14.7199 11.97 14.1599 11.7C12.7599 11.03 11.2299 11.03 9.83988 11.7C9.27988 11.97 8.75988 12.34 8.27988 12.8C7.98988 13.09 7.50988 13.09 7.21988 12.79C6.92988 12.49 6.93989 12.02 7.22989 11.73C7.81989 11.15 8.47989 10.69 9.18989 10.35C10.9999 9.48001 12.9999 9.48001 14.7999 10.35C15.5099 10.69 16.1699 11.15 16.7599 11.73C17.0599 12.02 17.0599 12.49 16.7699 12.79C16.6299 12.93 16.4399 13.01 16.2399 13.01Z" fill="#171717"/>
<path d="M11.9998 17.5001C11.7398 17.5001 11.4898 17.4001 11.2898 17.2101C10.8998 16.8201 10.8998 16.1901 11.2898 15.8001C11.6798 15.4101 12.3198 15.4101 12.7098 15.8001C13.0998 16.1901 13.0998 16.8201 12.7098 17.2101C12.5098 17.4001 12.2598 17.5001 11.9998 17.5001Z" fill="#171717"/>
</svg>
