<svg width="24" height="24" viewBox="0 0 24 24" fill="none" xmlns="http://www.w3.org/2000/svg">
<path opacity="0.4" d="M20.9799 3.0201C20.1099 2.1501 18.8799 1.8101 17.6899 2.1101L7.88986 4.5601C6.23986 4.9701 4.96986 6.2501 4.55986 7.8901L2.10986 17.7001C1.80986 18.8901 2.14986 20.1201 3.01986 20.9901C3.67986 21.6401 4.54986 22.0001 5.44986 22.0001C5.72986 22.0001 6.01986 21.9701 6.29986 21.8901L16.1099 19.4401C17.7499 19.0301 19.0299 17.7601 19.4399 16.1101L21.8899 6.3001C22.1899 5.1101 21.8499 3.8801 20.9799 3.0201Z" fill="#171717"/>
<path d="M12.0001 15.8801C14.143 15.8801 15.8801 14.143 15.8801 12.0001C15.8801 9.85725 14.143 8.12012 12.0001 8.12012C9.85725 8.12012 8.12012 9.85725 8.12012 12.0001C8.12012 14.143 9.85725 15.8801 12.0001 15.8801Z" fill="#171717"/>
</svg>
