<svg width="24" height="24" viewBox="0 0 24 24" fill="none" xmlns="http://www.w3.org/2000/svg">
<path d="M19.3302 5.68003L13.0602 2.30003C12.4002 1.94003 11.6002 1.94003 10.9402 2.30003L4.67018 5.68003C4.21018 5.93003 3.93018 6.41003 3.93018 6.96003C3.93018 7.50003 4.21018 7.99003 4.67018 8.24003L10.9402 11.62C11.2702 11.8 11.6402 11.89 12.0002 11.89C12.3602 11.89 12.7302 11.8 13.0602 11.62L19.3302 8.24003C19.7902 7.99003 20.0702 7.51003 20.0702 6.96003C20.0702 6.41003 19.7902 5.93003 19.3302 5.68003Z" fill="#171717"/>
<path d="M9.91 12.79L4.07 9.87C3.62 9.65 3.1 9.67 2.68 9.93C2.25 10.2 2 10.65 2 11.15V16.66C2 17.61 2.53 18.47 3.38 18.9L9.21 21.82C9.41 21.92 9.63 21.97 9.85 21.97C10.11 21.97 10.37 21.9 10.6 21.76C11.03 21.5 11.28 21.04 11.28 20.54V15.03C11.29 14.07 10.76 13.21 9.91 12.79Z" fill="#171717"/>
<path d="M21.3202 9.9299C20.8902 9.6699 20.3702 9.6399 19.9302 9.8699L14.1002 12.7899C13.2502 13.2199 12.7202 14.0699 12.7202 15.0299V20.5399C12.7202 21.0399 12.9702 21.4999 13.4002 21.7599C13.6302 21.8999 13.8902 21.9699 14.1502 21.9699C14.3702 21.9699 14.5902 21.9199 14.7902 21.8199L20.6202 18.8999C21.4702 18.4699 22.0002 17.6199 22.0002 16.6599V11.1499C22.0002 10.6499 21.7502 10.1999 21.3202 9.9299Z" fill="#171717"/>
</svg>
