<svg width="24" height="24" viewBox="0 0 24 24" fill="none" xmlns="http://www.w3.org/2000/svg">
<path d="M6.44995 22C6.03995 22 5.69995 21.66 5.69995 21.25V2.75C5.69995 2.34 6.03995 2 6.44995 2C6.85995 2 7.19995 2.34 7.19995 2.75V21.25C7.19995 21.66 6.85995 22 6.44995 22Z" fill="#171717"/>
<path opacity="0.4" d="M15.2 7.16004L7.09996 3.66004C6.97996 3.60004 6.84996 3.62004 6.73996 3.69004C6.63996 3.76004 6.57996 3.87004 6.57996 4.00004V17C6.57996 17.13 6.64996 17.25 6.75996 17.32C6.81996 17.36 6.88996 17.38 6.95996 17.38C7.01996 17.38 7.06996 17.37 7.12996 17.34L15.43 13.24C15.43 13.24 15.43 13.24 15.44 13.24C17.1 12.38 17.99 11.27 17.94 10.1C17.88 8.92004 16.91 7.88004 15.2 7.16004Z" fill="#171717"/>
</svg>
