<svg width="24" height="24" viewBox="0 0 24 24" fill="none" xmlns="http://www.w3.org/2000/svg">
<path d="M15.59 12.26C18.42 12.26 20.72 9.96 20.72 7.13C20.72 4.3 18.42 2 15.59 2C12.76 2 10.46 4.3 10.46 7.13C10.46 8.43 10.94 9.60999 11.74 10.51" stroke="#171717" stroke-width="1.5" stroke-miterlimit="10" stroke-linecap="round" stroke-linejoin="round"/>
<path d="M3.27979 16.36C3.27979 18.06 4.65977 19.44 6.35977 19.44C8.05977 19.44 9.43979 18.06 9.43979 16.36C9.43979 14.66 8.05977 13.28 6.35977 13.28" stroke="#171717" stroke-width="1.5" stroke-miterlimit="10" stroke-linecap="round" stroke-linejoin="round"/>
<path d="M16.6201 21.9999C18.0339 21.9999 19.1801 20.8537 19.1801 19.4399C19.1801 18.026 18.0339 16.8799 16.6201 16.8799C15.2062 16.8799 14.0601 18.026 14.0601 19.4399C14.0601 20.8537 15.2062 21.9999 16.6201 21.9999Z" stroke="#171717" stroke-width="1.5" stroke-miterlimit="10"/>
</svg>
