<svg width="24" height="24" viewBox="0 0 24 24" fill="none" xmlns="http://www.w3.org/2000/svg">
<path d="M20.1 5.69011C21.66 4.57011 22.41 5.14011 21.77 6.95011L17.73 18.2601C17.59 18.6601 17.12 18.9901 16.7 18.9901H7.29995C6.87995 18.9901 6.40995 18.6601 6.26995 18.2601L2.12995 6.67011C1.53996 5.01011 2.22996 4.50011 3.64996 5.52011L7.54995 8.31011C8.19995 8.76011 8.93995 8.53011 9.21995 7.80011L10.98 3.11011C11.54 1.61011 12.47 1.61011 13.03 3.11011L14.79 7.80011C15.07 8.53011 15.81 8.76011 16.45 8.31011L17.08 7.86011" stroke="#171717" stroke-width="1.5" stroke-linecap="round" stroke-linejoin="round"/>
<path d="M6.5 22H17.5" stroke="#171717" stroke-width="1.5" stroke-linecap="round" stroke-linejoin="round"/>
<path d="M9.5 14H14.5" stroke="#171717" stroke-width="1.5" stroke-linecap="round" stroke-linejoin="round"/>
</svg>
