<svg width="24" height="24" viewBox="0 0 24 24" fill="none" xmlns="http://www.w3.org/2000/svg">
<path opacity="0.4" d="M5.33012 19.42C5.22012 19.42 5.10011 19.39 5.00011 19.34L2.78011 18.23C2.53011 18.1 2.37012 17.84 2.37012 17.56V14.78C2.37012 14.37 2.71012 14.03 3.12012 14.03C3.53012 14.03 3.87012 14.37 3.87012 14.78V17.09L5.68011 17.99C6.05011 18.18 6.20011 18.63 6.02011 19C5.87011 19.26 5.61012 19.42 5.33012 19.42Z" fill="#171717"/>
<path d="M12 22.75C11.94 22.75 11.88 22.74 11.83 22.73C11.77 22.72 11.71 22.69 11.65 22.66L9.43996 21.56C9.06996 21.37 8.91996 20.92 9.09996 20.55C9.28996 20.18 9.73996 20.03 10.11 20.21L11.25 20.78V19.22C11.25 18.81 11.59 18.47 12 18.47C12.41 18.47 12.75 18.81 12.75 19.22V20.78L13.89 20.21C14.26 20.03 14.71 20.18 14.9 20.55C15.09 20.92 14.94 21.37 14.56 21.56L12.35 22.66C12.29 22.69 12.23 22.71 12.17 22.73C12.11 22.74 12.06 22.75 12 22.75Z" fill="#171717"/>
<path opacity="0.4" d="M18.6702 19.42C18.4002 19.42 18.1302 19.27 18.0002 19.01C17.8102 18.64 17.9602 18.19 18.3402 18L20.1502 17.1001V14.79C20.1502 14.38 20.4902 14.04 20.9002 14.04C21.3102 14.04 21.6502 14.38 21.6502 14.79V17.5701C21.6502 17.8501 21.4902 18.1101 21.2402 18.2401L19.0202 19.3501C18.8902 19.3901 18.7802 19.42 18.6702 19.42Z" fill="#171717"/>
<path d="M12 14.42C11.59 14.42 11.25 14.08 11.25 13.67V11.36L9.43996 10.4601C9.06996 10.2701 8.91996 9.82004 9.09996 9.45004C9.28996 9.08004 9.73996 8.93005 10.11 9.11005L12 10.05L13.89 9.11005C14.26 8.93005 14.71 9.07004 14.9 9.45004C15.09 9.82004 14.94 10.2701 14.56 10.4601L12.75 11.36V13.67C12.75 14.08 12.41 14.42 12 14.42Z" fill="#171717"/>
<path opacity="0.4" d="M3.10986 9.96988C2.69986 9.96988 2.35986 9.62988 2.35986 9.21988V6.45988V6.44987C2.35986 6.38987 2.36986 6.32987 2.37986 6.27987C2.39986 6.19987 2.42986 6.12987 2.46986 6.05987C2.49986 6.00987 2.52986 5.96987 2.56986 5.92987C2.60986 5.88987 2.65986 5.84988 2.70986 5.81988C2.72986 5.80988 2.75986 5.78987 2.77986 5.77987L4.98986 4.67987C5.35986 4.49987 5.80986 4.63988 5.99986 5.01988C6.18986 5.38988 6.03987 5.83987 5.65987 6.02987L4.77986 6.46988L5.65987 6.90988C6.02987 7.09988 6.17986 7.54987 5.99986 7.91987C5.81986 8.28987 5.35986 8.43987 4.98986 8.25987L3.84986 7.68988V9.24987C3.85986 9.63987 3.52986 9.96988 3.10986 9.96988Z" fill="#171717"/>
<path d="M14.2198 3.86004C14.1098 3.86004 13.9898 3.83004 13.8898 3.78004L11.9998 2.84004L10.1098 3.78004C9.73979 3.97004 9.28979 3.82004 9.09979 3.44004C8.90979 3.07004 9.05979 2.62003 9.43979 2.43003L11.6598 1.32005C11.8698 1.21005 12.1198 1.21005 12.3298 1.32005L14.5498 2.43003C14.9198 2.62003 15.0698 3.07004 14.8898 3.44004C14.7598 3.71004 14.4998 3.86004 14.2198 3.86004Z" fill="#171717"/>
<path opacity="0.4" d="M20.8899 9.97002C20.4799 9.97002 20.1399 9.63001 20.1399 9.22002V7.66002L18.9999 8.23001C18.6299 8.42001 18.1799 8.27001 17.9899 7.89001C17.7999 7.52001 17.9499 7.07002 18.3299 6.88002L19.2099 6.44002L18.3299 6.00001C17.9599 5.81001 17.8099 5.36002 17.9899 4.99002C18.1699 4.62002 18.6299 4.47001 18.9999 4.65001L21.2099 5.75001C21.2299 5.76001 21.2599 5.77001 21.2799 5.79001C21.3399 5.82001 21.3899 5.87001 21.4399 5.92001C21.4699 5.96001 21.4999 6.00001 21.5299 6.04001C21.5699 6.11001 21.5999 6.18001 21.6199 6.26001C21.6299 6.32001 21.6399 6.38001 21.6399 6.43001V6.44002V9.20001C21.6399 9.64001 21.2999 9.97002 20.8899 9.97002Z" fill="#171717"/>
</svg>
