<svg width="24" height="24" viewBox="0 0 24 24" fill="none" xmlns="http://www.w3.org/2000/svg">
<path d="M12.01 22.7401C11.38 22.7401 10.76 22.5301 10.27 22.1101L8.68999 20.7601C8.52999 20.6201 8.13 20.4801 7.92 20.4801H6.17C4.69 20.4801 3.49 19.2801 3.49 17.8001V16.0901C3.49 15.8801 3.35 15.4801 3.22 15.3301L1.86 13.7301C1.04 12.7601 1.04 11.2401 1.86 10.2601L3.22 8.66007C3.35 8.51007 3.49 8.11007 3.49 7.90007V6.20007C3.49 4.72007 4.69 3.52007 6.17 3.52007H7.9C8.11 3.52007 8.5 3.37007 8.67 3.23007L10.25 1.88007C11.23 1.05007 12.76 1.05007 13.74 1.88007L15.32 3.23007C15.48 3.37007 15.89 3.51007 16.1 3.51007H17.8C19.28 3.51007 20.48 4.71007 20.48 6.19007V7.89007C20.48 8.10007 20.63 8.49007 20.77 8.66007L22.12 10.2401C22.96 11.2301 22.95 12.7601 22.12 13.7301L20.77 15.3101C20.63 15.4801 20.49 15.8701 20.49 16.0801V17.7801C20.49 19.2601 19.29 20.4601 17.81 20.4601H16.11C15.9 20.4601 15.51 20.6101 15.33 20.7501L13.75 22.1001C13.26 22.5301 12.63 22.7401 12.01 22.7401ZM6.17 5.02007C5.52 5.02007 4.98999 5.55007 4.98999 6.20007V7.90007C4.98999 8.47007 4.73 9.19007 4.36 9.63007L3 11.2301C2.66 11.6401 2.66 12.3601 3 12.7601L4.34999 14.3501C4.70999 14.7601 4.98 15.5101 4.98 16.0801V17.7901C4.98 18.4401 5.50999 18.9701 6.16 18.9701H7.9C8.46 18.9701 9.2 19.2401 9.64 19.6101L11.23 20.9701C11.64 21.3201 12.36 21.3201 12.77 20.9701L14.35 19.6201C14.8 19.2401 15.53 18.9801 16.09 18.9801H17.79C18.44 18.9801 18.97 18.4501 18.97 17.8001V16.1001C18.97 15.5401 19.24 14.8101 19.61 14.3601L20.97 12.7701C21.32 12.3601 21.32 11.6401 20.97 11.2301L19.62 9.65007C19.24 9.20007 18.98 8.47007 18.98 7.91007V6.20007C18.98 5.55007 18.45 5.02007 17.8 5.02007H16.1C15.53 5.02007 14.79 4.75007 14.35 4.38007L12.76 3.02007C12.35 2.67007 11.64 2.67007 11.22 3.02007L9.64999 4.38007C9.2 4.75007 8.47 5.02007 7.9 5.02007H6.17Z" fill="#171717"/>
<path d="M12 16.8701C11.45 16.8701 11 16.4201 11 15.8701C11 15.3201 11.44 14.8701 12 14.8701C12.55 14.8701 13 15.3201 13 15.8701C13 16.4201 12.56 16.8701 12 16.8701Z" fill="#171717"/>
<path d="M12 13.7199C11.59 13.7199 11.25 13.3799 11.25 12.9699V8.12988C11.25 7.71988 11.59 7.37988 12 7.37988C12.41 7.37988 12.75 7.71988 12.75 8.12988V12.9599C12.75 13.3799 12.42 13.7199 12 13.7199Z" fill="#171717"/>
</svg>
