<svg width="24" height="24" viewBox="0 0 24 24" fill="none" xmlns="http://www.w3.org/2000/svg">
<g clip-path="url(#clip0_211_72943)">
<path d="M9.5 5.5C9.5 6.16304 9.76339 6.79893 10.2322 7.26777C10.7011 7.73661 11.337 8 12 8C12.663 8 13.2989 7.73661 13.7678 7.26777C14.2366 6.79893 14.5 6.16304 14.5 5.5C14.5 4.83696 14.2366 4.20107 13.7678 3.73223C13.2989 3.26339 12.663 3 12 3C11.337 3 10.7011 3.26339 10.2322 3.73223C9.76339 4.20107 9.5 4.83696 9.5 5.5Z" stroke="black" stroke-width="1.5" stroke-linecap="round" stroke-linejoin="round"/>
<path d="M12.0019 21.368L17.0969 16.272C17.3867 15.9859 17.6171 15.6453 17.7747 15.2699C17.9324 14.8944 18.0142 14.4915 18.0155 14.0843C18.0168 13.6771 17.9376 13.2737 17.7824 12.8972C17.6272 12.5208 17.399 12.1787 17.1111 11.8908C16.8232 11.6028 16.4811 11.3747 16.1047 11.2195C15.7282 11.0643 15.3248 10.985 14.9176 10.9863C14.5104 10.9877 14.1074 11.0695 13.732 11.2272C13.3565 11.3848 13.016 11.6152 12.7299 11.905L12.0019 12.632L11.2739 11.905C10.9878 11.6152 10.6473 11.3848 10.2718 11.2272C9.8964 11.0695 9.49348 10.9877 9.08627 10.9863C8.67907 10.985 8.27563 11.0643 7.89917 11.2195C7.52271 11.3747 7.18067 11.6028 6.89274 11.8908C6.6048 12.1787 6.37665 12.5208 6.22143 12.8972C6.06621 13.2737 5.98698 13.6771 5.9883 14.0843C5.98962 14.4915 6.07146 14.8944 6.22911 15.2699C6.38677 15.6453 6.61712 15.9859 6.90691 16.272L12.0019 21.368Z" stroke="black" stroke-width="1.5" stroke-linecap="round" stroke-linejoin="round"/>
</g>
<defs>
<clipPath id="clip0_211_72943">
<rect width="24" height="24" fill="white"/>
</clipPath>
</defs>
</svg>
