<svg width="24" height="24" viewBox="0 0 24 24" fill="none" xmlns="http://www.w3.org/2000/svg">
<g clip-path="url(#clip0_211_72920)">
<path d="M6 9.99956C6 8.85356 6.277 7.75456 6.78 6.78056M8.572 4.57256C9.84858 3.52995 11.4521 2.97124 13.1002 2.99486C14.7483 3.01847 16.3352 3.62289 17.5814 4.70166C18.8276 5.78042 19.6531 7.26433 19.9126 8.89202C20.1721 10.5197 19.8489 12.1868 19 13.5996C18.8017 13.8639 18.5905 14.1182 18.367 14.3616M16.322 16.3216C15.7585 17.0026 15.3118 17.7724 15 18.5996C14.6897 19.186 14.2535 19.6965 13.7228 20.0946C13.192 20.4928 12.5798 20.7686 11.93 20.9024C11.2802 21.0362 10.6088 21.0246 9.96393 20.8685C9.31908 20.7125 8.71673 20.4157 8.2 19.9996" stroke="black" stroke-width="1.5" stroke-linecap="round" stroke-linejoin="round"/>
<path d="M11.4219 7.41431C11.9968 7.05777 12.6754 6.90603 13.3475 6.98372C14.0195 7.06141 14.6456 7.36398 15.124 7.84229C15.6024 8.32061 15.9051 8.9466 15.983 9.61863C16.0609 10.2907 15.9093 10.9693 15.5529 11.5443" stroke="black" stroke-width="1.5" stroke-linecap="round" stroke-linejoin="round"/>
<path d="M3 3L21 21" stroke="black" stroke-width="1.5" stroke-linecap="round" stroke-linejoin="round"/>
</g>
<defs>
<clipPath id="clip0_211_72920">
<rect width="24" height="24" fill="white"/>
</clipPath>
</defs>
</svg>
