<svg width="24" height="24" viewBox="0 0 24 24" fill="none" xmlns="http://www.w3.org/2000/svg">
<g clip-path="url(#clip0_211_72915)">
<path d="M14.8296 14.8283C15.2117 14.4593 15.5164 14.018 15.726 13.5299C15.9357 13.0419 16.046 12.517 16.0506 11.9859C16.0552 11.4548 15.954 10.9281 15.7529 10.4365C15.5518 9.94492 15.2548 9.49832 14.8792 9.12274C14.5036 8.74717 14.057 8.45016 13.5654 8.24904C13.0739 8.04791 12.5471 7.94671 12.016 7.95132C11.4849 7.95594 10.96 8.06628 10.472 8.27592C9.98399 8.48556 9.54262 8.79028 9.17363 9.17232C8.445 9.92673 8.04182 10.9371 8.05093 11.9859C8.06005 13.0347 8.48072 14.038 9.22235 14.7796C9.96399 15.5212 10.9672 15.9419 12.016 15.951C13.0648 15.9601 14.0752 15.557 14.8296 14.8283Z" stroke="black" stroke-width="1.5" stroke-linecap="round" stroke-linejoin="round"/>
<path d="M9.17262 20.4849C9.54407 20.1134 9.83871 19.6724 10.0397 19.1871C10.2408 18.7018 10.3442 18.1817 10.3442 17.6564C10.3442 17.1311 10.2408 16.6109 10.0397 16.1256C9.83871 15.6403 9.54407 15.1993 9.17262 14.8279C8.80118 14.4564 8.36021 14.1618 7.8749 13.9607C7.38958 13.7597 6.86943 13.6562 6.34413 13.6562C5.81882 13.6563 5.29867 13.7597 4.81335 13.9607C4.32804 14.1618 3.88707 14.4564 3.51562 14.8279" stroke="black" stroke-width="1.5" stroke-linecap="round" stroke-linejoin="round"/>
<path d="M14.8279 3.51465C14.0777 4.26481 13.6562 5.28226 13.6562 6.34315C13.6563 7.40404 14.0777 8.42148 14.8279 9.17165C15.578 9.92181 16.5955 10.3433 17.6564 10.3433C18.7172 10.3433 19.7347 9.92181 20.4849 9.17165" stroke="black" stroke-width="1.5" stroke-linecap="round" stroke-linejoin="round"/>
</g>
<defs>
<clipPath id="clip0_211_72915">
<rect width="24" height="24" fill="white"/>
</clipPath>
</defs>
</svg>
