<svg width="24" height="24" viewBox="0 0 24 24" fill="none" xmlns="http://www.w3.org/2000/svg">
<g clip-path="url(#clip0_211_73065)">
<path d="M6.58108 6.6084C5.37508 7.6664 4.51108 9.2344 3.64808 12.0574C3.22808 13.4274 3.01208 15.0194 3.00008 16.8324C2.98808 18.5074 4.26108 19.8864 5.87708 19.9934L6.08008 20.0004C7.69108 20.0004 8.99808 18.6654 8.99808 17.0204V9.0004" stroke="black" stroke-width="1.5" stroke-linecap="round" stroke-linejoin="round"/>
<path d="M15 11V7.257C15 6.563 15.552 6 16.233 6C16.437 6 16.638 6.052 16.817 6.15L16.947 6.233C18.407 7.292 19.379 8.88 20.352 12.057C20.772 13.427 20.988 15.019 21 16.832C21 16.895 21 16.957 21 17.019M19.545 19.529C19.128 19.794 18.645 19.959 18.126 19.993L17.924 20C16.311 20 15.004 18.665 15.004 17.02V15" stroke="black" stroke-width="1.5" stroke-linecap="round" stroke-linejoin="round"/>
<path d="M9 12.0004C9.39664 12.0008 9.78941 11.9224 10.1554 11.7696C10.5215 11.6168 10.8534 11.3927 11.132 11.1104" stroke="black" stroke-width="1.5" stroke-linecap="round" stroke-linejoin="round"/>
<path d="M12 4V8" stroke="black" stroke-width="1.5" stroke-linecap="round" stroke-linejoin="round"/>
<path d="M3 3L21 21" stroke="black" stroke-width="1.5" stroke-linecap="round" stroke-linejoin="round"/>
</g>
<defs>
<clipPath id="clip0_211_73065">
<rect width="24" height="24" fill="white"/>
</clipPath>
</defs>
</svg>
