<svg width="24" height="24" viewBox="0 0 24 24" fill="none" xmlns="http://www.w3.org/2000/svg">
<g clip-path="url(#clip0_211_72938)">
<path d="M12 8C12.4945 8 12.9778 7.85338 13.3889 7.57867C13.8 7.30397 14.1205 6.91352 14.3097 6.45671C14.4989 5.99989 14.5484 5.49723 14.452 5.01228C14.3555 4.52732 14.1174 4.08187 13.7678 3.73223C13.4181 3.3826 12.9727 3.1445 12.4877 3.04804C12.0028 2.95157 11.5001 3.00108 11.0433 3.1903C10.5865 3.37952 10.196 3.69995 9.92133 4.11108C9.64662 4.5222 9.5 5.00555 9.5 5.5" stroke="black" stroke-width="1.5" stroke-linecap="round" stroke-linejoin="round"/>
<path d="M12.3189 12.315L12.0019 12.632L11.2739 11.905C10.9878 11.6152 10.6473 11.3848 10.2718 11.2272C9.8964 11.0695 9.49348 10.9877 9.08627 10.9863C8.67907 10.985 8.27563 11.0643 7.89917 11.2195C7.52271 11.3747 7.18067 11.6028 6.89274 11.8908C6.6048 12.1787 6.37665 12.5208 6.22143 12.8972C6.06621 13.2737 5.98698 13.6771 5.9883 14.0843C5.98962 14.4915 6.07146 14.8944 6.22911 15.2699C6.38677 15.6453 6.61712 15.9859 6.90691 16.272L12.0019 21.368L16.6909 16.678M18.0149 14.005C17.9973 13.2096 17.6733 12.4516 17.1104 11.8893C16.5476 11.3271 15.7893 11.0038 14.9939 10.987" stroke="black" stroke-width="1.5" stroke-linecap="round" stroke-linejoin="round"/>
<path d="M3 3L21 21" stroke="black" stroke-width="1.5" stroke-linecap="round" stroke-linejoin="round"/>
</g>
<defs>
<clipPath id="clip0_211_72938">
<rect width="24" height="24" fill="white"/>
</clipPath>
</defs>
</svg>
