<svg width="24" height="24" viewBox="0 0 24 24" fill="none" xmlns="http://www.w3.org/2000/svg">
<g clip-path="url(#clip0_211_72925)">
<path d="M6 9.99969C5.99915 8.92057 6.2478 7.85586 6.72652 6.88874C7.20525 5.92162 7.9011 5.07828 8.7597 4.4246C9.6183 3.77091 10.6164 3.32459 11.676 3.12048C12.7357 2.91638 13.8282 2.96004 14.8682 3.24803C15.9081 3.53603 16.8674 4.06056 17.6712 4.78067C18.4749 5.50077 19.1012 6.39695 19.5012 7.39918C19.9013 8.40141 20.0642 9.48256 19.9772 10.5582C19.8903 11.6338 19.5558 12.6747 19 13.5997C18.4315 14.3577 17.7581 15.0311 17 15.5997C16.1137 16.4345 15.4297 17.4605 15 18.5997C14.6897 19.1861 14.2535 19.6967 13.7228 20.0948C13.192 20.4929 12.5798 20.7687 11.93 20.9025C11.2802 21.0363 10.6088 21.0247 9.96393 20.8687C9.31908 20.7126 8.71673 20.4158 8.2 19.9997" stroke="black" stroke-width="1.5" stroke-linecap="round" stroke-linejoin="round"/>
<path d="M10.0002 9.99974C9.99421 9.49785 10.1142 9.00248 10.3493 8.55899C10.5843 8.1155 10.9269 7.73808 11.3456 7.46128C11.7643 7.18449 12.2458 7.01717 12.7459 6.97465C13.246 6.93213 13.7488 7.01578 14.2082 7.21792C14.6676 7.42007 15.069 7.73425 15.3755 8.1317C15.6821 8.52914 15.884 8.99715 15.9628 9.49285C16.0416 9.98855 15.9948 10.4961 15.8266 10.969C15.6584 11.4419 15.3743 11.8651 15.0002 12.1997" stroke="black" stroke-width="1.5" stroke-linecap="round" stroke-linejoin="round"/>
</g>
<defs>
<clipPath id="clip0_211_72925">
<rect width="24" height="24" fill="white"/>
</clipPath>
</defs>
</svg>
