<svg width="24" height="24" viewBox="0 0 24 24" fill="none" xmlns="http://www.w3.org/2000/svg">
<g clip-path="url(#clip0_211_72830)">
<path d="M10 12V12.01" stroke="black" stroke-width="1.5" stroke-linecap="round" stroke-linejoin="round"/>
<path d="M12 14V14.01" stroke="black" stroke-width="1.5" stroke-linecap="round" stroke-linejoin="round"/>
<path d="M10.5136 6.48661L12.5006 4.49961C13.432 3.58679 14.6861 3.07844 15.9902 3.08502C17.2944 3.09161 18.5432 3.6126 19.4654 4.53478C20.3876 5.45696 20.9086 6.70582 20.9152 8.00996C20.9217 9.3141 20.4134 10.5682 19.5006 11.4996L17.4826 13.5176M15.5006 15.4996L11.5006 19.4996C10.5691 20.4124 9.31508 20.9208 8.01094 20.9142C6.70679 20.9076 5.45794 20.3866 4.53576 19.4644C3.61358 18.5422 3.09259 17.2934 3.086 15.9893C3.07941 14.6851 3.58776 13.4311 4.50058 12.4996L8.50058 8.49961" stroke="black" stroke-width="1.5" stroke-linecap="round" stroke-linejoin="round"/>
<path d="M3 3L21 21" stroke="black" stroke-width="1.5" stroke-linecap="round" stroke-linejoin="round"/>
</g>
<defs>
<clipPath id="clip0_211_72830">
<rect width="24" height="24" fill="white"/>
</clipPath>
</defs>
</svg>
