<svg width="24" height="24" viewBox="0 0 24 24" fill="none" xmlns="http://www.w3.org/2000/svg">
<g clip-path="url(#clip0_211_72836)">
<path d="M14 12V12.01" stroke="black" stroke-width="1.5" stroke-linecap="round" stroke-linejoin="round"/>
<path d="M10 12V12.01" stroke="black" stroke-width="1.5" stroke-linecap="round" stroke-linejoin="round"/>
<path d="M12 10V10.01" stroke="black" stroke-width="1.5" stroke-linecap="round" stroke-linejoin="round"/>
<path d="M12 14V14.01" stroke="black" stroke-width="1.5" stroke-linecap="round" stroke-linejoin="round"/>
<path d="M4.50053 12.4996L12.5005 4.49955C13.4288 3.57129 14.6878 3.0498 16.0005 3.0498C17.3133 3.0498 18.5723 3.57129 19.5005 4.49955C20.4288 5.42781 20.9503 6.6868 20.9503 7.99955C20.9503 9.31231 20.4288 10.5713 19.5005 11.4996L11.5005 19.4996C10.5723 20.4278 9.31328 20.9493 8.00053 20.9493C6.68777 20.9493 5.42879 20.4278 4.50053 19.4996C3.57227 18.5713 3.05078 17.3123 3.05078 15.9996C3.05078 14.6868 3.57227 13.4278 4.50053 12.4996Z" stroke="black" stroke-width="1.5" stroke-linecap="round" stroke-linejoin="round"/>
</g>
<defs>
<clipPath id="clip0_211_72836">
<rect width="24" height="24" fill="white"/>
</clipPath>
</defs>
</svg>
