<svg width="24" height="24" viewBox="0 0 24 24" fill="none" xmlns="http://www.w3.org/2000/svg">
<g clip-path="url(#clip0_211_73224)">
<path d="M3 3L21 21" stroke="black" stroke-width="1.5" stroke-linecap="round" stroke-linejoin="round"/>
<path d="M8.46864 8.45996C7.53539 9.3972 7.01152 10.666 7.01172 11.9887C7.01192 13.3113 7.53617 14.58 8.46969 15.517C9.40322 16.4539 10.67 16.9828 11.9926 16.9879C13.3152 16.993 14.586 16.4738 15.5266 15.544" stroke="black" stroke-width="1.5" stroke-linecap="round" stroke-linejoin="round"/>
<path d="M16.9119 12.9364C17.0645 12.1371 17.0197 11.3126 16.7813 10.5346C16.543 9.75652 16.1184 9.0484 15.5443 8.47167C14.9702 7.89495 14.2641 7.46705 13.4871 7.22512C12.7102 6.98319 11.8859 6.93454 11.0859 7.08339" stroke="black" stroke-width="1.5" stroke-linecap="round" stroke-linejoin="round"/>
<path d="M12 7V3" stroke="black" stroke-width="1.5" stroke-linecap="round" stroke-linejoin="round"/>
<path d="M11 3H13" stroke="black" stroke-width="1.5" stroke-linecap="round" stroke-linejoin="round"/>
<path d="M15.5352 8.46374L18.3632 5.63574" stroke="black" stroke-width="1.5" stroke-linecap="round" stroke-linejoin="round"/>
<path d="M17.6562 4.92871L19.0702 6.34271" stroke="black" stroke-width="1.5" stroke-linecap="round" stroke-linejoin="round"/>
<path d="M17 12H21" stroke="black" stroke-width="1.5" stroke-linecap="round" stroke-linejoin="round"/>
<path d="M21 11V13" stroke="black" stroke-width="1.5" stroke-linecap="round" stroke-linejoin="round"/>
<path d="M18.3633 18.3633L17.6562 19.0703" stroke="black" stroke-width="1.5" stroke-linecap="round" stroke-linejoin="round"/>
<path d="M12 17V21" stroke="black" stroke-width="1.5" stroke-linecap="round" stroke-linejoin="round"/>
<path d="M13 21H11" stroke="black" stroke-width="1.5" stroke-linecap="round" stroke-linejoin="round"/>
<path d="M8.46572 15.5361L5.63672 18.3641" stroke="black" stroke-width="1.5" stroke-linecap="round" stroke-linejoin="round"/>
<path d="M6.34269 19.0712L4.92969 17.6572" stroke="black" stroke-width="1.5" stroke-linecap="round" stroke-linejoin="round"/>
<path d="M7 12H3" stroke="black" stroke-width="1.5" stroke-linecap="round" stroke-linejoin="round"/>
<path d="M3 13V11" stroke="black" stroke-width="1.5" stroke-linecap="round" stroke-linejoin="round"/>
<path d="M5.63669 5.63672L4.92969 6.34372" stroke="black" stroke-width="1.5" stroke-linecap="round" stroke-linejoin="round"/>
</g>
<defs>
<clipPath id="clip0_211_73224">
<rect width="24" height="24" fill="white"/>
</clipPath>
</defs>
</svg>
