<svg width="24" height="24" viewBox="0 0 24 24" fill="none" xmlns="http://www.w3.org/2000/svg">
<g clip-path="url(#clip0_211_72994)">
<path d="M5 14.5H4.778C3.243 14.5 2 13.38 2 12C2 10.62 3.243 9.5 4.778 9.5H5" stroke="black" stroke-width="1.5" stroke-linecap="round" stroke-linejoin="round"/>
<path d="M19 14.5H19.222C20.756 14.5 22 13.38 22 12C22 10.62 20.756 9.5 19.222 9.5H19" stroke="black" stroke-width="1.5" stroke-linecap="round" stroke-linejoin="round"/>
<path d="M9 10H10M14 10H15" stroke="black" stroke-width="1.5" stroke-linecap="round" stroke-linejoin="round"/>
<path d="M9 14H14" stroke="black" stroke-width="1.5" stroke-linecap="round" stroke-linejoin="round"/>
<path d="M19 15V8.51C19 8.07546 18.8585 7.65273 18.5969 7.30577C18.3353 6.95881 17.9678 6.7065 17.55 6.587L12.55 5.158C12.1905 5.05518 11.8095 5.05518 11.45 5.158L9.662 5.669M6.544 6.56L6.45 6.587C6.03238 6.70645 5.665 6.95862 5.4034 7.30537C5.14179 7.65213 5.00019 8.07463 5 8.509V15.491C4.99998 15.9255 5.14148 16.3483 5.40309 16.6952C5.66471 17.0422 6.03221 17.2945 6.45 17.414L11.45 18.843C11.8095 18.9458 12.1905 18.9458 12.55 18.843L17.449 17.443" stroke="black" stroke-width="1.5" stroke-linecap="round" stroke-linejoin="round"/>
<path d="M3 3L21 21" stroke="black" stroke-width="1.5" stroke-linecap="round" stroke-linejoin="round"/>
</g>
<defs>
<clipPath id="clip0_211_72994">
<rect width="24" height="24" fill="white"/>
</clipPath>
</defs>
</svg>
