<svg width="24" height="24" viewBox="0 0 24 24" fill="none" xmlns="http://www.w3.org/2000/svg">
<g clip-path="url(#clip0_211_65005)">
<path d="M3 12C3 13.1819 3.23279 14.3522 3.68508 15.4442C4.13738 16.5361 4.80031 17.5282 5.63604 18.364C6.47177 19.1997 7.46392 19.8626 8.55585 20.3149C9.64778 20.7672 10.8181 21 12 21C13.1819 21 14.3522 20.7672 15.4442 20.3149C16.5361 19.8626 17.5282 19.1997 18.364 18.364C19.1997 17.5282 19.8626 16.5361 20.3149 15.4442C20.7672 14.3522 21 13.1819 21 12C21 10.8181 20.7672 9.64778 20.3149 8.55585C19.8626 7.46392 19.1997 6.47177 18.364 5.63604C17.5282 4.80031 16.5361 4.13738 15.4442 3.68508C14.3522 3.23279 13.1819 3 12 3C10.8181 3 9.64778 3.23279 8.55585 3.68508C7.46392 4.13738 6.47177 4.80031 5.63604 5.63604C4.80031 6.47177 4.13738 7.46392 3.68508 8.55585C3.23279 9.64778 3 10.8181 3 12Z" stroke="black" stroke-width="1.5" stroke-linecap="round" stroke-linejoin="round"/>
<path d="M12 12C12.7834 13.3877 13.9634 14.5098 15.3888 15.2225C16.8141 15.9351 18.4198 16.2059 20 16" stroke="black" stroke-width="1.5" stroke-linecap="round" stroke-linejoin="round"/>
<path d="M7.5 13.5C8.31736 15.1672 9.51044 16.622 10.9854 17.7499C12.4603 18.8778 14.1769 19.648 16 20" stroke="black" stroke-width="1.5" stroke-linecap="round" stroke-linejoin="round"/>
<path d="M11.9992 12.0004C10.4057 11.985 8.84397 12.4458 7.51414 13.3238C6.18432 14.2018 5.147 15.457 4.53516 16.9284" stroke="black" stroke-width="1.5" stroke-linecap="round" stroke-linejoin="round"/>
<path d="M12.9503 7.35281C11.0977 7.22691 9.24111 7.53266 7.52669 8.24602C5.81227 8.95938 4.2868 10.0609 3.07031 11.4638" stroke="black" stroke-width="1.5" stroke-linecap="round" stroke-linejoin="round"/>
<path d="M12.0008 12.0003C12.8108 10.628 13.1926 9.04502 13.0971 7.45436C13.0016 5.8637 12.4332 4.3378 11.4648 3.07227" stroke="black" stroke-width="1.5" stroke-linecap="round" stroke-linejoin="round"/>
<path d="M15.5508 15.1471C16.586 13.6058 17.2495 11.8452 17.489 10.004C17.7284 8.16271 17.5374 6.29101 16.9308 4.53613" stroke="black" stroke-width="1.5" stroke-linecap="round" stroke-linejoin="round"/>
</g>
<defs>
<clipPath id="clip0_211_65005">
<rect width="24" height="24" fill="white"/>
</clipPath>
</defs>
</svg>
