<svg width="24" height="24" viewBox="0 0 24 24" fill="none" xmlns="http://www.w3.org/2000/svg">
<g clip-path="url(#clip0_211_65268)">
<path d="M15 9C15 9.26522 15.1054 9.51957 15.2929 9.70711C15.4804 9.89464 15.7348 10 16 10C16.2652 10 16.5196 9.89464 16.7071 9.70711C16.8946 9.51957 17 9.26522 17 9C17 8.73478 16.8946 8.48043 16.7071 8.29289C16.5196 8.10536 16.2652 8 16 8C15.7348 8 15.4804 8.10536 15.2929 8.29289C15.1054 8.48043 15 8.73478 15 9Z" stroke="black" stroke-width="1.5" stroke-linecap="round" stroke-linejoin="round"/>
<path d="M6 11L10 9L13.5 12L12 14" stroke="black" stroke-width="1.5" stroke-linecap="round" stroke-linejoin="round"/>
<path d="M3 16.7495C3.31129 16.9043 3.65249 16.9896 4 16.9995C4.3895 17.0077 4.77512 16.9209 5.12358 16.7467C5.47203 16.5725 5.77283 16.316 6 15.9995C6.22717 15.6831 6.52797 15.4266 6.87642 15.2524C7.22488 15.0782 7.6105 14.9914 8 14.9995C8.3895 14.9914 8.77512 15.0782 9.12358 15.2524C9.47203 15.4266 9.77283 15.6831 10 15.9995C10.2272 16.316 10.528 16.5725 10.8764 16.7467C11.2249 16.9209 11.6105 17.0077 12 16.9995C12.3895 17.0077 12.7751 16.9209 13.1236 16.7467C13.472 16.5725 13.7728 16.316 14 15.9995C14.2272 15.6831 14.528 15.4266 14.8764 15.2524C15.2249 15.0782 15.6105 14.9914 16 14.9995C16.3895 14.9914 16.7751 15.0782 17.1236 15.2524C17.472 15.4266 17.7728 15.6831 18 15.9995C18.2272 16.316 18.528 16.5725 18.8764 16.7467C19.2249 16.9209 19.6105 17.0077 20 16.9995C20.3475 16.9896 20.6887 16.9043 21 16.7495" stroke="black" stroke-width="1.5" stroke-linecap="round" stroke-linejoin="round"/>
</g>
<defs>
<clipPath id="clip0_211_65268">
<rect width="24" height="24" fill="white"/>
</clipPath>
</defs>
</svg>
