<svg width="24" height="24" viewBox="0 0 24 24" fill="none" xmlns="http://www.w3.org/2000/svg">
<g clip-path="url(#clip0_211_65105)">
<path d="M8.63253 4.65411C10.2689 3.9942 12.0632 3.82988 13.7923 4.18156C15.5214 4.53324 17.1089 5.38542 18.3576 6.63213C19.6062 7.87884 20.4608 9.46507 20.8151 11.1936C21.1695 12.9221 21.0079 14.7167 20.3505 16.3541M18.8475 18.8401C18.4868 19.2627 18.0878 19.651 17.6555 20.0001H6.34353C5.31523 19.1692 4.48262 18.122 3.90488 16.9329C3.32714 15.7437 3.01846 14.4419 3.0008 13.12C2.98314 11.7981 3.25693 10.4885 3.80269 9.28441C4.34846 8.08028 5.1528 7.01118 6.15853 6.15311" stroke="black" stroke-width="1.5" stroke-linecap="round" stroke-linejoin="round"/>
<path d="M19.9985 9H12.9985M10.2305 10.246C10.7375 12.246 11.8265 13.664 13.4985 14.5C14.0225 14.762 14.5685 14.99 15.1385 15.183" stroke="black" stroke-width="1.5" stroke-linecap="round" stroke-linejoin="round"/>
<path d="M3 3L21 21" stroke="black" stroke-width="1.5" stroke-linecap="round" stroke-linejoin="round"/>
</g>
<defs>
<clipPath id="clip0_211_65105">
<rect width="24" height="24" fill="white"/>
</clipPath>
</defs>
</svg>
