<svg width="24" height="24" viewBox="0 0 24 24" fill="none" xmlns="http://www.w3.org/2000/svg">
<g clip-path="url(#clip0_211_65273)">
<path d="M11 12C11 12.2652 11.1054 12.5196 11.2929 12.7071C11.4804 12.8946 11.7348 13 12 13C12.2652 13 12.5196 12.8946 12.7071 12.7071C12.8946 12.5196 13 12.2652 13 12C13 11.7348 12.8946 11.4804 12.7071 11.2929C12.5196 11.1054 12.2652 11 12 11C11.7348 11 11.4804 11.1054 11.2929 11.2929C11.1054 11.4804 11 11.7348 11 12Z" stroke="black" stroke-width="1.5" stroke-linecap="round" stroke-linejoin="round"/>
<path d="M12 7C11.0111 7 10.0444 7.29324 9.22215 7.84265C8.39991 8.39206 7.75904 9.17295 7.3806 10.0866C7.00217 11.0002 6.90315 12.0055 7.09608 12.9755C7.289 13.9454 7.76521 14.8363 8.46447 15.5355C9.16373 16.2348 10.0546 16.711 11.0246 16.9039C11.9945 17.0969 12.9998 16.9978 13.9134 16.6194C14.827 16.241 15.6079 15.6001 16.1574 14.7779C16.7068 13.9556 17 12.9889 17 12" stroke="black" stroke-width="1.5" stroke-linecap="round" stroke-linejoin="round"/>
<path d="M12.9995 3.05514C11.1456 2.84715 9.27281 3.22042 7.6403 4.12331C6.00778 5.0262 4.69618 6.41409 3.88694 8.095C3.07769 9.77591 2.81079 11.6667 3.12316 13.506C3.43552 15.3452 4.31172 17.0419 5.63054 18.3614C6.94936 19.6809 8.64562 20.5579 10.4847 20.8712C12.3238 21.1845 14.2147 20.9186 15.896 20.1102C17.5774 19.3018 18.9659 17.9909 19.8696 16.3588C20.7733 14.7267 21.1476 12.8542 20.9405 11.0001" stroke="black" stroke-width="1.5" stroke-linecap="round" stroke-linejoin="round"/>
<path d="M15 6V9H18L21 6H18V3L15 6Z" stroke="black" stroke-width="1.5" stroke-linecap="round" stroke-linejoin="round"/>
<path d="M15 9L12 12" stroke="black" stroke-width="1.5" stroke-linecap="round" stroke-linejoin="round"/>
</g>
<defs>
<clipPath id="clip0_211_65273">
<rect width="24" height="24" fill="white"/>
</clipPath>
</defs>
</svg>
