<svg width="24" height="24" viewBox="0 0 24 24" fill="none" xmlns="http://www.w3.org/2000/svg">
<g clip-path="url(#clip0_211_65131)">
<path d="M6.41412 6.414C6.78906 6.03894 6.99969 5.53033 6.99969 5C6.99969 4.46967 6.78906 3.96105 6.41412 3.586L5.00012 2.172L2.17212 5L3.58612 6.414C3.96117 6.78894 4.46979 6.99957 5.00012 6.99957C5.53045 6.99957 6.03906 6.78894 6.41412 6.414Z" stroke="black" stroke-width="1.5" stroke-linecap="round" stroke-linejoin="round"/>
<path d="M17.5856 17.5856C17.2106 17.9606 17 18.4692 17 18.9996C17 19.5299 17.2106 20.0385 17.5856 20.4136L18.9996 21.8276L21.8276 18.9996L20.4136 17.5856C20.0385 17.2106 19.5299 17 18.9996 17C18.4692 17 17.9606 17.2106 17.5856 17.5856Z" stroke="black" stroke-width="1.5" stroke-linecap="round" stroke-linejoin="round"/>
<path d="M6.5 6.5L17.5 17.5" stroke="black" stroke-width="1.5" stroke-linecap="round" stroke-linejoin="round"/>
<path d="M22 2.5C12.017 5.101 4.373 10.452 2 22C11.983 19.399 19.627 14.048 22 2.5Z" stroke="black" stroke-width="1.5" stroke-linecap="round" stroke-linejoin="round"/>
<path d="M6.5 12.5L11.5 17.5" stroke="black" stroke-width="1.5" stroke-linecap="round" stroke-linejoin="round"/>
<path d="M12.5 6.5L17.5 11.5" stroke="black" stroke-width="1.5" stroke-linecap="round" stroke-linejoin="round"/>
</g>
<defs>
<clipPath id="clip0_211_65131">
<rect width="24" height="24" fill="white"/>
</clipPath>
</defs>
</svg>
