<svg width="24" height="24" viewBox="0 0 24 24" fill="none" xmlns="http://www.w3.org/2000/svg">
<g clip-path="url(#clip0_211_64985)">
<path d="M20.0401 16.0456C20.8926 14.3547 21.19 12.438 20.89 10.5683C20.59 8.69856 19.7078 6.9711 18.3692 5.63177C17.0305 4.29243 15.3035 3.40946 13.4339 3.10853C11.5643 2.80759 9.64749 3.10402 7.95615 3.95563M5.63315 5.63863C3.94505 7.3262 2.99647 9.61525 2.99609 12.0022C2.99572 14.3892 3.94358 16.6785 5.63115 18.3666C7.31872 20.0547 9.60777 21.0033 11.9947 21.0037C14.3817 21.0041 16.671 20.0562 18.3591 18.3686" stroke="black" stroke-width="1.5" stroke-linecap="round" stroke-linejoin="round"/>
<path d="M12.0011 7L16.7561 10.455L16.1901 12.198L15.2101 15.212L15.0011 16H9.00109L7.24609 10.455L9.10609 9.104L11.4191 7.423L12.0011 7Z" stroke="black" stroke-width="1.5" stroke-linecap="round" stroke-linejoin="round"/>
<path d="M12 7V3" stroke="black" stroke-width="1.5" stroke-linecap="round" stroke-linejoin="round"/>
<path d="M15 16L17.5 19" stroke="black" stroke-width="1.5" stroke-linecap="round" stroke-linejoin="round"/>
<path d="M16.7539 10.455L20.4989 9" stroke="black" stroke-width="1.5" stroke-linecap="round" stroke-linejoin="round"/>
<path d="M9.061 16.045L6.5 19" stroke="black" stroke-width="1.5" stroke-linecap="round" stroke-linejoin="round"/>
<path d="M7.245 10.455L3.5 9" stroke="black" stroke-width="1.5" stroke-linecap="round" stroke-linejoin="round"/>
<path d="M3 3L21 21" stroke="black" stroke-width="1.5" stroke-linecap="round" stroke-linejoin="round"/>
</g>
<defs>
<clipPath id="clip0_211_64985">
<rect width="24" height="24" fill="white"/>
</clipPath>
</defs>
</svg>
