<svg width="24" height="24" viewBox="0 0 24 24" fill="none" xmlns="http://www.w3.org/2000/svg">
<g clip-path="url(#clip0_211_65075)">
<path d="M11.1063 18.7904L10.1063 19.7824C9.33921 20.5427 8.30642 20.9748 7.22643 20.9873C6.14645 20.9997 5.10399 20.5915 4.31958 19.8491C3.53517 19.1066 3.07035 18.0882 3.02346 17.0091C2.97656 15.9301 3.35127 14.8751 4.0683 14.0674L4.2253 13.9014L12.5073 5.50043L14.0073 7.00043L17.4573 3.60943C17.8374 3.2327 18.3482 3.017 18.8833 3.00719C19.4184 2.99737 19.9367 3.1942 20.3304 3.55674C20.7241 3.91928 20.9629 4.41962 20.9972 4.95372C21.0314 5.48782 20.8585 6.01457 20.5143 6.42443L20.3983 6.55043L17.0073 10.0004L18.5073 11.5004L14.8393 15.1174" stroke="black" stroke-width="1.5" stroke-linecap="round" stroke-linejoin="round"/>
<path d="M10.5 7.5L16.5 13.5" stroke="black" stroke-width="1.5" stroke-linecap="round" stroke-linejoin="round"/>
<path d="M11 18C11 18.394 11.0776 18.7841 11.2284 19.1481C11.3791 19.512 11.6001 19.8427 11.8787 20.1213C12.1573 20.3999 12.488 20.6209 12.8519 20.7716C13.2159 20.9224 13.606 21 14 21C14.394 21 14.7841 20.9224 15.1481 20.7716C15.512 20.6209 15.8427 20.3999 16.1213 20.1213C16.3999 19.8427 16.6209 19.512 16.7716 19.1481C16.9224 18.7841 17 18.394 17 18C17 17.606 16.9224 17.2159 16.7716 16.8519C16.6209 16.488 16.3999 16.1573 16.1213 15.8787C15.8427 15.6001 15.512 15.3791 15.1481 15.2284C14.7841 15.0776 14.394 15 14 15C13.606 15 13.2159 15.0776 12.8519 15.2284C12.488 15.3791 12.1573 15.6001 11.8787 15.8787C11.6001 16.1573 11.3791 16.488 11.2284 16.8519C11.0776 17.2159 11 17.606 11 18Z" stroke="black" stroke-width="1.5" stroke-linecap="round" stroke-linejoin="round"/>
</g>
<defs>
<clipPath id="clip0_211_65075">
<rect width="24" height="24" fill="white"/>
</clipPath>
</defs>
</svg>
