<svg width="24" height="24" viewBox="0 0 24 24" fill="none" xmlns="http://www.w3.org/2000/svg">
<g clip-path="url(#clip0_211_65189)">
<path d="M2 19.9995C2.22717 20.316 2.52797 20.5725 2.87642 20.7467C3.22488 20.9209 3.6105 21.0077 4 20.9995C4.3895 21.0077 4.77512 20.9209 5.12358 20.7467C5.47203 20.5725 5.77283 20.316 6 19.9995C6.22717 19.6831 6.52797 19.4266 6.87642 19.2524C7.22488 19.0782 7.6105 18.9914 8 18.9995C8.3895 18.9914 8.77512 19.0782 9.12358 19.2524C9.47203 19.4266 9.77283 19.6831 10 19.9995C10.2272 20.316 10.528 20.5725 10.8764 20.7467C11.2249 20.9209 11.6105 21.0077 12 20.9995C12.3895 21.0077 12.7751 20.9209 13.1236 20.7467C13.472 20.5725 13.7728 20.316 14 19.9995C14.2272 19.6831 14.528 19.4266 14.8764 19.2524C15.2249 19.0782 15.6105 18.9914 16 18.9995C16.3895 18.9914 16.7751 19.0782 17.1236 19.2524C17.472 19.4266 17.7728 19.6831 18 19.9995C18.2272 20.316 18.528 20.5725 18.8764 20.7467C19.2249 20.9209 19.6105 21.0077 20 20.9995C20.303 20.9995 20.6 20.9545 20.876 20.8535" stroke="black" stroke-width="1.5" stroke-linecap="round" stroke-linejoin="round"/>
<path d="M2 15.9995C2.22717 16.316 2.52797 16.5725 2.87642 16.7467C3.22488 16.9209 3.6105 17.0077 4 16.9995C4.3895 17.0077 4.77512 16.9209 5.12358 16.7467C5.47203 16.5725 5.77283 16.316 6 15.9995C6.22717 15.6831 6.52797 15.4266 6.87642 15.2524C7.22488 15.0782 7.6105 14.9914 8 14.9995C8.3895 14.9914 8.77512 15.0782 9.12358 15.2524C9.47203 15.4266 9.77283 15.6831 10 15.9995C10.2272 16.316 10.528 16.5725 10.8764 16.7467C11.2249 16.9209 11.6105 17.0077 12 16.9995C12.3895 17.0077 12.7751 16.9209 13.1236 16.7467C13.472 16.5725 13.7728 16.316 14 15.9995C14.2819 15.6069 14.6757 15.3086 15.13 15.1435M20.857 16.8605C21.3167 16.6965 21.7154 16.3961 22 15.9995" stroke="black" stroke-width="1.5" stroke-linecap="round" stroke-linejoin="round"/>
<path d="M15 11V4.5C15 4.10218 15.158 3.72064 15.4393 3.43934C15.7206 3.15804 16.1022 3 16.5 3C16.8978 3 17.2794 3.15804 17.5607 3.43934C17.842 3.72064 18 4.10218 18 4.5" stroke="black" stroke-width="1.5" stroke-linecap="round" stroke-linejoin="round"/>
<path d="M8.9985 11.9998V8.99979M8.9985 4.99979V4.49979C8.99862 4.26544 8.94383 4.03433 8.83853 3.82498C8.73322 3.61563 8.58033 3.43387 8.39211 3.29426C8.2039 3.15465 7.98559 3.06109 7.75469 3.02106C7.52379 2.98104 7.28672 2.99567 7.0625 3.06379" stroke="black" stroke-width="1.5" stroke-linecap="round" stroke-linejoin="round"/>
<path d="M15 5H9" stroke="black" stroke-width="1.5" stroke-linecap="round" stroke-linejoin="round"/>
<path d="M9 10H10M14 10H15" stroke="black" stroke-width="1.5" stroke-linecap="round" stroke-linejoin="round"/>
<path d="M3 3L21 21" stroke="black" stroke-width="1.5" stroke-linecap="round" stroke-linejoin="round"/>
</g>
<defs>
<clipPath id="clip0_211_65189">
<rect width="24" height="24" fill="white"/>
</clipPath>
</defs>
</svg>
