<svg width="24" height="24" viewBox="0 0 24 24" fill="none" xmlns="http://www.w3.org/2000/svg">
<g clip-path="url(#clip0_211_65315)">
<path d="M12 9C12 9.26522 12.1054 9.51957 12.2929 9.70711C12.4804 9.89464 12.7348 10 13 10C13.2652 10 13.5196 9.89464 13.7071 9.70711C13.8946 9.51957 14 9.26522 14 9C14 8.73478 13.8946 8.48043 13.7071 8.29289C13.5196 8.10536 13.2652 8 13 8C12.7348 8 12.4804 8.10536 12.2929 8.29289C12.1054 8.48043 12 8.73478 12 9Z" stroke="black" stroke-width="1.5" stroke-linecap="round" stroke-linejoin="round"/>
<path d="M5 8L8 12L12.5 13L20 12" stroke="black" stroke-width="1.5" stroke-linecap="round" stroke-linejoin="round"/>
<path d="M3 18.7495C3.31129 18.9043 3.65249 18.9896 4 18.9995C4.3895 19.0077 4.77512 18.9209 5.12358 18.7467C5.47203 18.5725 5.77283 18.316 6 17.9995C6.22717 17.6831 6.52797 17.4266 6.87642 17.2524C7.22488 17.0782 7.6105 16.9914 8 16.9995C8.3895 16.9914 8.77512 17.0782 9.12358 17.2524C9.47203 17.4266 9.77283 17.6831 10 17.9995C10.2272 18.316 10.528 18.5725 10.8764 18.7467C11.2249 18.9209 11.6105 19.0077 12 18.9995C12.3895 19.0077 12.7751 18.9209 13.1236 18.7467C13.472 18.5725 13.7728 18.316 14 17.9995C14.2272 17.6831 14.528 17.4266 14.8764 17.2524C15.2249 17.0782 15.6105 16.9914 16 16.9995C16.3895 16.9914 16.7751 17.0782 17.1236 17.2524C17.472 17.4266 17.7728 17.6831 18 17.9995C18.2272 18.316 18.528 18.5725 18.8764 18.7467C19.2249 18.9209 19.6105 19.0077 20 18.9995C20.3475 18.9896 20.6887 18.9043 21 18.7495" stroke="black" stroke-width="1.5" stroke-linecap="round" stroke-linejoin="round"/>
<path d="M12 16L12.5 13" stroke="black" stroke-width="1.5" stroke-linecap="round" stroke-linejoin="round"/>
<path d="M6.5 5C6.63261 5 6.75979 4.94732 6.85355 4.85355C6.94732 4.75979 7 4.63261 7 4.5C7 4.36739 6.94732 4.24021 6.85355 4.14645C6.75979 4.05268 6.63261 4 6.5 4C6.36739 4 6.24021 4.05268 6.14645 4.14645C6.05268 4.24021 6 4.36739 6 4.5C6 4.63261 6.05268 4.75979 6.14645 4.85355C6.24021 4.94732 6.36739 5 6.5 5Z" fill="black" stroke="black" stroke-width="1.5" stroke-linecap="round" stroke-linejoin="round"/>
</g>
<defs>
<clipPath id="clip0_211_65315">
<rect width="24" height="24" fill="white"/>
</clipPath>
</defs>
</svg>
