<svg width="24" height="24" viewBox="0 0 24 24" fill="none" xmlns="http://www.w3.org/2000/svg">
<g clip-path="url(#clip0_211_65142)">
<path d="M6 6C5.40666 6 4.82664 6.17595 4.33329 6.50559C3.83994 6.83524 3.45543 7.30377 3.22836 7.85195C3.0013 8.40013 2.94189 9.00333 3.05765 9.58527C3.1734 10.1672 3.45912 10.7018 3.87868 11.1213C4.29824 11.5409 4.83279 11.8266 5.41473 11.9424C5.99667 12.0581 6.59987 11.9987 7.14805 11.7716C7.69623 11.5446 8.16477 11.1601 8.49441 10.6667C8.82405 10.1734 9 9.59334 9 9" stroke="black" stroke-width="1.5" stroke-linecap="round" stroke-linejoin="round"/>
<path d="M15 9C15 9.79565 15.3161 10.5587 15.8787 11.1213C16.4413 11.6839 17.2044 12 18 12C18.7956 12 19.5587 11.6839 20.1213 11.1213C20.6839 10.5587 21 9.79565 21 9C21 8.20435 20.6839 7.44129 20.1213 6.87868C19.5587 6.31607 18.7956 6 18 6C17.2044 6 16.4413 6.31607 15.8787 6.87868C15.3161 7.44129 15 8.20435 15 9Z" stroke="black" stroke-width="1.5" stroke-linecap="round" stroke-linejoin="round"/>
<path d="M9 8.99998C9 9.79563 9.31607 10.5587 9.87868 11.1213C10.4413 11.6839 11.2044 12 12 12M14.566 10.555C14.9154 9.97961 15.0611 9.30347 14.9797 8.63527C14.8983 7.96708 14.5946 7.34566 14.1174 6.87096C13.6401 6.39625 13.0171 6.09584 12.3485 6.01804C11.6799 5.94023 11.0045 6.08955 10.431 6.44198" stroke="black" stroke-width="1.5" stroke-linecap="round" stroke-linejoin="round"/>
<path d="M6 15C6 15.7956 6.31607 16.5587 6.87868 17.1213C7.44129 17.6839 8.20435 18 9 18C9.79565 18 10.5587 17.6839 11.1213 17.1213C11.6839 16.5587 12 15.7956 12 15C12 14.2044 11.6839 13.4413 11.1213 12.8787C10.5587 12.3161 9.79565 12 9 12C8.20435 12 7.44129 12.3161 6.87868 12.8787C6.31607 13.4413 6 14.2044 6 15Z" stroke="black" stroke-width="1.5" stroke-linecap="round" stroke-linejoin="round"/>
<path d="M12.8768 12.8802C12.598 13.1586 12.3767 13.4891 12.2256 13.853C12.0744 14.2168 11.9965 14.6069 11.9961 15.0009C11.9953 15.7966 12.3107 16.56 12.8728 17.1232C13.435 17.6864 14.1978 18.0032 14.9935 18.004C15.3875 18.0044 15.7777 17.9271 16.1419 17.7767C16.506 17.6262 16.837 17.4056 17.1158 17.1272M17.7018 13.6962C17.4013 13.075 16.8964 12.5758 16.2719 12.2822" stroke="black" stroke-width="1.5" stroke-linecap="round" stroke-linejoin="round"/>
<path d="M3 3L21 21" stroke="black" stroke-width="1.5" stroke-linecap="round" stroke-linejoin="round"/>
</g>
<defs>
<clipPath id="clip0_211_65142">
<rect width="24" height="24" fill="white"/>
</clipPath>
</defs>
</svg>
