<svg width="24" height="24" viewBox="0 0 24 24" fill="none" xmlns="http://www.w3.org/2000/svg">
<g clip-path="url(#clip0_211_76958)">
<path d="M8.166 8.17376C7.56813 7.99157 6.93589 7.95202 6.31998 8.05827C5.70406 8.16453 5.12162 8.41364 4.61936 8.78562C4.11709 9.1576 3.70899 9.6421 3.42777 10.2003C3.14655 10.7584 3.00004 11.3747 3 11.9998C2.99997 12.791 3.23459 13.5644 3.67417 14.2223C4.11376 14.8801 4.73857 15.3928 5.46957 15.6956C6.20058 15.9983 7.00494 16.0774 7.78092 15.9229C8.5569 15.7685 9.26965 15.3873 9.829 14.8278C10.7166 14.0228 11.4523 13.0649 12.001 11.9998C12.5497 13.0649 13.2854 14.0228 14.173 14.8278C14.6233 15.2781 15.1746 15.6144 15.781 15.8088M13.678 9.65276C13.8374 9.48678 14.0025 9.32635 14.173 9.17176C14.5649 8.77931 15.034 8.47263 15.5508 8.27121C16.0675 8.06978 16.6204 7.978 17.1745 8.0017C17.7286 8.0254 18.2717 8.16407 18.7693 8.40888C19.267 8.6537 19.7082 8.99933 20.0651 9.42381C20.4221 9.84829 20.6868 10.3423 20.8426 10.8746C20.9983 11.4069 21.0417 11.9657 20.9699 12.5157C20.8982 13.0656 20.7128 13.5946 20.4257 14.069C20.1386 14.5435 19.7559 14.9531 19.302 15.2718" stroke="black" stroke-width="1.5" stroke-linecap="round" stroke-linejoin="round"/>
<path d="M3 3L21 21" stroke="black" stroke-width="1.5" stroke-linecap="round" stroke-linejoin="round"/>
</g>
<defs>
<clipPath id="clip0_211_76958">
<rect width="24" height="24" fill="white"/>
</clipPath>
</defs>
</svg>
