<svg width="24" height="24" viewBox="0 0 24 24" fill="none" xmlns="http://www.w3.org/2000/svg">
<path d="M21.25 22H2.75C2.34 22 2 21.66 2 21.25C2 20.84 2.34 20.5 2.75 20.5H21.25C21.66 20.5 22 20.84 22 21.25C22 21.66 21.66 22 21.25 22Z" fill="#171717"/>
<path opacity="0.4" d="M20.5899 13.7L13.3599 20.93C11.9399 22.35 9.64988 22.35 8.23988 20.94L3.62988 16.33L15.9899 3.96997L20.5999 8.57997C22.0099 9.98997 22.0099 12.28 20.5899 13.7Z" fill="#171717"/>
<path d="M15.9901 3.96992L3.62006 16.3299L2.71006 15.4199C1.30006 14.0099 1.30006 11.7199 2.72006 10.2999L9.95006 3.06992C11.3701 1.64992 13.6601 1.64992 15.0701 3.05992L15.9901 3.96992Z" fill="#171717"/>
<path d="M12.8898 17.5999L11.5398 18.9499C11.2598 19.2299 10.8098 19.2299 10.5298 18.9499C10.2498 18.6699 10.2498 18.2199 10.5298 17.9399L11.8798 16.5899C12.1598 16.3099 12.6098 16.3099 12.8898 16.5899C13.1698 16.8699 13.1698 17.3199 12.8898 17.5999Z" fill="#171717"/>
<path d="M17.2699 13.22L14.5799 15.91C14.2999 16.19 13.8499 16.19 13.5699 15.91C13.2899 15.63 13.2899 15.18 13.5699 14.9L16.2599 12.21C16.5399 11.93 16.9899 11.93 17.2699 12.21C17.5399 12.49 17.5399 12.94 17.2699 13.22Z" fill="#171717"/>
</svg>
