<svg width="24" height="24" viewBox="0 0 24 24" fill="none" xmlns="http://www.w3.org/2000/svg">
<path d="M5.20018 10.4601C5.01018 10.4601 4.81018 10.3801 4.67018 10.2401C4.46018 10.0201 4.39018 9.70012 4.51018 9.42012L6.37018 4.98012C6.41018 4.89012 6.43018 4.83012 6.46018 4.78012C7.94018 1.37012 9.83018 0.540121 13.1702 1.82012C13.3602 1.89012 13.5102 2.04012 13.5902 2.23012C13.6702 2.42012 13.6702 2.63012 13.5902 2.82012L10.6602 9.62012C10.5402 9.90012 10.2702 10.0701 9.97018 10.0701H7.12018C6.55018 10.0701 6.01018 10.1801 5.49018 10.4001C5.40018 10.4401 5.30018 10.4601 5.20018 10.4601ZM10.6102 2.75012C9.37018 2.75012 8.61018 3.56012 7.82018 5.40012C7.81018 5.43012 7.79018 5.46012 7.78018 5.49012L6.47018 8.60012C6.69018 8.58012 6.90018 8.57012 7.12018 8.57012H9.47018L11.8802 2.97012C11.4102 2.82012 10.9902 2.75012 10.6102 2.75012Z" fill="#171717"/>
<path d="M18.2902 10.27C18.2202 10.27 18.1402 10.26 18.0702 10.24C17.6902 10.13 17.2902 10.07 16.8702 10.07H9.97023C9.72023 10.07 9.48023 9.93999 9.34023 9.72999C9.21023 9.51999 9.18023 9.24999 9.28023 9.01999L12.1802 2.28999C12.3302 1.92999 12.7702 1.67999 13.1402 1.80999C13.2602 1.84999 13.3702 1.89999 13.4902 1.94999L15.8502 2.93999C17.2302 3.50999 18.1502 4.10999 18.7502 4.82999C18.8702 4.96999 18.9702 5.11999 19.0702 5.27999C19.1802 5.44999 19.2802 5.64999 19.3502 5.85999C19.3802 5.92999 19.4302 6.05999 19.4602 6.19999C19.7402 7.14999 19.6002 8.30999 19.0002 9.80999C18.8702 10.09 18.5902 10.27 18.2902 10.27ZM11.1102 8.56999H16.8802C17.2002 8.56999 17.5102 8.59999 17.8202 8.64999C18.1002 7.77999 18.1602 7.10999 18.0002 6.56999C17.9802 6.47999 17.9602 6.43999 17.9502 6.39999C17.8902 6.23999 17.8502 6.14999 17.8002 6.06999C17.7302 5.95999 17.6802 5.86999 17.6002 5.77999C17.1702 5.25999 16.4102 4.77999 15.2702 4.30999L13.3002 3.48999L11.1102 8.56999Z" fill="#171717"/>
<path d="M15.9 22.7501H8.1C7.82 22.7501 7.56 22.7301 7.3 22.7001C3.79 22.4701 1.79 20.4601 1.55 16.9101C1.52 16.6901 1.5 16.4201 1.5 16.1501V14.2001C1.5 11.9501 2.84 9.92007 4.91 9.02007C5.62 8.72007 6.36 8.57007 7.13 8.57007H16.89C17.46 8.57007 18.01 8.65007 18.52 8.81007C20.87 9.52007 22.52 11.7401 22.52 14.2001V16.1501C22.52 16.3701 22.51 16.5801 22.5 16.7801C22.28 20.6901 20 22.7501 15.9 22.7501ZM7.12 10.0701C6.55 10.0701 6.01 10.1801 5.49 10.4001C3.97 11.0601 2.99 12.5501 2.99 14.2001V16.1501C2.99 16.3601 3.01 16.5701 3.03 16.7701C3.22 19.6201 4.62 21.0201 7.43 21.2101C7.68 21.2401 7.88 21.2601 8.09 21.2601H15.89C19.19 21.2601 20.81 19.8101 20.97 16.7101C20.98 16.5301 20.99 16.3501 20.99 16.1501V14.2001C20.99 12.3901 19.78 10.7701 18.06 10.2401C17.68 10.1301 17.28 10.0701 16.86 10.0701H7.12Z" fill="#171717"/>
<path d="M2.24023 14.95C1.83023 14.95 1.49023 14.61 1.49023 14.2V11.27C1.49023 8.12005 3.72023 5.40005 6.80023 4.80005C7.07023 4.75005 7.35023 4.85004 7.53023 5.06004C7.70023 5.27004 7.75023 5.57005 7.64023 5.82005L5.89023 10C5.81023 10.18 5.67023 10.32 5.50023 10.4C3.98023 11.06 3.00023 12.55 3.00023 14.2C2.99023 14.61 2.66023 14.95 2.24023 14.95ZM5.60023 6.82005C4.32023 7.54005 3.39023 8.80005 3.10023 10.27C3.54023 9.82005 4.05023 9.44004 4.63023 9.16004L5.60023 6.82005Z" fill="#171717"/>
<path d="M21.7601 14.95C21.3501 14.95 21.0101 14.61 21.0101 14.2C21.0101 12.39 19.8001 10.77 18.0801 10.24C17.8801 10.18 17.7101 10.04 17.6201 9.85002C17.5301 9.66002 17.5201 9.44002 17.6001 9.25002C18.0701 8.08002 18.1901 7.23002 18.0001 6.57002C17.9801 6.48002 17.9601 6.44002 17.9501 6.40002C17.8201 6.11002 17.8901 5.77002 18.1201 5.55002C18.3501 5.33002 18.7001 5.28002 18.9801 5.43002C21.1601 6.57002 22.5101 8.81002 22.5101 11.27V14.2C22.5101 14.61 22.1701 14.95 21.7601 14.95ZM19.2501 9.09002C19.8801 9.38002 20.4401 9.79002 20.9101 10.28C20.7201 9.30002 20.2501 8.41002 19.5601 7.71002C19.5101 8.13002 19.4101 8.59002 19.2501 9.09002Z" fill="#171717"/>
</svg>
