<svg width="24" height="24" viewBox="0 0 24 24" fill="none" xmlns="http://www.w3.org/2000/svg">
<path opacity="0.8" d="M12.9002 2.52009L12.8702 2.59009L9.9702 9.32009H7.1202C6.4402 9.32009 5.8002 9.45009 5.2002 9.71009L6.9502 5.53009L6.9902 5.44009L7.0502 5.28009C7.0802 5.21009 7.1002 5.15009 7.1302 5.10009C8.4402 2.07009 9.9202 1.38009 12.9002 2.52009Z" fill="#171717"/>
<path d="M18.2902 9.52002C17.8402 9.39002 17.3702 9.32002 16.8802 9.32002H9.97021L12.8702 2.59002L12.9002 2.52002C13.0402 2.57002 13.1902 2.64002 13.3402 2.69002L15.5502 3.62002C16.7802 4.13002 17.6402 4.66002 18.1702 5.30002C18.2602 5.42002 18.3402 5.53002 18.4202 5.66002C18.5102 5.80002 18.5802 5.94002 18.6202 6.09002C18.6602 6.18002 18.6902 6.26002 18.7102 6.35002C18.9702 7.20002 18.8102 8.23002 18.2902 9.52002Z" fill="#171717"/>
<path opacity="0.4" d="M21.7602 14.2001V16.1501C21.7602 16.3501 21.7502 16.5501 21.7402 16.7401C21.5502 20.2401 19.6002 22.0001 15.9002 22.0001H8.10023C7.85023 22.0001 7.62023 21.9801 7.39023 21.9501C4.21023 21.7401 2.51023 20.0401 2.29023 16.8601C2.26023 16.6201 2.24023 16.3901 2.24023 16.1501V14.2001C2.24023 12.1901 3.46023 10.4601 5.20023 9.71007C5.80023 9.45007 6.44023 9.32007 7.12023 9.32007H16.8802C17.3702 9.32007 17.8402 9.39007 18.2902 9.52007C20.2902 10.1301 21.7602 11.9901 21.7602 14.2001Z" fill="#171717"/>
<path opacity="0.6" d="M6.95023 5.53003L5.20023 9.71003C3.46023 10.46 2.24023 12.19 2.24023 14.2V11.27C2.24023 8.43003 4.26023 6.06003 6.95023 5.53003Z" fill="#171717"/>
<path opacity="0.6" d="M21.76 11.2701V14.2001C21.76 11.9901 20.29 10.1301 18.29 9.52009C18.81 8.23009 18.97 7.20009 18.71 6.35009C18.69 6.26009 18.66 6.18009 18.62 6.09009C20.49 7.06009 21.76 9.03009 21.76 11.2701Z" fill="#171717"/>
</svg>
