<svg width="24" height="24" viewBox="0 0 24 24" fill="none" xmlns="http://www.w3.org/2000/svg">
<path opacity="0.4" d="M19.8501 12.9399C19.8501 13.7399 20.5001 14.3999 21.3001 14.3999C21.6801 14.3999 22.0001 14.7099 22.0001 15.0899C22.0001 18.9299 20.8401 20.0899 17.0001 20.0899H11.7501V18.4999C11.7501 18.1099 11.4501 17.7899 11.0701 17.7599V14.9099C11.4501 14.8799 11.7501 14.5599 11.7501 14.1699V9.82993C11.7501 9.43993 11.4501 9.11993 11.0701 9.08993V4.92993H17.0001C20.8401 4.92993 22.0001 6.08993 22.0001 9.92993V10.7799C22.0001 11.1699 21.6801 11.4799 21.3001 11.4799C20.5001 11.4799 19.8501 12.1299 19.8501 12.9399Z" fill="#171717"/>
<path d="M11.0701 9.09006C10.6601 9.09006 10.2501 9.42006 10.2501 9.83006V14.1701C10.2501 14.5801 10.5901 14.9201 11.0001 14.9201C11.0201 14.9201 11.0501 14.9201 11.0701 14.9101V17.7601C11.0501 17.7501 11.0201 17.7501 11.0001 17.7501C10.5901 17.7501 10.2501 18.0901 10.2501 18.5001V20.0901H8.49009C6.61009 20.0901 5.64009 18.6801 4.76009 16.5501L4.59009 16.1301C4.45009 15.7701 4.62009 15.3601 4.98009 15.2201C5.35009 15.0801 5.64009 14.7901 5.79009 14.4101C5.95009 14.0401 5.95009 13.6301 5.80009 13.2601C5.48009 12.4901 4.60009 12.1201 3.82009 12.4301C3.65009 12.5101 3.45009 12.5101 3.28009 12.4301C3.11009 12.3601 2.98009 12.2201 2.90009 12.0401L2.75009 11.6401C1.26009 8.02006 1.91009 6.47006 5.53009 4.97006L7.98009 3.96006C8.34009 3.81006 8.75009 3.98006 8.89009 4.34006L11.0701 9.09006Z" fill="#171717"/>
</svg>
