<svg width="24" height="24" viewBox="0 0 24 24" fill="none" xmlns="http://www.w3.org/2000/svg">
<path d="M15.3 4.17005C14.35 3.22005 13.04 2.71005 11.7 2.78005L6.69998 3.02005C4.69998 3.11005 3.10998 4.70005 3.00998 6.69005L2.76998 11.69C2.70998 13.03 3.20998 14.34 4.15998 15.29L8.68997 19.82C10.55 21.68 13.57 21.68 15.44 19.82L19.83 15.43C21.69 13.57 21.69 10.55 19.83 8.68005L18.7 7.55005" stroke="#171717" stroke-width="1.5" stroke-linecap="round" stroke-linejoin="round"/>
<path d="M8.51 11.8C8.81 11.93 9.15 12 9.5 12C10.88 12 12 10.88 12 9.5C12 8.12 10.88 7 9.5 7C8.12 7 7 8.12 7 9.5" stroke="#171717" stroke-width="1.5" stroke-linecap="round"/>
<path d="M13 17L17 13" stroke="#171717" stroke-width="1.5" stroke-miterlimit="10" stroke-linecap="round" stroke-linejoin="round"/>
</svg>
