<svg width="24" height="24" viewBox="0 0 24 24" fill="none" xmlns="http://www.w3.org/2000/svg">
<path d="M3.99012 14.6599L2.47013 13.1399C1.85013 12.5199 1.85013 11.4999 2.47013 10.8799L3.99012 9.3599C4.25012 9.0999 4.46012 8.58989 4.46012 8.22989V6.07987C4.46012 5.19987 5.18012 4.47989 6.06012 4.47989H8.21012C8.57012 4.47989 9.08012 4.26992 9.34012 4.00992L10.8601 2.4899C11.4801 1.8699 12.5001 1.8699 13.1201 2.4899L14.6401 4.00992C14.9001 4.26992 15.4101 4.47989 15.7701 4.47989H17.9201C18.8001 4.47989 19.5201 5.19987 19.5201 6.07987V8.22989C19.5201 8.58989 19.7301 9.0999 19.9901 9.3599L21.5101 10.8799C22.1301 11.4999 22.1301 12.5199 21.5101 13.1399L19.9901 14.6599C19.7301 14.9199 19.5201 15.43 19.5201 15.79V17.9399C19.5201 18.8199 18.8001 19.54 17.9201 19.54H15.7701C15.4101 19.54 14.9001 19.7499 14.6401 20.0099L13.1201 21.5299C12.5001 22.1499 11.4801 22.1499 10.8601 21.5299L9.34012 20.0099C9.08012 19.7499 8.57012 19.54 8.21012 19.54H6.06012C5.18012 19.54 4.46012 18.8199 4.46012 17.9399V15.79C4.46012 15.42 4.25012 14.9099 3.99012 14.6599Z" stroke="#171717" stroke-width="1.5" stroke-linecap="round" stroke-linejoin="round"/>
<path opacity="0.4" d="M9 15L15 9" stroke="#171717" stroke-width="1.5" stroke-linecap="round" stroke-linejoin="round"/>
<path opacity="0.4" d="M14.4945 14.5H14.5035" stroke="#171717" stroke-width="1.5" stroke-linecap="round" stroke-linejoin="round"/>
<path opacity="0.4" d="M9.49451 9.5H9.50349" stroke="#171717" stroke-width="1.5" stroke-linecap="round" stroke-linejoin="round"/>
</svg>
