<svg width="24" height="24" viewBox="0 0 24 24" fill="none" xmlns="http://www.w3.org/2000/svg">
<path opacity="0.4" d="M12 22C17.5228 22 22 17.5228 22 12C22 6.47715 17.5228 2 12 2C6.47715 2 2 6.47715 2 12C2 17.5228 6.47715 22 12 22Z" fill="#171717"/>
<path d="M8.32001 16.0199C8.13001 16.0199 7.94001 15.9499 7.79001 15.7999C7.50001 15.5099 7.50001 15.0299 7.79001 14.7399L14.34 8.18991C14.63 7.89991 15.11 7.89991 15.4 8.18991C15.69 8.47991 15.69 8.95991 15.4 9.24991L8.85001 15.7999C8.70001 15.9499 8.51001 16.0199 8.32001 16.0199Z" fill="#171717"/>
<path d="M8.73001 7.65991C7.92001 7.65991 7.25 8.31992 7.25 9.13992C7.25 9.94992 7.91001 10.6199 8.73001 10.6199C9.54001 10.6199 10.21 9.95992 10.21 9.13992C10.2 8.31992 9.54001 7.65991 8.73001 7.65991Z" fill="#171717"/>
<path d="M15.27 13.3899C14.46 13.3899 13.79 14.0499 13.79 14.8699C13.79 15.6799 14.45 16.3499 15.27 16.3499C16.08 16.3499 16.75 15.6899 16.75 14.8699C16.75 14.0499 16.09 13.3899 15.27 13.3899Z" fill="#171717"/>
</svg>
