<svg width="24" height="24" viewBox="0 0 24 24" fill="none" xmlns="http://www.w3.org/2000/svg">
<path opacity="0.4" d="M21.9999 9V16.46C21.9999 18.75 20.1399 20.6 17.8499 20.6H6.3999L9.9699 17.03L11.2499 15.75L17.9999 9H21.9999Z" fill="#171717"/>
<path opacity="0.4" d="M15 9L4 20C2.8 19.28 2 17.96 2 16.46V9H15Z" fill="#171717"/>
<path d="M22 7.54003V9.00003H18L21.47 5.53003C21.81 6.12003 22 6.81003 22 7.54003Z" fill="#171717"/>
<path d="M20 3.9999L15 8.9999H2V7.5399C2 5.2499 3.86 3.3999 6.15 3.3999H17.85C18.64 3.3999 19.37 3.6199 20 3.9999Z" fill="#171717"/>
<path d="M8.21 15.79L6.75 17.25H6C5.59 17.25 5.25 16.91 5.25 16.5C5.25 16.09 5.59 15.75 6 15.75H8C8.07 15.75 8.14 15.76 8.21 15.79Z" fill="#171717"/>
<path d="M15.2502 16.5C15.2502 16.91 14.9102 17.25 14.5002 17.25H10.5002C10.3002 17.25 10.1102 17.16 9.97021 17.03L11.2502 15.75H14.5002C14.9102 15.75 15.2502 16.09 15.2502 16.5Z" fill="#171717"/>
<path d="M21.7699 2.22988C21.4699 1.92988 20.9799 1.92988 20.6799 2.22988L2.22988 20.6899C1.92988 20.9899 1.92988 21.4799 2.22988 21.7799C2.37988 21.9199 2.56988 21.9999 2.76988 21.9999C2.96988 21.9999 3.15988 21.9199 3.30988 21.7699L21.7699 3.30988C22.0799 3.00988 22.0799 2.52988 21.7699 2.22988Z" fill="#171717"/>
</svg>
