<svg width="24" height="24" viewBox="0 0 24 24" fill="none" xmlns="http://www.w3.org/2000/svg">
<path d="M1.69995 7.91998C1.69995 4.83998 3.45994 3.52002 6.09995 3.52002H14.89C17.13 3.52002 18.74 4.47001 19.17 6.64001C19.25 7.03001 19.2899 7.44998 19.2899 7.91998V13.07C19.2899 16.15 17.53 17.47 14.89 17.47H6.09995C5.64995 17.47 5.21995 17.43 4.81995 17.34C4.56995 17.3 4.32992 17.23 4.10992 17.15C2.60992 16.59 1.69995 15.29 1.69995 13.07V12" stroke="#171717" stroke-width="1.5" stroke-miterlimit="10" stroke-linecap="round" stroke-linejoin="round"/>
<path d="M22.2998 15.0101V16.0701C22.2998 19.1501 20.5398 20.4701 17.8998 20.4701H9.10983C8.36983 20.4701 7.69984 20.3701 7.11984 20.1501C5.92984 19.7101 5.11983 18.8001 4.82983 17.3401C5.22983 17.4301 5.65983 17.4701 6.10983 17.4701H14.8998C17.5398 17.4701 19.2998 16.1501 19.2998 13.0701V7.9201C19.2998 7.4501 19.2598 7.03014 19.1798 6.64014C21.0898 7.03014 22.2998 8.37011 22.2998 10.9201" stroke="#171717" stroke-width="1.5" stroke-miterlimit="10" stroke-linecap="round" stroke-linejoin="round"/>
<path d="M13.1399 10.4999C13.1399 9.03988 11.9599 7.85986 10.4999 7.85986C9.03988 7.85986 7.85986 9.03988 7.85986 10.4999C7.85986 11.9599 9.03988 13.1399 10.4999 13.1399" stroke="#171717" stroke-width="1.5" stroke-miterlimit="10" stroke-linecap="round" stroke-linejoin="round"/>
<path d="M4.78003 8.30005V12.7001" stroke="#171717" stroke-width="1.5" stroke-miterlimit="10" stroke-linecap="round" stroke-linejoin="round"/>
<path d="M16.22 8.30005V12.7001" stroke="#171717" stroke-width="1.5" stroke-miterlimit="10" stroke-linecap="round" stroke-linejoin="round"/>
</svg>
