<svg width="24" height="24" viewBox="0 0 24 24" fill="none" xmlns="http://www.w3.org/2000/svg">
<path opacity="0.4" d="M16.19 2H7.81C4.17 2 2 4.17 2 7.81V16.18C2 19.83 4.17 22 7.81 22H16.18C19.82 22 21.99 19.83 21.99 16.19V7.81C22 4.17 19.83 2 16.19 2Z" fill="#171717"/>
<path d="M10.5 8.81006H6C5.59 8.81006 5.25 8.47006 5.25 8.06006C5.25 7.65006 5.59 7.31006 6 7.31006H10.5C10.91 7.31006 11.25 7.65006 11.25 8.06006C11.25 8.47006 10.91 8.81006 10.5 8.81006Z" fill="#171717"/>
<path d="M18 14.8101H13.5C13.09 14.8101 12.75 14.4701 12.75 14.0601C12.75 13.6501 13.09 13.3101 13.5 13.3101H18C18.41 13.3101 18.75 13.6501 18.75 14.0601C18.75 14.4701 18.41 14.8101 18 14.8101Z" fill="#171717"/>
<path d="M18 18.5601H13.5C13.09 18.5601 12.75 18.2201 12.75 17.8101C12.75 17.4001 13.09 17.0601 13.5 17.0601H18C18.41 17.0601 18.75 17.4001 18.75 17.8101C18.75 18.2201 18.41 18.5601 18 18.5601Z" fill="#171717"/>
<path d="M18 7.31006H16.52V5.81006C16.52 5.40006 16.18 5.06006 15.77 5.06006C15.36 5.06006 15.02 5.40006 15.02 5.81006V7.31006H13.5C13.09 7.31006 12.75 7.65006 12.75 8.06006C12.75 8.47006 13.09 8.81006 13.5 8.81006H15.02V10.3101C15.02 10.7201 15.36 11.0601 15.77 11.0601C16.18 11.0601 16.52 10.7201 16.52 10.3101V8.81006H18C18.41 8.81006 18.75 8.47006 18.75 8.06006C18.75 7.65006 18.41 7.31006 18 7.31006Z" fill="#171717"/>
<path d="M9.30994 15.9399L11.0299 14.2199C11.3199 13.9299 11.3199 13.4499 11.0299 13.1599C10.7399 12.8699 10.2599 12.8699 9.96994 13.1599L8.24994 14.8799L6.52994 13.1599C6.23994 12.8699 5.75994 12.8699 5.46994 13.1599C5.17994 13.4499 5.17994 13.9299 5.46994 14.2199L7.18994 15.9399L5.46994 17.6599C5.17994 17.9499 5.17994 18.4299 5.46994 18.7199C5.61994 18.8699 5.80994 18.9399 5.99994 18.9399C6.18994 18.9399 6.37994 18.8699 6.52994 18.7199L8.24994 16.9999L9.96994 18.7199C10.1199 18.8699 10.3099 18.9399 10.4999 18.9399C10.6899 18.9399 10.8799 18.8699 11.0299 18.7199C11.3199 18.4299 11.3199 17.9499 11.0299 17.6599L9.30994 15.9399Z" fill="#171717"/>
</svg>
