<svg width="24" height="24" viewBox="0 0 24 24" fill="none" xmlns="http://www.w3.org/2000/svg">
<path d="M14.5 15.4399H9.5" stroke="#171717" stroke-width="1.5" stroke-miterlimit="10" stroke-linecap="round" stroke-linejoin="round"/>
<path d="M12 13V18" stroke="#171717" stroke-width="1.5" stroke-miterlimit="10" stroke-linecap="round" stroke-linejoin="round"/>
<path d="M12 22.0001H8.1C7.86 22.0001 7.62 21.9801 7.39 21.9501C4.21 21.7401 2.51 20.0401 2.3 16.8601C2.27 16.6301 2.25 16.3901 2.25 16.1501V14.2001C2.25 12.1901 3.47 10.4601 5.21 9.71007C5.81 9.46007 6.45 9.32007 7.13 9.32007H16.89C17.38 9.32007 17.86 9.39007 18.3 9.52007C20.3 10.1201 21.76 11.9901 21.76 14.1901V16.1401C21.76 16.3401 21.75 16.5401 21.74 16.7401C21.55 20.2401 19.6 22.0001 15.9 22.0001" stroke="#171717" stroke-width="1.5" stroke-linecap="round" stroke-linejoin="round"/>
<path d="M12.9 2.52009L12.87 2.59009L9.96995 9.32009H7.11995C6.43995 9.32009 5.78995 9.46009 5.19995 9.71009L6.94995 5.53009L6.98995 5.43009L7.05995 5.27009C7.07995 5.21009 7.09995 5.15009 7.12995 5.10009C8.43995 2.07009 9.91995 1.38009 12.9 2.52009Z" stroke="#171717" stroke-width="1.5" stroke-linecap="round" stroke-linejoin="round"/>
<path d="M18.29 9.52002C17.84 9.38002 17.36 9.32002 16.88 9.32002H9.96997L12.87 2.59002L12.9 2.52002C13.05 2.57002 13.19 2.64002 13.34 2.70002L15.55 3.63002C16.78 4.14002 17.64 4.67002 18.16 5.31002C18.26 5.43002 18.34 5.54002 18.41 5.67002C18.5 5.81002 18.57 5.95002 18.61 6.10002C18.65 6.19002 18.68 6.28002 18.7 6.36002C18.97 7.20002 18.81 8.23002 18.29 9.52002Z" stroke="#171717" stroke-width="1.5" stroke-linecap="round" stroke-linejoin="round"/>
<path d="M6.94999 5.53003L5.19999 9.71003C3.45999 10.46 2.23999 12.19 2.23999 14.2V11.27C2.23999 8.43003 4.25999 6.06003 6.94999 5.53003Z" stroke="#171717" stroke-width="1.5" stroke-linecap="round" stroke-linejoin="round"/>
<path d="M21.76 11.2701V14.2001C21.76 12.0001 20.3 10.1301 18.3 9.5301C18.82 8.2301 18.97 7.2101 18.72 6.3601C18.7 6.2701 18.67 6.1801 18.63 6.1001C20.49 7.0601 21.76 9.0301 21.76 11.2701Z" stroke="#171717" stroke-width="1.5" stroke-linecap="round" stroke-linejoin="round"/>
</svg>
