<svg width="24" height="24" viewBox="0 0 24 24" fill="none" xmlns="http://www.w3.org/2000/svg">
<path d="M8.25884 21.2467C8.90577 20.5997 9.27741 19.7737 9.37376 18.9202C9.50452 17.7844 9.126 16.6074 8.25884 15.7401C7.74268 15.2239 7.10952 14.8797 6.44195 14.7214C5.16874 14.3979 3.7579 14.7352 2.7531 15.7401C2.058 16.4353 1.67948 17.3233 1.6313 18.2387C1.59689 18.6311 1.6313 19.0372 1.73453 19.4295C1.89282 20.0972 2.23693 20.7305 2.7531 21.2467C4.27406 22.7679 6.73788 22.7679 8.25884 21.2467ZM6.96499 17.7776C7.36416 17.7776 7.69451 18.1079 7.69451 18.5072C7.68762 18.9133 7.36416 19.2368 6.95811 19.2437L6.23548 19.2368L6.24236 19.932C6.23548 20.3381 5.91202 20.6616 5.50597 20.6685C5.09992 20.6616 4.77646 20.3381 4.76958 19.932L4.77646 19.2368L4.05383 19.2437C3.64778 19.2368 3.32432 18.9133 3.31744 18.5072C3.32432 18.3076 3.4069 18.1286 3.53766 17.9978C3.66843 17.867 3.84736 17.7844 4.04695 17.7776L4.77646 17.7776L4.77646 17.0204C4.77646 16.8139 4.85905 16.6349 4.98981 16.5042C5.12057 16.3734 5.2995 16.2908 5.50597 16.2908C5.90514 16.2908 6.23548 16.6212 6.23548 17.0204L6.23548 17.7776L6.96499 17.7776Z" fill="#171717"/>
<path d="M15.0952 3.84548V7.54425H13.6352V3.84548C13.6352 3.58267 13.4016 3.45613 13.2458 3.45613C13.1972 3.45613 13.1485 3.46587 13.0998 3.48533L5.38108 6.39568C4.8652 6.59035 4.53426 7.07703 4.53426 7.63185V8.284C3.6485 8.94589 3.07422 10.0068 3.07422 11.2041V7.63185C3.07422 6.47355 3.78477 5.44179 4.8652 5.03298L12.5937 2.1129C12.8078 2.03503 13.0317 1.99609 13.2458 1.99609C14.2192 1.99609 15.0952 2.78452 15.0952 3.84548Z" fill="#171717"/>
<path d="M21.5681 14.1166V15.0899C21.5681 15.3527 21.3637 15.5669 21.0911 15.5766H19.67C19.1542 15.5766 18.6869 15.197 18.648 14.6908C18.6188 14.3891 18.7356 14.1068 18.9303 13.9122C19.1055 13.7272 19.3488 13.6299 19.6116 13.6299H21.0814C21.3637 13.6396 21.5681 13.8538 21.5681 14.1166Z" fill="#171717"/>
<path d="M19.6009 12.6061H20.5936C21.129 12.6061 21.5669 12.1681 21.5669 11.6327V11.2043C21.5669 9.18931 19.9221 7.54419 17.9073 7.54419H6.73383C5.90653 7.54419 5.14735 7.81675 4.53417 8.28401C3.64847 8.94595 3.07422 10.007 3.07422 11.2043V12.9371C3.07422 13.307 3.46354 13.5406 3.81393 13.4238C4.35898 13.2388 4.93322 13.1415 5.50747 13.1415C8.45658 13.1415 10.8606 15.5459 10.8606 18.4955C10.8606 19.1963 10.6757 19.9654 10.3837 20.6468C10.228 20.9972 10.4713 21.4158 10.8509 21.4158H17.9073C19.9221 21.4158 21.5669 19.7707 21.5669 17.7556V17.5707C21.5669 17.0353 21.129 16.5972 20.5936 16.5972H19.7469C18.8125 16.5972 17.9171 16.0229 17.6737 15.1176C17.4791 14.3778 17.7127 13.6574 18.1993 13.1902C18.5594 12.8203 19.0558 12.6061 19.6009 12.6061ZM14.2672 12.4114H9.40068C9.00162 12.4114 8.6707 12.0804 8.6707 11.6813C8.6707 11.2822 9.00162 10.9512 9.40068 10.9512H14.2672C14.6662 10.9512 14.9972 11.2822 14.9972 11.6813C14.9972 12.0804 14.6662 12.4114 14.2672 12.4114Z" fill="#171717"/>
</svg>
