<svg width="24" height="24" viewBox="0 0 24 24" fill="none" xmlns="http://www.w3.org/2000/svg">
<g opacity="0.4">
<path d="M10.1098 11.1501H7.45981C6.82981 11.1501 6.31982 11.6601 6.31982 12.2901V17.4101H10.1098V11.1501V11.1501Z" stroke="#171717" stroke-width="1.5" stroke-miterlimit="10" stroke-linecap="round" stroke-linejoin="round"/>
<path d="M12.7601 6.6001H11.2401C10.6101 6.6001 10.1001 7.11011 10.1001 7.74011V17.4001H13.8901V7.74011C13.8901 7.11011 13.3901 6.6001 12.7601 6.6001Z" stroke="#171717" stroke-width="1.5" stroke-miterlimit="10" stroke-linecap="round" stroke-linejoin="round"/>
<path d="M16.5499 12.8501H13.8999V17.4001H17.6899V13.9901C17.6799 13.3601 17.1699 12.8501 16.5499 12.8501Z" stroke="#171717" stroke-width="1.5" stroke-miterlimit="10" stroke-linecap="round" stroke-linejoin="round"/>
</g>
<path d="M9 22H15C20 22 22 20 22 15V9C22 4 20 2 15 2H9C4 2 2 4 2 9V15C2 20 4 22 9 22Z" stroke="#171717" stroke-width="1.5" stroke-linecap="round" stroke-linejoin="round"/>
</svg>
