<svg width="24" height="24" viewBox="0 0 24 24" fill="none" xmlns="http://www.w3.org/2000/svg">
<g clip-path="url(#clip0_211_80329)">
<path d="M18.5305 14.5241C19.0204 13.2585 19.1319 11.8778 18.8513 10.55C18.5708 9.22225 17.9104 8.00465 16.9504 7.04541C15.9904 6.08618 14.7723 5.42667 13.4443 5.14716C12.1163 4.86764 10.7357 4.98018 9.4705 5.47106M7.0485 7.05306C5.73621 8.36628 4.99934 10.147 5 12.0035C5.00066 13.8601 5.73878 15.6403 7.052 16.9526C8.36522 18.2649 10.146 19.0017 12.0025 19.0011C13.859 19.0004 15.6392 18.2623 16.9515 16.9491" stroke="black" stroke-width="1.5" stroke-linecap="round" stroke-linejoin="round"/>
<path d="M4 4L7 7" stroke="black" stroke-width="1.5" stroke-linecap="round" stroke-linejoin="round"/>
<path d="M20 4L17 7" stroke="black" stroke-width="1.5" stroke-linecap="round" stroke-linejoin="round"/>
<path d="M4 20L7 17" stroke="black" stroke-width="1.5" stroke-linecap="round" stroke-linejoin="round"/>
<path d="M20 20L17 17" stroke="black" stroke-width="1.5" stroke-linecap="round" stroke-linejoin="round"/>
<path d="M3 3L21 21" stroke="black" stroke-width="1.5" stroke-linecap="round" stroke-linejoin="round"/>
</g>
<defs>
<clipPath id="clip0_211_80329">
<rect width="24" height="24" fill="white"/>
</clipPath>
</defs>
</svg>
