<svg width="24" height="24" viewBox="0 0 24 24" fill="none" xmlns="http://www.w3.org/2000/svg">
<g clip-path="url(#clip0_211_80353)">
<path d="M16.9984 18.5003C16.214 18.8598 15.3613 19.046 14.4984 19.046C13.6356 19.046 12.7828 18.8598 11.9984 18.5003C11.1784 18.2172 10.3068 18.1154 9.44357 18.2017C8.58038 18.288 7.74616 18.5605 6.99844 19.0003C7.53386 18.815 8.00586 18.4818 8.35981 18.0394C8.71375 17.597 8.93517 17.0634 8.99844 16.5003V9.00031C9.00372 8.12424 9.29647 7.27413 9.83172 6.58057C10.367 5.88701 11.1151 5.38835 11.9613 5.1612C12.8074 4.93405 13.7047 4.99098 14.5153 5.32322C15.326 5.65547 16.0051 6.24467 16.4484 7.00031M13.8984 13.0003H6.89844" stroke="black" stroke-width="1.5" stroke-linecap="round" stroke-linejoin="round"/>
</g>
<defs>
<clipPath id="clip0_211_80353">
<rect width="24" height="24" fill="white"/>
</clipPath>
</defs>
</svg>
